%FSAX25Y25*%
%MOIN*%
G70*
G01*
G75*
G04 Layer_Color=8388736*
%ADD10R,0.06693X0.03937*%
%ADD11R,0.03543X0.02756*%
G04:AMPARAMS|DCode=12|XSize=23.62mil|YSize=35.43mil|CornerRadius=5.91mil|HoleSize=0mil|Usage=FLASHONLY|Rotation=270.000|XOffset=0mil|YOffset=0mil|HoleType=Round|Shape=RoundedRectangle|*
%AMROUNDEDRECTD12*
21,1,0.02362,0.02362,0,0,270.0*
21,1,0.01181,0.03543,0,0,270.0*
1,1,0.01181,-0.01181,-0.00591*
1,1,0.01181,-0.01181,0.00591*
1,1,0.01181,0.01181,0.00591*
1,1,0.01181,0.01181,-0.00591*
%
%ADD12ROUNDEDRECTD12*%
%ADD13R,0.02756X0.05118*%
%ADD14R,0.02756X0.03543*%
G04:AMPARAMS|DCode=15|XSize=23.62mil|YSize=43.31mil|CornerRadius=5.91mil|HoleSize=0mil|Usage=FLASHONLY|Rotation=90.000|XOffset=0mil|YOffset=0mil|HoleType=Round|Shape=RoundedRectangle|*
%AMROUNDEDRECTD15*
21,1,0.02362,0.03150,0,0,90.0*
21,1,0.01181,0.04331,0,0,90.0*
1,1,0.01181,0.01575,0.00591*
1,1,0.01181,0.01575,-0.00591*
1,1,0.01181,-0.01575,-0.00591*
1,1,0.01181,-0.01575,0.00591*
%
%ADD15ROUNDEDRECTD15*%
%ADD16R,0.03150X0.03543*%
%ADD17R,0.04134X0.01772*%
%ADD18O,0.04134X0.01772*%
%ADD19R,0.05118X0.02756*%
G04:AMPARAMS|DCode=20|XSize=23.62mil|YSize=35.43mil|CornerRadius=5.91mil|HoleSize=0mil|Usage=FLASHONLY|Rotation=180.000|XOffset=0mil|YOffset=0mil|HoleType=Round|Shape=RoundedRectangle|*
%AMROUNDEDRECTD20*
21,1,0.02362,0.02362,0,0,180.0*
21,1,0.01181,0.03543,0,0,180.0*
1,1,0.01181,-0.00591,0.01181*
1,1,0.01181,0.00591,0.01181*
1,1,0.01181,0.00591,-0.01181*
1,1,0.01181,-0.00591,-0.01181*
%
%ADD20ROUNDEDRECTD20*%
G04:AMPARAMS|DCode=21|XSize=78.74mil|YSize=137.8mil|CornerRadius=19.69mil|HoleSize=0mil|Usage=FLASHONLY|Rotation=0.000|XOffset=0mil|YOffset=0mil|HoleType=Round|Shape=RoundedRectangle|*
%AMROUNDEDRECTD21*
21,1,0.07874,0.09843,0,0,0.0*
21,1,0.03937,0.13780,0,0,0.0*
1,1,0.03937,0.01969,-0.04921*
1,1,0.03937,-0.01969,-0.04921*
1,1,0.03937,-0.01969,0.04921*
1,1,0.03937,0.01969,0.04921*
%
%ADD21ROUNDEDRECTD21*%
%ADD22R,0.03543X0.03150*%
%ADD23C,0.01969*%
%ADD24C,0.01000*%
%ADD25C,0.05906*%
%ADD26C,0.01181*%
%ADD27C,0.01575*%
%ADD28C,0.02953*%
%ADD29C,0.19685*%
%ADD30C,0.39370*%
G04:AMPARAMS|DCode=31|XSize=59.06mil|YSize=59.06mil|CornerRadius=14.76mil|HoleSize=0mil|Usage=FLASHONLY|Rotation=270.000|XOffset=0mil|YOffset=0mil|HoleType=Round|Shape=RoundedRectangle|*
%AMROUNDEDRECTD31*
21,1,0.05906,0.02953,0,0,270.0*
21,1,0.02953,0.05906,0,0,270.0*
1,1,0.02953,-0.01476,-0.01476*
1,1,0.02953,-0.01476,0.01476*
1,1,0.02953,0.01476,0.01476*
1,1,0.02953,0.01476,-0.01476*
%
%ADD31ROUNDEDRECTD31*%
G04:AMPARAMS|DCode=32|XSize=59.06mil|YSize=59.06mil|CornerRadius=0mil|HoleSize=0mil|Usage=FLASHONLY|Rotation=270.000|XOffset=0mil|YOffset=0mil|HoleType=Round|Shape=Octagon|*
%AMOCTAGOND32*
4,1,8,-0.01476,-0.02953,0.01476,-0.02953,0.02953,-0.01476,0.02953,0.01476,0.01476,0.02953,-0.01476,0.02953,-0.02953,0.01476,-0.02953,-0.01476,-0.01476,-0.02953,0.0*
%
%ADD32OCTAGOND32*%

%ADD33C,0.05906*%
%ADD34C,0.03583*%
%ADD35C,0.00984*%
%ADD36C,0.00500*%
%ADD37C,0.00394*%
%ADD38C,0.00600*%
%ADD39C,0.00787*%
G04:AMPARAMS|DCode=40|XSize=127.95mil|YSize=107.87mil|CornerRadius=26.97mil|HoleSize=0mil|Usage=FLASHONLY|Rotation=90.000|XOffset=0mil|YOffset=0mil|HoleType=Round|Shape=RoundedRectangle|*
%AMROUNDEDRECTD40*
21,1,0.12795,0.05394,0,0,90.0*
21,1,0.07402,0.10787,0,0,90.0*
1,1,0.05394,0.02697,0.03701*
1,1,0.05394,0.02697,-0.03701*
1,1,0.05394,-0.02697,-0.03701*
1,1,0.05394,-0.02697,0.03701*
%
%ADD40ROUNDEDRECTD40*%
%ADD41R,0.07493X0.04737*%
%ADD42R,0.04343X0.03556*%
G04:AMPARAMS|DCode=43|XSize=31.62mil|YSize=43.43mil|CornerRadius=9.91mil|HoleSize=0mil|Usage=FLASHONLY|Rotation=270.000|XOffset=0mil|YOffset=0mil|HoleType=Round|Shape=RoundedRectangle|*
%AMROUNDEDRECTD43*
21,1,0.03162,0.02362,0,0,270.0*
21,1,0.01181,0.04343,0,0,270.0*
1,1,0.01981,-0.01181,-0.00591*
1,1,0.01981,-0.01181,0.00591*
1,1,0.01981,0.01181,0.00591*
1,1,0.01981,0.01181,-0.00591*
%
%ADD43ROUNDEDRECTD43*%
%ADD44R,0.03556X0.05918*%
%ADD45R,0.03556X0.04343*%
G04:AMPARAMS|DCode=46|XSize=31.62mil|YSize=51.31mil|CornerRadius=9.91mil|HoleSize=0mil|Usage=FLASHONLY|Rotation=90.000|XOffset=0mil|YOffset=0mil|HoleType=Round|Shape=RoundedRectangle|*
%AMROUNDEDRECTD46*
21,1,0.03162,0.03150,0,0,90.0*
21,1,0.01181,0.05131,0,0,90.0*
1,1,0.01981,0.01575,0.00591*
1,1,0.01981,0.01575,-0.00591*
1,1,0.01981,-0.01575,-0.00591*
1,1,0.01981,-0.01575,0.00591*
%
%ADD46ROUNDEDRECTD46*%
%ADD47R,0.03950X0.04343*%
%ADD48R,0.04934X0.02572*%
%ADD49O,0.04934X0.02572*%
%ADD50R,0.05918X0.03556*%
G04:AMPARAMS|DCode=51|XSize=31.62mil|YSize=43.43mil|CornerRadius=9.91mil|HoleSize=0mil|Usage=FLASHONLY|Rotation=180.000|XOffset=0mil|YOffset=0mil|HoleType=Round|Shape=RoundedRectangle|*
%AMROUNDEDRECTD51*
21,1,0.03162,0.02362,0,0,180.0*
21,1,0.01181,0.04343,0,0,180.0*
1,1,0.01981,-0.00591,0.01181*
1,1,0.01981,0.00591,0.01181*
1,1,0.01981,0.00591,-0.01181*
1,1,0.01981,-0.00591,-0.01181*
%
%ADD51ROUNDEDRECTD51*%
G04:AMPARAMS|DCode=52|XSize=86.74mil|YSize=145.79mil|CornerRadius=23.69mil|HoleSize=0mil|Usage=FLASHONLY|Rotation=0.000|XOffset=0mil|YOffset=0mil|HoleType=Round|Shape=RoundedRectangle|*
%AMROUNDEDRECTD52*
21,1,0.08674,0.09843,0,0,0.0*
21,1,0.03937,0.14579,0,0,0.0*
1,1,0.04737,0.01969,-0.04921*
1,1,0.04737,-0.01969,-0.04921*
1,1,0.04737,-0.01969,0.04921*
1,1,0.04737,0.01969,0.04921*
%
%ADD52ROUNDEDRECTD52*%
%ADD53R,0.04343X0.03950*%
%ADD54C,0.20485*%
%ADD55C,0.40170*%
G04:AMPARAMS|DCode=56|XSize=67.06mil|YSize=67.06mil|CornerRadius=18.76mil|HoleSize=0mil|Usage=FLASHONLY|Rotation=270.000|XOffset=0mil|YOffset=0mil|HoleType=Round|Shape=RoundedRectangle|*
%AMROUNDEDRECTD56*
21,1,0.06706,0.02953,0,0,270.0*
21,1,0.02953,0.06706,0,0,270.0*
1,1,0.03753,-0.01476,-0.01476*
1,1,0.03753,-0.01476,0.01476*
1,1,0.03753,0.01476,0.01476*
1,1,0.03753,0.01476,-0.01476*
%
%ADD56ROUNDEDRECTD56*%
G04:AMPARAMS|DCode=57|XSize=67.06mil|YSize=67.06mil|CornerRadius=0mil|HoleSize=0mil|Usage=FLASHONLY|Rotation=270.000|XOffset=0mil|YOffset=0mil|HoleType=Round|Shape=Octagon|*
%AMOCTAGOND57*
4,1,8,-0.01676,-0.03353,0.01676,-0.03353,0.03353,-0.01676,0.03353,0.01676,0.01676,0.03353,-0.01676,0.03353,-0.03353,0.01676,-0.03353,-0.01676,-0.01676,-0.03353,0.0*
%
%ADD57OCTAGOND57*%

%ADD58C,0.06706*%
%ADD59C,0.04383*%
D40*
X0490925Y0373425D02*
D03*
Y0255925D02*
D03*
Y0485925D02*
D03*
Y0143425D02*
D03*
D41*
X0510669Y0546339D02*
D03*
Y0560118D02*
D03*
X0534488Y0522284D02*
D03*
Y0536063D02*
D03*
X0510512Y0432677D02*
D03*
Y0446457D02*
D03*
X0534449Y0411811D02*
D03*
Y0425591D02*
D03*
X0509685Y0202520D02*
D03*
Y0216299D02*
D03*
X0534803Y0181102D02*
D03*
Y0194882D02*
D03*
X0510079Y0318347D02*
D03*
Y0332126D02*
D03*
X0535236Y0292638D02*
D03*
Y0306417D02*
D03*
D42*
X0480000Y0209547D02*
D03*
Y0215453D02*
D03*
X0525000Y0359547D02*
D03*
Y0365453D02*
D03*
X0480000Y0439547D02*
D03*
Y0445453D02*
D03*
X0465000Y0246047D02*
D03*
Y0251953D02*
D03*
X0517500Y0247953D02*
D03*
Y0242047D02*
D03*
X0510000Y0239547D02*
D03*
Y0245453D02*
D03*
X0525000Y0242047D02*
D03*
Y0247953D02*
D03*
X0480000Y0322047D02*
D03*
Y0327953D02*
D03*
X0510000Y0469547D02*
D03*
Y0475453D02*
D03*
X0517500Y0472047D02*
D03*
Y0477953D02*
D03*
X0525000Y0472047D02*
D03*
Y0477953D02*
D03*
X0465000Y0476547D02*
D03*
Y0482453D02*
D03*
X0480000Y0552047D02*
D03*
Y0557953D02*
D03*
X0465000Y0363547D02*
D03*
Y0369453D02*
D03*
X0517500Y0359547D02*
D03*
Y0365453D02*
D03*
X0510000Y0357047D02*
D03*
Y0362953D02*
D03*
X0525000Y0129547D02*
D03*
Y0135453D02*
D03*
X0510000Y0127047D02*
D03*
Y0132953D02*
D03*
X0517500Y0129547D02*
D03*
Y0135453D02*
D03*
X0465000Y0133547D02*
D03*
Y0139453D02*
D03*
X0360000Y0519547D02*
D03*
Y0525453D02*
D03*
Y0407047D02*
D03*
Y0412953D02*
D03*
Y0289547D02*
D03*
Y0295453D02*
D03*
Y0177047D02*
D03*
Y0182953D02*
D03*
D43*
X0472500Y0209547D02*
D03*
Y0215453D02*
D03*
Y0439547D02*
D03*
Y0445453D02*
D03*
Y0246047D02*
D03*
Y0251953D02*
D03*
Y0234547D02*
D03*
Y0240453D02*
D03*
X0525000Y0297953D02*
D03*
Y0292047D02*
D03*
X0472500Y0322047D02*
D03*
Y0327953D02*
D03*
X0525000Y0527953D02*
D03*
Y0522047D02*
D03*
X0472500Y0464547D02*
D03*
Y0470453D02*
D03*
Y0552047D02*
D03*
Y0557953D02*
D03*
Y0363547D02*
D03*
Y0369453D02*
D03*
X0473500Y0352047D02*
D03*
Y0357953D02*
D03*
X0525149Y0415650D02*
D03*
Y0409744D02*
D03*
X0525000Y0185453D02*
D03*
Y0179547D02*
D03*
X0472500Y0133547D02*
D03*
Y0139453D02*
D03*
Y0122047D02*
D03*
Y0127953D02*
D03*
D44*
X0496240Y0214724D02*
D03*
X0492500D02*
D03*
X0488760D02*
D03*
Y0205276D02*
D03*
X0492500D02*
D03*
X0496240D02*
D03*
Y0435276D02*
D03*
X0492500D02*
D03*
X0488760D02*
D03*
Y0444724D02*
D03*
X0492500D02*
D03*
X0496240D02*
D03*
Y0327224D02*
D03*
X0492500D02*
D03*
X0488760D02*
D03*
Y0317776D02*
D03*
X0492500D02*
D03*
X0496240D02*
D03*
Y0557224D02*
D03*
X0492500D02*
D03*
X0488760D02*
D03*
Y0547776D02*
D03*
X0492500D02*
D03*
X0496240D02*
D03*
D45*
X0427047Y0377500D02*
D03*
X0432953D02*
D03*
X0432953Y0352500D02*
D03*
X0427047D02*
D03*
X0427047Y0260000D02*
D03*
X0432953D02*
D03*
X0432953Y0235000D02*
D03*
X0427047D02*
D03*
X0535453Y0497500D02*
D03*
X0529547D02*
D03*
X0432835Y0465071D02*
D03*
X0426929D02*
D03*
X0427047Y0490000D02*
D03*
X0432953D02*
D03*
X0535453Y0155000D02*
D03*
X0529547D02*
D03*
X0432953Y0122500D02*
D03*
X0427047D02*
D03*
X0427047Y0147500D02*
D03*
X0432953D02*
D03*
X0529547Y0385000D02*
D03*
X0535453D02*
D03*
X0535906Y0267500D02*
D03*
X0530000D02*
D03*
D46*
X0450000Y0352500D02*
D03*
Y0356240D02*
D03*
Y0359980D02*
D03*
X0439370D02*
D03*
Y0356240D02*
D03*
Y0352500D02*
D03*
X0450000Y0260000D02*
D03*
Y0263740D02*
D03*
Y0267480D02*
D03*
X0439370D02*
D03*
Y0263740D02*
D03*
Y0260000D02*
D03*
X0450000Y0235000D02*
D03*
Y0238740D02*
D03*
Y0242480D02*
D03*
X0439370D02*
D03*
Y0238740D02*
D03*
Y0235000D02*
D03*
X0450000Y0377500D02*
D03*
Y0381240D02*
D03*
Y0384980D02*
D03*
X0439370D02*
D03*
Y0381240D02*
D03*
Y0377500D02*
D03*
X0450000Y0465000D02*
D03*
Y0468740D02*
D03*
Y0472480D02*
D03*
X0439370D02*
D03*
Y0468740D02*
D03*
Y0465000D02*
D03*
X0450000Y0490000D02*
D03*
Y0493740D02*
D03*
Y0497480D02*
D03*
X0439370D02*
D03*
Y0493740D02*
D03*
Y0490000D02*
D03*
X0450000Y0147500D02*
D03*
Y0151240D02*
D03*
Y0154980D02*
D03*
X0439370D02*
D03*
Y0151240D02*
D03*
Y0147500D02*
D03*
X0450000Y0122500D02*
D03*
Y0126240D02*
D03*
Y0129980D02*
D03*
X0439370D02*
D03*
Y0126240D02*
D03*
Y0122500D02*
D03*
D47*
X0432756Y0160000D02*
D03*
X0427244D02*
D03*
X0509744Y0377500D02*
D03*
X0515256D02*
D03*
X0432756Y0502500D02*
D03*
X0427244D02*
D03*
X0432756Y0477500D02*
D03*
X0427244D02*
D03*
X0509744Y0260000D02*
D03*
X0515256D02*
D03*
X0509744Y0490000D02*
D03*
X0515256D02*
D03*
X0432756Y0390000D02*
D03*
X0427244D02*
D03*
X0432756Y0365000D02*
D03*
X0427244D02*
D03*
X0432756Y0135000D02*
D03*
X0427244D02*
D03*
X0509744Y0147500D02*
D03*
X0515256D02*
D03*
X0427244Y0247500D02*
D03*
X0432756D02*
D03*
X0427244Y0272500D02*
D03*
X0432756D02*
D03*
X0402756Y0507500D02*
D03*
X0397244D02*
D03*
X0402756Y0395000D02*
D03*
X0397244D02*
D03*
X0402756Y0277500D02*
D03*
X0397244D02*
D03*
X0402756Y0165000D02*
D03*
X0397244D02*
D03*
D48*
X0480000Y0387500D02*
D03*
Y0270000D02*
D03*
Y0500000D02*
D03*
Y0157500D02*
D03*
D49*
Y0384941D02*
D03*
Y0382382D02*
D03*
Y0379823D02*
D03*
Y0377264D02*
D03*
Y0374705D02*
D03*
Y0372146D02*
D03*
Y0369587D02*
D03*
Y0367027D02*
D03*
Y0364469D02*
D03*
Y0361909D02*
D03*
Y0359350D02*
D03*
X0501850Y0387500D02*
D03*
Y0384941D02*
D03*
Y0382382D02*
D03*
Y0379823D02*
D03*
Y0377264D02*
D03*
Y0374705D02*
D03*
Y0372146D02*
D03*
Y0369587D02*
D03*
Y0367027D02*
D03*
Y0364469D02*
D03*
Y0361909D02*
D03*
Y0359350D02*
D03*
X0480000Y0267441D02*
D03*
Y0264882D02*
D03*
Y0262323D02*
D03*
Y0259764D02*
D03*
Y0257205D02*
D03*
Y0254646D02*
D03*
Y0252087D02*
D03*
Y0249528D02*
D03*
Y0246969D02*
D03*
Y0244409D02*
D03*
Y0241850D02*
D03*
X0501850Y0270000D02*
D03*
Y0267441D02*
D03*
Y0264882D02*
D03*
Y0262323D02*
D03*
Y0259764D02*
D03*
Y0257205D02*
D03*
Y0254646D02*
D03*
Y0252087D02*
D03*
Y0249528D02*
D03*
Y0246969D02*
D03*
Y0244409D02*
D03*
Y0241850D02*
D03*
X0480000Y0497441D02*
D03*
Y0494882D02*
D03*
Y0492323D02*
D03*
Y0489764D02*
D03*
Y0487205D02*
D03*
Y0484646D02*
D03*
Y0482087D02*
D03*
Y0479528D02*
D03*
Y0476968D02*
D03*
Y0474409D02*
D03*
Y0471850D02*
D03*
X0501850Y0500000D02*
D03*
Y0497441D02*
D03*
Y0494882D02*
D03*
Y0492323D02*
D03*
Y0489764D02*
D03*
Y0487205D02*
D03*
Y0484646D02*
D03*
Y0482087D02*
D03*
Y0479528D02*
D03*
Y0476968D02*
D03*
Y0474409D02*
D03*
Y0471850D02*
D03*
X0480000Y0154941D02*
D03*
Y0152382D02*
D03*
Y0149823D02*
D03*
Y0147264D02*
D03*
Y0144705D02*
D03*
Y0142146D02*
D03*
Y0139587D02*
D03*
Y0137028D02*
D03*
Y0134468D02*
D03*
Y0131909D02*
D03*
Y0129350D02*
D03*
X0501850Y0157500D02*
D03*
Y0154941D02*
D03*
Y0152382D02*
D03*
Y0149823D02*
D03*
Y0147264D02*
D03*
Y0144705D02*
D03*
Y0142146D02*
D03*
Y0139587D02*
D03*
Y0137028D02*
D03*
Y0134468D02*
D03*
Y0131909D02*
D03*
Y0129350D02*
D03*
D50*
X0534724Y0401240D02*
D03*
Y0397500D02*
D03*
Y0393760D02*
D03*
X0525276D02*
D03*
Y0397500D02*
D03*
Y0401240D02*
D03*
Y0283740D02*
D03*
Y0280000D02*
D03*
Y0276260D02*
D03*
X0534724D02*
D03*
Y0280000D02*
D03*
Y0283740D02*
D03*
X0525276Y0513740D02*
D03*
Y0510000D02*
D03*
Y0506260D02*
D03*
X0534724D02*
D03*
Y0510000D02*
D03*
Y0513740D02*
D03*
X0525276Y0171740D02*
D03*
Y0168000D02*
D03*
Y0164260D02*
D03*
X0534724D02*
D03*
Y0168000D02*
D03*
Y0171740D02*
D03*
D51*
X0467047Y0260000D02*
D03*
X0472953D02*
D03*
X0467047Y0490000D02*
D03*
X0472953D02*
D03*
X0467047Y0377500D02*
D03*
X0472953D02*
D03*
X0467047Y0147500D02*
D03*
X0472953D02*
D03*
D52*
X0480937Y0289913D02*
D03*
X0504165D02*
D03*
X0480937Y0519913D02*
D03*
X0504165D02*
D03*
X0480937Y0177413D02*
D03*
X0504165D02*
D03*
X0480937Y0407413D02*
D03*
X0504165D02*
D03*
D53*
X0472500Y0482256D02*
D03*
Y0476744D02*
D03*
D54*
X0290000Y0122500D02*
D03*
Y0552500D02*
D03*
X0680000Y0122500D02*
D03*
Y0552500D02*
D03*
D55*
X0317000Y0278000D02*
D03*
Y0220500D02*
D03*
Y0163000D02*
D03*
X0632500Y0137500D02*
D03*
Y0195000D02*
D03*
Y0252500D02*
D03*
Y0310000D02*
D03*
Y0367500D02*
D03*
Y0425000D02*
D03*
Y0482500D02*
D03*
Y0540000D02*
D03*
D56*
X0415000Y0505000D02*
D03*
Y0465000D02*
D03*
Y0392500D02*
D03*
Y0352500D02*
D03*
Y0275000D02*
D03*
Y0235000D02*
D03*
Y0162500D02*
D03*
Y0122500D02*
D03*
X0595000Y0540000D02*
D03*
Y0482500D02*
D03*
Y0425000D02*
D03*
Y0367500D02*
D03*
Y0310000D02*
D03*
Y0252500D02*
D03*
Y0195000D02*
D03*
Y0137500D02*
D03*
D57*
X0407500Y0480000D02*
D03*
X0397500D02*
D03*
X0407500Y0490000D02*
D03*
X0397500D02*
D03*
X0407500Y0367500D02*
D03*
X0397500D02*
D03*
X0407500Y0377500D02*
D03*
X0397500D02*
D03*
X0407500Y0250000D02*
D03*
X0397500D02*
D03*
X0407500Y0260000D02*
D03*
X0397500D02*
D03*
X0407500Y0137500D02*
D03*
X0397500D02*
D03*
X0407500Y0147500D02*
D03*
X0397500D02*
D03*
X0690000Y0140433D02*
D03*
X0680000D02*
D03*
X0690000Y0150433D02*
D03*
X0680000D02*
D03*
X0690000Y0160433D02*
D03*
X0680000D02*
D03*
X0690000Y0170433D02*
D03*
X0680000D02*
D03*
X0690000Y0180433D02*
D03*
X0680000D02*
D03*
X0690000Y0190433D02*
D03*
X0680000D02*
D03*
X0690000Y0200433D02*
D03*
X0680000D02*
D03*
X0690000Y0210433D02*
D03*
X0680000D02*
D03*
X0690000Y0220433D02*
D03*
X0680000D02*
D03*
X0690000Y0230433D02*
D03*
X0680000D02*
D03*
X0690000Y0240433D02*
D03*
X0680000D02*
D03*
X0690000Y0250433D02*
D03*
X0680000D02*
D03*
X0690000Y0260433D02*
D03*
X0680000D02*
D03*
X0690000Y0270433D02*
D03*
X0680000D02*
D03*
X0690000Y0280433D02*
D03*
X0680000D02*
D03*
X0690000Y0290433D02*
D03*
X0680000D02*
D03*
X0690000Y0300433D02*
D03*
X0680000D02*
D03*
X0690000Y0310433D02*
D03*
X0680000D02*
D03*
X0690000Y0320433D02*
D03*
X0680000D02*
D03*
X0690000Y0330433D02*
D03*
X0680000D02*
D03*
X0690000Y0342500D02*
D03*
X0680000D02*
D03*
X0690000Y0352500D02*
D03*
X0680000D02*
D03*
X0690000Y0362500D02*
D03*
X0680000D02*
D03*
X0690000Y0372500D02*
D03*
X0680000D02*
D03*
X0690000Y0382500D02*
D03*
X0680000D02*
D03*
X0690000Y0392500D02*
D03*
X0680000D02*
D03*
X0690000Y0402500D02*
D03*
X0680000D02*
D03*
X0690000Y0412500D02*
D03*
X0680000D02*
D03*
X0690000Y0422500D02*
D03*
X0680000D02*
D03*
X0690000Y0432500D02*
D03*
X0680000D02*
D03*
X0690000Y0442500D02*
D03*
X0680000D02*
D03*
X0690000Y0452500D02*
D03*
X0680000D02*
D03*
X0690000Y0462500D02*
D03*
X0680000D02*
D03*
X0690000Y0472500D02*
D03*
X0680000D02*
D03*
X0690000Y0482500D02*
D03*
X0680000D02*
D03*
X0690000Y0492500D02*
D03*
X0680000D02*
D03*
X0690000Y0502500D02*
D03*
X0680000D02*
D03*
X0690000Y0512500D02*
D03*
X0680000D02*
D03*
X0690000Y0522500D02*
D03*
X0680000D02*
D03*
X0690000Y0532500D02*
D03*
X0680000D02*
D03*
X0367500Y0545000D02*
D03*
Y0535000D02*
D03*
Y0525000D02*
D03*
Y0515000D02*
D03*
X0397500Y0545000D02*
D03*
Y0535000D02*
D03*
Y0525000D02*
D03*
Y0515000D02*
D03*
X0367500Y0432500D02*
D03*
Y0422500D02*
D03*
Y0412500D02*
D03*
Y0402500D02*
D03*
X0397500Y0432500D02*
D03*
Y0422500D02*
D03*
Y0412500D02*
D03*
Y0402500D02*
D03*
X0367500Y0315000D02*
D03*
Y0305000D02*
D03*
Y0295000D02*
D03*
Y0285000D02*
D03*
X0397500Y0315000D02*
D03*
Y0305000D02*
D03*
Y0295000D02*
D03*
Y0285000D02*
D03*
X0367500Y0202500D02*
D03*
Y0192500D02*
D03*
Y0182500D02*
D03*
Y0172500D02*
D03*
X0397500Y0202500D02*
D03*
Y0192500D02*
D03*
Y0182500D02*
D03*
Y0172500D02*
D03*
D58*
X0433284Y0172799D02*
D03*
X0443311Y0172646D02*
D03*
X0453268Y0172626D02*
D03*
X0571500Y0379000D02*
D03*
X0551500D02*
D03*
X0561500Y0359000D02*
D03*
X0433284Y0402799D02*
D03*
X0443311Y0402646D02*
D03*
X0453268Y0402626D02*
D03*
X0571500Y0261500D02*
D03*
X0551500D02*
D03*
X0561500Y0241500D02*
D03*
X0550783Y0517799D02*
D03*
X0560811Y0517646D02*
D03*
X0570768Y0517626D02*
D03*
X0571000Y0492000D02*
D03*
X0551000D02*
D03*
X0561000Y0472000D02*
D03*
X0433284Y0285299D02*
D03*
X0443311Y0285146D02*
D03*
X0453268Y0285126D02*
D03*
X0433284Y0515299D02*
D03*
X0443311Y0515146D02*
D03*
X0453268Y0515126D02*
D03*
X0550783Y0405299D02*
D03*
X0560811Y0405146D02*
D03*
X0570768Y0405126D02*
D03*
X0550783Y0175299D02*
D03*
X0560811Y0175146D02*
D03*
X0570768Y0175126D02*
D03*
X0550783Y0287799D02*
D03*
X0560811Y0287646D02*
D03*
X0570768Y0287626D02*
D03*
X0571500Y0149000D02*
D03*
X0551500D02*
D03*
X0561500Y0129000D02*
D03*
D59*
X0524961Y0420945D02*
D03*
Y0192205D02*
D03*
X0437500Y0197500D02*
D03*
Y0540000D02*
D03*
Y0427500D02*
D03*
Y0310000D02*
D03*
X0520000Y0120000D02*
D03*
X0422500Y0252500D02*
D03*
X0492500Y0162500D02*
D03*
Y0392500D02*
D03*
X0525827Y0304173D02*
D03*
X0524961Y0533228D02*
D03*
X0522500Y0484500D02*
D03*
X0492500Y0505000D02*
D03*
Y0275000D02*
D03*
X0455000Y0137500D02*
D03*
Y0250000D02*
D03*
Y0367500D02*
D03*
Y0480000D02*
D03*
X0410000Y0517500D02*
D03*
Y0405000D02*
D03*
Y0287500D02*
D03*
Y0175000D02*
D03*
X0422500Y0140000D02*
D03*
Y0370000D02*
D03*
X0417500Y0215000D02*
D03*
X0580000Y0225000D02*
D03*
X0667500Y0402500D02*
D03*
X0536890Y0439646D02*
D03*
X0422500Y0482500D02*
D03*
X0417500Y0445000D02*
D03*
X0580000Y0455000D02*
D03*
Y0340000D02*
D03*
X0352500Y0452500D02*
D03*
X0387500Y0465000D02*
D03*
Y0443500D02*
D03*
X0447500Y0340000D02*
D03*
X0460000Y0441000D02*
D03*
Y0210000D02*
D03*
Y0322500D02*
D03*
Y0552500D02*
D03*
X0465000Y0557500D02*
D03*
Y0527500D02*
D03*
Y0327500D02*
D03*
Y0297500D02*
D03*
Y0445000D02*
D03*
Y0415000D02*
D03*
Y0185500D02*
D03*
Y0215000D02*
D03*
X0542500Y0500000D02*
D03*
Y0270000D02*
D03*
Y0387500D02*
D03*
Y0157500D02*
D03*
M02*
