%FSAX25Y25*%
%MOIN*%
G70*
G01*
G75*
G04 Layer_Color=32768*
%ADD10R,0.06693X0.03937*%
%ADD11R,0.03543X0.02756*%
G04:AMPARAMS|DCode=12|XSize=23.62mil|YSize=35.43mil|CornerRadius=5.91mil|HoleSize=0mil|Usage=FLASHONLY|Rotation=270.000|XOffset=0mil|YOffset=0mil|HoleType=Round|Shape=RoundedRectangle|*
%AMROUNDEDRECTD12*
21,1,0.02362,0.02362,0,0,270.0*
21,1,0.01181,0.03543,0,0,270.0*
1,1,0.01181,-0.01181,-0.00591*
1,1,0.01181,-0.01181,0.00591*
1,1,0.01181,0.01181,0.00591*
1,1,0.01181,0.01181,-0.00591*
%
%ADD12ROUNDEDRECTD12*%
%ADD13R,0.02756X0.05118*%
%ADD14R,0.02756X0.03543*%
G04:AMPARAMS|DCode=15|XSize=23.62mil|YSize=43.31mil|CornerRadius=5.91mil|HoleSize=0mil|Usage=FLASHONLY|Rotation=90.000|XOffset=0mil|YOffset=0mil|HoleType=Round|Shape=RoundedRectangle|*
%AMROUNDEDRECTD15*
21,1,0.02362,0.03150,0,0,90.0*
21,1,0.01181,0.04331,0,0,90.0*
1,1,0.01181,0.01575,0.00591*
1,1,0.01181,0.01575,-0.00591*
1,1,0.01181,-0.01575,-0.00591*
1,1,0.01181,-0.01575,0.00591*
%
%ADD15ROUNDEDRECTD15*%
%ADD16R,0.03150X0.03543*%
%ADD17R,0.04134X0.01772*%
%ADD18O,0.04134X0.01772*%
%ADD19R,0.05118X0.02756*%
G04:AMPARAMS|DCode=20|XSize=23.62mil|YSize=35.43mil|CornerRadius=5.91mil|HoleSize=0mil|Usage=FLASHONLY|Rotation=180.000|XOffset=0mil|YOffset=0mil|HoleType=Round|Shape=RoundedRectangle|*
%AMROUNDEDRECTD20*
21,1,0.02362,0.02362,0,0,180.0*
21,1,0.01181,0.03543,0,0,180.0*
1,1,0.01181,-0.00591,0.01181*
1,1,0.01181,0.00591,0.01181*
1,1,0.01181,0.00591,-0.01181*
1,1,0.01181,-0.00591,-0.01181*
%
%ADD20ROUNDEDRECTD20*%
G04:AMPARAMS|DCode=21|XSize=78.74mil|YSize=137.8mil|CornerRadius=19.69mil|HoleSize=0mil|Usage=FLASHONLY|Rotation=0.000|XOffset=0mil|YOffset=0mil|HoleType=Round|Shape=RoundedRectangle|*
%AMROUNDEDRECTD21*
21,1,0.07874,0.09843,0,0,0.0*
21,1,0.03937,0.13780,0,0,0.0*
1,1,0.03937,0.01969,-0.04921*
1,1,0.03937,-0.01969,-0.04921*
1,1,0.03937,-0.01969,0.04921*
1,1,0.03937,0.01969,0.04921*
%
%ADD21ROUNDEDRECTD21*%
%ADD22R,0.03543X0.03150*%
%ADD23C,0.01969*%
%ADD24C,0.01000*%
%ADD25C,0.05906*%
%ADD26C,0.01181*%
%ADD27C,0.01575*%
%ADD28C,0.02953*%
%ADD29C,0.19685*%
%ADD30C,0.39370*%
G04:AMPARAMS|DCode=31|XSize=59.06mil|YSize=59.06mil|CornerRadius=14.76mil|HoleSize=0mil|Usage=FLASHONLY|Rotation=270.000|XOffset=0mil|YOffset=0mil|HoleType=Round|Shape=RoundedRectangle|*
%AMROUNDEDRECTD31*
21,1,0.05906,0.02953,0,0,270.0*
21,1,0.02953,0.05906,0,0,270.0*
1,1,0.02953,-0.01476,-0.01476*
1,1,0.02953,-0.01476,0.01476*
1,1,0.02953,0.01476,0.01476*
1,1,0.02953,0.01476,-0.01476*
%
%ADD31ROUNDEDRECTD31*%
G04:AMPARAMS|DCode=32|XSize=59.06mil|YSize=59.06mil|CornerRadius=0mil|HoleSize=0mil|Usage=FLASHONLY|Rotation=270.000|XOffset=0mil|YOffset=0mil|HoleType=Round|Shape=Octagon|*
%AMOCTAGOND32*
4,1,8,-0.01476,-0.02953,0.01476,-0.02953,0.02953,-0.01476,0.02953,0.01476,0.01476,0.02953,-0.01476,0.02953,-0.02953,0.01476,-0.02953,-0.01476,-0.01476,-0.02953,0.0*
%
%ADD32OCTAGOND32*%

%ADD33C,0.05906*%
%ADD34C,0.03583*%
%ADD35C,0.00984*%
%ADD36C,0.00500*%
%ADD37C,0.00394*%
%ADD38C,0.00600*%
%ADD39C,0.00787*%
G04:AMPARAMS|DCode=40|XSize=127.95mil|YSize=107.87mil|CornerRadius=26.97mil|HoleSize=0mil|Usage=FLASHONLY|Rotation=90.000|XOffset=0mil|YOffset=0mil|HoleType=Round|Shape=RoundedRectangle|*
%AMROUNDEDRECTD40*
21,1,0.12795,0.05394,0,0,90.0*
21,1,0.07402,0.10787,0,0,90.0*
1,1,0.05394,0.02697,0.03701*
1,1,0.05394,0.02697,-0.03701*
1,1,0.05394,-0.02697,-0.03701*
1,1,0.05394,-0.02697,0.03701*
%
%ADD40ROUNDEDRECTD40*%
%ADD41R,0.07493X0.04737*%
%ADD42R,0.04343X0.03556*%
G04:AMPARAMS|DCode=43|XSize=31.62mil|YSize=43.43mil|CornerRadius=9.91mil|HoleSize=0mil|Usage=FLASHONLY|Rotation=270.000|XOffset=0mil|YOffset=0mil|HoleType=Round|Shape=RoundedRectangle|*
%AMROUNDEDRECTD43*
21,1,0.03162,0.02362,0,0,270.0*
21,1,0.01181,0.04343,0,0,270.0*
1,1,0.01981,-0.01181,-0.00591*
1,1,0.01981,-0.01181,0.00591*
1,1,0.01981,0.01181,0.00591*
1,1,0.01981,0.01181,-0.00591*
%
%ADD43ROUNDEDRECTD43*%
%ADD44R,0.03556X0.05918*%
%ADD45R,0.03556X0.04343*%
G04:AMPARAMS|DCode=46|XSize=31.62mil|YSize=51.31mil|CornerRadius=9.91mil|HoleSize=0mil|Usage=FLASHONLY|Rotation=90.000|XOffset=0mil|YOffset=0mil|HoleType=Round|Shape=RoundedRectangle|*
%AMROUNDEDRECTD46*
21,1,0.03162,0.03150,0,0,90.0*
21,1,0.01181,0.05131,0,0,90.0*
1,1,0.01981,0.01575,0.00591*
1,1,0.01981,0.01575,-0.00591*
1,1,0.01981,-0.01575,-0.00591*
1,1,0.01981,-0.01575,0.00591*
%
%ADD46ROUNDEDRECTD46*%
%ADD47R,0.03950X0.04343*%
%ADD48R,0.04934X0.02572*%
%ADD49O,0.04934X0.02572*%
%ADD50R,0.05918X0.03556*%
G04:AMPARAMS|DCode=51|XSize=31.62mil|YSize=43.43mil|CornerRadius=9.91mil|HoleSize=0mil|Usage=FLASHONLY|Rotation=180.000|XOffset=0mil|YOffset=0mil|HoleType=Round|Shape=RoundedRectangle|*
%AMROUNDEDRECTD51*
21,1,0.03162,0.02362,0,0,180.0*
21,1,0.01181,0.04343,0,0,180.0*
1,1,0.01981,-0.00591,0.01181*
1,1,0.01981,0.00591,0.01181*
1,1,0.01981,0.00591,-0.01181*
1,1,0.01981,-0.00591,-0.01181*
%
%ADD51ROUNDEDRECTD51*%
G04:AMPARAMS|DCode=52|XSize=86.74mil|YSize=145.79mil|CornerRadius=23.69mil|HoleSize=0mil|Usage=FLASHONLY|Rotation=0.000|XOffset=0mil|YOffset=0mil|HoleType=Round|Shape=RoundedRectangle|*
%AMROUNDEDRECTD52*
21,1,0.08674,0.09843,0,0,0.0*
21,1,0.03937,0.14579,0,0,0.0*
1,1,0.04737,0.01969,-0.04921*
1,1,0.04737,-0.01969,-0.04921*
1,1,0.04737,-0.01969,0.04921*
1,1,0.04737,0.01969,0.04921*
%
%ADD52ROUNDEDRECTD52*%
%ADD53R,0.04343X0.03950*%
%ADD54C,0.20485*%
%ADD55C,0.40170*%
G04:AMPARAMS|DCode=56|XSize=67.06mil|YSize=67.06mil|CornerRadius=18.76mil|HoleSize=0mil|Usage=FLASHONLY|Rotation=270.000|XOffset=0mil|YOffset=0mil|HoleType=Round|Shape=RoundedRectangle|*
%AMROUNDEDRECTD56*
21,1,0.06706,0.02953,0,0,270.0*
21,1,0.02953,0.06706,0,0,270.0*
1,1,0.03753,-0.01476,-0.01476*
1,1,0.03753,-0.01476,0.01476*
1,1,0.03753,0.01476,0.01476*
1,1,0.03753,0.01476,-0.01476*
%
%ADD56ROUNDEDRECTD56*%
G04:AMPARAMS|DCode=57|XSize=67.06mil|YSize=67.06mil|CornerRadius=0mil|HoleSize=0mil|Usage=FLASHONLY|Rotation=270.000|XOffset=0mil|YOffset=0mil|HoleType=Round|Shape=Octagon|*
%AMOCTAGOND57*
4,1,8,-0.01676,-0.03353,0.01676,-0.03353,0.03353,-0.01676,0.03353,0.01676,0.01676,0.03353,-0.01676,0.03353,-0.03353,0.01676,-0.03353,-0.01676,-0.01676,-0.03353,0.0*
%
%ADD57OCTAGOND57*%

%ADD58C,0.06706*%
%ADD59C,0.04383*%
%ADD60C,0.07874*%
D37*
X0477835Y0207776D02*
X0482165D01*
X0477835Y0217224D02*
X0482165D01*
X0477835Y0207776D02*
Y0217224D01*
X0482165Y0207776D02*
Y0217224D01*
X0480000Y0210630D02*
Y0214370D01*
X0478130Y0212500D02*
X0481870D01*
X0484429Y0219252D02*
X0500571D01*
X0484429Y0200748D02*
X0500571D01*
Y0219252D01*
X0484429Y0200748D02*
Y0219252D01*
X0492500Y0208032D02*
Y0211968D01*
X0490531Y0210000D02*
X0494468D01*
X0425276Y0375335D02*
Y0379665D01*
X0434724Y0375335D02*
Y0379665D01*
X0425276D02*
X0434724D01*
X0425276Y0375335D02*
X0434724D01*
X0428130Y0377500D02*
X0431870D01*
X0430000Y0375630D02*
Y0379370D01*
X0434724Y0350335D02*
Y0354665D01*
X0425276Y0350335D02*
Y0354665D01*
Y0350335D02*
X0434724D01*
X0425276Y0354665D02*
X0434724D01*
X0428130Y0352500D02*
X0431870D01*
X0430000Y0350630D02*
Y0354370D01*
X0430000Y0158130D02*
Y0161870D01*
X0428130Y0160000D02*
X0431870D01*
X0425276Y0157835D02*
X0434724D01*
X0425276Y0162165D02*
X0434724D01*
Y0157835D02*
Y0162165D01*
X0425276Y0157835D02*
Y0162165D01*
X0530000Y0395532D02*
Y0399468D01*
X0528031Y0397500D02*
X0531968D01*
X0520748Y0389429D02*
X0539252D01*
X0520748Y0405571D02*
X0539252D01*
Y0389429D02*
Y0405571D01*
X0520748Y0389429D02*
Y0405571D01*
X0512500Y0375630D02*
Y0379370D01*
X0510630Y0377500D02*
X0514370D01*
X0507776Y0379665D02*
X0517224D01*
X0507776Y0375335D02*
X0517224D01*
X0507776D02*
Y0379665D01*
X0517224Y0375335D02*
Y0379665D01*
X0523130Y0362500D02*
X0526870D01*
X0525000Y0360630D02*
Y0364370D01*
X0522835Y0357776D02*
Y0367224D01*
X0527165Y0357776D02*
Y0367224D01*
X0522835Y0357776D02*
X0527165D01*
X0522835Y0367224D02*
X0527165D01*
X0477835Y0437776D02*
X0482165D01*
X0477835Y0447224D02*
X0482165D01*
X0477835Y0437776D02*
Y0447224D01*
X0482165Y0437776D02*
Y0447224D01*
X0480000Y0440630D02*
Y0444370D01*
X0478130Y0442500D02*
X0481870D01*
X0490531Y0440000D02*
X0494468D01*
X0492500Y0438031D02*
Y0441968D01*
X0484429Y0430748D02*
Y0449252D01*
X0500571Y0430748D02*
Y0449252D01*
X0484429Y0430748D02*
X0500571D01*
X0484429Y0449252D02*
X0500571D01*
X0430000Y0500630D02*
Y0504370D01*
X0428130Y0502500D02*
X0431870D01*
X0425276Y0500335D02*
X0434724D01*
X0425276Y0504665D02*
X0434724D01*
Y0500335D02*
Y0504665D01*
X0425276Y0500335D02*
Y0504665D01*
Y0257835D02*
Y0262165D01*
X0434724Y0257835D02*
Y0262165D01*
X0425276D02*
X0434724D01*
X0425276Y0257835D02*
X0434724D01*
X0428130Y0260000D02*
X0431870D01*
X0430000Y0258130D02*
Y0261870D01*
X0434724Y0232835D02*
Y0237165D01*
X0425276Y0232835D02*
Y0237165D01*
Y0232835D02*
X0434724D01*
X0425276Y0237165D02*
X0434724D01*
X0428130Y0235000D02*
X0431870D01*
X0430000Y0233130D02*
Y0236870D01*
X0430000Y0475630D02*
Y0479370D01*
X0428130Y0477500D02*
X0431870D01*
X0425276Y0475335D02*
X0434724D01*
X0425276Y0479665D02*
X0434724D01*
Y0475335D02*
Y0479665D01*
X0425276Y0475335D02*
Y0479665D01*
X0462835Y0244276D02*
X0467165D01*
X0462835Y0253724D02*
X0467165D01*
X0462835Y0244276D02*
Y0253724D01*
X0467165Y0244276D02*
Y0253724D01*
X0465000Y0247130D02*
Y0250870D01*
X0463130Y0249000D02*
X0466870D01*
X0515630Y0245000D02*
X0519370D01*
X0517500Y0243130D02*
Y0246870D01*
X0519665Y0240276D02*
Y0249724D01*
X0515335Y0240276D02*
Y0249724D01*
X0519665D01*
X0515335Y0240276D02*
X0519665D01*
X0507835Y0237776D02*
X0512165D01*
X0507835Y0247224D02*
X0512165D01*
X0507835Y0237776D02*
Y0247224D01*
X0512165Y0237776D02*
Y0247224D01*
X0510000Y0240630D02*
Y0244370D01*
X0508130Y0242500D02*
X0511870D01*
X0523130Y0245000D02*
X0526870D01*
X0525000Y0243130D02*
Y0246870D01*
X0522835Y0240276D02*
Y0249724D01*
X0527165Y0240276D02*
Y0249724D01*
X0522835Y0240276D02*
X0527165D01*
X0522835Y0249724D02*
X0527165D01*
X0512500Y0258130D02*
Y0261870D01*
X0510630Y0260000D02*
X0514370D01*
X0507776Y0262165D02*
X0517224D01*
X0507776Y0257835D02*
X0517224D01*
X0507776D02*
Y0262165D01*
X0517224Y0257835D02*
Y0262165D01*
X0520748Y0271929D02*
Y0288071D01*
X0539252Y0271929D02*
Y0288071D01*
X0520748D02*
X0539252D01*
X0520748Y0271929D02*
X0539252D01*
X0528031Y0280000D02*
X0531968D01*
X0530000Y0278031D02*
Y0281968D01*
X0477835Y0320276D02*
X0482165D01*
X0477835Y0329724D02*
X0482165D01*
X0477835Y0320276D02*
Y0329724D01*
X0482165Y0320276D02*
Y0329724D01*
X0480000Y0323130D02*
Y0326870D01*
X0478130Y0325000D02*
X0481870D01*
X0484429Y0331752D02*
X0500571D01*
X0484429Y0313248D02*
X0500571D01*
Y0331752D01*
X0484429Y0313248D02*
Y0331752D01*
X0492500Y0320532D02*
Y0324468D01*
X0490531Y0322500D02*
X0494468D01*
X0507835Y0467776D02*
X0512165D01*
X0507835Y0477224D02*
X0512165D01*
X0507835Y0467776D02*
Y0477224D01*
X0512165Y0467776D02*
Y0477224D01*
X0510000Y0470630D02*
Y0474370D01*
X0508130Y0472500D02*
X0511870D01*
X0515335Y0470276D02*
X0519665D01*
X0515335Y0479724D02*
X0519665D01*
X0515335Y0470276D02*
Y0479724D01*
X0519665Y0470276D02*
Y0479724D01*
X0517500Y0473130D02*
Y0476870D01*
X0515630Y0475000D02*
X0519370D01*
X0523130Y0475000D02*
X0526870D01*
X0525000Y0473130D02*
Y0476870D01*
X0522835Y0470276D02*
Y0479724D01*
X0527165Y0470276D02*
Y0479724D01*
X0522835Y0470276D02*
X0527165D01*
X0522835Y0479724D02*
X0527165D01*
X0537224Y0495335D02*
Y0499665D01*
X0527776Y0495335D02*
Y0499665D01*
Y0495335D02*
X0537224D01*
X0527776Y0499665D02*
X0537224D01*
X0530630Y0497500D02*
X0534370D01*
X0532500Y0495630D02*
Y0499370D01*
X0520748Y0501929D02*
Y0518071D01*
X0539252Y0501929D02*
Y0518071D01*
X0520748D02*
X0539252D01*
X0520748Y0501929D02*
X0539252D01*
X0528031Y0510000D02*
X0531968D01*
X0530000Y0508032D02*
Y0511969D01*
X0512500Y0488130D02*
Y0491870D01*
X0510630Y0490000D02*
X0514370D01*
X0507776Y0492165D02*
X0517224D01*
X0507776Y0487835D02*
X0517224D01*
X0507776D02*
Y0492165D01*
X0517224Y0487835D02*
Y0492165D01*
X0462835Y0474776D02*
X0467165D01*
X0462835Y0484224D02*
X0467165D01*
X0462835Y0474776D02*
Y0484224D01*
X0467165Y0474776D02*
Y0484224D01*
X0465000Y0477630D02*
Y0481370D01*
X0463130Y0479500D02*
X0466870D01*
X0470630D02*
X0474370D01*
X0472500Y0477630D02*
Y0481370D01*
X0474665Y0474776D02*
Y0484224D01*
X0470335Y0474776D02*
Y0484224D01*
X0474665D01*
X0470335Y0474776D02*
X0474665D01*
X0434606Y0462906D02*
Y0467236D01*
X0425157Y0462906D02*
Y0467236D01*
Y0462906D02*
X0434606D01*
X0425157Y0467236D02*
X0434606D01*
X0428012Y0465071D02*
X0431752D01*
X0429882Y0463201D02*
Y0466941D01*
X0425276Y0487835D02*
Y0492165D01*
X0434724Y0487835D02*
Y0492165D01*
X0425276D02*
X0434724D01*
X0425276Y0487835D02*
X0434724D01*
X0428130Y0490000D02*
X0431870D01*
X0430000Y0488130D02*
Y0491870D01*
Y0388130D02*
Y0391870D01*
X0428130Y0390000D02*
X0431870D01*
X0425276Y0387835D02*
X0434724D01*
X0425276Y0392165D02*
X0434724D01*
Y0387835D02*
Y0392165D01*
X0425276Y0387835D02*
Y0392165D01*
X0430000Y0363130D02*
Y0366870D01*
X0428130Y0365000D02*
X0431870D01*
X0425276Y0362835D02*
X0434724D01*
X0425276Y0367165D02*
X0434724D01*
Y0362835D02*
Y0367165D01*
X0425276Y0362835D02*
Y0367165D01*
X0477835Y0550276D02*
X0482165D01*
X0477835Y0559724D02*
X0482165D01*
X0477835Y0550276D02*
Y0559724D01*
X0482165Y0550276D02*
Y0559724D01*
X0480000Y0553130D02*
Y0556870D01*
X0478130Y0555000D02*
X0481870D01*
X0484429Y0561752D02*
X0500571D01*
X0484429Y0543248D02*
X0500571D01*
Y0561752D01*
X0484429Y0543248D02*
Y0561752D01*
X0492500Y0550531D02*
Y0554468D01*
X0490531Y0552500D02*
X0494468D01*
X0462835Y0361776D02*
X0467165D01*
X0462835Y0371224D02*
X0467165D01*
X0462835Y0361776D02*
Y0371224D01*
X0467165Y0361776D02*
Y0371224D01*
X0465000Y0364630D02*
Y0368370D01*
X0463130Y0366500D02*
X0466870D01*
X0515335Y0357776D02*
X0519665D01*
X0515335Y0367224D02*
X0519665D01*
X0515335Y0357776D02*
Y0367224D01*
X0519665Y0357776D02*
Y0367224D01*
X0517500Y0360630D02*
Y0364370D01*
X0515630Y0362500D02*
X0519370D01*
X0507835Y0355276D02*
X0512165D01*
X0507835Y0364724D02*
X0512165D01*
X0507835Y0355276D02*
Y0364724D01*
X0512165Y0355276D02*
Y0364724D01*
X0510000Y0358130D02*
Y0361870D01*
X0508130Y0360000D02*
X0511870D01*
X0430000Y0133130D02*
Y0136870D01*
X0428130Y0135000D02*
X0431870D01*
X0425276Y0132835D02*
X0434724D01*
X0425276Y0137165D02*
X0434724D01*
Y0132835D02*
Y0137165D01*
X0425276Y0132835D02*
Y0137165D01*
X0520748Y0159929D02*
Y0176071D01*
X0539252Y0159929D02*
Y0176071D01*
X0520748D02*
X0539252D01*
X0520748Y0159929D02*
X0539252D01*
X0528031Y0168000D02*
X0531968D01*
X0530000Y0166032D02*
Y0169968D01*
X0537224Y0152835D02*
Y0157165D01*
X0527776Y0152835D02*
Y0157165D01*
Y0152835D02*
X0537224D01*
X0527776Y0157165D02*
X0537224D01*
X0530630Y0155000D02*
X0534370D01*
X0532500Y0153130D02*
Y0156870D01*
X0523130Y0132500D02*
X0526870D01*
X0525000Y0130630D02*
Y0134370D01*
X0522835Y0127776D02*
Y0137224D01*
X0527165Y0127776D02*
Y0137224D01*
X0522835Y0127776D02*
X0527165D01*
X0522835Y0137224D02*
X0527165D01*
X0507835Y0125276D02*
X0512165D01*
X0507835Y0134724D02*
X0512165D01*
X0507835Y0125276D02*
Y0134724D01*
X0512165Y0125276D02*
Y0134724D01*
X0510000Y0128130D02*
Y0131870D01*
X0508130Y0130000D02*
X0511870D01*
X0515335Y0127776D02*
X0519665D01*
X0515335Y0137224D02*
X0519665D01*
X0515335Y0127776D02*
Y0137224D01*
X0519665Y0127776D02*
Y0137224D01*
X0517500Y0130630D02*
Y0134370D01*
X0515630Y0132500D02*
X0519370D01*
X0512500Y0145630D02*
Y0149370D01*
X0510630Y0147500D02*
X0514370D01*
X0507776Y0149665D02*
X0517224D01*
X0507776Y0145335D02*
X0517224D01*
X0507776D02*
Y0149665D01*
X0517224Y0145335D02*
Y0149665D01*
X0430000Y0245630D02*
Y0249370D01*
X0428130Y0247500D02*
X0431870D01*
X0425276Y0249665D02*
X0434724D01*
X0425276Y0245335D02*
X0434724D01*
X0425276D02*
Y0249665D01*
X0434724Y0245335D02*
Y0249665D01*
Y0120335D02*
Y0124665D01*
X0425276Y0120335D02*
Y0124665D01*
Y0120335D02*
X0434724D01*
X0425276Y0124665D02*
X0434724D01*
X0428130Y0122500D02*
X0431870D01*
X0430000Y0120630D02*
Y0124370D01*
X0425276Y0145335D02*
Y0149665D01*
X0434724Y0145335D02*
Y0149665D01*
X0425276D02*
X0434724D01*
X0425276Y0145335D02*
X0434724D01*
X0428130Y0147500D02*
X0431870D01*
X0430000Y0145630D02*
Y0149370D01*
X0430000Y0270630D02*
Y0274370D01*
X0428130Y0272500D02*
X0431870D01*
X0425276Y0274665D02*
X0434724D01*
X0425276Y0270335D02*
X0434724D01*
X0425276D02*
Y0274665D01*
X0434724Y0270335D02*
Y0274665D01*
X0462835Y0131776D02*
X0467165D01*
X0462835Y0141224D02*
X0467165D01*
X0462835Y0131776D02*
Y0141224D01*
X0467165Y0131776D02*
Y0141224D01*
X0465000Y0134630D02*
Y0138370D01*
X0463130Y0136500D02*
X0466870D01*
X0400000Y0505630D02*
Y0509370D01*
X0398130Y0507500D02*
X0401870D01*
X0395276Y0505335D02*
X0404724D01*
X0395276Y0509665D02*
X0404724D01*
Y0505335D02*
Y0509665D01*
X0395276Y0505335D02*
Y0509665D01*
X0358130Y0522500D02*
X0361870D01*
X0360000Y0520630D02*
Y0524370D01*
X0357835Y0517776D02*
Y0527224D01*
X0362165Y0517776D02*
Y0527224D01*
X0357835Y0517776D02*
X0362165D01*
X0357835Y0527224D02*
X0362165D01*
X0400000Y0393130D02*
Y0396870D01*
X0398130Y0395000D02*
X0401870D01*
X0395276Y0392835D02*
X0404724D01*
X0395276Y0397165D02*
X0404724D01*
Y0392835D02*
Y0397165D01*
X0395276Y0392835D02*
Y0397165D01*
X0358130Y0410000D02*
X0361870D01*
X0360000Y0408130D02*
Y0411870D01*
X0357835Y0405276D02*
Y0414724D01*
X0362165Y0405276D02*
Y0414724D01*
X0357835Y0405276D02*
X0362165D01*
X0357835Y0414724D02*
X0362165D01*
X0358130Y0292500D02*
X0361870D01*
X0360000Y0290630D02*
Y0294370D01*
X0357835Y0287776D02*
Y0297224D01*
X0362165Y0287776D02*
Y0297224D01*
X0357835Y0287776D02*
X0362165D01*
X0357835Y0297224D02*
X0362165D01*
X0358130Y0180000D02*
X0361870D01*
X0360000Y0178130D02*
Y0181870D01*
X0357835Y0175276D02*
Y0184724D01*
X0362165Y0175276D02*
Y0184724D01*
X0357835Y0175276D02*
X0362165D01*
X0357835Y0184724D02*
X0362165D01*
X0400000Y0275630D02*
Y0279370D01*
X0398130Y0277500D02*
X0401870D01*
X0395276Y0275335D02*
X0404724D01*
X0395276Y0279665D02*
X0404724D01*
Y0275335D02*
Y0279665D01*
X0395276Y0275335D02*
Y0279665D01*
X0400000Y0163130D02*
Y0166870D01*
X0398130Y0165000D02*
X0401870D01*
X0395276Y0162835D02*
X0404724D01*
X0395276Y0167165D02*
X0404724D01*
Y0162835D02*
Y0167165D01*
X0395276Y0162835D02*
Y0167165D01*
X0532500Y0383130D02*
Y0386870D01*
X0530630Y0385000D02*
X0534370D01*
X0527776Y0387165D02*
X0537224D01*
X0527776Y0382835D02*
X0537224D01*
X0527776D02*
Y0387165D01*
X0537224Y0382835D02*
Y0387165D01*
X0537677Y0265335D02*
Y0269665D01*
X0528228Y0265335D02*
Y0269665D01*
Y0265335D02*
X0537677D01*
X0528228Y0269665D02*
X0537677D01*
X0531083Y0267500D02*
X0534823D01*
X0532953Y0265630D02*
Y0269370D01*
M02*
