%FSLAX25Y25*%
%MOIN*%
G70*
G01*
G75*
G04 Layer_Physical_Order=2*
G04 Layer_Color=16711680*
%ADD10O,0.02362X0.05906*%
G04:AMPARAMS|DCode=11|XSize=23.62mil|YSize=35.43mil|CornerRadius=5.91mil|HoleSize=0mil|Usage=FLASHONLY|Rotation=180.000|XOffset=0mil|YOffset=0mil|HoleType=Round|Shape=RoundedRectangle|*
%AMROUNDEDRECTD11*
21,1,0.02362,0.02362,0,0,180.0*
21,1,0.01181,0.03543,0,0,180.0*
1,1,0.01181,-0.00591,0.01181*
1,1,0.01181,0.00591,0.01181*
1,1,0.01181,0.00591,-0.01181*
1,1,0.01181,-0.00591,-0.01181*
%
%ADD11ROUNDEDRECTD11*%
%ADD12R,0.01654X0.03500*%
%ADD13R,0.03543X0.02756*%
G04:AMPARAMS|DCode=14|XSize=23.62mil|YSize=35.43mil|CornerRadius=5.91mil|HoleSize=0mil|Usage=FLASHONLY|Rotation=270.000|XOffset=0mil|YOffset=0mil|HoleType=Round|Shape=RoundedRectangle|*
%AMROUNDEDRECTD14*
21,1,0.02362,0.02362,0,0,270.0*
21,1,0.01181,0.03543,0,0,270.0*
1,1,0.01181,-0.01181,-0.00591*
1,1,0.01181,-0.01181,0.00591*
1,1,0.01181,0.01181,0.00591*
1,1,0.01181,0.01181,-0.00591*
%
%ADD14ROUNDEDRECTD14*%
%ADD15R,0.05906X0.09449*%
%ADD16R,0.09685X0.09095*%
%ADD17O,0.05512X0.01772*%
%ADD18R,0.02756X0.03543*%
G04:AMPARAMS|DCode=19|XSize=31.5mil|YSize=66.93mil|CornerRadius=7.87mil|HoleSize=0mil|Usage=FLASHONLY|Rotation=90.000|XOffset=0mil|YOffset=0mil|HoleType=Round|Shape=RoundedRectangle|*
%AMROUNDEDRECTD19*
21,1,0.03150,0.05118,0,0,90.0*
21,1,0.01575,0.06693,0,0,90.0*
1,1,0.01575,0.02559,0.00787*
1,1,0.01575,0.02559,-0.00787*
1,1,0.01575,-0.02559,-0.00787*
1,1,0.01575,-0.02559,0.00787*
%
%ADD19ROUNDEDRECTD19*%
G04:AMPARAMS|DCode=20|XSize=82.68mil|YSize=137.8mil|CornerRadius=20.67mil|HoleSize=0mil|Usage=FLASHONLY|Rotation=90.000|XOffset=0mil|YOffset=0mil|HoleType=Round|Shape=RoundedRectangle|*
%AMROUNDEDRECTD20*
21,1,0.08268,0.09646,0,0,90.0*
21,1,0.04134,0.13780,0,0,90.0*
1,1,0.04134,0.04823,0.02067*
1,1,0.04134,0.04823,-0.02067*
1,1,0.04134,-0.04823,-0.02067*
1,1,0.04134,-0.04823,0.02067*
%
%ADD20ROUNDEDRECTD20*%
%ADD21C,0.01181*%
%ADD22C,0.00787*%
%ADD23C,0.01969*%
%ADD24C,0.04331*%
%ADD25C,0.07874*%
%ADD26C,0.05512*%
%ADD27C,0.04724*%
%ADD28C,0.05906*%
%ADD29C,0.01000*%
%ADD30C,0.11798*%
%ADD31O,0.09843X0.02953*%
%ADD32O,0.04803X0.01575*%
%ADD33R,0.08661X0.03150*%
%ADD34O,0.01102X0.02520*%
%ADD35O,0.02520X0.01102*%
%ADD36O,0.00984X0.03189*%
%ADD37O,0.03189X0.00984*%
%ADD38R,0.01969X0.01181*%
%ADD39C,0.03937*%
%ADD40C,0.07087*%
%ADD41C,0.11794*%
%ADD42C,0.01102*%
%ADD43R,0.08071X0.08268*%
%ADD44R,0.07185X0.07677*%
%ADD45R,0.02362X0.05906*%
%ADD46R,0.04331X0.06693*%
%ADD47R,0.04449X0.08740*%
%ADD48R,0.03543X0.03150*%
%ADD49R,0.19488X0.10787*%
%ADD50O,0.01772X0.05512*%
%ADD51R,0.04331X0.02362*%
%ADD52R,0.05118X0.02756*%
%ADD53R,0.03500X0.01654*%
G04:AMPARAMS|DCode=54|XSize=31.5mil|YSize=66.93mil|CornerRadius=7.87mil|HoleSize=0mil|Usage=FLASHONLY|Rotation=0.000|XOffset=0mil|YOffset=0mil|HoleType=Round|Shape=RoundedRectangle|*
%AMROUNDEDRECTD54*
21,1,0.03150,0.05118,0,0,0.0*
21,1,0.01575,0.06693,0,0,0.0*
1,1,0.01575,0.00787,-0.02559*
1,1,0.01575,-0.00787,-0.02559*
1,1,0.01575,-0.00787,0.02559*
1,1,0.01575,0.00787,0.02559*
%
%ADD54ROUNDEDRECTD54*%
G04:AMPARAMS|DCode=55|XSize=82.68mil|YSize=137.8mil|CornerRadius=20.67mil|HoleSize=0mil|Usage=FLASHONLY|Rotation=0.000|XOffset=0mil|YOffset=0mil|HoleType=Round|Shape=RoundedRectangle|*
%AMROUNDEDRECTD55*
21,1,0.08268,0.09646,0,0,0.0*
21,1,0.04134,0.13780,0,0,0.0*
1,1,0.04134,0.02067,-0.04823*
1,1,0.04134,-0.02067,-0.04823*
1,1,0.04134,-0.02067,0.04823*
1,1,0.04134,0.02067,0.04823*
%
%ADD55ROUNDEDRECTD55*%
%ADD56R,0.03150X0.03543*%
%ADD57C,0.02756*%
%ADD58C,0.01575*%
%ADD59C,0.02362*%
%ADD60C,0.03150*%
%ADD61C,0.01772*%
%ADD62C,0.03543*%
%ADD63C,0.39370*%
%ADD64C,0.05906*%
%ADD65R,0.05906X0.05906*%
%ADD66R,0.05906X0.05906*%
%ADD67C,0.11811*%
%ADD68C,0.05000*%
%ADD69C,0.02756*%
%ADD70C,0.06000*%
%ADD71C,0.11024*%
%ADD72C,0.07874*%
%ADD73C,0.02559*%
G36*
X1184765Y303016D02*
X1184059Y302639D01*
X1183040Y301803D01*
X1182203Y300784D01*
X1181582Y299621D01*
X1181199Y298359D01*
X1181070Y297047D01*
X1181199Y295735D01*
X1181582Y294474D01*
X1182203Y293311D01*
X1183040Y292292D01*
X1184059Y291455D01*
X1185222Y290834D01*
X1186483Y290451D01*
X1187795Y290322D01*
X1189107Y290451D01*
X1190369Y290834D01*
X1191532Y291455D01*
X1192551Y292292D01*
X1193387Y293311D01*
X1193764Y294017D01*
X1194264Y293891D01*
Y168707D01*
X1193764Y168582D01*
X1193387Y169288D01*
X1192551Y170307D01*
X1191532Y171143D01*
X1190369Y171765D01*
X1189107Y172147D01*
X1187795Y172276D01*
X1186483Y172147D01*
X1185222Y171765D01*
X1184059Y171143D01*
X1183040Y170307D01*
X1182203Y169288D01*
X1181582Y168125D01*
X1181199Y166863D01*
X1181070Y165551D01*
X1181199Y164239D01*
X1181582Y162978D01*
X1182203Y161815D01*
X1183040Y160796D01*
X1184059Y159959D01*
X1184765Y159582D01*
X1184639Y159082D01*
X1059455D01*
X1059330Y159582D01*
X1060036Y159959D01*
X1061055Y160796D01*
X1061891Y161815D01*
X1062513Y162978D01*
X1062895Y164239D01*
X1063025Y165551D01*
X1062895Y166863D01*
X1062513Y168125D01*
X1061891Y169288D01*
X1061509Y169753D01*
X1061870Y170102D01*
X1063365Y168790D01*
X1065619Y167284D01*
X1068051Y166085D01*
X1070619Y165213D01*
X1073279Y164684D01*
X1075484Y164540D01*
Y184736D01*
X1055288D01*
X1055432Y182530D01*
X1055961Y179871D01*
X1056833Y177303D01*
X1058032Y174872D01*
X1059538Y172617D01*
X1060850Y171122D01*
X1060501Y170761D01*
X1060036Y171143D01*
X1058873Y171765D01*
X1057611Y172147D01*
X1056299Y172276D01*
X1054987Y172147D01*
X1053726Y171765D01*
X1052563Y171143D01*
X1051544Y170307D01*
X1050707Y169288D01*
X1050330Y168582D01*
X1049830Y168707D01*
Y293891D01*
X1050330Y294017D01*
X1050707Y293311D01*
X1051544Y292292D01*
X1052563Y291455D01*
X1053726Y290834D01*
X1054987Y290451D01*
X1056299Y290322D01*
X1057611Y290451D01*
X1058873Y290834D01*
X1060036Y291455D01*
X1061055Y292292D01*
X1061891Y293311D01*
X1062513Y294474D01*
X1062895Y295735D01*
X1063025Y297047D01*
X1062895Y298359D01*
X1062513Y299621D01*
X1061891Y300784D01*
X1061055Y301803D01*
X1060036Y302639D01*
X1059330Y303016D01*
X1059455Y303516D01*
X1184639D01*
X1184765Y303016D01*
D02*
G37*
%LPC*%
G36*
X1055799Y217551D02*
X1052378D01*
X1052448Y217019D01*
X1052847Y216058D01*
X1053480Y215232D01*
X1054306Y214598D01*
X1055267Y214200D01*
X1055799Y214130D01*
Y217551D01*
D02*
G37*
G36*
X1102067Y228487D02*
X1101222Y228319D01*
X1100506Y227841D01*
X1100027Y227124D01*
X1099859Y226279D01*
X1100027Y225435D01*
X1100506Y224718D01*
X1100662Y224614D01*
Y212197D01*
X1100506Y212093D01*
X1100027Y211376D01*
X1099859Y210531D01*
X1100027Y209687D01*
X1100506Y208970D01*
X1101222Y208492D01*
X1102067Y208324D01*
X1102912Y208492D01*
X1103628Y208970D01*
X1104107Y209687D01*
X1104275Y210531D01*
X1104107Y211376D01*
X1103628Y212093D01*
X1103472Y212197D01*
Y224614D01*
X1103628Y224718D01*
X1104107Y225435D01*
X1104275Y226279D01*
X1104107Y227124D01*
X1103628Y227841D01*
X1102912Y228319D01*
X1102067Y228487D01*
D02*
G37*
G36*
X1060220Y217551D02*
X1056799D01*
Y214130D01*
X1057331Y214200D01*
X1058293Y214598D01*
X1059118Y215232D01*
X1059752Y216058D01*
X1060150Y217019D01*
X1060220Y217551D01*
D02*
G37*
G36*
X1055799Y221972D02*
X1055267Y221902D01*
X1054306Y221504D01*
X1053480Y220870D01*
X1052847Y220045D01*
X1052448Y219083D01*
X1052378Y218551D01*
X1055799D01*
Y221972D01*
D02*
G37*
G36*
X1132776Y252995D02*
X1131931Y252827D01*
X1131215Y252348D01*
X1130736Y251632D01*
X1130568Y250787D01*
X1130736Y249942D01*
X1131215Y249226D01*
X1131571Y248988D01*
Y206601D01*
X1119186Y194216D01*
X1115874D01*
X1115636Y194573D01*
X1114920Y195052D01*
X1114075Y195220D01*
X1113230Y195052D01*
X1112514Y194573D01*
X1112035Y193857D01*
X1111867Y193012D01*
X1112035Y192167D01*
X1112514Y191451D01*
X1113230Y190972D01*
X1114075Y190804D01*
X1114920Y190972D01*
X1115636Y191451D01*
X1115874Y191808D01*
X1119685D01*
X1119685Y191808D01*
X1120146Y191899D01*
X1120537Y192160D01*
X1133627Y205251D01*
X1133627Y205251D01*
X1133784Y205485D01*
X1133888Y205642D01*
X1133980Y206102D01*
Y248988D01*
X1134337Y249226D01*
X1134815Y249942D01*
X1134983Y250787D01*
X1134815Y251632D01*
X1134337Y252348D01*
X1133620Y252827D01*
X1132776Y252995D01*
D02*
G37*
G36*
X1168110Y205753D02*
X1165432Y205577D01*
X1162800Y205053D01*
X1160259Y204191D01*
X1157852Y203004D01*
X1155621Y201513D01*
X1153603Y199743D01*
X1151834Y197726D01*
X1150342Y195494D01*
X1149156Y193087D01*
X1148293Y190546D01*
X1147769Y187914D01*
X1147594Y185236D01*
X1147769Y182558D01*
X1148293Y179926D01*
X1149156Y177385D01*
X1150342Y174978D01*
X1151834Y172747D01*
X1153603Y170729D01*
X1155621Y168959D01*
X1157852Y167469D01*
X1160259Y166282D01*
X1162800Y165419D01*
X1165432Y164895D01*
X1168110Y164720D01*
X1170788Y164895D01*
X1173420Y165419D01*
X1175961Y166282D01*
X1178368Y167469D01*
X1180600Y168959D01*
X1182617Y170729D01*
X1184387Y172747D01*
X1185878Y174978D01*
X1187065Y177385D01*
X1187928Y179926D01*
X1188451Y182558D01*
X1188627Y185236D01*
X1188451Y187914D01*
X1187928Y190546D01*
X1187065Y193087D01*
X1185878Y195494D01*
X1184387Y197726D01*
X1182617Y199743D01*
X1180600Y201513D01*
X1178368Y203004D01*
X1175961Y204191D01*
X1173420Y205053D01*
X1170788Y205577D01*
X1168110Y205753D01*
D02*
G37*
G36*
X1096681Y184736D02*
X1076484D01*
Y164540D01*
X1078690Y164684D01*
X1081349Y165213D01*
X1083917Y166085D01*
X1086349Y167284D01*
X1088603Y168790D01*
X1090642Y170578D01*
X1092430Y172617D01*
X1093937Y174872D01*
X1095136Y177303D01*
X1096007Y179871D01*
X1096536Y182530D01*
X1096681Y184736D01*
D02*
G37*
G36*
X1076484Y205933D02*
Y185736D01*
X1096681D01*
X1096536Y187942D01*
X1096007Y190601D01*
X1095136Y193169D01*
X1093937Y195601D01*
X1092430Y197855D01*
X1090642Y199894D01*
X1088603Y201682D01*
X1086349Y203188D01*
X1083917Y204388D01*
X1081349Y205259D01*
X1078690Y205788D01*
X1076484Y205933D01*
D02*
G37*
G36*
X1075484D02*
X1073279Y205788D01*
X1070619Y205259D01*
X1068051Y204388D01*
X1065619Y203188D01*
X1063365Y201682D01*
X1061326Y199894D01*
X1059538Y197855D01*
X1058032Y195601D01*
X1056833Y193169D01*
X1055961Y190601D01*
X1055432Y187942D01*
X1055288Y185736D01*
X1075484D01*
Y205933D01*
D02*
G37*
G36*
X1162598Y289412D02*
X1161753Y289244D01*
X1161404Y289011D01*
X1153163D01*
X1152813Y289244D01*
X1151968Y289412D01*
X1151124Y289244D01*
X1150407Y288766D01*
X1149929Y288050D01*
X1149761Y287205D01*
X1149929Y286360D01*
X1150407Y285644D01*
X1151124Y285165D01*
X1151968Y284997D01*
X1152813Y285165D01*
X1153163Y285398D01*
X1161404D01*
X1161753Y285165D01*
X1162598Y284997D01*
X1163443Y285165D01*
X1164159Y285644D01*
X1164638Y286360D01*
X1164806Y287205D01*
X1164638Y288050D01*
X1164159Y288766D01*
X1163443Y289244D01*
X1162598Y289412D01*
D02*
G37*
G36*
X1127953Y273172D02*
X1127108Y273004D01*
X1126392Y272526D01*
X1126287Y272370D01*
X1124902D01*
X1124364Y272263D01*
X1123908Y271958D01*
X1114969Y263019D01*
X1111024D01*
X1110486Y262912D01*
X1110030Y262608D01*
X1092824Y245401D01*
X1083260D01*
X1083156Y245557D01*
X1082439Y246036D01*
X1081594Y246204D01*
X1080750Y246036D01*
X1080033Y245557D01*
X1079555Y244841D01*
X1079387Y243996D01*
X1079555Y243151D01*
X1080033Y242435D01*
X1080750Y241956D01*
X1081594Y241788D01*
X1082439Y241956D01*
X1083156Y242435D01*
X1083260Y242591D01*
X1093406D01*
X1093943Y242698D01*
X1094399Y243003D01*
X1111606Y260209D01*
X1115551D01*
X1116089Y260316D01*
X1116545Y260621D01*
X1125484Y269560D01*
X1126287D01*
X1126392Y269403D01*
X1127108Y268925D01*
X1127953Y268757D01*
X1128798Y268925D01*
X1129514Y269403D01*
X1129992Y270120D01*
X1130161Y270965D01*
X1129992Y271810D01*
X1129514Y272526D01*
X1128798Y273004D01*
X1127953Y273172D01*
D02*
G37*
G36*
X1161319Y300787D02*
X1153839D01*
Y293307D01*
X1161319D01*
Y300787D01*
D02*
G37*
G36*
X1167579Y300820D02*
X1166602Y300691D01*
X1165693Y300314D01*
X1164911Y299715D01*
X1164312Y298933D01*
X1163935Y298024D01*
X1163806Y297047D01*
X1163935Y296071D01*
X1164312Y295161D01*
X1164911Y294380D01*
X1165693Y293780D01*
X1166602Y293403D01*
X1167579Y293275D01*
X1168555Y293403D01*
X1169465Y293780D01*
X1170246Y294380D01*
X1170846Y295161D01*
X1171223Y296071D01*
X1171351Y297047D01*
X1171223Y298024D01*
X1170846Y298933D01*
X1170246Y299715D01*
X1169465Y300314D01*
X1168555Y300691D01*
X1167579Y300820D01*
D02*
G37*
G36*
X1112598Y258901D02*
X1111753Y258733D01*
X1111037Y258254D01*
X1110559Y257538D01*
X1110391Y256693D01*
X1110559Y255848D01*
X1111037Y255132D01*
X1111753Y254653D01*
X1112598Y254485D01*
X1113443Y254653D01*
X1114159Y255132D01*
X1114264Y255288D01*
X1135639D01*
X1136331Y254595D01*
Y252512D01*
X1136175Y252408D01*
X1135697Y251691D01*
X1135528Y250846D01*
X1135697Y250002D01*
X1136175Y249285D01*
X1136891Y248807D01*
X1137736Y248639D01*
X1138581Y248807D01*
X1139297Y249285D01*
X1139776Y250002D01*
X1139944Y250846D01*
X1139776Y251691D01*
X1139297Y252408D01*
X1139141Y252512D01*
Y255177D01*
X1139034Y255715D01*
X1138730Y256171D01*
X1137214Y257686D01*
X1136758Y257991D01*
X1136220Y258098D01*
X1114264D01*
X1114159Y258254D01*
X1113443Y258733D01*
X1112598Y258901D01*
D02*
G37*
G36*
X1060039Y231791D02*
X1052559D01*
Y224311D01*
X1060039D01*
Y231791D01*
D02*
G37*
G36*
X1056799Y221972D02*
Y218551D01*
X1060220D01*
X1060150Y219083D01*
X1059752Y220045D01*
X1059118Y220870D01*
X1058293Y221504D01*
X1057331Y221902D01*
X1056799Y221972D01*
D02*
G37*
G36*
X1142815Y252995D02*
X1141970Y252827D01*
X1141254Y252348D01*
X1140775Y251632D01*
X1140607Y250787D01*
X1140775Y249942D01*
X1141254Y249226D01*
X1141970Y248748D01*
X1142815Y248580D01*
X1143660Y248748D01*
X1144009Y248981D01*
X1149842D01*
X1154788Y244035D01*
Y239285D01*
X1154555Y238935D01*
X1154387Y238090D01*
X1154555Y237246D01*
X1155033Y236529D01*
X1155750Y236051D01*
X1156594Y235883D01*
X1157439Y236051D01*
X1158156Y236529D01*
X1158634Y237246D01*
X1158802Y238090D01*
X1158634Y238935D01*
X1158401Y239285D01*
Y244783D01*
X1158263Y245475D01*
X1157872Y246061D01*
X1151868Y252065D01*
X1151282Y252456D01*
X1150591Y252594D01*
X1144009D01*
X1143660Y252827D01*
X1142815Y252995D01*
D02*
G37*
G36*
X1126968Y234196D02*
X1126124Y234028D01*
X1125407Y233549D01*
X1125303Y233393D01*
X1112894D01*
X1112356Y233286D01*
X1111900Y232982D01*
X1107077Y228159D01*
X1106773Y227703D01*
X1106666Y227165D01*
Y208259D01*
X1105324Y206917D01*
X1103634D01*
X1103530Y207073D01*
X1102813Y207552D01*
X1101968Y207720D01*
X1101124Y207552D01*
X1100407Y207073D01*
X1099929Y206357D01*
X1099761Y205512D01*
X1099929Y204667D01*
X1100407Y203951D01*
X1101124Y203472D01*
X1101968Y203304D01*
X1102813Y203472D01*
X1103530Y203951D01*
X1103634Y204107D01*
X1105906D01*
X1106443Y204214D01*
X1106899Y204518D01*
X1109064Y206684D01*
X1109369Y207139D01*
X1109476Y207677D01*
Y226583D01*
X1113476Y230583D01*
X1125303D01*
X1125407Y230427D01*
X1126124Y229948D01*
X1126968Y229780D01*
X1127813Y229948D01*
X1128530Y230427D01*
X1129008Y231143D01*
X1129176Y231988D01*
X1129008Y232833D01*
X1128530Y233549D01*
X1127813Y234028D01*
X1126968Y234196D01*
D02*
G37*
%LPD*%
G36*
X550787Y536950D02*
X550787Y155118D01*
X159212Y155118D01*
X158858Y155472D01*
X158858Y537303D01*
X550434Y537303D01*
X550787Y536950D01*
D02*
G37*
%LPC*%
G36*
X422421Y313040D02*
X421563Y312927D01*
X420763Y312596D01*
X420077Y312069D01*
X419550Y311382D01*
X419218Y310583D01*
X419105Y309724D01*
X419218Y308866D01*
X419550Y308067D01*
X420077Y307380D01*
X420763Y306853D01*
X421217Y306665D01*
Y302480D01*
X421217Y302480D01*
X421309Y302020D01*
X421570Y301629D01*
X499091Y224108D01*
Y221302D01*
X498591Y221132D01*
X498233Y221599D01*
X497441Y222206D01*
X496520Y222588D01*
X495532Y222718D01*
X494543Y222588D01*
X493621Y222206D01*
X492830Y221599D01*
X492223Y220808D01*
X491842Y219886D01*
X491711Y218898D01*
X491842Y217909D01*
X492223Y216988D01*
X492830Y216196D01*
X493621Y215589D01*
X494543Y215208D01*
X495532Y215078D01*
X496520Y215208D01*
X497441Y215589D01*
X498233Y216196D01*
X498591Y216664D01*
X499091Y216494D01*
Y211302D01*
X498591Y211132D01*
X498233Y211599D01*
X497441Y212206D01*
X496520Y212588D01*
X495532Y212718D01*
X494543Y212588D01*
X493621Y212206D01*
X492830Y211599D01*
X492223Y210808D01*
X491842Y209887D01*
X491711Y208898D01*
X491842Y207909D01*
X492223Y206988D01*
X492830Y206196D01*
X493621Y205590D01*
X494543Y205208D01*
X495532Y205078D01*
X496520Y205208D01*
X497441Y205590D01*
X498233Y206196D01*
X498591Y206664D01*
X499091Y206494D01*
Y198524D01*
X499123Y198364D01*
X499135Y198201D01*
X499168Y198135D01*
X499183Y198063D01*
X499273Y197927D01*
X499347Y197782D01*
X500953Y195728D01*
X500257Y195117D01*
X498487Y193100D01*
X496996Y190868D01*
X495809Y188462D01*
X494947Y185920D01*
X494423Y183288D01*
X494248Y180610D01*
X494423Y177932D01*
X494947Y175300D01*
X495809Y172759D01*
X496996Y170352D01*
X498487Y168121D01*
X500257Y166103D01*
X502274Y164333D01*
X504506Y162843D01*
X506913Y161656D01*
X509454Y160793D01*
X512086Y160269D01*
X514764Y160094D01*
X517442Y160269D01*
X520074Y160793D01*
X522615Y161656D01*
X525022Y162843D01*
X527253Y164333D01*
X529271Y166103D01*
X531041Y168121D01*
X532532Y170352D01*
X533719Y172759D01*
X534581Y175300D01*
X535105Y177932D01*
X535280Y180610D01*
X535105Y183288D01*
X534581Y185920D01*
X533719Y188462D01*
X532532Y190868D01*
X531041Y193100D01*
X529271Y195117D01*
X527253Y196887D01*
X525022Y198378D01*
X522615Y199565D01*
X520074Y200428D01*
X517442Y200951D01*
X514764Y201127D01*
X512086Y200951D01*
X509454Y200428D01*
X506913Y199565D01*
X504506Y198378D01*
X502819Y197251D01*
X501500Y198939D01*
Y207428D01*
X502000Y207528D01*
X502223Y206988D01*
X502830Y206196D01*
X503621Y205590D01*
X504543Y205208D01*
X505532Y205078D01*
X506520Y205208D01*
X507442Y205590D01*
X508233Y206196D01*
X508840Y206988D01*
X509221Y207909D01*
X509352Y208898D01*
X509221Y209887D01*
X508840Y210808D01*
X508233Y211599D01*
X507442Y212206D01*
X506520Y212588D01*
X505532Y212718D01*
X504543Y212588D01*
X503621Y212206D01*
X502830Y211599D01*
X502223Y210808D01*
X502000Y210268D01*
X501500Y210367D01*
Y217428D01*
X502000Y217528D01*
X502223Y216988D01*
X502830Y216196D01*
X503621Y215589D01*
X504543Y215208D01*
X505532Y215078D01*
X506520Y215208D01*
X507442Y215589D01*
X508233Y216196D01*
X508840Y216988D01*
X509221Y217909D01*
X509352Y218898D01*
X509221Y219886D01*
X508840Y220808D01*
X508233Y221599D01*
X507442Y222206D01*
X506520Y222588D01*
X505532Y222718D01*
X504543Y222588D01*
X503621Y222206D01*
X502830Y221599D01*
X502223Y220808D01*
X502000Y220268D01*
X501500Y220367D01*
Y224606D01*
X501408Y225067D01*
X501147Y225458D01*
X423626Y302979D01*
Y306665D01*
X424079Y306853D01*
X424766Y307380D01*
X425293Y308067D01*
X425624Y308866D01*
X425737Y309724D01*
X425624Y310583D01*
X425293Y311382D01*
X424766Y312069D01*
X424079Y312596D01*
X423279Y312927D01*
X422421Y313040D01*
D02*
G37*
G36*
X264173Y230150D02*
X263197Y230022D01*
X262287Y229645D01*
X261506Y229046D01*
X260906Y228264D01*
X260529Y227354D01*
X260401Y226378D01*
X260529Y225402D01*
X260906Y224492D01*
X261506Y223710D01*
X262287Y223111D01*
X263197Y222734D01*
X264173Y222605D01*
X265150Y222734D01*
X266059Y223111D01*
X266841Y223710D01*
X267440Y224492D01*
X267817Y225402D01*
X267946Y226378D01*
X267817Y227354D01*
X267440Y228264D01*
X266841Y229046D01*
X266059Y229645D01*
X265150Y230022D01*
X264173Y230150D01*
D02*
G37*
G36*
X365032Y222866D02*
X364487Y222795D01*
X363514Y222392D01*
X362679Y221751D01*
X362037Y220915D01*
X361634Y219942D01*
X361563Y219398D01*
X365032D01*
Y222866D01*
D02*
G37*
G36*
X366032D02*
Y219398D01*
X369500D01*
X369428Y219942D01*
X369025Y220915D01*
X368384Y221751D01*
X367549Y222392D01*
X366576Y222795D01*
X366032Y222866D01*
D02*
G37*
G36*
X250446Y230206D02*
X249469Y230078D01*
X248559Y229701D01*
X247778Y229101D01*
X247179Y228320D01*
X246802Y227410D01*
X246673Y226434D01*
X246802Y225457D01*
X247179Y224548D01*
X247778Y223766D01*
X248559Y223167D01*
X249469Y222790D01*
X250446Y222661D01*
X251422Y222790D01*
X252332Y223167D01*
X253113Y223766D01*
X253713Y224548D01*
X254090Y225457D01*
X254218Y226434D01*
X254090Y227410D01*
X253713Y228320D01*
X253113Y229101D01*
X252332Y229701D01*
X251422Y230078D01*
X250446Y230206D01*
D02*
G37*
G36*
X345472Y232737D02*
X344484Y232607D01*
X343562Y232226D01*
X342771Y231618D01*
X342164Y230827D01*
X341782Y229906D01*
X341652Y228917D01*
X341782Y227929D01*
X342164Y227007D01*
X342771Y226216D01*
X343562Y225609D01*
X344484Y225227D01*
X345472Y225097D01*
X346461Y225227D01*
X347382Y225609D01*
X348174Y226216D01*
X348781Y227007D01*
X349162Y227929D01*
X349292Y228917D01*
X349162Y229906D01*
X348781Y230827D01*
X348174Y231618D01*
X347382Y232226D01*
X346461Y232607D01*
X345472Y232737D01*
D02*
G37*
G36*
X230446Y230206D02*
X229469Y230078D01*
X228559Y229701D01*
X227778Y229101D01*
X227179Y228320D01*
X226802Y227410D01*
X226673Y226434D01*
X226802Y225457D01*
X227179Y224548D01*
X227778Y223766D01*
X228559Y223167D01*
X229469Y222790D01*
X230446Y222661D01*
X231422Y222790D01*
X232332Y223167D01*
X233113Y223766D01*
X233713Y224548D01*
X234090Y225457D01*
X234218Y226434D01*
X234090Y227410D01*
X233713Y228320D01*
X233113Y229101D01*
X232332Y229701D01*
X231422Y230078D01*
X230446Y230206D01*
D02*
G37*
G36*
X240158Y270245D02*
X239299Y270132D01*
X238500Y269801D01*
X237813Y269274D01*
X237286Y268587D01*
X236955Y267787D01*
X236842Y266929D01*
X236955Y266071D01*
X237286Y265271D01*
X237673Y264767D01*
X237667Y228956D01*
X237179Y228320D01*
X236802Y227410D01*
X236673Y226434D01*
X236802Y225457D01*
X237179Y224548D01*
X237778Y223766D01*
X238560Y223167D01*
X239469Y222790D01*
X240446Y222661D01*
X241422Y222790D01*
X242332Y223167D01*
X243113Y223766D01*
X243713Y224548D01*
X244090Y225457D01*
X244218Y226434D01*
X244090Y227410D01*
X243713Y228320D01*
X243226Y228955D01*
X243232Y265762D01*
X243360Y266071D01*
X243473Y266929D01*
X243360Y267787D01*
X243029Y268587D01*
X242502Y269274D01*
X241815Y269801D01*
X241016Y270132D01*
X240158Y270245D01*
D02*
G37*
G36*
X264673Y220299D02*
Y216878D01*
X268094D01*
X268024Y217410D01*
X267626Y218371D01*
X266992Y219197D01*
X266167Y219831D01*
X265205Y220229D01*
X264673Y220299D01*
D02*
G37*
G36*
X475531Y222718D02*
X474543Y222588D01*
X473622Y222206D01*
X472830Y221599D01*
X472223Y220808D01*
X471842Y219886D01*
X471711Y218898D01*
X471842Y217909D01*
X472223Y216988D01*
X472830Y216196D01*
X473622Y215589D01*
X474543Y215208D01*
X475531Y215078D01*
X476520Y215208D01*
X477442Y215589D01*
X478233Y216196D01*
X478840Y216988D01*
X479221Y217909D01*
X479352Y218898D01*
X479221Y219886D01*
X478840Y220808D01*
X478233Y221599D01*
X477442Y222206D01*
X476520Y222588D01*
X475531Y222718D01*
D02*
G37*
G36*
X485532D02*
X484543Y222588D01*
X483622Y222206D01*
X482830Y221599D01*
X482223Y220808D01*
X481842Y219886D01*
X481711Y218898D01*
X481842Y217909D01*
X482223Y216988D01*
X482830Y216196D01*
X483622Y215589D01*
X484543Y215208D01*
X485532Y215078D01*
X486520Y215208D01*
X487441Y215589D01*
X488233Y216196D01*
X488840Y216988D01*
X489221Y217909D01*
X489352Y218898D01*
X489221Y219886D01*
X488840Y220808D01*
X488233Y221599D01*
X487441Y222206D01*
X486520Y222588D01*
X485532Y222718D01*
D02*
G37*
G36*
X425531D02*
X424543Y222588D01*
X423622Y222206D01*
X422830Y221599D01*
X422223Y220808D01*
X421842Y219886D01*
X421711Y218898D01*
X421842Y217909D01*
X422223Y216988D01*
X422830Y216196D01*
X423622Y215589D01*
X424543Y215208D01*
X425531Y215078D01*
X426520Y215208D01*
X427442Y215589D01*
X428233Y216196D01*
X428840Y216988D01*
X429221Y217909D01*
X429352Y218898D01*
X429221Y219886D01*
X428840Y220808D01*
X428233Y221599D01*
X427442Y222206D01*
X426520Y222588D01*
X425531Y222718D01*
D02*
G37*
G36*
X465531D02*
X464543Y222588D01*
X463622Y222206D01*
X462830Y221599D01*
X462223Y220808D01*
X461842Y219886D01*
X461711Y218898D01*
X461842Y217909D01*
X462223Y216988D01*
X462830Y216196D01*
X463622Y215589D01*
X464543Y215208D01*
X465531Y215078D01*
X466520Y215208D01*
X467442Y215589D01*
X468233Y216196D01*
X468840Y216988D01*
X469221Y217909D01*
X469352Y218898D01*
X469221Y219886D01*
X468840Y220808D01*
X468233Y221599D01*
X467442Y222206D01*
X466520Y222588D01*
X465531Y222718D01*
D02*
G37*
G36*
X535532D02*
X534543Y222588D01*
X533622Y222206D01*
X532830Y221599D01*
X532223Y220808D01*
X531842Y219886D01*
X531711Y218898D01*
X531842Y217909D01*
X532223Y216988D01*
X532830Y216196D01*
X533622Y215589D01*
X534543Y215208D01*
X535532Y215078D01*
X536520Y215208D01*
X537441Y215589D01*
X538233Y216196D01*
X538840Y216988D01*
X539221Y217909D01*
X539352Y218898D01*
X539221Y219886D01*
X538840Y220808D01*
X538233Y221599D01*
X537441Y222206D01*
X536520Y222588D01*
X535532Y222718D01*
D02*
G37*
G36*
X263673Y220299D02*
X263141Y220229D01*
X262180Y219831D01*
X261354Y219197D01*
X260720Y218371D01*
X260322Y217410D01*
X260252Y216878D01*
X263673D01*
Y220299D01*
D02*
G37*
G36*
X515531Y222718D02*
X514543Y222588D01*
X513622Y222206D01*
X512830Y221599D01*
X512223Y220808D01*
X511842Y219886D01*
X511711Y218898D01*
X511842Y217909D01*
X512223Y216988D01*
X512830Y216196D01*
X513622Y215589D01*
X514543Y215208D01*
X515531Y215078D01*
X516520Y215208D01*
X517442Y215589D01*
X518233Y216196D01*
X518840Y216988D01*
X519221Y217909D01*
X519352Y218898D01*
X519221Y219886D01*
X518840Y220808D01*
X518233Y221599D01*
X517442Y222206D01*
X516520Y222588D01*
X515531Y222718D01*
D02*
G37*
G36*
X525531D02*
X524543Y222588D01*
X523622Y222206D01*
X522830Y221599D01*
X522223Y220808D01*
X521842Y219886D01*
X521711Y218898D01*
X521842Y217909D01*
X522223Y216988D01*
X522830Y216196D01*
X523622Y215589D01*
X524543Y215208D01*
X525531Y215078D01*
X526520Y215208D01*
X527442Y215589D01*
X528233Y216196D01*
X528840Y216988D01*
X529221Y217909D01*
X529352Y218898D01*
X529221Y219886D01*
X528840Y220808D01*
X528233Y221599D01*
X527442Y222206D01*
X526520Y222588D01*
X525531Y222718D01*
D02*
G37*
G36*
X264173Y302099D02*
X262861Y301970D01*
X261600Y301587D01*
X260437Y300966D01*
X259418Y300130D01*
X258581Y299110D01*
X257960Y297948D01*
X257577Y296686D01*
X257448Y295374D01*
X257577Y294062D01*
X257960Y292800D01*
X258581Y291638D01*
X259418Y290618D01*
X260437Y289782D01*
X261600Y289161D01*
X262861Y288778D01*
X264173Y288649D01*
X265485Y288778D01*
X266747Y289161D01*
X267910Y289782D01*
X268929Y290618D01*
X269765Y291638D01*
X270387Y292800D01*
X270769Y294062D01*
X270899Y295374D01*
X270769Y296686D01*
X270387Y297948D01*
X269765Y299110D01*
X268929Y300130D01*
X267910Y300966D01*
X266747Y301587D01*
X265485Y301970D01*
X264173Y302099D01*
D02*
G37*
G36*
X395669D02*
X394357Y301970D01*
X393096Y301587D01*
X391933Y300966D01*
X390914Y300130D01*
X390077Y299110D01*
X389456Y297948D01*
X389073Y296686D01*
X388944Y295374D01*
X389073Y294062D01*
X389456Y292800D01*
X390077Y291638D01*
X390914Y290618D01*
X391933Y289782D01*
X393096Y289161D01*
X394357Y288778D01*
X395669Y288649D01*
X396981Y288778D01*
X398243Y289161D01*
X399406Y289782D01*
X400425Y290618D01*
X401261Y291638D01*
X401883Y292800D01*
X402265Y294062D01*
X402395Y295374D01*
X402265Y296686D01*
X401883Y297948D01*
X401261Y299110D01*
X400425Y300130D01*
X399406Y300966D01*
X398243Y301587D01*
X396981Y301970D01*
X395669Y302099D01*
D02*
G37*
G36*
X535532Y292718D02*
X534543Y292588D01*
X533622Y292206D01*
X532830Y291599D01*
X532223Y290808D01*
X531842Y289886D01*
X531711Y288898D01*
X531842Y287909D01*
X532223Y286988D01*
X532830Y286196D01*
X533622Y285589D01*
X534543Y285208D01*
X535532Y285078D01*
X536520Y285208D01*
X537441Y285589D01*
X538233Y286196D01*
X538840Y286988D01*
X539221Y287909D01*
X539352Y288898D01*
X539221Y289886D01*
X538840Y290808D01*
X538233Y291599D01*
X537441Y292206D01*
X536520Y292588D01*
X535532Y292718D01*
D02*
G37*
G36*
X345472Y292737D02*
X344484Y292607D01*
X343562Y292226D01*
X342771Y291618D01*
X342164Y290827D01*
X341782Y289906D01*
X341652Y288917D01*
X341782Y287929D01*
X342164Y287007D01*
X342771Y286216D01*
X343562Y285609D01*
X344484Y285227D01*
X345472Y285097D01*
X346461Y285227D01*
X347382Y285609D01*
X348174Y286216D01*
X348781Y287007D01*
X349162Y287929D01*
X349292Y288917D01*
X349162Y289906D01*
X348781Y290827D01*
X348174Y291618D01*
X347382Y292226D01*
X346461Y292607D01*
X345472Y292737D01*
D02*
G37*
G36*
X535532Y302718D02*
X534543Y302588D01*
X533622Y302206D01*
X532830Y301599D01*
X532223Y300808D01*
X531842Y299886D01*
X531711Y298898D01*
X531842Y297909D01*
X532223Y296988D01*
X532830Y296197D01*
X533622Y295589D01*
X534543Y295208D01*
X535532Y295078D01*
X536520Y295208D01*
X537441Y295589D01*
X538233Y296197D01*
X538840Y296988D01*
X539221Y297909D01*
X539352Y298898D01*
X539221Y299886D01*
X538840Y300808D01*
X538233Y301599D01*
X537441Y302206D01*
X536520Y302588D01*
X535532Y302718D01*
D02*
G37*
G36*
X345472Y302737D02*
X344484Y302607D01*
X343562Y302226D01*
X342771Y301619D01*
X342164Y300827D01*
X341782Y299906D01*
X341652Y298917D01*
X341782Y297929D01*
X342164Y297007D01*
X342771Y296216D01*
X343562Y295609D01*
X344484Y295227D01*
X345472Y295097D01*
X346461Y295227D01*
X347382Y295609D01*
X348174Y296216D01*
X348781Y297007D01*
X349162Y297929D01*
X349292Y298917D01*
X349162Y299906D01*
X348781Y300827D01*
X348174Y301619D01*
X347382Y302226D01*
X346461Y302607D01*
X345472Y302737D01*
D02*
G37*
G36*
X365492Y299147D02*
X364516Y299018D01*
X363606Y298641D01*
X362825Y298042D01*
X362225Y297260D01*
X361848Y296350D01*
X361720Y295374D01*
X361848Y294398D01*
X362225Y293488D01*
X362825Y292706D01*
X363606Y292107D01*
X364516Y291730D01*
X365492Y291602D01*
X366469Y291730D01*
X367378Y292107D01*
X368160Y292706D01*
X368759Y293488D01*
X369136Y294398D01*
X369265Y295374D01*
X369136Y296350D01*
X368759Y297260D01*
X368160Y298042D01*
X367378Y298641D01*
X366469Y299018D01*
X365492Y299147D01*
D02*
G37*
G36*
X375453D02*
X374476Y299018D01*
X373567Y298641D01*
X372785Y298042D01*
X372186Y297260D01*
X371809Y296350D01*
X371680Y295374D01*
X371809Y294398D01*
X372186Y293488D01*
X372785Y292706D01*
X373567Y292107D01*
X374476Y291730D01*
X375453Y291602D01*
X376429Y291730D01*
X377339Y292107D01*
X378120Y292706D01*
X378720Y293488D01*
X379097Y294398D01*
X379225Y295374D01*
X379097Y296350D01*
X378720Y297260D01*
X378120Y298042D01*
X377339Y298641D01*
X376429Y299018D01*
X375453Y299147D01*
D02*
G37*
G36*
X345472Y282737D02*
X344484Y282607D01*
X343562Y282226D01*
X342771Y281618D01*
X342164Y280827D01*
X341782Y279906D01*
X341652Y278917D01*
X341782Y277929D01*
X342164Y277007D01*
X342771Y276216D01*
X343562Y275609D01*
X344484Y275227D01*
X345472Y275097D01*
X346461Y275227D01*
X347382Y275609D01*
X348174Y276216D01*
X348781Y277007D01*
X349162Y277929D01*
X349292Y278917D01*
X349162Y279906D01*
X348781Y280827D01*
X348174Y281618D01*
X347382Y282226D01*
X346461Y282607D01*
X345472Y282737D01*
D02*
G37*
G36*
Y252737D02*
X344484Y252607D01*
X343562Y252226D01*
X342771Y251619D01*
X342164Y250827D01*
X341782Y249906D01*
X341652Y248917D01*
X341782Y247929D01*
X342164Y247007D01*
X342771Y246216D01*
X343562Y245609D01*
X344484Y245227D01*
X345472Y245097D01*
X346461Y245227D01*
X347382Y245609D01*
X348174Y246216D01*
X348781Y247007D01*
X349162Y247929D01*
X349292Y248917D01*
X349162Y249906D01*
X348781Y250827D01*
X348174Y251619D01*
X347382Y252226D01*
X346461Y252607D01*
X345472Y252737D01*
D02*
G37*
G36*
X535532Y262718D02*
X534543Y262588D01*
X533622Y262206D01*
X532830Y261599D01*
X532223Y260808D01*
X531842Y259886D01*
X531711Y258898D01*
X531842Y257909D01*
X532223Y256988D01*
X532830Y256196D01*
X533622Y255589D01*
X534543Y255208D01*
X535532Y255078D01*
X536520Y255208D01*
X537441Y255589D01*
X538233Y256196D01*
X538840Y256988D01*
X539221Y257909D01*
X539352Y258898D01*
X539221Y259886D01*
X538840Y260808D01*
X538233Y261599D01*
X537441Y262206D01*
X536520Y262588D01*
X535532Y262718D01*
D02*
G37*
G36*
X345472Y242737D02*
X344484Y242607D01*
X343562Y242226D01*
X342771Y241618D01*
X342164Y240827D01*
X341782Y239906D01*
X341652Y238917D01*
X341782Y237929D01*
X342164Y237007D01*
X342771Y236216D01*
X343562Y235609D01*
X344484Y235227D01*
X345472Y235097D01*
X346461Y235227D01*
X347382Y235609D01*
X348174Y236216D01*
X348781Y237007D01*
X349162Y237929D01*
X349292Y238917D01*
X349162Y239906D01*
X348781Y240827D01*
X348174Y241618D01*
X347382Y242226D01*
X346461Y242607D01*
X345472Y242737D01*
D02*
G37*
G36*
X535532Y252718D02*
X534543Y252588D01*
X533622Y252206D01*
X532830Y251599D01*
X532223Y250808D01*
X531842Y249886D01*
X531711Y248898D01*
X531842Y247909D01*
X532223Y246988D01*
X532830Y246197D01*
X533622Y245589D01*
X534543Y245208D01*
X535532Y245078D01*
X536520Y245208D01*
X537441Y245589D01*
X538233Y246197D01*
X538840Y246988D01*
X539221Y247909D01*
X539352Y248898D01*
X539221Y249886D01*
X538840Y250808D01*
X538233Y251599D01*
X537441Y252206D01*
X536520Y252588D01*
X535532Y252718D01*
D02*
G37*
G36*
X345472Y272737D02*
X344484Y272607D01*
X343562Y272226D01*
X342771Y271619D01*
X342164Y270827D01*
X341782Y269906D01*
X341652Y268917D01*
X341782Y267929D01*
X342164Y267007D01*
X342771Y266216D01*
X343562Y265609D01*
X344484Y265227D01*
X345472Y265097D01*
X346461Y265227D01*
X347382Y265609D01*
X348174Y266216D01*
X348781Y267007D01*
X349162Y267929D01*
X349292Y268917D01*
X349162Y269906D01*
X348781Y270827D01*
X348174Y271619D01*
X347382Y272226D01*
X346461Y272607D01*
X345472Y272737D01*
D02*
G37*
G36*
X535532Y282718D02*
X534543Y282588D01*
X533622Y282206D01*
X532830Y281599D01*
X532223Y280808D01*
X531842Y279886D01*
X531711Y278898D01*
X531842Y277909D01*
X532223Y276988D01*
X532830Y276197D01*
X533622Y275589D01*
X534543Y275208D01*
X535532Y275078D01*
X536520Y275208D01*
X537441Y275589D01*
X538233Y276197D01*
X538840Y276988D01*
X539221Y277909D01*
X539352Y278898D01*
X539221Y279886D01*
X538840Y280808D01*
X538233Y281599D01*
X537441Y282206D01*
X536520Y282588D01*
X535532Y282718D01*
D02*
G37*
G36*
X345472Y262737D02*
X344484Y262607D01*
X343562Y262226D01*
X342771Y261618D01*
X342164Y260827D01*
X341782Y259906D01*
X341652Y258917D01*
X341782Y257929D01*
X342164Y257007D01*
X342771Y256216D01*
X343562Y255609D01*
X344484Y255227D01*
X345472Y255097D01*
X346461Y255227D01*
X347382Y255609D01*
X348174Y256216D01*
X348781Y257007D01*
X349162Y257929D01*
X349292Y258917D01*
X349162Y259906D01*
X348781Y260827D01*
X348174Y261618D01*
X347382Y262226D01*
X346461Y262607D01*
X345472Y262737D01*
D02*
G37*
G36*
X535532Y272718D02*
X534543Y272588D01*
X533622Y272206D01*
X532830Y271599D01*
X532223Y270808D01*
X531842Y269886D01*
X531711Y268898D01*
X531842Y267909D01*
X532223Y266988D01*
X532830Y266196D01*
X533622Y265589D01*
X534543Y265208D01*
X535532Y265078D01*
X536520Y265208D01*
X537441Y265589D01*
X538233Y266196D01*
X538840Y266988D01*
X539221Y267909D01*
X539352Y268898D01*
X539221Y269886D01*
X538840Y270808D01*
X538233Y271599D01*
X537441Y272206D01*
X536520Y272588D01*
X535532Y272718D01*
D02*
G37*
G36*
X415531Y222718D02*
X414543Y222588D01*
X413622Y222206D01*
X412830Y221599D01*
X412223Y220808D01*
X411842Y219886D01*
X411711Y218898D01*
X411842Y217909D01*
X412223Y216988D01*
X412830Y216196D01*
X413622Y215589D01*
X414543Y215208D01*
X415531Y215078D01*
X416520Y215208D01*
X417442Y215589D01*
X418233Y216196D01*
X418840Y216988D01*
X419221Y217909D01*
X419352Y218898D01*
X419221Y219886D01*
X418840Y220808D01*
X418233Y221599D01*
X417442Y222206D01*
X416520Y222588D01*
X415531Y222718D01*
D02*
G37*
G36*
X369500Y208398D02*
X366032D01*
Y204929D01*
X366576Y205001D01*
X367549Y205404D01*
X368384Y206045D01*
X369025Y206880D01*
X369428Y207854D01*
X369500Y208398D01*
D02*
G37*
G36*
X375532Y212718D02*
X374543Y212588D01*
X373622Y212206D01*
X372830Y211599D01*
X372223Y210808D01*
X371842Y209887D01*
X371711Y208898D01*
X371842Y207909D01*
X372223Y206988D01*
X372830Y206196D01*
X373622Y205590D01*
X374543Y205208D01*
X375532Y205078D01*
X376520Y205208D01*
X377442Y205590D01*
X378233Y206196D01*
X378840Y206988D01*
X379221Y207909D01*
X379352Y208898D01*
X379221Y209887D01*
X378840Y210808D01*
X378233Y211599D01*
X377442Y212206D01*
X376520Y212588D01*
X375532Y212718D01*
D02*
G37*
G36*
X279134Y276938D02*
X278276Y276825D01*
X277476Y276494D01*
X276789Y275967D01*
X276262Y275280D01*
X275931Y274480D01*
X275818Y273622D01*
X275931Y272764D01*
X276262Y271964D01*
X276789Y271277D01*
X277476Y270750D01*
X277930Y270563D01*
Y242323D01*
X277930Y242323D01*
X278021Y241862D01*
X278282Y241471D01*
X281530Y238223D01*
X281530Y238223D01*
X281921Y237962D01*
X282382Y237871D01*
X282382Y237871D01*
X299993D01*
X338962Y198902D01*
X338962Y198902D01*
X339196Y198746D01*
X339352Y198641D01*
X339813Y198550D01*
X347847D01*
X348014Y198145D01*
X348541Y197459D01*
X349228Y196932D01*
X350028Y196600D01*
X350886Y196487D01*
X351744Y196600D01*
X352544Y196932D01*
X353231Y197459D01*
X353757Y198145D01*
X353925Y198550D01*
X433120D01*
X433120Y198550D01*
X433581Y198641D01*
X433972Y198902D01*
X441796Y206727D01*
X441796Y206727D01*
X441810Y206747D01*
X442410Y206745D01*
X442830Y206196D01*
X443621Y205590D01*
X444543Y205208D01*
X445532Y205078D01*
X446520Y205208D01*
X447441Y205590D01*
X448233Y206196D01*
X448840Y206988D01*
X448985Y207338D01*
X449485Y207238D01*
Y200696D01*
X442513Y193724D01*
X358751D01*
X358482Y194374D01*
X357955Y195061D01*
X357268Y195588D01*
X356468Y195919D01*
X355610Y196032D01*
X354752Y195919D01*
X353952Y195588D01*
X353266Y195061D01*
X352739Y194374D01*
X352469Y193724D01*
X339180D01*
X300359Y232544D01*
X299969Y232805D01*
X299508Y232897D01*
X299508Y232897D01*
X278648D01*
X272956Y238589D01*
Y270563D01*
X273410Y270750D01*
X274097Y271277D01*
X274623Y271964D01*
X274955Y272764D01*
X275068Y273622D01*
X274955Y274480D01*
X274623Y275280D01*
X274097Y275967D01*
X273410Y276494D01*
X272610Y276825D01*
X271752Y276938D01*
X270894Y276825D01*
X270094Y276494D01*
X269407Y275967D01*
X268880Y275280D01*
X268549Y274480D01*
X268436Y273622D01*
X268549Y272764D01*
X268880Y271964D01*
X269407Y271277D01*
X270094Y270750D01*
X270548Y270563D01*
Y238091D01*
X270548Y238091D01*
X270639Y237630D01*
X270901Y237239D01*
X277298Y230841D01*
X277298Y230841D01*
X277689Y230580D01*
X278150Y230489D01*
X278150Y230489D01*
X299009D01*
X337830Y191668D01*
X337830Y191668D01*
X338220Y191407D01*
X338681Y191315D01*
X352632D01*
X352739Y191059D01*
X353266Y190372D01*
X353952Y189845D01*
X354752Y189514D01*
X355610Y189401D01*
X356468Y189514D01*
X357268Y189845D01*
X357955Y190372D01*
X358482Y191059D01*
X358588Y191315D01*
X443012D01*
X443012Y191315D01*
X443473Y191407D01*
X443863Y191668D01*
X451541Y199345D01*
X451541Y199345D01*
X451802Y199736D01*
X451893Y200197D01*
X451893Y200197D01*
Y206596D01*
X452393Y206766D01*
X452830Y206196D01*
X453621Y205590D01*
X454543Y205208D01*
X455532Y205078D01*
X456520Y205208D01*
X457442Y205590D01*
X458233Y206196D01*
X458840Y206988D01*
X459221Y207909D01*
X459352Y208898D01*
X459221Y209887D01*
X458840Y210808D01*
X458233Y211599D01*
X457442Y212206D01*
X456520Y212588D01*
X455532Y212718D01*
X454543Y212588D01*
X453621Y212206D01*
X452830Y211599D01*
X452393Y211029D01*
X451893Y211199D01*
Y216596D01*
X452393Y216766D01*
X452830Y216196D01*
X453621Y215589D01*
X454543Y215208D01*
X455532Y215078D01*
X456520Y215208D01*
X457442Y215589D01*
X458233Y216196D01*
X458840Y216988D01*
X459221Y217909D01*
X459352Y218898D01*
X459221Y219886D01*
X458840Y220808D01*
X458233Y221599D01*
X457442Y222206D01*
X456520Y222588D01*
X455532Y222718D01*
X454543Y222588D01*
X453621Y222206D01*
X452830Y221599D01*
X452393Y221029D01*
X451893Y221199D01*
Y223123D01*
X463097Y234327D01*
X471744D01*
X471932Y233874D01*
X472459Y233187D01*
X473145Y232660D01*
X473945Y232329D01*
X474803Y232216D01*
X475661Y232329D01*
X476461Y232660D01*
X477148Y233187D01*
X477675Y233874D01*
X478006Y234673D01*
X478119Y235531D01*
X478006Y236390D01*
X477675Y237189D01*
X477148Y237876D01*
X476461Y238403D01*
X476037Y238579D01*
Y239120D01*
X476363Y239254D01*
X477049Y239781D01*
X477576Y240468D01*
X477908Y241268D01*
X478020Y242126D01*
X477908Y242984D01*
X477576Y243784D01*
X477049Y244471D01*
X476363Y244998D01*
X475563Y245329D01*
X474705Y245442D01*
X473847Y245329D01*
X473047Y244998D01*
X472360Y244471D01*
X471833Y243784D01*
X471523Y243035D01*
X460039D01*
X460039Y243035D01*
X459579Y242943D01*
X459188Y242682D01*
X459188Y242682D01*
X440093Y223588D01*
X439832Y223197D01*
X439741Y222736D01*
X439741Y222736D01*
Y219773D01*
X439241Y219740D01*
X439221Y219886D01*
X438840Y220808D01*
X438233Y221599D01*
X437441Y222206D01*
X436520Y222588D01*
X435532Y222718D01*
X434543Y222588D01*
X433622Y222206D01*
X432830Y221599D01*
X432223Y220808D01*
X431842Y219886D01*
X431711Y218898D01*
X431842Y217909D01*
X432223Y216988D01*
X432830Y216196D01*
X433622Y215589D01*
X434543Y215208D01*
X435532Y215078D01*
X436520Y215208D01*
X437441Y215589D01*
X438233Y216196D01*
X438840Y216988D01*
X439221Y217909D01*
X439241Y218055D01*
X439741Y218023D01*
Y209773D01*
X439241Y209740D01*
X439221Y209887D01*
X438840Y210808D01*
X438233Y211599D01*
X437441Y212206D01*
X436520Y212588D01*
X435532Y212718D01*
X434543Y212588D01*
X433622Y212206D01*
X432830Y211599D01*
X432223Y210808D01*
X431842Y209887D01*
X431711Y208898D01*
X431842Y207909D01*
X432223Y206988D01*
X432830Y206196D01*
X433622Y205590D01*
X434543Y205208D01*
X435532Y205078D01*
X436110Y205154D01*
X436343Y204680D01*
X432621Y200958D01*
X353966D01*
X353757Y201461D01*
X353231Y202148D01*
X352544Y202675D01*
X351744Y203006D01*
X350886Y203119D01*
X350028Y203006D01*
X349228Y202675D01*
X348541Y202148D01*
X348014Y201461D01*
X347806Y200958D01*
X340312D01*
X301344Y239926D01*
X300953Y240187D01*
X300492Y240279D01*
X300492Y240279D01*
X282881D01*
X280338Y242822D01*
Y270563D01*
X280792Y270750D01*
X281479Y271277D01*
X282005Y271964D01*
X282337Y272764D01*
X282450Y273622D01*
X282337Y274480D01*
X282005Y275280D01*
X281479Y275967D01*
X280792Y276494D01*
X279992Y276825D01*
X279134Y276938D01*
D02*
G37*
G36*
X365032Y208398D02*
X361563D01*
X361634Y207854D01*
X362037Y206880D01*
X362679Y206045D01*
X363514Y205404D01*
X364487Y205001D01*
X365032Y204929D01*
Y208398D01*
D02*
G37*
G36*
X405532Y212718D02*
X404543Y212588D01*
X403621Y212206D01*
X402830Y211599D01*
X402223Y210808D01*
X401842Y209887D01*
X401711Y208898D01*
X401842Y207909D01*
X402223Y206988D01*
X402830Y206196D01*
X403621Y205590D01*
X404543Y205208D01*
X405532Y205078D01*
X406520Y205208D01*
X407442Y205590D01*
X408233Y206196D01*
X408840Y206988D01*
X409221Y207909D01*
X409352Y208898D01*
X409221Y209887D01*
X408840Y210808D01*
X408233Y211599D01*
X407442Y212206D01*
X406520Y212588D01*
X405532Y212718D01*
D02*
G37*
G36*
X415531D02*
X414543Y212588D01*
X413622Y212206D01*
X412830Y211599D01*
X412223Y210808D01*
X411842Y209887D01*
X411711Y208898D01*
X411842Y207909D01*
X412223Y206988D01*
X412830Y206196D01*
X413622Y205590D01*
X414543Y205208D01*
X415531Y205078D01*
X416520Y205208D01*
X417442Y205590D01*
X418233Y206196D01*
X418840Y206988D01*
X419221Y207909D01*
X419352Y208898D01*
X419221Y209887D01*
X418840Y210808D01*
X418233Y211599D01*
X417442Y212206D01*
X416520Y212588D01*
X415531Y212718D01*
D02*
G37*
G36*
X385531D02*
X384543Y212588D01*
X383622Y212206D01*
X382830Y211599D01*
X382223Y210808D01*
X381842Y209887D01*
X381711Y208898D01*
X381842Y207909D01*
X382223Y206988D01*
X382830Y206196D01*
X383622Y205590D01*
X384543Y205208D01*
X385531Y205078D01*
X386520Y205208D01*
X387441Y205590D01*
X388233Y206196D01*
X388840Y206988D01*
X389221Y207909D01*
X389352Y208898D01*
X389221Y209887D01*
X388840Y210808D01*
X388233Y211599D01*
X387441Y212206D01*
X386520Y212588D01*
X385531Y212718D01*
D02*
G37*
G36*
X395532D02*
X394543Y212588D01*
X393621Y212206D01*
X392830Y211599D01*
X392223Y210808D01*
X391842Y209887D01*
X391711Y208898D01*
X391842Y207909D01*
X392223Y206988D01*
X392830Y206196D01*
X393621Y205590D01*
X394543Y205208D01*
X395532Y205078D01*
X396520Y205208D01*
X397442Y205590D01*
X398233Y206196D01*
X398840Y206988D01*
X399221Y207909D01*
X399352Y208898D01*
X399221Y209887D01*
X398840Y210808D01*
X398233Y211599D01*
X397442Y212206D01*
X396520Y212588D01*
X395532Y212718D01*
D02*
G37*
G36*
X204823Y230654D02*
X202145Y230479D01*
X199513Y229955D01*
X196972Y229093D01*
X194565Y227906D01*
X192333Y226415D01*
X190316Y224645D01*
X188546Y222627D01*
X187055Y220396D01*
X185868Y217989D01*
X185006Y215448D01*
X184482Y212816D01*
X184307Y210138D01*
X184482Y207460D01*
X185006Y204828D01*
X185868Y202287D01*
X187055Y199880D01*
X188546Y197648D01*
X190316Y195631D01*
X192333Y193861D01*
X194565Y192370D01*
X196972Y191183D01*
X199513Y190321D01*
X202145Y189797D01*
X204823Y189621D01*
X207501Y189797D01*
X210133Y190321D01*
X212674Y191183D01*
X215081Y192370D01*
X217312Y193861D01*
X219330Y195631D01*
X221100Y197648D01*
X222590Y199880D01*
X223778Y202287D01*
X224640Y204828D01*
X225164Y207460D01*
X225339Y210138D01*
X225164Y212816D01*
X224640Y215448D01*
X223778Y217989D01*
X222590Y220396D01*
X221100Y222627D01*
X219330Y224645D01*
X217312Y226415D01*
X215081Y227906D01*
X212674Y229093D01*
X210133Y229955D01*
X207501Y230479D01*
X204823Y230654D01*
D02*
G37*
G36*
X169291Y171095D02*
X167979Y170966D01*
X166718Y170583D01*
X165555Y169962D01*
X164536Y169125D01*
X163699Y168106D01*
X163078Y166944D01*
X162695Y165682D01*
X162566Y164370D01*
X162695Y163058D01*
X163078Y161796D01*
X163699Y160634D01*
X164536Y159615D01*
X165555Y158778D01*
X166718Y158157D01*
X167979Y157774D01*
X169291Y157645D01*
X170603Y157774D01*
X171865Y158157D01*
X173028Y158778D01*
X174047Y159615D01*
X174883Y160634D01*
X175505Y161796D01*
X175887Y163058D01*
X176017Y164370D01*
X175887Y165682D01*
X175505Y166944D01*
X174883Y168106D01*
X174047Y169125D01*
X173028Y169962D01*
X171865Y170583D01*
X170603Y170966D01*
X169291Y171095D01*
D02*
G37*
G36*
X540453D02*
X539141Y170966D01*
X537879Y170583D01*
X536717Y169962D01*
X535697Y169125D01*
X534861Y168106D01*
X534240Y166944D01*
X533857Y165682D01*
X533728Y164370D01*
X533857Y163058D01*
X534240Y161796D01*
X534861Y160634D01*
X535697Y159615D01*
X536717Y158778D01*
X537879Y158157D01*
X539141Y157774D01*
X540453Y157645D01*
X541765Y157774D01*
X543027Y158157D01*
X544189Y158778D01*
X545208Y159615D01*
X546045Y160634D01*
X546666Y161796D01*
X547049Y163058D01*
X547178Y164370D01*
X547049Y165682D01*
X546666Y166944D01*
X546045Y168106D01*
X545208Y169125D01*
X544189Y169962D01*
X543027Y170583D01*
X541765Y170966D01*
X540453Y171095D01*
D02*
G37*
G36*
X264173Y170603D02*
X262861Y170474D01*
X261600Y170091D01*
X260437Y169470D01*
X259418Y168633D01*
X258581Y167614D01*
X257960Y166452D01*
X257577Y165190D01*
X257448Y163878D01*
X257577Y162566D01*
X257960Y161304D01*
X258581Y160142D01*
X259418Y159123D01*
X260437Y158286D01*
X261600Y157665D01*
X262861Y157282D01*
X264173Y157153D01*
X265485Y157282D01*
X266747Y157665D01*
X267910Y158286D01*
X268929Y159123D01*
X269765Y160142D01*
X270387Y161304D01*
X270769Y162566D01*
X270899Y163878D01*
X270769Y165190D01*
X270387Y166452D01*
X269765Y167614D01*
X268929Y168633D01*
X267910Y169470D01*
X266747Y170091D01*
X265485Y170474D01*
X264173Y170603D01*
D02*
G37*
G36*
X395669D02*
X394357Y170474D01*
X393096Y170091D01*
X391933Y169470D01*
X390914Y168633D01*
X390077Y167614D01*
X389456Y166452D01*
X389073Y165190D01*
X388944Y163878D01*
X389073Y162566D01*
X389456Y161304D01*
X390077Y160142D01*
X390914Y159123D01*
X391933Y158286D01*
X393096Y157665D01*
X394357Y157282D01*
X395669Y157153D01*
X396981Y157282D01*
X398243Y157665D01*
X399406Y158286D01*
X400425Y159123D01*
X401261Y160142D01*
X401883Y161304D01*
X402265Y162566D01*
X402395Y163878D01*
X402265Y165190D01*
X401883Y166452D01*
X401261Y167614D01*
X400425Y168633D01*
X399406Y169470D01*
X398243Y170091D01*
X396981Y170474D01*
X395669Y170603D01*
D02*
G37*
G36*
X470177Y201307D02*
X467972Y201162D01*
X465312Y200633D01*
X462744Y199762D01*
X460313Y198563D01*
X458058Y197056D01*
X456019Y195268D01*
X454231Y193229D01*
X452725Y190975D01*
X451526Y188543D01*
X450654Y185976D01*
X450125Y183316D01*
X449980Y181110D01*
X470177D01*
Y201307D01*
D02*
G37*
G36*
X471177D02*
Y181110D01*
X491374D01*
X491229Y183316D01*
X490700Y185976D01*
X489829Y188543D01*
X488629Y190975D01*
X487123Y193229D01*
X485335Y195268D01*
X483296Y197056D01*
X481042Y198563D01*
X478610Y199762D01*
X476042Y200633D01*
X473383Y201162D01*
X471177Y201307D01*
D02*
G37*
G36*
X470177Y180110D02*
X449980D01*
X450125Y177904D01*
X450654Y175245D01*
X451526Y172678D01*
X452725Y170246D01*
X454231Y167991D01*
X456019Y165952D01*
X458058Y164164D01*
X460313Y162658D01*
X462744Y161459D01*
X465312Y160587D01*
X467972Y160058D01*
X470177Y159914D01*
Y180110D01*
D02*
G37*
G36*
X491374D02*
X471177D01*
Y159914D01*
X473383Y160058D01*
X476042Y160587D01*
X478610Y161459D01*
X481042Y162658D01*
X483296Y164164D01*
X485335Y165952D01*
X487123Y167991D01*
X488629Y170246D01*
X489829Y172678D01*
X490700Y175245D01*
X491229Y177904D01*
X491374Y180110D01*
D02*
G37*
G36*
X365032Y218398D02*
X361563D01*
X361634Y217853D01*
X362037Y216880D01*
X362679Y216045D01*
X363514Y215404D01*
X364487Y215001D01*
X365032Y214929D01*
Y218398D01*
D02*
G37*
G36*
X369500D02*
X366032D01*
Y214929D01*
X366576Y215001D01*
X367549Y215404D01*
X368384Y216045D01*
X369025Y216880D01*
X369428Y217853D01*
X369500Y218398D01*
D02*
G37*
G36*
X263673Y215878D02*
X260252D01*
X260322Y215346D01*
X260720Y214385D01*
X261354Y213559D01*
X262180Y212925D01*
X263141Y212527D01*
X263673Y212457D01*
Y215878D01*
D02*
G37*
G36*
X268094D02*
X264673D01*
Y212457D01*
X265205Y212527D01*
X266167Y212925D01*
X266992Y213559D01*
X267626Y214385D01*
X268024Y215346D01*
X268094Y215878D01*
D02*
G37*
G36*
X395532Y222718D02*
X394543Y222588D01*
X393621Y222206D01*
X392830Y221599D01*
X392223Y220808D01*
X391842Y219886D01*
X391711Y218898D01*
X391842Y217909D01*
X392223Y216988D01*
X392830Y216196D01*
X393621Y215589D01*
X394543Y215208D01*
X395532Y215078D01*
X396520Y215208D01*
X397442Y215589D01*
X398233Y216196D01*
X398840Y216988D01*
X399221Y217909D01*
X399352Y218898D01*
X399221Y219886D01*
X398840Y220808D01*
X398233Y221599D01*
X397442Y222206D01*
X396520Y222588D01*
X395532Y222718D01*
D02*
G37*
G36*
X405532D02*
X404543Y222588D01*
X403621Y222206D01*
X402830Y221599D01*
X402223Y220808D01*
X401842Y219886D01*
X401711Y218898D01*
X401842Y217909D01*
X402223Y216988D01*
X402830Y216196D01*
X403621Y215589D01*
X404543Y215208D01*
X405532Y215078D01*
X406520Y215208D01*
X407442Y215589D01*
X408233Y216196D01*
X408840Y216988D01*
X409221Y217909D01*
X409352Y218898D01*
X409221Y219886D01*
X408840Y220808D01*
X408233Y221599D01*
X407442Y222206D01*
X406520Y222588D01*
X405532Y222718D01*
D02*
G37*
G36*
X375532D02*
X374543Y222588D01*
X373622Y222206D01*
X372830Y221599D01*
X372223Y220808D01*
X371842Y219886D01*
X371711Y218898D01*
X371842Y217909D01*
X372223Y216988D01*
X372830Y216196D01*
X373622Y215589D01*
X374543Y215208D01*
X375532Y215078D01*
X376520Y215208D01*
X377442Y215589D01*
X378233Y216196D01*
X378840Y216988D01*
X379221Y217909D01*
X379352Y218898D01*
X379221Y219886D01*
X378840Y220808D01*
X378233Y221599D01*
X377442Y222206D01*
X376520Y222588D01*
X375532Y222718D01*
D02*
G37*
G36*
X385531D02*
X384543Y222588D01*
X383622Y222206D01*
X382830Y221599D01*
X382223Y220808D01*
X381842Y219886D01*
X381711Y218898D01*
X381842Y217909D01*
X382223Y216988D01*
X382830Y216196D01*
X383622Y215589D01*
X384543Y215208D01*
X385531Y215078D01*
X386520Y215208D01*
X387441Y215589D01*
X388233Y216196D01*
X388840Y216988D01*
X389221Y217909D01*
X389352Y218898D01*
X389221Y219886D01*
X388840Y220808D01*
X388233Y221599D01*
X387441Y222206D01*
X386520Y222588D01*
X385531Y222718D01*
D02*
G37*
G36*
X366032Y212866D02*
Y209398D01*
X369500D01*
X369428Y209942D01*
X369025Y210915D01*
X368384Y211751D01*
X367549Y212392D01*
X366576Y212795D01*
X366032Y212866D01*
D02*
G37*
G36*
X475531Y212718D02*
X474543Y212588D01*
X473622Y212206D01*
X472830Y211599D01*
X472223Y210808D01*
X471842Y209887D01*
X471711Y208898D01*
X471842Y207909D01*
X472223Y206988D01*
X472830Y206196D01*
X473622Y205590D01*
X474543Y205208D01*
X475531Y205078D01*
X476520Y205208D01*
X477442Y205590D01*
X478233Y206196D01*
X478840Y206988D01*
X479221Y207909D01*
X479352Y208898D01*
X479221Y209887D01*
X478840Y210808D01*
X478233Y211599D01*
X477442Y212206D01*
X476520Y212588D01*
X475531Y212718D01*
D02*
G37*
G36*
X485532D02*
X484543Y212588D01*
X483622Y212206D01*
X482830Y211599D01*
X482223Y210808D01*
X481842Y209887D01*
X481711Y208898D01*
X481842Y207909D01*
X482223Y206988D01*
X482830Y206196D01*
X483622Y205590D01*
X484543Y205208D01*
X485532Y205078D01*
X486520Y205208D01*
X487441Y205590D01*
X488233Y206196D01*
X488840Y206988D01*
X489221Y207909D01*
X489352Y208898D01*
X489221Y209887D01*
X488840Y210808D01*
X488233Y211599D01*
X487441Y212206D01*
X486520Y212588D01*
X485532Y212718D01*
D02*
G37*
G36*
X425531D02*
X424543Y212588D01*
X423622Y212206D01*
X422830Y211599D01*
X422223Y210808D01*
X421842Y209887D01*
X421711Y208898D01*
X421842Y207909D01*
X422223Y206988D01*
X422830Y206196D01*
X423622Y205590D01*
X424543Y205208D01*
X425531Y205078D01*
X426520Y205208D01*
X427442Y205590D01*
X428233Y206196D01*
X428840Y206988D01*
X429221Y207909D01*
X429352Y208898D01*
X429221Y209887D01*
X428840Y210808D01*
X428233Y211599D01*
X427442Y212206D01*
X426520Y212588D01*
X425531Y212718D01*
D02*
G37*
G36*
X465531D02*
X464543Y212588D01*
X463622Y212206D01*
X462830Y211599D01*
X462223Y210808D01*
X461842Y209887D01*
X461711Y208898D01*
X461842Y207909D01*
X462223Y206988D01*
X462830Y206196D01*
X463622Y205590D01*
X464543Y205208D01*
X465531Y205078D01*
X466520Y205208D01*
X467442Y205590D01*
X468233Y206196D01*
X468840Y206988D01*
X469221Y207909D01*
X469352Y208898D01*
X469221Y209887D01*
X468840Y210808D01*
X468233Y211599D01*
X467442Y212206D01*
X466520Y212588D01*
X465531Y212718D01*
D02*
G37*
G36*
X535532D02*
X534543Y212588D01*
X533622Y212206D01*
X532830Y211599D01*
X532223Y210808D01*
X531842Y209887D01*
X531711Y208898D01*
X531842Y207909D01*
X532223Y206988D01*
X532830Y206196D01*
X533622Y205590D01*
X534543Y205208D01*
X535532Y205078D01*
X536520Y205208D01*
X537441Y205590D01*
X538233Y206196D01*
X538840Y206988D01*
X539221Y207909D01*
X539352Y208898D01*
X539221Y209887D01*
X538840Y210808D01*
X538233Y211599D01*
X537441Y212206D01*
X536520Y212588D01*
X535532Y212718D01*
D02*
G37*
G36*
X365032Y212866D02*
X364487Y212795D01*
X363514Y212392D01*
X362679Y211751D01*
X362037Y210915D01*
X361634Y209942D01*
X361563Y209398D01*
X365032D01*
Y212866D01*
D02*
G37*
G36*
X515531Y212718D02*
X514543Y212588D01*
X513622Y212206D01*
X512830Y211599D01*
X512223Y210808D01*
X511842Y209887D01*
X511711Y208898D01*
X511842Y207909D01*
X512223Y206988D01*
X512830Y206196D01*
X513622Y205590D01*
X514543Y205208D01*
X515531Y205078D01*
X516520Y205208D01*
X517442Y205590D01*
X518233Y206196D01*
X518840Y206988D01*
X519221Y207909D01*
X519352Y208898D01*
X519221Y209887D01*
X518840Y210808D01*
X518233Y211599D01*
X517442Y212206D01*
X516520Y212588D01*
X515531Y212718D01*
D02*
G37*
G36*
X525531D02*
X524543Y212588D01*
X523622Y212206D01*
X522830Y211599D01*
X522223Y210808D01*
X521842Y209887D01*
X521711Y208898D01*
X521842Y207909D01*
X522223Y206988D01*
X522830Y206196D01*
X523622Y205590D01*
X524543Y205208D01*
X525531Y205078D01*
X526520Y205208D01*
X527442Y205590D01*
X528233Y206196D01*
X528840Y206988D01*
X529221Y207909D01*
X529352Y208898D01*
X529221Y209887D01*
X528840Y210808D01*
X528233Y211599D01*
X527442Y212206D01*
X526520Y212588D01*
X525531Y212718D01*
D02*
G37*
G36*
X535532Y478683D02*
X534543Y478552D01*
X533622Y478171D01*
X532830Y477564D01*
X532223Y476772D01*
X531842Y475851D01*
X531711Y474862D01*
X531842Y473874D01*
X532223Y472952D01*
X532830Y472161D01*
X533622Y471554D01*
X534543Y471173D01*
X535532Y471042D01*
X536520Y471173D01*
X537441Y471554D01*
X538233Y472161D01*
X538840Y472952D01*
X539221Y473874D01*
X539352Y474862D01*
X539221Y475851D01*
X538840Y476772D01*
X538233Y477564D01*
X537441Y478171D01*
X536520Y478552D01*
X535532Y478683D01*
D02*
G37*
G36*
X345472Y482659D02*
X344484Y482528D01*
X343562Y482147D01*
X342771Y481540D01*
X342164Y480749D01*
X341782Y479827D01*
X341652Y478839D01*
X341782Y477850D01*
X342164Y476929D01*
X342771Y476137D01*
X343562Y475530D01*
X344484Y475149D01*
X345472Y475019D01*
X346461Y475149D01*
X347382Y475530D01*
X348174Y476137D01*
X348781Y476929D01*
X349162Y477850D01*
X349292Y478839D01*
X349162Y479827D01*
X348781Y480749D01*
X348174Y481540D01*
X347382Y482147D01*
X346461Y482528D01*
X345472Y482659D01*
D02*
G37*
G36*
X535532Y468682D02*
X534543Y468552D01*
X533622Y468171D01*
X532830Y467564D01*
X532223Y466772D01*
X531842Y465851D01*
X531711Y464862D01*
X531842Y463874D01*
X532223Y462952D01*
X532830Y462161D01*
X533622Y461554D01*
X534543Y461172D01*
X535532Y461042D01*
X536520Y461172D01*
X537441Y461554D01*
X538233Y462161D01*
X538840Y462952D01*
X539221Y463874D01*
X539352Y464862D01*
X539221Y465851D01*
X538840Y466772D01*
X538233Y467564D01*
X537441Y468171D01*
X536520Y468552D01*
X535532Y468682D01*
D02*
G37*
G36*
X345472Y472659D02*
X344484Y472529D01*
X343562Y472147D01*
X342771Y471540D01*
X342164Y470749D01*
X341782Y469827D01*
X341652Y468839D01*
X341782Y467850D01*
X342164Y466928D01*
X342771Y466137D01*
X343562Y465530D01*
X344484Y465149D01*
X345472Y465019D01*
X346461Y465149D01*
X347382Y465530D01*
X348174Y466137D01*
X348781Y466928D01*
X349162Y467850D01*
X349292Y468839D01*
X349162Y469827D01*
X348781Y470749D01*
X348174Y471540D01*
X347382Y472147D01*
X346461Y472529D01*
X345472Y472659D01*
D02*
G37*
G36*
X535532Y488683D02*
X534543Y488552D01*
X533622Y488171D01*
X532830Y487564D01*
X532223Y486772D01*
X531842Y485851D01*
X531711Y484862D01*
X531842Y483874D01*
X532223Y482952D01*
X532830Y482161D01*
X533622Y481554D01*
X534543Y481173D01*
X535532Y481042D01*
X536520Y481173D01*
X537441Y481554D01*
X538233Y482161D01*
X538840Y482952D01*
X539221Y483874D01*
X539352Y484862D01*
X539221Y485851D01*
X538840Y486772D01*
X538233Y487564D01*
X537441Y488171D01*
X536520Y488552D01*
X535532Y488683D01*
D02*
G37*
G36*
X221024Y491961D02*
X220047Y491833D01*
X219138Y491456D01*
X218356Y490857D01*
X217757Y490075D01*
X217380Y489165D01*
X217251Y488189D01*
X217380Y487213D01*
X217757Y486303D01*
X218356Y485522D01*
X219138Y484922D01*
X220047Y484545D01*
X221024Y484417D01*
X222000Y484545D01*
X222910Y484922D01*
X223691Y485522D01*
X224291Y486303D01*
X224668Y487213D01*
X224796Y488189D01*
X224668Y489165D01*
X224291Y490075D01*
X223691Y490857D01*
X222910Y491456D01*
X222000Y491833D01*
X221024Y491961D01*
D02*
G37*
G36*
X214764Y491929D02*
X207284D01*
Y484449D01*
X214764D01*
Y491929D01*
D02*
G37*
G36*
X230524Y487689D02*
X227103D01*
X227173Y487157D01*
X227571Y486196D01*
X228205Y485370D01*
X229030Y484736D01*
X229992Y484338D01*
X230524Y484268D01*
Y487689D01*
D02*
G37*
G36*
X234945D02*
X231524D01*
Y484268D01*
X232056Y484338D01*
X233017Y484736D01*
X233843Y485370D01*
X234476Y486196D01*
X234875Y487157D01*
X234945Y487689D01*
D02*
G37*
G36*
X535532Y438683D02*
X534543Y438552D01*
X533622Y438171D01*
X532830Y437564D01*
X532223Y436772D01*
X531842Y435851D01*
X531711Y434862D01*
X531842Y433874D01*
X532223Y432952D01*
X532830Y432161D01*
X533622Y431554D01*
X534543Y431173D01*
X535532Y431042D01*
X536520Y431173D01*
X537441Y431554D01*
X538233Y432161D01*
X538840Y432952D01*
X539221Y433874D01*
X539352Y434862D01*
X539221Y435851D01*
X538840Y436772D01*
X538233Y437564D01*
X537441Y438171D01*
X536520Y438552D01*
X535532Y438683D01*
D02*
G37*
G36*
X345472Y442659D02*
X344484Y442528D01*
X343562Y442147D01*
X342771Y441540D01*
X342164Y440749D01*
X341782Y439827D01*
X341652Y438839D01*
X341782Y437850D01*
X342164Y436929D01*
X342771Y436137D01*
X343562Y435530D01*
X344484Y435149D01*
X345472Y435018D01*
X346461Y435149D01*
X347382Y435530D01*
X348174Y436137D01*
X348781Y436929D01*
X349162Y437850D01*
X349292Y438839D01*
X349162Y439827D01*
X348781Y440749D01*
X348174Y441540D01*
X347382Y442147D01*
X346461Y442528D01*
X345472Y442659D01*
D02*
G37*
G36*
X535532Y428683D02*
X534543Y428552D01*
X533622Y428171D01*
X532830Y427564D01*
X532223Y426772D01*
X531842Y425851D01*
X531711Y424862D01*
X531842Y423874D01*
X532223Y422952D01*
X532830Y422161D01*
X533622Y421554D01*
X534543Y421173D01*
X535532Y421042D01*
X536520Y421173D01*
X537441Y421554D01*
X538233Y422161D01*
X538840Y422952D01*
X539221Y423874D01*
X539352Y424862D01*
X539221Y425851D01*
X538840Y426772D01*
X538233Y427564D01*
X537441Y428171D01*
X536520Y428552D01*
X535532Y428683D01*
D02*
G37*
G36*
X345472Y432659D02*
X344484Y432528D01*
X343562Y432147D01*
X342771Y431540D01*
X342164Y430749D01*
X341782Y429827D01*
X341652Y428839D01*
X341782Y427850D01*
X342164Y426929D01*
X342771Y426137D01*
X343562Y425530D01*
X344484Y425149D01*
X345472Y425019D01*
X346461Y425149D01*
X347382Y425530D01*
X348174Y426137D01*
X348781Y426929D01*
X349162Y427850D01*
X349292Y428839D01*
X349162Y429827D01*
X348781Y430749D01*
X348174Y431540D01*
X347382Y432147D01*
X346461Y432528D01*
X345472Y432659D01*
D02*
G37*
G36*
X535532Y448682D02*
X534543Y448552D01*
X533622Y448171D01*
X532830Y447564D01*
X532223Y446772D01*
X531842Y445851D01*
X531711Y444862D01*
X531842Y443874D01*
X532223Y442952D01*
X532830Y442161D01*
X533622Y441554D01*
X534543Y441173D01*
X535532Y441042D01*
X536520Y441173D01*
X537441Y441554D01*
X538233Y442161D01*
X538840Y442952D01*
X539221Y443874D01*
X539352Y444862D01*
X539221Y445851D01*
X538840Y446772D01*
X538233Y447564D01*
X537441Y448171D01*
X536520Y448552D01*
X535532Y448682D01*
D02*
G37*
G36*
Y458682D02*
X534543Y458552D01*
X533622Y458171D01*
X532830Y457564D01*
X532223Y456772D01*
X531842Y455851D01*
X531711Y454862D01*
X531842Y453874D01*
X532223Y452952D01*
X532830Y452161D01*
X533622Y451554D01*
X534543Y451172D01*
X535532Y451042D01*
X536520Y451172D01*
X537441Y451554D01*
X538233Y452161D01*
X538840Y452952D01*
X539221Y453874D01*
X539352Y454862D01*
X539221Y455851D01*
X538840Y456772D01*
X538233Y457564D01*
X537441Y458171D01*
X536520Y458552D01*
X535532Y458682D01*
D02*
G37*
G36*
X345472Y462659D02*
X344484Y462529D01*
X343562Y462147D01*
X342771Y461540D01*
X342164Y460749D01*
X341782Y459827D01*
X341652Y458839D01*
X341782Y457850D01*
X342164Y456928D01*
X342771Y456137D01*
X343562Y455530D01*
X344484Y455149D01*
X345472Y455019D01*
X346461Y455149D01*
X347382Y455530D01*
X348174Y456137D01*
X348781Y456928D01*
X349162Y457850D01*
X349292Y458839D01*
X349162Y459827D01*
X348781Y460749D01*
X348174Y461540D01*
X347382Y462147D01*
X346461Y462529D01*
X345472Y462659D01*
D02*
G37*
G36*
Y452659D02*
X344484Y452528D01*
X343562Y452147D01*
X342771Y451540D01*
X342164Y450749D01*
X341782Y449827D01*
X341652Y448839D01*
X341782Y447850D01*
X342164Y446929D01*
X342771Y446137D01*
X343562Y445530D01*
X344484Y445149D01*
X345472Y445018D01*
X346461Y445149D01*
X347382Y445530D01*
X348174Y446137D01*
X348781Y446929D01*
X349162Y447850D01*
X349292Y448839D01*
X349162Y449827D01*
X348781Y450749D01*
X348174Y451540D01*
X347382Y452147D01*
X346461Y452528D01*
X345472Y452659D01*
D02*
G37*
G36*
X194882Y480678D02*
X194024Y480565D01*
X193224Y480234D01*
X192537Y479707D01*
X192010Y479020D01*
X191679Y478220D01*
X191566Y477362D01*
X191679Y476504D01*
X192010Y475704D01*
X192537Y475018D01*
X193224Y474491D01*
X194024Y474159D01*
X194882Y474047D01*
X195740Y474159D01*
X196540Y474491D01*
X197227Y475018D01*
X197753Y475704D01*
X197941Y476158D01*
X220564D01*
X235705Y461017D01*
Y459186D01*
X234956Y458876D01*
X234269Y458349D01*
X233743Y457662D01*
X233411Y456862D01*
X233298Y456004D01*
X233411Y455146D01*
X233743Y454346D01*
X234269Y453659D01*
X234956Y453132D01*
X235410Y452945D01*
Y448273D01*
X235356Y448252D01*
X234910Y448190D01*
X234710Y448489D01*
X234710Y448489D01*
X217248Y465952D01*
Y466429D01*
X217701Y466617D01*
X218388Y467144D01*
X218915Y467830D01*
X219246Y468630D01*
X219359Y469488D01*
X219246Y470346D01*
X218915Y471146D01*
X218388Y471833D01*
X217701Y472360D01*
X216901Y472691D01*
X216043Y472804D01*
X215185Y472691D01*
X214385Y472360D01*
X213699Y471833D01*
X213172Y471146D01*
X212984Y470692D01*
X197392D01*
X197163Y471244D01*
X196636Y471931D01*
X195949Y472458D01*
X195150Y472789D01*
X194291Y472902D01*
X193433Y472789D01*
X192633Y472458D01*
X191947Y471931D01*
X191420Y471244D01*
X191089Y470445D01*
X190976Y469587D01*
X191089Y468728D01*
X191420Y467929D01*
X191947Y467242D01*
X192633Y466715D01*
X193433Y466384D01*
X194291Y466271D01*
X195150Y466384D01*
X195949Y466715D01*
X196636Y467242D01*
X197163Y467929D01*
X197310Y468284D01*
X212984D01*
X213172Y467830D01*
X213699Y467144D01*
X214385Y466617D01*
X214839Y466429D01*
Y465453D01*
X214839Y465453D01*
X214931Y464992D01*
X215192Y464601D01*
X232425Y447368D01*
X232390Y447185D01*
X231850Y447019D01*
X221816Y457052D01*
X221425Y457313D01*
X220965Y457405D01*
X220965Y457405D01*
X214083D01*
X213895Y457859D01*
X213368Y458545D01*
X212682Y459072D01*
X211882Y459404D01*
X211024Y459517D01*
X210165Y459404D01*
X209366Y459072D01*
X208679Y458545D01*
X208152Y457859D01*
X207821Y457059D01*
X207708Y456201D01*
X207821Y455343D01*
X208152Y454543D01*
X208679Y453856D01*
X209366Y453329D01*
X210165Y452998D01*
X211024Y452885D01*
X211882Y452998D01*
X212682Y453329D01*
X213368Y453856D01*
X213895Y454543D01*
X214083Y454997D01*
X220466D01*
X230390Y445072D01*
Y393529D01*
X230133Y393423D01*
X229447Y392896D01*
X228920Y392209D01*
X228589Y391409D01*
X228475Y390551D01*
X228589Y389693D01*
X228920Y388893D01*
X229447Y388207D01*
X230133Y387680D01*
X230933Y387348D01*
X231791Y387235D01*
X232649Y387348D01*
X233449Y387680D01*
X234136Y388207D01*
X234663Y388893D01*
X234994Y389693D01*
X235107Y390551D01*
X234994Y391409D01*
X234663Y392209D01*
X234136Y392896D01*
X233449Y393423D01*
X232799Y393692D01*
Y397173D01*
X233299Y397380D01*
X235026Y395653D01*
X235085Y395205D01*
X235416Y394405D01*
X235943Y393718D01*
X236630Y393192D01*
X237429Y392860D01*
X238287Y392747D01*
X239146Y392860D01*
X239945Y393192D01*
X240632Y393718D01*
X241159Y394405D01*
X241490Y395205D01*
X241603Y396063D01*
X241490Y396921D01*
X241159Y397721D01*
X240632Y398408D01*
X239945Y398935D01*
X239146Y399266D01*
X238287Y399379D01*
X237429Y399266D01*
X236630Y398935D01*
X235943Y398408D01*
X235694Y398391D01*
X235063Y399023D01*
Y401859D01*
X235562Y402028D01*
X235746Y401789D01*
X236433Y401262D01*
X237232Y400931D01*
X238090Y400818D01*
X238949Y400931D01*
X239748Y401262D01*
X240435Y401789D01*
X240962Y402476D01*
X241293Y403276D01*
X241406Y404134D01*
X241293Y404992D01*
X240962Y405792D01*
X240435Y406479D01*
X239748Y407005D01*
X238949Y407337D01*
X238090Y407450D01*
X237818Y407688D01*
Y452945D01*
X238272Y453132D01*
X238959Y453659D01*
X239486Y454346D01*
X239817Y455146D01*
X239930Y456004D01*
X239817Y456862D01*
X239486Y457662D01*
X238959Y458349D01*
X238272Y458876D01*
X238114Y458941D01*
Y461516D01*
X238114Y461516D01*
X238022Y461977D01*
X237761Y462367D01*
X237761Y462367D01*
X221915Y478214D01*
X221524Y478475D01*
X221063Y478567D01*
X221063Y478567D01*
X197941D01*
X197753Y479020D01*
X197227Y479707D01*
X196540Y480234D01*
X195740Y480565D01*
X194882Y480678D01*
D02*
G37*
G36*
X299467Y508496D02*
X293473D01*
Y502502D01*
X294249Y502578D01*
X295477Y502951D01*
X296608Y503555D01*
X297599Y504369D01*
X298413Y505361D01*
X299018Y506492D01*
X299390Y507720D01*
X299467Y508496D01*
D02*
G37*
G36*
X535532Y518682D02*
X534543Y518552D01*
X533622Y518171D01*
X532830Y517564D01*
X532223Y516772D01*
X531842Y515851D01*
X531711Y514862D01*
X531842Y513874D01*
X532223Y512952D01*
X532830Y512161D01*
X533622Y511554D01*
X534543Y511172D01*
X535532Y511042D01*
X536520Y511172D01*
X537441Y511554D01*
X538233Y512161D01*
X538840Y512952D01*
X539221Y513874D01*
X539352Y514862D01*
X539221Y515851D01*
X538840Y516772D01*
X538233Y517564D01*
X537441Y518171D01*
X536520Y518552D01*
X535532Y518682D01*
D02*
G37*
G36*
Y508682D02*
X534543Y508552D01*
X533622Y508171D01*
X532830Y507564D01*
X532223Y506772D01*
X531842Y505851D01*
X531711Y504862D01*
X531842Y503874D01*
X532223Y502952D01*
X532830Y502161D01*
X533622Y501554D01*
X534543Y501172D01*
X535532Y501042D01*
X536520Y501172D01*
X537441Y501554D01*
X538233Y502161D01*
X538840Y502952D01*
X539221Y503874D01*
X539352Y504862D01*
X539221Y505851D01*
X538840Y506772D01*
X538233Y507564D01*
X537441Y508171D01*
X536520Y508552D01*
X535532Y508682D01*
D02*
G37*
G36*
X272473Y508496D02*
X266478D01*
X266555Y507720D01*
X266927Y506492D01*
X267532Y505361D01*
X268346Y504369D01*
X269337Y503555D01*
X270469Y502951D01*
X271696Y502578D01*
X272473Y502502D01*
Y508496D01*
D02*
G37*
G36*
X169291Y533694D02*
X167979Y533565D01*
X166718Y533182D01*
X165555Y532560D01*
X164536Y531724D01*
X163699Y530705D01*
X163078Y529542D01*
X162695Y528281D01*
X162566Y526968D01*
X162695Y525657D01*
X163078Y524395D01*
X163699Y523232D01*
X164536Y522213D01*
X165555Y521377D01*
X166718Y520755D01*
X167979Y520372D01*
X169291Y520243D01*
X170603Y520372D01*
X171865Y520755D01*
X173028Y521377D01*
X174047Y522213D01*
X174883Y523232D01*
X175505Y524395D01*
X175887Y525657D01*
X176017Y526968D01*
X175887Y528281D01*
X175505Y529542D01*
X174883Y530705D01*
X174047Y531724D01*
X173028Y532560D01*
X171865Y533182D01*
X170603Y533565D01*
X169291Y533694D01*
D02*
G37*
G36*
X272473Y535490D02*
X271696Y535414D01*
X270469Y535041D01*
X269337Y534437D01*
X268346Y533623D01*
X267532Y532631D01*
X266927Y531500D01*
X266555Y530273D01*
X266478Y529496D01*
X272473D01*
Y535490D01*
D02*
G37*
G36*
X293473D02*
Y529496D01*
X299467D01*
X299390Y530273D01*
X299018Y531500D01*
X298413Y532631D01*
X297599Y533623D01*
X296608Y534437D01*
X295477Y535041D01*
X294249Y535414D01*
X293473Y535490D01*
D02*
G37*
G36*
X540453Y533694D02*
X539141Y533565D01*
X537879Y533182D01*
X536717Y532560D01*
X535697Y531724D01*
X534861Y530705D01*
X534239Y529542D01*
X533857Y528281D01*
X533728Y526968D01*
X533857Y525657D01*
X534239Y524395D01*
X534861Y523232D01*
X535697Y522213D01*
X536717Y521377D01*
X537879Y520755D01*
X539141Y520372D01*
X540453Y520243D01*
X541765Y520372D01*
X543027Y520755D01*
X544189Y521377D01*
X545208Y522213D01*
X546045Y523232D01*
X546666Y524395D01*
X547049Y525657D01*
X547178Y526968D01*
X547049Y528281D01*
X546666Y529542D01*
X546045Y530705D01*
X545208Y531724D01*
X544189Y532560D01*
X543027Y533182D01*
X541765Y533565D01*
X540453Y533694D01*
D02*
G37*
G36*
X292473Y535490D02*
X291696Y535414D01*
X290469Y535041D01*
X289337Y534437D01*
X288346Y533623D01*
X287532Y532631D01*
X286927Y531500D01*
X286555Y530273D01*
X286446Y529162D01*
X286015Y528770D01*
X284979Y529084D01*
X282973Y529282D01*
X280966Y529084D01*
X279930Y528770D01*
X279500Y529162D01*
X279390Y530273D01*
X279018Y531500D01*
X278413Y532631D01*
X277599Y533623D01*
X276608Y534437D01*
X275477Y535041D01*
X274249Y535414D01*
X273473Y535490D01*
Y528996D01*
X272973D01*
Y528496D01*
X266478D01*
X266555Y527719D01*
X266927Y526492D01*
X267532Y525361D01*
X268346Y524369D01*
X269337Y523556D01*
X270469Y522951D01*
X271696Y522578D01*
X272807Y522469D01*
X273199Y522039D01*
X272884Y521003D01*
X272687Y518996D01*
X272884Y516989D01*
X273199Y515953D01*
X272807Y515523D01*
X271696Y515414D01*
X270469Y515041D01*
X269337Y514437D01*
X268346Y513623D01*
X267532Y512631D01*
X266927Y511500D01*
X266555Y510273D01*
X266478Y509496D01*
X272973D01*
Y508996D01*
X273473D01*
Y502502D01*
X274249Y502578D01*
X275477Y502951D01*
X276608Y503555D01*
X277599Y504369D01*
X278413Y505361D01*
X279018Y506492D01*
X279390Y507720D01*
X279500Y508830D01*
X279930Y509222D01*
X280966Y508908D01*
X282973Y508710D01*
X284979Y508908D01*
X286015Y509222D01*
X286446Y508830D01*
X286555Y507720D01*
X286927Y506492D01*
X287532Y505361D01*
X288346Y504369D01*
X289337Y503555D01*
X290469Y502951D01*
X291696Y502578D01*
X292473Y502502D01*
Y508996D01*
X292973D01*
Y509496D01*
X299467D01*
X299390Y510273D01*
X299018Y511500D01*
X298413Y512631D01*
X297599Y513623D01*
X296608Y514437D01*
X295477Y515041D01*
X294249Y515414D01*
X293138Y515523D01*
X292746Y515953D01*
X293061Y516989D01*
X293258Y518996D01*
X293061Y521003D01*
X292746Y522039D01*
X293138Y522469D01*
X294249Y522578D01*
X295477Y522951D01*
X296608Y523556D01*
X297599Y524369D01*
X298413Y525361D01*
X299018Y526492D01*
X299390Y527719D01*
X299467Y528496D01*
X292973D01*
Y528996D01*
X292473D01*
Y535490D01*
D02*
G37*
G36*
X535532Y498682D02*
X534543Y498552D01*
X533622Y498171D01*
X532830Y497564D01*
X532223Y496772D01*
X531842Y495851D01*
X531711Y494862D01*
X531842Y493874D01*
X532223Y492952D01*
X532830Y492161D01*
X533622Y491554D01*
X534543Y491173D01*
X535532Y491042D01*
X536520Y491173D01*
X537441Y491554D01*
X538233Y492161D01*
X538840Y492952D01*
X539221Y493874D01*
X539352Y494862D01*
X539221Y495851D01*
X538840Y496772D01*
X538233Y497564D01*
X537441Y498171D01*
X536520Y498552D01*
X535532Y498682D01*
D02*
G37*
G36*
X230524Y497689D02*
X227103D01*
X227173Y497157D01*
X227571Y496196D01*
X228205Y495370D01*
X229030Y494736D01*
X229992Y494338D01*
X230524Y494268D01*
Y497689D01*
D02*
G37*
G36*
Y492110D02*
X229992Y492040D01*
X229030Y491642D01*
X228205Y491008D01*
X227571Y490182D01*
X227173Y489221D01*
X227103Y488689D01*
X230524D01*
Y492110D01*
D02*
G37*
G36*
X231524D02*
Y488689D01*
X234945D01*
X234875Y489221D01*
X234476Y490182D01*
X233843Y491008D01*
X233017Y491642D01*
X232056Y492040D01*
X231524Y492110D01*
D02*
G37*
G36*
X234945Y497689D02*
X231524D01*
Y494268D01*
X232056Y494338D01*
X233017Y494736D01*
X233843Y495370D01*
X234476Y496196D01*
X234875Y497157D01*
X234945Y497689D01*
D02*
G37*
G36*
X230524Y502110D02*
X229992Y502040D01*
X229030Y501642D01*
X228205Y501008D01*
X227571Y500182D01*
X227173Y499221D01*
X227103Y498689D01*
X230524D01*
Y502110D01*
D02*
G37*
G36*
X231524D02*
Y498689D01*
X234945D01*
X234875Y499221D01*
X234476Y500182D01*
X233843Y501008D01*
X233017Y501642D01*
X232056Y502040D01*
X231524Y502110D01*
D02*
G37*
G36*
X211024Y501961D02*
X210047Y501833D01*
X209138Y501456D01*
X208356Y500856D01*
X207757Y500075D01*
X207380Y499165D01*
X207251Y498189D01*
X207380Y497213D01*
X207757Y496303D01*
X208356Y495521D01*
X209138Y494922D01*
X210047Y494545D01*
X211024Y494417D01*
X212000Y494545D01*
X212910Y494922D01*
X213691Y495521D01*
X214291Y496303D01*
X214668Y497213D01*
X214796Y498189D01*
X214668Y499165D01*
X214291Y500075D01*
X213691Y500856D01*
X212910Y501456D01*
X212000Y501833D01*
X211024Y501961D01*
D02*
G37*
G36*
X221024D02*
X220047Y501833D01*
X219138Y501456D01*
X218356Y500856D01*
X217757Y500075D01*
X217380Y499165D01*
X217251Y498189D01*
X217380Y497213D01*
X217757Y496303D01*
X218356Y495521D01*
X219138Y494922D01*
X220047Y494545D01*
X221024Y494417D01*
X222000Y494545D01*
X222910Y494922D01*
X223691Y495521D01*
X224291Y496303D01*
X224668Y497213D01*
X224796Y498189D01*
X224668Y499165D01*
X224291Y500075D01*
X223691Y500856D01*
X222910Y501456D01*
X222000Y501833D01*
X221024Y501961D01*
D02*
G37*
G36*
X238283Y347520D02*
X237307Y347391D01*
X236397Y347014D01*
X235616Y346415D01*
X235016Y345634D01*
X234640Y344724D01*
X234511Y343747D01*
X234640Y342771D01*
X235016Y341861D01*
X235616Y341080D01*
X236397Y340480D01*
X237307Y340103D01*
X238283Y339975D01*
X239260Y340103D01*
X240170Y340480D01*
X240951Y341080D01*
X241550Y341861D01*
X241927Y342771D01*
X242056Y343747D01*
X241927Y344724D01*
X241550Y345634D01*
X240951Y346415D01*
X240170Y347014D01*
X239260Y347391D01*
X238283Y347520D01*
D02*
G37*
G36*
X248327Y367981D02*
X247469Y367868D01*
X246669Y367537D01*
X245982Y367010D01*
X245455Y366323D01*
X245124Y365524D01*
X245011Y364665D01*
X245124Y363807D01*
X245455Y363007D01*
X245982Y362321D01*
X246669Y361794D01*
X247079Y361624D01*
Y347297D01*
X246397Y347014D01*
X245616Y346415D01*
X245016Y345634D01*
X244639Y344724D01*
X244511Y343747D01*
X244639Y342771D01*
X245016Y341861D01*
X245616Y341080D01*
X246397Y340480D01*
X247307Y340103D01*
X248283Y339975D01*
X249260Y340103D01*
X250170Y340480D01*
X250951Y341080D01*
X251550Y341861D01*
X251927Y342771D01*
X252056Y343747D01*
X251927Y344724D01*
X251550Y345634D01*
X250951Y346415D01*
X250170Y347014D01*
X249488Y347297D01*
Y361588D01*
X249985Y361794D01*
X250671Y362321D01*
X251198Y363007D01*
X251530Y363807D01*
X251642Y364665D01*
X251530Y365524D01*
X251198Y366323D01*
X250671Y367010D01*
X249985Y367537D01*
X249185Y367868D01*
X248327Y367981D01*
D02*
G37*
G36*
X535532Y342678D02*
X534543Y342548D01*
X533622Y342167D01*
X532830Y341560D01*
X532223Y340769D01*
X531842Y339847D01*
X531711Y338858D01*
X531842Y337870D01*
X532223Y336948D01*
X532830Y336157D01*
X533622Y335550D01*
X534543Y335169D01*
X535532Y335038D01*
X536520Y335169D01*
X537441Y335550D01*
X538233Y336157D01*
X538840Y336948D01*
X539221Y337870D01*
X539352Y338858D01*
X539221Y339847D01*
X538840Y340769D01*
X538233Y341560D01*
X537441Y342167D01*
X536520Y342548D01*
X535532Y342678D01*
D02*
G37*
G36*
X345472Y342698D02*
X344484Y342568D01*
X343562Y342186D01*
X342771Y341579D01*
X342164Y340788D01*
X341782Y339867D01*
X341652Y338878D01*
X341782Y337889D01*
X342164Y336968D01*
X342771Y336177D01*
X343562Y335570D01*
X344484Y335188D01*
X345472Y335058D01*
X346461Y335188D01*
X347382Y335570D01*
X348174Y336177D01*
X348781Y336968D01*
X349162Y337889D01*
X349292Y338878D01*
X349162Y339867D01*
X348781Y340788D01*
X348174Y341579D01*
X347382Y342186D01*
X346461Y342568D01*
X345472Y342698D01*
D02*
G37*
G36*
X535532Y352678D02*
X534543Y352548D01*
X533622Y352167D01*
X532830Y351560D01*
X532223Y350768D01*
X531842Y349847D01*
X531711Y348858D01*
X531842Y347870D01*
X532223Y346948D01*
X532830Y346157D01*
X533622Y345550D01*
X534543Y345168D01*
X535532Y345038D01*
X536520Y345168D01*
X537441Y345550D01*
X538233Y346157D01*
X538840Y346948D01*
X539221Y347870D01*
X539352Y348858D01*
X539221Y349847D01*
X538840Y350768D01*
X538233Y351560D01*
X537441Y352167D01*
X536520Y352548D01*
X535532Y352678D01*
D02*
G37*
G36*
X345472Y352698D02*
X344484Y352568D01*
X343562Y352186D01*
X342771Y351579D01*
X342164Y350788D01*
X341782Y349867D01*
X341652Y348878D01*
X341782Y347889D01*
X342164Y346968D01*
X342771Y346177D01*
X343562Y345570D01*
X344484Y345188D01*
X345472Y345058D01*
X346461Y345188D01*
X347382Y345570D01*
X348174Y346177D01*
X348781Y346968D01*
X349162Y347889D01*
X349292Y348878D01*
X349162Y349867D01*
X348781Y350788D01*
X348174Y351579D01*
X347382Y352186D01*
X346461Y352568D01*
X345472Y352698D01*
D02*
G37*
G36*
X258184Y362463D02*
X257325Y362350D01*
X256526Y362019D01*
X255839Y361492D01*
X255312Y360805D01*
X254981Y360005D01*
X254868Y359147D01*
X254981Y358289D01*
X255312Y357489D01*
X255839Y356803D01*
X256526Y356276D01*
X257079Y356046D01*
Y347297D01*
X256397Y347014D01*
X255616Y346415D01*
X255016Y345634D01*
X254640Y344724D01*
X254511Y343747D01*
X254640Y342771D01*
X255016Y341861D01*
X255616Y341080D01*
X256397Y340480D01*
X257307Y340103D01*
X258283Y339975D01*
X259260Y340103D01*
X260170Y340480D01*
X260951Y341080D01*
X261550Y341861D01*
X261927Y342771D01*
X262056Y343747D01*
X261927Y344724D01*
X261550Y345634D01*
X260951Y346415D01*
X260170Y347014D01*
X259488Y347297D01*
Y356129D01*
X259841Y356276D01*
X260528Y356803D01*
X261055Y357489D01*
X261386Y358289D01*
X261499Y359147D01*
X261386Y360005D01*
X261055Y360805D01*
X260528Y361492D01*
X259841Y362019D01*
X259042Y362350D01*
X258184Y362463D01*
D02*
G37*
G36*
X272024Y347487D02*
X264543D01*
Y340007D01*
X272024D01*
Y347487D01*
D02*
G37*
G36*
X268283Y337520D02*
X267307Y337391D01*
X266397Y337014D01*
X265616Y336415D01*
X265016Y335633D01*
X264639Y334724D01*
X264511Y333747D01*
X264639Y332771D01*
X265016Y331861D01*
X265616Y331080D01*
X266397Y330480D01*
X267307Y330103D01*
X268283Y329975D01*
X269260Y330103D01*
X270170Y330480D01*
X270951Y331080D01*
X271550Y331861D01*
X271927Y332771D01*
X272056Y333747D01*
X271927Y334724D01*
X271550Y335633D01*
X270951Y336415D01*
X270170Y337014D01*
X269260Y337391D01*
X268283Y337520D01*
D02*
G37*
G36*
X345472Y322698D02*
X344484Y322568D01*
X343562Y322186D01*
X342771Y321579D01*
X342164Y320788D01*
X341782Y319867D01*
X341652Y318878D01*
X341782Y317889D01*
X342164Y316968D01*
X342771Y316177D01*
X343562Y315570D01*
X344484Y315188D01*
X345472Y315058D01*
X346461Y315188D01*
X347382Y315570D01*
X348174Y316177D01*
X348781Y316968D01*
X349162Y317889D01*
X349292Y318878D01*
X349162Y319867D01*
X348781Y320788D01*
X348174Y321579D01*
X347382Y322186D01*
X346461Y322568D01*
X345472Y322698D01*
D02*
G37*
G36*
X535532Y322718D02*
X534543Y322588D01*
X533622Y322206D01*
X532830Y321599D01*
X532223Y320808D01*
X531842Y319886D01*
X531711Y318898D01*
X531842Y317909D01*
X532223Y316988D01*
X532830Y316196D01*
X533622Y315589D01*
X534543Y315208D01*
X535532Y315078D01*
X536520Y315208D01*
X537441Y315589D01*
X538233Y316196D01*
X538840Y316988D01*
X539221Y317909D01*
X539352Y318898D01*
X539221Y319886D01*
X538840Y320808D01*
X538233Y321599D01*
X537441Y322206D01*
X536520Y322588D01*
X535532Y322718D01*
D02*
G37*
G36*
Y312718D02*
X534543Y312588D01*
X533622Y312206D01*
X532830Y311599D01*
X532223Y310808D01*
X531842Y309886D01*
X531711Y308898D01*
X531842Y307909D01*
X532223Y306988D01*
X532830Y306196D01*
X533622Y305589D01*
X534543Y305208D01*
X535532Y305078D01*
X536520Y305208D01*
X537441Y305589D01*
X538233Y306196D01*
X538840Y306988D01*
X539221Y307909D01*
X539352Y308898D01*
X539221Y309886D01*
X538840Y310808D01*
X538233Y311599D01*
X537441Y312206D01*
X536520Y312588D01*
X535532Y312718D01*
D02*
G37*
G36*
X231246Y321250D02*
X230387Y321137D01*
X229588Y320805D01*
X228901Y320279D01*
X228374Y319592D01*
X228043Y318792D01*
X227930Y317934D01*
X228043Y317076D01*
X228374Y316276D01*
X228901Y315589D01*
X229588Y315062D01*
X230387Y314731D01*
X231246Y314618D01*
X232104Y314731D01*
X232904Y315062D01*
X233590Y315589D01*
X234003Y316127D01*
X243298D01*
X247518Y311907D01*
X247430Y311234D01*
X247543Y310376D01*
X247874Y309576D01*
X248401Y308889D01*
X249088Y308362D01*
X249887Y308031D01*
X250746Y307918D01*
X251604Y308031D01*
X252404Y308362D01*
X253090Y308889D01*
X253617Y309576D01*
X253948Y310376D01*
X254062Y311234D01*
X253948Y312092D01*
X253617Y312892D01*
X253090Y313579D01*
X252404Y314105D01*
X251604Y314437D01*
X250746Y314550D01*
X250073Y314461D01*
X245623Y318911D01*
X245443Y319031D01*
X245323Y319211D01*
X244737Y319603D01*
X244046Y319740D01*
X234003D01*
X233590Y320279D01*
X232904Y320805D01*
X232104Y321137D01*
X231246Y321250D01*
D02*
G37*
G36*
X248283Y337520D02*
X247307Y337391D01*
X246397Y337014D01*
X245616Y336415D01*
X245016Y335633D01*
X244639Y334724D01*
X244511Y333747D01*
X244639Y332771D01*
X245016Y331861D01*
X245616Y331080D01*
X246397Y330480D01*
X247307Y330103D01*
X248283Y329975D01*
X249260Y330103D01*
X250170Y330480D01*
X250951Y331080D01*
X251550Y331861D01*
X251927Y332771D01*
X252056Y333747D01*
X251927Y334724D01*
X251550Y335633D01*
X250951Y336415D01*
X250170Y337014D01*
X249260Y337391D01*
X248283Y337520D01*
D02*
G37*
G36*
X258283D02*
X257307Y337391D01*
X256397Y337014D01*
X255616Y336415D01*
X255016Y335633D01*
X254640Y334724D01*
X254511Y333747D01*
X254640Y332771D01*
X255016Y331861D01*
X255616Y331080D01*
X256397Y330480D01*
X257307Y330103D01*
X258283Y329975D01*
X259260Y330103D01*
X260170Y330480D01*
X260951Y331080D01*
X261550Y331861D01*
X261927Y332771D01*
X262056Y333747D01*
X261927Y334724D01*
X261550Y335633D01*
X260951Y336415D01*
X260170Y337014D01*
X259260Y337391D01*
X258283Y337520D01*
D02*
G37*
G36*
X345472Y332698D02*
X344484Y332568D01*
X343562Y332186D01*
X342771Y331579D01*
X342164Y330788D01*
X341782Y329867D01*
X341652Y328878D01*
X341782Y327889D01*
X342164Y326968D01*
X342771Y326177D01*
X343562Y325570D01*
X344484Y325188D01*
X345472Y325058D01*
X346461Y325188D01*
X347382Y325570D01*
X348174Y326177D01*
X348781Y326968D01*
X349162Y327889D01*
X349292Y328878D01*
X349162Y329867D01*
X348781Y330788D01*
X348174Y331579D01*
X347382Y332186D01*
X346461Y332568D01*
X345472Y332698D01*
D02*
G37*
G36*
X238283Y337520D02*
X237307Y337391D01*
X236397Y337014D01*
X235616Y336415D01*
X235016Y335633D01*
X234640Y334724D01*
X234511Y333747D01*
X234640Y332771D01*
X235016Y331861D01*
X235616Y331080D01*
X236397Y330480D01*
X237307Y330103D01*
X238283Y329975D01*
X239260Y330103D01*
X240170Y330480D01*
X240951Y331080D01*
X241550Y331861D01*
X241927Y332771D01*
X242056Y333747D01*
X241927Y334724D01*
X241550Y335633D01*
X240951Y336415D01*
X240170Y337014D01*
X239260Y337391D01*
X238283Y337520D01*
D02*
G37*
G36*
X199736Y358201D02*
X193742D01*
X193819Y357424D01*
X194191Y356197D01*
X194796Y355066D01*
X195610Y354074D01*
X196601Y353260D01*
X197732Y352656D01*
X198960Y352283D01*
X199736Y352207D01*
Y358201D01*
D02*
G37*
G36*
X535532Y392678D02*
X534543Y392548D01*
X533622Y392167D01*
X532830Y391560D01*
X532223Y390769D01*
X531842Y389847D01*
X531711Y388858D01*
X531842Y387870D01*
X532223Y386948D01*
X532830Y386157D01*
X533622Y385550D01*
X534543Y385169D01*
X535532Y385038D01*
X536520Y385169D01*
X537441Y385550D01*
X538233Y386157D01*
X538840Y386948D01*
X539221Y387870D01*
X539352Y388858D01*
X539221Y389847D01*
X538840Y390769D01*
X538233Y391560D01*
X537441Y392167D01*
X536520Y392548D01*
X535532Y392678D01*
D02*
G37*
G36*
X345472Y392698D02*
X344484Y392568D01*
X343562Y392186D01*
X342771Y391579D01*
X342164Y390788D01*
X341782Y389867D01*
X341652Y388878D01*
X341782Y387889D01*
X342164Y386968D01*
X342771Y386177D01*
X343562Y385570D01*
X344484Y385188D01*
X345472Y385058D01*
X346461Y385188D01*
X347382Y385570D01*
X348174Y386177D01*
X348781Y386968D01*
X349162Y387889D01*
X349292Y388878D01*
X349162Y389867D01*
X348781Y390788D01*
X348174Y391579D01*
X347382Y392186D01*
X346461Y392568D01*
X345472Y392698D01*
D02*
G37*
G36*
X199736Y385195D02*
X198960Y385119D01*
X197732Y384746D01*
X196601Y384141D01*
X195610Y383328D01*
X194796Y382336D01*
X194191Y381205D01*
X193819Y379977D01*
X193742Y379201D01*
X199736D01*
Y385195D01*
D02*
G37*
G36*
X220736D02*
Y379201D01*
X226730D01*
X226654Y379977D01*
X226282Y381205D01*
X225677Y382336D01*
X224863Y383328D01*
X223872Y384141D01*
X222740Y384746D01*
X221513Y385119D01*
X220736Y385195D01*
D02*
G37*
G36*
X535532Y412678D02*
X534543Y412548D01*
X533622Y412167D01*
X532830Y411560D01*
X532223Y410769D01*
X531842Y409847D01*
X531711Y408858D01*
X531842Y407870D01*
X532223Y406948D01*
X532830Y406157D01*
X533622Y405550D01*
X534543Y405168D01*
X535532Y405038D01*
X536520Y405168D01*
X537441Y405550D01*
X538233Y406157D01*
X538840Y406948D01*
X539221Y407870D01*
X539352Y408858D01*
X539221Y409847D01*
X538840Y410769D01*
X538233Y411560D01*
X537441Y412167D01*
X536520Y412548D01*
X535532Y412678D01*
D02*
G37*
G36*
X345472Y422659D02*
X344484Y422529D01*
X343562Y422147D01*
X342771Y421540D01*
X342164Y420749D01*
X341782Y419827D01*
X341652Y418839D01*
X341782Y417850D01*
X342164Y416928D01*
X342771Y416137D01*
X343562Y415530D01*
X344484Y415149D01*
X345472Y415019D01*
X346461Y415149D01*
X347382Y415530D01*
X348174Y416137D01*
X348781Y416928D01*
X349162Y417850D01*
X349292Y418839D01*
X349162Y419827D01*
X348781Y420749D01*
X348174Y421540D01*
X347382Y422147D01*
X346461Y422529D01*
X345472Y422659D01*
D02*
G37*
G36*
X535532Y402678D02*
X534543Y402548D01*
X533622Y402167D01*
X532830Y401560D01*
X532223Y400769D01*
X531842Y399847D01*
X531711Y398858D01*
X531842Y397870D01*
X532223Y396948D01*
X532830Y396157D01*
X533622Y395550D01*
X534543Y395168D01*
X535532Y395038D01*
X536520Y395168D01*
X537441Y395550D01*
X538233Y396157D01*
X538840Y396948D01*
X539221Y397870D01*
X539352Y398858D01*
X539221Y399847D01*
X538840Y400769D01*
X538233Y401560D01*
X537441Y402167D01*
X536520Y402548D01*
X535532Y402678D01*
D02*
G37*
G36*
X345472Y412659D02*
X344484Y412529D01*
X343562Y412147D01*
X342771Y411540D01*
X342164Y410749D01*
X341782Y409827D01*
X341652Y408839D01*
X341782Y407850D01*
X342164Y406928D01*
X342771Y406137D01*
X343562Y405530D01*
X344484Y405149D01*
X345472Y405019D01*
X346461Y405149D01*
X347382Y405530D01*
X348174Y406137D01*
X348781Y406928D01*
X349162Y407850D01*
X349292Y408839D01*
X349162Y409827D01*
X348781Y410749D01*
X348174Y411540D01*
X347382Y412147D01*
X346461Y412529D01*
X345472Y412659D01*
D02*
G37*
G36*
X219736Y385195D02*
X218960Y385119D01*
X217732Y384746D01*
X216601Y384141D01*
X215610Y383328D01*
X214796Y382336D01*
X214191Y381205D01*
X213819Y379977D01*
X213709Y378867D01*
X213279Y378475D01*
X212243Y378789D01*
X210236Y378987D01*
X208230Y378789D01*
X207194Y378475D01*
X206763Y378867D01*
X206654Y379977D01*
X206282Y381205D01*
X205677Y382336D01*
X204863Y383328D01*
X203872Y384141D01*
X202740Y384746D01*
X201513Y385119D01*
X200736Y385195D01*
Y378701D01*
X200236D01*
Y378201D01*
X193742D01*
X193819Y377424D01*
X194191Y376197D01*
X194796Y375066D01*
X195610Y374074D01*
X196601Y373260D01*
X197732Y372656D01*
X198960Y372283D01*
X200071Y372174D01*
X200463Y371743D01*
X200148Y370708D01*
X199951Y368701D01*
X200148Y366694D01*
X200463Y365658D01*
X200071Y365228D01*
X198960Y365119D01*
X197732Y364746D01*
X196601Y364142D01*
X195610Y363328D01*
X194796Y362336D01*
X194191Y361205D01*
X193819Y359978D01*
X193742Y359201D01*
X200236D01*
Y358701D01*
X200736D01*
Y352207D01*
X201513Y352283D01*
X202740Y352656D01*
X203872Y353260D01*
X204863Y354074D01*
X205677Y355066D01*
X206282Y356197D01*
X206654Y357424D01*
X206763Y358535D01*
X207194Y358927D01*
X208230Y358613D01*
X210236Y358415D01*
X212243Y358613D01*
X213279Y358927D01*
X213709Y358535D01*
X213819Y357424D01*
X214191Y356197D01*
X214796Y355066D01*
X215610Y354074D01*
X216601Y353260D01*
X217732Y352656D01*
X218960Y352283D01*
X219736Y352207D01*
Y358701D01*
X220236D01*
Y359201D01*
X226730D01*
X226654Y359978D01*
X226282Y361205D01*
X225677Y362336D01*
X224863Y363328D01*
X223872Y364142D01*
X222740Y364746D01*
X221513Y365119D01*
X220402Y365228D01*
X220010Y365658D01*
X220324Y366694D01*
X220522Y368701D01*
X220324Y370708D01*
X220010Y371743D01*
X220402Y372174D01*
X221513Y372283D01*
X222740Y372656D01*
X223872Y373260D01*
X224863Y374074D01*
X225677Y375066D01*
X226282Y376197D01*
X226654Y377424D01*
X226730Y378201D01*
X220236D01*
Y378701D01*
X219736D01*
Y385195D01*
D02*
G37*
G36*
X345472Y362698D02*
X344484Y362568D01*
X343562Y362186D01*
X342771Y361579D01*
X342164Y360788D01*
X341782Y359867D01*
X341652Y358878D01*
X341782Y357889D01*
X342164Y356968D01*
X342771Y356177D01*
X343562Y355570D01*
X344484Y355188D01*
X345472Y355058D01*
X346461Y355188D01*
X347382Y355570D01*
X348174Y356177D01*
X348781Y356968D01*
X349162Y357889D01*
X349292Y358878D01*
X349162Y359867D01*
X348781Y360788D01*
X348174Y361579D01*
X347382Y362186D01*
X346461Y362568D01*
X345472Y362698D01*
D02*
G37*
G36*
X535532Y362679D02*
X534543Y362548D01*
X533622Y362167D01*
X532830Y361560D01*
X532223Y360769D01*
X531842Y359847D01*
X531711Y358858D01*
X531842Y357870D01*
X532223Y356948D01*
X532830Y356157D01*
X533622Y355550D01*
X534543Y355169D01*
X535532Y355038D01*
X536520Y355169D01*
X537441Y355550D01*
X538233Y356157D01*
X538840Y356948D01*
X539221Y357870D01*
X539352Y358858D01*
X539221Y359847D01*
X538840Y360769D01*
X538233Y361560D01*
X537441Y362167D01*
X536520Y362548D01*
X535532Y362679D01*
D02*
G37*
G36*
X226730Y358201D02*
X220736D01*
Y352207D01*
X221513Y352283D01*
X222740Y352656D01*
X223872Y353260D01*
X224863Y354074D01*
X225677Y355066D01*
X226282Y356197D01*
X226654Y357424D01*
X226730Y358201D01*
D02*
G37*
G36*
X535532Y372678D02*
X534543Y372548D01*
X533622Y372167D01*
X532830Y371560D01*
X532223Y370768D01*
X531842Y369847D01*
X531711Y368858D01*
X531842Y367870D01*
X532223Y366948D01*
X532830Y366157D01*
X533622Y365550D01*
X534543Y365168D01*
X535532Y365038D01*
X536520Y365168D01*
X537441Y365550D01*
X538233Y366157D01*
X538840Y366948D01*
X539221Y367870D01*
X539352Y368858D01*
X539221Y369847D01*
X538840Y370768D01*
X538233Y371560D01*
X537441Y372167D01*
X536520Y372548D01*
X535532Y372678D01*
D02*
G37*
G36*
X345472Y382698D02*
X344484Y382568D01*
X343562Y382186D01*
X342771Y381579D01*
X342164Y380788D01*
X341782Y379867D01*
X341652Y378878D01*
X341782Y377889D01*
X342164Y376968D01*
X342771Y376177D01*
X343562Y375570D01*
X344484Y375188D01*
X345472Y375058D01*
X346461Y375188D01*
X347382Y375570D01*
X348174Y376177D01*
X348781Y376968D01*
X349162Y377889D01*
X349292Y378878D01*
X349162Y379867D01*
X348781Y380788D01*
X348174Y381579D01*
X347382Y382186D01*
X346461Y382568D01*
X345472Y382698D01*
D02*
G37*
G36*
X535532Y382679D02*
X534543Y382548D01*
X533622Y382167D01*
X532830Y381560D01*
X532223Y380768D01*
X531842Y379847D01*
X531711Y378858D01*
X531842Y377870D01*
X532223Y376948D01*
X532830Y376157D01*
X533622Y375550D01*
X534543Y375168D01*
X535532Y375038D01*
X536520Y375168D01*
X537441Y375550D01*
X538233Y376157D01*
X538840Y376948D01*
X539221Y377870D01*
X539352Y378858D01*
X539221Y379847D01*
X538840Y380768D01*
X538233Y381560D01*
X537441Y382167D01*
X536520Y382548D01*
X535532Y382679D01*
D02*
G37*
G36*
X345472Y372698D02*
X344484Y372568D01*
X343562Y372186D01*
X342771Y371579D01*
X342164Y370788D01*
X341782Y369867D01*
X341652Y368878D01*
X341782Y367889D01*
X342164Y366968D01*
X342771Y366177D01*
X343562Y365570D01*
X344484Y365188D01*
X345472Y365058D01*
X346461Y365188D01*
X347382Y365570D01*
X348174Y366177D01*
X348781Y366968D01*
X349162Y367889D01*
X349292Y368878D01*
X349162Y369867D01*
X348781Y370788D01*
X348174Y371579D01*
X347382Y372186D01*
X346461Y372568D01*
X345472Y372698D01*
D02*
G37*
%LPD*%
G36*
X449485Y217238D02*
Y210557D01*
X448985Y210458D01*
X448840Y210808D01*
X448233Y211599D01*
X447441Y212206D01*
X446520Y212588D01*
X445532Y212718D01*
X444543Y212588D01*
X443621Y212206D01*
X442830Y211599D01*
X442649Y211363D01*
X442149Y211533D01*
Y216263D01*
X442649Y216433D01*
X442830Y216196D01*
X443621Y215589D01*
X444543Y215208D01*
X445532Y215078D01*
X446520Y215208D01*
X447441Y215589D01*
X448233Y216196D01*
X448840Y216988D01*
X448985Y217338D01*
X449485Y217238D01*
D02*
G37*
G36*
X471833Y240468D02*
X472360Y239781D01*
X473047Y239254D01*
X473470Y239079D01*
Y238538D01*
X473145Y238403D01*
X472459Y237876D01*
X471932Y237189D01*
X471744Y236736D01*
X462599D01*
X462598Y236736D01*
X462138Y236644D01*
X461747Y236383D01*
X449837Y224474D01*
X449576Y224083D01*
X449485Y223622D01*
X449485Y223622D01*
Y220557D01*
X448985Y220458D01*
X448840Y220808D01*
X448233Y221599D01*
X447441Y222206D01*
X446520Y222588D01*
X445532Y222718D01*
X444543Y222588D01*
X443621Y222206D01*
X442830Y221599D01*
X442649Y221363D01*
X442149Y221533D01*
Y222237D01*
X460538Y240627D01*
X471768D01*
X471833Y240468D01*
D02*
G37*
G36*
X980682Y159082D02*
X600027D01*
Y539737D01*
X980682D01*
Y159082D01*
D02*
G37*
%LPC*%
G36*
X904815Y362020D02*
X901346D01*
X901418Y361475D01*
X901821Y360502D01*
X902462Y359667D01*
X903298Y359026D01*
X904271Y358623D01*
X904815Y358551D01*
Y362020D01*
D02*
G37*
G36*
X812795Y361780D02*
X811937Y361667D01*
X811137Y361336D01*
X810451Y360809D01*
X809924Y360122D01*
X809593Y359323D01*
X809480Y358465D01*
X809593Y357606D01*
X809924Y356807D01*
X810451Y356120D01*
X811137Y355593D01*
X811937Y355262D01*
X812795Y355149D01*
X813653Y355262D01*
X814453Y355593D01*
X814573Y355685D01*
X818731D01*
X823352Y351063D01*
X823372Y350914D01*
X823703Y350114D01*
X824230Y349427D01*
X824917Y348900D01*
X825717Y348569D01*
X826575Y348456D01*
X827433Y348569D01*
X828233Y348900D01*
X828919Y349427D01*
X829446Y350114D01*
X829778Y350914D01*
X829891Y351772D01*
X829778Y352630D01*
X829446Y353430D01*
X828919Y354116D01*
X828233Y354643D01*
X827433Y354974D01*
X827283Y354994D01*
X821847Y360430D01*
X821272Y360872D01*
X820601Y361150D01*
X819882Y361244D01*
X814573D01*
X814453Y361336D01*
X813653Y361667D01*
X812795Y361780D01*
D02*
G37*
G36*
X904815Y366488D02*
X904271Y366417D01*
X903298Y366014D01*
X902462Y365372D01*
X901821Y364537D01*
X901418Y363564D01*
X901346Y363020D01*
X904815D01*
Y366488D01*
D02*
G37*
G36*
X909284Y362020D02*
X905815D01*
Y358551D01*
X906359Y358623D01*
X907332Y359026D01*
X908168Y359667D01*
X908809Y360502D01*
X909212Y361475D01*
X909284Y362020D01*
D02*
G37*
G36*
X704528Y339019D02*
X703683Y338851D01*
X703334Y338617D01*
X645485D01*
X645136Y338851D01*
X644291Y339019D01*
X643446Y338851D01*
X642730Y338372D01*
X642252Y337656D01*
X642084Y336811D01*
X642252Y335966D01*
X642730Y335250D01*
X643446Y334771D01*
X644291Y334603D01*
X645136Y334771D01*
X645485Y335005D01*
X672188D01*
X672357Y334505D01*
X672262Y334431D01*
X671735Y333745D01*
X671404Y332945D01*
X671290Y332087D01*
X671404Y331228D01*
X671735Y330429D01*
X671827Y330309D01*
Y318707D01*
X671735Y318587D01*
X671404Y317787D01*
X671290Y316929D01*
X671404Y316071D01*
X671735Y315271D01*
X672262Y314584D01*
X672948Y314058D01*
X673748Y313726D01*
X674606Y313613D01*
X675464Y313726D01*
X676264Y314058D01*
X676951Y314584D01*
X677478Y315271D01*
X677809Y316071D01*
X677922Y316929D01*
X677809Y317787D01*
X677478Y318587D01*
X677386Y318707D01*
Y330309D01*
X677478Y330429D01*
X677809Y331228D01*
X677922Y332087D01*
X677809Y332945D01*
X677478Y333745D01*
X676951Y334431D01*
X676855Y334505D01*
X677025Y335005D01*
X703334D01*
X703683Y334771D01*
X704528Y334603D01*
X705372Y334771D01*
X706089Y335250D01*
X706567Y335966D01*
X706735Y336811D01*
X706567Y337656D01*
X706089Y338372D01*
X705372Y338851D01*
X704528Y339019D01*
D02*
G37*
G36*
X694291Y333901D02*
X693446Y333733D01*
X692730Y333254D01*
X692252Y332538D01*
X692094Y331746D01*
X689820Y329471D01*
X689535Y329046D01*
X689435Y328543D01*
Y287598D01*
X689535Y287096D01*
X689820Y286670D01*
X695725Y280765D01*
X696151Y280480D01*
X696654Y280380D01*
X708708D01*
X709545Y279543D01*
X709497Y279400D01*
X709330Y279051D01*
X708749Y278810D01*
X708214Y278400D01*
X707804Y277865D01*
X707546Y277243D01*
X707458Y276575D01*
Y274775D01*
X704272Y271589D01*
X703669Y271510D01*
X702870Y271179D01*
X702183Y270652D01*
X701656Y269965D01*
X701325Y269165D01*
X701324Y269163D01*
X700790Y268931D01*
X700722Y268979D01*
Y274848D01*
X700971Y275014D01*
X701449Y275730D01*
X701617Y276575D01*
X701449Y277420D01*
X700971Y278136D01*
X700254Y278614D01*
X699409Y278783D01*
X698565Y278614D01*
X697848Y278136D01*
X697370Y277420D01*
X697202Y276575D01*
X697370Y275730D01*
X697848Y275014D01*
X698097Y274848D01*
Y267913D01*
X698197Y267411D01*
X698481Y266985D01*
X702418Y263048D01*
X702844Y262764D01*
X703346Y262664D01*
X711221D01*
X711723Y262764D01*
X712149Y263048D01*
X718501Y269401D01*
X718980Y269256D01*
X719023Y269037D01*
X719502Y268321D01*
X720218Y267842D01*
X721063Y267674D01*
X721908Y267842D01*
X722624Y268321D01*
X723103Y269037D01*
X723271Y269882D01*
X723212Y270175D01*
X727415Y274377D01*
X728207Y274535D01*
X728923Y275014D01*
X729402Y275730D01*
X729570Y276575D01*
X729402Y277420D01*
X728923Y278136D01*
X728207Y278614D01*
X727362Y278783D01*
X726664Y278644D01*
X726414Y279101D01*
X727109Y279796D01*
X727280Y280051D01*
X727394Y280222D01*
X727494Y280724D01*
Y295320D01*
X727742Y295486D01*
X728221Y296202D01*
X728389Y297047D01*
X728221Y297892D01*
X727742Y298608D01*
X727026Y299087D01*
X726181Y299255D01*
X725336Y299087D01*
X724620Y298608D01*
X724141Y297892D01*
X723973Y297047D01*
X724141Y296202D01*
X724620Y295486D01*
X724868Y295320D01*
Y281268D01*
X722785Y279184D01*
X722500Y278758D01*
X722400Y278256D01*
Y277012D01*
X710677Y265289D01*
X706816D01*
X706646Y265789D01*
X706872Y265963D01*
X707399Y266649D01*
X707544Y266999D01*
X712005Y271460D01*
X712447Y272035D01*
X712724Y272706D01*
X712819Y273425D01*
X712724Y274145D01*
X712689Y274229D01*
X713093Y274561D01*
X713132Y274535D01*
X713976Y274367D01*
X714821Y274535D01*
X715538Y275014D01*
X716016Y275730D01*
X716184Y276575D01*
X716016Y277420D01*
X715538Y278136D01*
X714821Y278614D01*
X714029Y278772D01*
X710180Y282621D01*
X709754Y282906D01*
X709252Y283005D01*
X697197D01*
X692061Y288142D01*
Y303462D01*
X692561Y303614D01*
X692730Y303360D01*
X693446Y302882D01*
X694291Y302713D01*
X695136Y302882D01*
X695853Y303360D01*
X695948Y303502D01*
X742458D01*
X742624Y303254D01*
X743340Y302775D01*
X744185Y302607D01*
X745030Y302775D01*
X745746Y303254D01*
X746225Y303970D01*
X746393Y304815D01*
X746225Y305660D01*
X745746Y306376D01*
X745030Y306855D01*
X744185Y307023D01*
X743340Y306855D01*
X742624Y306376D01*
X742458Y306128D01*
X696090D01*
X695853Y306482D01*
X695136Y306961D01*
X694291Y307129D01*
X693446Y306961D01*
X692730Y306482D01*
X692561Y306229D01*
X692061Y306380D01*
Y328000D01*
X693670Y329609D01*
X694291Y329485D01*
X695136Y329653D01*
X695853Y330132D01*
X696331Y330848D01*
X696499Y331693D01*
X696331Y332538D01*
X695853Y333254D01*
X695136Y333733D01*
X694291Y333901D01*
D02*
G37*
G36*
X905815Y332040D02*
Y328571D01*
X909284D01*
X909212Y329115D01*
X908809Y330088D01*
X908168Y330924D01*
X907332Y331565D01*
X906359Y331968D01*
X905815Y332040D01*
D02*
G37*
G36*
X915315Y341891D02*
X914326Y341761D01*
X913405Y341379D01*
X912614Y340772D01*
X912007Y339981D01*
X911625Y339060D01*
X911495Y338071D01*
X911625Y337082D01*
X912007Y336161D01*
X912614Y335370D01*
X913405Y334763D01*
X914326Y334381D01*
X915315Y334251D01*
X916304Y334381D01*
X917225Y334763D01*
X918016Y335370D01*
X918623Y336161D01*
X919005Y337082D01*
X919135Y338071D01*
X919005Y339060D01*
X918623Y339981D01*
X918016Y340772D01*
X917225Y341379D01*
X916304Y341761D01*
X915315Y341891D01*
D02*
G37*
G36*
X895315D02*
X894326Y341761D01*
X893405Y341379D01*
X892614Y340772D01*
X892007Y339981D01*
X891625Y339060D01*
X891495Y338071D01*
X891625Y337082D01*
X892007Y336161D01*
X892614Y335370D01*
X893405Y334763D01*
X894326Y334381D01*
X895315Y334251D01*
X896304Y334381D01*
X897225Y334763D01*
X898016Y335370D01*
X898623Y336161D01*
X899005Y337082D01*
X899135Y338071D01*
X899005Y339060D01*
X898623Y339981D01*
X898016Y340772D01*
X897225Y341379D01*
X896304Y341761D01*
X895315Y341891D01*
D02*
G37*
G36*
X905815Y366488D02*
Y363020D01*
X909284D01*
X909212Y363564D01*
X908809Y364537D01*
X908168Y365372D01*
X907332Y366014D01*
X906359Y366417D01*
X905815Y366488D01*
D02*
G37*
G36*
X717913Y537838D02*
X717068Y537670D01*
X716352Y537191D01*
X715874Y536475D01*
X715706Y535630D01*
X715874Y534785D01*
X716352Y534069D01*
X716606Y533899D01*
X716454Y533399D01*
X701541D01*
X701042Y533733D01*
X700197Y533901D01*
X699352Y533733D01*
X698636Y533254D01*
X698470Y533006D01*
X674606D01*
X674104Y532906D01*
X673678Y532621D01*
X666198Y525141D01*
X665913Y524715D01*
X665813Y524213D01*
Y423548D01*
X665313Y423378D01*
X665140Y423604D01*
X664453Y424131D01*
X663654Y424463D01*
X662795Y424576D01*
X661937Y424463D01*
X661137Y424131D01*
X660451Y423604D01*
X659924Y422918D01*
X659592Y422118D01*
X659480Y421260D01*
X659592Y420402D01*
X659924Y419602D01*
X660016Y419482D01*
Y418282D01*
X659516Y418232D01*
X659384Y418893D01*
X658522Y421434D01*
X657335Y423841D01*
X655844Y426072D01*
X654074Y428090D01*
X652057Y429859D01*
X649825Y431350D01*
X647418Y432537D01*
X644877Y433400D01*
X642245Y433923D01*
X639567Y434099D01*
X636889Y433923D01*
X634257Y433400D01*
X631716Y432537D01*
X629309Y431350D01*
X627077Y429859D01*
X625060Y428090D01*
X623290Y426072D01*
X621799Y423841D01*
X620612Y421434D01*
X619750Y418893D01*
X619226Y416261D01*
X619051Y413583D01*
X619226Y410905D01*
X619750Y408273D01*
X620612Y405731D01*
X621799Y403325D01*
X623290Y401093D01*
X625060Y399075D01*
X627077Y397306D01*
X629309Y395815D01*
X631716Y394628D01*
X634257Y393765D01*
X636889Y393242D01*
X639567Y393066D01*
X642245Y393242D01*
X644877Y393765D01*
X647418Y394628D01*
X649825Y395815D01*
X652057Y397306D01*
X654074Y399075D01*
X655844Y401093D01*
X657335Y403325D01*
X658522Y405731D01*
X659384Y408273D01*
X659516Y408933D01*
X660016Y408884D01*
Y389376D01*
X659924Y389256D01*
X659592Y388457D01*
X659480Y387598D01*
X659592Y386740D01*
X659924Y385941D01*
X660451Y385254D01*
X660677Y385080D01*
X660507Y384580D01*
X654921D01*
X654419Y384480D01*
X653993Y384196D01*
X637851Y368054D01*
X637567Y367628D01*
X637467Y367126D01*
Y222638D01*
X637567Y222135D01*
X637851Y221710D01*
X647654Y211907D01*
X647595Y211614D01*
X647763Y210769D01*
X648242Y210053D01*
X648958Y209575D01*
X649803Y209406D01*
X650648Y209575D01*
X651364Y210053D01*
X651843Y210769D01*
X652011Y211614D01*
X651843Y212459D01*
X651364Y213175D01*
X650648Y213654D01*
X649803Y213822D01*
X649510Y213764D01*
X640092Y223182D01*
Y366582D01*
X653520Y380010D01*
X653981Y379764D01*
X653895Y379331D01*
X654063Y378486D01*
X654541Y377770D01*
X655258Y377291D01*
X656102Y377123D01*
X656947Y377291D01*
X657663Y377770D01*
X657830Y378018D01*
X696285D01*
X696569Y377555D01*
X696564Y377518D01*
X695880Y377061D01*
X695401Y376345D01*
X695233Y375500D01*
X695401Y374655D01*
X695880Y373939D01*
X696128Y373773D01*
Y356890D01*
X696228Y356387D01*
X696513Y355962D01*
X702025Y350450D01*
X702280Y350279D01*
X702451Y350165D01*
X702953Y350065D01*
X732369D01*
X732398Y349624D01*
X732401Y349588D01*
X732402Y349570D01*
X732402Y349567D01*
X732094Y349525D01*
X732085Y349523D01*
Y349523D01*
X731622Y349463D01*
X730822Y349131D01*
X730136Y348604D01*
X729609Y347918D01*
X729278Y347118D01*
X729165Y346260D01*
X729278Y345402D01*
X729609Y344602D01*
X729701Y344482D01*
Y333501D01*
X725624Y329423D01*
X725323Y329384D01*
X724523Y329053D01*
X723837Y328526D01*
X723310Y327839D01*
X722978Y327039D01*
X722865Y326181D01*
X722978Y325323D01*
X723310Y324523D01*
X723837Y323836D01*
X724523Y323310D01*
X725323Y322978D01*
X726181Y322865D01*
X727039Y322978D01*
X727839Y323310D01*
X728526Y323836D01*
X729053Y324523D01*
X729384Y325323D01*
X729497Y326181D01*
X729462Y326449D01*
X733203Y330190D01*
X733870Y330467D01*
X734446Y330908D01*
X734888Y331484D01*
X735165Y332155D01*
X735260Y332874D01*
Y344482D01*
X735352Y344602D01*
X735683Y345402D01*
X735796Y346260D01*
X735683Y347118D01*
X735352Y347918D01*
X734825Y348604D01*
X734138Y349131D01*
X733338Y349463D01*
X732876Y349523D01*
X732876Y349523D01*
X732867Y349525D01*
X732558Y349567D01*
X732559Y349570D01*
X732560Y349588D01*
X732562Y349624D01*
X732591Y350065D01*
X734692D01*
X738648Y346110D01*
Y330906D01*
X738748Y330403D01*
X739033Y329977D01*
X742576Y326434D01*
X743002Y326150D01*
X743504Y326050D01*
X827732D01*
Y322841D01*
X827640Y322721D01*
X827309Y321921D01*
X827196Y321063D01*
X827309Y320205D01*
X827640Y319405D01*
X828167Y318718D01*
X828854Y318192D01*
X829654Y317860D01*
X830512Y317747D01*
X831370Y317860D01*
X832170Y318192D01*
X832856Y318718D01*
X833383Y319405D01*
X833715Y320205D01*
X833828Y321063D01*
X833715Y321921D01*
X833383Y322721D01*
X833292Y322841D01*
Y329360D01*
X833632Y329701D01*
X836608D01*
X836728Y329609D01*
X837528Y329277D01*
X838386Y329165D01*
X839244Y329277D01*
X840044Y329609D01*
X840730Y330136D01*
X841257Y330822D01*
X841589Y331622D01*
X841702Y332480D01*
X841589Y333338D01*
X841257Y334138D01*
X840730Y334825D01*
X840044Y335352D01*
X839244Y335683D01*
X838386Y335796D01*
X837528Y335683D01*
X836728Y335352D01*
X836608Y335260D01*
X832480D01*
X831761Y335165D01*
X831091Y334888D01*
X830515Y334446D01*
X828546Y332477D01*
X828105Y331902D01*
X827827Y331231D01*
X827732Y330512D01*
Y328675D01*
X748238D01*
X747971Y329175D01*
X748300Y329667D01*
X748397Y330159D01*
X751836Y333597D01*
X751836Y333597D01*
X752097Y333988D01*
X752188Y334449D01*
Y352334D01*
X752545Y352573D01*
X753024Y353289D01*
X753192Y354134D01*
X753024Y354979D01*
X752545Y355695D01*
X751829Y356174D01*
X750984Y356342D01*
X750139Y356174D01*
X749423Y355695D01*
X748945Y354979D01*
X748776Y354134D01*
X748945Y353289D01*
X749423Y352573D01*
X749780Y352334D01*
Y334948D01*
X747272Y332440D01*
X747105Y332552D01*
X746260Y332720D01*
X745415Y332552D01*
X744699Y332073D01*
X744220Y331357D01*
X744052Y330512D01*
X744220Y329667D01*
X744365Y329451D01*
X744119Y328918D01*
X743838Y328884D01*
X741273Y331449D01*
Y346654D01*
X741173Y347156D01*
X740889Y347582D01*
X736164Y352306D01*
X735739Y352591D01*
X735236Y352691D01*
X703497D01*
X698754Y357434D01*
Y373773D01*
X699002Y373939D01*
X699481Y374655D01*
X699649Y375500D01*
X699481Y376345D01*
X699134Y376863D01*
X699194Y376982D01*
X699465Y377269D01*
X700197Y377123D01*
X701042Y377291D01*
X701758Y377770D01*
X701924Y378018D01*
X745004D01*
X745053Y377518D01*
X744628Y377433D01*
X743911Y376955D01*
X743433Y376239D01*
X743265Y375394D01*
X743433Y374549D01*
X743911Y373833D01*
X744628Y373354D01*
X745472Y373186D01*
X746317Y373354D01*
X747034Y373833D01*
X747200Y374081D01*
X757133D01*
X768569Y362645D01*
Y344685D01*
X768669Y344183D01*
X768954Y343757D01*
X774466Y338245D01*
X774721Y338074D01*
X774891Y337961D01*
X775394Y337861D01*
X783903D01*
X784069Y337612D01*
X784785Y337134D01*
X785630Y336965D01*
X786475Y337134D01*
X787191Y337612D01*
X787670Y338328D01*
X787838Y339173D01*
X787670Y340018D01*
X787268Y340619D01*
X787448Y341119D01*
X789342D01*
X789581Y340762D01*
X790297Y340283D01*
X791142Y340115D01*
X791987Y340283D01*
X792703Y340762D01*
X793182Y341478D01*
X793350Y342323D01*
X793182Y343168D01*
X792703Y343884D01*
X791987Y344363D01*
X791142Y344531D01*
X790297Y344363D01*
X789581Y343884D01*
X789342Y343527D01*
X778768D01*
X778530Y343884D01*
X777813Y344363D01*
X776968Y344531D01*
X776124Y344363D01*
X775407Y343884D01*
X774929Y343168D01*
X774768Y342362D01*
X774431Y342146D01*
X774330Y342093D01*
X771195Y345229D01*
Y363189D01*
X771095Y363691D01*
X770810Y364117D01*
X758605Y376322D01*
X758180Y376606D01*
X757677Y376706D01*
X747200D01*
X747034Y376955D01*
X746317Y377433D01*
X745892Y377518D01*
X745941Y378018D01*
X765007D01*
X802812Y340214D01*
X803238Y339929D01*
X803740Y339829D01*
X849653D01*
X863058Y326425D01*
Y313735D01*
X862809Y313569D01*
X862330Y312853D01*
X862162Y312008D01*
X862330Y311163D01*
X862809Y310447D01*
X863525Y309968D01*
X864370Y309800D01*
X865215Y309968D01*
X865931Y310447D01*
X866410Y311163D01*
X866578Y312008D01*
X866410Y312853D01*
X865931Y313569D01*
X865683Y313735D01*
Y326969D01*
X865583Y327471D01*
X865298Y327897D01*
X851125Y342070D01*
X850699Y342354D01*
X850197Y342454D01*
X804284D01*
X766479Y380259D01*
X766053Y380543D01*
X765551Y380643D01*
X701924D01*
X701758Y380892D01*
X701042Y381370D01*
X700197Y381539D01*
X699352Y381370D01*
X698636Y380892D01*
X698470Y380643D01*
X657830D01*
X657663Y380892D01*
X656947Y381370D01*
X656522Y381455D01*
X656571Y381955D01*
X664370D01*
X664872Y382055D01*
X665298Y382340D01*
X668054Y385096D01*
X668339Y385521D01*
X668439Y386024D01*
Y404134D01*
X668339Y404636D01*
X668054Y405062D01*
X667364Y405752D01*
Y407596D01*
X667864Y407864D01*
X668250Y407606D01*
X669095Y407438D01*
X669939Y407606D01*
X670656Y408084D01*
X671134Y408801D01*
X671302Y409646D01*
X671134Y410491D01*
X670656Y411207D01*
X670407Y411373D01*
Y457527D01*
X692070Y479190D01*
X692354Y479616D01*
X692454Y480118D01*
Y484958D01*
X692954Y485110D01*
X693124Y484856D01*
X693372Y484690D01*
Y459796D01*
X690214Y456637D01*
X689929Y456211D01*
X689829Y455709D01*
Y434842D01*
X689929Y434340D01*
X690214Y433914D01*
X692618Y431510D01*
X693044Y431226D01*
X693546Y431126D01*
X707402D01*
X709394Y429133D01*
X709215Y428605D01*
X709036Y428581D01*
X708365Y428304D01*
X707790Y427862D01*
X702955Y423028D01*
X702514Y422452D01*
X702236Y421782D01*
X702174Y421307D01*
X702049Y421146D01*
X701718Y420346D01*
X701605Y419488D01*
X701615Y419415D01*
X701166Y419194D01*
X699147Y421213D01*
Y423273D01*
X699396Y423439D01*
X699874Y424155D01*
X700042Y425000D01*
X699874Y425845D01*
X699396Y426561D01*
X698680Y427040D01*
X697835Y427208D01*
X696990Y427040D01*
X696274Y426561D01*
X695795Y425845D01*
X695627Y425000D01*
X695795Y424155D01*
X696274Y423439D01*
X696522Y423273D01*
Y420669D01*
X696622Y420167D01*
X696907Y419741D01*
X702025Y414623D01*
X702451Y414338D01*
X702953Y414239D01*
X707116D01*
X707619Y414338D01*
X708044Y414623D01*
X727109Y433688D01*
X727394Y434114D01*
X727494Y434616D01*
Y447289D01*
X727742Y447455D01*
X728221Y448171D01*
X728389Y449016D01*
X728221Y449861D01*
X727892Y450353D01*
X728159Y450853D01*
X744139D01*
X744305Y450604D01*
X745021Y450126D01*
X745866Y449958D01*
X746711Y450126D01*
X747427Y450604D01*
X747906Y451321D01*
X748074Y452165D01*
X747906Y453010D01*
X747427Y453726D01*
X746711Y454205D01*
X745866Y454373D01*
X745021Y454205D01*
X744305Y453726D01*
X744139Y453478D01*
X696788D01*
X696725Y453798D01*
X696246Y454514D01*
X695530Y454992D01*
X694685Y455161D01*
X693840Y454992D01*
X693124Y454514D01*
X692954Y454260D01*
X692454Y454412D01*
Y455165D01*
X695613Y458324D01*
X695898Y458750D01*
X695998Y459252D01*
Y484690D01*
X696246Y484856D01*
X696725Y485572D01*
X696893Y486417D01*
X696725Y487262D01*
X696246Y487979D01*
X695530Y488457D01*
X694724Y488617D01*
X694509Y488955D01*
X694455Y489055D01*
X695229Y489829D01*
X702800D01*
X702966Y489581D01*
X703683Y489102D01*
X704528Y488934D01*
X705372Y489102D01*
X706089Y489581D01*
X706567Y490297D01*
X706735Y491142D01*
X706567Y491987D01*
X706089Y492703D01*
X705372Y493182D01*
X704528Y493350D01*
X703683Y493182D01*
X702966Y492703D01*
X702800Y492454D01*
X694685D01*
X694183Y492354D01*
X693757Y492070D01*
X690214Y488527D01*
X689929Y488101D01*
X689829Y487598D01*
Y480662D01*
X668901Y459733D01*
X668439Y459925D01*
Y523669D01*
X675150Y530380D01*
X698470D01*
X698636Y530132D01*
X699352Y529653D01*
X700197Y529485D01*
X701042Y529653D01*
X701758Y530132D01*
X702187Y530774D01*
X762252D01*
X771621Y521405D01*
Y519587D01*
X771720Y519084D01*
X772005Y518658D01*
X800056Y490607D01*
X800482Y490323D01*
X800984Y490223D01*
X846504D01*
X862664Y474063D01*
Y459601D01*
X862415Y459435D01*
X861937Y458719D01*
X861769Y457874D01*
X861937Y457029D01*
X862415Y456313D01*
X863132Y455834D01*
X863976Y455666D01*
X864821Y455834D01*
X865537Y456313D01*
X866016Y457029D01*
X866184Y457874D01*
X866016Y458719D01*
X865537Y459435D01*
X865289Y459601D01*
Y474606D01*
X865189Y475109D01*
X864905Y475534D01*
X847975Y492464D01*
X847550Y492748D01*
X847047Y492848D01*
X801528D01*
X774246Y520130D01*
Y521949D01*
X774146Y522451D01*
X773861Y522877D01*
X763724Y533015D01*
X763298Y533299D01*
X762795Y533399D01*
X719373D01*
X719221Y533899D01*
X719475Y534069D01*
X719713Y534426D01*
X828725D01*
X828895Y533926D01*
X828546Y533658D01*
X824609Y529721D01*
X824168Y529146D01*
X823890Y528475D01*
X823795Y527756D01*
X823890Y527037D01*
X824168Y526366D01*
X824583Y525825D01*
Y518510D01*
X824491Y518390D01*
X824159Y517591D01*
X824047Y516732D01*
X824159Y515874D01*
X824491Y515074D01*
X825018Y514388D01*
X825704Y513861D01*
X826504Y513529D01*
X827362Y513416D01*
X828220Y513529D01*
X829020Y513861D01*
X829707Y514388D01*
X830234Y515074D01*
X830565Y515874D01*
X830678Y516732D01*
X830565Y517591D01*
X830234Y518390D01*
X830142Y518510D01*
Y526968D01*
X830093Y527343D01*
X831663Y528913D01*
X834640D01*
X834760Y528821D01*
X835559Y528490D01*
X836417Y528377D01*
X837276Y528490D01*
X838075Y528821D01*
X838762Y529348D01*
X839289Y530035D01*
X839620Y530835D01*
X839733Y531693D01*
X839620Y532551D01*
X839289Y533351D01*
X838848Y533926D01*
X839013Y534426D01*
X909934D01*
X912182Y532178D01*
Y528740D01*
X912182Y528740D01*
X912273Y528279D01*
X912534Y527889D01*
X921040Y519383D01*
Y410264D01*
X920683Y410026D01*
X920204Y409309D01*
X920036Y408465D01*
X920204Y407620D01*
X920683Y406903D01*
X921040Y406665D01*
Y406496D01*
X921040Y406496D01*
X921132Y406035D01*
X921393Y405645D01*
X925371Y401667D01*
Y400440D01*
X924871Y400261D01*
X924270Y400662D01*
X923425Y400830D01*
X922580Y400662D01*
X921864Y400183D01*
X921385Y399467D01*
X921217Y398622D01*
X921385Y397777D01*
X921864Y397061D01*
X922113Y396895D01*
Y279481D01*
X857133Y214502D01*
X697463D01*
X697034Y215144D01*
X696317Y215622D01*
X695472Y215791D01*
X694628Y215622D01*
X693911Y215144D01*
X693433Y214428D01*
X693265Y213583D01*
X693433Y212738D01*
X693911Y212022D01*
X694628Y211543D01*
X695472Y211375D01*
X696317Y211543D01*
X696816Y211876D01*
X857677D01*
X858179Y211976D01*
X858605Y212261D01*
X924353Y278009D01*
X924638Y278435D01*
X924738Y278937D01*
Y396500D01*
X924871Y396593D01*
X925371Y396334D01*
Y277074D01*
X857867Y209570D01*
X842843D01*
X842605Y209927D01*
X841888Y210406D01*
X841043Y210574D01*
X840199Y210406D01*
X839482Y209927D01*
X839004Y209211D01*
X838836Y208366D01*
X839004Y207521D01*
X839482Y206805D01*
X840199Y206327D01*
X841043Y206158D01*
X841888Y206327D01*
X842605Y206805D01*
X842843Y207162D01*
X858366D01*
X858366Y207162D01*
X858827Y207254D01*
X859218Y207515D01*
X927233Y275530D01*
X927733Y275323D01*
Y273137D01*
X859442Y204846D01*
X847764D01*
X847526Y205203D01*
X846809Y205681D01*
X845965Y205850D01*
X845120Y205681D01*
X844403Y205203D01*
X843925Y204487D01*
X843757Y203642D01*
X843925Y202797D01*
X844403Y202081D01*
X845120Y201602D01*
X845965Y201434D01*
X846809Y201602D01*
X847526Y202081D01*
X847764Y202437D01*
X859941D01*
X859941Y202437D01*
X860402Y202529D01*
X860793Y202790D01*
X929788Y271786D01*
X929789Y271786D01*
X930050Y272177D01*
X930141Y272638D01*
X930141Y272638D01*
Y309042D01*
X930641Y309091D01*
X930687Y308863D01*
X931549Y306322D01*
X932736Y303915D01*
X934227Y301684D01*
X935997Y299666D01*
X938014Y297897D01*
X940246Y296406D01*
X942653Y295219D01*
X945194Y294356D01*
X947826Y293832D01*
X950504Y293657D01*
X953182Y293832D01*
X955814Y294356D01*
X958355Y295219D01*
X960762Y296406D01*
X962994Y297897D01*
X965011Y299666D01*
X966781Y301684D01*
X968272Y303915D01*
X969459Y306322D01*
X970321Y308863D01*
X970845Y311495D01*
X971020Y314173D01*
X970845Y316851D01*
X970321Y319483D01*
X969459Y322024D01*
X968272Y324431D01*
X966781Y326663D01*
X965011Y328680D01*
X962994Y330450D01*
X960762Y331941D01*
X958355Y333128D01*
X955814Y333991D01*
X953182Y334514D01*
X950504Y334690D01*
X947826Y334514D01*
X945194Y333991D01*
X942653Y333128D01*
X940246Y331941D01*
X938014Y330450D01*
X935997Y328680D01*
X934227Y326663D01*
X932736Y324431D01*
X931549Y322024D01*
X930687Y319483D01*
X930641Y319255D01*
X930141Y319304D01*
Y358255D01*
X930641Y358304D01*
X930687Y358076D01*
X931549Y355535D01*
X932736Y353128D01*
X934227Y350896D01*
X935997Y348879D01*
X938014Y347109D01*
X940246Y345618D01*
X942653Y344431D01*
X945194Y343568D01*
X947826Y343045D01*
X950504Y342869D01*
X953182Y343045D01*
X955814Y343568D01*
X958355Y344431D01*
X960762Y345618D01*
X962994Y347109D01*
X965011Y348879D01*
X966781Y350896D01*
X968272Y353128D01*
X969459Y355535D01*
X970321Y358076D01*
X970845Y360708D01*
X971020Y363386D01*
X970845Y366064D01*
X970321Y368696D01*
X969459Y371237D01*
X968272Y373644D01*
X966781Y375875D01*
X965011Y377893D01*
X962994Y379663D01*
X960762Y381153D01*
X958355Y382341D01*
X955814Y383203D01*
X953182Y383727D01*
X950504Y383902D01*
X947826Y383727D01*
X945194Y383203D01*
X942653Y382341D01*
X940246Y381153D01*
X938014Y379663D01*
X935997Y377893D01*
X934227Y375875D01*
X932736Y373644D01*
X931549Y371237D01*
X930687Y368696D01*
X930641Y368468D01*
X930141Y368517D01*
Y403515D01*
X930498Y403754D01*
X930977Y404470D01*
X931145Y405315D01*
X930977Y406160D01*
X930498Y406876D01*
X929782Y407355D01*
X928937Y407523D01*
X928516Y407439D01*
X927385Y408570D01*
Y523819D01*
X927385Y523819D01*
X927294Y524280D01*
X927033Y524670D01*
X925064Y526639D01*
X924673Y526900D01*
X924213Y526992D01*
X924213Y526992D01*
X922863D01*
X922624Y527349D01*
X921908Y527827D01*
X921063Y527995D01*
X920218Y527827D01*
X919502Y527349D01*
X919023Y526632D01*
X918855Y525787D01*
X918882Y525655D01*
X918421Y525408D01*
X914590Y529239D01*
Y532677D01*
X914590Y532677D01*
X914498Y533138D01*
X914237Y533529D01*
X911285Y536482D01*
X910894Y536742D01*
X910433Y536834D01*
X910433Y536834D01*
X719713D01*
X719475Y537191D01*
X718758Y537670D01*
X717913Y537838D01*
D02*
G37*
G36*
X843110Y382253D02*
X842252Y382140D01*
X841452Y381809D01*
X841333Y381717D01*
X834842D01*
X834123Y381622D01*
X833453Y381344D01*
X832877Y380903D01*
X825397Y373422D01*
X824955Y372847D01*
X824677Y372176D01*
X824582Y371457D01*
Y365754D01*
X824491Y365634D01*
X824159Y364835D01*
X824047Y363976D01*
X824159Y363118D01*
X824491Y362318D01*
X825018Y361632D01*
X825704Y361105D01*
X826504Y360774D01*
X827362Y360661D01*
X828220Y360774D01*
X829020Y361105D01*
X829707Y361632D01*
X830234Y362318D01*
X830565Y363118D01*
X830678Y363976D01*
X830565Y364835D01*
X830234Y365634D01*
X830142Y365754D01*
Y370305D01*
X835994Y376157D01*
X841333D01*
X841452Y376065D01*
X842252Y375734D01*
X843110Y375621D01*
X843968Y375734D01*
X844768Y376065D01*
X845455Y376592D01*
X845982Y377279D01*
X846313Y378079D01*
X846426Y378937D01*
X846313Y379795D01*
X845982Y380595D01*
X845455Y381282D01*
X844768Y381809D01*
X843968Y382140D01*
X843110Y382253D01*
D02*
G37*
G36*
X950504Y475075D02*
X947826Y474900D01*
X945194Y474376D01*
X942653Y473514D01*
X940246Y472327D01*
X938014Y470836D01*
X935997Y469066D01*
X934227Y467049D01*
X932736Y464817D01*
X931549Y462410D01*
X930687Y459869D01*
X930163Y457237D01*
X929988Y454559D01*
X930163Y451881D01*
X930687Y449249D01*
X931549Y446708D01*
X932736Y444301D01*
X934227Y442069D01*
X935997Y440052D01*
X938014Y438282D01*
X940246Y436791D01*
X942653Y435604D01*
X945194Y434742D01*
X947826Y434218D01*
X950504Y434043D01*
X953182Y434218D01*
X955814Y434742D01*
X958355Y435604D01*
X960762Y436791D01*
X962994Y438282D01*
X965011Y440052D01*
X966781Y442069D01*
X968272Y444301D01*
X969459Y446708D01*
X970321Y449249D01*
X970845Y451881D01*
X971020Y454559D01*
X970845Y457237D01*
X970321Y459869D01*
X969459Y462410D01*
X968272Y464817D01*
X966781Y467049D01*
X965011Y469066D01*
X962994Y470836D01*
X960762Y472327D01*
X958355Y473514D01*
X955814Y474376D01*
X953182Y474900D01*
X950504Y475075D01*
D02*
G37*
G36*
X679724Y427995D02*
X678880Y427827D01*
X678163Y427349D01*
X677685Y426632D01*
X677517Y425787D01*
X677685Y424942D01*
X678119Y424293D01*
Y408778D01*
X677685Y408128D01*
X677517Y407283D01*
X677685Y406439D01*
X678163Y405722D01*
X678880Y405244D01*
X679724Y405076D01*
X680569Y405244D01*
X681286Y405722D01*
X681764Y406439D01*
X681932Y407283D01*
X681764Y408128D01*
X681330Y408778D01*
Y424293D01*
X681764Y424942D01*
X681932Y425787D01*
X681764Y426632D01*
X681286Y427349D01*
X680569Y427827D01*
X679724Y427995D01*
D02*
G37*
G36*
X895815Y376488D02*
Y373020D01*
X899284D01*
X899212Y373564D01*
X898809Y374537D01*
X898168Y375373D01*
X897332Y376014D01*
X896359Y376417D01*
X895815Y376488D01*
D02*
G37*
G36*
X899284Y372020D02*
X895815D01*
Y368551D01*
X896359Y368623D01*
X897332Y369026D01*
X898168Y369667D01*
X898809Y370502D01*
X899212Y371476D01*
X899284Y372020D01*
D02*
G37*
G36*
X894815D02*
X891346D01*
X891418Y371476D01*
X891821Y370502D01*
X892462Y369667D01*
X893298Y369026D01*
X894271Y368623D01*
X894815Y368551D01*
Y372020D01*
D02*
G37*
G36*
Y376488D02*
X894271Y376417D01*
X893298Y376014D01*
X892462Y375373D01*
X891821Y374537D01*
X891418Y373564D01*
X891346Y373020D01*
X894815D01*
Y376488D01*
D02*
G37*
G36*
X915315Y376340D02*
X914326Y376210D01*
X913405Y375828D01*
X912614Y375221D01*
X912007Y374430D01*
X911625Y373508D01*
X911495Y372520D01*
X911625Y371531D01*
X912007Y370610D01*
X912614Y369818D01*
X913405Y369211D01*
X914326Y368830D01*
X915315Y368700D01*
X916304Y368830D01*
X917225Y369211D01*
X918016Y369818D01*
X918623Y370610D01*
X919005Y371531D01*
X919135Y372520D01*
X919005Y373508D01*
X918623Y374430D01*
X918016Y375221D01*
X917225Y375828D01*
X916304Y376210D01*
X915315Y376340D01*
D02*
G37*
G36*
X904815Y332040D02*
X904271Y331968D01*
X903298Y331565D01*
X902462Y330924D01*
X901821Y330088D01*
X901418Y329115D01*
X901346Y328571D01*
X904815D01*
Y332040D01*
D02*
G37*
G36*
Y297591D02*
X904271Y297519D01*
X903298Y297116D01*
X902462Y296475D01*
X901821Y295639D01*
X901418Y294666D01*
X901346Y294122D01*
X904815D01*
Y297591D01*
D02*
G37*
G36*
X909284Y293122D02*
X905815D01*
Y289653D01*
X906359Y289725D01*
X907332Y290128D01*
X908168Y290769D01*
X908809Y291605D01*
X909212Y292578D01*
X909284Y293122D01*
D02*
G37*
G36*
X699803Y333901D02*
X698958Y333733D01*
X698242Y333254D01*
X697763Y332538D01*
X697595Y331693D01*
X697763Y330848D01*
X698242Y330132D01*
X698958Y329653D01*
X699803Y329485D01*
X700648Y329653D01*
X701364Y330132D01*
X701530Y330380D01*
X703539D01*
X716634Y317285D01*
X717060Y317001D01*
X717562Y316901D01*
X724156D01*
X731158Y309899D01*
X731584Y309614D01*
X732087Y309514D01*
X776819D01*
X786277Y300056D01*
X786702Y299771D01*
X787205Y299672D01*
X790202D01*
X790368Y299423D01*
X791084Y298944D01*
X791929Y298777D01*
X792774Y298944D01*
X793490Y299423D01*
X793969Y300139D01*
X794137Y300984D01*
X793969Y301829D01*
X793490Y302545D01*
X792774Y303024D01*
X791929Y303192D01*
X791084Y303024D01*
X790368Y302545D01*
X790202Y302297D01*
X787748D01*
X778290Y311755D01*
X777865Y312039D01*
X777362Y312139D01*
X732630D01*
X725628Y319142D01*
X725202Y319426D01*
X724700Y319526D01*
X718106D01*
X705011Y332621D01*
X704585Y332906D01*
X704083Y333005D01*
X701530D01*
X701364Y333254D01*
X700648Y333733D01*
X699803Y333901D01*
D02*
G37*
G36*
X905815Y297591D02*
Y294122D01*
X909284D01*
X909212Y294666D01*
X908809Y295639D01*
X908168Y296475D01*
X907332Y297116D01*
X906359Y297519D01*
X905815Y297591D01*
D02*
G37*
G36*
X904815Y293122D02*
X901346D01*
X901418Y292578D01*
X901821Y291605D01*
X902462Y290769D01*
X903298Y290128D01*
X904271Y289725D01*
X904815Y289653D01*
Y293122D01*
D02*
G37*
G36*
X680118Y277995D02*
X679273Y277827D01*
X678557Y277348D01*
X678078Y276632D01*
X677910Y275787D01*
X678078Y274942D01*
X678557Y274226D01*
X678805Y274060D01*
Y255074D01*
X678557Y254908D01*
X678078Y254191D01*
X677910Y253346D01*
X678078Y252502D01*
X678557Y251785D01*
X679273Y251307D01*
X680118Y251139D01*
X680963Y251307D01*
X681679Y251785D01*
X682158Y252502D01*
X682326Y253346D01*
X682158Y254191D01*
X681679Y254908D01*
X681431Y255074D01*
Y274060D01*
X681679Y274226D01*
X682158Y274942D01*
X682326Y275787D01*
X682158Y276632D01*
X681679Y277348D01*
X680963Y277827D01*
X680118Y277995D01*
D02*
G37*
G36*
X671063Y261853D02*
X670218Y261685D01*
X669502Y261207D01*
X669023Y260490D01*
X668855Y259646D01*
X669023Y258801D01*
X669257Y258452D01*
Y242730D01*
X669023Y242380D01*
X668855Y241535D01*
X669023Y240691D01*
X669502Y239974D01*
X670218Y239496D01*
X671063Y239328D01*
X671908Y239496D01*
X672624Y239974D01*
X673103Y240691D01*
X673271Y241535D01*
X673103Y242380D01*
X672869Y242730D01*
Y258452D01*
X673103Y258801D01*
X673271Y259646D01*
X673103Y260490D01*
X672624Y261207D01*
X671908Y261685D01*
X671063Y261853D01*
D02*
G37*
G36*
X745079Y275919D02*
X744576Y275819D01*
X744151Y275535D01*
X743866Y275109D01*
X743766Y274606D01*
Y263976D01*
X743866Y263474D01*
X744151Y263048D01*
X744576Y262764D01*
X745079Y262664D01*
X745581Y262764D01*
X746007Y263048D01*
X746291Y263474D01*
X746391Y263976D01*
Y274606D01*
X746291Y275109D01*
X746007Y275535D01*
X745581Y275819D01*
X745079Y275919D01*
D02*
G37*
G36*
X743898Y286657D02*
X743053Y286489D01*
X742337Y286010D01*
X741858Y285294D01*
X741690Y284449D01*
X741858Y283604D01*
X742337Y282888D01*
X742585Y282722D01*
Y280268D01*
X722882Y260565D01*
X717278D01*
X717112Y260813D01*
X716396Y261292D01*
X715551Y261460D01*
X714706Y261292D01*
X713990Y260813D01*
X713512Y260097D01*
X713343Y259252D01*
X713512Y258407D01*
X713990Y257691D01*
X714706Y257212D01*
X715551Y257044D01*
X716396Y257212D01*
X717112Y257691D01*
X717278Y257939D01*
X723425D01*
X723927Y258039D01*
X724353Y258324D01*
X744826Y278796D01*
X745110Y279222D01*
X745210Y279724D01*
Y282722D01*
X745459Y282888D01*
X745937Y283604D01*
X746105Y284449D01*
X745937Y285294D01*
X745459Y286010D01*
X744742Y286489D01*
X743898Y286657D01*
D02*
G37*
G36*
X894815Y303122D02*
X891346D01*
X891418Y302578D01*
X891821Y301605D01*
X892462Y300769D01*
X893298Y300128D01*
X894271Y299725D01*
X894815Y299653D01*
Y303122D01*
D02*
G37*
G36*
X864764Y520121D02*
X863919Y519953D01*
X863203Y519475D01*
X862724Y518758D01*
X862556Y517913D01*
X862724Y517068D01*
X863203Y516352D01*
X863919Y515874D01*
X864764Y515706D01*
X865185Y515789D01*
X868678Y512296D01*
Y467351D01*
X868321Y467112D01*
X867842Y466396D01*
X867674Y465551D01*
X867842Y464706D01*
X868321Y463990D01*
X868678Y463752D01*
Y418238D01*
X868236Y417577D01*
X868068Y416732D01*
X868236Y415887D01*
X868678Y415226D01*
Y370894D01*
X868321Y370656D01*
X867842Y369939D01*
X867674Y369094D01*
X867842Y368250D01*
X868321Y367533D01*
X868678Y367295D01*
Y318532D01*
X868321Y318293D01*
X867842Y317577D01*
X867674Y316732D01*
X867842Y315887D01*
X868321Y315171D01*
X869037Y314693D01*
X869882Y314525D01*
X870727Y314693D01*
X871443Y315171D01*
X871922Y315887D01*
X872090Y316732D01*
X871922Y317577D01*
X871443Y318293D01*
X871086Y318532D01*
Y367295D01*
X871443Y367533D01*
X871922Y368250D01*
X872090Y369094D01*
X871922Y369939D01*
X871443Y370656D01*
X871086Y370894D01*
Y414686D01*
X871120Y414693D01*
X871837Y415171D01*
X872315Y415887D01*
X872483Y416732D01*
X872315Y417577D01*
X871837Y418293D01*
X871120Y418772D01*
X871086Y418779D01*
Y463752D01*
X871443Y463990D01*
X871922Y464706D01*
X872090Y465551D01*
X871922Y466396D01*
X871443Y467112D01*
X871086Y467351D01*
Y512795D01*
X870994Y513256D01*
X870890Y513413D01*
X870733Y513647D01*
X870733Y513647D01*
X866888Y517492D01*
X866972Y517913D01*
X866803Y518758D01*
X866325Y519475D01*
X865609Y519953D01*
X864764Y520121D01*
D02*
G37*
G36*
X723032Y314609D02*
X722187Y314441D01*
X721470Y313963D01*
X721304Y313714D01*
X715544D01*
X715068Y313620D01*
X714428Y314048D01*
X713583Y314216D01*
X712738Y314048D01*
X712022Y313569D01*
X711543Y312853D01*
X711375Y312008D01*
X711543Y311163D01*
X712022Y310447D01*
X712738Y309968D01*
X713583Y309800D01*
X714428Y309968D01*
X715144Y310447D01*
X715334Y310732D01*
X715652Y310795D01*
X716078Y311080D01*
X716087Y311089D01*
X721304D01*
X721470Y310841D01*
X722187Y310362D01*
X723032Y310194D01*
X723876Y310362D01*
X724593Y310841D01*
X725071Y311557D01*
X725239Y312402D01*
X725071Y313246D01*
X724593Y313963D01*
X723876Y314441D01*
X723032Y314609D01*
D02*
G37*
G36*
X909284Y327571D02*
X905815D01*
Y324102D01*
X906359Y324174D01*
X907332Y324577D01*
X908168Y325218D01*
X908809Y326054D01*
X909212Y327027D01*
X909284Y327571D01*
D02*
G37*
G36*
X904815D02*
X901346D01*
X901418Y327027D01*
X901821Y326054D01*
X902462Y325218D01*
X903298Y324577D01*
X904271Y324174D01*
X904815Y324102D01*
Y327571D01*
D02*
G37*
G36*
X895815Y307591D02*
Y304122D01*
X899284D01*
X899212Y304666D01*
X898809Y305639D01*
X898168Y306475D01*
X897332Y307116D01*
X896359Y307519D01*
X895815Y307591D01*
D02*
G37*
G36*
X915315Y307442D02*
X914326Y307312D01*
X913405Y306930D01*
X912614Y306323D01*
X912007Y305532D01*
X911625Y304611D01*
X911495Y303622D01*
X911625Y302633D01*
X912007Y301712D01*
X912614Y300921D01*
X913405Y300314D01*
X914326Y299932D01*
X915315Y299802D01*
X916304Y299932D01*
X917225Y300314D01*
X918016Y300921D01*
X918623Y301712D01*
X919005Y302633D01*
X919135Y303622D01*
X919005Y304611D01*
X918623Y305532D01*
X918016Y306323D01*
X917225Y306930D01*
X916304Y307312D01*
X915315Y307442D01*
D02*
G37*
G36*
X899284Y303122D02*
X895815D01*
Y299653D01*
X896359Y299725D01*
X897332Y300128D01*
X898168Y300769D01*
X898809Y301605D01*
X899212Y302578D01*
X899284Y303122D01*
D02*
G37*
G36*
X894815Y307591D02*
X894271Y307519D01*
X893298Y307116D01*
X892462Y306475D01*
X891821Y305639D01*
X891418Y304666D01*
X891346Y304122D01*
X894815D01*
Y307591D01*
D02*
G37*
G36*
X814370Y320048D02*
X813511Y319935D01*
X812712Y319603D01*
X812025Y319077D01*
X811498Y318390D01*
X811167Y317590D01*
X811054Y316732D01*
X811167Y315874D01*
X811498Y315074D01*
X811590Y314954D01*
Y311615D01*
X811685Y310895D01*
X811962Y310225D01*
X812404Y309649D01*
X819098Y302956D01*
X819673Y302514D01*
X820344Y302236D01*
X821063Y302142D01*
X822435D01*
X822555Y302050D01*
X823354Y301718D01*
X824213Y301606D01*
X825071Y301718D01*
X825871Y302050D01*
X826557Y302577D01*
X827084Y303263D01*
X827415Y304063D01*
X827528Y304921D01*
X827415Y305779D01*
X827084Y306579D01*
X826557Y307266D01*
X825871Y307793D01*
X825071Y308124D01*
X824213Y308237D01*
X823354Y308124D01*
X822555Y307793D01*
X822435Y307701D01*
X822214D01*
X817149Y312766D01*
Y314954D01*
X817241Y315074D01*
X817572Y315874D01*
X817685Y316732D01*
X817572Y317590D01*
X817241Y318390D01*
X816714Y319077D01*
X816028Y319603D01*
X815228Y319935D01*
X814370Y320048D01*
D02*
G37*
G36*
X904815Y437610D02*
X901346D01*
X901418Y437066D01*
X901821Y436093D01*
X902462Y435257D01*
X903298Y434616D01*
X904271Y434213D01*
X904815Y434141D01*
Y437610D01*
D02*
G37*
G36*
X660264Y511508D02*
X640067D01*
Y491311D01*
X642273Y491456D01*
X644932Y491985D01*
X647500Y492856D01*
X649932Y494056D01*
X652186Y495562D01*
X654225Y497350D01*
X656013Y499389D01*
X657519Y501643D01*
X658718Y504075D01*
X659590Y506643D01*
X660119Y509302D01*
X660264Y511508D01*
D02*
G37*
G36*
X639067D02*
X618870D01*
X619015Y509302D01*
X619544Y506643D01*
X620415Y504075D01*
X621615Y501643D01*
X623121Y499389D01*
X624909Y497350D01*
X626948Y495562D01*
X629202Y494056D01*
X631634Y492856D01*
X634202Y491985D01*
X636861Y491456D01*
X639067Y491311D01*
Y511508D01*
D02*
G37*
G36*
X748819Y529964D02*
X747974Y529796D01*
X747258Y529317D01*
X746779Y528601D01*
X746611Y527756D01*
X746779Y526911D01*
X747258Y526195D01*
X747974Y525716D01*
X748819Y525548D01*
X749664Y525716D01*
X750380Y526195D01*
X750546Y526443D01*
X756149D01*
X769160Y513433D01*
Y494291D01*
X769260Y493789D01*
X769544Y493363D01*
X771513Y491395D01*
X771939Y491110D01*
X772441Y491010D01*
X782525D01*
X782691Y490762D01*
X783407Y490283D01*
X784252Y490115D01*
X785097Y490283D01*
X785813Y490762D01*
X786292Y491478D01*
X786460Y492323D01*
X786292Y493168D01*
X786094Y493463D01*
X786362Y493963D01*
X789415D01*
X789581Y493715D01*
X790297Y493236D01*
X791142Y493068D01*
X791987Y493236D01*
X792703Y493715D01*
X793182Y494431D01*
X793350Y495276D01*
X793182Y496121D01*
X792703Y496837D01*
X791987Y497315D01*
X791142Y497483D01*
X790297Y497315D01*
X789581Y496837D01*
X789415Y496588D01*
X780074D01*
X779908Y496837D01*
X779191Y497315D01*
X778346Y497483D01*
X777502Y497315D01*
X776785Y496837D01*
X776307Y496121D01*
X776139Y495276D01*
X776307Y494431D01*
X776504Y494136D01*
X776237Y493636D01*
X772985D01*
X771785Y494835D01*
Y513976D01*
X771685Y514479D01*
X771401Y514905D01*
X757621Y528684D01*
X757195Y528969D01*
X756693Y529069D01*
X750546D01*
X750380Y529317D01*
X749664Y529796D01*
X748819Y529964D01*
D02*
G37*
G36*
X904815Y506508D02*
X901346D01*
X901418Y505964D01*
X901821Y504991D01*
X902462Y504155D01*
X903298Y503514D01*
X904271Y503111D01*
X904815Y503039D01*
Y506508D01*
D02*
G37*
G36*
X812598Y515127D02*
X811740Y515014D01*
X810941Y514683D01*
X810254Y514156D01*
X809727Y513469D01*
X809396Y512669D01*
X809283Y511811D01*
X809396Y510953D01*
X809727Y510153D01*
X810254Y509466D01*
X810941Y508940D01*
X811740Y508608D01*
X812598Y508495D01*
X813457Y508608D01*
X814256Y508940D01*
X814860Y509403D01*
X818884D01*
X822198Y506089D01*
Y505411D01*
X821735Y504808D01*
X821404Y504008D01*
X821291Y503150D01*
X821404Y502291D01*
X821735Y501492D01*
X822262Y500805D01*
X822948Y500278D01*
X823748Y499947D01*
X824606Y499834D01*
X825465Y499947D01*
X826264Y500278D01*
X826951Y500805D01*
X827478Y501492D01*
X827809Y502291D01*
X827922Y503150D01*
X827809Y504008D01*
X827478Y504808D01*
X827015Y505411D01*
Y507087D01*
X826832Y508008D01*
X826309Y508790D01*
X821585Y513514D01*
X820804Y514036D01*
X819882Y514220D01*
X814860D01*
X814256Y514683D01*
X813457Y515014D01*
X812598Y515127D01*
D02*
G37*
G36*
X750787Y511263D02*
X749943Y511095D01*
X749226Y510616D01*
X748748Y509900D01*
X748580Y509055D01*
X748748Y508210D01*
X749226Y507494D01*
X749475Y507328D01*
Y489914D01*
X747144Y487582D01*
X746850Y487641D01*
X746005Y487473D01*
X745289Y486994D01*
X744811Y486278D01*
X744643Y485433D01*
X744811Y484588D01*
X745289Y483872D01*
X746005Y483393D01*
X746850Y483225D01*
X747695Y483393D01*
X748412Y483872D01*
X748890Y484588D01*
X749058Y485433D01*
X749000Y485726D01*
X751716Y488442D01*
X752000Y488868D01*
X752100Y489370D01*
Y495862D01*
X752600Y495962D01*
X752837Y495389D01*
X752929Y495270D01*
Y494291D01*
X753024Y493572D01*
X753301Y492902D01*
X753743Y492326D01*
X761197Y484872D01*
Y483077D01*
X761105Y482957D01*
X760774Y482157D01*
X760661Y481299D01*
X760774Y480441D01*
X761105Y479641D01*
X761632Y478955D01*
X762319Y478428D01*
X763118Y478096D01*
X763976Y477983D01*
X764835Y478096D01*
X765634Y478428D01*
X766321Y478955D01*
X766848Y479641D01*
X767179Y480441D01*
X767292Y481299D01*
X767179Y482157D01*
X766848Y482957D01*
X766756Y483077D01*
Y486024D01*
X766661Y486743D01*
X766384Y487414D01*
X765942Y487989D01*
X758564Y495368D01*
X758580Y495389D01*
X758912Y496189D01*
X759024Y497047D01*
X758912Y497905D01*
X758580Y498705D01*
X758053Y499392D01*
X757367Y499919D01*
X756567Y500250D01*
X755709Y500363D01*
X754850Y500250D01*
X754051Y499919D01*
X753364Y499392D01*
X752837Y498705D01*
X752600Y498133D01*
X752100Y498232D01*
Y507328D01*
X752349Y507494D01*
X752827Y508210D01*
X752995Y509055D01*
X752827Y509900D01*
X752349Y510616D01*
X751632Y511095D01*
X750787Y511263D01*
D02*
G37*
G36*
X697047Y527995D02*
X696202Y527827D01*
X695486Y527349D01*
X695008Y526632D01*
X694839Y525787D01*
X695008Y524942D01*
X695486Y524226D01*
X695735Y524060D01*
Y508465D01*
X695835Y507962D01*
X696119Y507536D01*
X702418Y501237D01*
X702844Y500953D01*
X703346Y500853D01*
X707527D01*
X711495Y496885D01*
Y480106D01*
X711595Y479603D01*
X711879Y479178D01*
X717133Y473924D01*
X717559Y473640D01*
X718061Y473540D01*
X827366D01*
Y466962D01*
X827274Y466843D01*
X826943Y466043D01*
X826830Y465185D01*
X826943Y464326D01*
X827274Y463527D01*
X827801Y462840D01*
X828487Y462313D01*
X829287Y461982D01*
X830145Y461869D01*
X831003Y461982D01*
X831803Y462313D01*
X832490Y462840D01*
X833017Y463527D01*
X833348Y464326D01*
X833461Y465185D01*
X833348Y466043D01*
X833017Y466843D01*
X832925Y466962D01*
Y474663D01*
X833041Y474779D01*
X834640D01*
X834760Y474687D01*
X835559Y474356D01*
X836417Y474243D01*
X837276Y474356D01*
X838075Y474687D01*
X838762Y475214D01*
X839289Y475901D01*
X839620Y476701D01*
X839733Y477559D01*
X839620Y478417D01*
X839289Y479217D01*
X838762Y479904D01*
X838075Y480431D01*
X837276Y480762D01*
X836417Y480875D01*
X835559Y480762D01*
X834760Y480431D01*
X834640Y480339D01*
X831890D01*
X831170Y480244D01*
X830500Y479966D01*
X829924Y479525D01*
X828180Y477780D01*
X827738Y477204D01*
X827460Y476534D01*
X827412Y476165D01*
X718605D01*
X714120Y480650D01*
Y497429D01*
X714020Y497931D01*
X713736Y498357D01*
X708999Y503093D01*
X708573Y503378D01*
X708071Y503478D01*
X703890D01*
X698360Y509008D01*
Y524060D01*
X698608Y524226D01*
X699087Y524942D01*
X699255Y525787D01*
X699087Y526632D01*
X698608Y527349D01*
X697892Y527827D01*
X697047Y527995D01*
D02*
G37*
G36*
X895315Y486379D02*
X894326Y486249D01*
X893405Y485867D01*
X892614Y485260D01*
X892007Y484469D01*
X891625Y483548D01*
X891495Y482559D01*
X891625Y481570D01*
X892007Y480649D01*
X892614Y479858D01*
X893405Y479251D01*
X894326Y478869D01*
X895315Y478739D01*
X896304Y478869D01*
X897225Y479251D01*
X898016Y479858D01*
X898623Y480649D01*
X899005Y481570D01*
X899135Y482559D01*
X899005Y483548D01*
X898623Y484469D01*
X898016Y485260D01*
X897225Y485867D01*
X896304Y486249D01*
X895315Y486379D01*
D02*
G37*
G36*
X950504Y525575D02*
X947826Y525400D01*
X945194Y524876D01*
X942653Y524014D01*
X940246Y522827D01*
X938014Y521336D01*
X935997Y519566D01*
X934227Y517549D01*
X932736Y515317D01*
X931549Y512910D01*
X930687Y510369D01*
X930163Y507737D01*
X929988Y505059D01*
X930163Y502381D01*
X930687Y499749D01*
X931549Y497208D01*
X932736Y494801D01*
X934227Y492569D01*
X935997Y490552D01*
X938014Y488782D01*
X940246Y487291D01*
X942653Y486104D01*
X945194Y485242D01*
X947826Y484718D01*
X950504Y484543D01*
X953182Y484718D01*
X955814Y485242D01*
X958355Y486104D01*
X960762Y487291D01*
X962994Y488782D01*
X965011Y490552D01*
X966781Y492569D01*
X968272Y494801D01*
X969459Y497208D01*
X970321Y499749D01*
X970845Y502381D01*
X971020Y505059D01*
X970845Y507737D01*
X970321Y510369D01*
X969459Y512910D01*
X968272Y515317D01*
X966781Y517549D01*
X965011Y519566D01*
X962994Y521336D01*
X960762Y522827D01*
X958355Y524014D01*
X955814Y524876D01*
X953182Y525400D01*
X950504Y525575D01*
D02*
G37*
G36*
X915315Y486379D02*
X914326Y486249D01*
X913405Y485867D01*
X912614Y485260D01*
X912007Y484469D01*
X911625Y483548D01*
X911495Y482559D01*
X911625Y481570D01*
X912007Y480649D01*
X912614Y479858D01*
X913405Y479251D01*
X914326Y478869D01*
X915315Y478739D01*
X916304Y478869D01*
X917225Y479251D01*
X918016Y479858D01*
X918623Y480649D01*
X919005Y481570D01*
X919135Y482559D01*
X919005Y483548D01*
X918623Y484469D01*
X918016Y485260D01*
X917225Y485867D01*
X916304Y486249D01*
X915315Y486379D01*
D02*
G37*
G36*
X899284Y516508D02*
X895815D01*
Y513039D01*
X896359Y513111D01*
X897332Y513514D01*
X898168Y514155D01*
X898809Y514991D01*
X899212Y515964D01*
X899284Y516508D01*
D02*
G37*
G36*
X894815D02*
X891346D01*
X891418Y515964D01*
X891821Y514991D01*
X892462Y514155D01*
X893298Y513514D01*
X894271Y513111D01*
X894815Y513039D01*
Y516508D01*
D02*
G37*
G36*
X915315Y520828D02*
X914326Y520698D01*
X913405Y520316D01*
X912614Y519709D01*
X912007Y518918D01*
X911625Y517997D01*
X911495Y517008D01*
X911625Y516019D01*
X912007Y515098D01*
X912614Y514307D01*
X913405Y513700D01*
X914326Y513318D01*
X915315Y513188D01*
X916304Y513318D01*
X917225Y513700D01*
X918016Y514307D01*
X918623Y515098D01*
X919005Y516019D01*
X919135Y517008D01*
X919005Y517997D01*
X918623Y518918D01*
X918016Y519709D01*
X917225Y520316D01*
X916304Y520698D01*
X915315Y520828D01*
D02*
G37*
G36*
X895815Y520977D02*
Y517508D01*
X899284D01*
X899212Y518052D01*
X898809Y519025D01*
X898168Y519861D01*
X897332Y520502D01*
X896359Y520905D01*
X895815Y520977D01*
D02*
G37*
G36*
X894815D02*
X894271Y520905D01*
X893298Y520502D01*
X892462Y519861D01*
X891821Y519025D01*
X891418Y518052D01*
X891346Y517508D01*
X894815D01*
Y520977D01*
D02*
G37*
G36*
X904815Y510977D02*
X904271Y510905D01*
X903298Y510502D01*
X902462Y509861D01*
X901821Y509025D01*
X901418Y508052D01*
X901346Y507508D01*
X904815D01*
Y510977D01*
D02*
G37*
G36*
X909284Y506508D02*
X905815D01*
Y503039D01*
X906359Y503111D01*
X907332Y503514D01*
X908168Y504155D01*
X908809Y504991D01*
X909212Y505964D01*
X909284Y506508D01*
D02*
G37*
G36*
X905815Y510977D02*
Y507508D01*
X909284D01*
X909212Y508052D01*
X908809Y509025D01*
X908168Y509861D01*
X907332Y510502D01*
X906359Y510905D01*
X905815Y510977D01*
D02*
G37*
G36*
X640067Y532704D02*
Y512508D01*
X660264D01*
X660119Y514714D01*
X659590Y517373D01*
X658718Y519941D01*
X657519Y522373D01*
X656013Y524627D01*
X654225Y526666D01*
X652186Y528454D01*
X649932Y529960D01*
X647500Y531159D01*
X644932Y532031D01*
X642273Y532560D01*
X640067Y532704D01*
D02*
G37*
G36*
X639067D02*
X636861Y532560D01*
X634202Y532031D01*
X631634Y531159D01*
X629202Y529960D01*
X626948Y528454D01*
X624909Y526666D01*
X623121Y524627D01*
X621615Y522373D01*
X620415Y519941D01*
X619544Y517373D01*
X619015Y514714D01*
X618870Y512508D01*
X639067D01*
Y532704D01*
D02*
G37*
G36*
X899284Y447610D02*
X895815D01*
Y444141D01*
X896359Y444213D01*
X897332Y444616D01*
X898168Y445257D01*
X898809Y446093D01*
X899212Y447066D01*
X899284Y447610D01*
D02*
G37*
G36*
X894815D02*
X891346D01*
X891418Y447066D01*
X891821Y446093D01*
X892462Y445257D01*
X893298Y444616D01*
X894271Y444213D01*
X894815Y444141D01*
Y447610D01*
D02*
G37*
G36*
X759646Y444851D02*
X758787Y444738D01*
X757988Y444407D01*
X757868Y444315D01*
X750793D01*
X750674Y444407D01*
X749874Y444738D01*
X749016Y444851D01*
X748158Y444738D01*
X747358Y444407D01*
X746671Y443880D01*
X746144Y443193D01*
X745813Y442394D01*
X745700Y441535D01*
X745813Y440677D01*
X746144Y439878D01*
X746671Y439191D01*
X747358Y438664D01*
X748158Y438333D01*
X749016Y438220D01*
X749874Y438333D01*
X750674Y438664D01*
X750793Y438756D01*
X757868D01*
X757988Y438664D01*
X758787Y438333D01*
X759646Y438220D01*
X760504Y438333D01*
X761304Y438664D01*
X761990Y439191D01*
X762517Y439878D01*
X762849Y440677D01*
X762961Y441535D01*
X762849Y442394D01*
X762517Y443193D01*
X761990Y443880D01*
X761304Y444407D01*
X760504Y444738D01*
X759646Y444851D01*
D02*
G37*
G36*
X915315Y451930D02*
X914326Y451800D01*
X913405Y451418D01*
X912614Y450811D01*
X912007Y450020D01*
X911625Y449099D01*
X911495Y448110D01*
X911625Y447121D01*
X912007Y446200D01*
X912614Y445409D01*
X913405Y444802D01*
X914326Y444420D01*
X915315Y444290D01*
X916304Y444420D01*
X917225Y444802D01*
X918016Y445409D01*
X918623Y446200D01*
X919005Y447121D01*
X919135Y448110D01*
X919005Y449099D01*
X918623Y450020D01*
X918016Y450811D01*
X917225Y451418D01*
X916304Y451800D01*
X915315Y451930D01*
D02*
G37*
G36*
X639567Y483312D02*
X636889Y483136D01*
X634257Y482613D01*
X631716Y481750D01*
X629309Y480563D01*
X627077Y479072D01*
X625060Y477303D01*
X623290Y475285D01*
X621799Y473054D01*
X620612Y470647D01*
X619750Y468105D01*
X619226Y465473D01*
X619051Y462795D01*
X619226Y460117D01*
X619750Y457485D01*
X620612Y454944D01*
X621799Y452537D01*
X623290Y450306D01*
X625060Y448288D01*
X627077Y446519D01*
X629309Y445028D01*
X631716Y443841D01*
X634257Y442978D01*
X636889Y442454D01*
X639567Y442279D01*
X642245Y442454D01*
X644877Y442978D01*
X647418Y443841D01*
X649825Y445028D01*
X652057Y446519D01*
X654074Y448288D01*
X655844Y450306D01*
X657335Y452537D01*
X658522Y454944D01*
X659384Y457485D01*
X659908Y460117D01*
X660083Y462795D01*
X659908Y465473D01*
X659384Y468105D01*
X658522Y470647D01*
X657335Y473054D01*
X655844Y475285D01*
X654074Y477303D01*
X652057Y479072D01*
X649825Y480563D01*
X647418Y481750D01*
X644877Y482613D01*
X642245Y483136D01*
X639567Y483312D01*
D02*
G37*
G36*
X745866Y437444D02*
X745021Y437276D01*
X744305Y436797D01*
X744139Y436549D01*
X743260D01*
X743251Y436558D01*
X742825Y436843D01*
X742323Y436943D01*
X741820Y436843D01*
X741395Y436558D01*
X737930Y433093D01*
X737541Y433412D01*
X737670Y433604D01*
X737838Y434449D01*
X737670Y435294D01*
X737191Y436010D01*
X736475Y436488D01*
X735630Y436657D01*
X734785Y436488D01*
X734069Y436010D01*
X733590Y435294D01*
X733433Y434502D01*
X721685Y422753D01*
X721063Y422877D01*
X720218Y422709D01*
X719502Y422230D01*
X719023Y421514D01*
X718855Y420669D01*
X719023Y419824D01*
X719502Y419108D01*
X720218Y418630D01*
X721063Y418462D01*
X721908Y418630D01*
X722624Y419108D01*
X723103Y419824D01*
X723260Y420617D01*
X735008Y432365D01*
X735630Y432241D01*
X736475Y432409D01*
X736667Y432538D01*
X736986Y432149D01*
X721504Y416667D01*
X717475D01*
X717309Y416916D01*
X716593Y417394D01*
X715748Y417562D01*
X714903Y417394D01*
X714187Y416916D01*
X713708Y416199D01*
X713540Y415354D01*
X713708Y414509D01*
X714187Y413793D01*
X714903Y413315D01*
X715748Y413147D01*
X716593Y413315D01*
X717309Y413793D01*
X717475Y414042D01*
X722047D01*
X722550Y414142D01*
X722975Y414426D01*
X742513Y433964D01*
X742717Y433924D01*
X744139D01*
X744305Y433675D01*
X745021Y433196D01*
X745866Y433029D01*
X746711Y433196D01*
X747427Y433675D01*
X747906Y434391D01*
X748074Y435236D01*
X747906Y436081D01*
X747427Y436797D01*
X746711Y437276D01*
X745866Y437444D01*
D02*
G37*
G36*
X909284Y437610D02*
X905815D01*
Y434141D01*
X906359Y434213D01*
X907332Y434616D01*
X908168Y435257D01*
X908809Y436093D01*
X909212Y437066D01*
X909284Y437610D01*
D02*
G37*
G36*
X905815Y442079D02*
Y438610D01*
X909284D01*
X909212Y439154D01*
X908809Y440128D01*
X908168Y440963D01*
X907332Y441604D01*
X906359Y442007D01*
X905815Y442079D01*
D02*
G37*
G36*
X904815D02*
X904271Y442007D01*
X903298Y441604D01*
X902462Y440963D01*
X901821Y440128D01*
X901418Y439154D01*
X901346Y438610D01*
X904815D01*
Y442079D01*
D02*
G37*
G36*
X699606Y488625D02*
X698761Y488457D01*
X698045Y487979D01*
X697567Y487262D01*
X697399Y486417D01*
X697567Y485572D01*
X698045Y484856D01*
X698294Y484690D01*
Y475591D01*
X698394Y475088D01*
X698678Y474662D01*
X703599Y469741D01*
X704025Y469457D01*
X704528Y469357D01*
X733118D01*
X744938Y457536D01*
X745364Y457252D01*
X745866Y457152D01*
X779181D01*
X788107Y448226D01*
X788118Y448171D01*
X788596Y447455D01*
X789313Y446976D01*
X790158Y446808D01*
X791002Y446976D01*
X791719Y447455D01*
X792197Y448171D01*
X792365Y449016D01*
X792197Y449861D01*
X791719Y450577D01*
X791002Y451055D01*
X790158Y451224D01*
X789313Y451055D01*
X789119Y450926D01*
X780653Y459393D01*
X780227Y459677D01*
X779724Y459777D01*
X746410D01*
X734590Y471597D01*
X734164Y471882D01*
X733661Y471982D01*
X705071D01*
X700919Y476134D01*
Y484690D01*
X701167Y484856D01*
X701646Y485572D01*
X701814Y486417D01*
X701646Y487262D01*
X701167Y487979D01*
X700451Y488457D01*
X699606Y488625D01*
D02*
G37*
G36*
X674606Y493276D02*
X673748Y493163D01*
X672948Y492832D01*
X672262Y492305D01*
X671735Y491618D01*
X671404Y490819D01*
X671290Y489961D01*
X671404Y489103D01*
X671735Y488303D01*
X671827Y488183D01*
Y475597D01*
X671735Y475477D01*
X671404Y474677D01*
X671290Y473819D01*
X671404Y472961D01*
X671735Y472161D01*
X672262Y471474D01*
X672948Y470947D01*
X673748Y470616D01*
X674606Y470503D01*
X675464Y470616D01*
X676264Y470947D01*
X676951Y471474D01*
X677478Y472161D01*
X677809Y472961D01*
X677922Y473819D01*
X677809Y474677D01*
X677478Y475477D01*
X677386Y475597D01*
Y488183D01*
X677478Y488303D01*
X677809Y489103D01*
X677922Y489961D01*
X677809Y490819D01*
X677478Y491618D01*
X676951Y492305D01*
X676264Y492832D01*
X675464Y493163D01*
X674606Y493276D01*
D02*
G37*
G36*
X909284Y472059D02*
X905815D01*
Y468590D01*
X906359Y468662D01*
X907332Y469065D01*
X908168Y469706D01*
X908809Y470542D01*
X909212Y471515D01*
X909284Y472059D01*
D02*
G37*
G36*
X905815Y476528D02*
Y473059D01*
X909284D01*
X909212Y473603D01*
X908809Y474576D01*
X908168Y475412D01*
X907332Y476053D01*
X906359Y476456D01*
X905815Y476528D01*
D02*
G37*
G36*
X904815D02*
X904271Y476456D01*
X903298Y476053D01*
X902462Y475412D01*
X901821Y474576D01*
X901418Y473603D01*
X901346Y473059D01*
X904815D01*
Y476528D01*
D02*
G37*
G36*
Y472059D02*
X901346D01*
X901418Y471515D01*
X901821Y470542D01*
X902462Y469706D01*
X903298Y469065D01*
X904271Y468662D01*
X904815Y468590D01*
Y472059D01*
D02*
G37*
G36*
X894815Y452079D02*
X894271Y452007D01*
X893298Y451604D01*
X892462Y450963D01*
X891821Y450128D01*
X891418Y449154D01*
X891346Y448610D01*
X894815D01*
Y452079D01*
D02*
G37*
G36*
X813189Y466111D02*
X812330Y465998D01*
X811531Y465666D01*
X810844Y465139D01*
X810317Y464453D01*
X809986Y463653D01*
X809873Y462795D01*
X809986Y461937D01*
X810317Y461137D01*
X810844Y460450D01*
X811531Y459923D01*
X812330Y459592D01*
X813189Y459479D01*
X814047Y459592D01*
X814437Y459754D01*
X814937Y459419D01*
Y456890D01*
X815032Y456170D01*
X815309Y455500D01*
X815751Y454924D01*
X817129Y453546D01*
X817705Y453105D01*
X818375Y452827D01*
X819094Y452732D01*
X819099D01*
X819435Y452236D01*
X819322Y451378D01*
X819435Y450520D01*
X819766Y449720D01*
X820293Y449033D01*
X820980Y448506D01*
X821780Y448175D01*
X822638Y448062D01*
X823496Y448175D01*
X824296Y448506D01*
X824982Y449033D01*
X825509Y449720D01*
X825841Y450520D01*
X825954Y451378D01*
X825841Y452236D01*
X825509Y453036D01*
X825418Y453156D01*
Y453543D01*
X825323Y454263D01*
X825045Y454933D01*
X824603Y455509D01*
X822635Y457477D01*
X822059Y457919D01*
X821389Y458197D01*
X820669Y458291D01*
X820496D01*
Y461811D01*
X820401Y462531D01*
X820124Y463201D01*
X819682Y463777D01*
X818698Y464760D01*
X818123Y465202D01*
X817452Y465480D01*
X816733Y465574D01*
X814966D01*
X814847Y465666D01*
X814047Y465998D01*
X813189Y466111D01*
D02*
G37*
G36*
X714370Y462641D02*
X713525Y462473D01*
X712809Y461994D01*
X712330Y461278D01*
X712162Y460433D01*
X712330Y459588D01*
X712809Y458872D01*
X713525Y458393D01*
X714370Y458225D01*
X715215Y458393D01*
X715714Y458727D01*
X720911D01*
X721077Y458478D01*
X721793Y458000D01*
X722638Y457832D01*
X723483Y458000D01*
X724199Y458478D01*
X724678Y459195D01*
X724846Y460039D01*
X724678Y460884D01*
X724199Y461600D01*
X723483Y462079D01*
X722638Y462247D01*
X721793Y462079D01*
X721077Y461600D01*
X720911Y461352D01*
X716360D01*
X715931Y461994D01*
X715215Y462473D01*
X714370Y462641D01*
D02*
G37*
G36*
X895815Y452079D02*
Y448610D01*
X899284D01*
X899212Y449154D01*
X898809Y450128D01*
X898168Y450963D01*
X897332Y451604D01*
X896359Y452007D01*
X895815Y452079D01*
D02*
G37*
%LPD*%
G36*
X924977Y523320D02*
Y408071D01*
X924977Y408071D01*
X925068Y407610D01*
X925330Y407219D01*
X926813Y405736D01*
X926729Y405315D01*
X926897Y404470D01*
X927334Y403816D01*
X926946Y403497D01*
X923781Y406662D01*
X923805Y406904D01*
X924284Y407620D01*
X924452Y408465D01*
X924284Y409309D01*
X923805Y410026D01*
X923448Y410264D01*
Y519882D01*
X923448Y519882D01*
X923357Y520343D01*
X923096Y520733D01*
X923096Y520733D01*
X920684Y523145D01*
X920930Y523606D01*
X921063Y523580D01*
X921908Y523748D01*
X922624Y524226D01*
X922863Y524583D01*
X923714D01*
X924977Y523320D01*
D02*
G37*
G36*
X693124Y451392D02*
X693840Y450913D01*
X694685Y450745D01*
X695227Y450853D01*
X724203D01*
X724470Y450353D01*
X724141Y449861D01*
X723973Y449016D01*
X724141Y448171D01*
X724620Y447455D01*
X724868Y447289D01*
Y435160D01*
X716510Y426801D01*
X716032Y426946D01*
X716016Y427026D01*
X715537Y427742D01*
X714821Y428220D01*
X713976Y428388D01*
X713802Y428354D01*
X713633Y428607D01*
X708873Y433367D01*
X708448Y433651D01*
X707945Y433751D01*
X694090D01*
X692454Y435386D01*
Y451494D01*
X692954Y451645D01*
X693124Y451392D01*
D02*
G37*
G36*
X1184765Y514631D02*
X1184059Y514253D01*
X1183040Y513417D01*
X1182203Y512398D01*
X1181582Y511235D01*
X1181199Y509973D01*
X1181070Y508661D01*
X1181199Y507349D01*
X1181582Y506088D01*
X1182203Y504925D01*
X1183040Y503906D01*
X1184059Y503069D01*
X1185222Y502448D01*
X1186483Y502065D01*
X1187795Y501936D01*
X1189107Y502065D01*
X1190369Y502448D01*
X1191532Y503069D01*
X1192551Y503906D01*
X1193387Y504925D01*
X1193764Y505631D01*
X1194264Y505506D01*
Y380321D01*
X1193764Y380196D01*
X1193387Y380902D01*
X1192551Y381921D01*
X1191532Y382757D01*
X1190369Y383379D01*
X1189107Y383761D01*
X1187795Y383891D01*
X1186483Y383761D01*
X1185222Y383379D01*
X1184059Y382757D01*
X1183040Y381921D01*
X1182203Y380902D01*
X1181582Y379739D01*
X1181199Y378477D01*
X1181070Y377165D01*
X1181199Y375853D01*
X1181582Y374592D01*
X1182203Y373429D01*
X1183040Y372410D01*
X1184059Y371573D01*
X1184765Y371196D01*
X1184639Y370696D01*
X1059455D01*
X1059330Y371196D01*
X1060036Y371573D01*
X1061055Y372410D01*
X1061891Y373429D01*
X1062513Y374592D01*
X1062895Y375853D01*
X1063025Y377165D01*
X1062895Y378477D01*
X1062513Y379739D01*
X1061891Y380902D01*
X1061509Y381367D01*
X1061870Y381716D01*
X1063365Y380405D01*
X1065619Y378898D01*
X1068051Y377699D01*
X1070619Y376827D01*
X1073279Y376298D01*
X1075484Y376154D01*
Y396350D01*
X1055288D01*
X1055432Y394145D01*
X1055961Y391485D01*
X1056833Y388918D01*
X1058032Y386486D01*
X1059538Y384231D01*
X1060850Y382736D01*
X1060501Y382375D01*
X1060036Y382757D01*
X1058873Y383379D01*
X1057611Y383761D01*
X1056299Y383891D01*
X1054987Y383761D01*
X1053726Y383379D01*
X1052563Y382757D01*
X1051544Y381921D01*
X1050707Y380902D01*
X1050330Y380196D01*
X1049830Y380321D01*
Y505506D01*
X1050330Y505631D01*
X1050707Y504925D01*
X1051544Y503906D01*
X1052563Y503069D01*
X1053726Y502448D01*
X1054987Y502065D01*
X1056299Y501936D01*
X1057611Y502065D01*
X1058873Y502448D01*
X1060036Y503069D01*
X1061055Y503906D01*
X1061891Y504925D01*
X1062513Y506088D01*
X1062895Y507349D01*
X1063025Y508661D01*
X1062895Y509973D01*
X1062513Y511235D01*
X1061891Y512398D01*
X1061055Y513417D01*
X1060036Y514253D01*
X1059330Y514631D01*
X1059455Y515131D01*
X1184639D01*
X1184765Y514631D01*
D02*
G37*
%LPC*%
G36*
X1055799Y429165D02*
X1052378D01*
X1052448Y428633D01*
X1052847Y427672D01*
X1053480Y426846D01*
X1054306Y426213D01*
X1055267Y425814D01*
X1055799Y425744D01*
Y429165D01*
D02*
G37*
G36*
X1102067Y440101D02*
X1101222Y439933D01*
X1100506Y439455D01*
X1100027Y438739D01*
X1099859Y437894D01*
X1100027Y437049D01*
X1100506Y436333D01*
X1100662Y436228D01*
Y423811D01*
X1100506Y423707D01*
X1100027Y422991D01*
X1099859Y422146D01*
X1100027Y421301D01*
X1100506Y420584D01*
X1101222Y420106D01*
X1102067Y419938D01*
X1102912Y420106D01*
X1103628Y420584D01*
X1104107Y421301D01*
X1104275Y422146D01*
X1104107Y422991D01*
X1103628Y423707D01*
X1103472Y423811D01*
Y436228D01*
X1103628Y436333D01*
X1104107Y437049D01*
X1104275Y437894D01*
X1104107Y438739D01*
X1103628Y439455D01*
X1102912Y439933D01*
X1102067Y440101D01*
D02*
G37*
G36*
X1060220Y429165D02*
X1056799D01*
Y425744D01*
X1057331Y425814D01*
X1058293Y426213D01*
X1059118Y426846D01*
X1059752Y427672D01*
X1060150Y428633D01*
X1060220Y429165D01*
D02*
G37*
G36*
X1055799Y433586D02*
X1055267Y433516D01*
X1054306Y433118D01*
X1053480Y432484D01*
X1052847Y431659D01*
X1052448Y430697D01*
X1052378Y430165D01*
X1055799D01*
Y433586D01*
D02*
G37*
G36*
X1132776Y464609D02*
X1131931Y464441D01*
X1131215Y463963D01*
X1130736Y463246D01*
X1130568Y462402D01*
X1130736Y461557D01*
X1131215Y460840D01*
X1131571Y460602D01*
Y418215D01*
X1119186Y405830D01*
X1115874D01*
X1115636Y406187D01*
X1114920Y406666D01*
X1114075Y406834D01*
X1113230Y406666D01*
X1112514Y406187D01*
X1112035Y405471D01*
X1111867Y404626D01*
X1112035Y403781D01*
X1112514Y403065D01*
X1113230Y402586D01*
X1114075Y402418D01*
X1114920Y402586D01*
X1115636Y403065D01*
X1115874Y403422D01*
X1119685D01*
X1119685Y403422D01*
X1120146Y403513D01*
X1120537Y403774D01*
X1133627Y416865D01*
X1133627Y416865D01*
X1133784Y417099D01*
X1133888Y417256D01*
X1133980Y417717D01*
Y460602D01*
X1134337Y460840D01*
X1134815Y461557D01*
X1134983Y462402D01*
X1134815Y463246D01*
X1134337Y463963D01*
X1133620Y464441D01*
X1132776Y464609D01*
D02*
G37*
G36*
X1168110Y417367D02*
X1165432Y417191D01*
X1162800Y416668D01*
X1160259Y415805D01*
X1157852Y414618D01*
X1155621Y413127D01*
X1153603Y411358D01*
X1151834Y409340D01*
X1150342Y407109D01*
X1149156Y404702D01*
X1148293Y402160D01*
X1147769Y399528D01*
X1147594Y396850D01*
X1147769Y394173D01*
X1148293Y391540D01*
X1149156Y388999D01*
X1150342Y386592D01*
X1151834Y384361D01*
X1153603Y382343D01*
X1155621Y380574D01*
X1157852Y379083D01*
X1160259Y377896D01*
X1162800Y377033D01*
X1165432Y376509D01*
X1168110Y376334D01*
X1170788Y376509D01*
X1173420Y377033D01*
X1175961Y377896D01*
X1178368Y379083D01*
X1180600Y380574D01*
X1182617Y382343D01*
X1184387Y384361D01*
X1185878Y386592D01*
X1187065Y388999D01*
X1187928Y391540D01*
X1188451Y394173D01*
X1188627Y396850D01*
X1188451Y399528D01*
X1187928Y402160D01*
X1187065Y404702D01*
X1185878Y407109D01*
X1184387Y409340D01*
X1182617Y411358D01*
X1180600Y413127D01*
X1178368Y414618D01*
X1175961Y415805D01*
X1173420Y416668D01*
X1170788Y417191D01*
X1168110Y417367D01*
D02*
G37*
G36*
X1096681Y396350D02*
X1076484D01*
Y376154D01*
X1078690Y376298D01*
X1081349Y376827D01*
X1083917Y377699D01*
X1086349Y378898D01*
X1088603Y380405D01*
X1090642Y382192D01*
X1092430Y384231D01*
X1093937Y386486D01*
X1095136Y388918D01*
X1096007Y391485D01*
X1096536Y394145D01*
X1096681Y396350D01*
D02*
G37*
G36*
X1076484Y417547D02*
Y397350D01*
X1096681D01*
X1096536Y399556D01*
X1096007Y402216D01*
X1095136Y404783D01*
X1093937Y407215D01*
X1092430Y409470D01*
X1090642Y411508D01*
X1088603Y413296D01*
X1086349Y414803D01*
X1083917Y416002D01*
X1081349Y416874D01*
X1078690Y417403D01*
X1076484Y417547D01*
D02*
G37*
G36*
X1075484D02*
X1073279Y417403D01*
X1070619Y416874D01*
X1068051Y416002D01*
X1065619Y414803D01*
X1063365Y413296D01*
X1061326Y411508D01*
X1059538Y409470D01*
X1058032Y407215D01*
X1056833Y404783D01*
X1055961Y402216D01*
X1055432Y399556D01*
X1055288Y397350D01*
X1075484D01*
Y417547D01*
D02*
G37*
G36*
X1162598Y501027D02*
X1161753Y500859D01*
X1161404Y500625D01*
X1153163D01*
X1152813Y500859D01*
X1151968Y501027D01*
X1151124Y500859D01*
X1150407Y500380D01*
X1149929Y499664D01*
X1149761Y498819D01*
X1149929Y497974D01*
X1150407Y497258D01*
X1151124Y496779D01*
X1151968Y496611D01*
X1152813Y496779D01*
X1153163Y497013D01*
X1161404D01*
X1161753Y496779D01*
X1162598Y496611D01*
X1163443Y496779D01*
X1164159Y497258D01*
X1164638Y497974D01*
X1164806Y498819D01*
X1164638Y499664D01*
X1164159Y500380D01*
X1163443Y500859D01*
X1162598Y501027D01*
D02*
G37*
G36*
X1127953Y484787D02*
X1127108Y484619D01*
X1126392Y484140D01*
X1126287Y483984D01*
X1124902D01*
X1124364Y483877D01*
X1123908Y483572D01*
X1114969Y474633D01*
X1111024D01*
X1110486Y474526D01*
X1110030Y474222D01*
X1092824Y457015D01*
X1083260D01*
X1083156Y457171D01*
X1082439Y457650D01*
X1081594Y457818D01*
X1080750Y457650D01*
X1080033Y457171D01*
X1079555Y456455D01*
X1079387Y455610D01*
X1079555Y454765D01*
X1080033Y454049D01*
X1080750Y453571D01*
X1081594Y453403D01*
X1082439Y453571D01*
X1083156Y454049D01*
X1083260Y454205D01*
X1093406D01*
X1093943Y454312D01*
X1094399Y454617D01*
X1111606Y471823D01*
X1115551D01*
X1116089Y471930D01*
X1116545Y472235D01*
X1125484Y481174D01*
X1126287D01*
X1126392Y481018D01*
X1127108Y480539D01*
X1127953Y480371D01*
X1128798Y480539D01*
X1129514Y481018D01*
X1129992Y481734D01*
X1130161Y482579D01*
X1129992Y483424D01*
X1129514Y484140D01*
X1128798Y484619D01*
X1127953Y484787D01*
D02*
G37*
G36*
X1161319Y512402D02*
X1153839D01*
Y504921D01*
X1161319D01*
Y512402D01*
D02*
G37*
G36*
X1167579Y512434D02*
X1166602Y512305D01*
X1165693Y511928D01*
X1164911Y511329D01*
X1164312Y510548D01*
X1163935Y509638D01*
X1163806Y508661D01*
X1163935Y507685D01*
X1164312Y506775D01*
X1164911Y505994D01*
X1165693Y505394D01*
X1166602Y505018D01*
X1167579Y504889D01*
X1168555Y505018D01*
X1169465Y505394D01*
X1170246Y505994D01*
X1170846Y506775D01*
X1171223Y507685D01*
X1171351Y508661D01*
X1171223Y509638D01*
X1170846Y510548D01*
X1170246Y511329D01*
X1169465Y511928D01*
X1168555Y512305D01*
X1167579Y512434D01*
D02*
G37*
G36*
X1112598Y470515D02*
X1111753Y470347D01*
X1111037Y469868D01*
X1110559Y469152D01*
X1110391Y468307D01*
X1110559Y467462D01*
X1111037Y466746D01*
X1111753Y466267D01*
X1112598Y466099D01*
X1113443Y466267D01*
X1114159Y466746D01*
X1114264Y466902D01*
X1135639D01*
X1136331Y466209D01*
Y464126D01*
X1136175Y464022D01*
X1135697Y463306D01*
X1135528Y462461D01*
X1135697Y461616D01*
X1136175Y460899D01*
X1136891Y460421D01*
X1137736Y460253D01*
X1138581Y460421D01*
X1139297Y460899D01*
X1139776Y461616D01*
X1139944Y462461D01*
X1139776Y463306D01*
X1139297Y464022D01*
X1139141Y464126D01*
Y466791D01*
X1139034Y467329D01*
X1138730Y467785D01*
X1137214Y469301D01*
X1136758Y469605D01*
X1136220Y469712D01*
X1114264D01*
X1114159Y469868D01*
X1113443Y470347D01*
X1112598Y470515D01*
D02*
G37*
G36*
X1060039Y443406D02*
X1052559D01*
Y435925D01*
X1060039D01*
Y443406D01*
D02*
G37*
G36*
X1056799Y433586D02*
Y430165D01*
X1060220D01*
X1060150Y430697D01*
X1059752Y431659D01*
X1059118Y432484D01*
X1058293Y433118D01*
X1057331Y433516D01*
X1056799Y433586D01*
D02*
G37*
G36*
X1142815Y464609D02*
X1141970Y464441D01*
X1141254Y463963D01*
X1140775Y463246D01*
X1140607Y462402D01*
X1140775Y461557D01*
X1141254Y460840D01*
X1141970Y460362D01*
X1142815Y460194D01*
X1143660Y460362D01*
X1144009Y460595D01*
X1149842D01*
X1154788Y455649D01*
Y450899D01*
X1154555Y450550D01*
X1154387Y449705D01*
X1154555Y448860D01*
X1155033Y448144D01*
X1155750Y447665D01*
X1156594Y447497D01*
X1157439Y447665D01*
X1158156Y448144D01*
X1158634Y448860D01*
X1158802Y449705D01*
X1158634Y450550D01*
X1158401Y450899D01*
Y456398D01*
X1158263Y457089D01*
X1157872Y457675D01*
X1151868Y463679D01*
X1151282Y464070D01*
X1150591Y464208D01*
X1144009D01*
X1143660Y464441D01*
X1142815Y464609D01*
D02*
G37*
G36*
X1126968Y445810D02*
X1126124Y445642D01*
X1125407Y445163D01*
X1125303Y445007D01*
X1112894D01*
X1112356Y444900D01*
X1111900Y444596D01*
X1107077Y439773D01*
X1106773Y439317D01*
X1106666Y438779D01*
Y419873D01*
X1105324Y418531D01*
X1103634D01*
X1103530Y418687D01*
X1102813Y419166D01*
X1101968Y419334D01*
X1101124Y419166D01*
X1100407Y418687D01*
X1099929Y417971D01*
X1099761Y417126D01*
X1099929Y416281D01*
X1100407Y415565D01*
X1101124Y415086D01*
X1101968Y414918D01*
X1102813Y415086D01*
X1103530Y415565D01*
X1103634Y415721D01*
X1105906D01*
X1106443Y415828D01*
X1106899Y416132D01*
X1109064Y418298D01*
X1109369Y418754D01*
X1109476Y419291D01*
Y438198D01*
X1113476Y442197D01*
X1125303D01*
X1125407Y442041D01*
X1126124Y441563D01*
X1126968Y441395D01*
X1127813Y441563D01*
X1128530Y442041D01*
X1129008Y442758D01*
X1129176Y443602D01*
X1129008Y444447D01*
X1128530Y445163D01*
X1127813Y445642D01*
X1126968Y445810D01*
D02*
G37*
%LPD*%
D21*
X1081594Y243996D02*
X1093406D01*
X1111024Y261614D01*
X1115551D01*
X1124902Y270965D01*
X1127953D01*
X1112598Y256693D02*
X1136220D01*
X1111909D02*
X1112598D01*
X1136220D02*
X1137736Y255177D01*
Y250846D02*
Y255177D01*
X1102067Y210531D02*
Y226279D01*
X1101968Y205512D02*
X1105906D01*
X1108071Y207677D01*
Y227165D01*
X1112894Y231988D01*
X1126968D01*
X1081594Y455610D02*
X1093406D01*
X1111024Y473228D01*
X1115551D01*
X1124902Y482579D01*
X1127953D01*
X1112598Y468307D02*
X1136220D01*
X1111909D02*
X1112598D01*
X1136220D02*
X1137736Y466791D01*
Y462461D02*
Y466791D01*
X1102067Y422146D02*
Y437894D01*
X1101968Y417126D02*
X1105906D01*
X1108071Y419291D01*
Y438779D01*
X1112894Y443602D01*
X1126968D01*
D22*
X1119685Y193012D02*
X1132776Y206102D01*
Y250787D01*
X1114075Y193012D02*
X1119685D01*
X282382Y239075D02*
X300492D01*
X279134Y242323D02*
X282382Y239075D01*
X300492D02*
X339813Y199754D01*
X279134Y242323D02*
Y273622D01*
X299508Y231693D02*
X338681Y192520D01*
X278150Y231693D02*
X299508D01*
X271752Y238091D02*
X278150Y231693D01*
X462598Y235531D02*
X473524D01*
X450689Y223622D02*
X462598Y235531D01*
X460039Y241831D02*
X474705D01*
X440945Y222736D02*
X460039Y241831D01*
X500295Y198524D02*
X514764Y180020D01*
X500295Y198524D02*
Y224606D01*
X422421Y302480D02*
X500295Y224606D01*
X422421Y302480D02*
Y309724D01*
X271752Y238091D02*
Y273622D01*
X196555Y469488D02*
X216043D01*
X258283Y343747D02*
Y357447D01*
X248283Y343747D02*
Y364847D01*
X210630Y456201D02*
X220965D01*
X216043Y465453D02*
Y469488D01*
X433120Y199754D02*
X440945Y207579D01*
Y222736D01*
X443012Y192520D02*
X450689Y200197D01*
Y223622D01*
X339813Y199754D02*
X433120D01*
X338681Y192520D02*
X443012D01*
X196358Y477362D02*
X221063D01*
X236614Y404232D02*
Y454232D01*
X233858Y398524D02*
Y447638D01*
X216043Y465453D02*
X233858Y447638D01*
X236319Y396063D02*
X238287D01*
X233858Y398524D02*
X236319Y396063D01*
X220965Y456201D02*
X231594Y445571D01*
Y390748D02*
X231791Y390551D01*
X231594Y390748D02*
Y445571D01*
X236909Y456988D02*
X238337Y455561D01*
X236909Y456988D02*
Y461516D01*
X221063Y477362D02*
X236909Y461516D01*
X747047Y330512D02*
X750984Y334449D01*
X746260Y330512D02*
X747047D01*
X928937Y272638D02*
Y405315D01*
X859941Y203642D02*
X928937Y272638D01*
X845965Y203642D02*
X859941D01*
X926575Y276575D02*
Y402165D01*
X858366Y208366D02*
X926575Y276575D01*
X841043Y208366D02*
X858366D01*
X922244Y406496D02*
X926575Y402165D01*
X922244Y406496D02*
Y408465D01*
X926181Y408071D02*
Y523819D01*
Y408071D02*
X928937Y405315D01*
X869882Y369094D02*
Y465551D01*
X924213Y525787D02*
X926181Y523819D01*
X921063Y525787D02*
X924213D01*
X922244Y408465D02*
Y519882D01*
X913386Y528740D02*
X922244Y519882D01*
X910433Y535630D02*
X913386Y532677D01*
Y528740D02*
Y532677D01*
X717913Y535630D02*
X910433D01*
X869882Y316732D02*
Y369094D01*
Y465551D02*
Y512795D01*
X865158Y517520D02*
X869882Y512795D01*
X865158Y517520D02*
Y518701D01*
X776968Y342323D02*
X791142D01*
X750984Y334449D02*
Y354134D01*
X1119685Y404626D02*
X1132776Y417717D01*
Y462402D01*
X1114075Y404626D02*
X1119685D01*
D23*
X1151968Y287205D02*
X1162598D01*
X1142815Y250787D02*
X1150591D01*
X1156594Y244783D01*
Y238090D02*
Y244783D01*
X231246Y317934D02*
X244046D01*
X244346Y317634D02*
X250746Y311234D01*
X251246D01*
X644291Y336811D02*
X704528D01*
X671063Y241535D02*
Y259646D01*
X1151968Y498819D02*
X1162598D01*
X1142815Y462402D02*
X1150591D01*
X1156594Y456398D01*
Y449705D02*
Y456398D01*
D29*
X702953Y415551D02*
X707116D01*
X697835Y420669D02*
X702953Y415551D01*
X707116D02*
X726181Y434616D01*
Y449016D01*
X713976Y276575D02*
Y276969D01*
X709252Y281693D02*
X713976Y276969D01*
X721063Y269882D02*
X727362Y276181D01*
Y276575D01*
X743504Y327362D02*
X830512D01*
X739961Y330906D02*
X743504Y327362D01*
X693717Y304921D02*
X694291D01*
X693610Y304815D02*
X693717Y304921D01*
X690748Y287598D02*
Y328543D01*
Y287598D02*
X696654Y281693D01*
X690748Y328543D02*
X694291Y332087D01*
X713583Y312008D02*
X715150D01*
X715544Y312402D01*
X713976Y426181D02*
Y426280D01*
X712705Y427551D02*
X713976Y426280D01*
X721063Y420669D02*
X721457D01*
X742717Y435236D02*
X745866D01*
X742323Y435630D02*
X742717Y435236D01*
X745079Y263976D02*
Y274606D01*
X735236Y434449D02*
X735630D01*
X721457Y420669D02*
X735236Y434449D01*
X772933Y519587D02*
X800984Y491535D01*
X847047D01*
X762795Y532087D02*
X772933Y521949D01*
Y519587D02*
Y521949D01*
X718061Y474852D02*
X829183D01*
X695866Y213189D02*
X857677D01*
X695472Y213583D02*
X695866Y213189D01*
X857677D02*
X923425Y278937D01*
X722047Y415354D02*
X742323Y435630D01*
X667126Y412402D02*
Y524213D01*
X674606Y531693D01*
X669095Y458071D02*
X691142Y480118D01*
X669095Y409646D02*
Y458071D01*
X715748Y415354D02*
X722047D01*
X923425Y278937D02*
Y398622D01*
X638780Y222638D02*
X649803Y211614D01*
X638780Y222638D02*
Y367126D01*
X654921Y383268D01*
X664370D01*
X667126Y386024D01*
Y404134D01*
X666051Y405209D02*
X667126Y404134D01*
X666051Y405209D02*
Y411327D01*
X667126Y412402D01*
X674606Y531693D02*
X700197D01*
X694685Y491142D02*
X704134D01*
X691142Y487598D02*
X694685Y491142D01*
X691142Y480118D02*
Y487598D01*
X739961Y330906D02*
Y346654D01*
X735236Y351378D02*
X739961Y346654D01*
X702953Y351378D02*
X735236D01*
X697441Y356890D02*
X702953Y351378D01*
X697441Y356890D02*
Y375500D01*
X656102Y379331D02*
X700197D01*
X864370Y312008D02*
Y326969D01*
X850197Y341142D02*
X864370Y326969D01*
X803740Y341142D02*
X850197D01*
X765551Y379331D02*
X803740Y341142D01*
X700197Y379331D02*
X765551D01*
X695079Y452165D02*
X745866D01*
X694685Y459252D02*
Y486417D01*
X691142Y455709D02*
X694685Y459252D01*
X691142Y434842D02*
Y455709D01*
Y434842D02*
X693546Y432438D01*
X707945D02*
X712705Y427679D01*
X693546Y432438D02*
X707945D01*
X699606Y475591D02*
Y486417D01*
X778346Y495276D02*
X791142D01*
X770472Y494291D02*
X772441Y492323D01*
X770472Y494291D02*
Y513976D01*
X756693Y527756D02*
X770472Y513976D01*
X748819Y527756D02*
X756693D01*
X772441Y492323D02*
X784252D01*
X746850Y485433D02*
X750787Y489370D01*
Y509055D01*
X704528Y470669D02*
X733661D01*
X699606Y475591D02*
X704528Y470669D01*
X714764Y460039D02*
X722638D01*
X863976Y457874D02*
Y474606D01*
X847047Y491535D02*
X863976Y474606D01*
X700591Y532087D02*
X762795D01*
X712808Y480106D02*
X718061Y474852D01*
X697047Y508465D02*
X703346Y502165D01*
X697047Y508465D02*
Y525787D01*
X712808Y480106D02*
Y497429D01*
X708071Y502165D02*
X712808Y497429D01*
X703346Y502165D02*
X708071D01*
X775394Y339173D02*
X785630D01*
X769882Y344685D02*
X775394Y339173D01*
X769882Y344685D02*
Y363189D01*
X757677Y375394D02*
X769882Y363189D01*
X745472Y375394D02*
X757677D01*
X789173Y449016D02*
X790158D01*
X779724Y458465D02*
X789173Y449016D01*
X745866Y458465D02*
X779724D01*
X733661Y470669D02*
X745866Y458465D01*
X787205Y300984D02*
X791929D01*
X777362Y310827D02*
X787205Y300984D01*
X743898Y279724D02*
Y284449D01*
X723425Y259252D02*
X743898Y279724D01*
X715551Y259252D02*
X723425D01*
X696654Y281693D02*
X709252D01*
X699409Y267913D02*
Y276575D01*
Y267913D02*
X703346Y263976D01*
X711221D01*
X723713Y276468D01*
Y278256D01*
X726181Y280724D01*
Y297047D01*
X680118Y275787D02*
X680512Y275394D01*
X680118Y275000D02*
X680512Y275394D01*
X680118Y253346D02*
Y275000D01*
X693610Y304815D02*
X744185D01*
X724700Y318214D02*
X732087Y310827D01*
X777362D01*
X717562Y318214D02*
X724700D01*
X694291Y331693D02*
Y332087D01*
X704083Y331693D02*
X717562Y318214D01*
X699803Y331693D02*
X704083D01*
X715544Y312402D02*
X723032D01*
X697835Y420669D02*
Y425000D01*
D39*
X240446Y226434D02*
X240453Y266929D01*
X704921Y421063D02*
X709755Y425896D01*
X704921Y419488D02*
Y421063D01*
X674606Y316929D02*
Y332087D01*
X830145Y465185D02*
Y475815D01*
X827362Y516732D02*
Y526968D01*
X826575Y527756D02*
X827362Y526968D01*
X831890Y477559D02*
X836417D01*
X830145Y475815D02*
X831890Y477559D01*
X830512Y321063D02*
Y330512D01*
X832480Y332480D01*
X816733Y462795D02*
X817717Y461811D01*
X813189Y462795D02*
X816733D01*
X820669Y455512D02*
X822638Y453543D01*
Y451378D02*
Y453543D01*
X821063Y304921D02*
X824213D01*
X763976Y481299D02*
Y486024D01*
X662795Y387598D02*
Y421260D01*
X813583Y358465D02*
X819882D01*
X826575Y351772D01*
X832480Y332480D02*
X838386D01*
X834842Y378937D02*
X843110D01*
X827362Y371457D02*
X834842Y378937D01*
X827362Y363976D02*
Y371457D01*
X749016Y441535D02*
X759646D01*
X674606Y473819D02*
Y489961D01*
X817717Y456890D02*
Y461811D01*
X819094Y455512D02*
X820669D01*
X817717Y456890D02*
X819094Y455512D01*
X830512Y531693D02*
X836417D01*
X826575Y527756D02*
X830512Y531693D01*
X755709Y494291D02*
X763976Y486024D01*
X755709Y494291D02*
Y497047D01*
X704921Y268307D02*
X710039Y273425D01*
X732480Y332874D02*
Y346260D01*
X814370Y311615D02*
Y316732D01*
Y311615D02*
X821063Y304921D01*
D58*
X679724Y407283D02*
Y425787D01*
D60*
X726181Y326575D02*
X732480Y332874D01*
X726181Y326181D02*
Y326575D01*
X824606Y503150D02*
Y507087D01*
X819882Y511811D02*
X824606Y507087D01*
X812598Y511811D02*
X819882D01*
D62*
X710039Y273425D02*
Y276575D01*
D63*
X1168110Y185236D02*
D03*
X1075984D02*
D03*
X514764Y180610D02*
D03*
X204823Y210138D02*
D03*
X470677Y180610D02*
D03*
X950504Y314173D02*
D03*
Y363386D02*
D03*
Y505059D02*
D03*
Y454559D02*
D03*
X639567Y462795D02*
D03*
Y413583D02*
D03*
Y512008D02*
D03*
X1168110Y396850D02*
D03*
X1075984D02*
D03*
D64*
X1167579Y297047D02*
D03*
X1056299Y218051D02*
D03*
X375453Y295374D02*
D03*
X365492D02*
D03*
X268283Y333747D02*
D03*
X258283Y343747D02*
D03*
Y333747D02*
D03*
X248283Y343747D02*
D03*
Y333747D02*
D03*
X238283Y343747D02*
D03*
Y333747D02*
D03*
X250446Y226434D02*
D03*
X240446D02*
D03*
X230446D02*
D03*
X231024Y498189D02*
D03*
Y488189D02*
D03*
X221024Y498189D02*
D03*
Y488189D02*
D03*
X211024Y498189D02*
D03*
X264173Y216378D02*
D03*
Y226378D02*
D03*
X1167579Y508661D02*
D03*
X1056299Y429665D02*
D03*
D65*
X1157579Y297047D02*
D03*
X268283Y343747D02*
D03*
X211024Y488189D02*
D03*
X1157579Y508661D02*
D03*
D66*
X1056299Y228051D02*
D03*
Y439665D02*
D03*
D67*
Y297047D02*
D03*
X1187795D02*
D03*
X1056299Y165551D02*
D03*
X1187795Y165551D02*
D03*
X169291Y526968D02*
D03*
X540453Y526968D02*
D03*
X540453Y164370D02*
D03*
X169291D02*
D03*
X264173Y295374D02*
D03*
X395669D02*
D03*
Y163878D02*
D03*
X264173D02*
D03*
X1056299Y508661D02*
D03*
X1187795D02*
D03*
X1056299Y377165D02*
D03*
X1187795Y377165D02*
D03*
D68*
X1083858Y295177D02*
D03*
X1108071Y277658D02*
D03*
X1181004Y284646D02*
D03*
X1056496Y280413D02*
D03*
X1058268Y243209D02*
D03*
X1104921Y235925D02*
D03*
X1106299Y247441D02*
D03*
X1071653Y246752D02*
D03*
X1054035Y198031D02*
D03*
X1061417Y206791D02*
D03*
X1070571Y212008D02*
D03*
X1125591Y170276D02*
D03*
X1101378Y176969D02*
D03*
X1112992Y172736D02*
D03*
X1137303Y173031D02*
D03*
X1145571Y168504D02*
D03*
X1162106Y215551D02*
D03*
X1157874Y227067D02*
D03*
X1175394Y212402D02*
D03*
X1188386Y202165D02*
D03*
X1186319Y216634D02*
D03*
X1124606Y287402D02*
D03*
X1133366Y294488D02*
D03*
X1109153Y287795D02*
D03*
X1097933Y298622D02*
D03*
X1069488Y284252D02*
D03*
X1070571Y296161D02*
D03*
X1119291Y296949D02*
D03*
X211024Y456201D02*
D03*
X474803Y235531D02*
D03*
X474705Y242126D02*
D03*
X417520Y504921D02*
D03*
X190256Y500098D02*
D03*
X248327Y364665D02*
D03*
X173524Y250886D02*
D03*
X289370Y389272D02*
D03*
X217520Y309547D02*
D03*
X262402Y316732D02*
D03*
X252362Y238976D02*
D03*
X242815Y470472D02*
D03*
X241339Y377362D02*
D03*
X259055Y385925D02*
D03*
X257283Y374114D02*
D03*
X494882Y363878D02*
D03*
X476673Y263189D02*
D03*
X492421Y243799D02*
D03*
X385039Y173425D02*
D03*
X292913Y187303D02*
D03*
X184055Y231791D02*
D03*
X175000Y218701D02*
D03*
X254232Y196850D02*
D03*
X227461Y167224D02*
D03*
X272539Y191634D02*
D03*
X193602Y447539D02*
D03*
X175000Y455217D02*
D03*
X218406Y522539D02*
D03*
X190453Y519291D02*
D03*
X254724Y487008D02*
D03*
X255709Y512500D02*
D03*
X373130Y427362D02*
D03*
X430413Y346752D02*
D03*
X439961Y405413D02*
D03*
X474311Y462205D02*
D03*
X497736Y443602D02*
D03*
X423721Y461811D02*
D03*
X382185Y489961D02*
D03*
X490551Y483760D02*
D03*
X450394Y443602D02*
D03*
X446654Y486122D02*
D03*
X398917Y448917D02*
D03*
X366437Y369587D02*
D03*
X389370Y337205D02*
D03*
X366437Y317126D02*
D03*
X248031Y211221D02*
D03*
X341240Y220866D02*
D03*
X296358Y198130D02*
D03*
X345965Y171949D02*
D03*
X405807Y244488D02*
D03*
X404823Y339469D02*
D03*
X410532Y375787D02*
D03*
X391240Y367421D02*
D03*
X404823Y318012D02*
D03*
X442028Y267224D02*
D03*
X435433Y244980D02*
D03*
X422638Y258661D02*
D03*
X452264Y287106D02*
D03*
X483071Y318504D02*
D03*
X506693Y285433D02*
D03*
X510925Y365748D02*
D03*
X480413Y344193D02*
D03*
X499803Y313780D02*
D03*
X474606Y289665D02*
D03*
X490354Y269685D02*
D03*
X422421Y309724D02*
D03*
X194291Y469587D02*
D03*
X194882Y477362D02*
D03*
X250746Y311234D02*
D03*
X258184Y359147D02*
D03*
X231246Y317934D02*
D03*
X271752Y273622D02*
D03*
X279134D02*
D03*
X216043Y469488D02*
D03*
X350886Y199803D02*
D03*
X355610Y192717D02*
D03*
X240158Y266929D02*
D03*
X238090Y404134D02*
D03*
X202751Y346005D02*
D03*
Y339036D02*
D03*
Y332068D02*
D03*
Y325099D02*
D03*
Y311162D02*
D03*
Y283288D02*
D03*
Y276320D02*
D03*
X212757Y248658D02*
D03*
X193504Y248622D02*
D03*
X172844Y261342D02*
D03*
X170465Y267892D02*
D03*
X170084Y274850D02*
D03*
Y281819D02*
D03*
Y288787D02*
D03*
Y295756D02*
D03*
Y302724D02*
D03*
Y309693D02*
D03*
Y316661D02*
D03*
Y323630D02*
D03*
Y330598D02*
D03*
Y337567D02*
D03*
Y344535D02*
D03*
Y351504D02*
D03*
Y358472D02*
D03*
Y365441D02*
D03*
Y372409D02*
D03*
Y379378D02*
D03*
Y386346D02*
D03*
Y393315D02*
D03*
Y400283D02*
D03*
Y407252D02*
D03*
X170550Y414205D02*
D03*
X172286Y420953D02*
D03*
X175314Y427230D02*
D03*
X179511Y432792D02*
D03*
X184968Y437126D02*
D03*
X191619Y439205D02*
D03*
X226439Y410154D02*
D03*
X226432Y404154D02*
D03*
X226395Y398154D02*
D03*
X224605Y368520D02*
D03*
X208427Y354472D02*
D03*
X318898Y507874D02*
D03*
X298398Y498737D02*
D03*
X299014Y492769D02*
D03*
X299027Y486769D02*
D03*
X299040Y480769D02*
D03*
X299053Y474769D02*
D03*
X299066Y468769D02*
D03*
X299079Y462769D02*
D03*
X299092Y456769D02*
D03*
X299105Y450769D02*
D03*
X266442Y449076D02*
D03*
X266429Y455076D02*
D03*
X266416Y461076D02*
D03*
X266403Y467076D02*
D03*
X266390Y473076D02*
D03*
X266377Y479076D02*
D03*
X266364Y485076D02*
D03*
X266351Y491076D02*
D03*
X266580Y497072D02*
D03*
X309893Y444014D02*
D03*
X315581Y442104D02*
D03*
X320773Y439097D02*
D03*
X325249Y435102D02*
D03*
X328859Y430309D02*
D03*
X331407Y424877D02*
D03*
X332852Y419054D02*
D03*
X333158Y413062D02*
D03*
Y407062D02*
D03*
Y401062D02*
D03*
Y395062D02*
D03*
Y389062D02*
D03*
Y383062D02*
D03*
Y377062D02*
D03*
Y371062D02*
D03*
Y365062D02*
D03*
Y359062D02*
D03*
Y353062D02*
D03*
Y347062D02*
D03*
Y341062D02*
D03*
Y335062D02*
D03*
Y329062D02*
D03*
Y323062D02*
D03*
Y317062D02*
D03*
Y311062D02*
D03*
Y305062D02*
D03*
Y299062D02*
D03*
Y293062D02*
D03*
Y287062D02*
D03*
Y281062D02*
D03*
Y275062D02*
D03*
X333095Y269062D02*
D03*
X331578Y263257D02*
D03*
X328450Y258137D02*
D03*
X327648Y252191D02*
D03*
X324812Y246903D02*
D03*
X319624Y243890D02*
D03*
X313626Y243730D02*
D03*
X308257Y246409D02*
D03*
X305115Y251521D02*
D03*
X302131Y262935D02*
D03*
X300587Y268733D02*
D03*
X300491Y274732D02*
D03*
Y280732D02*
D03*
Y286732D02*
D03*
Y292732D02*
D03*
Y298732D02*
D03*
Y304732D02*
D03*
Y310732D02*
D03*
Y316732D02*
D03*
Y322732D02*
D03*
Y328732D02*
D03*
Y334732D02*
D03*
Y340732D02*
D03*
Y346732D02*
D03*
Y352732D02*
D03*
Y358732D02*
D03*
Y364732D02*
D03*
Y370732D02*
D03*
Y376732D02*
D03*
Y382732D02*
D03*
Y388732D02*
D03*
Y394732D02*
D03*
Y400732D02*
D03*
Y406732D02*
D03*
X299431Y412638D02*
D03*
X293982Y415149D02*
D03*
X265693Y412734D02*
D03*
X259694Y412605D02*
D03*
X253694D02*
D03*
X247694D02*
D03*
X241694D02*
D03*
X221251Y442549D02*
D03*
X226820Y444781D02*
D03*
X244800Y445269D02*
D03*
X250800D02*
D03*
X256801D02*
D03*
X238287Y396063D02*
D03*
X231791Y390551D02*
D03*
X236614Y456004D02*
D03*
X210236Y428839D02*
D03*
X282776Y428937D02*
D03*
X232579Y325886D02*
D03*
X214862Y329232D02*
D03*
X232776Y258661D02*
D03*
X250590Y324606D02*
D03*
X231988Y305610D02*
D03*
X223917Y293996D02*
D03*
X213681D02*
D03*
X240453Y276772D02*
D03*
X201476Y463681D02*
D03*
X169095Y491437D02*
D03*
X317618Y462008D02*
D03*
X287697Y221555D02*
D03*
X324213Y198228D02*
D03*
X522539Y397736D02*
D03*
X431102Y377067D02*
D03*
X521752Y472047D02*
D03*
X510925Y507087D02*
D03*
X391043Y313484D02*
D03*
X369980Y273031D02*
D03*
X365158Y229331D02*
D03*
X519390Y243209D02*
D03*
X704921Y419488D02*
D03*
X726181Y326181D02*
D03*
X674606Y332087D02*
D03*
X830145Y465185D02*
D03*
X827362Y516732D02*
D03*
X830512Y321063D02*
D03*
X813189Y462795D02*
D03*
X822638Y451378D02*
D03*
X824213Y304921D02*
D03*
X763976Y481299D02*
D03*
X662795Y387598D02*
D03*
X826575Y351772D02*
D03*
X827362Y363976D02*
D03*
X704528Y268307D02*
D03*
X843110Y378937D02*
D03*
X812795Y358465D02*
D03*
X838386Y332480D02*
D03*
X674606Y316929D02*
D03*
X749016Y441535D02*
D03*
X674606Y489961D02*
D03*
Y473819D02*
D03*
X836417Y477559D02*
D03*
X824606Y503150D02*
D03*
X812598Y511811D02*
D03*
X836417Y531693D02*
D03*
X759646Y441535D02*
D03*
X755709Y497047D02*
D03*
X732480Y346260D02*
D03*
X662795Y421260D02*
D03*
X814370Y316732D02*
D03*
X1083858Y506791D02*
D03*
X1108071Y489272D02*
D03*
X1181004Y496260D02*
D03*
X1056496Y492028D02*
D03*
X1058268Y454823D02*
D03*
X1104921Y447539D02*
D03*
X1106299Y459055D02*
D03*
X1071653Y458366D02*
D03*
X1054035Y409646D02*
D03*
X1061417Y418405D02*
D03*
X1070571Y423622D02*
D03*
X1125591Y381890D02*
D03*
X1101378Y388583D02*
D03*
X1112992Y384350D02*
D03*
X1137303Y384646D02*
D03*
X1145571Y380118D02*
D03*
X1162106Y427165D02*
D03*
X1157874Y438681D02*
D03*
X1175394Y424016D02*
D03*
X1188386Y413779D02*
D03*
X1186319Y428248D02*
D03*
X1124606Y499016D02*
D03*
X1133366Y506102D02*
D03*
X1109153Y499409D02*
D03*
X1097933Y510236D02*
D03*
X1069488Y495866D02*
D03*
X1070571Y507776D02*
D03*
X1119291Y508563D02*
D03*
D69*
X1122539Y204429D02*
D03*
X1118209D02*
D03*
X1122539Y208760D02*
D03*
X1118209D02*
D03*
X1096358Y254035D02*
D03*
X1127953Y270965D02*
D03*
X1081594Y243996D02*
D03*
X1094094Y270866D02*
D03*
Y280512D02*
D03*
X1112598Y256693D02*
D03*
X1137736Y250846D02*
D03*
X1162598Y287205D02*
D03*
X1151968D02*
D03*
X1142815Y250787D02*
D03*
X1156594Y238090D02*
D03*
X1132776Y250787D02*
D03*
X1102067Y226279D02*
D03*
X1126968Y231988D02*
D03*
X1114075Y193012D02*
D03*
X1101968Y205512D02*
D03*
X1102067Y210531D02*
D03*
X710039Y426181D02*
D03*
X713976Y276575D02*
D03*
X727362D02*
D03*
X746260Y330512D02*
D03*
X694291Y304921D02*
D03*
X713583Y312008D02*
D03*
X713976Y426181D02*
D03*
X721063Y420669D02*
D03*
X745866Y435236D02*
D03*
X735630Y434449D02*
D03*
X761614Y285236D02*
D03*
X786024Y297047D02*
D03*
X688780Y257283D02*
D03*
Y271457D02*
D03*
X791536Y458465D02*
D03*
X862402Y500197D02*
D03*
X688386Y408858D02*
D03*
Y421063D02*
D03*
X832087Y498228D02*
D03*
X825000Y466732D02*
D03*
X823032Y322244D02*
D03*
X695472Y213583D02*
D03*
X715748Y415354D02*
D03*
X923425Y398622D02*
D03*
X928937Y405315D02*
D03*
X649803Y211614D02*
D03*
X704528Y491142D02*
D03*
X669095Y409646D02*
D03*
X644291Y336811D02*
D03*
X704528D02*
D03*
X671063Y259646D02*
D03*
Y241535D02*
D03*
X656102Y379331D02*
D03*
X717913Y535630D02*
D03*
X921063Y525787D02*
D03*
X841043Y208366D02*
D03*
X845965Y203642D02*
D03*
X922244Y408465D02*
D03*
X869882Y316732D02*
D03*
Y369094D02*
D03*
X864764Y517913D02*
D03*
X869882Y465551D02*
D03*
X864370Y312008D02*
D03*
X700197Y379331D02*
D03*
X680118Y275787D02*
D03*
X745472Y375394D02*
D03*
X791929Y300984D02*
D03*
X697441Y375500D02*
D03*
X743898Y284449D02*
D03*
X694685Y452953D02*
D03*
X726181Y449016D02*
D03*
X697047Y525787D02*
D03*
X745866Y452165D02*
D03*
X694685Y486417D02*
D03*
X699606D02*
D03*
X790158Y449016D02*
D03*
X791142Y495276D02*
D03*
X778346D02*
D03*
X748819Y527756D02*
D03*
X746850Y485433D02*
D03*
X784252Y492323D02*
D03*
X750787Y509055D02*
D03*
X722638Y460039D02*
D03*
X714370Y460433D02*
D03*
X863976Y457874D02*
D03*
X700197Y531693D02*
D03*
X679724Y425787D02*
D03*
Y407283D02*
D03*
X791142Y342323D02*
D03*
X776968D02*
D03*
X785630Y339173D02*
D03*
X750984Y354134D02*
D03*
X715551Y259252D02*
D03*
X721063Y269882D02*
D03*
X710039Y276575D02*
D03*
X699409D02*
D03*
X726181Y297047D02*
D03*
X680118Y253346D02*
D03*
X744185Y304815D02*
D03*
X694291Y331693D02*
D03*
X699803D02*
D03*
X723032Y312402D02*
D03*
X697835Y425000D02*
D03*
X870276Y416732D02*
D03*
X1122539Y416043D02*
D03*
X1118209D02*
D03*
X1122539Y420374D02*
D03*
X1118209D02*
D03*
X1096358Y465650D02*
D03*
X1127953Y482579D02*
D03*
X1081594Y455610D02*
D03*
X1094094Y482480D02*
D03*
Y492126D02*
D03*
X1112598Y468307D02*
D03*
X1137736Y462461D02*
D03*
X1162598Y498819D02*
D03*
X1151968D02*
D03*
X1142815Y462402D02*
D03*
X1156594Y449705D02*
D03*
X1132776Y462402D02*
D03*
X1102067Y437894D02*
D03*
X1126968Y443602D02*
D03*
X1114075Y404626D02*
D03*
X1101968Y417126D02*
D03*
X1102067Y422146D02*
D03*
D70*
X535532Y248898D02*
D03*
Y258898D02*
D03*
Y268898D02*
D03*
Y278898D02*
D03*
Y288898D02*
D03*
Y298898D02*
D03*
Y308898D02*
D03*
Y318898D02*
D03*
Y338858D02*
D03*
Y348858D02*
D03*
Y358858D02*
D03*
Y368858D02*
D03*
Y378858D02*
D03*
Y388858D02*
D03*
Y398858D02*
D03*
Y408858D02*
D03*
X345472Y408839D02*
D03*
Y418839D02*
D03*
Y428839D02*
D03*
Y438839D02*
D03*
Y448839D02*
D03*
Y458839D02*
D03*
Y468839D02*
D03*
Y478839D02*
D03*
Y318878D02*
D03*
Y328878D02*
D03*
Y338878D02*
D03*
Y348878D02*
D03*
Y358878D02*
D03*
Y368878D02*
D03*
Y378878D02*
D03*
Y388878D02*
D03*
Y228917D02*
D03*
Y238917D02*
D03*
Y248917D02*
D03*
Y258917D02*
D03*
Y268917D02*
D03*
Y278917D02*
D03*
Y288917D02*
D03*
Y298917D02*
D03*
X535532Y424862D02*
D03*
Y434862D02*
D03*
Y444862D02*
D03*
Y454862D02*
D03*
Y464862D02*
D03*
Y474862D02*
D03*
Y484862D02*
D03*
Y494862D02*
D03*
Y504862D02*
D03*
Y514862D02*
D03*
Y218898D02*
D03*
Y208898D02*
D03*
X525531Y218898D02*
D03*
Y208898D02*
D03*
X515531Y218898D02*
D03*
Y208898D02*
D03*
X505532Y218898D02*
D03*
Y208898D02*
D03*
X495532Y218898D02*
D03*
Y208898D02*
D03*
X485532Y218898D02*
D03*
Y208898D02*
D03*
X475531Y218898D02*
D03*
Y208898D02*
D03*
X465531Y218898D02*
D03*
Y208898D02*
D03*
X455532Y218898D02*
D03*
Y208898D02*
D03*
X445532Y218898D02*
D03*
Y208898D02*
D03*
X435532Y218898D02*
D03*
Y208898D02*
D03*
X425531Y218898D02*
D03*
Y208898D02*
D03*
X415531Y218898D02*
D03*
Y208898D02*
D03*
X405532Y218898D02*
D03*
Y208898D02*
D03*
X395532Y218898D02*
D03*
Y208898D02*
D03*
X385531Y218898D02*
D03*
Y208898D02*
D03*
X375532Y218898D02*
D03*
Y208898D02*
D03*
X365531Y218898D02*
D03*
Y208898D02*
D03*
X915315Y517008D02*
D03*
X905315Y507008D02*
D03*
X895315Y517008D02*
D03*
X915315Y482559D02*
D03*
X905315Y472559D02*
D03*
X895315Y482559D02*
D03*
X915315Y448110D02*
D03*
X905315Y438110D02*
D03*
X895315Y448110D02*
D03*
X915315Y338071D02*
D03*
X905315Y328071D02*
D03*
X895315Y338071D02*
D03*
X915315Y303622D02*
D03*
X905315Y293622D02*
D03*
X895315Y303622D02*
D03*
X915315Y372520D02*
D03*
X905315Y362520D02*
D03*
X895315Y372520D02*
D03*
D71*
X220236Y358701D02*
D03*
X200236D02*
D03*
Y378701D02*
D03*
X220236D02*
D03*
X272973Y528996D02*
D03*
X292973D02*
D03*
Y508996D02*
D03*
X272973D02*
D03*
D72*
X210236Y368701D02*
D03*
X282973Y518996D02*
D03*
D73*
X745079Y263976D02*
D03*
Y274606D02*
D03*
X856496Y505315D02*
D03*
X832874Y347047D02*
D03*
X849409Y346654D02*
D03*
X841142Y312008D02*
D03*
X776575Y500591D02*
D03*
X790748Y508071D02*
D03*
X716732Y296850D02*
D03*
Y292520D02*
D03*
X712402Y296850D02*
D03*
Y292520D02*
D03*
X708071Y296850D02*
D03*
Y292520D02*
D03*
X703740Y296850D02*
D03*
Y292520D02*
D03*
X716732Y445472D02*
D03*
Y441142D02*
D03*
X712402Y445472D02*
D03*
Y441142D02*
D03*
X708071Y445472D02*
D03*
Y441142D02*
D03*
X703740Y445472D02*
D03*
Y441142D02*
D03*
M02*
