M48
;Layer_Color=9474304
;FILE_FORMAT=2:5
INCH,LZ
;TYPE=PLATED
T1F00S00C0.00984
T2F00S00C0.01181
T3F00S00C0.01772
T4F00S00C0.02799
T5F00S00C0.02800
T6F00S00C0.03000
T7F00S00C0.03543
T8F00S00C0.04724
T9F00S00C0.06693
T10F00S00C0.07874
T11F00S00C0.25591
;TYPE=NON_PLATED
T12F00S00C0.25591
%
T01
X0841142Y0312008
X0716732Y029685
Y029252
X0712402
Y029685
X0708071
X070374
Y029252
X0708071
X0745079Y0263976
X0716732Y0441142
Y0445472
X0712402
Y0441142
X0708071
X070374
Y0445472
X0708071
X0832874Y0347047
X0849409Y0346654
X0856496Y0505315
X0790748Y0508071
X0776575Y0500591
T02
X1114075Y0193012
X1118209Y0204429
X1122539
Y020876
X1118209
X1102067Y0210531
X1101968Y0205512
X1102067Y0226279
X1126968Y0231988
X1132776Y0250787
X1137736Y0250846
X1142815Y0250787
X1156594Y023809
X1151968Y0287205
X1162598
X1127953Y0270965
X1112598Y0256693
X1096358Y0254035
X1094094Y0270866
Y0280512
X1081594Y0243996
X0845965Y0203642
X0841043Y0208366
X086437Y0312008
X0791929Y0300984
X0786024Y0297047
X0761614Y0285236
X0743898Y0284449
X0745079Y0274606
X0727362Y0276575
X0721063Y0269882
X0713976Y0276575
X0699409
X068878Y0271457
X0680118Y0275787
Y0253346
X068878Y0257283
X0671063Y0259646
Y0241535
X0649803Y0211614
X0695472Y0213583
X0715551Y0259252
X0726181Y0297047
X0723032Y0312402
X0713583Y0312008
X0694291Y0304921
X0744185Y0304815
X074626Y0330512
X0750984Y0354134
X0745472Y0375394
X0697441Y03755
X0700197Y0379331
X0688386Y0408858
X0679724Y0407283
X0669095Y0409646
X0679724Y0425787
X0688386Y0421063
X0697835Y0425
X0713976Y0426181
X0721063Y0420669
X0715748Y0415354
X073563Y0434449
X0745866Y0435236
Y0452165
X0726181Y0449016
X0722638Y0460039
X071437Y0460433
X0694685Y0452953
X0656102Y0379331
X0644291Y0336811
X0694291Y0331693
X0699803
X0704528Y0336811
X0776968Y0342323
X078563Y0339173
X0791142Y0342323
X0823032Y0322244
X0869882Y0316732
Y0369094
X0870276Y0416732
X0863976Y0457874
X0869882Y0465551
X0825Y0466732
X0791536Y0458465
X0790158Y0449016
X0922244Y0408465
X0928937Y0405315
X0923425Y0398622
X1081594Y045561
X1096358Y046565
X1112598Y0468307
X1132776Y0462402
X1137736Y0462461
X1142815Y0462402
X1156594Y0449705
X1126968Y0443602
X1122539Y0420374
Y0416043
X1118209
Y0420374
X1102067Y0422146
X1101968Y0417126
X1102067Y0437894
X1114075Y0404626
X1127953Y0482579
X1094094Y048248
Y0492126
X1151968Y0498819
X1162598
X0921063Y0525787
X0864764Y0517913
X0862402Y0500197
X0832087Y0498228
X0791142Y0495276
X0784252Y0492323
X0778346Y0495276
X0750787Y0509055
X0748819Y0527756
X0717913Y053563
X0700197Y0531693
X0697047Y0525787
X0694685Y0486417
X0699606
X0704528Y0491142
X074685Y0485433
T03
X0710039Y0276575
X0710039Y0426181
T04
X0824213Y0304921
X0704528Y0268307
X0202751Y027632
Y0283288
Y0311162
X0170084Y0309693
Y0302724
Y0295756
Y0288787
Y0281819
Y027485
X0170465Y0267892
X0172844Y0261342
X0193504Y0248622
X0212757Y0248658
X0202751Y0325099
Y0332068
Y0339036
Y0346005
X0170084Y0344535
Y0337567
Y0330598
Y032363
Y0316661
Y0351504
Y0358472
Y0365441
Y0372409
Y0379378
Y0386346
Y0393315
Y0400283
Y0407252
X017055Y0414205
X0172286Y0420953
X0175314Y042723
X0179511Y0432792
X0184968Y0437126
X0191619Y0439205
X0662795Y042126
Y0387598
X0674606Y0332087
Y0316929
X0726181Y0326181
X073248Y034626
X0704921Y0419488
X0749016Y0441535
X0759646
X0822638Y0451378
X0813189Y0462795
X0830145Y0465185
X084311Y0378937
X0827362Y0363976
X0826575Y0351772
X0812795Y0358465
X081437Y0316732
X0830512Y0321063
X0838386Y033248
X0836417Y0477559
X0824606Y050315
X0827362Y0516732
X0812598Y0511811
X0836417Y0531693
X0755709Y0497047
X0763976Y0481299
X0674606Y0473819
Y0489961
T05
X1101378Y0176969
X1112992Y0172736
X1125591Y0170276
X1137303Y0173031
X1145571Y0168504
X1162106Y0215551
X1157874Y0227067
X1175394Y0212402
X1186319Y0216634
X1188386Y0202165
X1181004Y0284646
X1133366Y0294488
X1124606Y0287402
X1119291Y0296949
X1109153Y0287795
X1108071Y0277658
X1097933Y0298622
X1106299Y0247441
X1104921Y0235925
X1071653Y0246752
X1058268Y0243209
X1056496Y0280413
X1069488Y0284252
X1070571Y0296161
X1083858Y0295177
X1070571Y0212008
X1061417Y0206791
X1054035Y0198031
X051939Y0243209
X0492421Y0243799
X0474705Y0242126
X0474803Y0235531
X0476673Y0263189
X0490354Y0269685
X0506693Y0285433
X0474606Y0289665
X0452264Y0287106
X0442028Y0267224
X0422638Y0258661
X0435433Y024498
X0405807Y0244488
X0365158Y0229331
X034124Y0220866
X0350886Y0199803
X035561Y0192717
X0345965Y0171949
X0385039Y0173425
X0324213Y0198228
X0324812Y0246903
X0327648Y0252191
X032845Y0258137
X0331578Y0263257
X0333095Y0269062
X0333158Y0275062
Y0281062
Y0287062
Y0293062
Y0299062
Y0305062
Y0311062
X036998Y0273031
X0319624Y024389
X0313626Y024373
X0422421Y0309724
X0300491Y0310732
Y0304732
Y0298732
Y0292732
Y0286732
Y0280732
Y0274732
X0300587Y0268733
X0302131Y0262935
X0305115Y0251521
X0308257Y0246409
X0287697Y0221555
X0296358Y019813
X0292913Y0187303
X0272539Y0191634
X0254232Y019685
X0248031Y0211221
X0252362Y0238976
X0232776Y0258661
X0240158Y0266929
X0240453Y0276772
X0223917Y0293996
X0213681
X021752Y0309547
X0231988Y030561
X0250746Y0311234
X0271752Y0273622
X0279134
X0173524Y0250886
X0184055Y0231791
X0175Y0218701
X0227461Y0167224
X0231246Y0317934
X0232579Y0325886
X025059Y0324606
X0262402Y0316732
X0300491Y0316732
Y0322732
Y0328732
Y0334732
Y0340732
Y0346732
Y0352732
Y0358732
Y0364732
Y0370732
Y0376732
Y0382732
Y0388732
Y0394732
Y0400732
Y0406732
X0299431Y0412638
X0293982Y0415149
X0282776Y0428937
X0265693Y0412734
X0259694Y0412605
X0253694
X0247694
X0241694
X023809Y0404134
X0238287Y0396063
X0231791Y0390551
X0226395Y0398154
X0226432Y0404154
X0226439Y0410154
X0210236Y0428839
X0221251Y0442549
X022682Y0444781
X02448Y0445269
X02508
X0256801
X0266442Y0449076
X0266429Y0455076
X0266416Y0461076
X0266403Y0467076
X0299079Y0462769
X0299092Y0456769
X0299105Y0450769
X0309893Y0444014
X028937Y0389272
X0259055Y0385925
X0257283Y0374114
X0258184Y0359147
X0248327Y0364665
X0241339Y0377362
X0224605Y036852
X0208427Y0354472
X0214862Y0329232
X0211024Y0456201
X0201476Y0463681
X0193602Y0447539
X0175Y0455217
X0236614Y0456004
X0317618Y0462008
X0315581Y0442104
X0320773Y0439097
X0325249Y0435102
X0328859Y0430309
X0331407Y0424877
X0332852Y0419054
X0333158Y0413062
Y0407062
Y0401062
Y0395062
Y0389062
Y0383062
Y0377062
Y0371062
Y0365062
Y0359062
Y0353062
Y0347062
Y0341062
Y0335062
Y0329062
Y0323062
Y0317062
X0366437Y0317126
X0391043Y0313484
X0404823Y0318012
Y0339469
X038937Y0337205
X039124Y0367421
X0366437Y0369587
X0410532Y0375787
X0431102Y0377067
X0430413Y0346752
X0439961Y0405413
X0450394Y0443602
X0423721Y0461811
X0398917Y0448917
X037313Y0427362
X0474311Y0462205
X0497736Y0443602
X0522539Y0397736
X0510925Y0365748
X0494882Y0363878
X0480413Y0344193
X0483071Y0318504
X0499803Y031378
X1054035Y0409646
X1061417Y0418405
X1070571Y0423622
X1071653Y0458366
X1058268Y0454823
X1106299Y0459055
X1104921Y0447539
X1157874Y0438681
X1162106Y0427165
X1175394Y0424016
X1186319Y0428248
X1188386Y0413779
X1145571Y0380118
X1137303Y0384646
X1125591Y038189
X1112992Y038435
X1101378Y0388583
X1108071Y0489272
X1109153Y0499409
X1124606Y0499016
X1119291Y0508563
X1133366Y0506102
X1097933Y0510236
X1181004Y049626
X1083858Y0506791
X1070571Y0507776
X1069488Y0495866
X1056496Y0492028
X0521752Y0472047
X0490551Y048376
X0510925Y0507087
X0446654Y0486122
X041752Y0504921
X0382185Y0489961
X0318898Y0507874
X0298398Y0498737
X0299014Y0492769
X0299027Y0486769
X029904Y0480769
X0299053Y0474769
X0299066Y0468769
X026639Y0473076
X0266377Y0479076
X0266364Y0485076
X0266351Y0491076
X026658Y0497072
X0254724Y0487008
X0255709Y05125
X0218406Y0522539
X0190453Y0519291
X0190256Y0500098
X0194882Y0477362
X0194291Y0469587
X0216043Y0469488
X0242815Y0470472
X0169095Y0491437
T06
X0905315Y0293622
X0915315Y0303622
X0895315
X0535532Y0298898
Y0288898
Y0278898
Y0268898
Y0258898
Y0248898
Y0218898
Y0208898
X0525531
Y0218898
X0515531
Y0208898
X0505532
Y0218898
X0495532
Y0208898
X0485532
Y0218898
X0475531
Y0208898
X0535532Y0308898
X0465531Y0218898
Y0208898
X0455532
Y0218898
X0445532
Y0208898
X0435532
Y0218898
X0425531
Y0208898
X0415531
Y0218898
X0405532
Y0208898
X0395532
Y0218898
X0385531
Y0208898
X0375532
Y0218898
X0365531
Y0208898
X0345472Y0228917
Y0238917
Y0248917
Y0258917
Y0268917
Y0278917
Y0288917
Y0298917
Y0318878
Y0328878
Y0338878
Y0348878
Y0358878
Y0368878
Y0378878
Y0388878
Y0408839
Y0418839
Y0428839
Y0438839
Y0448839
Y0458839
X0535532Y0454862
Y0444862
Y0434862
Y0424862
Y0408858
Y0398858
Y0388858
Y0378858
Y0368858
Y0358858
Y0348858
Y0338858
Y0318898
Y0464862
X0895315Y044811
X0915315
X0905315Y043811
X0915315Y037252
X0905315Y036252
X0895315Y037252
Y0338071
X0915315
X0905315Y0328071
Y0472559
X0915315Y0482559
X0895315
X0905315Y0507008
X0915315Y0517008
X0895315
X0535532Y0514862
Y0504862
Y0494862
Y0484862
Y0474862
X0345472Y0478839
Y0468839
T07
X1157579Y0297047
X1167579
X1056299Y0228051
Y0218051
X0375453Y0295374
X0365492
X0264173Y0226378
Y0216378
X0250446Y0226434
X0240446
X0230446
X0238283Y0333747
X0248283
X0258283
X0268283
Y0343747
X0258283
X0248283
X0238283
X1056299Y0429665
Y0439665
X1157579Y0508661
X1167579
X0231024Y0498189
Y0488189
X0221024
Y0498189
X0211024
Y0488189
T08
X0210236Y0368701
X0282973Y0518996
T09
X0200236Y0358701
X0220236
Y0378701
X0200236
X0272973Y0508996
Y0528996
X0292973
Y0508996
T10
X1187795Y0165551
Y0297047
X1056299
Y0165551
X0540453Y016437
X0395669Y0163878
Y0295374
X0264173
Y0163878
X0169291Y016437
X1056299Y0377165
X1187795Y0377165
Y0508661
X1056299
X0540453Y0526968
X0169291Y0526968
T11
X116811Y0185236
X1075984
X0514764Y018061
X0204823Y0210138
X0639567Y0413583
Y0462795
X0950504Y0454559
Y0363386
Y0314173
X1075984Y039685
X116811
X0950504Y0505059
T12
X0470677Y018061
X0639567Y0512008
M30
