%FSLAX25Y25*%
%MOIN*%
G70*
G01*
G75*
G04 Layer_Color=65535*
%ADD10O,0.02362X0.05906*%
G04:AMPARAMS|DCode=11|XSize=23.62mil|YSize=35.43mil|CornerRadius=5.91mil|HoleSize=0mil|Usage=FLASHONLY|Rotation=180.000|XOffset=0mil|YOffset=0mil|HoleType=Round|Shape=RoundedRectangle|*
%AMROUNDEDRECTD11*
21,1,0.02362,0.02362,0,0,180.0*
21,1,0.01181,0.03543,0,0,180.0*
1,1,0.01181,-0.00591,0.01181*
1,1,0.01181,0.00591,0.01181*
1,1,0.01181,0.00591,-0.01181*
1,1,0.01181,-0.00591,-0.01181*
%
%ADD11ROUNDEDRECTD11*%
%ADD12R,0.01654X0.03500*%
%ADD13R,0.03543X0.02756*%
G04:AMPARAMS|DCode=14|XSize=23.62mil|YSize=35.43mil|CornerRadius=5.91mil|HoleSize=0mil|Usage=FLASHONLY|Rotation=270.000|XOffset=0mil|YOffset=0mil|HoleType=Round|Shape=RoundedRectangle|*
%AMROUNDEDRECTD14*
21,1,0.02362,0.02362,0,0,270.0*
21,1,0.01181,0.03543,0,0,270.0*
1,1,0.01181,-0.01181,-0.00591*
1,1,0.01181,-0.01181,0.00591*
1,1,0.01181,0.01181,0.00591*
1,1,0.01181,0.01181,-0.00591*
%
%ADD14ROUNDEDRECTD14*%
%ADD15R,0.05906X0.09449*%
%ADD16R,0.09685X0.09095*%
%ADD17O,0.05512X0.01772*%
%ADD18R,0.02756X0.03543*%
G04:AMPARAMS|DCode=19|XSize=31.5mil|YSize=66.93mil|CornerRadius=7.87mil|HoleSize=0mil|Usage=FLASHONLY|Rotation=90.000|XOffset=0mil|YOffset=0mil|HoleType=Round|Shape=RoundedRectangle|*
%AMROUNDEDRECTD19*
21,1,0.03150,0.05118,0,0,90.0*
21,1,0.01575,0.06693,0,0,90.0*
1,1,0.01575,0.02559,0.00787*
1,1,0.01575,0.02559,-0.00787*
1,1,0.01575,-0.02559,-0.00787*
1,1,0.01575,-0.02559,0.00787*
%
%ADD19ROUNDEDRECTD19*%
G04:AMPARAMS|DCode=20|XSize=82.68mil|YSize=137.8mil|CornerRadius=20.67mil|HoleSize=0mil|Usage=FLASHONLY|Rotation=90.000|XOffset=0mil|YOffset=0mil|HoleType=Round|Shape=RoundedRectangle|*
%AMROUNDEDRECTD20*
21,1,0.08268,0.09646,0,0,90.0*
21,1,0.04134,0.13780,0,0,90.0*
1,1,0.04134,0.04823,0.02067*
1,1,0.04134,0.04823,-0.02067*
1,1,0.04134,-0.04823,-0.02067*
1,1,0.04134,-0.04823,0.02067*
%
%ADD20ROUNDEDRECTD20*%
%ADD21C,0.01181*%
%ADD22C,0.00787*%
%ADD23C,0.01969*%
%ADD24C,0.04331*%
%ADD25C,0.07874*%
%ADD26C,0.05512*%
%ADD27C,0.04724*%
%ADD28C,0.05906*%
%ADD29C,0.01000*%
%ADD30C,0.11798*%
%ADD31O,0.09843X0.02953*%
%ADD32O,0.04803X0.01575*%
%ADD33R,0.08661X0.03150*%
%ADD34O,0.01102X0.02520*%
%ADD35O,0.02520X0.01102*%
%ADD36O,0.00984X0.03189*%
%ADD37O,0.03189X0.00984*%
%ADD38R,0.01969X0.01181*%
%ADD39C,0.03937*%
%ADD40C,0.07087*%
%ADD41C,0.11794*%
%ADD42C,0.01102*%
%ADD43R,0.08071X0.08268*%
%ADD44R,0.07185X0.07677*%
%ADD45R,0.02362X0.05906*%
%ADD46R,0.04331X0.06693*%
%ADD47R,0.04449X0.08740*%
%ADD48R,0.03543X0.03150*%
%ADD49R,0.19488X0.10787*%
%ADD50O,0.01772X0.05512*%
%ADD51R,0.04331X0.02362*%
%ADD52R,0.05118X0.02756*%
%ADD53R,0.03500X0.01654*%
G04:AMPARAMS|DCode=54|XSize=31.5mil|YSize=66.93mil|CornerRadius=7.87mil|HoleSize=0mil|Usage=FLASHONLY|Rotation=0.000|XOffset=0mil|YOffset=0mil|HoleType=Round|Shape=RoundedRectangle|*
%AMROUNDEDRECTD54*
21,1,0.03150,0.05118,0,0,0.0*
21,1,0.01575,0.06693,0,0,0.0*
1,1,0.01575,0.00787,-0.02559*
1,1,0.01575,-0.00787,-0.02559*
1,1,0.01575,-0.00787,0.02559*
1,1,0.01575,0.00787,0.02559*
%
%ADD54ROUNDEDRECTD54*%
G04:AMPARAMS|DCode=55|XSize=82.68mil|YSize=137.8mil|CornerRadius=20.67mil|HoleSize=0mil|Usage=FLASHONLY|Rotation=0.000|XOffset=0mil|YOffset=0mil|HoleType=Round|Shape=RoundedRectangle|*
%AMROUNDEDRECTD55*
21,1,0.08268,0.09646,0,0,0.0*
21,1,0.04134,0.13780,0,0,0.0*
1,1,0.04134,0.02067,-0.04823*
1,1,0.04134,-0.02067,-0.04823*
1,1,0.04134,-0.02067,0.04823*
1,1,0.04134,0.02067,0.04823*
%
%ADD55ROUNDEDRECTD55*%
%ADD56R,0.03150X0.03543*%
%ADD57C,0.02756*%
%ADD58C,0.01575*%
%ADD59C,0.02362*%
%ADD60C,0.03150*%
%ADD61C,0.01772*%
%ADD62C,0.03543*%
%ADD63C,0.39370*%
%ADD64C,0.05906*%
%ADD65R,0.05906X0.05906*%
%ADD66R,0.05906X0.05906*%
%ADD67C,0.11811*%
%ADD68C,0.05000*%
%ADD69C,0.02756*%
%ADD70C,0.06000*%
%ADD71C,0.11024*%
%ADD72C,0.07874*%
%ADD73C,0.02559*%
%ADD74C,0.00984*%
%ADD75C,0.00492*%
%ADD76C,0.00394*%
D21*
X339075Y525489D02*
Y517289D01*
X340715Y515650D01*
X343994D01*
X345634Y517289D01*
Y525489D01*
X348914Y515650D02*
Y525489D01*
X353834D01*
X355474Y523849D01*
Y520569D01*
X353834Y518929D01*
X348914D01*
X365313Y523849D02*
X363673Y525489D01*
X360393D01*
X358753Y523849D01*
Y517289D01*
X360393Y515650D01*
X363673D01*
X365313Y517289D01*
X368593Y515650D02*
Y525489D01*
X375152Y515650D01*
Y525489D01*
X384992Y523849D02*
X383352Y525489D01*
X380072D01*
X378432Y523849D01*
Y522209D01*
X380072Y520569D01*
X383352D01*
X384992Y518929D01*
Y517289D01*
X383352Y515650D01*
X380072D01*
X378432Y517289D01*
X388271Y525489D02*
Y515650D01*
X394831D01*
X398111Y514010D02*
X404670D01*
X407950Y515650D02*
Y522209D01*
X411230Y525489D01*
X414510Y522209D01*
Y515650D01*
Y520569D01*
X407950D01*
X417790Y525489D02*
Y515650D01*
X422709D01*
X424349Y517289D01*
Y518929D01*
X422709Y520569D01*
X417790D01*
X422709D01*
X424349Y522209D01*
Y523849D01*
X422709Y525489D01*
X417790D01*
X434188Y523849D02*
X432549Y525489D01*
X429269D01*
X427629Y523849D01*
Y522209D01*
X429269Y520569D01*
X432549D01*
X434188Y518929D01*
Y517289D01*
X432549Y515650D01*
X429269D01*
X427629Y517289D01*
X437468Y514010D02*
X444028D01*
X453867Y525489D02*
X447307D01*
Y520569D01*
X450587D01*
X447307D01*
Y515650D01*
X457147Y525489D02*
Y515650D01*
X463706D01*
X473546Y523849D02*
X471906Y525489D01*
X468626D01*
X466986Y523849D01*
Y522209D01*
X468626Y520569D01*
X471906D01*
X473546Y518929D01*
Y517289D01*
X471906Y515650D01*
X468626D01*
X466986Y517289D01*
X476826Y515650D02*
Y525489D01*
X481745D01*
X483385Y523849D01*
Y520569D01*
X481745Y518929D01*
X476826D01*
X480105D02*
X483385Y515650D01*
X493224Y525489D02*
X486665D01*
Y520569D01*
X489945D01*
X486665D01*
Y515650D01*
X503064D02*
X496504D01*
X503064Y522209D01*
Y523849D01*
X501424Y525489D01*
X498144D01*
X496504Y523849D01*
D22*
X1082219Y260097D02*
G03*
X1082219Y260097I-394J0D01*
G01*
X1144882Y261811D02*
Y274016D01*
X1125591Y261811D02*
Y274016D01*
X1144882D01*
X1125591Y261811D02*
X1144882D01*
X1092028Y258169D02*
Y267224D01*
X1079823Y258169D02*
Y267224D01*
X1092028D01*
X1079823Y258169D02*
X1092028D01*
X1081594Y219882D02*
Y221457D01*
X1078839Y219882D02*
Y221457D01*
X1129035Y181201D02*
X1135728D01*
X1129035Y189862D02*
X1135728D01*
X1113091Y196555D02*
X1127658D01*
X1113091Y216634D02*
X1127658D01*
Y196555D02*
Y216634D01*
X1113091Y196555D02*
Y216634D01*
X1062894Y266142D02*
X1064468D01*
X1062894Y268898D02*
X1064468D01*
X1063091Y256890D02*
X1064665D01*
X1063091Y254134D02*
X1064665D01*
X1152579Y302047D02*
X1172579D01*
X1152579Y292047D02*
Y302047D01*
Y292047D02*
X1172579D01*
Y302047D01*
X1061299Y213051D02*
Y233051D01*
X1051299D02*
X1061299D01*
X1051299Y213051D02*
Y233051D01*
Y213051D02*
X1061299D01*
X495502Y421988D02*
G03*
X498002Y421988I1250J0D01*
G01*
X404951D02*
G03*
X407451Y421988I1250J0D01*
G01*
X360492Y290374D02*
Y300374D01*
X380492D01*
Y290374D02*
Y300374D01*
X360492Y290374D02*
X380492D01*
X495502Y421988D02*
X497087D01*
X496417D02*
X498002D01*
X496417Y381988D02*
Y421988D01*
Y381988D02*
X497087D01*
Y421988D01*
X404951D02*
X406535D01*
X405866D02*
X407451D01*
X405866Y381988D02*
Y421988D01*
Y381988D02*
X406535D01*
Y421988D01*
X207323Y356890D02*
X213150D01*
X207323Y380512D02*
X213150D01*
X198425Y365788D02*
Y371614D01*
X222047Y365788D02*
Y371614D01*
X201378Y343110D02*
X219095D01*
X201378D02*
Y351614D01*
X219095Y343110D02*
Y351614D01*
X280059Y530807D02*
X285886D01*
X280059Y507185D02*
X285886D01*
X294784Y516083D02*
Y521909D01*
X271162Y516083D02*
Y521909D01*
X233283Y328747D02*
Y348747D01*
X273283Y328747D02*
Y348747D01*
X233283Y328747D02*
X273283D01*
X233283Y348747D02*
X273283D01*
X242646Y260934D02*
X247244D01*
X242646D02*
Y280434D01*
X257146D01*
Y260934D02*
Y280434D01*
X247244Y260934D02*
X257146D01*
X225446Y221434D02*
Y231434D01*
X255446D01*
Y221434D02*
Y231434D01*
X225446Y221434D02*
X255446D01*
X206851Y428661D02*
X210551Y432362D01*
X213701D01*
Y425512D02*
Y432362D01*
X206851Y425512D02*
X213701D01*
X206851D02*
Y428661D01*
X282559Y425512D02*
X286260Y429213D01*
X279409Y425512D02*
X282559D01*
X279409D02*
Y432362D01*
X286260D01*
Y429213D02*
Y432362D01*
X216857Y483189D02*
X236024D01*
X206024D02*
X236024D01*
X206024Y503189D02*
X236024D01*
X206024Y483189D02*
Y503189D01*
X236024Y483189D02*
Y503189D01*
X269173Y211378D02*
Y231378D01*
X259173D02*
X269173D01*
X259173Y211378D02*
Y231378D01*
Y211378D02*
X269173D01*
X176575Y469390D02*
Y469783D01*
X175689Y477067D02*
Y477461D01*
X839132Y313352D02*
G03*
X839132Y313352I-394J0D01*
G01*
Y511187D02*
G03*
X839132Y511187I-394J0D01*
G01*
Y459021D02*
G03*
X839132Y459021I-394J0D01*
G01*
Y360202D02*
G03*
X839132Y360202I-394J0D01*
G01*
X721654Y349213D02*
Y361417D01*
X687402Y349213D02*
Y361417D01*
X721654D01*
X687402Y349213D02*
X721654D01*
X730118Y266142D02*
X733268D01*
X730118Y260236D02*
X733268D01*
X701575Y255118D02*
X703150D01*
X701575Y257874D02*
X703150D01*
X712795Y314331D02*
X714370D01*
X712795Y322284D02*
X714370D01*
X723228Y287402D02*
Y301969D01*
X697244Y287402D02*
Y301969D01*
X723228D01*
X697244Y287402D02*
X723228D01*
X762402Y348819D02*
X766339D01*
X762402Y361024D02*
X766339D01*
Y348819D02*
Y361024D01*
X762402Y348819D02*
Y361024D01*
X801575Y348425D02*
Y360630D01*
X800394Y348425D02*
Y360630D01*
Y348425D02*
X801575D01*
X800394Y360630D02*
X801575D01*
X750984Y299213D02*
X752559D01*
X750984Y296457D02*
X752559D01*
X803150Y306693D02*
Y318898D01*
X801968Y306693D02*
Y318898D01*
Y306693D02*
X803150D01*
X801968Y318898D02*
X803150D01*
X800197Y295669D02*
X801772D01*
X800197Y292913D02*
X801772D01*
X817126Y294094D02*
X818701D01*
X817126Y296850D02*
X818701D01*
X836811Y303150D02*
Y315354D01*
X845866Y303150D02*
Y315354D01*
X836811D02*
X845866D01*
X836811Y303150D02*
X845866D01*
X875984Y360236D02*
X877559D01*
X875984Y362992D02*
X877559D01*
X875984Y351575D02*
X877559D01*
X875984Y348819D02*
X877559D01*
X876968Y311024D02*
X878543D01*
X876968Y313779D02*
X878543D01*
X876968Y303543D02*
X878543D01*
X876968Y300787D02*
X878543D01*
X802559Y452756D02*
Y464961D01*
X801378Y452756D02*
Y464961D01*
Y452756D02*
X802559D01*
X801378Y464961D02*
X802559D01*
X771654Y464173D02*
X773228D01*
X771654Y461417D02*
X773228D01*
X771654Y453346D02*
X773228D01*
X771654Y450591D02*
X773228D01*
X713976Y462756D02*
X715551D01*
X713976Y470709D02*
X715551D01*
X721654Y501968D02*
Y514173D01*
X687402Y501968D02*
Y514173D01*
X721654D01*
X687402Y501968D02*
X721654D01*
X836811Y500984D02*
X845866D01*
X836811Y513189D02*
X845866D01*
Y500984D02*
Y513189D01*
X836811Y500984D02*
Y513189D01*
X761614Y502953D02*
Y515158D01*
X765551Y502953D02*
Y515158D01*
X761614D02*
X765551D01*
X761614Y502953D02*
X765551D01*
X741536Y509252D02*
Y510827D01*
X744291Y509252D02*
Y510827D01*
X801575Y501968D02*
Y514173D01*
X800394Y501968D02*
Y514173D01*
Y501968D02*
X801575D01*
X800394Y514173D02*
X801575D01*
X723228Y436024D02*
Y450591D01*
X697244Y436024D02*
Y450591D01*
X723228D01*
X697244Y436024D02*
X723228D01*
X730118Y421654D02*
X733268D01*
X730118Y415748D02*
X733268D01*
X783661Y508268D02*
Y509842D01*
X780905Y508268D02*
Y509842D01*
X875984Y501575D02*
X877559D01*
X875984Y498819D02*
X877559D01*
X801181Y446457D02*
X802756D01*
X801181Y443701D02*
X802756D01*
X817913Y495866D02*
X819488D01*
X817913Y498622D02*
X819488D01*
X816929Y443701D02*
X818504D01*
X816929Y446457D02*
X818504D01*
X876968Y450394D02*
X878543D01*
X876968Y447638D02*
X878543D01*
X876968Y456496D02*
X878543D01*
X876968Y459252D02*
X878543D01*
X875984Y509449D02*
X877559D01*
X875984Y506693D02*
X877559D01*
X836811Y448819D02*
X845866D01*
X836811Y461024D02*
X845866D01*
Y448819D02*
Y461024D01*
X836811Y448819D02*
Y461024D01*
X701575Y409449D02*
X703150D01*
X701575Y412205D02*
X703150D01*
X753150Y282480D02*
Y284055D01*
X750394Y282480D02*
Y284055D01*
X771654Y316929D02*
X773228D01*
X771654Y314173D02*
X773228D01*
X771654Y306693D02*
X773228D01*
X771654Y303937D02*
X773228D01*
X836811Y350000D02*
Y362205D01*
X845866Y350000D02*
Y362205D01*
X836811D02*
X845866D01*
X836811Y350000D02*
X845866D01*
X783661Y353346D02*
Y354921D01*
X780905Y353346D02*
Y354921D01*
X741536Y354528D02*
Y356102D01*
X744291Y354528D02*
Y356102D01*
X817913Y343701D02*
X819488D01*
X817913Y346457D02*
X819488D01*
X750984Y448819D02*
X752559D01*
X750984Y446063D02*
X752559D01*
X753150Y431693D02*
Y433268D01*
X750394Y431693D02*
Y433268D01*
X1082219Y471711D02*
G03*
X1082219Y471711I-394J0D01*
G01*
X1144882Y473425D02*
Y485630D01*
X1125591Y473425D02*
Y485630D01*
X1144882D01*
X1125591Y473425D02*
X1144882D01*
X1092028Y469783D02*
Y478839D01*
X1079823Y469783D02*
Y478839D01*
X1092028D01*
X1079823Y469783D02*
X1092028D01*
X1081594Y431496D02*
Y433071D01*
X1078839Y431496D02*
Y433071D01*
X1129035Y392815D02*
X1135728D01*
X1129035Y401476D02*
X1135728D01*
X1113091Y408169D02*
X1127658D01*
X1113091Y428248D02*
X1127658D01*
Y408169D02*
Y428248D01*
X1113091Y408169D02*
Y428248D01*
X1062894Y477756D02*
X1064468D01*
X1062894Y480512D02*
X1064468D01*
X1063091Y468504D02*
X1064665D01*
X1063091Y465748D02*
X1064665D01*
X1152579Y513661D02*
X1172579D01*
X1152579Y503661D02*
Y513661D01*
Y503661D02*
X1172579D01*
Y513661D01*
X1061299Y424665D02*
Y444665D01*
X1051299D02*
X1061299D01*
X1051299Y424665D02*
Y444665D01*
Y424665D02*
X1061299D01*
D29*
X1084646Y282382D02*
X1086220D01*
X1084646Y278445D02*
X1086220D01*
X1066929Y222638D02*
Y224213D01*
X1070866Y222638D02*
Y224213D01*
X1147736Y214469D02*
Y216043D01*
X1143799Y214469D02*
Y216043D01*
X1147539Y202461D02*
Y204035D01*
X1143602Y202461D02*
Y204035D01*
X1141437Y240158D02*
Y241732D01*
X1137500Y240158D02*
Y241732D01*
X1131496Y239961D02*
Y241535D01*
X1127559Y239961D02*
Y241535D01*
X1117815Y239961D02*
Y241535D01*
X1121752Y239961D02*
Y241535D01*
X1118701Y266929D02*
Y268504D01*
X1114764Y266929D02*
Y268504D01*
X1102854Y260827D02*
Y262402D01*
X1098917Y260827D02*
Y262402D01*
X1119390Y226772D02*
X1120965D01*
X1119390Y222835D02*
X1120965D01*
X1189075Y232677D02*
Y268110D01*
X1168209Y275984D02*
X1174114D01*
X1168209Y266142D02*
Y275984D01*
Y224803D02*
Y234646D01*
Y224803D02*
X1174114D01*
X1093602Y228445D02*
X1095177D01*
X1093602Y224508D02*
X1095177D01*
X1086122Y209252D02*
Y210827D01*
X1090059Y209252D02*
Y210827D01*
X290453Y360433D02*
X292027D01*
X290453Y364370D02*
X292027D01*
X277461Y313189D02*
X279035D01*
X277461Y317126D02*
X279035D01*
X204958Y320202D02*
X206533D01*
X204958Y316265D02*
X206533D01*
X204702Y305515D02*
X206277D01*
X204702Y301578D02*
X206277D01*
X204703Y291342D02*
X206277D01*
X204703Y287405D02*
X206277D01*
X207087Y256201D02*
X208661D01*
X207087Y260138D02*
X208661D01*
X175377Y239546D02*
Y241121D01*
X179314Y239546D02*
Y241121D01*
X188477Y239647D02*
Y241221D01*
X192414Y239647D02*
Y241221D01*
X202577Y239647D02*
Y241221D01*
X206514Y239647D02*
Y241221D01*
X213477Y239646D02*
Y241221D01*
X217414Y239646D02*
Y241221D01*
X264195Y252184D02*
Y253759D01*
X268132Y252184D02*
Y253759D01*
X280177Y252146D02*
Y253721D01*
X284114Y252146D02*
Y253721D01*
X312547Y253758D02*
X314122D01*
X312547Y257695D02*
X314122D01*
X252318Y283284D02*
X253893D01*
X252318Y287221D02*
X253893D01*
X248130Y300295D02*
X249705D01*
X248130Y304232D02*
X249705D01*
X247933Y296161D02*
X249508D01*
X247933Y292224D02*
X249508D01*
X236614Y285827D02*
X238189D01*
X236614Y281890D02*
X238189D01*
X225358Y281765D02*
X226933D01*
X225358Y285702D02*
X226933D01*
X220114Y271947D02*
Y273521D01*
X216177Y271947D02*
Y273521D01*
X228058Y240965D02*
X229633D01*
X228058Y244902D02*
X229633D01*
X249628Y258877D02*
X251203D01*
X249628Y254940D02*
X251203D01*
X206577Y268746D02*
Y270321D01*
X210514Y268746D02*
Y270321D01*
X188386Y254921D02*
Y256496D01*
X184449Y254921D02*
Y256496D01*
X218358Y335865D02*
X219933D01*
X218358Y339802D02*
X219933D01*
X223714Y324447D02*
Y326021D01*
X219777Y324447D02*
Y326021D01*
X283858Y330906D02*
X285433D01*
X283858Y326969D02*
X285433D01*
X697047Y273819D02*
X698622D01*
X697047Y269882D02*
X698622D01*
X729134Y282480D02*
Y284055D01*
X733071Y282480D02*
Y284055D01*
Y296654D02*
Y298228D01*
X729134Y296654D02*
Y298228D01*
X729724Y315158D02*
Y316732D01*
X725787Y315158D02*
Y316732D01*
X703740Y316339D02*
Y317913D01*
X699803Y316339D02*
Y317913D01*
X684842Y315551D02*
Y317126D01*
X688779Y315551D02*
Y317126D01*
X684842Y301378D02*
Y302953D01*
X688779Y301378D02*
Y302953D01*
X840354Y345079D02*
X841929D01*
X840354Y341142D02*
X841929D01*
X819488Y314370D02*
Y315945D01*
X823425Y314370D02*
Y315945D01*
X839961Y296260D02*
X841535D01*
X839961Y292323D02*
X841535D01*
Y323031D02*
X843110D01*
X841535Y319094D02*
X843110D01*
X819685Y512205D02*
Y513779D01*
X823622Y512205D02*
Y513779D01*
X728937Y463189D02*
Y464764D01*
X725000Y463189D02*
Y464764D01*
X703740D02*
Y466339D01*
X699803Y464764D02*
Y466339D01*
X684842Y462992D02*
Y464567D01*
X688779Y462992D02*
Y464567D01*
X684842Y449213D02*
Y450787D01*
X688779Y449213D02*
Y450787D01*
X890315Y502008D02*
X920315D01*
X890315D02*
Y522008D01*
X920315D01*
Y502008D02*
Y522008D01*
X629724Y173819D02*
X665158D01*
X673032Y188779D02*
Y194685D01*
X663189D02*
X673032D01*
X621850D02*
X631693D01*
X621850Y188779D02*
Y194685D01*
X800197Y521850D02*
X801772D01*
X800197Y517913D02*
X801772D01*
X697047Y423032D02*
X698622D01*
X697047Y419095D02*
X698622D01*
X712008Y417126D02*
X713583D01*
X712008Y421063D02*
X713583D01*
X729134Y433465D02*
Y435039D01*
X733071Y433465D02*
Y435039D01*
Y445276D02*
Y446850D01*
X729134Y445276D02*
Y446850D01*
X789173Y458858D02*
Y460433D01*
X785236Y458858D02*
Y460433D01*
X818701Y461024D02*
Y462598D01*
X822638Y461024D02*
Y462598D01*
X840551Y445079D02*
X842126D01*
X840551Y441142D02*
X842126D01*
X841535Y466732D02*
X843110D01*
X841535Y462795D02*
X843110D01*
X841535Y518898D02*
X843110D01*
X841535Y514961D02*
X843110D01*
X840551Y497244D02*
X842126D01*
X840551Y493307D02*
X842126D01*
X712008Y262795D02*
X713583D01*
X712008Y266732D02*
X713583D01*
X788189Y311221D02*
Y312795D01*
X784252Y311221D02*
Y312795D01*
X841535Y371063D02*
X843110D01*
X841535Y367126D02*
X843110D01*
X819685Y359646D02*
Y361221D01*
X823622Y359646D02*
Y361221D01*
X800197Y369094D02*
X801772D01*
X800197Y365158D02*
X801772D01*
X828543Y188779D02*
Y194685D01*
X837599D01*
X849409D02*
X858465D01*
Y188779D02*
Y194685D01*
X835630Y173819D02*
X851378D01*
X698622D02*
X734055D01*
X741929Y188779D02*
Y194685D01*
X732087D02*
X741929D01*
X690748D02*
X700591D01*
X690748Y188779D02*
Y194685D01*
X890315Y467559D02*
X920315D01*
X890315D02*
Y487559D01*
X920315D01*
Y467559D02*
Y487559D01*
X890315Y433110D02*
X920315D01*
X890315D02*
Y453110D01*
X920315D01*
Y433110D02*
Y453110D01*
X890315Y323071D02*
X920315D01*
X890315D02*
Y343071D01*
X920315D01*
Y323071D02*
Y343071D01*
X890315Y288622D02*
X920315D01*
X890315D02*
Y308622D01*
X920315D01*
Y288622D02*
Y308622D01*
X890315Y357520D02*
X920315D01*
X890315D02*
Y377520D01*
X920315D01*
Y357520D02*
Y377520D01*
X678150Y354528D02*
Y356102D01*
X682087Y354528D02*
Y356102D01*
X678937Y510039D02*
Y511614D01*
X682874Y510039D02*
Y511614D01*
X966640Y168701D02*
X971638D01*
X972638Y169701D01*
Y171700D01*
X971638Y172699D01*
X966640D01*
X972638Y174699D02*
X966640D01*
Y177698D01*
X967639Y178698D01*
X969639D01*
X970638Y177698D01*
Y174699D01*
X967639Y184696D02*
X966640Y183696D01*
Y181697D01*
X967639Y180697D01*
X971638D01*
X972638Y181697D01*
Y183696D01*
X971638Y184696D01*
X972638Y186695D02*
X966640D01*
X972638Y190694D01*
X966640D01*
X967639Y196692D02*
X966640Y195692D01*
Y193693D01*
X967639Y192693D01*
X968639D01*
X969639Y193693D01*
Y195692D01*
X970638Y196692D01*
X971638D01*
X972638Y195692D01*
Y193693D01*
X971638Y192693D01*
X966640Y198691D02*
X972638D01*
Y202690D01*
X973637Y204689D02*
Y208688D01*
X966640Y214686D02*
Y210687D01*
X972638D01*
Y214686D01*
X969639Y210687D02*
Y212687D01*
X972638Y216685D02*
X966640D01*
Y219684D01*
X967639Y220684D01*
X969639D01*
X970638Y219684D01*
Y216685D01*
X967639Y226682D02*
X966640Y225682D01*
Y223683D01*
X967639Y222683D01*
X968639D01*
X969639Y223683D01*
Y225682D01*
X970638Y226682D01*
X971638D01*
X972638Y225682D01*
Y223683D01*
X971638Y222683D01*
X973637Y228681D02*
Y232680D01*
X972638Y234679D02*
X966640D01*
Y237679D01*
X967639Y238678D01*
X969639D01*
X970638Y237679D01*
Y234679D01*
X966640Y243676D02*
Y241677D01*
X967639Y240677D01*
X971638D01*
X972638Y241677D01*
Y243676D01*
X971638Y244676D01*
X967639D01*
X966640Y243676D01*
Y246676D02*
X972638D01*
Y250674D01*
X973637Y252674D02*
Y256672D01*
X968639Y258672D02*
X972638Y260671D01*
X968639Y262670D01*
X972638Y264670D02*
X971638D01*
Y265669D01*
X972638D01*
Y264670D01*
Y273667D02*
Y269668D01*
X968639Y273667D01*
X967639D01*
X966640Y272667D01*
Y270668D01*
X967639Y269668D01*
X1084646Y493996D02*
X1086220D01*
X1084646Y490059D02*
X1086220D01*
X1066929Y434252D02*
Y435827D01*
X1070866Y434252D02*
Y435827D01*
X1147736Y426083D02*
Y427658D01*
X1143799Y426083D02*
Y427658D01*
X1147539Y414075D02*
Y415650D01*
X1143602Y414075D02*
Y415650D01*
X1141437Y451772D02*
Y453346D01*
X1137500Y451772D02*
Y453346D01*
X1131496Y451575D02*
Y453150D01*
X1127559Y451575D02*
Y453150D01*
X1117815Y451575D02*
Y453150D01*
X1121752Y451575D02*
Y453150D01*
X1118701Y478543D02*
Y480118D01*
X1114764Y478543D02*
Y480118D01*
X1102854Y472441D02*
Y474016D01*
X1098917Y472441D02*
Y474016D01*
X1119390Y438386D02*
X1120965D01*
X1119390Y434449D02*
X1120965D01*
X1189075Y444291D02*
Y479724D01*
X1168209Y487598D02*
X1174114D01*
X1168209Y477756D02*
Y487598D01*
Y436417D02*
Y446260D01*
Y436417D02*
X1174114D01*
X1093602Y440059D02*
X1095177D01*
X1093602Y436122D02*
X1095177D01*
X1086122Y420866D02*
Y422441D01*
X1090059Y420866D02*
Y422441D01*
D59*
X1130709Y265748D02*
G03*
X1130709Y265748I-1181J0D01*
G01*
X692520Y353150D02*
G03*
X692520Y353150I-1181J0D01*
G01*
Y505905D02*
G03*
X692520Y505905I-1181J0D01*
G01*
X1130709Y477362D02*
G03*
X1130709Y477362I-1181J0D01*
G01*
D74*
X1124882Y257283D02*
G03*
X1124882Y257283I-492J0D01*
G01*
X1079587Y254408D02*
G03*
X1079587Y254408I-492J0D01*
G01*
X1109252Y217323D02*
G03*
X1109252Y217323I-492J0D01*
G01*
X686673Y344685D02*
G03*
X686673Y344685I-492J0D01*
G01*
X696161Y283071D02*
G03*
X696161Y283071I-492J0D01*
G01*
X770177Y347835D02*
G03*
X770177Y347835I-492J0D01*
G01*
X796752Y361811D02*
G03*
X796752Y361811I-492J0D01*
G01*
X798327Y320079D02*
G03*
X798327Y320079I-492J0D01*
G01*
X833541Y316083D02*
G03*
X833541Y316083I-492J0D01*
G01*
X797736Y466142D02*
G03*
X797736Y466142I-492J0D01*
G01*
X686673Y497441D02*
G03*
X686673Y497441I-492J0D01*
G01*
X833541Y513917D02*
G03*
X833541Y513917I-492J0D01*
G01*
X769390Y501968D02*
G03*
X769390Y501968I-492J0D01*
G01*
X796752Y515354D02*
G03*
X796752Y515354I-492J0D01*
G01*
X696161Y431693D02*
G03*
X696161Y431693I-492J0D01*
G01*
X833541Y461752D02*
G03*
X833541Y461752I-492J0D01*
G01*
Y362933D02*
G03*
X833541Y362933I-492J0D01*
G01*
X1124882Y468898D02*
G03*
X1124882Y468898I-492J0D01*
G01*
X1079587Y466022D02*
G03*
X1079587Y466022I-492J0D01*
G01*
X1109252Y428937D02*
G03*
X1109252Y428937I-492J0D01*
G01*
D75*
X1116929Y220866D02*
Y218898D01*
X1117913D01*
X1118241Y219226D01*
Y220537D01*
X1117913Y220866D01*
X1116929D01*
X1120209Y220537D02*
X1119881Y220866D01*
X1119225D01*
X1118897Y220537D01*
Y219226D01*
X1119225Y218898D01*
X1119881D01*
X1120209Y219226D01*
X1120865Y220866D02*
Y218898D01*
X1121849D01*
X1122177Y219226D01*
Y220537D01*
X1121849Y220866D01*
X1120865D01*
X1124145Y220537D02*
X1123817Y220866D01*
X1123161D01*
X1122833Y220537D01*
Y219226D01*
X1123161Y218898D01*
X1123817D01*
X1124145Y219226D01*
X1075099Y261417D02*
X1076739D01*
X1077067Y261745D01*
Y262401D01*
X1076739Y262729D01*
X1075099D01*
X1077067Y264697D02*
Y263385D01*
X1075755Y264697D01*
X1075427D01*
X1075099Y264369D01*
Y263713D01*
X1075427Y263385D01*
X1121261Y265945D02*
X1122900D01*
X1123228Y266273D01*
Y266929D01*
X1122900Y267257D01*
X1121261D01*
X1123228Y267913D02*
Y268569D01*
Y268241D01*
X1121261D01*
X1121589Y267913D01*
X1059220Y272362D02*
Y274330D01*
X1060204D01*
X1060532Y274002D01*
Y273346D01*
X1060204Y273018D01*
X1059220D01*
X1059876D02*
X1060532Y272362D01*
X1062171D02*
Y274330D01*
X1061188Y273346D01*
X1062500D01*
X1059469Y260408D02*
Y262376D01*
X1060453D01*
X1060781Y262048D01*
Y261392D01*
X1060453Y261064D01*
X1059469D01*
X1060125D02*
X1060781Y260408D01*
X1061437Y262048D02*
X1061765Y262376D01*
X1062421D01*
X1062749Y262048D01*
Y261720D01*
X1062421Y261392D01*
X1062093D01*
X1062421D01*
X1062749Y261064D01*
Y260736D01*
X1062421Y260408D01*
X1061765D01*
X1061437Y260736D01*
X1078740Y228051D02*
Y230019D01*
X1079724D01*
X1080052Y229691D01*
Y229035D01*
X1079724Y228707D01*
X1078740D01*
X1079396D02*
X1080052Y228051D01*
X1082020D02*
X1080708D01*
X1082020Y229363D01*
Y229691D01*
X1081692Y230019D01*
X1081036D01*
X1080708Y229691D01*
X1116073Y276428D02*
X1115745Y276756D01*
X1115089D01*
X1114761Y276428D01*
Y275116D01*
X1115089Y274788D01*
X1115745D01*
X1116073Y275116D01*
X1118041Y274788D02*
X1116729D01*
X1118041Y276100D01*
Y276428D01*
X1117713Y276756D01*
X1117057D01*
X1116729Y276428D01*
X1118696D02*
X1119024Y276756D01*
X1119680D01*
X1120008Y276428D01*
Y275116D01*
X1119680Y274788D01*
X1119024D01*
X1118696Y275116D01*
Y276428D01*
X1120664Y274788D02*
Y276100D01*
X1121320Y276756D01*
X1121976Y276100D01*
Y274788D01*
Y275772D01*
X1120664D01*
X1100186Y270282D02*
X1099858Y270610D01*
X1099202D01*
X1098874Y270282D01*
Y268970D01*
X1099202Y268642D01*
X1099858D01*
X1100186Y268970D01*
X1102154Y270610D02*
X1100842D01*
Y269626D01*
X1101498Y269954D01*
X1101826D01*
X1102154Y269626D01*
Y268970D01*
X1101826Y268642D01*
X1101170D01*
X1100842Y268970D01*
X1085170Y286778D02*
X1084842Y287106D01*
X1084186D01*
X1083858Y286778D01*
Y285466D01*
X1084186Y285138D01*
X1084842D01*
X1085170Y285466D01*
X1086810Y285138D02*
Y287106D01*
X1085826Y286122D01*
X1087138D01*
X1068438Y233136D02*
X1068110Y233464D01*
X1067454D01*
X1067126Y233136D01*
Y231824D01*
X1067454Y231496D01*
X1068110D01*
X1068438Y231824D01*
X1069094Y233136D02*
X1069422Y233464D01*
X1070078D01*
X1070406Y233136D01*
Y232808D01*
X1070078Y232480D01*
X1069750D01*
X1070078D01*
X1070406Y232152D01*
Y231824D01*
X1070078Y231496D01*
X1069422D01*
X1069094Y231824D01*
X1117406Y231434D02*
X1117078Y231762D01*
X1116422D01*
X1116094Y231434D01*
Y230122D01*
X1116422Y229794D01*
X1117078D01*
X1117406Y230122D01*
X1118062Y229794D02*
X1118717D01*
X1118390D01*
Y231762D01*
X1118062Y231434D01*
X1167946Y162893D02*
X1166634D01*
Y161909D01*
X1167290Y162237D01*
X1167618D01*
X1167946Y161909D01*
Y161253D01*
X1167618Y160925D01*
X1166962D01*
X1166634Y161253D01*
X1168602Y162893D02*
Y161581D01*
X1169258Y160925D01*
X1169914Y161581D01*
Y162893D01*
X1074835Y162467D02*
X1074508Y162795D01*
X1073852D01*
X1073524Y162467D01*
Y161155D01*
X1073852Y160827D01*
X1074508D01*
X1074835Y161155D01*
Y161811D01*
X1074180D01*
X1075492Y160827D02*
Y162795D01*
X1076803Y160827D01*
Y162795D01*
X1077459D02*
Y160827D01*
X1078443D01*
X1078771Y161155D01*
Y162467D01*
X1078443Y162795D01*
X1077459D01*
X1167027Y290354D02*
X1167684D01*
X1167356D01*
Y288386D01*
X1167027D01*
X1167684D01*
X1169979D02*
X1168667D01*
X1169979Y289698D01*
Y290026D01*
X1169651Y290354D01*
X1168995D01*
X1168667Y290026D01*
X1171947D02*
X1171619Y290354D01*
X1170963D01*
X1170635Y290026D01*
Y288714D01*
X1170963Y288386D01*
X1171619D01*
X1171947Y288714D01*
X1167819Y281727D02*
X1167163D01*
X1167491D01*
Y280087D01*
X1167163Y279759D01*
X1166835D01*
X1166507Y280087D01*
X1168475Y279759D02*
X1169131D01*
X1168803D01*
Y281727D01*
X1168475Y281399D01*
X1055019Y237204D02*
X1054363D01*
X1054035Y236876D01*
Y235564D01*
X1054363Y235236D01*
X1055019D01*
X1055347Y235564D01*
Y236876D01*
X1055019Y237204D01*
X1056003D02*
Y235564D01*
X1056331Y235236D01*
X1056987D01*
X1057315Y235564D01*
Y237204D01*
X1057971D02*
X1059283D01*
X1058627D01*
Y235236D01*
X1091686Y233691D02*
X1091358Y234019D01*
X1090702D01*
X1090374Y233691D01*
Y232379D01*
X1090702Y232051D01*
X1091358D01*
X1091686Y232379D01*
X1092342Y233363D02*
X1092998Y232051D01*
X1093654Y233363D01*
X1094310D02*
Y232051D01*
Y232707D01*
X1094638Y233035D01*
X1094966Y233363D01*
X1095294D01*
X1097262Y232051D02*
X1096606D01*
X1096278Y232379D01*
Y233035D01*
X1096606Y233363D01*
X1097262D01*
X1097589Y233035D01*
Y232707D01*
X1096278D01*
X1098901Y231395D02*
X1099229D01*
X1099557Y231723D01*
Y233363D01*
X1098573D01*
X1098246Y233035D01*
Y232379D01*
X1098573Y232051D01*
X1099557D01*
X1144717Y224573D02*
X1144389Y224901D01*
X1143734D01*
X1143406Y224573D01*
Y223261D01*
X1143734Y222933D01*
X1144389D01*
X1144717Y223261D01*
X1145373Y222933D02*
X1146029D01*
X1145701D01*
Y224245D01*
X1145373D01*
X1147013Y222933D02*
Y224245D01*
X1147997D01*
X1148325Y223917D01*
Y222933D01*
X1087420Y218679D02*
X1087092Y219007D01*
X1086436D01*
X1086108Y218679D01*
Y217368D01*
X1086436Y217040D01*
X1087092D01*
X1087420Y217368D01*
X1088404Y217040D02*
X1089060D01*
X1089388Y217368D01*
Y218023D01*
X1089060Y218352D01*
X1088404D01*
X1088076Y218023D01*
Y217368D01*
X1088404Y217040D01*
X1090044Y218352D02*
Y217368D01*
X1090372Y217040D01*
X1091356D01*
Y218352D01*
X1092340Y218679D02*
Y218352D01*
X1092012D01*
X1092668D01*
X1092340D01*
Y217368D01*
X1092668Y217040D01*
X1133892Y239403D02*
X1133564Y239074D01*
Y238419D01*
X1133892Y238090D01*
X1135203D01*
X1135532Y238419D01*
Y239074D01*
X1135203Y239403D01*
X1135532Y240058D02*
Y241042D01*
X1135203Y241370D01*
X1134875Y241042D01*
Y240386D01*
X1134548Y240058D01*
X1134220Y240386D01*
Y241370D01*
X1135532Y242026D02*
Y243010D01*
X1135203Y243338D01*
X1134875Y243010D01*
Y242354D01*
X1134548Y242026D01*
X1134220Y242354D01*
Y243338D01*
X1138911Y200032D02*
X1138583Y199704D01*
Y199048D01*
X1138911Y198721D01*
X1140223D01*
X1140551Y199048D01*
Y199704D01*
X1140223Y200032D01*
X1139239Y200688D02*
X1140551Y201344D01*
X1139239Y202000D01*
X1138583Y202656D02*
X1140551D01*
Y203640D01*
X1140223Y203968D01*
X1139895D01*
X1139567D01*
X1139239Y203640D01*
Y202656D01*
X1140551Y204624D02*
Y205608D01*
X1140223Y205936D01*
X1139895Y205608D01*
Y204952D01*
X1139567Y204624D01*
X1139239Y204952D01*
Y205936D01*
X1138911Y206920D02*
X1139239D01*
Y206592D01*
Y207248D01*
Y206920D01*
X1140223D01*
X1140551Y207248D01*
X1131102Y176377D02*
Y174409D01*
X1132414D01*
X1114961Y237402D02*
X1112993D01*
Y238386D01*
X1113321Y238714D01*
X1113977D01*
X1114305Y238386D01*
Y237402D01*
Y238057D02*
X1114961Y238714D01*
Y239697D02*
X1113321D01*
X1113977D01*
Y239369D01*
Y240025D01*
Y239697D01*
X1113321D01*
X1112993Y240025D01*
Y241009D02*
X1114961D01*
Y241993D01*
X1114633Y242321D01*
X1114305D01*
X1113977D01*
X1113649Y241993D01*
Y241009D01*
X1114961Y242977D02*
Y243633D01*
Y243305D01*
X1112993D01*
X1113321Y242977D01*
X1125492Y236811D02*
X1123524D01*
Y237795D01*
X1123852Y238123D01*
X1124508D01*
X1124836Y237795D01*
Y236811D01*
Y237467D02*
X1125492Y238123D01*
Y239107D02*
X1123852D01*
X1124508D01*
Y238779D01*
Y239435D01*
Y239107D01*
X1123852D01*
X1123524Y239435D01*
Y240419D02*
X1125492D01*
Y241403D01*
X1125164Y241731D01*
X1124836D01*
X1124508D01*
X1124180Y241403D01*
Y240419D01*
X1125492Y243699D02*
Y242387D01*
X1124180Y243699D01*
X1123852D01*
X1123524Y243371D01*
Y242715D01*
X1123852Y242387D01*
X1087106Y165058D02*
Y161778D01*
X1087762Y161122D01*
X1089074D01*
X1089730Y161778D01*
Y165058D01*
X1091042Y161122D02*
Y165058D01*
X1093010D01*
X1093666Y164402D01*
Y163090D01*
X1093010Y162434D01*
X1091042D01*
X1097602Y164402D02*
X1096946Y165058D01*
X1095634D01*
X1094978Y164402D01*
Y161778D01*
X1095634Y161122D01*
X1096946D01*
X1097602Y161778D01*
X1098913Y161122D02*
Y165058D01*
X1101537Y161122D01*
Y165058D01*
X1105473Y164402D02*
X1104817Y165058D01*
X1103505D01*
X1102849Y164402D01*
Y163746D01*
X1103505Y163090D01*
X1104817D01*
X1105473Y162434D01*
Y161778D01*
X1104817Y161122D01*
X1103505D01*
X1102849Y161778D01*
X1106785Y165058D02*
Y161122D01*
X1109409D01*
X1110721Y160466D02*
X1113344D01*
X1114657Y161122D02*
Y163746D01*
X1115968Y165058D01*
X1117280Y163746D01*
Y161122D01*
Y163090D01*
X1114657D01*
X1118592Y165058D02*
Y161122D01*
X1120560D01*
X1121216Y161778D01*
Y162434D01*
X1120560Y163090D01*
X1118592D01*
X1120560D01*
X1121216Y163746D01*
Y164402D01*
X1120560Y165058D01*
X1118592D01*
X1125152Y164402D02*
X1124496Y165058D01*
X1123184D01*
X1122528Y164402D01*
Y163746D01*
X1123184Y163090D01*
X1124496D01*
X1125152Y162434D01*
Y161778D01*
X1124496Y161122D01*
X1123184D01*
X1122528Y161778D01*
X1126464Y160466D02*
X1129088D01*
X1130399Y161122D02*
Y165058D01*
X1132367D01*
X1133023Y164402D01*
Y163090D01*
X1132367Y162434D01*
X1130399D01*
X1131711D02*
X1133023Y161122D01*
X1136959Y165058D02*
X1134335D01*
Y163090D01*
X1135647D01*
X1134335D01*
Y161122D01*
X1138271Y160466D02*
X1140895D01*
X1142207Y161122D02*
Y165058D01*
X1144174D01*
X1144831Y164402D01*
Y163090D01*
X1144174Y162434D01*
X1142207D01*
X1148110Y165058D02*
X1146798D01*
X1146142Y164402D01*
Y161778D01*
X1146798Y161122D01*
X1148110D01*
X1148766Y161778D01*
Y164402D01*
X1148110Y165058D01*
X1150078D02*
Y161122D01*
X1152702D01*
X290198Y367775D02*
X289872Y368105D01*
X289215Y368108D01*
X288886Y367782D01*
X288879Y366470D01*
X289206Y366140D01*
X289862Y366137D01*
X290191Y366463D01*
X290846Y366132D02*
X291502Y366129D01*
X291174Y366130D01*
X291183Y368098D01*
X290854Y367772D01*
X292494Y367764D02*
X292823Y368090D01*
X293479Y368087D01*
X293806Y367758D01*
X293804Y367429D01*
X293474Y367103D01*
X293801Y366774D01*
X293799Y366446D01*
X293470Y366119D01*
X292814Y366123D01*
X292487Y366452D01*
X292489Y366780D01*
X292818Y367106D01*
X292492Y367436D01*
X292494Y367764D01*
X292818Y367106D02*
X293474Y367103D01*
X363999Y304428D02*
X364654Y304421D01*
X364327Y304425D01*
X364304Y302457D01*
X363976Y302461D01*
X364632Y302453D01*
X366928Y302428D02*
X365616Y302442D01*
X366943Y303739D01*
X366946Y304067D01*
X366622Y304399D01*
X365966Y304406D01*
X365635Y304082D01*
X368914Y304045D02*
X368590Y304377D01*
X367934Y304384D01*
X367602Y304060D01*
X367588Y302748D01*
X367912Y302416D01*
X368568Y302409D01*
X368899Y302733D01*
X484528Y425338D02*
Y427306D01*
X485512D01*
X485840Y426978D01*
Y426322D01*
X485512Y425994D01*
X484528D01*
X487808Y425338D02*
X486496D01*
X487808Y426650D01*
Y426978D01*
X487480Y427306D01*
X486824D01*
X486496Y426978D01*
X393977Y425338D02*
Y427306D01*
X394961D01*
X395289Y426978D01*
Y426322D01*
X394961Y425994D01*
X393977D01*
X395945Y425338D02*
X396601D01*
X396273D01*
Y427306D01*
X395945Y426978D01*
X271850Y369233D02*
Y367265D01*
X273162D01*
X273818Y369233D02*
X275130D01*
X274474D01*
Y367265D01*
X277098Y368905D02*
X276770Y369233D01*
X276114D01*
X275786Y368905D01*
Y367593D01*
X276114Y367265D01*
X276770D01*
X277098Y367593D01*
X279066Y367265D02*
X277754D01*
X279066Y368577D01*
Y368905D01*
X278738Y369233D01*
X278082D01*
X277754Y368905D01*
X281034Y369233D02*
X280378Y368905D01*
X279722Y368249D01*
Y367593D01*
X280050Y367265D01*
X280706D01*
X281034Y367593D01*
Y367921D01*
X280706Y368249D01*
X279722D01*
X281690Y368905D02*
X282018Y369233D01*
X282674D01*
X283002Y368905D01*
Y368577D01*
X282674Y368249D01*
X282346D01*
X282674D01*
X283002Y367921D01*
Y367593D01*
X282674Y367265D01*
X282018D01*
X281690Y367593D01*
X283658Y368905D02*
X283985Y369233D01*
X284642D01*
X284969Y368905D01*
Y368577D01*
X284642Y368249D01*
X284314D01*
X284642D01*
X284969Y367921D01*
Y367593D01*
X284642Y367265D01*
X283985D01*
X283658Y367593D01*
X228543Y368012D02*
Y369980D01*
X229527D01*
X229855Y369652D01*
Y368996D01*
X229527Y368668D01*
X228543D01*
X229199D02*
X229855Y368012D01*
X231823Y369980D02*
X230511D01*
Y368996D01*
X231167D01*
X230511D01*
Y368012D01*
X232479Y369980D02*
X233135D01*
X232807D01*
Y368012D01*
X232479D01*
X233135D01*
X234119D02*
Y369980D01*
X235431Y368012D01*
Y369980D01*
X297342Y517815D02*
Y519783D01*
X298326D01*
X298654Y519455D01*
Y518799D01*
X298326Y518471D01*
X297342D01*
X297998D02*
X298654Y517815D01*
X300622Y519783D02*
X299310D01*
Y518799D01*
X299966D01*
X299310D01*
Y517815D01*
X302262Y519783D02*
X301606D01*
X301278Y519455D01*
Y518143D01*
X301606Y517815D01*
X302262D01*
X302590Y518143D01*
Y519455D01*
X302262Y519783D01*
X303246D02*
Y518143D01*
X303574Y517815D01*
X304230D01*
X304558Y518143D01*
Y519783D01*
X305214D02*
X306526D01*
X305870D01*
Y517815D01*
X197867Y318963D02*
X197539Y319291D01*
X196883D01*
X196555Y318963D01*
Y317651D01*
X196883Y317323D01*
X197539D01*
X197867Y317651D01*
X198523Y317323D02*
X199179D01*
X198851D01*
Y319291D01*
X198523Y318963D01*
X197769Y304101D02*
X197441Y304429D01*
X196785D01*
X196457Y304101D01*
Y302789D01*
X196785Y302461D01*
X197441D01*
X197769Y302789D01*
X199736Y302461D02*
X198424D01*
X199736Y303773D01*
Y304101D01*
X199408Y304429D01*
X198752D01*
X198424Y304101D01*
X197965Y290026D02*
X197637Y290354D01*
X196982D01*
X196653Y290026D01*
Y288714D01*
X196982Y288386D01*
X197637D01*
X197965Y288714D01*
X198621Y290026D02*
X198949Y290354D01*
X199605D01*
X199933Y290026D01*
Y289698D01*
X199605Y289370D01*
X199277D01*
X199605D01*
X199933Y289042D01*
Y288714D01*
X199605Y288386D01*
X198949D01*
X198621Y288714D01*
X209909Y252100D02*
X210237Y251772D01*
X210893D01*
X211221Y252100D01*
Y253412D01*
X210893Y253740D01*
X210237D01*
X209909Y253412D01*
X208269Y253740D02*
Y251772D01*
X209253Y252756D01*
X207941D01*
X171884Y238024D02*
X171556Y237697D01*
Y237041D01*
X171884Y236713D01*
X173196D01*
X173524Y237041D01*
Y237697D01*
X173196Y238024D01*
X171556Y239992D02*
Y238681D01*
X172540D01*
X172212Y239336D01*
Y239664D01*
X172540Y239992D01*
X173196D01*
X173524Y239664D01*
Y239008D01*
X173196Y238681D01*
X184876Y237729D02*
X184548Y237401D01*
Y236745D01*
X184876Y236417D01*
X186188D01*
X186516Y236745D01*
Y237401D01*
X186188Y237729D01*
X184548Y239697D02*
X184876Y239041D01*
X185532Y238385D01*
X186188D01*
X186516Y238713D01*
Y239369D01*
X186188Y239697D01*
X185860D01*
X185532Y239369D01*
Y238385D01*
X198951Y237631D02*
X198623Y237303D01*
Y236647D01*
X198951Y236319D01*
X200263D01*
X200591Y236647D01*
Y237303D01*
X200263Y237631D01*
X198623Y238287D02*
Y239599D01*
X198951D01*
X200263Y238287D01*
X200591D01*
X210368Y237532D02*
X210040Y237204D01*
Y236548D01*
X210368Y236221D01*
X211680D01*
X212008Y236548D01*
Y237204D01*
X211680Y237532D01*
X210368Y238188D02*
X210040Y238516D01*
Y239172D01*
X210368Y239500D01*
X210696D01*
X211024Y239172D01*
X211352Y239500D01*
X211680D01*
X212008Y239172D01*
Y238516D01*
X211680Y238188D01*
X211352D01*
X211024Y238516D01*
X210696Y238188D01*
X210368D01*
X211024Y238516D02*
Y239172D01*
X259073Y250734D02*
X258745Y250406D01*
Y249750D01*
X259073Y249422D01*
X260385D01*
X260713Y249750D01*
Y250406D01*
X260385Y250734D01*
Y251390D02*
X260713Y251718D01*
Y252374D01*
X260385Y252701D01*
X259073D01*
X258745Y252374D01*
Y251718D01*
X259073Y251390D01*
X259401D01*
X259729Y251718D01*
Y252701D01*
X282008Y262124D02*
X281680Y262452D01*
X281024D01*
X280696Y262124D01*
Y260812D01*
X281024Y260484D01*
X281680D01*
X282008Y260812D01*
X282663Y260484D02*
X283319D01*
X282992D01*
Y262452D01*
X282663Y262124D01*
X284303D02*
X284631Y262452D01*
X285287D01*
X285615Y262124D01*
Y260812D01*
X285287Y260484D01*
X284631D01*
X284303Y260812D01*
Y262124D01*
X304145Y255588D02*
X303817Y255260D01*
Y254604D01*
X304145Y254276D01*
X305457D01*
X305785Y254604D01*
Y255260D01*
X305457Y255588D01*
X305785Y256244D02*
Y256900D01*
Y256572D01*
X303817D01*
X304145Y256244D01*
X305785Y257884D02*
Y258540D01*
Y258212D01*
X303817D01*
X304145Y257884D01*
X260481Y285970D02*
X260813Y286294D01*
X260822Y286950D01*
X260498Y287282D01*
X259186Y287299D01*
X258854Y286975D01*
X258846Y286319D01*
X259169Y285987D01*
X258833Y285335D02*
X258825Y284680D01*
X258829Y285008D01*
X260796Y284982D01*
X260473Y285314D01*
X258795Y282384D02*
X258812Y283696D01*
X260107Y282367D01*
X260435Y282363D01*
X260767Y282687D01*
X260775Y283343D01*
X260452Y283675D01*
X256364Y294948D02*
X256692Y295276D01*
Y295932D01*
X256364Y296260D01*
X255052D01*
X254724Y295932D01*
Y295276D01*
X255052Y294948D01*
X254724Y294292D02*
Y293636D01*
Y293964D01*
X256692D01*
X256364Y294292D01*
Y292652D02*
X256692Y292324D01*
Y291668D01*
X256364Y291340D01*
X256036D01*
X255708Y291668D01*
Y291996D01*
Y291668D01*
X255380Y291340D01*
X255052D01*
X254724Y291668D01*
Y292324D01*
X255052Y292652D01*
X256758Y303314D02*
X257086Y303642D01*
Y304298D01*
X256758Y304626D01*
X255446D01*
X255118Y304298D01*
Y303642D01*
X255446Y303314D01*
X255118Y302658D02*
Y302002D01*
Y302330D01*
X257086D01*
X256758Y302658D01*
X255118Y300034D02*
X257086D01*
X256102Y301018D01*
Y299706D01*
X238910Y289238D02*
X238582Y289566D01*
X237926D01*
X237598Y289238D01*
Y287926D01*
X237926Y287598D01*
X238582D01*
X238910Y287926D01*
X239566Y287598D02*
X240222D01*
X239894D01*
Y289566D01*
X239566Y289238D01*
X242518Y289566D02*
X241206D01*
Y288582D01*
X241862Y288910D01*
X242190D01*
X242518Y288582D01*
Y287926D01*
X242190Y287598D01*
X241534D01*
X241206Y287926D01*
X222769Y289238D02*
X222441Y289566D01*
X221785D01*
X221457Y289238D01*
Y287926D01*
X221785Y287598D01*
X222441D01*
X222769Y287926D01*
X223425Y287598D02*
X224080D01*
X223752D01*
Y289566D01*
X223425Y289238D01*
X226376Y289566D02*
X225720Y289238D01*
X225064Y288582D01*
Y287926D01*
X225392Y287598D01*
X226048D01*
X226376Y287926D01*
Y288254D01*
X226048Y288582D01*
X225064D01*
X209909Y262829D02*
X210237Y262501D01*
X210893D01*
X211221Y262829D01*
Y264141D01*
X210893Y264469D01*
X210237D01*
X209909Y264141D01*
X209253Y264469D02*
X208597D01*
X208925D01*
Y262501D01*
X209253Y262829D01*
X207613Y262501D02*
X206301D01*
Y262829D01*
X207613Y264141D01*
Y264469D01*
X242637Y352438D02*
X242306Y352763D01*
X241650Y352758D01*
X241325Y352427D01*
X241336Y351115D01*
X241667Y350790D01*
X242322Y350796D01*
X242648Y351126D01*
X242642Y351782D01*
X241986Y351777D01*
X243623Y352118D02*
X244280Y352124D01*
X244610Y351798D01*
X244618Y350814D01*
X243634Y350806D01*
X243304Y351132D01*
X243629Y351462D01*
X244613Y351470D01*
X245274Y350820D02*
X245930Y350825D01*
X245602Y350822D01*
X245591Y352134D01*
X245263Y352132D01*
X246914Y350833D02*
X246903Y352145D01*
X247887Y352153D01*
X248218Y351828D01*
X248226Y350844D01*
X252148Y352516D02*
X251817Y352842D01*
X251161Y352836D01*
X250836Y352506D01*
X250847Y351194D01*
X251178Y350869D01*
X251834Y350874D01*
X252159Y351205D01*
X253145Y350885D02*
X253801Y350890D01*
X254127Y351221D01*
X254121Y351877D01*
X253790Y352202D01*
X253134Y352197D01*
X252809Y351866D01*
X252815Y351210D01*
X253145Y350885D01*
X254785Y350898D02*
X254774Y352210D01*
X255758Y352218D01*
X256089Y351893D01*
X256097Y350909D01*
X257067Y352557D02*
X257070Y352229D01*
X256742Y352226D01*
X257398Y352232D01*
X257070Y352229D01*
X257078Y351245D01*
X257409Y350920D01*
X258382Y352240D02*
X258393Y350928D01*
X258387Y351584D01*
X258713Y351915D01*
X259038Y352245D01*
X259366Y352248D01*
X260689Y350947D02*
X261345Y350952D01*
X261670Y351283D01*
X261664Y351939D01*
X261334Y352264D01*
X260678Y352259D01*
X260352Y351928D01*
X260358Y351272D01*
X260689Y350947D01*
X262328Y350960D02*
X262984Y350966D01*
X262656Y350963D01*
X262640Y352931D01*
X262312Y352928D01*
X232396Y235516D02*
Y237484D01*
X231084D01*
X230428D02*
X229772D01*
X230100D01*
Y235516D01*
X230428Y235844D01*
X258661Y271653D02*
Y269685D01*
X259973D01*
X261941D02*
X260629D01*
X261941Y270997D01*
Y271325D01*
X261613Y271653D01*
X260957D01*
X260629Y271325D01*
X251673Y251083D02*
Y253051D01*
X250361D01*
X249705Y251411D02*
X249377Y251083D01*
X248722D01*
X248394Y251411D01*
Y251739D01*
X248722Y252067D01*
X249049D01*
X248722D01*
X248394Y252395D01*
Y252723D01*
X248722Y253051D01*
X249377D01*
X249705Y252723D01*
X253642Y219783D02*
X253681Y217816D01*
X252697Y217796D01*
X252363Y218118D01*
X252350Y218774D01*
X252671Y219108D01*
X253655Y219128D01*
X250730Y217757D02*
X251386Y217770D01*
X251707Y218105D01*
X251681Y219416D01*
X251346Y219738D01*
X250691Y219724D01*
X250369Y219390D01*
X250395Y218078D01*
X250730Y217757D01*
X249746Y217737D02*
X249707Y219705D01*
X248395Y219679D01*
X244486Y218288D02*
X245470Y218308D01*
X245792Y218642D01*
X245778Y219298D01*
X245444Y219619D01*
X244460Y219600D01*
X243477Y219580D02*
X242821Y219567D01*
X242499Y219233D01*
X242512Y218577D01*
X242847Y218255D01*
X243503Y218269D01*
X243824Y218603D01*
X243811Y219259D01*
X243477Y219580D01*
X241837Y219547D02*
X241863Y218236D01*
X240879Y218216D01*
X240545Y218537D01*
X240525Y219521D01*
X239574Y217862D02*
X239568Y218190D01*
X239896Y218196D01*
X239240Y218183D01*
X239568Y218190D01*
X239548Y219174D01*
X239214Y219495D01*
X238256Y218164D02*
X238230Y219475D01*
X238243Y218819D01*
X237922Y218485D01*
X237600Y218150D01*
X237272Y218144D01*
X235934Y219429D02*
X235279Y219416D01*
X234957Y219082D01*
X234970Y218426D01*
X235305Y218105D01*
X235961Y218118D01*
X236282Y218452D01*
X236269Y219108D01*
X235934Y219429D01*
X234295Y219397D02*
X233639Y219384D01*
X233967Y219390D01*
X234006Y217423D01*
X234334Y217429D01*
X221752Y271161D02*
X223720D01*
Y270178D01*
X223392Y269849D01*
X222736D01*
X222408Y270178D01*
Y271161D01*
Y270505D02*
X221752Y269849D01*
Y269194D02*
Y268538D01*
Y268866D01*
X223720D01*
X223392Y269194D01*
X180967Y252159D02*
X179000D01*
Y253143D01*
X179328Y253471D01*
X179984D01*
X180312Y253143D01*
Y252159D01*
Y252815D02*
X180967Y253471D01*
Y255438D02*
Y254127D01*
X179656Y255438D01*
X179328D01*
X179000Y255111D01*
Y254455D01*
X179328Y254127D01*
X221654Y341437D02*
Y343405D01*
X222638D01*
X222966Y343077D01*
Y342421D01*
X222638Y342093D01*
X221654D01*
X222309D02*
X222966Y341437D01*
X223621Y343077D02*
X223949Y343405D01*
X224605D01*
X224933Y343077D01*
Y342749D01*
X224605Y342421D01*
X224277D01*
X224605D01*
X224933Y342093D01*
Y341765D01*
X224605Y341437D01*
X223949D01*
X223621Y341765D01*
X216296Y321684D02*
X214328D01*
Y322668D01*
X214656Y322996D01*
X215312D01*
X215640Y322668D01*
Y321684D01*
Y322340D02*
X216296Y322996D01*
Y324636D02*
X214328D01*
X215312Y323652D01*
Y324964D01*
X238583Y253740D02*
X240551D01*
Y252756D01*
X240223Y252428D01*
X239567D01*
X239239Y252756D01*
Y253740D01*
Y253084D02*
X238583Y252428D01*
X240551Y250460D02*
Y251772D01*
X239567D01*
Y251116D01*
Y251772D01*
X238583D01*
X240551Y248493D02*
Y249804D01*
X239567D01*
X239895Y249149D01*
Y248820D01*
X239567Y248493D01*
X238911D01*
X238583Y248820D01*
Y249477D01*
X238911Y249804D01*
X238583Y247837D02*
Y247181D01*
Y247509D01*
X240551D01*
X240223Y247837D01*
X238583Y246197D02*
Y245541D01*
Y245869D01*
X240551D01*
X240223Y246197D01*
Y244557D02*
X240551Y244229D01*
Y243573D01*
X240223Y243245D01*
X238911D01*
X238583Y243573D01*
Y244229D01*
X238911Y244557D01*
X240223D01*
X237927Y241933D02*
Y241605D01*
X238255Y241277D01*
X239895D01*
Y242261D01*
X239567Y242589D01*
X238911D01*
X238583Y242261D01*
Y241277D01*
X200623Y438648D02*
X200295Y438976D01*
X199639D01*
X199311Y438648D01*
Y438320D01*
X199639Y437992D01*
X200295D01*
X200623Y437664D01*
Y437336D01*
X200295Y437008D01*
X199639D01*
X199311Y437336D01*
X201279Y438976D02*
Y437008D01*
X201935Y437664D01*
X202591Y437008D01*
Y438976D01*
X203247Y437008D02*
X203903D01*
X203575D01*
Y438976D01*
X203247Y438648D01*
X267454Y443471D02*
X267126Y443799D01*
X266470Y443799D01*
X266142Y443471D01*
Y443143D01*
X266470Y442815D01*
X267126Y442815D01*
X267454Y442487D01*
X267454Y442159D01*
X267126Y441831D01*
X266470Y441831D01*
X266142Y442159D01*
X268109Y443799D02*
X268110Y441831D01*
X268765Y442487D01*
X269422Y441831D01*
X269421Y443799D01*
X271389Y441831D02*
X270077Y441831D01*
X271389Y443143D01*
Y443471D01*
X271061Y443799D01*
X270405Y443799D01*
X270077Y443471D01*
X210278Y506455D02*
X209952Y506785D01*
X209296Y506789D01*
X208966Y506463D01*
X208964Y506135D01*
X209291Y505805D01*
X209946Y505801D01*
X210272Y505471D01*
X210271Y505143D01*
X209941Y504817D01*
X209285Y504821D01*
X208959Y505151D01*
X210932Y506123D02*
X210927Y505139D01*
X211252Y504809D01*
X211582Y505135D01*
X211908Y504806D01*
X212238Y505132D01*
X212244Y506115D01*
X212892Y504800D02*
X213548Y504796D01*
X213220Y504798D01*
X213228Y506110D01*
X212900Y506112D01*
X214870Y506428D02*
X214868Y506100D01*
X214540Y506102D01*
X215196Y506098D01*
X214868Y506100D01*
X214862Y505116D01*
X215188Y504786D01*
X217492Y506085D02*
X216508Y506090D01*
X216178Y505764D01*
X216174Y505108D01*
X216500Y504779D01*
X217484Y504773D01*
X218151Y506737D02*
X218140Y504769D01*
X218146Y505753D01*
X218476Y506079D01*
X219131Y506075D01*
X219458Y505745D01*
X219452Y504761D01*
X223395Y506050D02*
X222411Y506056D01*
X222081Y505730D01*
X222077Y505074D01*
X222404Y504744D01*
X223387Y504738D01*
X224371Y504732D02*
X225027Y504729D01*
X225357Y505055D01*
X225361Y505711D01*
X225035Y506040D01*
X224379Y506044D01*
X224049Y505718D01*
X224045Y505062D01*
X224371Y504732D01*
X226011Y504723D02*
X226019Y506035D01*
X227003Y506029D01*
X227329Y505699D01*
X227323Y504715D01*
X228317Y506349D02*
X228315Y506021D01*
X227987Y506023D01*
X228643Y506019D01*
X228315Y506021D01*
X228309Y505037D01*
X228635Y504707D01*
X229627Y506014D02*
X229619Y504702D01*
X229623Y505358D01*
X229953Y505684D01*
X230282Y506010D01*
X230610Y506008D01*
X231915Y504688D02*
X232571Y504684D01*
X232901Y505010D01*
X232904Y505666D01*
X232578Y505996D01*
X231922Y506000D01*
X231592Y505674D01*
X231589Y505018D01*
X231915Y504688D01*
X233555Y504679D02*
X234210Y504675D01*
X233882Y504677D01*
X233894Y506644D01*
X233566Y506646D01*
X270669Y231496D02*
X272637Y231529D01*
X272654Y230546D01*
X272331Y230212D01*
X271675Y230201D01*
X271342Y230523D01*
X271325Y231507D01*
X272687Y228578D02*
X272676Y229234D01*
X272342Y229556D01*
X271031Y229534D01*
X270708Y229201D01*
X270719Y228545D01*
X271053Y228222D01*
X272364Y228245D01*
X272687Y228578D01*
X272704Y227594D02*
X270736Y227561D01*
X270758Y226249D01*
X272770Y223659D02*
X270803Y223626D01*
X271786Y223642D01*
X272120Y223320D01*
X272131Y222664D01*
X271809Y222331D01*
X270825Y222314D01*
X270853Y220674D02*
X270842Y221330D01*
X271164Y221664D01*
X271820Y221675D01*
X272153Y221353D01*
X272164Y220697D01*
X271842Y220363D01*
X271514Y220358D01*
X271492Y221669D01*
X272187Y219385D02*
X272198Y218729D01*
X271875Y218396D01*
X270892Y218379D01*
X270875Y219363D01*
X271197Y219696D01*
X271531Y219374D01*
X271548Y218390D01*
X272892Y216445D02*
X270925Y216411D01*
X270908Y217395D01*
X271231Y217729D01*
X271886Y217740D01*
X272220Y217417D01*
X272237Y216434D01*
X270953Y214772D02*
X270942Y215428D01*
X271264Y215761D01*
X271920Y215772D01*
X272253Y215450D01*
X272265Y214794D01*
X271942Y214460D01*
X271614Y214455D01*
X271592Y215767D01*
X272281Y213810D02*
X270969Y213788D01*
X271625Y213799D01*
X271959Y213477D01*
X272292Y213154D01*
X272298Y212826D01*
X282874Y333661D02*
X282995Y335626D01*
X283977Y335565D01*
X284284Y335218D01*
X284244Y334563D01*
X283896Y334256D01*
X282914Y334316D01*
X283569Y334276D02*
X284183Y333581D01*
X286268Y335425D02*
X284959Y335505D01*
X284898Y334523D01*
X285573Y334810D01*
X285901Y334790D01*
X286208Y334442D01*
X286168Y333788D01*
X285820Y333481D01*
X285166Y333521D01*
X284858Y333868D01*
X276969Y319488D02*
Y321456D01*
X277952D01*
X278280Y321128D01*
Y320472D01*
X277952Y320144D01*
X276969D01*
X277624D02*
X278280Y319488D01*
X280248Y321456D02*
X279592Y321128D01*
X278936Y320472D01*
Y319816D01*
X279264Y319488D01*
X279920D01*
X280248Y319816D01*
Y320144D01*
X279920Y320472D01*
X278936D01*
X178346Y465059D02*
Y467027D01*
X179330D01*
X179658Y466699D01*
Y466043D01*
X179330Y465715D01*
X178346D01*
X179002D02*
X179658Y465059D01*
X180314Y467027D02*
X181626D01*
Y466699D01*
X180314Y465387D01*
Y465059D01*
X178347Y480512D02*
Y482480D01*
X179330D01*
X179658Y482152D01*
Y481496D01*
X179330Y481168D01*
X178347D01*
X179002D02*
X179658Y480512D01*
X180314Y482152D02*
X180642Y482480D01*
X181298D01*
X181626Y482152D01*
Y481824D01*
X181298Y481496D01*
X181626Y481168D01*
Y480840D01*
X181298Y480512D01*
X180642D01*
X180314Y480840D01*
Y481168D01*
X180642Y481496D01*
X180314Y481824D01*
Y482152D01*
X180642Y481496D02*
X181298D01*
X522178Y260597D02*
X521850Y260925D01*
X521194D01*
X520866Y260597D01*
Y260269D01*
X521194Y259941D01*
X521850D01*
X522178Y259613D01*
Y259285D01*
X521850Y258957D01*
X521194D01*
X520866Y259285D01*
X522834Y260925D02*
Y258957D01*
X523818D01*
X524146Y259285D01*
Y260597D01*
X523818Y260925D01*
X522834D01*
X524802Y258957D02*
Y260269D01*
X525458Y260925D01*
X526114Y260269D01*
Y258957D01*
Y259941D01*
X524802D01*
X522178Y252034D02*
X521850Y252362D01*
X521194D01*
X520866Y252034D01*
Y251706D01*
X521194Y251378D01*
X521850D01*
X522178Y251050D01*
Y250722D01*
X521850Y250394D01*
X521194D01*
X520866Y250722D01*
X524146Y252034D02*
X523818Y252362D01*
X523162D01*
X522834Y252034D01*
Y250722D01*
X523162Y250394D01*
X523818D01*
X524146Y250722D01*
X524802Y252362D02*
Y250394D01*
X526114D01*
X230052Y509612D02*
X229724Y509940D01*
X229068D01*
X228740Y509612D01*
Y508300D01*
X229068Y507972D01*
X229724D01*
X230052Y508300D01*
Y508956D01*
X229396D01*
X230708Y507972D02*
Y509940D01*
X232020Y507972D01*
Y509940D01*
X232676D02*
Y507972D01*
X233660D01*
X233988Y508300D01*
Y509612D01*
X233660Y509940D01*
X232676D01*
X208957Y509908D02*
X209285Y510236D01*
X209941D01*
X210269Y509908D01*
Y509580D01*
X209941Y509252D01*
X209613D01*
X209941D01*
X210269Y508924D01*
Y508596D01*
X209941Y508268D01*
X209285D01*
X208957Y508596D01*
X210925Y510236D02*
Y508924D01*
X211580Y508268D01*
X212236Y508924D01*
Y510236D01*
X212892Y509908D02*
X213220Y510236D01*
X213876D01*
X214204Y509908D01*
Y509580D01*
X213876Y509252D01*
X213548D01*
X213876D01*
X214204Y508924D01*
Y508596D01*
X213876Y508268D01*
X213220D01*
X212892Y508596D01*
X213484Y481594D02*
X214140D01*
X213812D01*
Y479626D01*
X213484D01*
X214140D01*
X215124D02*
Y481594D01*
X216108D01*
X216436Y481266D01*
Y480610D01*
X216108Y480282D01*
X215124D01*
X215780D02*
X216436Y479626D01*
X218404Y479954D02*
Y481266D01*
X218076Y481594D01*
X217420D01*
X217092Y481266D01*
Y479954D01*
X217420Y479626D01*
X218076D01*
X217748Y480282D02*
X218404Y479626D01*
X218076D02*
X218404Y479954D01*
X220013Y509809D02*
X219685Y510137D01*
X219029D01*
X218701Y509809D01*
Y509481D01*
X219029Y509153D01*
X219685D01*
X220013Y508825D01*
Y508497D01*
X219685Y508169D01*
X219029D01*
X218701Y508497D01*
X221981Y509809D02*
X221653Y510137D01*
X220997D01*
X220669Y509809D01*
Y508497D01*
X220997Y508169D01*
X221653D01*
X221981Y508497D01*
X222637Y510137D02*
Y508169D01*
Y508825D01*
X223948Y510137D01*
X222965Y509153D01*
X223948Y508169D01*
X536220Y228117D02*
Y229429D01*
X535236D01*
X535564Y228773D01*
Y228445D01*
X535236Y228117D01*
X534580D01*
X534252Y228445D01*
Y229101D01*
X534580Y229429D01*
X536220Y227461D02*
X534908D01*
X534252Y226805D01*
X534908Y226149D01*
X536220D01*
X537007Y202724D02*
Y204035D01*
X536023D01*
X536351Y203380D01*
Y203052D01*
X536023Y202724D01*
X535367D01*
X535039Y203052D01*
Y203708D01*
X535367Y204035D01*
X537007Y202068D02*
X535695D01*
X535039Y201412D01*
X535695Y200756D01*
X537007D01*
X524803Y227920D02*
Y229232D01*
X526115Y227920D01*
X526443D01*
X526771Y228248D01*
Y228904D01*
X526443Y229232D01*
X524803Y225953D02*
Y227264D01*
X526115Y225953D01*
X526443D01*
X526771Y226280D01*
Y226937D01*
X526443Y227264D01*
X525197Y203019D02*
Y204331D01*
X526509Y203019D01*
X526837D01*
X527165Y203347D01*
Y204003D01*
X526837Y204331D01*
Y202363D02*
X527165Y202035D01*
Y201379D01*
X526837Y201051D01*
X526509D01*
X526181Y201379D01*
Y201707D01*
Y201379D01*
X525853Y201051D01*
X525525D01*
X525197Y201379D01*
Y202035D01*
X525525Y202363D01*
X514468Y227920D02*
Y229232D01*
X515780Y227920D01*
X516108D01*
X516436Y228248D01*
Y228904D01*
X516108Y229232D01*
X514468Y226280D02*
X516436D01*
X515452Y227264D01*
Y225953D01*
X514862Y203413D02*
Y204725D01*
X516174Y203413D01*
X516502D01*
X516830Y203741D01*
Y204397D01*
X516502Y204725D01*
X516830Y201445D02*
Y202757D01*
X515846D01*
X516174Y202101D01*
Y201773D01*
X515846Y201445D01*
X515190D01*
X514862Y201773D01*
Y202429D01*
X515190Y202757D01*
X504134Y227724D02*
Y229035D01*
X505446Y227724D01*
X505774D01*
X506102Y228051D01*
Y228708D01*
X505774Y229035D01*
X506102Y225756D02*
X505774Y226412D01*
X505118Y227068D01*
X504462D01*
X504134Y226740D01*
Y226084D01*
X504462Y225756D01*
X504790D01*
X505118Y226084D01*
Y227068D01*
X505020Y202822D02*
Y204134D01*
X506332Y202822D01*
X506660D01*
X506988Y203150D01*
Y203806D01*
X506660Y204134D01*
X506988Y202166D02*
Y200854D01*
X506660D01*
X505348Y202166D01*
X505020D01*
X494783Y227724D02*
Y229035D01*
X496095Y227724D01*
X496423D01*
X496751Y228051D01*
Y228708D01*
X496423Y229035D01*
Y227068D02*
X496751Y226740D01*
Y226084D01*
X496423Y225756D01*
X496095D01*
X495767Y226084D01*
X495439Y225756D01*
X495112D01*
X494783Y226084D01*
Y226740D01*
X495112Y227068D01*
X495439D01*
X495767Y226740D01*
X496095Y227068D01*
X496423D01*
X495767Y226740D02*
Y226084D01*
X495177Y202625D02*
Y203937D01*
X496489Y202625D01*
X496817D01*
X497145Y202953D01*
Y203609D01*
X496817Y203937D01*
X495505Y201969D02*
X495177Y201641D01*
Y200985D01*
X495505Y200657D01*
X496817D01*
X497145Y200985D01*
Y201641D01*
X496817Y201969D01*
X496489D01*
X496161Y201641D01*
Y200657D01*
X486384Y228740D02*
X486712Y228412D01*
Y227756D01*
X486384Y227428D01*
X486056D01*
X485728Y227756D01*
Y228084D01*
Y227756D01*
X485400Y227428D01*
X485072D01*
X484744Y227756D01*
Y228412D01*
X485072Y228740D01*
X486384Y226772D02*
X486712Y226444D01*
Y225788D01*
X486384Y225460D01*
X485072D01*
X484744Y225788D01*
Y226444D01*
X485072Y226772D01*
X486384D01*
X486384Y204134D02*
X486712Y203806D01*
Y203150D01*
X486384Y202822D01*
X486056D01*
X485728Y203150D01*
Y203478D01*
Y203150D01*
X485400Y202822D01*
X485072D01*
X484744Y203150D01*
Y203806D01*
X485072Y204134D01*
X484744Y202166D02*
Y201510D01*
Y201838D01*
X486712D01*
X486384Y202166D01*
X475754Y228839D02*
X476082Y228511D01*
Y227855D01*
X475754Y227527D01*
X475426D01*
X475098Y227855D01*
Y228183D01*
Y227855D01*
X474770Y227527D01*
X474442D01*
X474114Y227855D01*
Y228511D01*
X474442Y228839D01*
X474114Y225559D02*
Y226871D01*
X475426Y225559D01*
X475754D01*
X476082Y225887D01*
Y226543D01*
X475754Y226871D01*
X476345Y204626D02*
X476673Y204298D01*
Y203642D01*
X476345Y203314D01*
X476017D01*
X475689Y203642D01*
Y203970D01*
Y203642D01*
X475361Y203314D01*
X475033D01*
X474705Y203642D01*
Y204298D01*
X475033Y204626D01*
X476345Y202658D02*
X476673Y202330D01*
Y201674D01*
X476345Y201346D01*
X476017D01*
X475689Y201674D01*
Y202002D01*
Y201674D01*
X475361Y201346D01*
X475033D01*
X474705Y201674D01*
Y202330D01*
X475033Y202658D01*
X465912Y228740D02*
X466240Y228412D01*
Y227756D01*
X465912Y227428D01*
X465584D01*
X465256Y227756D01*
Y228084D01*
Y227756D01*
X464928Y227428D01*
X464600D01*
X464272Y227756D01*
Y228412D01*
X464600Y228740D01*
X464272Y225788D02*
X466240D01*
X465256Y226772D01*
Y225460D01*
X466207Y204725D02*
X466535Y204397D01*
Y203741D01*
X466207Y203413D01*
X465879D01*
X465551Y203741D01*
Y204068D01*
Y203741D01*
X465223Y203413D01*
X464895D01*
X464567Y203741D01*
Y204397D01*
X464895Y204725D01*
X466535Y201445D02*
Y202757D01*
X465551D01*
X465879Y202101D01*
Y201773D01*
X465551Y201445D01*
X464895D01*
X464567Y201773D01*
Y202429D01*
X464895Y202757D01*
X456266Y229035D02*
X456594Y228708D01*
Y228051D01*
X456266Y227724D01*
X455938D01*
X455610Y228051D01*
Y228380D01*
Y228051D01*
X455282Y227724D01*
X454954D01*
X454626Y228051D01*
Y228708D01*
X454954Y229035D01*
X456594Y225756D02*
X456266Y226412D01*
X455610Y227068D01*
X454954D01*
X454626Y226740D01*
Y226084D01*
X454954Y225756D01*
X455282D01*
X455610Y226084D01*
Y227068D01*
X455971Y204035D02*
X456299Y203708D01*
Y203052D01*
X455971Y202724D01*
X455643D01*
X455315Y203052D01*
Y203380D01*
Y203052D01*
X454987Y202724D01*
X454659D01*
X454331Y203052D01*
Y203708D01*
X454659Y204035D01*
X456299Y202068D02*
Y200756D01*
X455971D01*
X454659Y202068D01*
X454331D01*
X446128Y228740D02*
X446456Y228412D01*
Y227756D01*
X446128Y227428D01*
X445800D01*
X445472Y227756D01*
Y228084D01*
Y227756D01*
X445144Y227428D01*
X444816D01*
X444488Y227756D01*
Y228412D01*
X444816Y228740D01*
X446128Y226772D02*
X446456Y226444D01*
Y225788D01*
X446128Y225460D01*
X445800D01*
X445472Y225788D01*
X445144Y225460D01*
X444816D01*
X444488Y225788D01*
Y226444D01*
X444816Y226772D01*
X445144D01*
X445472Y226444D01*
X445800Y226772D01*
X446128D01*
X445472Y226444D02*
Y225788D01*
X446522Y204232D02*
X446850Y203904D01*
Y203248D01*
X446522Y202920D01*
X446194D01*
X445866Y203248D01*
Y203576D01*
Y203248D01*
X445538Y202920D01*
X445210D01*
X444882Y203248D01*
Y203904D01*
X445210Y204232D01*
Y202264D02*
X444882Y201937D01*
Y201280D01*
X445210Y200953D01*
X446522D01*
X446850Y201280D01*
Y201937D01*
X446522Y202264D01*
X446194D01*
X445866Y201937D01*
Y200953D01*
X434744Y228051D02*
X436712D01*
X435728Y229035D01*
Y227724D01*
X436384Y227068D02*
X436712Y226740D01*
Y226084D01*
X436384Y225756D01*
X435072D01*
X434744Y226084D01*
Y226740D01*
X435072Y227068D01*
X436384D01*
X434547Y203150D02*
X436515D01*
X435531Y204134D01*
Y202822D01*
X434547Y202166D02*
Y201510D01*
Y201838D01*
X436515D01*
X436187Y202166D01*
X424803Y228051D02*
X426771D01*
X425787Y229035D01*
Y227724D01*
X424803Y225756D02*
Y227068D01*
X426115Y225756D01*
X426443D01*
X426771Y226084D01*
Y226740D01*
X426443Y227068D01*
X424508Y203445D02*
X426476D01*
X425492Y204429D01*
Y203117D01*
X426148Y202461D02*
X426476Y202133D01*
Y201477D01*
X426148Y201149D01*
X425820D01*
X425492Y201477D01*
Y201805D01*
Y201477D01*
X425164Y201149D01*
X424836D01*
X424508Y201477D01*
Y202133D01*
X424836Y202461D01*
X414567Y227756D02*
X416535D01*
X415551Y228740D01*
Y227428D01*
X414567Y225788D02*
X416535D01*
X415551Y226772D01*
Y225460D01*
X414370Y203248D02*
X416338D01*
X415354Y204232D01*
Y202920D01*
X416338Y200953D02*
Y202264D01*
X415354D01*
X415682Y201608D01*
Y201280D01*
X415354Y200953D01*
X414698D01*
X414370Y201280D01*
Y201937D01*
X414698Y202264D01*
X404823Y227559D02*
X406791D01*
X405807Y228543D01*
Y227231D01*
X406791Y225264D02*
X406463Y225920D01*
X405807Y226575D01*
X405151D01*
X404823Y226248D01*
Y225591D01*
X405151Y225264D01*
X405479D01*
X405807Y225591D01*
Y226575D01*
X404724Y202855D02*
X406692D01*
X405708Y203839D01*
Y202527D01*
X406692Y201871D02*
Y200559D01*
X406364D01*
X405052Y201871D01*
X404724D01*
X395079Y227756D02*
X397047D01*
X396063Y228740D01*
Y227428D01*
X396719Y226772D02*
X397047Y226444D01*
Y225788D01*
X396719Y225460D01*
X396391D01*
X396063Y225788D01*
X395735Y225460D01*
X395407D01*
X395079Y225788D01*
Y226444D01*
X395407Y226772D01*
X395735D01*
X396063Y226444D01*
X396391Y226772D01*
X396719D01*
X396063Y226444D02*
Y225788D01*
X395636Y202822D02*
X395964Y203150D01*
Y203806D01*
X395636Y204134D01*
X395308D01*
X394980Y203806D01*
Y203150D01*
X394652Y202822D01*
X394324D01*
X393996Y203150D01*
Y203806D01*
X394324Y204134D01*
X395964Y200854D02*
Y202166D01*
X393996D01*
Y200854D01*
X394980Y202166D02*
Y201510D01*
X395964Y200198D02*
X393996D01*
Y198886D01*
X384842Y231594D02*
X386810D01*
X386154Y230939D01*
X386810Y230283D01*
X384842D01*
X386810Y229627D02*
Y228971D01*
Y229299D01*
X384842D01*
Y229627D01*
Y228971D01*
X386482Y226675D02*
X386810Y227003D01*
Y227659D01*
X386482Y227987D01*
X386154D01*
X385826Y227659D01*
Y227003D01*
X385498Y226675D01*
X385171D01*
X384842Y227003D01*
Y227659D01*
X385171Y227987D01*
X386810Y225035D02*
Y225691D01*
X386482Y226019D01*
X385171D01*
X384842Y225691D01*
Y225035D01*
X385171Y224707D01*
X386482D01*
X386810Y225035D01*
X384941Y203346D02*
X386909D01*
X386253Y202691D01*
X386909Y202035D01*
X384941D01*
X386909Y200395D02*
Y201051D01*
X386581Y201379D01*
X385269D01*
X384941Y201051D01*
Y200395D01*
X385269Y200067D01*
X386581D01*
X386909Y200395D01*
X386581Y198099D02*
X386909Y198427D01*
Y199083D01*
X386581Y199411D01*
X386253D01*
X385925Y199083D01*
Y198427D01*
X385597Y198099D01*
X385269D01*
X384941Y198427D01*
Y199083D01*
X385269Y199411D01*
X386909Y197443D02*
Y196787D01*
Y197115D01*
X384941D01*
Y197443D01*
Y196787D01*
X376345Y229495D02*
X376673Y229823D01*
Y230479D01*
X376345Y230807D01*
X376017D01*
X375689Y230479D01*
Y229823D01*
X375361Y229495D01*
X375033D01*
X374705Y229823D01*
Y230479D01*
X375033Y230807D01*
X376345Y227527D02*
X376673Y227855D01*
Y228511D01*
X376345Y228839D01*
X375033D01*
X374705Y228511D01*
Y227855D01*
X375033Y227527D01*
X376673Y226871D02*
X374705D01*
X375361D01*
X376673Y225559D01*
X375689Y226543D01*
X374705Y225559D01*
X376148Y199869D02*
X376476Y200197D01*
Y200853D01*
X376148Y201181D01*
X375820D01*
X375492Y200853D01*
Y200197D01*
X375164Y199869D01*
X374836D01*
X374508Y200197D01*
Y200853D01*
X374836Y201181D01*
X376148Y197901D02*
X376476Y198229D01*
Y198885D01*
X376148Y199213D01*
X375820D01*
X375492Y198885D01*
Y198229D01*
X375164Y197901D01*
X374836D01*
X374508Y198229D01*
Y198885D01*
X374836Y199213D01*
X366108Y228905D02*
X366436Y229233D01*
Y229889D01*
X366108Y230217D01*
X364796D01*
X364469Y229889D01*
Y229233D01*
X364796Y228905D01*
X365452D01*
Y229561D01*
X364469Y228249D02*
X366436D01*
X364469Y226937D01*
X366436D01*
Y226281D02*
X364469D01*
Y225297D01*
X364796Y224969D01*
X366108D01*
X366436Y225297D01*
Y226281D01*
X366010Y199574D02*
X366338Y199902D01*
Y200558D01*
X366010Y200886D01*
X364698D01*
X364370Y200558D01*
Y199902D01*
X364698Y199574D01*
X365354D01*
Y200230D01*
X364370Y198918D02*
X366338D01*
X364370Y197606D01*
X366338D01*
Y196950D02*
X364370D01*
Y195966D01*
X364698Y195638D01*
X366010D01*
X366338Y195966D01*
Y196950D01*
X447867Y167486D02*
X447539Y167814D01*
X446883D01*
X446555Y167486D01*
Y166174D01*
X446883Y165847D01*
X447539D01*
X447867Y166174D01*
Y166830D01*
X447211D01*
X448523Y165847D02*
Y167814D01*
X449835Y165847D01*
Y167814D01*
X450491D02*
Y165847D01*
X451475D01*
X451803Y166174D01*
Y167486D01*
X451475Y167814D01*
X450491D01*
X492355Y165551D02*
X491043D01*
X492355Y166863D01*
Y167191D01*
X492027Y167519D01*
X491371D01*
X491043Y167191D01*
X493011Y167519D02*
Y166207D01*
X493667Y165551D01*
X494323Y166207D01*
Y167519D01*
X496291D02*
X494979D01*
Y166535D01*
X495635Y166863D01*
X495963D01*
X496291Y166535D01*
Y165879D01*
X495963Y165551D01*
X495307D01*
X494979Y165879D01*
X236910Y194947D02*
X237237Y195275D01*
X237893D01*
X238221Y194947D01*
Y194619D01*
X237893Y194291D01*
X237565D01*
X237893D01*
X238221Y193963D01*
Y193635D01*
X237893Y193307D01*
X237237D01*
X236910Y193635D01*
X238877Y195275D02*
Y193963D01*
X239533Y193307D01*
X240189Y193963D01*
Y195275D01*
X240845Y194947D02*
X241173Y195275D01*
X241829D01*
X242157Y194947D01*
Y194619D01*
X241829Y194291D01*
X241501D01*
X241829D01*
X242157Y193963D01*
Y193635D01*
X241829Y193307D01*
X241173D01*
X240845Y193635D01*
X186253Y480872D02*
X185925Y481200D01*
X185269D01*
X184941Y480872D01*
Y480544D01*
X185269Y480216D01*
X185925D01*
X186253Y479888D01*
Y479560D01*
X185925Y479232D01*
X185269D01*
X184941Y479560D01*
X188221Y480872D02*
X187893Y481200D01*
X187237D01*
X186909Y480872D01*
Y479560D01*
X187237Y479232D01*
X187893D01*
X188221Y479560D01*
X188877Y481200D02*
Y479232D01*
Y479888D01*
X190189Y481200D01*
X189205Y480216D01*
X190189Y479232D01*
X184941Y468110D02*
X185597D01*
X185269D01*
Y466142D01*
X184941D01*
X185597D01*
X186581D02*
Y468110D01*
X187565D01*
X187893Y467782D01*
Y467126D01*
X187565Y466798D01*
X186581D01*
X187237D02*
X187893Y466142D01*
X189861Y466470D02*
Y467782D01*
X189533Y468110D01*
X188877D01*
X188549Y467782D01*
Y466470D01*
X188877Y466142D01*
X189533D01*
X189205Y466798D02*
X189861Y466142D01*
X189533D02*
X189861Y466470D01*
X614305Y457874D02*
X613977Y458202D01*
Y458858D01*
X614305Y459186D01*
X614633D01*
X614961Y458858D01*
Y458530D01*
Y458858D01*
X615289Y459186D01*
X615617D01*
X615945Y458858D01*
Y458202D01*
X615617Y457874D01*
X615945Y459842D02*
X615617D01*
Y460170D01*
X615945D01*
Y459842D01*
X614305Y461482D02*
X613977Y461810D01*
Y462466D01*
X614305Y462794D01*
X614633D01*
X614961Y462466D01*
Y462138D01*
Y462466D01*
X615289Y462794D01*
X615617D01*
X615945Y462466D01*
Y461810D01*
X615617Y461482D01*
X613977Y463450D02*
X615289D01*
X615945Y464106D01*
X615289Y464761D01*
X613977D01*
Y411942D02*
Y410630D01*
X614961D01*
X614633Y411286D01*
Y411614D01*
X614961Y411942D01*
X615617D01*
X615945Y411614D01*
Y410958D01*
X615617Y410630D01*
X613977Y412598D02*
X615289D01*
X615945Y413254D01*
X615289Y413910D01*
X613977D01*
X762729Y492782D02*
X762401Y493110D01*
X761745D01*
X761417Y492782D01*
Y491470D01*
X761745Y491142D01*
X762401D01*
X762729Y491470D01*
X763385Y491142D02*
X764041D01*
X763713D01*
Y493110D01*
X763385Y492782D01*
X765025Y491142D02*
Y492454D01*
X765681Y493110D01*
X766337Y492454D01*
Y491142D01*
Y492126D01*
X765025D01*
X799343Y525459D02*
X799015Y525787D01*
X798359D01*
X798032Y525459D01*
Y524147D01*
X798359Y523819D01*
X799015D01*
X799343Y524147D01*
X801311Y523819D02*
X799999D01*
X801311Y525131D01*
Y525459D01*
X800983Y525787D01*
X800327D01*
X799999Y525459D01*
X801967Y523819D02*
Y525131D01*
X802623Y525787D01*
X803279Y525131D01*
Y523819D01*
Y524803D01*
X801967D01*
X820013Y520341D02*
X819685Y520669D01*
X819029D01*
X818701Y520341D01*
Y519029D01*
X819029Y518701D01*
X819685D01*
X820013Y519029D01*
X820669Y520341D02*
X820997Y520669D01*
X821653D01*
X821981Y520341D01*
Y520013D01*
X821653Y519685D01*
X821325D01*
X821653D01*
X821981Y519357D01*
Y519029D01*
X821653Y518701D01*
X820997D01*
X820669Y519029D01*
X822637Y518701D02*
Y520013D01*
X823293Y520669D01*
X823948Y520013D01*
Y518701D01*
Y519685D01*
X822637D01*
X841273Y522703D02*
X840945Y523031D01*
X840289D01*
X839961Y522703D01*
Y521391D01*
X840289Y521063D01*
X840945D01*
X841273Y521391D01*
X842912Y521063D02*
Y523031D01*
X841928Y522047D01*
X843240D01*
X843896Y521063D02*
Y522375D01*
X844552Y523031D01*
X845208Y522375D01*
Y521063D01*
Y522047D01*
X843896D01*
X839698Y490026D02*
X839370Y490354D01*
X838714D01*
X838386Y490026D01*
Y488714D01*
X838714Y488386D01*
X839370D01*
X839698Y488714D01*
X841666Y490354D02*
X840354D01*
Y489370D01*
X841010Y489698D01*
X841338D01*
X841666Y489370D01*
Y488714D01*
X841338Y488386D01*
X840682D01*
X840354Y488714D01*
X842322Y488386D02*
Y489698D01*
X842978Y490354D01*
X843633Y489698D01*
Y488386D01*
Y489370D01*
X842322D01*
X696784Y416797D02*
X696456Y417125D01*
X695800D01*
X695472Y416797D01*
Y415485D01*
X695800Y415158D01*
X696456D01*
X696784Y415485D01*
X698752Y417125D02*
X698096Y416797D01*
X697440Y416141D01*
Y415485D01*
X697768Y415158D01*
X698424D01*
X698752Y415485D01*
Y415813D01*
X698424Y416141D01*
X697440D01*
X699408Y415158D02*
Y416469D01*
X700064Y417125D01*
X700720Y416469D01*
Y415158D01*
Y416141D01*
X699408D01*
X700328Y473097D02*
X700000Y473425D01*
X699344D01*
X699016Y473097D01*
Y471785D01*
X699344Y471457D01*
X700000D01*
X700328Y471785D01*
X700984Y473425D02*
X702295D01*
Y473097D01*
X700984Y471785D01*
Y471457D01*
X702951D02*
Y472769D01*
X703607Y473425D01*
X704263Y472769D01*
Y471457D01*
Y472441D01*
X702951D01*
X731628Y462926D02*
X731300Y462598D01*
Y461942D01*
X731628Y461614D01*
X732940D01*
X733268Y461942D01*
Y462598D01*
X732940Y462926D01*
X731628Y463582D02*
X731300Y463910D01*
Y464566D01*
X731628Y464894D01*
X731956D01*
X732284Y464566D01*
X732612Y464894D01*
X732940D01*
X733268Y464566D01*
Y463910D01*
X732940Y463582D01*
X732612D01*
X732284Y463910D01*
X731956Y463582D01*
X731628D01*
X732284Y463910D02*
Y464566D01*
X733268Y465550D02*
X731956D01*
X731300Y466206D01*
X731956Y466862D01*
X733268D01*
X732284D01*
Y465550D01*
X680840Y462532D02*
X680513Y462204D01*
Y461549D01*
X680840Y461221D01*
X682152D01*
X682480Y461549D01*
Y462204D01*
X682152Y462532D01*
Y463188D02*
X682480Y463516D01*
Y464172D01*
X682152Y464500D01*
X680840D01*
X680513Y464172D01*
Y463516D01*
X680840Y463188D01*
X681168D01*
X681496Y463516D01*
Y464500D01*
X682480Y465156D02*
X681168D01*
X680513Y465812D01*
X681168Y466468D01*
X682480D01*
X681496D01*
Y465156D01*
X736482Y447704D02*
X736810Y448032D01*
Y448688D01*
X736482Y449016D01*
X735171D01*
X734842Y448688D01*
Y448032D01*
X735171Y447704D01*
X734842Y447048D02*
Y446392D01*
Y446720D01*
X736810D01*
X736482Y447048D01*
Y445408D02*
X736810Y445080D01*
Y444424D01*
X736482Y444096D01*
X735171D01*
X734842Y444424D01*
Y445080D01*
X735171Y445408D01*
X736482D01*
X734842Y443440D02*
X736154D01*
X736810Y442784D01*
X736154Y442128D01*
X734842D01*
X735826D01*
Y443440D01*
X708202Y414829D02*
X707874Y415157D01*
X707218D01*
X706890Y414829D01*
Y413517D01*
X707218Y413189D01*
X707874D01*
X708202Y413517D01*
X708858Y413189D02*
X709514D01*
X709186D01*
Y415157D01*
X708858Y414829D01*
X710498Y413189D02*
X711154D01*
X710825D01*
Y415157D01*
X710498Y414829D01*
X712137Y413189D02*
Y414501D01*
X712793Y415157D01*
X713449Y414501D01*
Y413189D01*
Y414173D01*
X712137D01*
X737664Y435893D02*
X737992Y436221D01*
Y436877D01*
X737664Y437205D01*
X736352D01*
X736024Y436877D01*
Y436221D01*
X736352Y435893D01*
X736024Y435237D02*
Y434581D01*
Y434909D01*
X737992D01*
X737664Y435237D01*
X736024Y432285D02*
Y433597D01*
X737335Y432285D01*
X737664D01*
X737992Y432613D01*
Y433269D01*
X737664Y433597D01*
X736024Y431629D02*
X737335D01*
X737992Y430973D01*
X737335Y430317D01*
X736024D01*
X737008D01*
Y431629D01*
X680250Y447375D02*
X679922Y447047D01*
Y446391D01*
X680250Y446063D01*
X681562D01*
X681890Y446391D01*
Y447047D01*
X681562Y447375D01*
X681890Y448031D02*
Y448687D01*
Y448359D01*
X679922D01*
X680250Y448031D01*
Y449671D02*
X679922Y449999D01*
Y450655D01*
X680250Y450983D01*
X680578D01*
X680906Y450655D01*
Y450327D01*
Y450655D01*
X681234Y450983D01*
X681562D01*
X681890Y450655D01*
Y449999D01*
X681562Y449671D01*
X681890Y451639D02*
X680578D01*
X679922Y452295D01*
X680578Y452950D01*
X681890D01*
X680906D01*
Y451639D01*
X729068Y412467D02*
X728740Y412795D01*
X728084D01*
X727756Y412467D01*
Y411155D01*
X728084Y410827D01*
X728740D01*
X729068Y411155D01*
X729724Y410827D02*
X730380D01*
X730052D01*
Y412795D01*
X729724Y412467D01*
X732348Y410827D02*
Y412795D01*
X731364Y411811D01*
X732676D01*
X733331Y410827D02*
Y412139D01*
X733988Y412795D01*
X734644Y412139D01*
Y410827D01*
Y411811D01*
X733331D01*
X681234Y432611D02*
X680906Y432283D01*
Y431627D01*
X681234Y431299D01*
X682546D01*
X682874Y431627D01*
Y432283D01*
X682546Y432611D01*
X682874Y433267D02*
Y433923D01*
Y433595D01*
X680906D01*
X681234Y433267D01*
X680906Y436219D02*
Y434907D01*
X681890D01*
X681562Y435563D01*
Y435891D01*
X681890Y436219D01*
X682546D01*
X682874Y435891D01*
Y435235D01*
X682546Y434907D01*
X682874Y436875D02*
X681562D01*
X680906Y437531D01*
X681562Y438187D01*
X682874D01*
X681890D01*
Y436875D01*
X781628Y458005D02*
X781300Y457677D01*
Y457021D01*
X781628Y456693D01*
X782940D01*
X783268Y457021D01*
Y457677D01*
X782940Y458005D01*
X783268Y458661D02*
Y459317D01*
Y458989D01*
X781300D01*
X781628Y458661D01*
X781300Y461613D02*
X781628Y460957D01*
X782284Y460301D01*
X782940D01*
X783268Y460629D01*
Y461285D01*
X782940Y461613D01*
X782612D01*
X782284Y461285D01*
Y460301D01*
X783268Y462268D02*
X781956D01*
X781300Y462924D01*
X781956Y463580D01*
X783268D01*
X782284D01*
Y462268D01*
X818044Y469356D02*
X817716Y469684D01*
X817060D01*
X816732Y469356D01*
Y468045D01*
X817060Y467717D01*
X817716D01*
X818044Y468045D01*
X818700Y467717D02*
X819356D01*
X819028D01*
Y469684D01*
X818700Y469356D01*
X820340Y469684D02*
X821652D01*
Y469356D01*
X820340Y468045D01*
Y467717D01*
X822308D02*
Y469028D01*
X822964Y469684D01*
X823620Y469028D01*
Y467717D01*
Y468701D01*
X822308D01*
X840485Y470734D02*
X840157Y471062D01*
X839501D01*
X839173Y470734D01*
Y469422D01*
X839501Y469095D01*
X840157D01*
X840485Y469422D01*
X841141Y469095D02*
X841797D01*
X841469D01*
Y471062D01*
X841141Y470734D01*
X842781D02*
X843109Y471062D01*
X843765D01*
X844093Y470734D01*
Y470406D01*
X843765Y470078D01*
X844093Y469750D01*
Y469422D01*
X843765Y469095D01*
X843109D01*
X842781Y469422D01*
Y469750D01*
X843109Y470078D01*
X842781Y470406D01*
Y470734D01*
X843109Y470078D02*
X843765D01*
X844749Y469095D02*
Y470406D01*
X845405Y471062D01*
X846061Y470406D01*
Y469095D01*
Y470078D01*
X844749D01*
X838713Y437860D02*
X838385Y438188D01*
X837730D01*
X837402Y437860D01*
Y436549D01*
X837730Y436221D01*
X838385D01*
X838713Y436549D01*
X839369Y436221D02*
X840025D01*
X839697D01*
Y438188D01*
X839369Y437860D01*
X841009Y436549D02*
X841337Y436221D01*
X841993D01*
X842321Y436549D01*
Y437860D01*
X841993Y438188D01*
X841337D01*
X841009Y437860D01*
Y437532D01*
X841337Y437204D01*
X842321D01*
X842977Y436221D02*
Y437532D01*
X843633Y438188D01*
X844289Y437532D01*
Y436221D01*
Y437204D01*
X842977D01*
X691930Y438386D02*
X693898D01*
Y439370D01*
X693570Y439698D01*
X692258D01*
X691930Y439370D01*
Y438386D01*
X692258Y441666D02*
X691930Y441338D01*
Y440682D01*
X692258Y440354D01*
X693570D01*
X693898Y440682D01*
Y441338D01*
X693570Y441666D01*
X691930Y442322D02*
X693898D01*
Y443305D01*
X693570Y443634D01*
X692258D01*
X691930Y443305D01*
Y442322D01*
X692258Y445601D02*
X691930Y445273D01*
Y444617D01*
X692258Y444289D01*
X693570D01*
X693898Y444617D01*
Y445273D01*
X693570Y445601D01*
X693898Y446257D02*
X692586D01*
X691930Y446913D01*
X692586Y447569D01*
X693898D01*
X692914D01*
Y446257D01*
X614305Y510958D02*
X613977Y510630D01*
Y509974D01*
X614305Y509646D01*
X615617D01*
X615945Y509974D01*
Y510630D01*
X615617Y510958D01*
X614961D01*
Y510302D01*
X615945Y511614D02*
X613977D01*
X615945Y512925D01*
X613977D01*
Y513581D02*
X615945D01*
Y514565D01*
X615617Y514893D01*
X614305D01*
X613977Y514565D01*
Y513581D01*
X622329Y201315D02*
X621672D01*
X622001D01*
Y199675D01*
X621672Y199347D01*
X621345D01*
X621017Y199675D01*
X622984Y199347D02*
X623640D01*
X623312D01*
Y201315D01*
X622984Y200987D01*
X624624Y199347D02*
Y200659D01*
X625280Y201315D01*
X625936Y200659D01*
Y199347D01*
Y200331D01*
X624624D01*
X712008Y474999D02*
Y473032D01*
X713320D01*
X713976D02*
X714632D01*
X714304D01*
Y474999D01*
X713976Y474671D01*
X715616Y473032D02*
Y474343D01*
X716272Y474999D01*
X716927Y474343D01*
Y473032D01*
Y474015D01*
X715616D01*
X797047Y499212D02*
Y497244D01*
X798359D01*
X799015Y499212D02*
X799671D01*
X799343D01*
Y497244D01*
X799015D01*
X799671D01*
X800655D02*
Y499212D01*
X801311Y498556D01*
X801967Y499212D01*
Y497244D01*
X802623D02*
X803279D01*
X802951D01*
Y499212D01*
X802623Y498884D01*
X804263Y497244D02*
Y498556D01*
X804919Y499212D01*
X805575Y498556D01*
Y497244D01*
Y498228D01*
X804263D01*
X797835Y470275D02*
Y468307D01*
X799147D01*
X799802Y470275D02*
X800459D01*
X800130D01*
Y468307D01*
X799802D01*
X800459D01*
X801442D02*
Y470275D01*
X802098Y469619D01*
X802754Y470275D01*
Y468307D01*
X804722D02*
X803410D01*
X804722Y469619D01*
Y469947D01*
X804394Y470275D01*
X803738D01*
X803410Y469947D01*
X805378Y468307D02*
Y469619D01*
X806034Y470275D01*
X806690Y469619D01*
Y468307D01*
Y469291D01*
X805378D01*
X973820Y498031D02*
Y497375D01*
X974148Y497047D01*
X975459D01*
X975787Y497375D01*
Y498031D01*
X975459Y498359D01*
X974148D01*
X973820Y498031D01*
Y499015D02*
X975459D01*
X975787Y499343D01*
Y499999D01*
X975459Y500327D01*
X973820D01*
Y500983D02*
Y502295D01*
Y501639D01*
X975787D01*
Y502951D02*
X974475D01*
X973820Y503607D01*
X974475Y504263D01*
X975787D01*
X974804D01*
Y502951D01*
X976115Y504919D02*
Y506231D01*
X974148Y506886D02*
X973820Y507214D01*
Y507870D01*
X974148Y508198D01*
X974475D01*
X974804Y507870D01*
Y507543D01*
Y507870D01*
X975132Y508198D01*
X975459D01*
X975787Y507870D01*
Y507214D01*
X975459Y506886D01*
X975787Y508854D02*
X975459D01*
Y509182D01*
X975787D01*
Y508854D01*
X974148Y510494D02*
X973820Y510822D01*
Y511478D01*
X974148Y511806D01*
X974475D01*
X974804Y511478D01*
Y511150D01*
Y511478D01*
X975132Y511806D01*
X975459D01*
X975787Y511478D01*
Y510822D01*
X975459Y510494D01*
X973820Y512462D02*
X975132D01*
X975787Y513118D01*
X975132Y513774D01*
X973820D01*
X974607Y448031D02*
Y447375D01*
X974935Y447047D01*
X976247D01*
X976575Y447375D01*
Y448031D01*
X976247Y448359D01*
X974935D01*
X974607Y448031D01*
Y449015D02*
X976247D01*
X976575Y449343D01*
Y449999D01*
X976247Y450327D01*
X974607D01*
Y450983D02*
Y452295D01*
Y451639D01*
X976575D01*
Y452951D02*
X975263D01*
X974607Y453607D01*
X975263Y454263D01*
X976575D01*
X975591D01*
Y452951D01*
X976903Y454919D02*
Y456231D01*
X976575Y456886D02*
X974607D01*
Y457870D01*
X974935Y458198D01*
X975591D01*
X975919Y457870D01*
Y456886D01*
Y457543D02*
X976575Y458198D01*
X974607Y460166D02*
Y458854D01*
X976575D01*
Y460166D01*
X975591Y458854D02*
Y459510D01*
X974935Y462134D02*
X974607Y461806D01*
Y461150D01*
X974935Y460822D01*
X976247D01*
X976575Y461150D01*
Y461806D01*
X976247Y462134D01*
X975591D01*
Y461478D01*
X974607Y462790D02*
X975919D01*
X976575Y463446D01*
X975919Y464102D01*
X974607D01*
X738386Y508071D02*
X736418D01*
Y509055D01*
X736746Y509383D01*
X737402D01*
X737730Y509055D01*
Y508071D01*
Y508727D02*
X738386Y509383D01*
Y510039D02*
Y510695D01*
Y510367D01*
X736418D01*
X736746Y510039D01*
X738386Y511679D02*
X737074D01*
X736418Y512335D01*
X737074Y512991D01*
X738386D01*
X737402D01*
Y511679D01*
X776378Y512008D02*
X778346D01*
Y511024D01*
X778018Y510696D01*
X777362D01*
X777034Y511024D01*
Y512008D01*
Y511352D02*
X776378Y510696D01*
Y508728D02*
Y510040D01*
X777690Y508728D01*
X778018D01*
X778346Y509056D01*
Y509712D01*
X778018Y510040D01*
X776378Y508072D02*
X777690D01*
X778346Y507416D01*
X777690Y506760D01*
X776378D01*
X777362D01*
Y508072D01*
X815945Y491535D02*
Y493503D01*
X816929D01*
X817257Y493175D01*
Y492519D01*
X816929Y492191D01*
X815945D01*
X816601D02*
X817257Y491535D01*
X817913Y493175D02*
X818241Y493503D01*
X818897D01*
X819225Y493175D01*
Y492847D01*
X818897Y492519D01*
X818569D01*
X818897D01*
X819225Y492191D01*
Y491863D01*
X818897Y491535D01*
X818241D01*
X817913Y491863D01*
X819881Y491535D02*
Y492847D01*
X820537Y493503D01*
X821192Y492847D01*
Y491535D01*
Y492519D01*
X819881D01*
X864961Y507087D02*
Y509055D01*
X865945D01*
X866273Y508727D01*
Y508071D01*
X865945Y507743D01*
X864961D01*
X865617D02*
X866273Y507087D01*
X867912D02*
Y509055D01*
X866928Y508071D01*
X868240D01*
X868896Y507087D02*
Y508398D01*
X869552Y509055D01*
X870208Y508398D01*
Y507087D01*
Y508071D01*
X868896D01*
X864961Y499213D02*
Y501181D01*
X865945D01*
X866273Y500852D01*
Y500197D01*
X865945Y499868D01*
X864961D01*
X865617D02*
X866273Y499213D01*
X868240Y501181D02*
X866928D01*
Y500197D01*
X867585Y500525D01*
X867912D01*
X868240Y500197D01*
Y499541D01*
X867912Y499213D01*
X867257D01*
X866928Y499541D01*
X868896Y499213D02*
Y500525D01*
X869552Y501181D01*
X870208Y500525D01*
Y499213D01*
Y500197D01*
X868896D01*
X749803Y451378D02*
Y453346D01*
X750787D01*
X751115Y453018D01*
Y452362D01*
X750787Y452034D01*
X749803D01*
X750459D02*
X751115Y451378D01*
X753083Y453346D02*
X752427Y453018D01*
X751771Y452362D01*
Y451706D01*
X752099Y451378D01*
X752755D01*
X753083Y451706D01*
Y452034D01*
X752755Y452362D01*
X751771D01*
X753739Y451378D02*
Y452690D01*
X754395Y453346D01*
X755051Y452690D01*
Y451378D01*
Y452362D01*
X753739D01*
X700197Y405315D02*
Y407283D01*
X701181D01*
X701509Y406955D01*
Y406299D01*
X701181Y405971D01*
X700197D01*
X700853D02*
X701509Y405315D01*
X702165Y407283D02*
X703477D01*
Y406955D01*
X702165Y405643D01*
Y405315D01*
X704133D02*
Y406627D01*
X704788Y407283D01*
X705444Y406627D01*
Y405315D01*
Y406299D01*
X704133D01*
X757283Y430118D02*
X755316D01*
Y431102D01*
X755644Y431430D01*
X756299D01*
X756628Y431102D01*
Y430118D01*
Y430774D02*
X757283Y431430D01*
X755644Y432086D02*
X755316Y432414D01*
Y433070D01*
X755644Y433398D01*
X755972D01*
X756299Y433070D01*
X756628Y433398D01*
X756955D01*
X757283Y433070D01*
Y432414D01*
X756955Y432086D01*
X756628D01*
X756299Y432414D01*
X755972Y432086D01*
X755644D01*
X756299Y432414D02*
Y433070D01*
X757283Y434054D02*
X755972D01*
X755316Y434710D01*
X755972Y435366D01*
X757283D01*
X756299D01*
Y434054D01*
X769882Y455315D02*
Y457283D01*
X770866D01*
X771194Y456955D01*
Y456299D01*
X770866Y455971D01*
X769882D01*
X770538D02*
X771194Y455315D01*
X771850Y455643D02*
X772178Y455315D01*
X772834D01*
X773162Y455643D01*
Y456955D01*
X772834Y457283D01*
X772178D01*
X771850Y456955D01*
Y456627D01*
X772178Y456299D01*
X773162D01*
X773818Y455315D02*
Y456627D01*
X774474Y457283D01*
X775130Y456627D01*
Y455315D01*
Y456299D01*
X773818D01*
X769488Y466240D02*
Y468208D01*
X770472D01*
X770800Y467880D01*
Y467224D01*
X770472Y466896D01*
X769488D01*
X770144D02*
X770800Y466240D01*
X771456D02*
X772112D01*
X771784D01*
Y468208D01*
X771456Y467880D01*
X773096D02*
X773424Y468208D01*
X774080D01*
X774408Y467880D01*
Y466568D01*
X774080Y466240D01*
X773424D01*
X773096Y466568D01*
Y467880D01*
X775064Y466240D02*
Y467552D01*
X775720Y468208D01*
X776376Y467552D01*
Y466240D01*
Y467224D01*
X775064D01*
X799016Y439567D02*
Y441535D01*
X800000D01*
X800328Y441207D01*
Y440551D01*
X800000Y440223D01*
X799016D01*
X799672D02*
X800328Y439567D01*
X800984D02*
X801640D01*
X801312D01*
Y441535D01*
X800984Y441207D01*
X802623Y439567D02*
X803279D01*
X802952D01*
Y441535D01*
X802623Y441207D01*
X804263Y439567D02*
Y440879D01*
X804919Y441535D01*
X805575Y440879D01*
Y439567D01*
Y440551D01*
X804263D01*
X814764Y439173D02*
Y441141D01*
X815748D01*
X816076Y440813D01*
Y440157D01*
X815748Y439829D01*
X814764D01*
X815420D02*
X816076Y439173D01*
X816732D02*
X817388D01*
X817060D01*
Y441141D01*
X816732Y440813D01*
X819683Y439173D02*
X818372D01*
X819683Y440485D01*
Y440813D01*
X819355Y441141D01*
X818699D01*
X818372Y440813D01*
X820339Y439173D02*
Y440485D01*
X820995Y441141D01*
X821651Y440485D01*
Y439173D01*
Y440157D01*
X820339D01*
X874803Y461811D02*
Y463779D01*
X875787D01*
X876115Y463451D01*
Y462795D01*
X875787Y462467D01*
X874803D01*
X875459D02*
X876115Y461811D01*
X876771D02*
X877427D01*
X877099D01*
Y463779D01*
X876771Y463451D01*
X878411D02*
X878739Y463779D01*
X879395D01*
X879723Y463451D01*
Y463123D01*
X879395Y462795D01*
X879067D01*
X879395D01*
X879723Y462467D01*
Y462139D01*
X879395Y461811D01*
X878739D01*
X878411Y462139D01*
X880379Y461811D02*
Y463123D01*
X881035Y463779D01*
X881691Y463123D01*
Y461811D01*
Y462795D01*
X880379D01*
X874803Y443110D02*
Y445078D01*
X875787D01*
X876115Y444750D01*
Y444094D01*
X875787Y443766D01*
X874803D01*
X875459D02*
X876115Y443110D01*
X876771D02*
X877427D01*
X877099D01*
Y445078D01*
X876771Y444750D01*
X879395Y443110D02*
Y445078D01*
X878411Y444094D01*
X879723D01*
X880379Y443110D02*
Y444422D01*
X881035Y445078D01*
X881691Y444422D01*
Y443110D01*
Y444094D01*
X880379D01*
X762139Y520341D02*
X761811Y520669D01*
X761155D01*
X760827Y520341D01*
Y520013D01*
X761155Y519685D01*
X761811D01*
X762139Y519357D01*
Y519029D01*
X761811Y518701D01*
X761155D01*
X760827Y519029D01*
X762795Y520669D02*
Y518701D01*
X763451Y519357D01*
X764107Y518701D01*
Y520669D01*
X764762Y518701D02*
X765418D01*
X765091D01*
Y520669D01*
X764762Y520341D01*
X766402Y518701D02*
Y520013D01*
X767058Y520669D01*
X767714Y520013D01*
Y518701D01*
Y519685D01*
X766402D01*
X847441Y499802D02*
Y498163D01*
X847769Y497835D01*
X848425D01*
X848753Y498163D01*
Y499802D01*
X850721Y497835D02*
X849409D01*
X850721Y499147D01*
Y499474D01*
X850393Y499802D01*
X849737D01*
X849409Y499474D01*
X851377Y497835D02*
Y499147D01*
X852033Y499802D01*
X852689Y499147D01*
Y497835D01*
Y498819D01*
X851377D01*
X848622Y447440D02*
Y445800D01*
X848950Y445472D01*
X849606D01*
X849934Y445800D01*
Y447440D01*
X850590Y447112D02*
X850918Y447440D01*
X851574D01*
X851902Y447112D01*
Y446784D01*
X851574Y446456D01*
X851246D01*
X851574D01*
X851902Y446128D01*
Y445800D01*
X851574Y445472D01*
X850918D01*
X850590Y445800D01*
X852558Y445472D02*
Y446784D01*
X853214Y447440D01*
X853870Y446784D01*
Y445472D01*
Y446456D01*
X852558D01*
X724213Y505315D02*
X725853D01*
X726181Y505643D01*
Y506299D01*
X725853Y506627D01*
X724213D01*
X726181Y507283D02*
Y507939D01*
Y507611D01*
X724213D01*
X724541Y507283D01*
X726181Y508923D02*
X724869D01*
X724213Y509579D01*
X724869Y510235D01*
X726181D01*
X725197D01*
Y508923D01*
X761634Y372421D02*
X761306Y372749D01*
X760650D01*
X760322Y372421D01*
Y371109D01*
X760650Y370781D01*
X761306D01*
X761634Y371109D01*
X762290Y370781D02*
X762946D01*
X762618D01*
Y372749D01*
X762290Y372421D01*
X763930Y372749D02*
Y370781D01*
X764914D01*
X765242Y371109D01*
Y371437D01*
X764914Y371765D01*
X763930D01*
X764914D01*
X765242Y372093D01*
Y372421D01*
X764914Y372749D01*
X763930D01*
X798304Y373700D02*
X797976Y374028D01*
X797320D01*
X796992Y373700D01*
Y372388D01*
X797320Y372060D01*
X797976D01*
X798304Y372388D01*
X800272Y372060D02*
X798960D01*
X800272Y373372D01*
Y373700D01*
X799944Y374028D01*
X799288D01*
X798960Y373700D01*
X800928Y374028D02*
Y372060D01*
X801912D01*
X802240Y372388D01*
Y372716D01*
X801912Y373044D01*
X800928D01*
X801912D01*
X802240Y373372D01*
Y373700D01*
X801912Y374028D01*
X800928D01*
X820963Y369075D02*
X820635Y369402D01*
X819979D01*
X819651Y369075D01*
Y367763D01*
X819979Y367435D01*
X820635D01*
X820963Y367763D01*
X821619Y369075D02*
X821947Y369402D01*
X822603D01*
X822931Y369075D01*
Y368746D01*
X822603Y368419D01*
X822275D01*
X822603D01*
X822931Y368091D01*
Y367763D01*
X822603Y367435D01*
X821947D01*
X821619Y367763D01*
X823587Y369402D02*
Y367435D01*
X824571D01*
X824899Y367763D01*
Y368091D01*
X824571Y368419D01*
X823587D01*
X824571D01*
X824899Y368746D01*
Y369075D01*
X824571Y369402D01*
X823587D01*
X839572Y375715D02*
X839244Y376044D01*
X838588D01*
X838260Y375715D01*
Y374404D01*
X838588Y374076D01*
X839244D01*
X839572Y374404D01*
X841212Y374076D02*
Y376044D01*
X840228Y375060D01*
X841540D01*
X842196Y376044D02*
Y374076D01*
X843180D01*
X843507Y374404D01*
Y374732D01*
X843180Y375060D01*
X842196D01*
X843180D01*
X843507Y375388D01*
Y375715D01*
X843180Y376044D01*
X842196D01*
X839698Y338057D02*
X839370Y338385D01*
X838714D01*
X838386Y338057D01*
Y336745D01*
X838714Y336417D01*
X839370D01*
X839698Y336745D01*
X841666Y338385D02*
X840354D01*
Y337401D01*
X841010Y337729D01*
X841338D01*
X841666Y337401D01*
Y336745D01*
X841338Y336417D01*
X840682D01*
X840354Y336745D01*
X842322Y338385D02*
Y336417D01*
X843305D01*
X843633Y336745D01*
Y337073D01*
X843305Y337401D01*
X842322D01*
X843305D01*
X843633Y337729D01*
Y338057D01*
X843305Y338385D01*
X842322D01*
X690879Y277034D02*
X690551Y277362D01*
X689895D01*
X689567Y277034D01*
Y275722D01*
X689895Y275394D01*
X690551D01*
X690879Y275722D01*
X692847Y277362D02*
X692191Y277034D01*
X691535Y276378D01*
Y275722D01*
X691863Y275394D01*
X692519D01*
X692847Y275722D01*
Y276050D01*
X692519Y276378D01*
X691535D01*
X693503Y277362D02*
Y275394D01*
X694487D01*
X694815Y275722D01*
Y276050D01*
X694487Y276378D01*
X693503D01*
X694487D01*
X694815Y276706D01*
Y277034D01*
X694487Y277362D01*
X693503D01*
X695014Y315288D02*
X694686Y314960D01*
Y314304D01*
X695014Y313976D01*
X696326D01*
X696654Y314304D01*
Y314960D01*
X696326Y315288D01*
X694686Y315944D02*
Y317256D01*
X695014D01*
X696326Y315944D01*
X696654D01*
X694686Y317912D02*
X696654D01*
Y318896D01*
X696326Y319224D01*
X695998D01*
X695670Y318896D01*
Y317912D01*
Y318896D01*
X695342Y319224D01*
X695014D01*
X694686Y318896D01*
Y317912D01*
X732415Y314501D02*
X732087Y314173D01*
Y313517D01*
X732415Y313189D01*
X733727D01*
X734055Y313517D01*
Y314173D01*
X733727Y314501D01*
X732415Y315157D02*
X732087Y315485D01*
Y316141D01*
X732415Y316469D01*
X732743D01*
X733071Y316141D01*
X733399Y316469D01*
X733727D01*
X734055Y316141D01*
Y315485D01*
X733727Y315157D01*
X733399D01*
X733071Y315485D01*
X732743Y315157D01*
X732415D01*
X733071Y315485D02*
Y316141D01*
X732087Y317125D02*
X734055D01*
Y318109D01*
X733727Y318437D01*
X733399D01*
X733071Y318109D01*
Y317125D01*
Y318109D01*
X732743Y318437D01*
X732415D01*
X732087Y318109D01*
Y317125D01*
X681234Y314501D02*
X680906Y314173D01*
Y313517D01*
X681234Y313189D01*
X682546D01*
X682874Y313517D01*
Y314173D01*
X682546Y314501D01*
Y315157D02*
X682874Y315485D01*
Y316141D01*
X682546Y316469D01*
X681234D01*
X680906Y316141D01*
Y315485D01*
X681234Y315157D01*
X681562D01*
X681890Y315485D01*
Y316469D01*
X680906Y317125D02*
X682874D01*
Y318109D01*
X682546Y318437D01*
X682218D01*
X681890Y318109D01*
Y317125D01*
Y318109D01*
X681562Y318437D01*
X681234D01*
X680906Y318109D01*
Y317125D01*
X735959Y294816D02*
X735631Y294488D01*
Y293832D01*
X735959Y293504D01*
X737270D01*
X737598Y293832D01*
Y294488D01*
X737270Y294816D01*
X737598Y295472D02*
Y296128D01*
Y295800D01*
X735631D01*
X735959Y295472D01*
Y297112D02*
X735631Y297440D01*
Y298096D01*
X735959Y298424D01*
X737270D01*
X737598Y298096D01*
Y297440D01*
X737270Y297112D01*
X735959D01*
X735631Y299080D02*
X737598D01*
Y300063D01*
X737270Y300392D01*
X736942D01*
X736615Y300063D01*
Y299080D01*
Y300063D01*
X736286Y300392D01*
X735959D01*
X735631Y300063D01*
Y299080D01*
X710083Y271375D02*
X709755Y271703D01*
X709099D01*
X708771Y271375D01*
Y270063D01*
X709099Y269735D01*
X709755D01*
X710083Y270063D01*
X710739Y269735D02*
X711395D01*
X711067D01*
Y271703D01*
X710739Y271375D01*
X712379Y269735D02*
X713035D01*
X712707D01*
Y271703D01*
X712379Y271375D01*
X714018Y271703D02*
Y269735D01*
X715002D01*
X715330Y270063D01*
Y270391D01*
X715002Y270719D01*
X714018D01*
X715002D01*
X715330Y271047D01*
Y271375D01*
X715002Y271703D01*
X714018D01*
X735171Y281430D02*
X734843Y281102D01*
Y280446D01*
X735171Y280118D01*
X736483D01*
X736811Y280446D01*
Y281102D01*
X736483Y281430D01*
X736811Y282086D02*
Y282742D01*
Y282414D01*
X734843D01*
X735171Y282086D01*
X736811Y285038D02*
Y283726D01*
X735499Y285038D01*
X735171D01*
X734843Y284710D01*
Y284054D01*
X735171Y283726D01*
X734843Y285694D02*
X736811D01*
Y286678D01*
X736483Y287006D01*
X736155D01*
X735827Y286678D01*
Y285694D01*
Y286678D01*
X735499Y287006D01*
X735171D01*
X734843Y286678D01*
Y285694D01*
X681234Y300328D02*
X680906Y300000D01*
Y299344D01*
X681234Y299016D01*
X682546D01*
X682874Y299344D01*
Y300000D01*
X682546Y300328D01*
X682874Y300984D02*
Y301640D01*
Y301312D01*
X680906D01*
X681234Y300984D01*
Y302624D02*
X680906Y302952D01*
Y303607D01*
X681234Y303935D01*
X681562D01*
X681890Y303607D01*
Y303279D01*
Y303607D01*
X682218Y303935D01*
X682546D01*
X682874Y303607D01*
Y302952D01*
X682546Y302624D01*
X680906Y304591D02*
X682874D01*
Y305575D01*
X682546Y305903D01*
X682218D01*
X681890Y305575D01*
Y304591D01*
Y305575D01*
X681562Y305903D01*
X681234D01*
X680906Y305575D01*
Y304591D01*
X729855Y270341D02*
X729527Y270669D01*
X728871D01*
X728543Y270341D01*
Y269029D01*
X728871Y268701D01*
X729527D01*
X729855Y269029D01*
X730511Y268701D02*
X731167D01*
X730839D01*
Y270669D01*
X730511Y270341D01*
X733135Y268701D02*
Y270669D01*
X732151Y269685D01*
X733463D01*
X734119Y270669D02*
Y268701D01*
X735103D01*
X735431Y269029D01*
Y269357D01*
X735103Y269685D01*
X734119D01*
X735103D01*
X735431Y270013D01*
Y270341D01*
X735103Y270669D01*
X734119D01*
X681234Y286942D02*
X680906Y286614D01*
Y285958D01*
X681234Y285630D01*
X682546D01*
X682874Y285958D01*
Y286614D01*
X682546Y286942D01*
X682874Y287598D02*
Y288254D01*
Y287926D01*
X680906D01*
X681234Y287598D01*
X680906Y290550D02*
Y289238D01*
X681890D01*
X681562Y289894D01*
Y290222D01*
X681890Y290550D01*
X682546D01*
X682874Y290222D01*
Y289566D01*
X682546Y289238D01*
X680906Y291206D02*
X682874D01*
Y292190D01*
X682546Y292517D01*
X682218D01*
X681890Y292190D01*
Y291206D01*
Y292190D01*
X681562Y292517D01*
X681234D01*
X680906Y292190D01*
Y291206D01*
X785538Y320693D02*
X785210Y321021D01*
X784554D01*
X784226Y320693D01*
Y319381D01*
X784554Y319053D01*
X785210D01*
X785538Y319381D01*
X786194Y319053D02*
X786850D01*
X786522D01*
Y321021D01*
X786194Y320693D01*
X789146Y321021D02*
X788490Y320693D01*
X787834Y320037D01*
Y319381D01*
X788162Y319053D01*
X788818D01*
X789146Y319381D01*
Y319709D01*
X788818Y320037D01*
X787834D01*
X789802Y321021D02*
Y319053D01*
X790786D01*
X791114Y319381D01*
Y319709D01*
X790786Y320037D01*
X789802D01*
X790786D01*
X791114Y320365D01*
Y320693D01*
X790786Y321021D01*
X789802D01*
X826116Y312532D02*
X825788Y312204D01*
Y311548D01*
X826116Y311221D01*
X827428D01*
X827756Y311548D01*
Y312204D01*
X827428Y312532D01*
X827756Y313188D02*
Y313844D01*
Y313516D01*
X825788D01*
X826116Y313188D01*
X825788Y314828D02*
Y316140D01*
X826116D01*
X827428Y314828D01*
X827756D01*
X825788Y316796D02*
X827756D01*
Y317780D01*
X827428Y318108D01*
X827100D01*
X826772Y317780D01*
Y316796D01*
Y317780D01*
X826444Y318108D01*
X826116D01*
X825788Y317780D01*
Y316796D01*
X840092Y326640D02*
X839764Y326968D01*
X839108D01*
X838780Y326640D01*
Y325328D01*
X839108Y325000D01*
X839764D01*
X840092Y325328D01*
X840747Y325000D02*
X841403D01*
X841075D01*
Y326968D01*
X840747Y326640D01*
X842387D02*
X842715Y326968D01*
X843371D01*
X843699Y326640D01*
Y326312D01*
X843371Y325984D01*
X843699Y325656D01*
Y325328D01*
X843371Y325000D01*
X842715D01*
X842387Y325328D01*
Y325656D01*
X842715Y325984D01*
X842387Y326312D01*
Y326640D01*
X842715Y325984D02*
X843371D01*
X844355Y326968D02*
Y325000D01*
X845339D01*
X845667Y325328D01*
Y325656D01*
X845339Y325984D01*
X844355D01*
X845339D01*
X845667Y326312D01*
Y326640D01*
X845339Y326968D01*
X844355D01*
X838910Y300262D02*
X838582Y300590D01*
X837926D01*
X837598Y300262D01*
Y298950D01*
X837926Y298622D01*
X838582D01*
X838910Y298950D01*
X839566Y298622D02*
X840222D01*
X839894D01*
Y300590D01*
X839566Y300262D01*
X841206Y298950D02*
X841534Y298622D01*
X842190D01*
X842518Y298950D01*
Y300262D01*
X842190Y300590D01*
X841534D01*
X841206Y300262D01*
Y299934D01*
X841534Y299606D01*
X842518D01*
X843174Y300590D02*
Y298622D01*
X844158D01*
X844486Y298950D01*
Y299278D01*
X844158Y299606D01*
X843174D01*
X844158D01*
X844486Y299934D01*
Y300262D01*
X844158Y300590D01*
X843174D01*
X692717Y290748D02*
X694685D01*
Y291732D01*
X694357Y292060D01*
X693045D01*
X692717Y291732D01*
Y290748D01*
X693045Y294028D02*
X692717Y293700D01*
Y293044D01*
X693045Y292716D01*
X694357D01*
X694685Y293044D01*
Y293700D01*
X694357Y294028D01*
X692717Y294684D02*
X694685D01*
Y295668D01*
X694357Y295996D01*
X693045D01*
X692717Y295668D01*
Y294684D01*
X693045Y297964D02*
X692717Y297636D01*
Y296980D01*
X693045Y296652D01*
X694357D01*
X694685Y296980D01*
Y297636D01*
X694357Y297964D01*
X692717Y298620D02*
X694685D01*
Y299603D01*
X694357Y299931D01*
X694029D01*
X693701Y299603D01*
Y298620D01*
Y299603D01*
X693373Y299931D01*
X693045D01*
X692717Y299603D01*
Y298620D01*
X827004Y201327D02*
X827660D01*
X827332D01*
Y199359D01*
X827004D01*
X827660D01*
X829956D02*
X828644D01*
X829956Y200671D01*
Y200999D01*
X829628Y201327D01*
X828972D01*
X828644Y200999D01*
X831924D02*
X831596Y201327D01*
X830940D01*
X830612Y200999D01*
Y199687D01*
X830940Y199359D01*
X831596D01*
X831924Y199687D01*
X691273Y201270D02*
X690617D01*
X690945D01*
Y199630D01*
X690617Y199302D01*
X690289D01*
X689961Y199630D01*
X691929Y199302D02*
X692585D01*
X692257D01*
Y201270D01*
X691929Y200942D01*
X693569Y201270D02*
Y199302D01*
X694553D01*
X694881Y199630D01*
Y199958D01*
X694553Y200286D01*
X693569D01*
X694553D01*
X694881Y200614D01*
Y200942D01*
X694553Y201270D01*
X693569D01*
X710827Y326968D02*
Y325000D01*
X712139D01*
X712795D02*
X713451D01*
X713123D01*
Y326968D01*
X712795Y326640D01*
X714434Y326968D02*
Y325000D01*
X715418D01*
X715746Y325328D01*
Y325656D01*
X715418Y325984D01*
X714434D01*
X715418D01*
X715746Y326312D01*
Y326640D01*
X715418Y326968D01*
X714434D01*
X796654Y345472D02*
Y343504D01*
X797965D01*
X798621Y345472D02*
X799277D01*
X798949D01*
Y343504D01*
X798621D01*
X799277D01*
X800261D02*
Y345472D01*
X800917Y344816D01*
X801573Y345472D01*
Y343504D01*
X802229D02*
X802885D01*
X802557D01*
Y345472D01*
X802229Y345144D01*
X803869Y345472D02*
Y343504D01*
X804853D01*
X805181Y343832D01*
Y344160D01*
X804853Y344488D01*
X803869D01*
X804853D01*
X805181Y344816D01*
Y345144D01*
X804853Y345472D01*
X803869D01*
X798622Y324999D02*
Y323031D01*
X799934D01*
X800590Y324999D02*
X801246D01*
X800918D01*
Y323031D01*
X800590D01*
X801246D01*
X802230D02*
Y324999D01*
X802886Y324343D01*
X803542Y324999D01*
Y323031D01*
X805510D02*
X804198D01*
X805510Y324343D01*
Y324671D01*
X805182Y324999D01*
X804526D01*
X804198Y324671D01*
X806166Y324999D02*
Y323031D01*
X807150D01*
X807477Y323359D01*
Y323687D01*
X807150Y324015D01*
X806166D01*
X807150D01*
X807477Y324343D01*
Y324671D01*
X807150Y324999D01*
X806166D01*
X974607Y355511D02*
Y354855D01*
X974935Y354528D01*
X976247D01*
X976575Y354855D01*
Y355511D01*
X976247Y355839D01*
X974935D01*
X974607Y355511D01*
Y356495D02*
X976247D01*
X976575Y356823D01*
Y357479D01*
X976247Y357807D01*
X974607D01*
Y358463D02*
Y359775D01*
Y359119D01*
X976575D01*
X974607Y360431D02*
X976575D01*
Y361415D01*
X976247Y361743D01*
X975919D01*
X975591Y361415D01*
Y360431D01*
Y361415D01*
X975263Y361743D01*
X974935D01*
X974607Y361415D01*
Y360431D01*
X976903Y362399D02*
Y363711D01*
X974935Y364367D02*
X974607Y364695D01*
Y365351D01*
X974935Y365679D01*
X975263D01*
X975591Y365351D01*
Y365023D01*
Y365351D01*
X975919Y365679D01*
X976247D01*
X976575Y365351D01*
Y364695D01*
X976247Y364367D01*
X976575Y366335D02*
X976247D01*
Y366663D01*
X976575D01*
Y366335D01*
X974935Y367975D02*
X974607Y368303D01*
Y368959D01*
X974935Y369286D01*
X975263D01*
X975591Y368959D01*
Y368631D01*
Y368959D01*
X975919Y369286D01*
X976247D01*
X976575Y368959D01*
Y368303D01*
X976247Y367975D01*
X974607Y369942D02*
X975919D01*
X976575Y370598D01*
X975919Y371254D01*
X974607D01*
Y306299D02*
Y305643D01*
X974935Y305315D01*
X976247D01*
X976575Y305643D01*
Y306299D01*
X976247Y306627D01*
X974935D01*
X974607Y306299D01*
Y307283D02*
X976247D01*
X976575Y307611D01*
Y308267D01*
X976247Y308595D01*
X974607D01*
Y309251D02*
Y310563D01*
Y309907D01*
X976575D01*
X974607Y311219D02*
X976575D01*
Y312203D01*
X976247Y312530D01*
X975919D01*
X975591Y312203D01*
Y311219D01*
Y312203D01*
X975263Y312530D01*
X974935D01*
X974607Y312203D01*
Y311219D01*
X976903Y313186D02*
Y314498D01*
X976575Y315154D02*
X974607D01*
Y316138D01*
X974935Y316466D01*
X975591D01*
X975919Y316138D01*
Y315154D01*
Y315810D02*
X976575Y316466D01*
X974607Y318434D02*
Y317122D01*
X976575D01*
Y318434D01*
X975591Y317122D02*
Y317778D01*
X974935Y320402D02*
X974607Y320074D01*
Y319418D01*
X974935Y319090D01*
X976247D01*
X976575Y319418D01*
Y320074D01*
X976247Y320402D01*
X975591D01*
Y319746D01*
X974607Y321058D02*
X975919D01*
X976575Y321714D01*
X975919Y322370D01*
X974607D01*
X741001Y362778D02*
Y364746D01*
X741985D01*
X742313Y364418D01*
Y363762D01*
X741985Y363434D01*
X741001D01*
X741657D02*
X742313Y362778D01*
X742969D02*
X743625D01*
X743297D01*
Y364746D01*
X742969Y364418D01*
X744609Y364746D02*
Y362778D01*
X745592D01*
X745921Y363106D01*
Y363434D01*
X745592Y363762D01*
X744609D01*
X745592D01*
X745921Y364090D01*
Y364418D01*
X745592Y364746D01*
X744609D01*
X780364Y361559D02*
Y363527D01*
X781348D01*
X781676Y363199D01*
Y362543D01*
X781348Y362215D01*
X780364D01*
X781020D02*
X781676Y361559D01*
X783644D02*
X782332D01*
X783644Y362871D01*
Y363199D01*
X783316Y363527D01*
X782660D01*
X782332Y363199D01*
X784300Y363527D02*
Y361559D01*
X785283D01*
X785611Y361887D01*
Y362215D01*
X785283Y362543D01*
X784300D01*
X785283D01*
X785611Y362871D01*
Y363199D01*
X785283Y363527D01*
X784300D01*
X814279Y349965D02*
Y351933D01*
X815263D01*
X815591Y351605D01*
Y350949D01*
X815263Y350621D01*
X814279D01*
X814935D02*
X815591Y349965D01*
X816247Y351605D02*
X816575Y351933D01*
X817231D01*
X817558Y351605D01*
Y351277D01*
X817231Y350949D01*
X816903D01*
X817231D01*
X817558Y350621D01*
Y350293D01*
X817231Y349965D01*
X816575D01*
X816247Y350293D01*
X818215Y351933D02*
Y349965D01*
X819198D01*
X819526Y350293D01*
Y350621D01*
X819198Y350949D01*
X818215D01*
X819198D01*
X819526Y351277D01*
Y351605D01*
X819198Y351933D01*
X818215D01*
X874606Y365551D02*
Y367519D01*
X875590D01*
X875918Y367191D01*
Y366535D01*
X875590Y366207D01*
X874606D01*
X875262D02*
X875918Y365551D01*
X877558D02*
Y367519D01*
X876574Y366535D01*
X877886D01*
X878542Y367519D02*
Y365551D01*
X879526D01*
X879854Y365879D01*
Y366207D01*
X879526Y366535D01*
X878542D01*
X879526D01*
X879854Y366863D01*
Y367191D01*
X879526Y367519D01*
X878542D01*
X874606Y354134D02*
Y356102D01*
X875590D01*
X875918Y355774D01*
Y355118D01*
X875590Y354790D01*
X874606D01*
X875262D02*
X875918Y354134D01*
X877886Y356102D02*
X876574D01*
Y355118D01*
X877230Y355446D01*
X877558D01*
X877886Y355118D01*
Y354462D01*
X877558Y354134D01*
X876902D01*
X876574Y354462D01*
X878542Y356102D02*
Y354134D01*
X879526D01*
X879854Y354462D01*
Y354790D01*
X879526Y355118D01*
X878542D01*
X879526D01*
X879854Y355446D01*
Y355774D01*
X879526Y356102D01*
X878542D01*
X749803Y302165D02*
Y304133D01*
X750787D01*
X751115Y303805D01*
Y303149D01*
X750787Y302821D01*
X749803D01*
X750459D02*
X751115Y302165D01*
X753083Y304133D02*
X752427Y303805D01*
X751771Y303149D01*
Y302493D01*
X752099Y302165D01*
X752755D01*
X753083Y302493D01*
Y302821D01*
X752755Y303149D01*
X751771D01*
X753739Y304133D02*
Y302165D01*
X754723D01*
X755051Y302493D01*
Y302821D01*
X754723Y303149D01*
X753739D01*
X754723D01*
X755051Y303477D01*
Y303805D01*
X754723Y304133D01*
X753739D01*
X699409Y259646D02*
Y261613D01*
X700393D01*
X700721Y261286D01*
Y260630D01*
X700393Y260302D01*
X699409D01*
X700065D02*
X700721Y259646D01*
X701377Y261613D02*
X702689D01*
Y261286D01*
X701377Y259974D01*
Y259646D01*
X703345Y261613D02*
Y259646D01*
X704329D01*
X704657Y259974D01*
Y260302D01*
X704329Y260630D01*
X703345D01*
X704329D01*
X704657Y260958D01*
Y261286D01*
X704329Y261613D01*
X703345D01*
X749873Y290653D02*
Y292621D01*
X750857D01*
X751185Y292293D01*
Y291637D01*
X750857Y291309D01*
X749873D01*
X750529D02*
X751185Y290653D01*
X751841Y292293D02*
X752169Y292621D01*
X752825D01*
X753153Y292293D01*
Y291965D01*
X752825Y291637D01*
X753153Y291309D01*
Y290982D01*
X752825Y290653D01*
X752169D01*
X751841Y290982D01*
Y291309D01*
X752169Y291637D01*
X751841Y291965D01*
Y292293D01*
X752169Y291637D02*
X752825D01*
X753809Y292621D02*
Y290653D01*
X754793D01*
X755121Y290982D01*
Y291309D01*
X754793Y291637D01*
X753809D01*
X754793D01*
X755121Y291965D01*
Y292293D01*
X754793Y292621D01*
X753809D01*
X768050Y310184D02*
Y312151D01*
X769034D01*
X769362Y311823D01*
Y311167D01*
X769034Y310839D01*
X768050D01*
X768706D02*
X769362Y310184D01*
X770018Y310511D02*
X770346Y310184D01*
X771002D01*
X771330Y310511D01*
Y311823D01*
X771002Y312151D01*
X770346D01*
X770018Y311823D01*
Y311495D01*
X770346Y311167D01*
X771330D01*
X771986Y312151D02*
Y310184D01*
X772970D01*
X773298Y310511D01*
Y310839D01*
X772970Y311167D01*
X771986D01*
X772970D01*
X773298Y311495D01*
Y311823D01*
X772970Y312151D01*
X771986D01*
X768037Y320453D02*
Y322421D01*
X769021D01*
X769349Y322093D01*
Y321437D01*
X769021Y321109D01*
X768037D01*
X768693D02*
X769349Y320453D01*
X770005D02*
X770661D01*
X770333D01*
Y322421D01*
X770005Y322093D01*
X771645D02*
X771973Y322421D01*
X772629D01*
X772957Y322093D01*
Y320781D01*
X772629Y320453D01*
X771973D01*
X771645Y320781D01*
Y322093D01*
X773613Y322421D02*
Y320453D01*
X774597D01*
X774925Y320781D01*
Y321109D01*
X774597Y321437D01*
X773613D01*
X774597D01*
X774925Y321765D01*
Y322093D01*
X774597Y322421D01*
X773613D01*
X798228Y298228D02*
Y300196D01*
X799212D01*
X799540Y299868D01*
Y299212D01*
X799212Y298884D01*
X798228D01*
X798884D02*
X799540Y298228D01*
X800196D02*
X800852D01*
X800524D01*
Y300196D01*
X800196Y299868D01*
X801836Y298228D02*
X802492D01*
X802164D01*
Y300196D01*
X801836Y299868D01*
X803476Y300196D02*
Y298228D01*
X804460D01*
X804788Y298556D01*
Y298884D01*
X804460Y299212D01*
X803476D01*
X804460D01*
X804788Y299540D01*
Y299868D01*
X804460Y300196D01*
X803476D01*
X814961Y298819D02*
Y300787D01*
X815945D01*
X816273Y300459D01*
Y299803D01*
X815945Y299475D01*
X814961D01*
X815617D02*
X816273Y298819D01*
X816928D02*
X817585D01*
X817257D01*
Y300787D01*
X816928Y300459D01*
X819880Y298819D02*
X818568D01*
X819880Y300131D01*
Y300459D01*
X819552Y300787D01*
X818896D01*
X818568Y300459D01*
X820536Y300787D02*
Y298819D01*
X821520D01*
X821848Y299147D01*
Y299475D01*
X821520Y299803D01*
X820536D01*
X821520D01*
X821848Y300131D01*
Y300459D01*
X821520Y300787D01*
X820536D01*
X874606Y316339D02*
Y318306D01*
X875590D01*
X875918Y317979D01*
Y317322D01*
X875590Y316995D01*
X874606D01*
X875262D02*
X875918Y316339D01*
X876574D02*
X877230D01*
X876902D01*
Y318306D01*
X876574Y317979D01*
X878214D02*
X878542Y318306D01*
X879198D01*
X879526Y317979D01*
Y317651D01*
X879198Y317322D01*
X878870D01*
X879198D01*
X879526Y316995D01*
Y316667D01*
X879198Y316339D01*
X878542D01*
X878214Y316667D01*
X880182Y318306D02*
Y316339D01*
X881166D01*
X881494Y316667D01*
Y316995D01*
X881166Y317322D01*
X880182D01*
X881166D01*
X881494Y317651D01*
Y317979D01*
X881166Y318306D01*
X880182D01*
X874213Y305709D02*
Y307677D01*
X875197D01*
X875525Y307349D01*
Y306693D01*
X875197Y306365D01*
X874213D01*
X874869D02*
X875525Y305709D01*
X876180D02*
X876836D01*
X876509D01*
Y307677D01*
X876180Y307349D01*
X878804Y305709D02*
Y307677D01*
X877820Y306693D01*
X879132D01*
X879788Y307677D02*
Y305709D01*
X880772D01*
X881100Y306037D01*
Y306365D01*
X880772Y306693D01*
X879788D01*
X880772D01*
X881100Y307021D01*
Y307349D01*
X880772Y307677D01*
X879788D01*
X761745Y345931D02*
X761417Y346259D01*
X760761D01*
X760433Y345931D01*
Y345603D01*
X760761Y345275D01*
X761417D01*
X761745Y344947D01*
Y344619D01*
X761417Y344291D01*
X760761D01*
X760433Y344619D01*
X762401Y346259D02*
Y344291D01*
X763057Y344947D01*
X763713Y344291D01*
Y346259D01*
X764369Y344291D02*
X765025D01*
X764697D01*
Y346259D01*
X764369Y345931D01*
X766009Y346259D02*
Y344291D01*
X766993D01*
X767321Y344619D01*
Y344947D01*
X766993Y345275D01*
X766009D01*
X766993D01*
X767321Y345603D01*
Y345931D01*
X766993Y346259D01*
X766009D01*
X724213Y352559D02*
X725853D01*
X726181Y352887D01*
Y353543D01*
X725853Y353871D01*
X724213D01*
X726181Y354527D02*
Y355183D01*
Y354855D01*
X724213D01*
X724541Y354527D01*
X724213Y356167D02*
X726181D01*
Y357151D01*
X725853Y357479D01*
X725525D01*
X725197Y357151D01*
Y356167D01*
Y357151D01*
X724869Y357479D01*
X724541D01*
X724213Y357151D01*
Y356167D01*
X829310Y368409D02*
Y366769D01*
X829638Y366441D01*
X830294D01*
X830622Y366769D01*
Y368409D01*
X832590Y366441D02*
X831278D01*
X832590Y367753D01*
Y368081D01*
X832262Y368409D01*
X831606D01*
X831278Y368081D01*
X833246Y368409D02*
Y366441D01*
X834230D01*
X834558Y366769D01*
Y367097D01*
X834230Y367425D01*
X833246D01*
X834230D01*
X834558Y367753D01*
Y368081D01*
X834230Y368409D01*
X833246D01*
X847835Y301771D02*
Y300131D01*
X848163Y299803D01*
X848819D01*
X849147Y300131D01*
Y301771D01*
X849802Y301443D02*
X850130Y301771D01*
X850786D01*
X851114Y301443D01*
Y301115D01*
X850786Y300787D01*
X850459D01*
X850786D01*
X851114Y300459D01*
Y300131D01*
X850786Y299803D01*
X850130D01*
X849802Y300131D01*
X851770Y301771D02*
Y299803D01*
X852754D01*
X853082Y300131D01*
Y300459D01*
X852754Y300787D01*
X851770D01*
X852754D01*
X853082Y301115D01*
Y301443D01*
X852754Y301771D01*
X851770D01*
X890304Y524959D02*
Y526927D01*
X891288D01*
X891616Y526599D01*
Y525943D01*
X891288Y525615D01*
X890304D01*
X893256Y526927D02*
X892600D01*
X892272Y526599D01*
Y525287D01*
X892600Y524959D01*
X893256D01*
X893584Y525287D01*
Y526599D01*
X893256Y526927D01*
X894240D02*
X895552D01*
X894896D01*
Y524959D01*
X896208D02*
X896863D01*
X896535D01*
Y526927D01*
X896208Y526599D01*
X897847Y524959D02*
Y526271D01*
X898503Y526927D01*
X899159Y526271D01*
Y524959D01*
Y525943D01*
X897847D01*
X890304Y380502D02*
Y382470D01*
X891288D01*
X891616Y382142D01*
Y381486D01*
X891288Y381158D01*
X890304D01*
X893256Y382470D02*
X892600D01*
X892272Y382142D01*
Y380830D01*
X892600Y380502D01*
X893256D01*
X893584Y380830D01*
Y382142D01*
X893256Y382470D01*
X894240D02*
X895552D01*
X894896D01*
Y380502D01*
X896208D02*
X896863D01*
X896535D01*
Y382470D01*
X896208Y382142D01*
X897847Y382470D02*
Y380502D01*
X898831D01*
X899159Y380830D01*
Y381158D01*
X898831Y381486D01*
X897847D01*
X898831D01*
X899159Y381814D01*
Y382142D01*
X898831Y382470D01*
X897847D01*
X890304Y490559D02*
Y492527D01*
X891288D01*
X891616Y492199D01*
Y491543D01*
X891288Y491215D01*
X890304D01*
X893256Y492527D02*
X892600D01*
X892272Y492199D01*
Y490887D01*
X892600Y490559D01*
X893256D01*
X893584Y490887D01*
Y492199D01*
X893256Y492527D01*
X894240D02*
X895552D01*
X894896D01*
Y490559D01*
X897519D02*
X896208D01*
X897519Y491871D01*
Y492199D01*
X897192Y492527D01*
X896535D01*
X896208Y492199D01*
X898175Y490559D02*
Y491871D01*
X898831Y492527D01*
X899487Y491871D01*
Y490559D01*
Y491543D01*
X898175D01*
X890304Y346059D02*
Y348027D01*
X891288D01*
X891616Y347699D01*
Y347043D01*
X891288Y346715D01*
X890304D01*
X893256Y348027D02*
X892600D01*
X892272Y347699D01*
Y346387D01*
X892600Y346059D01*
X893256D01*
X893584Y346387D01*
Y347699D01*
X893256Y348027D01*
X894240D02*
X895552D01*
X894896D01*
Y346059D01*
X897519D02*
X896208D01*
X897519Y347371D01*
Y347699D01*
X897192Y348027D01*
X896535D01*
X896208Y347699D01*
X898175Y348027D02*
Y346059D01*
X899159D01*
X899487Y346387D01*
Y346715D01*
X899159Y347043D01*
X898175D01*
X899159D01*
X899487Y347371D01*
Y347699D01*
X899159Y348027D01*
X898175D01*
X890304Y456059D02*
Y458027D01*
X891288D01*
X891616Y457699D01*
Y457043D01*
X891288Y456715D01*
X890304D01*
X893256Y458027D02*
X892600D01*
X892272Y457699D01*
Y456387D01*
X892600Y456059D01*
X893256D01*
X893584Y456387D01*
Y457699D01*
X893256Y458027D01*
X894240D02*
X895552D01*
X894896D01*
Y456059D01*
X896208Y457699D02*
X896535Y458027D01*
X897192D01*
X897519Y457699D01*
Y457371D01*
X897192Y457043D01*
X896863D01*
X897192D01*
X897519Y456715D01*
Y456387D01*
X897192Y456059D01*
X896535D01*
X896208Y456387D01*
X898175Y456059D02*
Y457371D01*
X898831Y458027D01*
X899487Y457371D01*
Y456059D01*
Y457043D01*
X898175D01*
X890304Y311659D02*
Y313627D01*
X891288D01*
X891616Y313299D01*
Y312643D01*
X891288Y312315D01*
X890304D01*
X893256Y313627D02*
X892600D01*
X892272Y313299D01*
Y311987D01*
X892600Y311659D01*
X893256D01*
X893584Y311987D01*
Y313299D01*
X893256Y313627D01*
X894240D02*
X895552D01*
X894896D01*
Y311659D01*
X896208Y313299D02*
X896535Y313627D01*
X897192D01*
X897519Y313299D01*
Y312971D01*
X897192Y312643D01*
X896863D01*
X897192D01*
X897519Y312315D01*
Y311987D01*
X897192Y311659D01*
X896535D01*
X896208Y311987D01*
X898175Y313627D02*
Y311659D01*
X899159D01*
X899487Y311987D01*
Y312315D01*
X899159Y312643D01*
X898175D01*
X899159D01*
X899487Y312971D01*
Y313299D01*
X899159Y313627D01*
X898175D01*
X675329Y509186D02*
X675001Y508858D01*
Y508202D01*
X675329Y507874D01*
X676641D01*
X676968Y508202D01*
Y508858D01*
X676641Y509186D01*
X676968Y511154D02*
Y509842D01*
X675657Y511154D01*
X675329D01*
X675001Y510826D01*
Y510170D01*
X675329Y509842D01*
Y511810D02*
X675001Y512138D01*
Y512794D01*
X675329Y513122D01*
X676641D01*
X676968Y512794D01*
Y512138D01*
X676641Y511810D01*
X675329D01*
X676968Y513778D02*
X675657D01*
X675001Y514434D01*
X675657Y515090D01*
X676968D01*
X675985D01*
Y513778D01*
X679434Y363993D02*
X679106Y364321D01*
X678450D01*
X678122Y363993D01*
Y362682D01*
X678450Y362353D01*
X679106D01*
X679434Y362682D01*
X681402Y362353D02*
X680090D01*
X681402Y363666D01*
Y363993D01*
X681074Y364321D01*
X680418D01*
X680090Y363993D01*
X682058D02*
X682386Y364321D01*
X683042D01*
X683370Y363993D01*
Y362682D01*
X683042Y362353D01*
X682386D01*
X682058Y362682D01*
Y363993D01*
X684026Y364321D02*
Y362353D01*
X685010D01*
X685338Y362682D01*
Y363010D01*
X685010Y363337D01*
X684026D01*
X685010D01*
X685338Y363666D01*
Y363993D01*
X685010Y364321D01*
X684026D01*
X1116929Y432480D02*
Y430512D01*
X1117913D01*
X1118241Y430840D01*
Y432152D01*
X1117913Y432480D01*
X1116929D01*
X1120209Y432152D02*
X1119881Y432480D01*
X1119225D01*
X1118897Y432152D01*
Y430840D01*
X1119225Y430512D01*
X1119881D01*
X1120209Y430840D01*
X1120865Y432480D02*
Y430512D01*
X1121849D01*
X1122177Y430840D01*
Y432152D01*
X1121849Y432480D01*
X1120865D01*
X1124145Y432152D02*
X1123817Y432480D01*
X1123161D01*
X1122833Y432152D01*
Y430840D01*
X1123161Y430512D01*
X1123817D01*
X1124145Y430840D01*
X1075099Y473032D02*
X1076739D01*
X1077067Y473359D01*
Y474015D01*
X1076739Y474343D01*
X1075099D01*
X1077067Y476311D02*
Y474999D01*
X1075755Y476311D01*
X1075427D01*
X1075099Y475983D01*
Y475327D01*
X1075427Y474999D01*
X1121261Y477559D02*
X1122900D01*
X1123228Y477887D01*
Y478543D01*
X1122900Y478871D01*
X1121261D01*
X1123228Y479527D02*
Y480183D01*
Y479855D01*
X1121261D01*
X1121589Y479527D01*
X1059220Y483976D02*
Y485944D01*
X1060204D01*
X1060532Y485616D01*
Y484960D01*
X1060204Y484632D01*
X1059220D01*
X1059876D02*
X1060532Y483976D01*
X1062171D02*
Y485944D01*
X1061188Y484960D01*
X1062500D01*
X1059469Y472022D02*
Y473990D01*
X1060453D01*
X1060781Y473662D01*
Y473006D01*
X1060453Y472678D01*
X1059469D01*
X1060125D02*
X1060781Y472022D01*
X1061437Y473662D02*
X1061765Y473990D01*
X1062421D01*
X1062749Y473662D01*
Y473334D01*
X1062421Y473006D01*
X1062093D01*
X1062421D01*
X1062749Y472678D01*
Y472350D01*
X1062421Y472022D01*
X1061765D01*
X1061437Y472350D01*
X1078740Y439665D02*
Y441633D01*
X1079724D01*
X1080052Y441305D01*
Y440649D01*
X1079724Y440321D01*
X1078740D01*
X1079396D02*
X1080052Y439665D01*
X1082020D02*
X1080708D01*
X1082020Y440977D01*
Y441305D01*
X1081692Y441633D01*
X1081036D01*
X1080708Y441305D01*
X1116073Y488042D02*
X1115745Y488370D01*
X1115089D01*
X1114761Y488042D01*
Y486730D01*
X1115089Y486402D01*
X1115745D01*
X1116073Y486730D01*
X1118041Y486402D02*
X1116729D01*
X1118041Y487714D01*
Y488042D01*
X1117713Y488370D01*
X1117057D01*
X1116729Y488042D01*
X1118696D02*
X1119024Y488370D01*
X1119680D01*
X1120008Y488042D01*
Y486730D01*
X1119680Y486402D01*
X1119024D01*
X1118696Y486730D01*
Y488042D01*
X1120664Y486402D02*
Y487714D01*
X1121320Y488370D01*
X1121976Y487714D01*
Y486402D01*
Y487386D01*
X1120664D01*
X1100186Y481896D02*
X1099858Y482224D01*
X1099202D01*
X1098874Y481896D01*
Y480584D01*
X1099202Y480256D01*
X1099858D01*
X1100186Y480584D01*
X1102154Y482224D02*
X1100842D01*
Y481240D01*
X1101498Y481568D01*
X1101826D01*
X1102154Y481240D01*
Y480584D01*
X1101826Y480256D01*
X1101170D01*
X1100842Y480584D01*
X1085170Y498392D02*
X1084842Y498720D01*
X1084186D01*
X1083858Y498392D01*
Y497080D01*
X1084186Y496752D01*
X1084842D01*
X1085170Y497080D01*
X1086810Y496752D02*
Y498720D01*
X1085826Y497736D01*
X1087138D01*
X1068438Y444750D02*
X1068110Y445078D01*
X1067454D01*
X1067126Y444750D01*
Y443438D01*
X1067454Y443110D01*
X1068110D01*
X1068438Y443438D01*
X1069094Y444750D02*
X1069422Y445078D01*
X1070078D01*
X1070406Y444750D01*
Y444422D01*
X1070078Y444094D01*
X1069750D01*
X1070078D01*
X1070406Y443766D01*
Y443438D01*
X1070078Y443110D01*
X1069422D01*
X1069094Y443438D01*
X1117406Y443048D02*
X1117078Y443376D01*
X1116422D01*
X1116094Y443048D01*
Y441736D01*
X1116422Y441408D01*
X1117078D01*
X1117406Y441736D01*
X1118062Y441408D02*
X1118717D01*
X1118390D01*
Y443376D01*
X1118062Y443048D01*
X1167946Y374507D02*
X1166634D01*
Y373523D01*
X1167290Y373851D01*
X1167618D01*
X1167946Y373523D01*
Y372867D01*
X1167618Y372539D01*
X1166962D01*
X1166634Y372867D01*
X1168602Y374507D02*
Y373195D01*
X1169258Y372539D01*
X1169914Y373195D01*
Y374507D01*
X1074835Y374081D02*
X1074508Y374409D01*
X1073852D01*
X1073524Y374081D01*
Y372769D01*
X1073852Y372441D01*
X1074508D01*
X1074835Y372769D01*
Y373425D01*
X1074180D01*
X1075492Y372441D02*
Y374409D01*
X1076803Y372441D01*
Y374409D01*
X1077459D02*
Y372441D01*
X1078443D01*
X1078771Y372769D01*
Y374081D01*
X1078443Y374409D01*
X1077459D01*
X1167027Y501968D02*
X1167684D01*
X1167356D01*
Y500000D01*
X1167027D01*
X1167684D01*
X1169979D02*
X1168667D01*
X1169979Y501312D01*
Y501640D01*
X1169651Y501968D01*
X1168995D01*
X1168667Y501640D01*
X1171947D02*
X1171619Y501968D01*
X1170963D01*
X1170635Y501640D01*
Y500328D01*
X1170963Y500000D01*
X1171619D01*
X1171947Y500328D01*
X1167819Y493341D02*
X1167163D01*
X1167491D01*
Y491701D01*
X1167163Y491373D01*
X1166835D01*
X1166507Y491701D01*
X1168475Y491373D02*
X1169131D01*
X1168803D01*
Y493341D01*
X1168475Y493013D01*
X1055019Y448818D02*
X1054363D01*
X1054035Y448490D01*
Y447178D01*
X1054363Y446850D01*
X1055019D01*
X1055347Y447178D01*
Y448490D01*
X1055019Y448818D01*
X1056003D02*
Y447178D01*
X1056331Y446850D01*
X1056987D01*
X1057315Y447178D01*
Y448818D01*
X1057971D02*
X1059283D01*
X1058627D01*
Y446850D01*
X1091686Y445305D02*
X1091358Y445633D01*
X1090702D01*
X1090374Y445305D01*
Y443993D01*
X1090702Y443665D01*
X1091358D01*
X1091686Y443993D01*
X1092342Y444977D02*
X1092998Y443665D01*
X1093654Y444977D01*
X1094310D02*
Y443665D01*
Y444321D01*
X1094638Y444649D01*
X1094966Y444977D01*
X1095294D01*
X1097262Y443665D02*
X1096606D01*
X1096278Y443993D01*
Y444649D01*
X1096606Y444977D01*
X1097262D01*
X1097589Y444649D01*
Y444321D01*
X1096278D01*
X1098901Y443009D02*
X1099229D01*
X1099557Y443337D01*
Y444977D01*
X1098573D01*
X1098246Y444649D01*
Y443993D01*
X1098573Y443665D01*
X1099557D01*
X1144717Y436187D02*
X1144389Y436515D01*
X1143734D01*
X1143406Y436187D01*
Y434875D01*
X1143734Y434547D01*
X1144389D01*
X1144717Y434875D01*
X1145373Y434547D02*
X1146029D01*
X1145701D01*
Y435859D01*
X1145373D01*
X1147013Y434547D02*
Y435859D01*
X1147997D01*
X1148325Y435531D01*
Y434547D01*
X1087420Y430294D02*
X1087092Y430622D01*
X1086436D01*
X1086108Y430294D01*
Y428982D01*
X1086436Y428654D01*
X1087092D01*
X1087420Y428982D01*
X1088404Y428654D02*
X1089060D01*
X1089388Y428982D01*
Y429638D01*
X1089060Y429966D01*
X1088404D01*
X1088076Y429638D01*
Y428982D01*
X1088404Y428654D01*
X1090044Y429966D02*
Y428982D01*
X1090372Y428654D01*
X1091356D01*
Y429966D01*
X1092340Y430294D02*
Y429966D01*
X1092012D01*
X1092668D01*
X1092340D01*
Y428982D01*
X1092668Y428654D01*
X1133892Y451017D02*
X1133564Y450689D01*
Y450033D01*
X1133892Y449705D01*
X1135203D01*
X1135532Y450033D01*
Y450689D01*
X1135203Y451017D01*
X1135532Y451673D02*
Y452657D01*
X1135203Y452985D01*
X1134875Y452657D01*
Y452001D01*
X1134548Y451673D01*
X1134220Y452001D01*
Y452985D01*
X1135532Y453640D02*
Y454624D01*
X1135203Y454952D01*
X1134875Y454624D01*
Y453968D01*
X1134548Y453640D01*
X1134220Y453968D01*
Y454952D01*
X1138911Y411647D02*
X1138583Y411319D01*
Y410663D01*
X1138911Y410335D01*
X1140223D01*
X1140551Y410663D01*
Y411319D01*
X1140223Y411647D01*
X1139239Y412302D02*
X1140551Y412958D01*
X1139239Y413614D01*
X1138583Y414270D02*
X1140551D01*
Y415254D01*
X1140223Y415582D01*
X1139895D01*
X1139567D01*
X1139239Y415254D01*
Y414270D01*
X1140551Y416238D02*
Y417222D01*
X1140223Y417550D01*
X1139895Y417222D01*
Y416566D01*
X1139567Y416238D01*
X1139239Y416566D01*
Y417550D01*
X1138911Y418534D02*
X1139239D01*
Y418206D01*
Y418862D01*
Y418534D01*
X1140223D01*
X1140551Y418862D01*
X1131102Y387991D02*
Y386024D01*
X1132414D01*
X1114961Y449016D02*
X1112993D01*
Y450000D01*
X1113321Y450328D01*
X1113977D01*
X1114305Y450000D01*
Y449016D01*
Y449672D02*
X1114961Y450328D01*
Y451312D02*
X1113321D01*
X1113977D01*
Y450984D01*
Y451640D01*
Y451312D01*
X1113321D01*
X1112993Y451640D01*
Y452624D02*
X1114961D01*
Y453607D01*
X1114633Y453935D01*
X1114305D01*
X1113977D01*
X1113649Y453607D01*
Y452624D01*
X1114961Y454591D02*
Y455247D01*
Y454919D01*
X1112993D01*
X1113321Y454591D01*
X1125492Y448425D02*
X1123524D01*
Y449409D01*
X1123852Y449737D01*
X1124508D01*
X1124836Y449409D01*
Y448425D01*
Y449081D02*
X1125492Y449737D01*
Y450721D02*
X1123852D01*
X1124508D01*
Y450393D01*
Y451049D01*
Y450721D01*
X1123852D01*
X1123524Y451049D01*
Y452033D02*
X1125492D01*
Y453017D01*
X1125164Y453345D01*
X1124836D01*
X1124508D01*
X1124180Y453017D01*
Y452033D01*
X1125492Y455313D02*
Y454001D01*
X1124180Y455313D01*
X1123852D01*
X1123524Y454985D01*
Y454329D01*
X1123852Y454001D01*
X1087106Y376672D02*
Y373392D01*
X1087762Y372736D01*
X1089074D01*
X1089730Y373392D01*
Y376672D01*
X1091042Y372736D02*
Y376672D01*
X1093010D01*
X1093666Y376016D01*
Y374704D01*
X1093010Y374048D01*
X1091042D01*
X1097602Y376016D02*
X1096946Y376672D01*
X1095634D01*
X1094978Y376016D01*
Y373392D01*
X1095634Y372736D01*
X1096946D01*
X1097602Y373392D01*
X1098913Y372736D02*
Y376672D01*
X1101537Y372736D01*
Y376672D01*
X1105473Y376016D02*
X1104817Y376672D01*
X1103505D01*
X1102849Y376016D01*
Y375360D01*
X1103505Y374704D01*
X1104817D01*
X1105473Y374048D01*
Y373392D01*
X1104817Y372736D01*
X1103505D01*
X1102849Y373392D01*
X1106785Y376672D02*
Y372736D01*
X1109409D01*
X1110721Y372080D02*
X1113344D01*
X1114657Y372736D02*
Y375360D01*
X1115968Y376672D01*
X1117280Y375360D01*
Y372736D01*
Y374704D01*
X1114657D01*
X1118592Y376672D02*
Y372736D01*
X1120560D01*
X1121216Y373392D01*
Y374048D01*
X1120560Y374704D01*
X1118592D01*
X1120560D01*
X1121216Y375360D01*
Y376016D01*
X1120560Y376672D01*
X1118592D01*
X1125152Y376016D02*
X1124496Y376672D01*
X1123184D01*
X1122528Y376016D01*
Y375360D01*
X1123184Y374704D01*
X1124496D01*
X1125152Y374048D01*
Y373392D01*
X1124496Y372736D01*
X1123184D01*
X1122528Y373392D01*
X1126464Y372080D02*
X1129088D01*
X1130399Y372736D02*
Y376672D01*
X1132367D01*
X1133023Y376016D01*
Y374704D01*
X1132367Y374048D01*
X1130399D01*
X1131711D02*
X1133023Y372736D01*
X1136959Y376672D02*
X1134335D01*
Y374704D01*
X1135647D01*
X1134335D01*
Y372736D01*
X1138271Y372080D02*
X1140895D01*
X1142207Y372736D02*
Y376672D01*
X1144174D01*
X1144831Y376016D01*
Y374704D01*
X1144174Y374048D01*
X1142207D01*
X1148110Y376672D02*
X1146798D01*
X1146142Y376016D01*
Y373392D01*
X1146798Y372736D01*
X1148110D01*
X1148766Y373392D01*
Y376016D01*
X1148110Y376672D01*
X1150078D02*
Y372736D01*
X1152702D01*
D76*
X277510Y355620D02*
G03*
X276230Y355620I-640J187D01*
G01*
X275000Y355610D02*
Y365846D01*
X278839D01*
Y355610D02*
Y365846D01*
X276290Y355610D02*
X278839D01*
X275000D02*
X277569D01*
X235827Y255709D02*
Y261595D01*
X229922Y255709D02*
X235827D01*
X229922D02*
Y260728D01*
X230788Y261595D01*
X235827D01*
M02*
