%FSLAX25Y25*%
%MOIN*%
G70*
G01*
G75*
G04 Layer_Color=8388736*
%ADD10O,0.02362X0.05906*%
G04:AMPARAMS|DCode=11|XSize=23.62mil|YSize=35.43mil|CornerRadius=5.91mil|HoleSize=0mil|Usage=FLASHONLY|Rotation=180.000|XOffset=0mil|YOffset=0mil|HoleType=Round|Shape=RoundedRectangle|*
%AMROUNDEDRECTD11*
21,1,0.02362,0.02362,0,0,180.0*
21,1,0.01181,0.03543,0,0,180.0*
1,1,0.01181,-0.00591,0.01181*
1,1,0.01181,0.00591,0.01181*
1,1,0.01181,0.00591,-0.01181*
1,1,0.01181,-0.00591,-0.01181*
%
%ADD11ROUNDEDRECTD11*%
%ADD12R,0.01654X0.03500*%
%ADD13R,0.03543X0.02756*%
G04:AMPARAMS|DCode=14|XSize=23.62mil|YSize=35.43mil|CornerRadius=5.91mil|HoleSize=0mil|Usage=FLASHONLY|Rotation=270.000|XOffset=0mil|YOffset=0mil|HoleType=Round|Shape=RoundedRectangle|*
%AMROUNDEDRECTD14*
21,1,0.02362,0.02362,0,0,270.0*
21,1,0.01181,0.03543,0,0,270.0*
1,1,0.01181,-0.01181,-0.00591*
1,1,0.01181,-0.01181,0.00591*
1,1,0.01181,0.01181,0.00591*
1,1,0.01181,0.01181,-0.00591*
%
%ADD14ROUNDEDRECTD14*%
%ADD15R,0.05906X0.09449*%
%ADD16R,0.09685X0.09095*%
%ADD17O,0.05512X0.01772*%
%ADD18R,0.02756X0.03543*%
G04:AMPARAMS|DCode=19|XSize=31.5mil|YSize=66.93mil|CornerRadius=7.87mil|HoleSize=0mil|Usage=FLASHONLY|Rotation=90.000|XOffset=0mil|YOffset=0mil|HoleType=Round|Shape=RoundedRectangle|*
%AMROUNDEDRECTD19*
21,1,0.03150,0.05118,0,0,90.0*
21,1,0.01575,0.06693,0,0,90.0*
1,1,0.01575,0.02559,0.00787*
1,1,0.01575,0.02559,-0.00787*
1,1,0.01575,-0.02559,-0.00787*
1,1,0.01575,-0.02559,0.00787*
%
%ADD19ROUNDEDRECTD19*%
G04:AMPARAMS|DCode=20|XSize=82.68mil|YSize=137.8mil|CornerRadius=20.67mil|HoleSize=0mil|Usage=FLASHONLY|Rotation=90.000|XOffset=0mil|YOffset=0mil|HoleType=Round|Shape=RoundedRectangle|*
%AMROUNDEDRECTD20*
21,1,0.08268,0.09646,0,0,90.0*
21,1,0.04134,0.13780,0,0,90.0*
1,1,0.04134,0.04823,0.02067*
1,1,0.04134,0.04823,-0.02067*
1,1,0.04134,-0.04823,-0.02067*
1,1,0.04134,-0.04823,0.02067*
%
%ADD20ROUNDEDRECTD20*%
%ADD21C,0.01181*%
%ADD22C,0.00787*%
%ADD23C,0.01969*%
%ADD24C,0.04331*%
%ADD25C,0.07874*%
%ADD26C,0.05512*%
%ADD27C,0.04724*%
%ADD28C,0.05906*%
%ADD29C,0.01000*%
%ADD30C,0.11798*%
%ADD31O,0.09843X0.02953*%
%ADD32O,0.04803X0.01575*%
%ADD33R,0.08661X0.03150*%
%ADD34O,0.01102X0.02520*%
%ADD35O,0.02520X0.01102*%
%ADD36O,0.00984X0.03189*%
%ADD37O,0.03189X0.00984*%
%ADD38R,0.01969X0.01181*%
%ADD39C,0.03937*%
%ADD40C,0.07087*%
%ADD41C,0.11794*%
%ADD42C,0.01102*%
%ADD43R,0.08071X0.08268*%
%ADD44R,0.07185X0.07677*%
%ADD45R,0.02362X0.05906*%
%ADD46R,0.04331X0.06693*%
%ADD47R,0.04449X0.08740*%
%ADD48R,0.03543X0.03150*%
%ADD49R,0.19488X0.10787*%
%ADD50O,0.01772X0.05512*%
%ADD51R,0.04331X0.02362*%
%ADD52R,0.05118X0.02756*%
%ADD53R,0.03500X0.01654*%
G04:AMPARAMS|DCode=54|XSize=31.5mil|YSize=66.93mil|CornerRadius=7.87mil|HoleSize=0mil|Usage=FLASHONLY|Rotation=0.000|XOffset=0mil|YOffset=0mil|HoleType=Round|Shape=RoundedRectangle|*
%AMROUNDEDRECTD54*
21,1,0.03150,0.05118,0,0,0.0*
21,1,0.01575,0.06693,0,0,0.0*
1,1,0.01575,0.00787,-0.02559*
1,1,0.01575,-0.00787,-0.02559*
1,1,0.01575,-0.00787,0.02559*
1,1,0.01575,0.00787,0.02559*
%
%ADD54ROUNDEDRECTD54*%
G04:AMPARAMS|DCode=55|XSize=82.68mil|YSize=137.8mil|CornerRadius=20.67mil|HoleSize=0mil|Usage=FLASHONLY|Rotation=0.000|XOffset=0mil|YOffset=0mil|HoleType=Round|Shape=RoundedRectangle|*
%AMROUNDEDRECTD55*
21,1,0.08268,0.09646,0,0,0.0*
21,1,0.04134,0.13780,0,0,0.0*
1,1,0.04134,0.02067,-0.04823*
1,1,0.04134,-0.02067,-0.04823*
1,1,0.04134,-0.02067,0.04823*
1,1,0.04134,0.02067,0.04823*
%
%ADD55ROUNDEDRECTD55*%
%ADD56R,0.03150X0.03543*%
%ADD57C,0.02756*%
%ADD58C,0.01575*%
%ADD59C,0.02362*%
%ADD60C,0.03150*%
%ADD61C,0.01772*%
%ADD62C,0.03543*%
%ADD63C,0.39370*%
%ADD64C,0.05906*%
%ADD65R,0.05906X0.05906*%
%ADD66R,0.05906X0.05906*%
%ADD67C,0.11811*%
%ADD68C,0.05000*%
%ADD69C,0.02756*%
%ADD70C,0.06000*%
%ADD71C,0.11024*%
%ADD72C,0.07874*%
%ADD73C,0.02559*%
%ADD74C,0.00984*%
%ADD75C,0.00492*%
%ADD76C,0.00394*%
%ADD77O,0.03162X0.06706*%
G04:AMPARAMS|DCode=78|XSize=31.62mil|YSize=43.43mil|CornerRadius=9.91mil|HoleSize=0mil|Usage=FLASHONLY|Rotation=180.000|XOffset=0mil|YOffset=0mil|HoleType=Round|Shape=RoundedRectangle|*
%AMROUNDEDRECTD78*
21,1,0.03162,0.02362,0,0,180.0*
21,1,0.01181,0.04343,0,0,180.0*
1,1,0.01981,-0.00591,0.01181*
1,1,0.01981,0.00591,0.01181*
1,1,0.01981,0.00591,-0.01181*
1,1,0.01981,-0.00591,-0.01181*
%
%ADD78ROUNDEDRECTD78*%
%ADD79R,0.02454X0.04300*%
%ADD80R,0.04343X0.03556*%
G04:AMPARAMS|DCode=81|XSize=31.62mil|YSize=43.43mil|CornerRadius=9.91mil|HoleSize=0mil|Usage=FLASHONLY|Rotation=270.000|XOffset=0mil|YOffset=0mil|HoleType=Round|Shape=RoundedRectangle|*
%AMROUNDEDRECTD81*
21,1,0.03162,0.02362,0,0,270.0*
21,1,0.01181,0.04343,0,0,270.0*
1,1,0.01981,-0.01181,-0.00591*
1,1,0.01981,-0.01181,0.00591*
1,1,0.01981,0.01181,0.00591*
1,1,0.01981,0.01181,-0.00591*
%
%ADD81ROUNDEDRECTD81*%
%ADD82R,0.06706X0.10249*%
%ADD83R,0.10485X0.09894*%
%ADD84O,0.06312X0.02572*%
%ADD85R,0.03556X0.04343*%
G04:AMPARAMS|DCode=86|XSize=39.5mil|YSize=74.93mil|CornerRadius=11.87mil|HoleSize=0mil|Usage=FLASHONLY|Rotation=90.000|XOffset=0mil|YOffset=0mil|HoleType=Round|Shape=RoundedRectangle|*
%AMROUNDEDRECTD86*
21,1,0.03950,0.05118,0,0,90.0*
21,1,0.01575,0.07493,0,0,90.0*
1,1,0.02375,0.02559,0.00787*
1,1,0.02375,0.02559,-0.00787*
1,1,0.02375,-0.02559,-0.00787*
1,1,0.02375,-0.02559,0.00787*
%
%ADD86ROUNDEDRECTD86*%
G04:AMPARAMS|DCode=87|XSize=90.68mil|YSize=145.79mil|CornerRadius=24.67mil|HoleSize=0mil|Usage=FLASHONLY|Rotation=90.000|XOffset=0mil|YOffset=0mil|HoleType=Round|Shape=RoundedRectangle|*
%AMROUNDEDRECTD87*
21,1,0.09068,0.09646,0,0,90.0*
21,1,0.04134,0.14579,0,0,90.0*
1,1,0.04934,0.04823,0.02067*
1,1,0.04934,0.04823,-0.02067*
1,1,0.04934,-0.04823,-0.02067*
1,1,0.04934,-0.04823,0.02067*
%
%ADD87ROUNDEDRECTD87*%
%ADD88O,0.10642X0.03753*%
%ADD89O,0.05603X0.02375*%
%ADD90R,0.09461X0.03950*%
%ADD91O,0.01496X0.02913*%
%ADD92O,0.02913X0.01496*%
%ADD93O,0.01784X0.03989*%
%ADD94O,0.03989X0.01784*%
%ADD95O,0.01575X0.03780*%
%ADD96O,0.03780X0.01575*%
%ADD97R,0.02769X0.01981*%
%ADD98R,0.03162X0.06706*%
%ADD99R,0.05131X0.07493*%
%ADD100R,0.05249X0.09540*%
%ADD101R,0.04343X0.03950*%
%ADD102R,0.20288X0.11587*%
%ADD103O,0.02572X0.06312*%
%ADD104R,0.05131X0.03162*%
%ADD105R,0.05918X0.03556*%
%ADD106R,0.04300X0.02454*%
G04:AMPARAMS|DCode=107|XSize=39.5mil|YSize=74.93mil|CornerRadius=11.87mil|HoleSize=0mil|Usage=FLASHONLY|Rotation=0.000|XOffset=0mil|YOffset=0mil|HoleType=Round|Shape=RoundedRectangle|*
%AMROUNDEDRECTD107*
21,1,0.03950,0.05118,0,0,0.0*
21,1,0.01575,0.07493,0,0,0.0*
1,1,0.02375,0.00787,-0.02559*
1,1,0.02375,-0.00787,-0.02559*
1,1,0.02375,-0.00787,0.02559*
1,1,0.02375,0.00787,0.02559*
%
%ADD107ROUNDEDRECTD107*%
G04:AMPARAMS|DCode=108|XSize=90.68mil|YSize=145.79mil|CornerRadius=24.67mil|HoleSize=0mil|Usage=FLASHONLY|Rotation=0.000|XOffset=0mil|YOffset=0mil|HoleType=Round|Shape=RoundedRectangle|*
%AMROUNDEDRECTD108*
21,1,0.09068,0.09646,0,0,0.0*
21,1,0.04134,0.14579,0,0,0.0*
1,1,0.04934,0.02067,-0.04823*
1,1,0.04934,-0.02067,-0.04823*
1,1,0.04934,-0.02067,0.04823*
1,1,0.04934,0.02067,0.04823*
%
%ADD108ROUNDEDRECTD108*%
%ADD109R,0.03950X0.04343*%
%ADD110C,0.40170*%
%ADD111C,0.06706*%
%ADD112R,0.06706X0.06706*%
%ADD113R,0.06706X0.06706*%
%ADD114C,0.12611*%
%ADD115C,0.05800*%
%ADD116C,0.03556*%
%ADD117C,0.06800*%
%ADD118C,0.11824*%
%ADD119C,0.08674*%
%ADD120C,0.03359*%
D77*
X1142736Y278543D02*
D03*
X1137736D02*
D03*
X1132736D02*
D03*
X1127736D02*
D03*
X1142736Y257283D02*
D03*
X1137736D02*
D03*
X1132736D02*
D03*
X1127736D02*
D03*
X1142736Y490158D02*
D03*
X1137736D02*
D03*
X1132736D02*
D03*
X1127736D02*
D03*
X1142736Y468898D02*
D03*
X1137736D02*
D03*
X1132736D02*
D03*
X1127736D02*
D03*
D78*
X1082480Y280413D02*
D03*
X1088386D02*
D03*
X1117224Y224803D02*
D03*
X1123130D02*
D03*
X1091437Y226477D02*
D03*
X1097342D02*
D03*
X294193Y362402D02*
D03*
X288287D02*
D03*
X281201Y315158D02*
D03*
X275295D02*
D03*
X202793Y318234D02*
D03*
X208698D02*
D03*
X202537Y303547D02*
D03*
X208443D02*
D03*
X202537Y289374D02*
D03*
X208443D02*
D03*
X210827Y258169D02*
D03*
X204921D02*
D03*
X316287Y255726D02*
D03*
X310382D02*
D03*
X256059Y285252D02*
D03*
X250153D02*
D03*
X251870Y302263D02*
D03*
X245965D02*
D03*
X245768Y294193D02*
D03*
X251673D02*
D03*
X234449Y283859D02*
D03*
X240354D02*
D03*
X229099Y283734D02*
D03*
X223193D02*
D03*
X231798Y242934D02*
D03*
X225893D02*
D03*
X247462Y256909D02*
D03*
X253368D02*
D03*
X222098Y337834D02*
D03*
X216193D02*
D03*
X281693Y328937D02*
D03*
X287598D02*
D03*
X694882Y271851D02*
D03*
X700787D02*
D03*
X838189Y343111D02*
D03*
X844094D02*
D03*
X837795Y294292D02*
D03*
X843701D02*
D03*
X839370Y321063D02*
D03*
X845276D02*
D03*
X798032Y519882D02*
D03*
X803937D02*
D03*
X694882Y421063D02*
D03*
X700787D02*
D03*
X715748Y419094D02*
D03*
X709842D02*
D03*
X838386Y443111D02*
D03*
X844291D02*
D03*
X839370Y464764D02*
D03*
X845276D02*
D03*
X839370Y516929D02*
D03*
X845276D02*
D03*
X838386Y495276D02*
D03*
X844291D02*
D03*
X715748Y264763D02*
D03*
X709842D02*
D03*
X839370Y369095D02*
D03*
X845276D02*
D03*
X798032Y367126D02*
D03*
X803937D02*
D03*
X1082480Y492027D02*
D03*
X1088386D02*
D03*
X1117224Y436417D02*
D03*
X1123130D02*
D03*
X1091437Y438091D02*
D03*
X1097342D02*
D03*
D79*
X1089764Y270986D02*
D03*
X1087205D02*
D03*
X1084646D02*
D03*
X1082087D02*
D03*
X1089764Y254408D02*
D03*
X1087205D02*
D03*
X1084646D02*
D03*
X1082087D02*
D03*
X1089764Y482600D02*
D03*
X1087205D02*
D03*
X1084646D02*
D03*
X1082087D02*
D03*
X1089764Y466022D02*
D03*
X1087205D02*
D03*
X1084646D02*
D03*
X1082087D02*
D03*
D80*
X1080217Y223622D02*
D03*
Y217717D02*
D03*
X742913Y507087D02*
D03*
Y512992D02*
D03*
X782283Y512008D02*
D03*
Y506102D02*
D03*
X751772Y286221D02*
D03*
Y280315D02*
D03*
X782283Y357087D02*
D03*
Y351181D02*
D03*
X742913Y352362D02*
D03*
Y358268D02*
D03*
X751772Y435433D02*
D03*
Y429528D02*
D03*
X1080217Y435236D02*
D03*
Y429331D02*
D03*
D81*
X1068898Y220472D02*
D03*
Y226378D02*
D03*
X1145768Y218209D02*
D03*
Y212303D02*
D03*
X1145571Y206201D02*
D03*
Y200295D02*
D03*
X1139469Y243898D02*
D03*
Y237992D02*
D03*
X1129528Y243701D02*
D03*
Y237795D02*
D03*
X1119783D02*
D03*
Y243701D02*
D03*
X1116732Y270669D02*
D03*
Y264764D02*
D03*
X1100885Y264567D02*
D03*
Y258661D02*
D03*
X1088090Y207087D02*
D03*
Y212992D02*
D03*
X177345Y237381D02*
D03*
Y243287D02*
D03*
X190445Y237481D02*
D03*
Y243387D02*
D03*
X204545Y237481D02*
D03*
Y243387D02*
D03*
X215445Y237481D02*
D03*
Y243387D02*
D03*
X266163Y250019D02*
D03*
Y255925D02*
D03*
X282145Y249981D02*
D03*
Y255887D02*
D03*
X218146Y275687D02*
D03*
Y269781D02*
D03*
X208546Y266581D02*
D03*
Y272487D02*
D03*
X186417Y258661D02*
D03*
Y252756D02*
D03*
X221745Y328187D02*
D03*
Y322281D02*
D03*
X731102Y280315D02*
D03*
Y286221D02*
D03*
X731103Y300394D02*
D03*
Y294488D02*
D03*
X727756Y318898D02*
D03*
Y312992D02*
D03*
X701772Y320079D02*
D03*
Y314173D02*
D03*
X686811Y313386D02*
D03*
Y319291D02*
D03*
Y299213D02*
D03*
Y305118D02*
D03*
X821456Y312205D02*
D03*
Y318110D02*
D03*
X821653Y510039D02*
D03*
Y515945D02*
D03*
X726969Y466929D02*
D03*
Y461024D02*
D03*
X701772Y468504D02*
D03*
Y462598D02*
D03*
X686811Y460827D02*
D03*
Y466732D02*
D03*
Y447047D02*
D03*
Y452953D02*
D03*
X731102Y431299D02*
D03*
Y437205D02*
D03*
X731103Y449016D02*
D03*
Y443110D02*
D03*
X787205Y462598D02*
D03*
Y456693D02*
D03*
X820669Y458858D02*
D03*
Y464764D02*
D03*
X786221Y314961D02*
D03*
Y309055D02*
D03*
X821653Y357480D02*
D03*
Y363386D02*
D03*
X680118Y352362D02*
D03*
Y358268D02*
D03*
X680905Y507874D02*
D03*
Y513779D02*
D03*
X1068898Y432087D02*
D03*
Y437992D02*
D03*
X1145768Y429823D02*
D03*
Y423917D02*
D03*
X1145571Y417815D02*
D03*
Y411909D02*
D03*
X1139469Y455512D02*
D03*
Y449606D02*
D03*
X1129528Y455315D02*
D03*
Y449409D02*
D03*
X1119783D02*
D03*
Y455315D02*
D03*
X1116732Y482283D02*
D03*
Y476378D02*
D03*
X1100885Y476181D02*
D03*
Y470276D02*
D03*
X1088090Y418701D02*
D03*
Y424606D02*
D03*
D82*
X1139665Y185531D02*
D03*
X1125098D02*
D03*
X1139665Y397146D02*
D03*
X1125098D02*
D03*
D83*
X1120374Y206594D02*
D03*
Y418209D02*
D03*
D84*
X1131988Y198917D02*
D03*
Y201476D02*
D03*
Y204035D02*
D03*
Y206594D02*
D03*
Y209154D02*
D03*
Y211713D02*
D03*
Y214272D02*
D03*
X1108760Y198917D02*
D03*
Y201476D02*
D03*
Y204035D02*
D03*
Y206594D02*
D03*
Y209154D02*
D03*
Y211713D02*
D03*
Y214272D02*
D03*
X1131988Y410532D02*
D03*
Y413091D02*
D03*
Y415650D02*
D03*
Y418209D02*
D03*
Y420768D02*
D03*
Y423327D02*
D03*
Y425886D02*
D03*
X1108760Y410532D02*
D03*
Y413091D02*
D03*
Y415650D02*
D03*
Y418209D02*
D03*
Y420768D02*
D03*
Y423327D02*
D03*
Y425886D02*
D03*
D85*
X1066634Y267520D02*
D03*
X1060728D02*
D03*
X1060925Y255512D02*
D03*
X1066831D02*
D03*
X705315Y256496D02*
D03*
X699409D02*
D03*
X748819Y297835D02*
D03*
X754724D02*
D03*
X798032Y294291D02*
D03*
X803937D02*
D03*
X820866Y295473D02*
D03*
X814961D02*
D03*
X879724Y361614D02*
D03*
X873819D02*
D03*
X873819Y350197D02*
D03*
X879724D02*
D03*
X880709Y312402D02*
D03*
X874803D02*
D03*
X874803Y302165D02*
D03*
X880709D02*
D03*
X769488Y462795D02*
D03*
X775394D02*
D03*
X769488Y451968D02*
D03*
X775394D02*
D03*
X873819Y500197D02*
D03*
X879724D02*
D03*
X799016Y445079D02*
D03*
X804921D02*
D03*
X821654Y497244D02*
D03*
X815748D02*
D03*
X820669Y445079D02*
D03*
X814764D02*
D03*
X874803Y449016D02*
D03*
X880709D02*
D03*
X880709Y457874D02*
D03*
X874803D02*
D03*
X873819Y508071D02*
D03*
X879724D02*
D03*
X705315Y410827D02*
D03*
X699409D02*
D03*
X769488Y315551D02*
D03*
X775394D02*
D03*
X769488Y305315D02*
D03*
X775394D02*
D03*
X821654Y345079D02*
D03*
X815748D02*
D03*
X748819Y447441D02*
D03*
X754724D02*
D03*
X1066634Y479134D02*
D03*
X1060728D02*
D03*
X1060925Y467126D02*
D03*
X1066831D02*
D03*
D86*
X1169783Y262697D02*
D03*
Y238090D02*
D03*
Y257776D02*
D03*
Y252854D02*
D03*
Y247933D02*
D03*
Y243012D02*
D03*
Y474311D02*
D03*
Y449705D02*
D03*
Y469390D02*
D03*
Y464468D02*
D03*
Y459547D02*
D03*
Y454626D02*
D03*
D87*
X1181988Y228051D02*
D03*
Y272736D02*
D03*
Y439665D02*
D03*
Y484350D02*
D03*
D88*
X488878Y419488D02*
D03*
Y414488D02*
D03*
Y409488D02*
D03*
Y404488D02*
D03*
Y399488D02*
D03*
Y394488D02*
D03*
Y389488D02*
D03*
Y384488D02*
D03*
X504626Y419488D02*
D03*
Y414488D02*
D03*
Y409488D02*
D03*
Y404488D02*
D03*
Y399488D02*
D03*
Y394488D02*
D03*
Y389488D02*
D03*
Y384488D02*
D03*
X398327Y419488D02*
D03*
Y414488D02*
D03*
Y409488D02*
D03*
Y404488D02*
D03*
Y399488D02*
D03*
Y394488D02*
D03*
Y389488D02*
D03*
Y384488D02*
D03*
X414075Y419488D02*
D03*
Y414488D02*
D03*
Y409488D02*
D03*
Y404488D02*
D03*
Y399488D02*
D03*
Y394488D02*
D03*
Y389488D02*
D03*
Y384488D02*
D03*
D89*
X271772Y364567D02*
D03*
Y362008D02*
D03*
Y359449D02*
D03*
Y356890D02*
D03*
X282087Y364567D02*
D03*
Y362008D02*
D03*
Y359449D02*
D03*
Y356890D02*
D03*
D90*
X250146Y275749D02*
D03*
Y265119D02*
D03*
D91*
X229922Y263780D02*
D03*
X231890D02*
D03*
X233858D02*
D03*
X235827D02*
D03*
Y253543D02*
D03*
X233858D02*
D03*
X231890D02*
D03*
X229922D02*
D03*
D92*
X237992Y261614D02*
D03*
Y259646D02*
D03*
Y257677D02*
D03*
Y255709D02*
D03*
X227756D02*
D03*
Y257677D02*
D03*
Y259646D02*
D03*
Y261614D02*
D03*
D93*
X206339Y436063D02*
D03*
X208307D02*
D03*
X210276D02*
D03*
X212244D02*
D03*
X214213D02*
D03*
Y421811D02*
D03*
X212244D02*
D03*
X210276D02*
D03*
X286772D02*
D03*
X284803D02*
D03*
X282835D02*
D03*
X280866D02*
D03*
X278898D02*
D03*
Y436063D02*
D03*
X280866D02*
D03*
X282835D02*
D03*
X284803D02*
D03*
X286772D02*
D03*
D94*
X217402Y432874D02*
D03*
Y430906D02*
D03*
Y428937D02*
D03*
Y426969D02*
D03*
Y425000D02*
D03*
X203150D02*
D03*
Y426969D02*
D03*
Y428937D02*
D03*
Y430906D02*
D03*
X275709Y425000D02*
D03*
Y426968D02*
D03*
Y428937D02*
D03*
Y430905D02*
D03*
Y432874D02*
D03*
X289961D02*
D03*
Y430905D02*
D03*
Y428937D02*
D03*
Y426968D02*
D03*
Y425000D02*
D03*
D95*
X208307Y421811D02*
D03*
X206339D02*
D03*
D96*
X203150Y432874D02*
D03*
D97*
X181496Y469587D02*
D03*
X178740D02*
D03*
X180610Y477264D02*
D03*
X177854D02*
D03*
D98*
X719528Y365945D02*
D03*
X714528D02*
D03*
X709528D02*
D03*
X704528D02*
D03*
X699528D02*
D03*
X694528D02*
D03*
X689528D02*
D03*
X719528Y344685D02*
D03*
X714528D02*
D03*
X709528D02*
D03*
X704528D02*
D03*
X699528D02*
D03*
X694528D02*
D03*
X689528D02*
D03*
X719528Y518701D02*
D03*
X714528D02*
D03*
X709528D02*
D03*
X704528D02*
D03*
X699528D02*
D03*
X694528D02*
D03*
X689528D02*
D03*
X719528Y497441D02*
D03*
X714528D02*
D03*
X709528D02*
D03*
X704528D02*
D03*
X699528D02*
D03*
X694528D02*
D03*
X689528D02*
D03*
D99*
X726378Y263189D02*
D03*
X737008D02*
D03*
X726378Y418701D02*
D03*
X737008D02*
D03*
D100*
X718051Y318307D02*
D03*
X709114D02*
D03*
X719232Y466732D02*
D03*
X710295D02*
D03*
D101*
X686811Y291142D02*
D03*
Y285630D02*
D03*
Y437992D02*
D03*
Y432480D02*
D03*
D102*
X710236Y294685D02*
D03*
Y443307D02*
D03*
D103*
X721752Y306299D02*
D03*
X719193D02*
D03*
X716634D02*
D03*
X714075D02*
D03*
X711516D02*
D03*
X708957D02*
D03*
X706398D02*
D03*
X703839D02*
D03*
X701280D02*
D03*
X698721D02*
D03*
X721752Y283071D02*
D03*
X719193D02*
D03*
X716634D02*
D03*
X714075D02*
D03*
X711516D02*
D03*
X708957D02*
D03*
X706398D02*
D03*
X703839D02*
D03*
X701280D02*
D03*
X698721D02*
D03*
X721752Y454921D02*
D03*
X719193D02*
D03*
X716634D02*
D03*
X714075D02*
D03*
X711516D02*
D03*
X708957D02*
D03*
X706398D02*
D03*
X703839D02*
D03*
X701280D02*
D03*
X698721D02*
D03*
X721752Y431693D02*
D03*
X719193D02*
D03*
X716634D02*
D03*
X714075D02*
D03*
X711516D02*
D03*
X708957D02*
D03*
X706398D02*
D03*
X703839D02*
D03*
X701280D02*
D03*
X698721D02*
D03*
D104*
X769685Y351181D02*
D03*
Y354921D02*
D03*
Y358661D02*
D03*
X759055D02*
D03*
Y354921D02*
D03*
Y351181D02*
D03*
X758268Y505315D02*
D03*
Y509055D02*
D03*
Y512795D02*
D03*
X768898D02*
D03*
Y509055D02*
D03*
Y505315D02*
D03*
D105*
X805709Y358268D02*
D03*
Y354528D02*
D03*
Y350787D02*
D03*
X796260D02*
D03*
Y354528D02*
D03*
Y358268D02*
D03*
X807283Y316535D02*
D03*
Y312795D02*
D03*
Y309055D02*
D03*
X797835D02*
D03*
Y312795D02*
D03*
Y316535D02*
D03*
X806693Y462598D02*
D03*
Y458858D02*
D03*
Y455118D02*
D03*
X797244D02*
D03*
Y458858D02*
D03*
Y462598D02*
D03*
X805709Y511811D02*
D03*
Y508071D02*
D03*
Y504331D02*
D03*
X796260D02*
D03*
Y508071D02*
D03*
Y511811D02*
D03*
D106*
X833049Y313091D02*
D03*
Y310531D02*
D03*
Y307972D02*
D03*
Y305413D02*
D03*
X849628Y313091D02*
D03*
Y310531D02*
D03*
Y307972D02*
D03*
Y305413D02*
D03*
Y503248D02*
D03*
Y505807D02*
D03*
Y508366D02*
D03*
Y510925D02*
D03*
X833049Y503248D02*
D03*
Y505807D02*
D03*
Y508366D02*
D03*
Y510925D02*
D03*
X849628Y451083D02*
D03*
Y453642D02*
D03*
Y456201D02*
D03*
Y458760D02*
D03*
X833049Y451083D02*
D03*
Y453642D02*
D03*
Y456201D02*
D03*
Y458760D02*
D03*
Y359941D02*
D03*
Y357382D02*
D03*
Y354823D02*
D03*
Y352264D02*
D03*
X849628Y359941D02*
D03*
Y357382D02*
D03*
Y354823D02*
D03*
Y352264D02*
D03*
D107*
X659744Y193110D02*
D03*
X635138D02*
D03*
X654823D02*
D03*
X649902D02*
D03*
X644980D02*
D03*
X640059D02*
D03*
X841043D02*
D03*
X845965D02*
D03*
X728642D02*
D03*
X704036D02*
D03*
X723721D02*
D03*
X718799D02*
D03*
X713878D02*
D03*
X708957D02*
D03*
D108*
X625098Y180905D02*
D03*
X669783D02*
D03*
X856004D02*
D03*
X831004D02*
D03*
X693996D02*
D03*
X738681D02*
D03*
D109*
X761614Y497047D02*
D03*
X767126D02*
D03*
X762008Y365945D02*
D03*
X767520D02*
D03*
D110*
X1168110Y185236D02*
D03*
X1075984D02*
D03*
X514764Y180610D02*
D03*
X204823Y210138D02*
D03*
X470677Y180610D02*
D03*
X950504Y314173D02*
D03*
Y363386D02*
D03*
Y505059D02*
D03*
Y454559D02*
D03*
X639567Y462795D02*
D03*
Y413583D02*
D03*
Y512008D02*
D03*
X1168110Y396850D02*
D03*
X1075984D02*
D03*
D111*
X1167579Y297047D02*
D03*
X1056299Y218051D02*
D03*
X375453Y295374D02*
D03*
X365492D02*
D03*
X268283Y333747D02*
D03*
X258283Y343747D02*
D03*
Y333747D02*
D03*
X248283Y343747D02*
D03*
Y333747D02*
D03*
X238283Y343747D02*
D03*
Y333747D02*
D03*
X250446Y226434D02*
D03*
X240446D02*
D03*
X230446D02*
D03*
X231024Y498189D02*
D03*
Y488189D02*
D03*
X221024Y498189D02*
D03*
Y488189D02*
D03*
X211024Y498189D02*
D03*
X264173Y216378D02*
D03*
Y226378D02*
D03*
X1167579Y508661D02*
D03*
X1056299Y429665D02*
D03*
D112*
X1157579Y297047D02*
D03*
X268283Y343747D02*
D03*
X211024Y488189D02*
D03*
X1157579Y508661D02*
D03*
D113*
X1056299Y228051D02*
D03*
Y439665D02*
D03*
D114*
Y297047D02*
D03*
X1187795D02*
D03*
X1056299Y165551D02*
D03*
X1187795Y165551D02*
D03*
X169291Y526968D02*
D03*
X540453Y526968D02*
D03*
X540453Y164370D02*
D03*
X169291D02*
D03*
X264173Y295374D02*
D03*
X395669D02*
D03*
Y163878D02*
D03*
X264173D02*
D03*
X1056299Y508661D02*
D03*
X1187795D02*
D03*
X1056299Y377165D02*
D03*
X1187795Y377165D02*
D03*
D115*
X1083858Y295177D02*
D03*
X1108071Y277658D02*
D03*
X1181004Y284646D02*
D03*
X1056496Y280413D02*
D03*
X1058268Y243209D02*
D03*
X1104921Y235925D02*
D03*
X1106299Y247441D02*
D03*
X1071653Y246752D02*
D03*
X1054035Y198031D02*
D03*
X1061417Y206791D02*
D03*
X1070571Y212008D02*
D03*
X1125591Y170276D02*
D03*
X1101378Y176969D02*
D03*
X1112992Y172736D02*
D03*
X1137303Y173031D02*
D03*
X1145571Y168504D02*
D03*
X1162106Y215551D02*
D03*
X1157874Y227067D02*
D03*
X1175394Y212402D02*
D03*
X1188386Y202165D02*
D03*
X1186319Y216634D02*
D03*
X1124606Y287402D02*
D03*
X1133366Y294488D02*
D03*
X1109153Y287795D02*
D03*
X1097933Y298622D02*
D03*
X1069488Y284252D02*
D03*
X1070571Y296161D02*
D03*
X1119291Y296949D02*
D03*
X211024Y456201D02*
D03*
X474803Y235531D02*
D03*
X474705Y242126D02*
D03*
X417520Y504921D02*
D03*
X190256Y500098D02*
D03*
X248327Y364665D02*
D03*
X173524Y250886D02*
D03*
X289370Y389272D02*
D03*
X217520Y309547D02*
D03*
X262402Y316732D02*
D03*
X252362Y238976D02*
D03*
X242815Y470472D02*
D03*
X241339Y377362D02*
D03*
X259055Y385925D02*
D03*
X257283Y374114D02*
D03*
X494882Y363878D02*
D03*
X476673Y263189D02*
D03*
X492421Y243799D02*
D03*
X385039Y173425D02*
D03*
X292913Y187303D02*
D03*
X184055Y231791D02*
D03*
X175000Y218701D02*
D03*
X254232Y196850D02*
D03*
X227461Y167224D02*
D03*
X272539Y191634D02*
D03*
X193602Y447539D02*
D03*
X175000Y455217D02*
D03*
X218406Y522539D02*
D03*
X190453Y519291D02*
D03*
X254724Y487008D02*
D03*
X255709Y512500D02*
D03*
X373130Y427362D02*
D03*
X430413Y346752D02*
D03*
X439961Y405413D02*
D03*
X474311Y462205D02*
D03*
X497736Y443602D02*
D03*
X423721Y461811D02*
D03*
X382185Y489961D02*
D03*
X490551Y483760D02*
D03*
X450394Y443602D02*
D03*
X446654Y486122D02*
D03*
X398917Y448917D02*
D03*
X366437Y369587D02*
D03*
X389370Y337205D02*
D03*
X366437Y317126D02*
D03*
X248031Y211221D02*
D03*
X341240Y220866D02*
D03*
X296358Y198130D02*
D03*
X345965Y171949D02*
D03*
X405807Y244488D02*
D03*
X404823Y339469D02*
D03*
X410532Y375787D02*
D03*
X391240Y367421D02*
D03*
X404823Y318012D02*
D03*
X442028Y267224D02*
D03*
X435433Y244980D02*
D03*
X422638Y258661D02*
D03*
X452264Y287106D02*
D03*
X483071Y318504D02*
D03*
X506693Y285433D02*
D03*
X510925Y365748D02*
D03*
X480413Y344193D02*
D03*
X499803Y313780D02*
D03*
X474606Y289665D02*
D03*
X490354Y269685D02*
D03*
X422421Y309724D02*
D03*
X194291Y469587D02*
D03*
X194882Y477362D02*
D03*
X250746Y311234D02*
D03*
X258184Y359147D02*
D03*
X231246Y317934D02*
D03*
X271752Y273622D02*
D03*
X279134D02*
D03*
X216043Y469488D02*
D03*
X350886Y199803D02*
D03*
X355610Y192717D02*
D03*
X240158Y266929D02*
D03*
X238090Y404134D02*
D03*
X202751Y346005D02*
D03*
Y339036D02*
D03*
Y332068D02*
D03*
Y325099D02*
D03*
Y311162D02*
D03*
Y283288D02*
D03*
Y276320D02*
D03*
X212757Y248658D02*
D03*
X193504Y248622D02*
D03*
X172844Y261342D02*
D03*
X170465Y267892D02*
D03*
X170084Y274850D02*
D03*
Y281819D02*
D03*
Y288787D02*
D03*
Y295756D02*
D03*
Y302724D02*
D03*
Y309693D02*
D03*
Y316661D02*
D03*
Y323630D02*
D03*
Y330598D02*
D03*
Y337567D02*
D03*
Y344535D02*
D03*
Y351504D02*
D03*
Y358472D02*
D03*
Y365441D02*
D03*
Y372409D02*
D03*
Y379378D02*
D03*
Y386346D02*
D03*
Y393315D02*
D03*
Y400283D02*
D03*
Y407252D02*
D03*
X170550Y414205D02*
D03*
X172286Y420953D02*
D03*
X175314Y427230D02*
D03*
X179511Y432792D02*
D03*
X184968Y437126D02*
D03*
X191619Y439205D02*
D03*
X226439Y410154D02*
D03*
X226432Y404154D02*
D03*
X226395Y398154D02*
D03*
X224605Y368520D02*
D03*
X208427Y354472D02*
D03*
X318898Y507874D02*
D03*
X298398Y498737D02*
D03*
X299014Y492769D02*
D03*
X299027Y486769D02*
D03*
X299040Y480769D02*
D03*
X299053Y474769D02*
D03*
X299066Y468769D02*
D03*
X299079Y462769D02*
D03*
X299092Y456769D02*
D03*
X299105Y450769D02*
D03*
X266442Y449076D02*
D03*
X266429Y455076D02*
D03*
X266416Y461076D02*
D03*
X266403Y467076D02*
D03*
X266390Y473076D02*
D03*
X266377Y479076D02*
D03*
X266364Y485076D02*
D03*
X266351Y491076D02*
D03*
X266580Y497072D02*
D03*
X309893Y444014D02*
D03*
X315581Y442104D02*
D03*
X320773Y439097D02*
D03*
X325249Y435102D02*
D03*
X328859Y430309D02*
D03*
X331407Y424877D02*
D03*
X332852Y419054D02*
D03*
X333158Y413062D02*
D03*
Y407062D02*
D03*
Y401062D02*
D03*
Y395062D02*
D03*
Y389062D02*
D03*
Y383062D02*
D03*
Y377062D02*
D03*
Y371062D02*
D03*
Y365062D02*
D03*
Y359062D02*
D03*
Y353062D02*
D03*
Y347062D02*
D03*
Y341062D02*
D03*
Y335062D02*
D03*
Y329062D02*
D03*
Y323062D02*
D03*
Y317062D02*
D03*
Y311062D02*
D03*
Y305062D02*
D03*
Y299062D02*
D03*
Y293062D02*
D03*
Y287062D02*
D03*
Y281062D02*
D03*
Y275062D02*
D03*
X333095Y269062D02*
D03*
X331578Y263257D02*
D03*
X328450Y258137D02*
D03*
X327648Y252191D02*
D03*
X324812Y246903D02*
D03*
X319624Y243890D02*
D03*
X313626Y243730D02*
D03*
X308257Y246409D02*
D03*
X305115Y251521D02*
D03*
X302131Y262935D02*
D03*
X300587Y268733D02*
D03*
X300491Y274732D02*
D03*
Y280732D02*
D03*
Y286732D02*
D03*
Y292732D02*
D03*
Y298732D02*
D03*
Y304732D02*
D03*
Y310732D02*
D03*
Y316732D02*
D03*
Y322732D02*
D03*
Y328732D02*
D03*
Y334732D02*
D03*
Y340732D02*
D03*
Y346732D02*
D03*
Y352732D02*
D03*
Y358732D02*
D03*
Y364732D02*
D03*
Y370732D02*
D03*
Y376732D02*
D03*
Y382732D02*
D03*
Y388732D02*
D03*
Y394732D02*
D03*
Y400732D02*
D03*
Y406732D02*
D03*
X299431Y412638D02*
D03*
X293982Y415149D02*
D03*
X265693Y412734D02*
D03*
X259694Y412605D02*
D03*
X253694D02*
D03*
X247694D02*
D03*
X241694D02*
D03*
X221251Y442549D02*
D03*
X226820Y444781D02*
D03*
X244800Y445269D02*
D03*
X250800D02*
D03*
X256801D02*
D03*
X238287Y396063D02*
D03*
X231791Y390551D02*
D03*
X236614Y456004D02*
D03*
X210236Y428839D02*
D03*
X282776Y428937D02*
D03*
X232579Y325886D02*
D03*
X214862Y329232D02*
D03*
X232776Y258661D02*
D03*
X250590Y324606D02*
D03*
X231988Y305610D02*
D03*
X223917Y293996D02*
D03*
X213681D02*
D03*
X240453Y276772D02*
D03*
X201476Y463681D02*
D03*
X169095Y491437D02*
D03*
X317618Y462008D02*
D03*
X287697Y221555D02*
D03*
X324213Y198228D02*
D03*
X522539Y397736D02*
D03*
X431102Y377067D02*
D03*
X521752Y472047D02*
D03*
X510925Y507087D02*
D03*
X391043Y313484D02*
D03*
X369980Y273031D02*
D03*
X365158Y229331D02*
D03*
X519390Y243209D02*
D03*
X704921Y419488D02*
D03*
X726181Y326181D02*
D03*
X674606Y332087D02*
D03*
X830145Y465185D02*
D03*
X827362Y516732D02*
D03*
X830512Y321063D02*
D03*
X813189Y462795D02*
D03*
X822638Y451378D02*
D03*
X824213Y304921D02*
D03*
X763976Y481299D02*
D03*
X662795Y387598D02*
D03*
X826575Y351772D02*
D03*
X827362Y363976D02*
D03*
X704528Y268307D02*
D03*
X843110Y378937D02*
D03*
X812795Y358465D02*
D03*
X838386Y332480D02*
D03*
X674606Y316929D02*
D03*
X749016Y441535D02*
D03*
X674606Y489961D02*
D03*
Y473819D02*
D03*
X836417Y477559D02*
D03*
X824606Y503150D02*
D03*
X812598Y511811D02*
D03*
X836417Y531693D02*
D03*
X759646Y441535D02*
D03*
X755709Y497047D02*
D03*
X732480Y346260D02*
D03*
X662795Y421260D02*
D03*
X814370Y316732D02*
D03*
X1083858Y506791D02*
D03*
X1108071Y489272D02*
D03*
X1181004Y496260D02*
D03*
X1056496Y492028D02*
D03*
X1058268Y454823D02*
D03*
X1104921Y447539D02*
D03*
X1106299Y459055D02*
D03*
X1071653Y458366D02*
D03*
X1054035Y409646D02*
D03*
X1061417Y418405D02*
D03*
X1070571Y423622D02*
D03*
X1125591Y381890D02*
D03*
X1101378Y388583D02*
D03*
X1112992Y384350D02*
D03*
X1137303Y384646D02*
D03*
X1145571Y380118D02*
D03*
X1162106Y427165D02*
D03*
X1157874Y438681D02*
D03*
X1175394Y424016D02*
D03*
X1188386Y413779D02*
D03*
X1186319Y428248D02*
D03*
X1124606Y499016D02*
D03*
X1133366Y506102D02*
D03*
X1109153Y499409D02*
D03*
X1097933Y510236D02*
D03*
X1069488Y495866D02*
D03*
X1070571Y507776D02*
D03*
X1119291Y508563D02*
D03*
D116*
X1122539Y204429D02*
D03*
X1118209D02*
D03*
X1122539Y208760D02*
D03*
X1118209D02*
D03*
X1096358Y254035D02*
D03*
X1127953Y270965D02*
D03*
X1081594Y243996D02*
D03*
X1094094Y270866D02*
D03*
Y280512D02*
D03*
X1112598Y256693D02*
D03*
X1137736Y250846D02*
D03*
X1162598Y287205D02*
D03*
X1151968D02*
D03*
X1142815Y250787D02*
D03*
X1156594Y238090D02*
D03*
X1132776Y250787D02*
D03*
X1102067Y226279D02*
D03*
X1126968Y231988D02*
D03*
X1114075Y193012D02*
D03*
X1101968Y205512D02*
D03*
X1102067Y210531D02*
D03*
X710039Y426181D02*
D03*
X713976Y276575D02*
D03*
X727362D02*
D03*
X746260Y330512D02*
D03*
X694291Y304921D02*
D03*
X713583Y312008D02*
D03*
X713976Y426181D02*
D03*
X721063Y420669D02*
D03*
X745866Y435236D02*
D03*
X735630Y434449D02*
D03*
X761614Y285236D02*
D03*
X786024Y297047D02*
D03*
X688780Y257283D02*
D03*
Y271457D02*
D03*
X791536Y458465D02*
D03*
X862402Y500197D02*
D03*
X688386Y408858D02*
D03*
Y421063D02*
D03*
X832087Y498228D02*
D03*
X825000Y466732D02*
D03*
X823032Y322244D02*
D03*
X695472Y213583D02*
D03*
X715748Y415354D02*
D03*
X923425Y398622D02*
D03*
X928937Y405315D02*
D03*
X649803Y211614D02*
D03*
X704528Y491142D02*
D03*
X669095Y409646D02*
D03*
X644291Y336811D02*
D03*
X704528D02*
D03*
X671063Y259646D02*
D03*
Y241535D02*
D03*
X656102Y379331D02*
D03*
X717913Y535630D02*
D03*
X921063Y525787D02*
D03*
X841043Y208366D02*
D03*
X845965Y203642D02*
D03*
X922244Y408465D02*
D03*
X869882Y316732D02*
D03*
Y369094D02*
D03*
X864764Y517913D02*
D03*
X869882Y465551D02*
D03*
X864370Y312008D02*
D03*
X700197Y379331D02*
D03*
X680118Y275787D02*
D03*
X745472Y375394D02*
D03*
X791929Y300984D02*
D03*
X697441Y375500D02*
D03*
X743898Y284449D02*
D03*
X694685Y452953D02*
D03*
X726181Y449016D02*
D03*
X697047Y525787D02*
D03*
X745866Y452165D02*
D03*
X694685Y486417D02*
D03*
X699606D02*
D03*
X790158Y449016D02*
D03*
X791142Y495276D02*
D03*
X778346D02*
D03*
X748819Y527756D02*
D03*
X746850Y485433D02*
D03*
X784252Y492323D02*
D03*
X750787Y509055D02*
D03*
X722638Y460039D02*
D03*
X714370Y460433D02*
D03*
X863976Y457874D02*
D03*
X700197Y531693D02*
D03*
X679724Y425787D02*
D03*
Y407283D02*
D03*
X791142Y342323D02*
D03*
X776968D02*
D03*
X785630Y339173D02*
D03*
X750984Y354134D02*
D03*
X715551Y259252D02*
D03*
X721063Y269882D02*
D03*
X710039Y276575D02*
D03*
X699409D02*
D03*
X726181Y297047D02*
D03*
X680118Y253346D02*
D03*
X744185Y304815D02*
D03*
X694291Y331693D02*
D03*
X699803D02*
D03*
X723032Y312402D02*
D03*
X697835Y425000D02*
D03*
X870276Y416732D02*
D03*
X1122539Y416043D02*
D03*
X1118209D02*
D03*
X1122539Y420374D02*
D03*
X1118209D02*
D03*
X1096358Y465650D02*
D03*
X1127953Y482579D02*
D03*
X1081594Y455610D02*
D03*
X1094094Y482480D02*
D03*
Y492126D02*
D03*
X1112598Y468307D02*
D03*
X1137736Y462461D02*
D03*
X1162598Y498819D02*
D03*
X1151968D02*
D03*
X1142815Y462402D02*
D03*
X1156594Y449705D02*
D03*
X1132776Y462402D02*
D03*
X1102067Y437894D02*
D03*
X1126968Y443602D02*
D03*
X1114075Y404626D02*
D03*
X1101968Y417126D02*
D03*
X1102067Y422146D02*
D03*
D117*
X535532Y248898D02*
D03*
Y258898D02*
D03*
Y268898D02*
D03*
Y278898D02*
D03*
Y288898D02*
D03*
Y298898D02*
D03*
Y308898D02*
D03*
Y318898D02*
D03*
Y338858D02*
D03*
Y348858D02*
D03*
Y358858D02*
D03*
Y368858D02*
D03*
Y378858D02*
D03*
Y388858D02*
D03*
Y398858D02*
D03*
Y408858D02*
D03*
X345472Y408839D02*
D03*
Y418839D02*
D03*
Y428839D02*
D03*
Y438839D02*
D03*
Y448839D02*
D03*
Y458839D02*
D03*
Y468839D02*
D03*
Y478839D02*
D03*
Y318878D02*
D03*
Y328878D02*
D03*
Y338878D02*
D03*
Y348878D02*
D03*
Y358878D02*
D03*
Y368878D02*
D03*
Y378878D02*
D03*
Y388878D02*
D03*
Y228917D02*
D03*
Y238917D02*
D03*
Y248917D02*
D03*
Y258917D02*
D03*
Y268917D02*
D03*
Y278917D02*
D03*
Y288917D02*
D03*
Y298917D02*
D03*
X535532Y424862D02*
D03*
Y434862D02*
D03*
Y444862D02*
D03*
Y454862D02*
D03*
Y464862D02*
D03*
Y474862D02*
D03*
Y484862D02*
D03*
Y494862D02*
D03*
Y504862D02*
D03*
Y514862D02*
D03*
Y218898D02*
D03*
Y208898D02*
D03*
X525531Y218898D02*
D03*
Y208898D02*
D03*
X515531Y218898D02*
D03*
Y208898D02*
D03*
X505532Y218898D02*
D03*
Y208898D02*
D03*
X495532Y218898D02*
D03*
Y208898D02*
D03*
X485532Y218898D02*
D03*
Y208898D02*
D03*
X475531Y218898D02*
D03*
Y208898D02*
D03*
X465531Y218898D02*
D03*
Y208898D02*
D03*
X455532Y218898D02*
D03*
Y208898D02*
D03*
X445532Y218898D02*
D03*
Y208898D02*
D03*
X435532Y218898D02*
D03*
Y208898D02*
D03*
X425531Y218898D02*
D03*
Y208898D02*
D03*
X415531Y218898D02*
D03*
Y208898D02*
D03*
X405532Y218898D02*
D03*
Y208898D02*
D03*
X395532Y218898D02*
D03*
Y208898D02*
D03*
X385531Y218898D02*
D03*
Y208898D02*
D03*
X375532Y218898D02*
D03*
Y208898D02*
D03*
X365531Y218898D02*
D03*
Y208898D02*
D03*
X915315Y517008D02*
D03*
X905315Y507008D02*
D03*
X895315Y517008D02*
D03*
X915315Y482559D02*
D03*
X905315Y472559D02*
D03*
X895315Y482559D02*
D03*
X915315Y448110D02*
D03*
X905315Y438110D02*
D03*
X895315Y448110D02*
D03*
X915315Y338071D02*
D03*
X905315Y328071D02*
D03*
X895315Y338071D02*
D03*
X915315Y303622D02*
D03*
X905315Y293622D02*
D03*
X895315Y303622D02*
D03*
X915315Y372520D02*
D03*
X905315Y362520D02*
D03*
X895315Y372520D02*
D03*
D118*
X220236Y358701D02*
D03*
X200236D02*
D03*
Y378701D02*
D03*
X220236D02*
D03*
X272973Y528996D02*
D03*
X292973D02*
D03*
Y508996D02*
D03*
X272973D02*
D03*
D119*
X210236Y368701D02*
D03*
X282973Y518996D02*
D03*
D120*
X745079Y263976D02*
D03*
Y274606D02*
D03*
X856496Y505315D02*
D03*
X832874Y347047D02*
D03*
X849409Y346654D02*
D03*
X841142Y312008D02*
D03*
X776575Y500591D02*
D03*
X790748Y508071D02*
D03*
X716732Y296850D02*
D03*
Y292520D02*
D03*
X712402Y296850D02*
D03*
Y292520D02*
D03*
X708071Y296850D02*
D03*
Y292520D02*
D03*
X703740Y296850D02*
D03*
Y292520D02*
D03*
X716732Y445472D02*
D03*
Y441142D02*
D03*
X712402Y445472D02*
D03*
Y441142D02*
D03*
X708071Y445472D02*
D03*
Y441142D02*
D03*
X703740Y445472D02*
D03*
Y441142D02*
D03*
M02*
