%FSAX25Y25*%
%MOIN*%
G70*
G01*
G75*
G04 Layer_Color=16711935*
%ADD10R,0.06693X0.03937*%
%ADD11R,0.03543X0.02756*%
G04:AMPARAMS|DCode=12|XSize=23.62mil|YSize=35.43mil|CornerRadius=5.91mil|HoleSize=0mil|Usage=FLASHONLY|Rotation=270.000|XOffset=0mil|YOffset=0mil|HoleType=Round|Shape=RoundedRectangle|*
%AMROUNDEDRECTD12*
21,1,0.02362,0.02362,0,0,270.0*
21,1,0.01181,0.03543,0,0,270.0*
1,1,0.01181,-0.01181,-0.00591*
1,1,0.01181,-0.01181,0.00591*
1,1,0.01181,0.01181,0.00591*
1,1,0.01181,0.01181,-0.00591*
%
%ADD12ROUNDEDRECTD12*%
%ADD13R,0.02756X0.05118*%
%ADD14R,0.02756X0.03543*%
G04:AMPARAMS|DCode=15|XSize=23.62mil|YSize=43.31mil|CornerRadius=5.91mil|HoleSize=0mil|Usage=FLASHONLY|Rotation=90.000|XOffset=0mil|YOffset=0mil|HoleType=Round|Shape=RoundedRectangle|*
%AMROUNDEDRECTD15*
21,1,0.02362,0.03150,0,0,90.0*
21,1,0.01181,0.04331,0,0,90.0*
1,1,0.01181,0.01575,0.00591*
1,1,0.01181,0.01575,-0.00591*
1,1,0.01181,-0.01575,-0.00591*
1,1,0.01181,-0.01575,0.00591*
%
%ADD15ROUNDEDRECTD15*%
%ADD16R,0.03150X0.03543*%
%ADD17R,0.04134X0.01772*%
%ADD18O,0.04134X0.01772*%
%ADD19R,0.05118X0.02756*%
G04:AMPARAMS|DCode=20|XSize=23.62mil|YSize=35.43mil|CornerRadius=5.91mil|HoleSize=0mil|Usage=FLASHONLY|Rotation=180.000|XOffset=0mil|YOffset=0mil|HoleType=Round|Shape=RoundedRectangle|*
%AMROUNDEDRECTD20*
21,1,0.02362,0.02362,0,0,180.0*
21,1,0.01181,0.03543,0,0,180.0*
1,1,0.01181,-0.00591,0.01181*
1,1,0.01181,0.00591,0.01181*
1,1,0.01181,0.00591,-0.01181*
1,1,0.01181,-0.00591,-0.01181*
%
%ADD20ROUNDEDRECTD20*%
G04:AMPARAMS|DCode=21|XSize=78.74mil|YSize=137.8mil|CornerRadius=19.69mil|HoleSize=0mil|Usage=FLASHONLY|Rotation=0.000|XOffset=0mil|YOffset=0mil|HoleType=Round|Shape=RoundedRectangle|*
%AMROUNDEDRECTD21*
21,1,0.07874,0.09843,0,0,0.0*
21,1,0.03937,0.13780,0,0,0.0*
1,1,0.03937,0.01969,-0.04921*
1,1,0.03937,-0.01969,-0.04921*
1,1,0.03937,-0.01969,0.04921*
1,1,0.03937,0.01969,0.04921*
%
%ADD21ROUNDEDRECTD21*%
%ADD22R,0.03543X0.03150*%
%ADD23C,0.01969*%
%ADD24C,0.01000*%
%ADD25C,0.05906*%
%ADD26C,0.01181*%
%ADD27C,0.01575*%
%ADD28C,0.02953*%
%ADD29C,0.19685*%
%ADD30C,0.39370*%
G04:AMPARAMS|DCode=31|XSize=59.06mil|YSize=59.06mil|CornerRadius=14.76mil|HoleSize=0mil|Usage=FLASHONLY|Rotation=270.000|XOffset=0mil|YOffset=0mil|HoleType=Round|Shape=RoundedRectangle|*
%AMROUNDEDRECTD31*
21,1,0.05906,0.02953,0,0,270.0*
21,1,0.02953,0.05906,0,0,270.0*
1,1,0.02953,-0.01476,-0.01476*
1,1,0.02953,-0.01476,0.01476*
1,1,0.02953,0.01476,0.01476*
1,1,0.02953,0.01476,-0.01476*
%
%ADD31ROUNDEDRECTD31*%
G04:AMPARAMS|DCode=32|XSize=59.06mil|YSize=59.06mil|CornerRadius=0mil|HoleSize=0mil|Usage=FLASHONLY|Rotation=270.000|XOffset=0mil|YOffset=0mil|HoleType=Round|Shape=Octagon|*
%AMOCTAGOND32*
4,1,8,-0.01476,-0.02953,0.01476,-0.02953,0.02953,-0.01476,0.02953,0.01476,0.01476,0.02953,-0.01476,0.02953,-0.02953,0.01476,-0.02953,-0.01476,-0.01476,-0.02953,0.0*
%
%ADD32OCTAGOND32*%

%ADD33C,0.05906*%
%ADD34C,0.03583*%
%ADD35C,0.00984*%
%ADD36C,0.00500*%
%ADD37C,0.00394*%
%ADD38C,0.00600*%
%ADD39C,0.00787*%
G04:AMPARAMS|DCode=40|XSize=127.95mil|YSize=107.87mil|CornerRadius=26.97mil|HoleSize=0mil|Usage=FLASHONLY|Rotation=90.000|XOffset=0mil|YOffset=0mil|HoleType=Round|Shape=RoundedRectangle|*
%AMROUNDEDRECTD40*
21,1,0.12795,0.05394,0,0,90.0*
21,1,0.07402,0.10787,0,0,90.0*
1,1,0.05394,0.02697,0.03701*
1,1,0.05394,0.02697,-0.03701*
1,1,0.05394,-0.02697,-0.03701*
1,1,0.05394,-0.02697,0.03701*
%
%ADD40ROUNDEDRECTD40*%
%ADD41R,0.07493X0.04737*%
%ADD42R,0.04343X0.03556*%
G04:AMPARAMS|DCode=43|XSize=31.62mil|YSize=43.43mil|CornerRadius=9.91mil|HoleSize=0mil|Usage=FLASHONLY|Rotation=270.000|XOffset=0mil|YOffset=0mil|HoleType=Round|Shape=RoundedRectangle|*
%AMROUNDEDRECTD43*
21,1,0.03162,0.02362,0,0,270.0*
21,1,0.01181,0.04343,0,0,270.0*
1,1,0.01981,-0.01181,-0.00591*
1,1,0.01981,-0.01181,0.00591*
1,1,0.01981,0.01181,0.00591*
1,1,0.01981,0.01181,-0.00591*
%
%ADD43ROUNDEDRECTD43*%
%ADD44R,0.03556X0.05918*%
%ADD45R,0.03556X0.04343*%
G04:AMPARAMS|DCode=46|XSize=31.62mil|YSize=51.31mil|CornerRadius=9.91mil|HoleSize=0mil|Usage=FLASHONLY|Rotation=90.000|XOffset=0mil|YOffset=0mil|HoleType=Round|Shape=RoundedRectangle|*
%AMROUNDEDRECTD46*
21,1,0.03162,0.03150,0,0,90.0*
21,1,0.01181,0.05131,0,0,90.0*
1,1,0.01981,0.01575,0.00591*
1,1,0.01981,0.01575,-0.00591*
1,1,0.01981,-0.01575,-0.00591*
1,1,0.01981,-0.01575,0.00591*
%
%ADD46ROUNDEDRECTD46*%
%ADD47R,0.03950X0.04343*%
%ADD48R,0.04934X0.02572*%
%ADD49O,0.04934X0.02572*%
%ADD50R,0.05918X0.03556*%
G04:AMPARAMS|DCode=51|XSize=31.62mil|YSize=43.43mil|CornerRadius=9.91mil|HoleSize=0mil|Usage=FLASHONLY|Rotation=180.000|XOffset=0mil|YOffset=0mil|HoleType=Round|Shape=RoundedRectangle|*
%AMROUNDEDRECTD51*
21,1,0.03162,0.02362,0,0,180.0*
21,1,0.01181,0.04343,0,0,180.0*
1,1,0.01981,-0.00591,0.01181*
1,1,0.01981,0.00591,0.01181*
1,1,0.01981,0.00591,-0.01181*
1,1,0.01981,-0.00591,-0.01181*
%
%ADD51ROUNDEDRECTD51*%
G04:AMPARAMS|DCode=52|XSize=86.74mil|YSize=145.79mil|CornerRadius=23.69mil|HoleSize=0mil|Usage=FLASHONLY|Rotation=0.000|XOffset=0mil|YOffset=0mil|HoleType=Round|Shape=RoundedRectangle|*
%AMROUNDEDRECTD52*
21,1,0.08674,0.09843,0,0,0.0*
21,1,0.03937,0.14579,0,0,0.0*
1,1,0.04737,0.01969,-0.04921*
1,1,0.04737,-0.01969,-0.04921*
1,1,0.04737,-0.01969,0.04921*
1,1,0.04737,0.01969,0.04921*
%
%ADD52ROUNDEDRECTD52*%
%ADD53R,0.04343X0.03950*%
%ADD54C,0.20485*%
%ADD55C,0.40170*%
G04:AMPARAMS|DCode=56|XSize=67.06mil|YSize=67.06mil|CornerRadius=18.76mil|HoleSize=0mil|Usage=FLASHONLY|Rotation=270.000|XOffset=0mil|YOffset=0mil|HoleType=Round|Shape=RoundedRectangle|*
%AMROUNDEDRECTD56*
21,1,0.06706,0.02953,0,0,270.0*
21,1,0.02953,0.06706,0,0,270.0*
1,1,0.03753,-0.01476,-0.01476*
1,1,0.03753,-0.01476,0.01476*
1,1,0.03753,0.01476,0.01476*
1,1,0.03753,0.01476,-0.01476*
%
%ADD56ROUNDEDRECTD56*%
G04:AMPARAMS|DCode=57|XSize=67.06mil|YSize=67.06mil|CornerRadius=0mil|HoleSize=0mil|Usage=FLASHONLY|Rotation=270.000|XOffset=0mil|YOffset=0mil|HoleType=Round|Shape=Octagon|*
%AMOCTAGOND57*
4,1,8,-0.01676,-0.03353,0.01676,-0.03353,0.03353,-0.01676,0.03353,0.01676,0.01676,0.03353,-0.01676,0.03353,-0.03353,0.01676,-0.03353,-0.01676,-0.01676,-0.03353,0.0*
%
%ADD57OCTAGOND57*%

%ADD58C,0.06706*%
%ADD59C,0.04383*%
%ADD60C,0.07874*%
D37*
X0478130Y0209154D02*
X0481870D01*
X0478130Y0215846D02*
X0481870D01*
X0478130Y0209154D02*
Y0215846D01*
X0481870Y0209154D02*
Y0215846D01*
X0486398Y0213543D02*
X0498602D01*
X0486398Y0206457D02*
X0498602D01*
Y0213543D01*
X0486398Y0206457D02*
Y0213543D01*
X0426653Y0375630D02*
Y0379370D01*
X0433347Y0375630D02*
Y0379370D01*
X0426653D02*
X0433347D01*
X0426653Y0375630D02*
X0433347D01*
X0433347Y0350630D02*
Y0354370D01*
X0426653Y0350630D02*
Y0354370D01*
Y0350630D02*
X0433347D01*
X0426653Y0354370D02*
X0433347D01*
X0426555Y0158130D02*
X0433445D01*
X0426555Y0161870D02*
X0433445D01*
Y0158130D02*
Y0161870D01*
X0426555Y0158130D02*
Y0161870D01*
X0526457Y0391398D02*
X0533543D01*
X0526457Y0403602D02*
X0533543D01*
Y0391398D02*
Y0403602D01*
X0526457Y0391398D02*
Y0403602D01*
X0509055Y0379370D02*
X0515945D01*
X0509055Y0375630D02*
X0515945D01*
X0509055D02*
Y0379370D01*
X0515945Y0375630D02*
Y0379370D01*
X0523130Y0359154D02*
Y0365846D01*
X0526870Y0359154D02*
Y0365846D01*
X0523130Y0359154D02*
X0526870D01*
X0523130Y0365846D02*
X0526870D01*
X0478130Y0439153D02*
X0481870D01*
X0478130Y0445847D02*
X0481870D01*
X0478130Y0439153D02*
Y0445847D01*
X0481870Y0439153D02*
Y0445847D01*
X0486398Y0436457D02*
Y0443543D01*
X0498602Y0436457D02*
Y0443543D01*
X0486398Y0436457D02*
X0498602D01*
X0486398Y0443543D02*
X0498602D01*
X0426555Y0500630D02*
X0433445D01*
X0426555Y0504370D02*
X0433445D01*
Y0500630D02*
Y0504370D01*
X0426555Y0500630D02*
Y0504370D01*
X0426653Y0258130D02*
Y0261870D01*
X0433347Y0258130D02*
Y0261870D01*
X0426653D02*
X0433347D01*
X0426653Y0258130D02*
X0433347D01*
X0433347Y0233130D02*
Y0236870D01*
X0426653Y0233130D02*
Y0236870D01*
Y0233130D02*
X0433347D01*
X0426653Y0236870D02*
X0433347D01*
X0426555Y0475630D02*
X0433445D01*
X0426555Y0479370D02*
X0433445D01*
Y0475630D02*
Y0479370D01*
X0426555Y0475630D02*
Y0479370D01*
X0463130Y0245654D02*
X0466870D01*
X0463130Y0252346D02*
X0466870D01*
X0463130Y0245654D02*
Y0252346D01*
X0466870Y0245654D02*
Y0252346D01*
X0519370Y0241653D02*
Y0248346D01*
X0515630Y0241653D02*
Y0248346D01*
X0519370D01*
X0515630Y0241653D02*
X0519370D01*
X0508130Y0239154D02*
X0511870D01*
X0508130Y0245847D02*
X0511870D01*
X0508130Y0239154D02*
Y0245847D01*
X0511870Y0239154D02*
Y0245847D01*
X0523130Y0241653D02*
Y0248346D01*
X0526870Y0241653D02*
Y0248346D01*
X0523130Y0241653D02*
X0526870D01*
X0523130Y0248346D02*
X0526870D01*
X0509055Y0261870D02*
X0515945D01*
X0509055Y0258130D02*
X0515945D01*
X0509055D02*
Y0261870D01*
X0515945Y0258130D02*
Y0261870D01*
X0526457Y0273898D02*
Y0286102D01*
X0533543Y0273898D02*
Y0286102D01*
X0526457D02*
X0533543D01*
X0526457Y0273898D02*
X0533543D01*
X0478130Y0321654D02*
X0481870D01*
X0478130Y0328346D02*
X0481870D01*
X0478130Y0321654D02*
Y0328346D01*
X0481870Y0321654D02*
Y0328346D01*
X0486398Y0326043D02*
X0498602D01*
X0486398Y0318957D02*
X0498602D01*
Y0326043D01*
X0486398Y0318957D02*
Y0326043D01*
X0508130Y0469153D02*
X0511870D01*
X0508130Y0475846D02*
X0511870D01*
X0508130Y0469153D02*
Y0475846D01*
X0511870Y0469153D02*
Y0475846D01*
X0515630Y0471654D02*
X0519370D01*
X0515630Y0478346D02*
X0519370D01*
X0515630Y0471654D02*
Y0478346D01*
X0519370Y0471654D02*
Y0478346D01*
X0523130Y0471654D02*
Y0478346D01*
X0526870Y0471654D02*
Y0478346D01*
X0523130Y0471654D02*
X0526870D01*
X0523130Y0478346D02*
X0526870D01*
X0535847Y0495630D02*
Y0499370D01*
X0529153Y0495630D02*
Y0499370D01*
Y0495630D02*
X0535847D01*
X0529153Y0499370D02*
X0535847D01*
X0526457Y0503898D02*
Y0516102D01*
X0533543Y0503898D02*
Y0516102D01*
X0526457D02*
X0533543D01*
X0526457Y0503898D02*
X0533543D01*
X0509055Y0491870D02*
X0515945D01*
X0509055Y0488130D02*
X0515945D01*
X0509055D02*
Y0491870D01*
X0515945Y0488130D02*
Y0491870D01*
X0463130Y0476154D02*
X0466870D01*
X0463130Y0482846D02*
X0466870D01*
X0463130Y0476154D02*
Y0482846D01*
X0466870Y0476154D02*
Y0482846D01*
X0474370Y0476055D02*
Y0482945D01*
X0470630Y0476055D02*
Y0482945D01*
X0474370D01*
X0470630Y0476055D02*
X0474370D01*
X0433228Y0463201D02*
Y0466941D01*
X0426535Y0463201D02*
Y0466941D01*
Y0463201D02*
X0433228D01*
X0426535Y0466941D02*
X0433228D01*
X0426653Y0488130D02*
Y0491870D01*
X0433347Y0488130D02*
Y0491870D01*
X0426653D02*
X0433347D01*
X0426653Y0488130D02*
X0433347D01*
X0426555Y0388130D02*
X0433445D01*
X0426555Y0391870D02*
X0433445D01*
Y0388130D02*
Y0391870D01*
X0426555Y0388130D02*
Y0391870D01*
Y0363130D02*
X0433445D01*
X0426555Y0366870D02*
X0433445D01*
Y0363130D02*
Y0366870D01*
X0426555Y0363130D02*
Y0366870D01*
X0478130Y0551653D02*
X0481870D01*
X0478130Y0558347D02*
X0481870D01*
X0478130Y0551653D02*
Y0558347D01*
X0481870Y0551653D02*
Y0558347D01*
X0486398Y0556043D02*
X0498602D01*
X0486398Y0548957D02*
X0498602D01*
Y0556043D01*
X0486398Y0548957D02*
Y0556043D01*
X0463130Y0363154D02*
X0466870D01*
X0463130Y0369847D02*
X0466870D01*
X0463130Y0363154D02*
Y0369847D01*
X0466870Y0363154D02*
Y0369847D01*
X0515630Y0359154D02*
X0519370D01*
X0515630Y0365846D02*
X0519370D01*
X0515630Y0359154D02*
Y0365846D01*
X0519370Y0359154D02*
Y0365846D01*
X0508130Y0356653D02*
X0511870D01*
X0508130Y0363347D02*
X0511870D01*
X0508130Y0356653D02*
Y0363347D01*
X0511870Y0356653D02*
Y0363347D01*
X0426555Y0133130D02*
X0433445D01*
X0426555Y0136870D02*
X0433445D01*
Y0133130D02*
Y0136870D01*
X0426555Y0133130D02*
Y0136870D01*
X0526457Y0161898D02*
Y0174102D01*
X0533543Y0161898D02*
Y0174102D01*
X0526457D02*
X0533543D01*
X0526457Y0161898D02*
X0533543D01*
X0535847Y0153130D02*
Y0156870D01*
X0529153Y0153130D02*
Y0156870D01*
Y0153130D02*
X0535847D01*
X0529153Y0156870D02*
X0535847D01*
X0523130Y0129154D02*
Y0135846D01*
X0526870Y0129154D02*
Y0135846D01*
X0523130Y0129154D02*
X0526870D01*
X0523130Y0135846D02*
X0526870D01*
X0508130Y0126654D02*
X0511870D01*
X0508130Y0133346D02*
X0511870D01*
X0508130Y0126654D02*
Y0133346D01*
X0511870Y0126654D02*
Y0133346D01*
X0515630Y0129154D02*
X0519370D01*
X0515630Y0135846D02*
X0519370D01*
X0515630Y0129154D02*
Y0135846D01*
X0519370Y0129154D02*
Y0135846D01*
X0509055Y0149370D02*
X0515945D01*
X0509055Y0145630D02*
X0515945D01*
X0509055D02*
Y0149370D01*
X0515945Y0145630D02*
Y0149370D01*
X0426555Y0249370D02*
X0433445D01*
X0426555Y0245630D02*
X0433445D01*
X0426555D02*
Y0249370D01*
X0433445Y0245630D02*
Y0249370D01*
X0433347Y0120630D02*
Y0124370D01*
X0426653Y0120630D02*
Y0124370D01*
Y0120630D02*
X0433347D01*
X0426653Y0124370D02*
X0433347D01*
X0426653Y0145630D02*
Y0149370D01*
X0433347Y0145630D02*
Y0149370D01*
X0426653D02*
X0433347D01*
X0426653Y0145630D02*
X0433347D01*
X0426555Y0274370D02*
X0433445D01*
X0426555Y0270630D02*
X0433445D01*
X0426555D02*
Y0274370D01*
X0433445Y0270630D02*
Y0274370D01*
X0463130Y0133153D02*
X0466870D01*
X0463130Y0139847D02*
X0466870D01*
X0463130Y0133153D02*
Y0139847D01*
X0466870Y0133153D02*
Y0139847D01*
X0396555Y0505630D02*
X0403445D01*
X0396555Y0509370D02*
X0403445D01*
Y0505630D02*
Y0509370D01*
X0396555Y0505630D02*
Y0509370D01*
X0358130Y0519153D02*
Y0525846D01*
X0361870Y0519153D02*
Y0525846D01*
X0358130Y0519153D02*
X0361870D01*
X0358130Y0525846D02*
X0361870D01*
X0396555Y0393130D02*
X0403445D01*
X0396555Y0396870D02*
X0403445D01*
Y0393130D02*
Y0396870D01*
X0396555Y0393130D02*
Y0396870D01*
X0358130Y0406653D02*
Y0413346D01*
X0361870Y0406653D02*
Y0413346D01*
X0358130Y0406653D02*
X0361870D01*
X0358130Y0413346D02*
X0361870D01*
X0358130Y0289154D02*
Y0295847D01*
X0361870Y0289154D02*
Y0295847D01*
X0358130Y0289154D02*
X0361870D01*
X0358130Y0295847D02*
X0361870D01*
X0358130Y0176654D02*
Y0183346D01*
X0361870Y0176654D02*
Y0183346D01*
X0358130Y0176654D02*
X0361870D01*
X0358130Y0183346D02*
X0361870D01*
X0396555Y0275630D02*
X0403445D01*
X0396555Y0279370D02*
X0403445D01*
Y0275630D02*
Y0279370D01*
X0396555Y0275630D02*
Y0279370D01*
Y0163130D02*
X0403445D01*
X0396555Y0166870D02*
X0403445D01*
Y0163130D02*
Y0166870D01*
X0396555Y0163130D02*
Y0166870D01*
X0529153Y0386870D02*
X0535847D01*
X0529153Y0383130D02*
X0535847D01*
X0529153D02*
Y0386870D01*
X0535847Y0383130D02*
Y0386870D01*
X0536299Y0265630D02*
Y0269370D01*
X0529606Y0265630D02*
Y0269370D01*
Y0265630D02*
X0536299D01*
X0529606Y0269370D02*
X0536299D01*
M02*
