%FSAX25Y25*%
%MOIN*%
G70*
G01*
G75*
G04 Layer_Color=32768*
%ADD10R,0.05118X0.03937*%
G04:AMPARAMS|DCode=11|XSize=23.62mil|YSize=35.43mil|CornerRadius=5.91mil|HoleSize=0mil|Usage=FLASHONLY|Rotation=270.000|XOffset=0mil|YOffset=0mil|HoleType=Round|Shape=RoundedRectangle|*
%AMROUNDEDRECTD11*
21,1,0.02362,0.02362,0,0,270.0*
21,1,0.01181,0.03543,0,0,270.0*
1,1,0.01181,-0.01181,-0.00591*
1,1,0.01181,-0.01181,0.00591*
1,1,0.01181,0.01181,0.00591*
1,1,0.01181,0.01181,-0.00591*
%
%ADD11ROUNDEDRECTD11*%
%ADD12R,0.09055X0.09055*%
%ADD13R,0.00984X0.02756*%
%ADD14R,0.17087X0.09606*%
G04:AMPARAMS|DCode=15|XSize=23.62mil|YSize=35.43mil|CornerRadius=5.91mil|HoleSize=0mil|Usage=FLASHONLY|Rotation=0.000|XOffset=0mil|YOffset=0mil|HoleType=Round|Shape=RoundedRectangle|*
%AMROUNDEDRECTD15*
21,1,0.02362,0.02362,0,0,0.0*
21,1,0.01181,0.03543,0,0,0.0*
1,1,0.01181,0.00591,-0.01181*
1,1,0.01181,-0.00591,-0.01181*
1,1,0.01181,-0.00591,0.01181*
1,1,0.01181,0.00591,0.01181*
%
%ADD15ROUNDEDRECTD15*%
%ADD16O,0.02165X0.05709*%
%ADD17O,0.02165X0.05709*%
%ADD18O,0.01181X0.03500*%
%ADD19R,0.11201X0.06500*%
%ADD20R,0.04331X0.06693*%
%ADD21R,0.06693X0.04331*%
%ADD22O,0.01378X0.05315*%
%ADD23R,0.12205X0.11811*%
G04:AMPARAMS|DCode=24|XSize=31.5mil|YSize=86.61mil|CornerRadius=7.87mil|HoleSize=0mil|Usage=FLASHONLY|Rotation=180.000|XOffset=0mil|YOffset=0mil|HoleType=Round|Shape=RoundedRectangle|*
%AMROUNDEDRECTD24*
21,1,0.03150,0.07087,0,0,180.0*
21,1,0.01575,0.08661,0,0,180.0*
1,1,0.01575,-0.00787,0.03543*
1,1,0.01575,0.00787,0.03543*
1,1,0.01575,0.00787,-0.03543*
1,1,0.01575,-0.00787,-0.03543*
%
%ADD24ROUNDEDRECTD24*%
%ADD25R,0.08661X0.24803*%
%ADD26R,0.03543X0.03150*%
%ADD27C,0.01181*%
%ADD28C,0.01260*%
%ADD29C,0.02756*%
%ADD30C,0.01024*%
%ADD31C,0.03150*%
%ADD32C,0.01969*%
%ADD33C,0.03937*%
%ADD34C,0.01102*%
%ADD35C,0.00984*%
%ADD36C,0.00906*%
%ADD37C,0.02362*%
%ADD38C,0.01000*%
%ADD39C,0.01575*%
%ADD40C,0.00866*%
%ADD41C,0.03543*%
%ADD42C,0.01299*%
%ADD43C,0.01063*%
%ADD44C,0.06000*%
%ADD45R,0.05906X0.05906*%
%ADD46C,0.05906*%
%ADD47C,0.23622*%
%ADD48C,0.38976*%
%ADD49C,0.01969*%
%ADD50C,0.01575*%
%ADD51C,0.00394*%
%ADD52C,0.00787*%
%ADD53C,0.00600*%
%ADD54C,0.00669*%
%ADD55R,0.05918X0.04737*%
G04:AMPARAMS|DCode=56|XSize=31.62mil|YSize=43.43mil|CornerRadius=9.91mil|HoleSize=0mil|Usage=FLASHONLY|Rotation=270.000|XOffset=0mil|YOffset=0mil|HoleType=Round|Shape=RoundedRectangle|*
%AMROUNDEDRECTD56*
21,1,0.03162,0.02362,0,0,270.0*
21,1,0.01181,0.04343,0,0,270.0*
1,1,0.01981,-0.01181,-0.00591*
1,1,0.01981,-0.01181,0.00591*
1,1,0.01981,0.01181,0.00591*
1,1,0.01981,0.01181,-0.00591*
%
%ADD56ROUNDEDRECTD56*%
%ADD57R,0.09855X0.09855*%
%ADD58R,0.01784X0.03556*%
%ADD59R,0.17887X0.10406*%
G04:AMPARAMS|DCode=60|XSize=31.62mil|YSize=43.43mil|CornerRadius=9.91mil|HoleSize=0mil|Usage=FLASHONLY|Rotation=0.000|XOffset=0mil|YOffset=0mil|HoleType=Round|Shape=RoundedRectangle|*
%AMROUNDEDRECTD60*
21,1,0.03162,0.02362,0,0,0.0*
21,1,0.01181,0.04343,0,0,0.0*
1,1,0.01981,0.00591,-0.01181*
1,1,0.01981,-0.00591,-0.01181*
1,1,0.01981,-0.00591,0.01181*
1,1,0.01981,0.00591,0.01181*
%
%ADD60ROUNDEDRECTD60*%
%ADD61O,0.02965X0.06509*%
%ADD62O,0.02965X0.06509*%
%ADD63O,0.01981X0.04300*%
%ADD64R,0.12001X0.07300*%
%ADD65R,0.05131X0.07493*%
%ADD66R,0.07493X0.05131*%
%ADD67O,0.02178X0.06115*%
%ADD68R,0.13005X0.12611*%
G04:AMPARAMS|DCode=69|XSize=39.5mil|YSize=94.61mil|CornerRadius=11.87mil|HoleSize=0mil|Usage=FLASHONLY|Rotation=180.000|XOffset=0mil|YOffset=0mil|HoleType=Round|Shape=RoundedRectangle|*
%AMROUNDEDRECTD69*
21,1,0.03950,0.07087,0,0,180.0*
21,1,0.01575,0.09461,0,0,180.0*
1,1,0.02375,-0.00787,0.03543*
1,1,0.02375,0.00787,0.03543*
1,1,0.02375,0.00787,-0.03543*
1,1,0.02375,-0.00787,-0.03543*
%
%ADD69ROUNDEDRECTD69*%
%ADD70R,0.09461X0.25603*%
%ADD71R,0.04343X0.03950*%
%ADD72C,0.06800*%
%ADD73R,0.06706X0.06706*%
%ADD74C,0.06706*%
%ADD75C,0.24422*%
%ADD76C,0.39776*%
%ADD77C,0.02769*%
%ADD78C,0.02375*%
%ADD79C,0.05512*%
%ADD80C,0.00197*%
D51*
X0197000Y0254032D02*
Y0257969D01*
X0195032Y0256000D02*
X0198969D01*
X0327811Y0177760D02*
Y0185240D01*
X0312063Y0177760D02*
Y0185240D01*
Y0177760D02*
X0327811D01*
X0312063Y0185240D02*
X0327811D01*
X0317968Y0181500D02*
X0321905D01*
X0319937Y0179531D02*
Y0183469D01*
X0308260Y0287374D02*
X0315740D01*
X0308260Y0271626D02*
X0315740D01*
Y0287374D01*
X0308260Y0271626D02*
Y0287374D01*
X0312000Y0277532D02*
Y0281469D01*
X0310032Y0279500D02*
X0313969D01*
X0319032Y0247063D02*
X0322969D01*
X0321000Y0245094D02*
Y0249031D01*
X0320937Y0203032D02*
Y0206969D01*
X0318968Y0205000D02*
X0322905D01*
X0305976Y0192008D02*
X0335898D01*
X0305976Y0217992D02*
X0335898D01*
Y0192008D02*
Y0217992D01*
X0305976Y0192008D02*
Y0217992D01*
X0227260Y0226126D02*
X0234740D01*
X0227260Y0241874D02*
X0234740D01*
X0227260Y0226126D02*
Y0241874D01*
X0234740Y0226126D02*
Y0241874D01*
X0231000Y0232032D02*
Y0235969D01*
X0229031Y0234000D02*
X0232969D01*
X0327567Y0279500D02*
X0331307D01*
X0329437Y0277630D02*
Y0281370D01*
X0331602Y0274776D02*
Y0284224D01*
X0327272Y0274776D02*
Y0284224D01*
X0331602D01*
X0327272Y0274776D02*
X0331602D01*
D80*
X0186567Y0246748D02*
X0207433D01*
X0186567Y0265252D02*
X0207433D01*
X0186567Y0246748D02*
Y0265252D01*
X0207433Y0246748D02*
Y0265252D01*
X0310567Y0232890D02*
Y0261236D01*
X0331433Y0232890D02*
Y0261236D01*
X0310567Y0232890D02*
X0331433D01*
X0310567Y0261236D02*
X0331433D01*
M02*
