%FSAX25Y25*%
%MOIN*%
G70*
G01*
G75*
G04 Layer_Color=8388736*
%ADD10R,0.05118X0.03937*%
G04:AMPARAMS|DCode=11|XSize=23.62mil|YSize=35.43mil|CornerRadius=5.91mil|HoleSize=0mil|Usage=FLASHONLY|Rotation=270.000|XOffset=0mil|YOffset=0mil|HoleType=Round|Shape=RoundedRectangle|*
%AMROUNDEDRECTD11*
21,1,0.02362,0.02362,0,0,270.0*
21,1,0.01181,0.03543,0,0,270.0*
1,1,0.01181,-0.01181,-0.00591*
1,1,0.01181,-0.01181,0.00591*
1,1,0.01181,0.01181,0.00591*
1,1,0.01181,0.01181,-0.00591*
%
%ADD11ROUNDEDRECTD11*%
%ADD12R,0.09055X0.09055*%
%ADD13R,0.00984X0.02756*%
%ADD14R,0.17087X0.09606*%
G04:AMPARAMS|DCode=15|XSize=23.62mil|YSize=35.43mil|CornerRadius=5.91mil|HoleSize=0mil|Usage=FLASHONLY|Rotation=0.000|XOffset=0mil|YOffset=0mil|HoleType=Round|Shape=RoundedRectangle|*
%AMROUNDEDRECTD15*
21,1,0.02362,0.02362,0,0,0.0*
21,1,0.01181,0.03543,0,0,0.0*
1,1,0.01181,0.00591,-0.01181*
1,1,0.01181,-0.00591,-0.01181*
1,1,0.01181,-0.00591,0.01181*
1,1,0.01181,0.00591,0.01181*
%
%ADD15ROUNDEDRECTD15*%
%ADD16O,0.02165X0.05709*%
%ADD17O,0.02165X0.05709*%
%ADD18O,0.01181X0.03500*%
%ADD19R,0.11201X0.06500*%
%ADD20R,0.04331X0.06693*%
%ADD21R,0.06693X0.04331*%
%ADD22O,0.01378X0.05315*%
%ADD23R,0.12205X0.11811*%
G04:AMPARAMS|DCode=24|XSize=31.5mil|YSize=86.61mil|CornerRadius=7.87mil|HoleSize=0mil|Usage=FLASHONLY|Rotation=180.000|XOffset=0mil|YOffset=0mil|HoleType=Round|Shape=RoundedRectangle|*
%AMROUNDEDRECTD24*
21,1,0.03150,0.07087,0,0,180.0*
21,1,0.01575,0.08661,0,0,180.0*
1,1,0.01575,-0.00787,0.03543*
1,1,0.01575,0.00787,0.03543*
1,1,0.01575,0.00787,-0.03543*
1,1,0.01575,-0.00787,-0.03543*
%
%ADD24ROUNDEDRECTD24*%
%ADD25R,0.08661X0.24803*%
%ADD26R,0.03543X0.03150*%
%ADD27C,0.01181*%
%ADD28C,0.01260*%
%ADD29C,0.02756*%
%ADD30C,0.01024*%
%ADD31C,0.03150*%
%ADD32C,0.01969*%
%ADD33C,0.03937*%
%ADD34C,0.01102*%
%ADD35C,0.00984*%
%ADD36C,0.00906*%
%ADD37C,0.02362*%
%ADD38C,0.01000*%
%ADD39C,0.01575*%
%ADD40C,0.00866*%
%ADD41C,0.03543*%
%ADD42C,0.01299*%
%ADD43C,0.01063*%
%ADD44C,0.06000*%
%ADD45R,0.05906X0.05906*%
%ADD46C,0.05906*%
%ADD47C,0.23622*%
%ADD48C,0.38976*%
%ADD49C,0.01969*%
%ADD50C,0.01575*%
%ADD51C,0.00394*%
%ADD52C,0.00787*%
%ADD53C,0.00600*%
%ADD54C,0.00669*%
%ADD55R,0.05918X0.04737*%
G04:AMPARAMS|DCode=56|XSize=31.62mil|YSize=43.43mil|CornerRadius=9.91mil|HoleSize=0mil|Usage=FLASHONLY|Rotation=270.000|XOffset=0mil|YOffset=0mil|HoleType=Round|Shape=RoundedRectangle|*
%AMROUNDEDRECTD56*
21,1,0.03162,0.02362,0,0,270.0*
21,1,0.01181,0.04343,0,0,270.0*
1,1,0.01981,-0.01181,-0.00591*
1,1,0.01981,-0.01181,0.00591*
1,1,0.01981,0.01181,0.00591*
1,1,0.01981,0.01181,-0.00591*
%
%ADD56ROUNDEDRECTD56*%
%ADD57R,0.09855X0.09855*%
%ADD58R,0.01784X0.03556*%
%ADD59R,0.17887X0.10406*%
G04:AMPARAMS|DCode=60|XSize=31.62mil|YSize=43.43mil|CornerRadius=9.91mil|HoleSize=0mil|Usage=FLASHONLY|Rotation=0.000|XOffset=0mil|YOffset=0mil|HoleType=Round|Shape=RoundedRectangle|*
%AMROUNDEDRECTD60*
21,1,0.03162,0.02362,0,0,0.0*
21,1,0.01181,0.04343,0,0,0.0*
1,1,0.01981,0.00591,-0.01181*
1,1,0.01981,-0.00591,-0.01181*
1,1,0.01981,-0.00591,0.01181*
1,1,0.01981,0.00591,0.01181*
%
%ADD60ROUNDEDRECTD60*%
%ADD61O,0.02965X0.06509*%
%ADD62O,0.02965X0.06509*%
%ADD63O,0.01981X0.04300*%
%ADD64R,0.12001X0.07300*%
%ADD65R,0.05131X0.07493*%
%ADD66R,0.07493X0.05131*%
%ADD67O,0.02178X0.06115*%
%ADD68R,0.13005X0.12611*%
G04:AMPARAMS|DCode=69|XSize=39.5mil|YSize=94.61mil|CornerRadius=11.87mil|HoleSize=0mil|Usage=FLASHONLY|Rotation=180.000|XOffset=0mil|YOffset=0mil|HoleType=Round|Shape=RoundedRectangle|*
%AMROUNDEDRECTD69*
21,1,0.03950,0.07087,0,0,180.0*
21,1,0.01575,0.09461,0,0,180.0*
1,1,0.02375,-0.00787,0.03543*
1,1,0.02375,0.00787,0.03543*
1,1,0.02375,0.00787,-0.03543*
1,1,0.02375,-0.00787,-0.03543*
%
%ADD69ROUNDEDRECTD69*%
%ADD70R,0.09461X0.25603*%
%ADD71R,0.04343X0.03950*%
%ADD72C,0.06800*%
%ADD73R,0.06706X0.06706*%
%ADD74C,0.06706*%
%ADD75C,0.24422*%
%ADD76C,0.39776*%
%ADD77C,0.02769*%
%ADD78C,0.02375*%
D55*
X0397900Y0416732D02*
D03*
Y0425787D02*
D03*
X0381400Y0416732D02*
D03*
Y0425787D02*
D03*
X0283900Y0416732D02*
D03*
Y0425787D02*
D03*
X0268000Y0416732D02*
D03*
Y0425787D02*
D03*
X0180700Y0412795D02*
D03*
Y0421850D02*
D03*
X0165700Y0412795D02*
D03*
Y0421850D02*
D03*
D56*
X0427900Y0354533D02*
D03*
Y0358667D02*
D03*
X0312400Y0353533D02*
D03*
Y0357667D02*
D03*
X0203869Y0352533D02*
D03*
Y0356667D02*
D03*
X0222968Y0233453D02*
D03*
Y0227547D02*
D03*
X0224968Y0215453D02*
D03*
Y0209547D02*
D03*
X0211968Y0206047D02*
D03*
Y0211953D02*
D03*
X0246468Y0216047D02*
D03*
Y0221953D02*
D03*
X0237968Y0206547D02*
D03*
Y0212453D02*
D03*
X0177468Y0231953D02*
D03*
Y0226047D02*
D03*
X0161000Y0199953D02*
D03*
Y0194047D02*
D03*
X0187968Y0206547D02*
D03*
Y0212453D02*
D03*
X0160400Y0364147D02*
D03*
Y0370053D02*
D03*
X0375900Y0358647D02*
D03*
Y0364553D02*
D03*
X0406900Y0365647D02*
D03*
Y0371553D02*
D03*
X0421400Y0401553D02*
D03*
Y0395647D02*
D03*
X0410900Y0401553D02*
D03*
Y0395647D02*
D03*
X0374900Y0401620D02*
D03*
Y0395714D02*
D03*
X0364900Y0401553D02*
D03*
Y0395647D02*
D03*
X0400400Y0371553D02*
D03*
Y0365647D02*
D03*
X0387400D02*
D03*
Y0371553D02*
D03*
X0416400Y0401553D02*
D03*
Y0395647D02*
D03*
X0369900Y0401553D02*
D03*
Y0395647D02*
D03*
X0393900Y0365647D02*
D03*
Y0371553D02*
D03*
X0378900Y0383553D02*
D03*
Y0377647D02*
D03*
X0265431Y0360647D02*
D03*
Y0366553D02*
D03*
X0288900Y0364147D02*
D03*
Y0370053D02*
D03*
X0304900Y0401053D02*
D03*
Y0395147D02*
D03*
X0292900Y0401053D02*
D03*
Y0395147D02*
D03*
X0262400Y0401506D02*
D03*
Y0395600D02*
D03*
X0251900Y0401506D02*
D03*
Y0395600D02*
D03*
X0295900Y0370053D02*
D03*
Y0364147D02*
D03*
X0274400D02*
D03*
Y0370053D02*
D03*
X0298900Y0401053D02*
D03*
Y0395147D02*
D03*
X0257400Y0401506D02*
D03*
Y0395600D02*
D03*
X0281900Y0364147D02*
D03*
Y0370053D02*
D03*
X0263900Y0381553D02*
D03*
Y0375647D02*
D03*
X0183368Y0366647D02*
D03*
Y0372553D02*
D03*
X0201868Y0400053D02*
D03*
Y0394147D02*
D03*
X0189869Y0400100D02*
D03*
Y0394194D02*
D03*
X0154868Y0400053D02*
D03*
Y0394147D02*
D03*
X0144368Y0400053D02*
D03*
Y0394147D02*
D03*
X0195868Y0400053D02*
D03*
Y0394147D02*
D03*
X0149868Y0400053D02*
D03*
Y0394147D02*
D03*
X0176368Y0366647D02*
D03*
Y0372553D02*
D03*
X0159369Y0384100D02*
D03*
Y0378194D02*
D03*
X0169368Y0366647D02*
D03*
Y0372553D02*
D03*
X0189868D02*
D03*
Y0366647D02*
D03*
X0360437Y0231933D02*
D03*
Y0236067D02*
D03*
D57*
X0224900Y0332958D02*
D03*
Y0315242D02*
D03*
X0299900D02*
D03*
Y0332958D02*
D03*
X0383900Y0315242D02*
D03*
Y0332958D02*
D03*
D58*
X0190110Y0248520D02*
D03*
X0192079D02*
D03*
X0194047D02*
D03*
X0196016D02*
D03*
X0197984D02*
D03*
X0199953D02*
D03*
X0201921D02*
D03*
X0203890D02*
D03*
X0190110Y0263480D02*
D03*
X0192079D02*
D03*
X0194047D02*
D03*
X0196016D02*
D03*
X0197984D02*
D03*
X0199953D02*
D03*
X0201921D02*
D03*
X0203890D02*
D03*
D59*
X0197000Y0256000D02*
D03*
D60*
X0187421Y0280000D02*
D03*
X0181516D02*
D03*
X0210421D02*
D03*
X0204516D02*
D03*
X0203016Y0222000D02*
D03*
X0208921D02*
D03*
X0160421Y0242500D02*
D03*
X0154516D02*
D03*
X0168016Y0257000D02*
D03*
X0173921D02*
D03*
D61*
X0350400Y0419368D02*
D03*
X0346660Y0427832D02*
D03*
X0238900Y0416368D02*
D03*
X0235160Y0424832D02*
D03*
X0134128Y0420332D02*
D03*
X0137869Y0411868D02*
D03*
D62*
X0354140Y0427832D02*
D03*
X0242640Y0424832D02*
D03*
X0141609Y0420332D02*
D03*
D63*
X0388916Y0390305D02*
D03*
X0386947D02*
D03*
X0384979D02*
D03*
X0383010D02*
D03*
X0390884D02*
D03*
X0392853D02*
D03*
X0394821D02*
D03*
X0396790D02*
D03*
Y0406895D02*
D03*
X0394821D02*
D03*
X0392853D02*
D03*
X0390884D02*
D03*
X0383010D02*
D03*
X0384979D02*
D03*
X0386947D02*
D03*
X0388916D02*
D03*
X0275916Y0389805D02*
D03*
X0273947D02*
D03*
X0271979D02*
D03*
X0270010D02*
D03*
X0277884D02*
D03*
X0279853D02*
D03*
X0281821D02*
D03*
X0283790D02*
D03*
Y0406395D02*
D03*
X0281821D02*
D03*
X0279853D02*
D03*
X0277884D02*
D03*
X0270010D02*
D03*
X0271979D02*
D03*
X0273947D02*
D03*
X0275916D02*
D03*
X0172884Y0388305D02*
D03*
X0170916D02*
D03*
X0168947D02*
D03*
X0166979D02*
D03*
X0174853D02*
D03*
X0176821D02*
D03*
X0178790D02*
D03*
X0180758D02*
D03*
Y0404895D02*
D03*
X0178790D02*
D03*
X0176821D02*
D03*
X0174853D02*
D03*
X0166979D02*
D03*
X0168947D02*
D03*
X0170916D02*
D03*
X0172884D02*
D03*
D64*
X0389900Y0398600D02*
D03*
X0276900Y0398100D02*
D03*
X0173869Y0396600D02*
D03*
D65*
X0325252Y0181500D02*
D03*
X0314622D02*
D03*
D66*
X0312000Y0284815D02*
D03*
Y0274185D02*
D03*
X0231000Y0228685D02*
D03*
Y0239315D02*
D03*
D67*
X0313323Y0235941D02*
D03*
X0315882D02*
D03*
X0318441D02*
D03*
X0321000D02*
D03*
X0323559D02*
D03*
X0326118D02*
D03*
X0328677D02*
D03*
X0313323Y0258185D02*
D03*
X0315882D02*
D03*
X0318441D02*
D03*
X0321000D02*
D03*
X0323559D02*
D03*
X0326118D02*
D03*
X0328677D02*
D03*
D68*
X0321000Y0247063D02*
D03*
D69*
X0200406Y0295000D02*
D03*
X0192531D02*
D03*
X0386463Y0432600D02*
D03*
X0394337D02*
D03*
X0272063Y0435500D02*
D03*
X0279937D02*
D03*
X0168931Y0430600D02*
D03*
X0176806D02*
D03*
D70*
X0329008Y0205000D02*
D03*
X0312866D02*
D03*
D71*
X0329437Y0282256D02*
D03*
Y0276744D02*
D03*
D72*
X0134500Y0207000D02*
D03*
X0152400Y0363600D02*
D03*
X0187400Y0378100D02*
D03*
X0256400Y0360100D02*
D03*
X0290400Y0376600D02*
D03*
X0367400Y0356600D02*
D03*
X0401900Y0378100D02*
D03*
X0166000Y0275500D02*
D03*
X0153400Y0387100D02*
D03*
X0257400Y0388600D02*
D03*
X0372900Y0389100D02*
D03*
D73*
X0348500Y0265000D02*
D03*
X0153000Y0208000D02*
D03*
X0353400Y0383600D02*
D03*
X0241932Y0384100D02*
D03*
X0134900Y0385100D02*
D03*
X0134969Y0227000D02*
D03*
D74*
X0348500Y0255000D02*
D03*
X0153000Y0218000D02*
D03*
X0353400Y0393600D02*
D03*
X0241932Y0394100D02*
D03*
X0134900Y0395100D02*
D03*
X0134969Y0237000D02*
D03*
D75*
X0112205Y0488189D02*
D03*
X0437008D02*
D03*
X0112205Y0125984D02*
D03*
X0437008D02*
D03*
D76*
X0140000Y0463800D02*
D03*
X0187600Y0463200D02*
D03*
X0237500Y0465000D02*
D03*
X0286600Y0473700D02*
D03*
X0342500Y0465000D02*
D03*
X0392500D02*
D03*
X0417000Y0206000D02*
D03*
X0370000Y0150000D02*
D03*
X0227500D02*
D03*
X0168000Y0144800D02*
D03*
X0137500Y0317500D02*
D03*
X0287500Y0150000D02*
D03*
D77*
X0191094Y0254032D02*
D03*
Y0257969D02*
D03*
X0195032Y0254032D02*
D03*
Y0257969D02*
D03*
X0198969Y0254032D02*
D03*
Y0257969D02*
D03*
X0202906Y0254032D02*
D03*
Y0257969D02*
D03*
D78*
X0324937Y0243126D02*
D03*
X0317063D02*
D03*
X0321000D02*
D03*
X0324937Y0251000D02*
D03*
Y0247063D02*
D03*
X0317063D02*
D03*
Y0251000D02*
D03*
X0321000Y0247063D02*
D03*
Y0251000D02*
D03*
M02*
