%FSAX25Y25*%
%MOIN*%
G70*
G01*
G75*
G04 Layer_Color=65535*
%ADD10R,0.05118X0.03937*%
G04:AMPARAMS|DCode=11|XSize=23.62mil|YSize=35.43mil|CornerRadius=5.91mil|HoleSize=0mil|Usage=FLASHONLY|Rotation=270.000|XOffset=0mil|YOffset=0mil|HoleType=Round|Shape=RoundedRectangle|*
%AMROUNDEDRECTD11*
21,1,0.02362,0.02362,0,0,270.0*
21,1,0.01181,0.03543,0,0,270.0*
1,1,0.01181,-0.01181,-0.00591*
1,1,0.01181,-0.01181,0.00591*
1,1,0.01181,0.01181,0.00591*
1,1,0.01181,0.01181,-0.00591*
%
%ADD11ROUNDEDRECTD11*%
%ADD12R,0.09055X0.09055*%
%ADD13R,0.00984X0.02756*%
%ADD14R,0.17087X0.09606*%
G04:AMPARAMS|DCode=15|XSize=23.62mil|YSize=35.43mil|CornerRadius=5.91mil|HoleSize=0mil|Usage=FLASHONLY|Rotation=0.000|XOffset=0mil|YOffset=0mil|HoleType=Round|Shape=RoundedRectangle|*
%AMROUNDEDRECTD15*
21,1,0.02362,0.02362,0,0,0.0*
21,1,0.01181,0.03543,0,0,0.0*
1,1,0.01181,0.00591,-0.01181*
1,1,0.01181,-0.00591,-0.01181*
1,1,0.01181,-0.00591,0.01181*
1,1,0.01181,0.00591,0.01181*
%
%ADD15ROUNDEDRECTD15*%
%ADD16O,0.02165X0.05709*%
%ADD17O,0.02165X0.05709*%
%ADD18O,0.01181X0.03500*%
%ADD19R,0.11201X0.06500*%
%ADD20R,0.04331X0.06693*%
%ADD21R,0.06693X0.04331*%
%ADD22O,0.01378X0.05315*%
%ADD23R,0.12205X0.11811*%
G04:AMPARAMS|DCode=24|XSize=31.5mil|YSize=86.61mil|CornerRadius=7.87mil|HoleSize=0mil|Usage=FLASHONLY|Rotation=180.000|XOffset=0mil|YOffset=0mil|HoleType=Round|Shape=RoundedRectangle|*
%AMROUNDEDRECTD24*
21,1,0.03150,0.07087,0,0,180.0*
21,1,0.01575,0.08661,0,0,180.0*
1,1,0.01575,-0.00787,0.03543*
1,1,0.01575,0.00787,0.03543*
1,1,0.01575,0.00787,-0.03543*
1,1,0.01575,-0.00787,-0.03543*
%
%ADD24ROUNDEDRECTD24*%
%ADD25R,0.08661X0.24803*%
%ADD26R,0.03543X0.03150*%
%ADD27C,0.01181*%
%ADD28C,0.01260*%
%ADD29C,0.02756*%
%ADD30C,0.01024*%
%ADD31C,0.03150*%
%ADD32C,0.01969*%
%ADD33C,0.03937*%
%ADD34C,0.01102*%
%ADD35C,0.00984*%
%ADD36C,0.00906*%
%ADD37C,0.02362*%
%ADD38C,0.01000*%
%ADD39C,0.01575*%
%ADD40C,0.00866*%
%ADD41C,0.03543*%
%ADD42C,0.01299*%
%ADD43C,0.01063*%
%ADD44C,0.06000*%
%ADD45R,0.05906X0.05906*%
%ADD46C,0.05906*%
%ADD47C,0.23622*%
%ADD48C,0.38976*%
%ADD49C,0.01969*%
%ADD50C,0.01575*%
%ADD51C,0.00394*%
%ADD52C,0.00787*%
%ADD53C,0.00600*%
%ADD54C,0.00669*%
D35*
X0332024Y0258185D02*
G03*
X0332024Y0258185I-0000492J0000000D01*
G01*
D38*
X0381239Y0390726D02*
G03*
X0381239Y0390726I-0000394J0000000D01*
G01*
X0268239Y0390226D02*
G03*
X0268239Y0390226I-0000394J0000000D01*
G01*
X0165207Y0388726D02*
G03*
X0165207Y0388726I-0000394J0000000D01*
G01*
X0430656Y0352269D02*
Y0360931D01*
X0425144Y0352269D02*
X0430656D01*
X0425144D02*
Y0360931D01*
X0430656D01*
X0315156Y0351269D02*
Y0359931D01*
X0309644Y0351269D02*
X0315156D01*
X0309644D02*
Y0359931D01*
X0315156D01*
X0206624Y0350269D02*
Y0358931D01*
X0201113Y0350269D02*
X0206624D01*
X0201113D02*
Y0358931D01*
X0206624D01*
X0224937Y0229713D02*
Y0231287D01*
X0221000Y0229713D02*
Y0231287D01*
X0226937Y0211713D02*
Y0213287D01*
X0223000Y0211713D02*
Y0213287D01*
X0210000Y0208213D02*
Y0209787D01*
X0213937Y0208213D02*
Y0209787D01*
X0183681Y0278032D02*
X0185256D01*
X0183681Y0281969D02*
X0185256D01*
X0244500Y0218213D02*
Y0219787D01*
X0248437Y0218213D02*
Y0219787D01*
X0236000Y0208713D02*
Y0210287D01*
X0239937Y0208713D02*
Y0210287D01*
X0179437Y0228213D02*
Y0229787D01*
X0175500Y0228213D02*
Y0229787D01*
X0162969Y0196213D02*
Y0197787D01*
X0159032Y0196213D02*
Y0197787D01*
X0206681Y0278032D02*
X0208256D01*
X0206681Y0281969D02*
X0208256D01*
X0205181Y0223969D02*
X0206756D01*
X0205181Y0220032D02*
X0206756D01*
X0186000Y0208713D02*
Y0210287D01*
X0189937Y0208713D02*
Y0210287D01*
X0156681Y0240532D02*
X0158256D01*
X0156681Y0244469D02*
X0158256D01*
X0170181Y0258969D02*
X0171756D01*
X0170181Y0255032D02*
X0171756D01*
X0158432Y0366313D02*
Y0367887D01*
X0162369Y0366313D02*
Y0367887D01*
X0352762Y0420057D02*
X0356306D01*
X0344494D02*
X0348038D01*
X0382026Y0395057D02*
Y0403718D01*
Y0395057D02*
X0383601Y0393482D01*
X0397774D01*
X0382026Y0403718D02*
X0397774D01*
Y0393482D02*
Y0403718D01*
X0373932Y0360813D02*
Y0362387D01*
X0377869Y0360813D02*
Y0362387D01*
X0404932Y0367813D02*
Y0369387D01*
X0408869Y0367813D02*
Y0369387D01*
X0423369Y0397813D02*
Y0399387D01*
X0419432Y0397813D02*
Y0399387D01*
X0412869Y0397813D02*
Y0399387D01*
X0408932Y0397813D02*
Y0399387D01*
X0376869Y0397880D02*
Y0399454D01*
X0372932Y0397880D02*
Y0399454D01*
X0366869Y0397813D02*
Y0399387D01*
X0362932Y0397813D02*
Y0399387D01*
X0402369Y0367813D02*
Y0369387D01*
X0398432Y0367813D02*
Y0369387D01*
X0385432Y0367813D02*
Y0369387D01*
X0389369Y0367813D02*
Y0369387D01*
X0418369Y0397813D02*
Y0399387D01*
X0414432Y0397813D02*
Y0399387D01*
X0371869Y0397813D02*
Y0399387D01*
X0367932Y0397813D02*
Y0399387D01*
X0391932Y0367813D02*
Y0369387D01*
X0395869Y0367813D02*
Y0369387D01*
X0380869Y0379813D02*
Y0381387D01*
X0376932Y0379813D02*
Y0381387D01*
X0241262Y0417057D02*
X0244806D01*
X0232994D02*
X0236538D01*
X0269026Y0394557D02*
Y0403218D01*
Y0394557D02*
X0270601Y0392982D01*
X0284774D01*
X0269026Y0403218D02*
X0284774D01*
Y0392982D02*
Y0403218D01*
X0263463Y0362813D02*
Y0364387D01*
X0267400Y0362813D02*
Y0364387D01*
X0286932Y0366313D02*
Y0367887D01*
X0290869Y0366313D02*
Y0367887D01*
X0306869Y0397313D02*
Y0398887D01*
X0302932Y0397313D02*
Y0398887D01*
X0294869Y0397313D02*
Y0398887D01*
X0290932Y0397313D02*
Y0398887D01*
X0264369Y0397765D02*
Y0399340D01*
X0260432Y0397765D02*
Y0399340D01*
X0253869Y0397765D02*
Y0399340D01*
X0249932Y0397765D02*
Y0399340D01*
X0297869Y0366313D02*
Y0367887D01*
X0293932Y0366313D02*
Y0367887D01*
X0272432Y0366313D02*
Y0367887D01*
X0276369Y0366313D02*
Y0367887D01*
X0300869Y0397313D02*
Y0398887D01*
X0296932Y0397313D02*
Y0398887D01*
X0259369Y0397765D02*
Y0399340D01*
X0255432Y0397765D02*
Y0399340D01*
X0279932Y0366313D02*
Y0367887D01*
X0283869Y0366313D02*
Y0367887D01*
X0265869Y0377813D02*
Y0379387D01*
X0261932Y0377813D02*
Y0379387D01*
X0181400Y0368813D02*
Y0370387D01*
X0185337Y0368813D02*
Y0370387D01*
X0203837Y0396313D02*
Y0397887D01*
X0199900Y0396313D02*
Y0397887D01*
X0191837Y0396360D02*
Y0397935D01*
X0187900Y0396360D02*
Y0397935D01*
X0156837Y0396313D02*
Y0397887D01*
X0152900Y0396313D02*
Y0397887D01*
X0146337Y0396313D02*
Y0397887D01*
X0142400Y0396313D02*
Y0397887D01*
X0197837Y0396313D02*
Y0397887D01*
X0193900Y0396313D02*
Y0397887D01*
X0151837Y0396313D02*
Y0397887D01*
X0147900Y0396313D02*
Y0397887D01*
X0174400Y0368813D02*
Y0370387D01*
X0178337Y0368813D02*
Y0370387D01*
X0161337Y0380360D02*
Y0381935D01*
X0157400Y0380360D02*
Y0381935D01*
X0131963Y0412557D02*
X0135506D01*
X0140231D02*
X0143774D01*
X0165994Y0393057D02*
Y0401718D01*
Y0393057D02*
X0167569Y0391482D01*
X0181743D01*
X0165994Y0401718D02*
X0181743D01*
Y0391482D02*
Y0401718D01*
X0167400Y0368813D02*
Y0370387D01*
X0171337Y0368813D02*
Y0370387D01*
X0191837Y0368813D02*
Y0370387D01*
X0187900Y0368813D02*
Y0370387D01*
X0357681Y0229669D02*
X0363193D01*
Y0238331D01*
X0357681D02*
X0363193D01*
X0357681Y0229669D02*
Y0238331D01*
X0194894Y0298937D02*
X0198043D01*
X0194894Y0291063D02*
X0198043D01*
X0388825Y0428663D02*
X0391975D01*
X0388825Y0436537D02*
X0391975D01*
X0274425Y0431563D02*
X0277575D01*
X0274425Y0439437D02*
X0277575D01*
X0171294Y0426663D02*
X0174443D01*
X0171294Y0434537D02*
X0174443D01*
X0341900Y0334098D02*
Y0328100D01*
X0344899D01*
X0345899Y0329100D01*
Y0333098D01*
X0344899Y0334098D01*
X0341900D01*
X0351897D02*
X0349897Y0333098D01*
X0347898Y0331099D01*
Y0329100D01*
X0348898Y0328100D01*
X0350897D01*
X0351897Y0329100D01*
Y0330099D01*
X0350897Y0331099D01*
X0347898D01*
X0353896Y0333098D02*
X0354896Y0334098D01*
X0356895D01*
X0357895Y0333098D01*
Y0329100D01*
X0356895Y0328100D01*
X0354896D01*
X0353896Y0329100D01*
Y0333098D01*
X0363893Y0334098D02*
X0361894Y0333098D01*
X0359894Y0331099D01*
Y0329100D01*
X0360894Y0328100D01*
X0362893D01*
X0363893Y0329100D01*
Y0330099D01*
X0362893Y0331099D01*
X0359894D01*
X0261900Y0334098D02*
Y0328100D01*
X0264899D01*
X0265899Y0329100D01*
Y0333098D01*
X0264899Y0334098D01*
X0261900D01*
X0271897D02*
X0269897Y0333098D01*
X0267898Y0331099D01*
Y0329100D01*
X0268898Y0328100D01*
X0270897D01*
X0271897Y0329100D01*
Y0330099D01*
X0270897Y0331099D01*
X0267898D01*
X0273896Y0333098D02*
X0274896Y0334098D01*
X0276895D01*
X0277895Y0333098D01*
Y0329100D01*
X0276895Y0328100D01*
X0274896D01*
X0273896Y0329100D01*
Y0333098D01*
X0283893Y0334098D02*
X0279894D01*
Y0331099D01*
X0281893Y0332099D01*
X0282893D01*
X0283893Y0331099D01*
Y0329100D01*
X0282893Y0328100D01*
X0280894D01*
X0279894Y0329100D01*
X0190400Y0334098D02*
Y0328100D01*
X0193399D01*
X0194399Y0329100D01*
Y0333098D01*
X0193399Y0334098D01*
X0190400D01*
X0200397D02*
X0198397Y0333098D01*
X0196398Y0331099D01*
Y0329100D01*
X0197398Y0328100D01*
X0199397D01*
X0200397Y0329100D01*
Y0330099D01*
X0199397Y0331099D01*
X0196398D01*
X0202396Y0333098D02*
X0203396Y0334098D01*
X0205395D01*
X0206395Y0333098D01*
Y0329100D01*
X0205395Y0328100D01*
X0203396D01*
X0202396Y0329100D01*
Y0333098D01*
X0211393Y0328100D02*
Y0334098D01*
X0208394Y0331099D01*
X0212393D01*
X0310999Y0299498D02*
X0309999Y0300498D01*
X0308000D01*
X0307000Y0299498D01*
Y0295500D01*
X0308000Y0294500D01*
X0309999D01*
X0310999Y0295500D01*
X0312998Y0294500D02*
X0314997D01*
X0313998D01*
Y0300498D01*
X0312998Y0299498D01*
X0331369Y0299099D02*
X0330344Y0300073D01*
X0328346Y0300022D01*
X0327372Y0298997D01*
X0327474Y0294999D01*
X0328499Y0294026D01*
X0330498Y0294077D01*
X0331472Y0295102D01*
X0337493Y0294256D02*
X0333496Y0294154D01*
X0337391Y0298254D01*
X0337365Y0299253D01*
X0336340Y0300227D01*
X0334342Y0300175D01*
X0333368Y0299150D01*
X0319999Y0171998D02*
X0318999Y0172998D01*
X0317000D01*
X0316000Y0171998D01*
Y0168000D01*
X0317000Y0167000D01*
X0318999D01*
X0319999Y0168000D01*
X0321998Y0171998D02*
X0322998Y0172998D01*
X0324997D01*
X0325997Y0171998D01*
Y0170999D01*
X0324997Y0169999D01*
X0323997D01*
X0324997D01*
X0325997Y0168999D01*
Y0168000D01*
X0324997Y0167000D01*
X0322998D01*
X0321998Y0168000D01*
D51*
X0187157Y0246354D02*
G03*
X0187157Y0246354I-0000197J0000000D01*
G01*
D52*
X0357093Y0429112D02*
G03*
X0357093Y0429112I-0000394J0000000D01*
G01*
X0245593Y0426112D02*
G03*
X0245593Y0426112I-0000394J0000000D01*
G01*
X0144561Y0421612D02*
G03*
X0144561Y0421612I-0000394J0000000D01*
G01*
X0218798Y0339061D02*
X0231002D01*
X0218798Y0309730D02*
X0220569Y0307958D01*
X0229231D02*
X0231002Y0309730D01*
X0220569Y0307958D02*
X0229231D01*
X0218798Y0328824D02*
Y0339061D01*
X0231002Y0328824D02*
Y0339061D01*
Y0309730D02*
Y0319376D01*
X0218798Y0309730D02*
Y0319376D01*
X0343500Y0250000D02*
X0353500D01*
X0343500D02*
Y0270000D01*
X0353500D01*
Y0250000D02*
Y0270000D01*
X0148000Y0223000D02*
X0158000D01*
Y0203000D02*
Y0223000D01*
X0148000Y0203000D02*
X0158000D01*
X0148000D02*
Y0223000D01*
X0348400Y0398600D02*
X0358400D01*
Y0378600D02*
Y0398600D01*
X0348400Y0378600D02*
X0358400D01*
X0348400D02*
Y0398600D01*
X0236932Y0399100D02*
X0246932D01*
Y0379100D02*
Y0399100D01*
X0236932Y0379100D02*
X0246932D01*
X0236932D02*
Y0399100D01*
X0129900Y0400100D02*
X0139900D01*
Y0380100D02*
Y0400100D01*
X0129900Y0380100D02*
X0139900D01*
X0129900D02*
Y0400100D01*
X0186961Y0247929D02*
X0188043D01*
X0205957D02*
X0207039D01*
X0186961Y0264071D02*
X0188043D01*
X0205957D02*
X0207039D01*
X0186961Y0247929D02*
Y0249504D01*
Y0262496D02*
Y0264071D01*
X0207039Y0247929D02*
Y0249504D01*
Y0262496D02*
Y0264071D01*
X0129969Y0242000D02*
X0139969D01*
Y0222000D02*
Y0242000D01*
X0129969Y0222000D02*
X0139969D01*
X0129969D02*
Y0242000D01*
X0293798Y0309730D02*
Y0319376D01*
X0306002Y0309730D02*
Y0319376D01*
Y0328824D02*
Y0339061D01*
X0293798Y0328824D02*
Y0339061D01*
X0295569Y0307958D02*
X0304231D01*
X0306002Y0309730D01*
X0293798D02*
X0295569Y0307958D01*
X0293798Y0339061D02*
X0306002D01*
X0377798Y0309730D02*
Y0319376D01*
X0390002Y0309730D02*
Y0319376D01*
Y0328824D02*
Y0339061D01*
X0377798Y0328824D02*
Y0339061D01*
X0379569Y0307958D02*
X0388231D01*
X0390002Y0309730D01*
X0377798D02*
X0379569Y0307958D01*
X0377798Y0339061D02*
X0390002D01*
X0344298Y0420057D02*
Y0427143D01*
X0356502Y0420057D02*
Y0427143D01*
X0356306D02*
X0356502D01*
X0344298Y0420057D02*
X0344494D01*
X0344298Y0427143D02*
X0344494D01*
X0356306Y0420057D02*
X0356502D01*
X0232798Y0417057D02*
Y0424143D01*
X0245002Y0417057D02*
Y0424143D01*
X0244806D02*
X0245002D01*
X0232798Y0417057D02*
X0232994D01*
X0232798Y0424143D02*
X0232994D01*
X0244806Y0417057D02*
X0245002D01*
X0143774Y0412557D02*
X0143971D01*
X0131766Y0419643D02*
X0131963D01*
X0131766Y0412557D02*
X0131963D01*
X0143774Y0419643D02*
X0143971D01*
Y0412557D02*
Y0419643D01*
X0131766Y0412557D02*
Y0419643D01*
X0318362Y0178547D02*
X0321512D01*
X0318362Y0184453D02*
X0321512D01*
X0314953Y0277925D02*
Y0281075D01*
X0309047Y0277925D02*
Y0281075D01*
X0310961Y0240173D02*
Y0253953D01*
X0331039Y0240173D02*
Y0253953D01*
X0319756Y0192992D02*
X0322118D01*
X0319756Y0217008D02*
X0322118D01*
X0228047Y0232425D02*
Y0235575D01*
X0233953Y0232425D02*
Y0235575D01*
D53*
X0393176Y0413583D02*
Y0417717D01*
X0402624Y0413583D02*
Y0417717D01*
Y0424803D02*
Y0428937D01*
X0393176Y0424803D02*
Y0428937D01*
Y0413583D02*
X0402624D01*
X0393176Y0428937D02*
X0402624D01*
X0376676Y0413583D02*
Y0417717D01*
X0386124Y0413583D02*
Y0417717D01*
Y0424803D02*
Y0428937D01*
X0376676Y0424803D02*
Y0428937D01*
Y0413583D02*
X0386124D01*
X0376676Y0428937D02*
X0386124D01*
X0279176Y0413583D02*
Y0417717D01*
X0288624Y0413583D02*
Y0417717D01*
Y0424803D02*
Y0428937D01*
X0279176Y0424803D02*
Y0428937D01*
Y0413583D02*
X0288624D01*
X0279176Y0428937D02*
X0288624D01*
X0263276Y0413583D02*
Y0417717D01*
X0272724Y0413583D02*
Y0417717D01*
Y0424803D02*
Y0428937D01*
X0263276Y0424803D02*
Y0428937D01*
Y0413583D02*
X0272724D01*
X0263276Y0428937D02*
X0272724D01*
X0175976Y0409646D02*
Y0413779D01*
X0185424Y0409646D02*
Y0413779D01*
Y0420866D02*
Y0425000D01*
X0175976Y0420866D02*
Y0425000D01*
Y0409646D02*
X0185424D01*
X0175976Y0425000D02*
X0185424D01*
X0160976Y0409646D02*
Y0413779D01*
X0170424Y0409646D02*
Y0413779D01*
Y0420866D02*
Y0425000D01*
X0160976Y0420866D02*
Y0425000D01*
Y0409646D02*
X0170424D01*
X0160976Y0425000D02*
X0170424D01*
D54*
X0213524Y0361536D02*
X0212212D01*
X0212868D01*
Y0358256D01*
X0212212Y0357600D01*
X0211556D01*
X0210900Y0358256D01*
X0217460Y0361536D02*
X0216148Y0360880D01*
X0214836Y0359568D01*
Y0358256D01*
X0215492Y0357600D01*
X0216804D01*
X0217460Y0358256D01*
Y0358912D01*
X0216804Y0359568D01*
X0214836D01*
X0218772Y0360880D02*
X0219427Y0361536D01*
X0220739D01*
X0221395Y0360880D01*
Y0358256D01*
X0220739Y0357600D01*
X0219427D01*
X0218772Y0358256D01*
Y0360880D01*
X0222707D02*
X0223363Y0361536D01*
X0224675D01*
X0225331Y0360880D01*
Y0360224D01*
X0224675Y0359568D01*
X0224019D01*
X0224675D01*
X0225331Y0358912D01*
Y0358256D01*
X0224675Y0357600D01*
X0223363D01*
X0222707Y0358256D01*
X0322524Y0362536D02*
X0321212D01*
X0321868D01*
Y0359256D01*
X0321212Y0358600D01*
X0320556D01*
X0319900Y0359256D01*
X0326460Y0362536D02*
X0325148Y0361880D01*
X0323836Y0360568D01*
Y0359256D01*
X0324492Y0358600D01*
X0325804D01*
X0326460Y0359256D01*
Y0359912D01*
X0325804Y0360568D01*
X0323836D01*
X0327771Y0361880D02*
X0328427Y0362536D01*
X0329739D01*
X0330395Y0361880D01*
Y0359256D01*
X0329739Y0358600D01*
X0328427D01*
X0327771Y0359256D01*
Y0361880D01*
X0334331Y0358600D02*
X0331707D01*
X0334331Y0361224D01*
Y0361880D01*
X0333675Y0362536D01*
X0332363D01*
X0331707Y0361880D01*
X0426524Y0348536D02*
X0425212D01*
X0425868D01*
Y0345256D01*
X0425212Y0344600D01*
X0424556D01*
X0423900Y0345256D01*
X0430460Y0348536D02*
X0429148Y0347880D01*
X0427836Y0346568D01*
Y0345256D01*
X0428492Y0344600D01*
X0429804D01*
X0430460Y0345256D01*
Y0345912D01*
X0429804Y0346568D01*
X0427836D01*
X0431772Y0347880D02*
X0432427Y0348536D01*
X0433739D01*
X0434395Y0347880D01*
Y0345256D01*
X0433739Y0344600D01*
X0432427D01*
X0431772Y0345256D01*
Y0347880D01*
X0435707Y0344600D02*
X0437019D01*
X0436363D01*
Y0348536D01*
X0435707Y0347880D01*
X0351624Y0223936D02*
X0350312D01*
X0350968D01*
Y0220656D01*
X0350312Y0220000D01*
X0349656D01*
X0349000Y0220656D01*
X0355560Y0223936D02*
X0354248Y0223280D01*
X0352936Y0221968D01*
Y0220656D01*
X0353592Y0220000D01*
X0354904D01*
X0355560Y0220656D01*
Y0221312D01*
X0354904Y0221968D01*
X0352936D01*
X0356872Y0223280D02*
X0357527Y0223936D01*
X0358839D01*
X0359495Y0223280D01*
Y0220656D01*
X0358839Y0220000D01*
X0357527D01*
X0356872Y0220656D01*
Y0223280D01*
X0360807Y0223936D02*
X0363431D01*
Y0223280D01*
X0360807Y0220656D01*
Y0220000D01*
M02*
