M48
;Layer_Color=9474304
;FILE_FORMAT=2:5
INCH
;TYPE=PLATED
T1F00S00C0.00787
T2F00S00C0.03000
T3F00S00C0.03543
T4F00S00C0.12992
T5F00S00C0.13780
T6F00S00C0.25984
%
T01
X0317063Y0243126
X0321000
X0324937
Y0247063
Y0251000
X0321000
X0317063
Y0247063
X0321000
X0202906Y0254032
X0198969
X0195032
Y0257969
X0198969
X0202906
X0191094
Y0254032
T02
X0166000Y0275500
X0134500Y0207000
X0152400Y0363600
X0153400Y0387100
X0187400Y0378100
X0257400Y0388600
X0256400Y0360100
X0290400Y0376600
X0372900Y0389100
X0367400Y0356600
X0401900Y0378100
T03
X0348500Y0255000
Y0265000
X0134969Y0237000
Y0227000
X0153000Y0218000
Y0208000
X0134900Y0385100
Y0395100
X0241932Y0394100
Y0384100
X0353400Y0383600
Y0393600
T04
X0112205Y0125984
X0437008
Y0488189
T05
X0112205Y0488189
T06
X0168000Y0144800
X0227500Y0150000
X0287500
X0370000
X0417000Y0206000
X0137500Y0317500
X0140000Y0463800
X0187600Y0463200
X0237500Y0465000
X0342500
X0392500
X0286600Y0473700
M30
