G04 Layer_Physical_Order=1*
G04 Layer_Color=255*
%FSLAX25Y25*%
%MOIN*%
G70*
G01*
G75*
%ADD10O,0.09843X0.02953*%
%ADD11C,0.01000*%
%ADD12R,0.05906X0.05906*%
%ADD13C,0.05906*%
D10*
X283465Y193898D02*
D03*
Y188898D02*
D03*
Y183898D02*
D03*
Y178898D02*
D03*
Y173898D02*
D03*
Y168898D02*
D03*
Y163898D02*
D03*
Y158898D02*
D03*
X299213Y193898D02*
D03*
Y188898D02*
D03*
Y183898D02*
D03*
Y178898D02*
D03*
Y173898D02*
D03*
Y168898D02*
D03*
Y163898D02*
D03*
Y158898D02*
D03*
X192913Y193898D02*
D03*
Y188898D02*
D03*
Y183898D02*
D03*
Y178898D02*
D03*
Y173898D02*
D03*
Y168898D02*
D03*
Y163898D02*
D03*
Y158898D02*
D03*
X208661Y193898D02*
D03*
Y188898D02*
D03*
Y183898D02*
D03*
Y178898D02*
D03*
Y173898D02*
D03*
Y168898D02*
D03*
Y163898D02*
D03*
Y158898D02*
D03*
D11*
X364665Y239665D02*
X377953Y226378D01*
X299705Y239665D02*
X364665D01*
X268209Y208169D02*
X299705Y239665D01*
X195866D02*
X223917Y211614D01*
X132874Y239665D02*
X195866D01*
X119587Y226378D02*
X132874Y239665D01*
X365158Y125492D02*
X372539Y132874D01*
X298228Y125492D02*
X365158D01*
X274114Y149606D02*
X298228Y125492D01*
X366142Y109252D02*
X382874Y125984D01*
X284449Y109252D02*
X366142D01*
X262795Y130905D02*
X284449Y109252D01*
X290846Y118602D02*
X367126D01*
X268209Y141240D02*
X290846Y118602D01*
X268209Y141240D02*
Y162402D01*
X274114Y149606D02*
Y161417D01*
X262795Y130905D02*
Y164862D01*
X271831Y173898D02*
X283465D01*
X262795Y164862D02*
X271831Y173898D01*
X382874Y125984D02*
Y151555D01*
X361713Y172716D02*
X382874Y151555D01*
X361713Y162716D02*
X376969Y147461D01*
Y128445D02*
Y147461D01*
X367126Y118602D02*
X376969Y128445D01*
X268209Y162402D02*
X274705Y168898D01*
X283465D01*
X372539Y132874D02*
Y141890D01*
X361713Y152717D02*
X372539Y141890D01*
X274114Y161417D02*
X276594Y163898D01*
X283957D01*
X368110Y246063D02*
X383858Y230315D01*
X296752Y246063D02*
X368110D01*
X262795Y212106D02*
X296752Y246063D01*
X350886Y131890D02*
X361713Y142717D01*
X310472Y131890D02*
X350886D01*
X283465Y158898D02*
X310472Y131890D01*
X361713Y182717D02*
X383858Y204862D01*
Y230315D01*
X262795Y187992D02*
Y212106D01*
Y187992D02*
X271890Y178898D01*
X283465D01*
X274764Y183898D02*
X283465D01*
X268209Y190453D02*
X274764Y183898D01*
X268209Y190453D02*
Y208169D01*
X377953Y208957D02*
Y226378D01*
X361713Y192717D02*
X377953Y208957D01*
X361713Y202716D02*
X372539Y213543D01*
Y221949D01*
X362205Y232283D02*
X372539Y221949D01*
X300689Y232283D02*
X362205D01*
X274114Y205709D02*
X300689Y232283D01*
X274114Y191437D02*
Y205709D01*
Y191437D02*
X276654Y188898D01*
X283465D01*
X348543Y225886D02*
X361713Y212717D01*
X315453Y225886D02*
X348543D01*
X283465Y193898D02*
X315453Y225886D01*
X299213Y158898D02*
X335531D01*
X351713Y142717D01*
X299213Y163898D02*
X340531D01*
X351713Y152717D01*
X345532Y168898D02*
X351713Y162716D01*
X299213Y168898D02*
X345532D01*
X299213Y173898D02*
X350532D01*
X351713Y172716D01*
X299213Y178898D02*
X347894D01*
X351713Y182717D01*
X299213Y183898D02*
X342894D01*
X351713Y192717D01*
X299213Y188898D02*
X337894D01*
X351713Y202716D01*
X332894Y193898D02*
X351713Y212717D01*
X299213Y193898D02*
X332894D01*
X111221Y147283D02*
X136653Y172717D01*
X111221Y125000D02*
Y147283D01*
Y125000D02*
X126476Y109744D01*
X176673Y225886D02*
X208661Y193898D01*
X149823Y225886D02*
X176673D01*
X136653Y212717D02*
X149823Y225886D01*
X223248Y173898D02*
X230807Y166339D01*
Y130905D02*
Y166339D01*
X209646Y109744D02*
X230807Y130905D01*
X208661Y173898D02*
X223248D01*
X217913Y168898D02*
X224410Y162402D01*
Y137303D02*
Y162402D01*
X205709Y118602D02*
X224410Y137303D01*
X208661Y168898D02*
X217913D01*
X215039Y163898D02*
X217520Y161417D01*
Y143209D02*
Y161417D01*
X200295Y125984D02*
X217520Y143209D01*
X208661Y163898D02*
X215039D01*
X126476Y109744D02*
X209646D01*
X117618Y143681D02*
X136653Y162717D01*
X117618Y129921D02*
Y143681D01*
Y129921D02*
X128937Y118602D01*
X205709D01*
X126476Y142539D02*
X136653Y152717D01*
X126476Y129921D02*
Y142539D01*
Y129921D02*
X130413Y125984D01*
X200295D01*
X136653Y142717D02*
X145020Y134350D01*
X184114D01*
X208661Y158898D01*
X146653Y142717D02*
X162835Y158898D01*
X192913D01*
X146653Y152717D02*
X157835Y163898D01*
X192913D01*
X152835Y168898D02*
X192913D01*
X146653Y162717D02*
X152835Y168898D01*
X146653Y172717D02*
X191732D01*
X192913Y173898D01*
X111713Y207658D02*
X136653Y182717D01*
X111713Y207658D02*
Y227362D01*
X130413Y246063D01*
X198819D01*
X230807Y214075D01*
Y187008D02*
Y214075D01*
X222697Y178898D02*
X230807Y187008D01*
X208661Y178898D02*
X222697D01*
X208661Y183898D02*
X218839D01*
X223917Y188976D01*
Y197835D01*
Y211614D01*
X217520Y190945D02*
Y206201D01*
X215472Y188898D02*
X217520Y190945D01*
X208661Y188898D02*
X215472D01*
X191437Y232283D02*
X217520Y206201D01*
X135335Y232283D02*
X191437D01*
X119587Y209784D02*
Y226378D01*
Y209784D02*
X136653Y192717D01*
X126476Y212894D02*
X136653Y202717D01*
X126476Y212894D02*
Y223425D01*
X135335Y232283D01*
X165472Y193898D02*
X192913D01*
X146653Y212717D02*
X165472Y193898D01*
X160472Y188898D02*
X192913D01*
X146653Y202717D02*
X160472Y188898D01*
X155472Y183898D02*
X192913D01*
X146653Y192717D02*
X155472Y183898D01*
X150728Y178642D02*
X193405D01*
X146653Y182717D02*
X150728Y178642D01*
D12*
X361713Y142717D02*
D03*
X146653Y142717D02*
D03*
D13*
X351713Y142717D02*
D03*
X361713Y152717D02*
D03*
X351713D02*
D03*
X361713Y162716D02*
D03*
X351713D02*
D03*
X361713Y172716D02*
D03*
X351713D02*
D03*
X361713Y182717D02*
D03*
X351713D02*
D03*
X361713Y192717D02*
D03*
X351713D02*
D03*
X361713Y202716D02*
D03*
X351713D02*
D03*
X361713Y212717D02*
D03*
X351713D02*
D03*
X136653Y142717D02*
D03*
X146653Y152717D02*
D03*
X136653D02*
D03*
X146653Y162717D02*
D03*
X136653D02*
D03*
X146653Y172717D02*
D03*
X136653D02*
D03*
X146653Y182717D02*
D03*
X136653D02*
D03*
X146653Y192717D02*
D03*
X136653D02*
D03*
X146653Y202717D02*
D03*
X136653D02*
D03*
X146653Y212717D02*
D03*
X136653D02*
D03*
M02*
