M48
;Layer_Color=9474304
;FILE_FORMAT=2:5
INCH,LZ
;TYPE=PLATED
T1F00S00C0.03543
%
T01
X0136653Y0142717
X0146653
Y0152717
X0136653
X0351713Y0152717
Y0142717
X0361713
Y0152717
Y0162716
X0351713
Y0172716
X0361713
Y0182717
X0351713
Y0192717
X0361713
Y0202716
X0351713
Y0212717
X0361713
X0146653Y0212717
Y0202717
Y0192717
Y0182717
Y0172717
Y0162717
X0136653
Y0172717
Y0182717
Y0192717
Y0202717
Y0212717
M30
