%FSAX25Y25*%
%MOIN*%
G70*
G01*
G75*
G04 Layer_Color=16711935*
%ADD10R,0.05118X0.03937*%
G04:AMPARAMS|DCode=11|XSize=23.62mil|YSize=35.43mil|CornerRadius=5.91mil|HoleSize=0mil|Usage=FLASHONLY|Rotation=270.000|XOffset=0mil|YOffset=0mil|HoleType=Round|Shape=RoundedRectangle|*
%AMROUNDEDRECTD11*
21,1,0.02362,0.02362,0,0,270.0*
21,1,0.01181,0.03543,0,0,270.0*
1,1,0.01181,-0.01181,-0.00591*
1,1,0.01181,-0.01181,0.00591*
1,1,0.01181,0.01181,0.00591*
1,1,0.01181,0.01181,-0.00591*
%
%ADD11ROUNDEDRECTD11*%
%ADD12R,0.09055X0.09055*%
%ADD13R,0.00984X0.02756*%
%ADD14R,0.17087X0.09606*%
G04:AMPARAMS|DCode=15|XSize=23.62mil|YSize=35.43mil|CornerRadius=5.91mil|HoleSize=0mil|Usage=FLASHONLY|Rotation=0.000|XOffset=0mil|YOffset=0mil|HoleType=Round|Shape=RoundedRectangle|*
%AMROUNDEDRECTD15*
21,1,0.02362,0.02362,0,0,0.0*
21,1,0.01181,0.03543,0,0,0.0*
1,1,0.01181,0.00591,-0.01181*
1,1,0.01181,-0.00591,-0.01181*
1,1,0.01181,-0.00591,0.01181*
1,1,0.01181,0.00591,0.01181*
%
%ADD15ROUNDEDRECTD15*%
%ADD16O,0.02165X0.05709*%
%ADD17O,0.02165X0.05709*%
%ADD18O,0.01181X0.03500*%
%ADD19R,0.11201X0.06500*%
%ADD20R,0.04331X0.06693*%
%ADD21R,0.06693X0.04331*%
%ADD22O,0.01378X0.05315*%
%ADD23R,0.12205X0.11811*%
G04:AMPARAMS|DCode=24|XSize=31.5mil|YSize=86.61mil|CornerRadius=7.87mil|HoleSize=0mil|Usage=FLASHONLY|Rotation=180.000|XOffset=0mil|YOffset=0mil|HoleType=Round|Shape=RoundedRectangle|*
%AMROUNDEDRECTD24*
21,1,0.03150,0.07087,0,0,180.0*
21,1,0.01575,0.08661,0,0,180.0*
1,1,0.01575,-0.00787,0.03543*
1,1,0.01575,0.00787,0.03543*
1,1,0.01575,0.00787,-0.03543*
1,1,0.01575,-0.00787,-0.03543*
%
%ADD24ROUNDEDRECTD24*%
%ADD25R,0.08661X0.24803*%
%ADD26R,0.03543X0.03150*%
%ADD27C,0.01181*%
%ADD28C,0.01260*%
%ADD29C,0.02756*%
%ADD30C,0.01024*%
%ADD31C,0.03150*%
%ADD32C,0.01969*%
%ADD33C,0.03937*%
%ADD34C,0.01102*%
%ADD35C,0.00984*%
%ADD36C,0.00906*%
%ADD37C,0.02362*%
%ADD38C,0.01000*%
%ADD39C,0.01575*%
%ADD40C,0.00866*%
%ADD41C,0.03543*%
%ADD42C,0.01299*%
%ADD43C,0.01063*%
%ADD44C,0.06000*%
%ADD45R,0.05906X0.05906*%
%ADD46C,0.05906*%
%ADD47C,0.23622*%
%ADD48C,0.38976*%
%ADD49C,0.01969*%
%ADD50C,0.01575*%
%ADD51C,0.00394*%
%ADD52C,0.00787*%
%ADD53C,0.00600*%
%ADD54C,0.00669*%
%ADD55R,0.05918X0.04737*%
G04:AMPARAMS|DCode=56|XSize=31.62mil|YSize=43.43mil|CornerRadius=9.91mil|HoleSize=0mil|Usage=FLASHONLY|Rotation=270.000|XOffset=0mil|YOffset=0mil|HoleType=Round|Shape=RoundedRectangle|*
%AMROUNDEDRECTD56*
21,1,0.03162,0.02362,0,0,270.0*
21,1,0.01181,0.04343,0,0,270.0*
1,1,0.01981,-0.01181,-0.00591*
1,1,0.01981,-0.01181,0.00591*
1,1,0.01981,0.01181,0.00591*
1,1,0.01981,0.01181,-0.00591*
%
%ADD56ROUNDEDRECTD56*%
%ADD57R,0.09855X0.09855*%
%ADD58R,0.01784X0.03556*%
%ADD59R,0.17887X0.10406*%
G04:AMPARAMS|DCode=60|XSize=31.62mil|YSize=43.43mil|CornerRadius=9.91mil|HoleSize=0mil|Usage=FLASHONLY|Rotation=0.000|XOffset=0mil|YOffset=0mil|HoleType=Round|Shape=RoundedRectangle|*
%AMROUNDEDRECTD60*
21,1,0.03162,0.02362,0,0,0.0*
21,1,0.01181,0.04343,0,0,0.0*
1,1,0.01981,0.00591,-0.01181*
1,1,0.01981,-0.00591,-0.01181*
1,1,0.01981,-0.00591,0.01181*
1,1,0.01981,0.00591,0.01181*
%
%ADD60ROUNDEDRECTD60*%
%ADD61O,0.02965X0.06509*%
%ADD62O,0.02965X0.06509*%
%ADD63O,0.01981X0.04300*%
%ADD64R,0.12001X0.07300*%
%ADD65R,0.05131X0.07493*%
%ADD66R,0.07493X0.05131*%
%ADD67O,0.02178X0.06115*%
%ADD68R,0.13005X0.12611*%
G04:AMPARAMS|DCode=69|XSize=39.5mil|YSize=94.61mil|CornerRadius=11.87mil|HoleSize=0mil|Usage=FLASHONLY|Rotation=180.000|XOffset=0mil|YOffset=0mil|HoleType=Round|Shape=RoundedRectangle|*
%AMROUNDEDRECTD69*
21,1,0.03950,0.07087,0,0,180.0*
21,1,0.01575,0.09461,0,0,180.0*
1,1,0.02375,-0.00787,0.03543*
1,1,0.02375,0.00787,0.03543*
1,1,0.02375,0.00787,-0.03543*
1,1,0.02375,-0.00787,-0.03543*
%
%ADD69ROUNDEDRECTD69*%
%ADD70R,0.09461X0.25603*%
%ADD71R,0.04343X0.03950*%
%ADD72C,0.06800*%
%ADD73R,0.06706X0.06706*%
%ADD74C,0.06706*%
%ADD75C,0.24422*%
%ADD76C,0.39776*%
%ADD77C,0.02769*%
%ADD78C,0.02375*%
D72*
X0134500Y0207000D02*
D03*
X0152400Y0363600D02*
D03*
X0187400Y0378100D02*
D03*
X0256400Y0360100D02*
D03*
X0290400Y0376600D02*
D03*
X0367400Y0356600D02*
D03*
X0401900Y0378100D02*
D03*
X0166000Y0275500D02*
D03*
X0153400Y0387100D02*
D03*
X0257400Y0388600D02*
D03*
X0372900Y0389100D02*
D03*
D73*
X0348500Y0265000D02*
D03*
X0153000Y0208000D02*
D03*
X0353400Y0383600D02*
D03*
X0241932Y0384100D02*
D03*
X0134900Y0385100D02*
D03*
X0134969Y0227000D02*
D03*
D74*
X0348500Y0255000D02*
D03*
X0153000Y0218000D02*
D03*
X0353400Y0393600D02*
D03*
X0241932Y0394100D02*
D03*
X0134900Y0395100D02*
D03*
X0134969Y0237000D02*
D03*
D75*
X0112205Y0488189D02*
D03*
X0437008D02*
D03*
X0112205Y0125984D02*
D03*
X0437008D02*
D03*
D76*
X0140000Y0463800D02*
D03*
X0187600Y0463200D02*
D03*
X0237500Y0465000D02*
D03*
X0286600Y0473700D02*
D03*
X0342500Y0465000D02*
D03*
X0392500D02*
D03*
X0417000Y0206000D02*
D03*
X0370000Y0150000D02*
D03*
X0227500D02*
D03*
X0168000Y0144800D02*
D03*
X0137500Y0317500D02*
D03*
X0287500Y0150000D02*
D03*
D77*
X0191094Y0254032D02*
D03*
Y0257969D02*
D03*
X0195032Y0254032D02*
D03*
Y0257969D02*
D03*
X0198969Y0254032D02*
D03*
Y0257969D02*
D03*
X0202906Y0254032D02*
D03*
Y0257969D02*
D03*
D78*
X0324937Y0243126D02*
D03*
X0317063D02*
D03*
X0321000D02*
D03*
X0324937Y0251000D02*
D03*
Y0247063D02*
D03*
X0317063D02*
D03*
Y0251000D02*
D03*
X0321000Y0247063D02*
D03*
Y0251000D02*
D03*
M02*
