%FSAX25Y25*%
%MOIN*%
G70*
G01*
G75*
G04 Layer_Physical_Order=1*
G04 Layer_Color=255*
%ADD10R,0.05118X0.03937*%
G04:AMPARAMS|DCode=11|XSize=23.62mil|YSize=35.43mil|CornerRadius=5.91mil|HoleSize=0mil|Usage=FLASHONLY|Rotation=270.000|XOffset=0mil|YOffset=0mil|HoleType=Round|Shape=RoundedRectangle|*
%AMROUNDEDRECTD11*
21,1,0.02362,0.02362,0,0,270.0*
21,1,0.01181,0.03543,0,0,270.0*
1,1,0.01181,-0.01181,-0.00591*
1,1,0.01181,-0.01181,0.00591*
1,1,0.01181,0.01181,0.00591*
1,1,0.01181,0.01181,-0.00591*
%
%ADD11ROUNDEDRECTD11*%
%ADD12R,0.09055X0.09055*%
%ADD13R,0.00984X0.02756*%
%ADD14R,0.17087X0.09606*%
G04:AMPARAMS|DCode=15|XSize=23.62mil|YSize=35.43mil|CornerRadius=5.91mil|HoleSize=0mil|Usage=FLASHONLY|Rotation=0.000|XOffset=0mil|YOffset=0mil|HoleType=Round|Shape=RoundedRectangle|*
%AMROUNDEDRECTD15*
21,1,0.02362,0.02362,0,0,0.0*
21,1,0.01181,0.03543,0,0,0.0*
1,1,0.01181,0.00591,-0.01181*
1,1,0.01181,-0.00591,-0.01181*
1,1,0.01181,-0.00591,0.01181*
1,1,0.01181,0.00591,0.01181*
%
%ADD15ROUNDEDRECTD15*%
%ADD16O,0.02165X0.05709*%
%ADD17O,0.02165X0.05709*%
%ADD18O,0.01181X0.03500*%
%ADD19R,0.11201X0.06500*%
%ADD20R,0.04331X0.06693*%
%ADD21R,0.06693X0.04331*%
%ADD22O,0.01378X0.05315*%
%ADD23R,0.12205X0.11811*%
G04:AMPARAMS|DCode=24|XSize=31.5mil|YSize=86.61mil|CornerRadius=7.87mil|HoleSize=0mil|Usage=FLASHONLY|Rotation=180.000|XOffset=0mil|YOffset=0mil|HoleType=Round|Shape=RoundedRectangle|*
%AMROUNDEDRECTD24*
21,1,0.03150,0.07087,0,0,180.0*
21,1,0.01575,0.08661,0,0,180.0*
1,1,0.01575,-0.00787,0.03543*
1,1,0.01575,0.00787,0.03543*
1,1,0.01575,0.00787,-0.03543*
1,1,0.01575,-0.00787,-0.03543*
%
%ADD24ROUNDEDRECTD24*%
%ADD25R,0.08661X0.24803*%
%ADD26R,0.03543X0.03150*%
%ADD27C,0.01181*%
%ADD28C,0.01260*%
%ADD29C,0.02756*%
%ADD30C,0.01024*%
%ADD31C,0.03150*%
%ADD32C,0.01969*%
%ADD33C,0.03937*%
%ADD34C,0.01102*%
%ADD35C,0.00984*%
%ADD36C,0.00906*%
%ADD37C,0.02362*%
%ADD38C,0.01000*%
%ADD39C,0.01575*%
%ADD40C,0.00866*%
%ADD41C,0.03543*%
%ADD42C,0.01299*%
%ADD43C,0.01063*%
%ADD44C,0.06000*%
%ADD45R,0.05906X0.05906*%
%ADD46C,0.05906*%
%ADD47C,0.23622*%
%ADD48C,0.38976*%
%ADD49C,0.01969*%
%ADD50C,0.01575*%
G36*
X0429124Y0499519D02*
X0428883Y0499371D01*
X0427234Y0497963D01*
X0425826Y0496313D01*
X0424692Y0494464D01*
X0423862Y0492460D01*
X0423356Y0490351D01*
X0423302Y0489665D01*
X0437008D01*
Y0488189D01*
X0438484D01*
Y0474483D01*
X0439170Y0474537D01*
X0441279Y0475043D01*
X0443283Y0475873D01*
X0445132Y0477007D01*
X0446782Y0478415D01*
X0448190Y0480064D01*
X0449324Y0481914D01*
X0450000Y0483547D01*
X0450500Y0483448D01*
Y0130725D01*
X0450000Y0130626D01*
X0449324Y0132259D01*
X0448190Y0134109D01*
X0446782Y0135758D01*
X0445132Y0137167D01*
X0443283Y0138300D01*
X0441279Y0139130D01*
X0439170Y0139636D01*
X0438484Y0139690D01*
Y0125984D01*
X0437008D01*
Y0124508D01*
X0423302D01*
X0423356Y0123822D01*
X0423862Y0121713D01*
X0424692Y0119709D01*
X0425826Y0117860D01*
X0427234Y0116210D01*
X0428883Y0114802D01*
X0430733Y0113669D01*
X0432737Y0112839D01*
X0433861Y0112569D01*
X0433802Y0112069D01*
X0115411D01*
X0115352Y0112569D01*
X0116476Y0112839D01*
X0118480Y0113669D01*
X0120329Y0114802D01*
X0121978Y0116210D01*
X0123387Y0117860D01*
X0124520Y0119709D01*
X0125350Y0121713D01*
X0125857Y0123822D01*
X0125911Y0124508D01*
X0112205D01*
Y0125984D01*
X0110728D01*
Y0139690D01*
X0110043Y0139636D01*
X0107933Y0139130D01*
X0105930Y0138300D01*
X0104080Y0137167D01*
X0102431Y0135758D01*
X0101022Y0134109D01*
X0100000Y0132440D01*
X0099500Y0132581D01*
Y0481592D01*
X0100000Y0481733D01*
X0101022Y0480064D01*
X0102431Y0478415D01*
X0104080Y0477007D01*
X0105930Y0475873D01*
X0107933Y0475043D01*
X0110043Y0474537D01*
X0110728Y0474483D01*
Y0488189D01*
X0112205D01*
Y0489665D01*
X0125911D01*
X0125857Y0490351D01*
X0125350Y0492460D01*
X0124520Y0494464D01*
X0123387Y0496313D01*
X0121978Y0497963D01*
X0120329Y0499371D01*
X0120089Y0499519D01*
X0120224Y0500000D01*
X0428988D01*
X0429124Y0499519D01*
D02*
G37*
G36*
X0450500Y0121243D02*
Y0112069D01*
X0450500Y0112069D01*
X0440214D01*
X0440155Y0112569D01*
X0441279Y0112839D01*
X0443283Y0113669D01*
X0445132Y0114802D01*
X0446782Y0116210D01*
X0448190Y0117860D01*
X0449324Y0119709D01*
X0450000Y0121343D01*
X0450500Y0121243D01*
D02*
G37*
G36*
X0101022Y0117860D02*
X0102431Y0116210D01*
X0104080Y0114802D01*
X0105930Y0113669D01*
X0107933Y0112839D01*
X0109058Y0112569D01*
X0108999Y0112069D01*
X0099500D01*
Y0119387D01*
X0100000Y0119528D01*
X0101022Y0117860D01*
D02*
G37*
%LPC*%
G36*
X0418476Y0227406D02*
Y0207476D01*
X0438406D01*
X0438319Y0208807D01*
X0437770Y0211565D01*
X0436866Y0214229D01*
X0435622Y0216751D01*
X0434059Y0219090D01*
X0432205Y0221205D01*
X0430090Y0223059D01*
X0427751Y0224622D01*
X0425229Y0225866D01*
X0422565Y0226770D01*
X0419807Y0227319D01*
X0418476Y0227406D01*
D02*
G37*
G36*
X0365437Y0246471D02*
X0363937D01*
X0362909Y0246336D01*
X0361951Y0245939D01*
X0361129Y0245308D01*
X0357629Y0241808D01*
X0356998Y0240985D01*
X0356601Y0240028D01*
X0356466Y0239000D01*
Y0236657D01*
X0356516Y0236280D01*
X0356186Y0235904D01*
X0344870D01*
X0343842Y0235769D01*
X0342884Y0235372D01*
X0342062Y0234741D01*
X0339129Y0231808D01*
X0338498Y0230985D01*
X0338101Y0230028D01*
X0337966Y0229000D01*
Y0226980D01*
X0337504Y0226789D01*
X0331485Y0232808D01*
X0331298Y0232951D01*
Y0233520D01*
X0331358Y0233973D01*
Y0237910D01*
X0331266Y0238603D01*
X0330998Y0239250D01*
X0330573Y0239805D01*
X0330017Y0240231D01*
X0329371Y0240499D01*
X0329071Y0240538D01*
Y0245587D01*
X0312929D01*
Y0240538D01*
X0312629Y0240499D01*
X0311983Y0240231D01*
X0311427Y0239805D01*
X0311001Y0239250D01*
X0310734Y0238603D01*
X0310642Y0237910D01*
Y0233973D01*
X0310734Y0233279D01*
X0310742Y0233260D01*
Y0232000D01*
X0309972Y0231899D01*
X0309015Y0231502D01*
X0308192Y0230871D01*
X0303129Y0225808D01*
X0302498Y0224986D01*
X0302101Y0224028D01*
X0301966Y0223000D01*
Y0217500D01*
X0302101Y0216472D01*
X0302498Y0215514D01*
X0303129Y0214692D01*
X0306129Y0211692D01*
X0306567Y0211356D01*
Y0190630D01*
X0319165D01*
Y0219370D01*
X0309908D01*
Y0221355D01*
X0313808Y0225255D01*
X0313951Y0225442D01*
X0314000D01*
X0314678Y0225532D01*
X0315310Y0225793D01*
X0315853Y0226210D01*
X0317735Y0228092D01*
X0318151Y0228634D01*
X0318413Y0229267D01*
X0318503Y0229945D01*
X0318463Y0230246D01*
Y0231295D01*
X0319135Y0231383D01*
X0319721Y0231626D01*
X0320306Y0231383D01*
X0321000Y0231292D01*
X0321694Y0231383D01*
X0322280Y0231626D01*
X0322865Y0231383D01*
X0323559Y0231292D01*
X0324253Y0231383D01*
X0324488Y0231481D01*
X0324871Y0231098D01*
X0324841Y0231028D01*
X0324706Y0230000D01*
X0324841Y0228972D01*
X0325238Y0228014D01*
X0325869Y0227192D01*
X0333191Y0219870D01*
X0332984Y0219370D01*
X0322709D01*
Y0215326D01*
X0322668Y0215018D01*
X0322600Y0214500D01*
X0322600Y0214500D01*
X0322600Y0214500D01*
X0322670Y0213970D01*
X0322709Y0213674D01*
Y0190630D01*
X0325037D01*
Y0186815D01*
X0321118D01*
Y0176185D01*
X0329386D01*
Y0179333D01*
X0331816Y0181763D01*
X0332447Y0182585D01*
X0332843Y0183543D01*
X0332979Y0184571D01*
Y0190630D01*
X0335307D01*
Y0210644D01*
X0335465Y0210664D01*
X0336422Y0211061D01*
X0337245Y0211692D01*
X0344745Y0219192D01*
X0345376Y0220015D01*
X0345773Y0220972D01*
X0345908Y0222000D01*
Y0227355D01*
X0346515Y0227962D01*
X0360437D01*
X0361465Y0228097D01*
X0362422Y0228494D01*
X0363245Y0229125D01*
X0363876Y0229947D01*
X0364273Y0230905D01*
X0364408Y0231933D01*
X0364273Y0232961D01*
X0363876Y0233918D01*
X0363762Y0234067D01*
X0363853Y0234186D01*
X0364111Y0234808D01*
X0364195Y0235441D01*
X0364273Y0235630D01*
X0364408Y0236657D01*
Y0237206D01*
X0364867Y0237454D01*
X0365466Y0236855D01*
Y0170975D01*
X0364435Y0170770D01*
X0361771Y0169866D01*
X0359249Y0168622D01*
X0356910Y0167059D01*
X0354795Y0165205D01*
X0352941Y0163090D01*
X0351378Y0160751D01*
X0350134Y0158229D01*
X0349230Y0155565D01*
X0348681Y0152807D01*
X0348497Y0150000D01*
X0348681Y0147193D01*
X0349230Y0144435D01*
X0350134Y0141771D01*
X0351378Y0139249D01*
X0352941Y0136910D01*
X0354795Y0134795D01*
X0356910Y0132941D01*
X0359249Y0131378D01*
X0361771Y0130134D01*
X0364435Y0129230D01*
X0367193Y0128681D01*
X0370000Y0128497D01*
X0372807Y0128681D01*
X0375565Y0129230D01*
X0378229Y0130134D01*
X0380751Y0131378D01*
X0383090Y0132941D01*
X0385205Y0134795D01*
X0387059Y0136910D01*
X0388622Y0139249D01*
X0389866Y0141771D01*
X0390770Y0144435D01*
X0391319Y0147193D01*
X0391503Y0150000D01*
X0391319Y0152807D01*
X0390770Y0155565D01*
X0389866Y0158229D01*
X0388622Y0160751D01*
X0387059Y0163090D01*
X0385205Y0165205D01*
X0383090Y0167059D01*
X0380751Y0168622D01*
X0378229Y0169866D01*
X0375565Y0170770D01*
X0373408Y0171199D01*
Y0238500D01*
X0373273Y0239528D01*
X0372876Y0240486D01*
X0372245Y0241308D01*
X0368245Y0245308D01*
X0367423Y0245939D01*
X0366465Y0246336D01*
X0365437Y0246471D01*
D02*
G37*
G36*
X0415524Y0227406D02*
X0414193Y0227319D01*
X0411435Y0226770D01*
X0408771Y0225866D01*
X0406249Y0224622D01*
X0403910Y0223059D01*
X0401795Y0221205D01*
X0399941Y0219090D01*
X0398378Y0216751D01*
X0397134Y0214229D01*
X0396230Y0211565D01*
X0395681Y0208807D01*
X0395594Y0207476D01*
X0415524D01*
Y0227406D01*
D02*
G37*
G36*
Y0204524D02*
X0395594D01*
X0395681Y0203193D01*
X0396230Y0200435D01*
X0397134Y0197771D01*
X0398378Y0195249D01*
X0399941Y0192910D01*
X0401795Y0190795D01*
X0403910Y0188941D01*
X0406249Y0187378D01*
X0408771Y0186134D01*
X0411435Y0185230D01*
X0414193Y0184681D01*
X0415524Y0184594D01*
Y0204524D01*
D02*
G37*
G36*
X0438406D02*
X0418476D01*
Y0184594D01*
X0419807Y0184681D01*
X0422565Y0185230D01*
X0425229Y0186134D01*
X0427751Y0187378D01*
X0430090Y0188941D01*
X0432205Y0190795D01*
X0434059Y0192910D01*
X0435622Y0195249D01*
X0436866Y0197771D01*
X0437770Y0200435D01*
X0438319Y0203193D01*
X0438406Y0204524D01*
D02*
G37*
G36*
X0229524Y0243449D02*
X0225685D01*
Y0240791D01*
X0229524D01*
Y0243449D01*
D02*
G37*
G36*
X0310524Y0278319D02*
X0306685D01*
Y0275661D01*
X0310524D01*
Y0278319D01*
D02*
G37*
G36*
X0317315D02*
X0313476D01*
Y0275661D01*
X0317315D01*
Y0278319D01*
D02*
G37*
G36*
X0175398Y0260584D02*
Y0258476D01*
X0177054D01*
X0177005Y0258849D01*
X0176747Y0259471D01*
X0176337Y0260006D01*
X0175802Y0260416D01*
X0175398Y0260584D01*
D02*
G37*
G36*
X0236315Y0243449D02*
X0232476D01*
Y0240791D01*
X0236315D01*
Y0243449D01*
D02*
G37*
G36*
X0177054Y0255523D02*
X0175398D01*
Y0253415D01*
X0175802Y0253583D01*
X0176337Y0253993D01*
X0176747Y0254528D01*
X0177005Y0255151D01*
X0177054Y0255523D01*
D02*
G37*
G36*
X0435532Y0139690D02*
X0434846Y0139636D01*
X0432737Y0139130D01*
X0430733Y0138300D01*
X0428883Y0137167D01*
X0427234Y0135758D01*
X0425826Y0134109D01*
X0424692Y0132259D01*
X0423862Y0130255D01*
X0423356Y0128147D01*
X0423302Y0127461D01*
X0435532D01*
Y0139690D01*
D02*
G37*
G36*
X0166524Y0166206D02*
X0165193Y0166119D01*
X0162435Y0165570D01*
X0159771Y0164666D01*
X0157249Y0163422D01*
X0154910Y0161859D01*
X0152795Y0160005D01*
X0150941Y0157890D01*
X0149378Y0155551D01*
X0148134Y0153029D01*
X0147230Y0150365D01*
X0146681Y0147607D01*
X0146594Y0146276D01*
X0166524D01*
Y0166206D01*
D02*
G37*
G36*
X0113681Y0139690D02*
Y0127461D01*
X0125911D01*
X0125857Y0128147D01*
X0125350Y0130255D01*
X0124520Y0132259D01*
X0123387Y0134109D01*
X0121978Y0135758D01*
X0120329Y0137167D01*
X0118480Y0138300D01*
X0116476Y0139130D01*
X0114367Y0139636D01*
X0113681Y0139690D01*
D02*
G37*
G36*
X0166524Y0143324D02*
X0146594D01*
X0146681Y0141993D01*
X0147230Y0139235D01*
X0148134Y0136571D01*
X0149378Y0134049D01*
X0150941Y0131710D01*
X0152795Y0129595D01*
X0154910Y0127741D01*
X0157249Y0126178D01*
X0159771Y0124934D01*
X0162435Y0124030D01*
X0165193Y0123481D01*
X0166524Y0123394D01*
Y0143324D01*
D02*
G37*
G36*
X0189406D02*
X0169476D01*
Y0123394D01*
X0170807Y0123481D01*
X0173565Y0124030D01*
X0176229Y0124934D01*
X0178751Y0126178D01*
X0181090Y0127741D01*
X0183205Y0129595D01*
X0185059Y0131710D01*
X0186622Y0134049D01*
X0187866Y0136571D01*
X0188770Y0139235D01*
X0189319Y0141993D01*
X0189406Y0143324D01*
D02*
G37*
G36*
X0169476Y0166206D02*
Y0146276D01*
X0189406D01*
X0189319Y0147607D01*
X0188770Y0150365D01*
X0187866Y0153029D01*
X0186622Y0155551D01*
X0185059Y0157890D01*
X0183205Y0160005D01*
X0181090Y0161859D01*
X0178751Y0163422D01*
X0176229Y0164666D01*
X0173565Y0165570D01*
X0170807Y0166119D01*
X0169476Y0166206D01*
D02*
G37*
G36*
X0313146Y0186815D02*
X0310488D01*
Y0182976D01*
X0313146D01*
Y0186815D01*
D02*
G37*
G36*
X0318756D02*
X0316098D01*
Y0182976D01*
X0318756D01*
Y0186815D01*
D02*
G37*
G36*
Y0180024D02*
X0316098D01*
Y0176185D01*
X0318756D01*
Y0180024D01*
D02*
G37*
G36*
X0151469Y0256971D02*
X0124969D01*
X0123941Y0256836D01*
X0122983Y0256439D01*
X0122161Y0255808D01*
X0113161Y0246808D01*
X0112530Y0245986D01*
X0112133Y0245028D01*
X0111998Y0244000D01*
Y0194500D01*
X0112133Y0193472D01*
X0112530Y0192515D01*
X0113161Y0191692D01*
X0135161Y0169692D01*
X0135983Y0169061D01*
X0136941Y0168664D01*
X0137969Y0168529D01*
X0194969D01*
X0195996Y0168664D01*
X0196954Y0169061D01*
X0197776Y0169692D01*
X0228276Y0200192D01*
X0228908Y0201014D01*
X0229304Y0201972D01*
X0229440Y0203000D01*
Y0207500D01*
X0229304Y0208528D01*
X0228952Y0209379D01*
X0229094Y0209709D01*
X0229236Y0209879D01*
X0230383D01*
X0234040Y0206222D01*
X0234133Y0205519D01*
X0234529Y0204562D01*
X0235160Y0203739D01*
X0235983Y0203108D01*
X0236940Y0202712D01*
X0237968Y0202576D01*
X0243016D01*
X0244044Y0202712D01*
X0245001Y0203108D01*
X0245824Y0203739D01*
X0249276Y0207192D01*
X0249907Y0208014D01*
X0250304Y0208972D01*
X0250439Y0210000D01*
Y0215706D01*
X0250939Y0215914D01*
X0253498Y0213355D01*
Y0182113D01*
X0239303Y0167919D01*
X0238251Y0168622D01*
X0235729Y0169866D01*
X0233065Y0170770D01*
X0230307Y0171319D01*
X0227500Y0171503D01*
X0224693Y0171319D01*
X0221935Y0170770D01*
X0219271Y0169866D01*
X0216749Y0168622D01*
X0214410Y0167059D01*
X0212295Y0165205D01*
X0210441Y0163090D01*
X0208878Y0160751D01*
X0207634Y0158229D01*
X0206730Y0155565D01*
X0206181Y0152807D01*
X0205997Y0150000D01*
X0206181Y0147193D01*
X0206730Y0144435D01*
X0207634Y0141771D01*
X0208878Y0139249D01*
X0210441Y0136910D01*
X0212295Y0134795D01*
X0214410Y0132941D01*
X0216749Y0131378D01*
X0219271Y0130134D01*
X0221935Y0129230D01*
X0224693Y0128681D01*
X0227500Y0128497D01*
X0230307Y0128681D01*
X0233065Y0129230D01*
X0235729Y0130134D01*
X0238251Y0131378D01*
X0240590Y0132941D01*
X0242705Y0134795D01*
X0244559Y0136910D01*
X0246122Y0139249D01*
X0247366Y0141771D01*
X0248270Y0144435D01*
X0248819Y0147193D01*
X0249003Y0150000D01*
X0248819Y0152807D01*
X0248270Y0155565D01*
X0247366Y0158229D01*
X0246122Y0160751D01*
X0245019Y0162403D01*
X0260277Y0177661D01*
X0260908Y0178483D01*
X0261304Y0179441D01*
X0261440Y0180469D01*
Y0215000D01*
X0261304Y0216028D01*
X0260908Y0216986D01*
X0260277Y0217808D01*
X0249276Y0228808D01*
X0242324Y0235761D01*
X0241501Y0236392D01*
X0240544Y0236789D01*
X0239516Y0236924D01*
X0238488Y0236789D01*
X0237530Y0236392D01*
X0236815Y0235843D01*
X0236315Y0236004D01*
Y0237839D01*
X0225685D01*
Y0236896D01*
X0225237Y0236675D01*
X0224954Y0236892D01*
X0223996Y0237288D01*
X0222968Y0237424D01*
X0219921D01*
X0219921Y0237424D01*
X0219921Y0237424D01*
X0219425Y0237358D01*
X0218893Y0237288D01*
X0218893Y0237288D01*
X0218893Y0237288D01*
X0218457Y0237108D01*
X0217936Y0236892D01*
X0217936Y0236892D01*
X0217936Y0236892D01*
X0217546Y0236593D01*
X0217113Y0236261D01*
X0217113Y0236261D01*
X0217113Y0236261D01*
X0213661Y0232808D01*
X0213349Y0232401D01*
X0213030Y0231985D01*
X0213030Y0231985D01*
X0213030Y0231985D01*
X0212851Y0231555D01*
X0212633Y0231028D01*
X0212633Y0231028D01*
X0212633Y0231028D01*
X0212566Y0230518D01*
X0212498Y0230000D01*
Y0223919D01*
X0212005Y0223849D01*
X0211747Y0224471D01*
X0211337Y0225006D01*
X0210802Y0225416D01*
X0210180Y0225674D01*
X0209512Y0225762D01*
X0208589D01*
Y0244000D01*
X0208500Y0244678D01*
X0208238Y0245310D01*
X0207822Y0245853D01*
X0207507Y0246095D01*
X0206427Y0247174D01*
Y0248520D01*
X0206386Y0248728D01*
X0206691Y0249228D01*
X0207512D01*
Y0254524D01*
X0186488D01*
Y0249228D01*
X0187283D01*
X0187490Y0248728D01*
X0183702Y0244940D01*
X0183469Y0244971D01*
X0182441Y0244836D01*
X0181483Y0244439D01*
X0180661Y0243808D01*
X0174660Y0237807D01*
X0174029Y0236985D01*
X0173893Y0236656D01*
X0173403Y0236559D01*
X0169715Y0240246D01*
X0169057Y0240751D01*
X0168291Y0241069D01*
X0167469Y0241177D01*
X0166646Y0241069D01*
X0165880Y0240751D01*
X0165710Y0240621D01*
X0164005D01*
X0163653Y0241023D01*
X0160421D01*
Y0243976D01*
X0163554D01*
X0163505Y0244349D01*
X0163247Y0244971D01*
X0162837Y0245506D01*
X0162302Y0245916D01*
X0161680Y0246174D01*
X0161012Y0246262D01*
X0160089D01*
Y0248000D01*
X0160000Y0248678D01*
X0159738Y0249310D01*
X0159322Y0249853D01*
X0156828Y0252347D01*
X0156804Y0252528D01*
X0156408Y0253485D01*
X0155777Y0254308D01*
X0154277Y0255808D01*
X0153454Y0256439D01*
X0152496Y0256836D01*
X0151469Y0256971D01*
D02*
G37*
G36*
X0313146Y0180024D02*
X0310488D01*
Y0176185D01*
X0313146D01*
Y0180024D01*
D02*
G37*
G36*
X0317315Y0288949D02*
X0306685D01*
Y0288786D01*
X0303252D01*
X0302224Y0288651D01*
X0301828Y0288486D01*
X0301267Y0288254D01*
X0300444Y0287623D01*
X0289692Y0276871D01*
X0285692Y0272871D01*
X0285061Y0272048D01*
X0284664Y0271091D01*
X0284529Y0270063D01*
Y0171286D01*
X0281935Y0170770D01*
X0279271Y0169866D01*
X0276749Y0168622D01*
X0274410Y0167059D01*
X0272295Y0165205D01*
X0270441Y0163090D01*
X0268878Y0160751D01*
X0267634Y0158229D01*
X0266730Y0155565D01*
X0266181Y0152807D01*
X0265997Y0150000D01*
X0266181Y0147193D01*
X0266730Y0144435D01*
X0267634Y0141771D01*
X0268878Y0139249D01*
X0270441Y0136910D01*
X0272295Y0134795D01*
X0274410Y0132941D01*
X0276749Y0131378D01*
X0279271Y0130134D01*
X0281935Y0129230D01*
X0284693Y0128681D01*
X0287500Y0128497D01*
X0290307Y0128681D01*
X0293065Y0129230D01*
X0295729Y0130134D01*
X0298251Y0131378D01*
X0300590Y0132941D01*
X0302705Y0134795D01*
X0304559Y0136910D01*
X0306122Y0139249D01*
X0307366Y0141771D01*
X0308270Y0144435D01*
X0308819Y0147193D01*
X0309003Y0150000D01*
X0308819Y0152807D01*
X0308270Y0155565D01*
X0307366Y0158229D01*
X0306122Y0160751D01*
X0304559Y0163090D01*
X0302705Y0165205D01*
X0300590Y0167059D01*
X0298251Y0168622D01*
X0295729Y0169866D01*
X0293065Y0170770D01*
X0292471Y0170888D01*
Y0264183D01*
X0292971Y0264430D01*
X0293451Y0264061D01*
X0294409Y0263664D01*
X0295437Y0263529D01*
X0307437D01*
X0307671Y0263560D01*
X0309574Y0261656D01*
X0310117Y0261240D01*
X0310702Y0260998D01*
Y0260606D01*
X0310642Y0260154D01*
Y0256217D01*
X0310734Y0255523D01*
X0311001Y0254876D01*
X0311048Y0254815D01*
X0311053Y0254804D01*
X0311470Y0254261D01*
X0312012Y0253844D01*
X0312019Y0253842D01*
X0312929Y0252931D01*
Y0248539D01*
X0329071D01*
Y0251001D01*
X0329447Y0251330D01*
X0329500Y0251323D01*
X0345208D01*
X0346018Y0250701D01*
X0347215Y0250205D01*
X0348500Y0250036D01*
X0349785Y0250205D01*
X0350982Y0250701D01*
X0352010Y0251490D01*
X0352799Y0252518D01*
X0353295Y0253715D01*
X0353464Y0255000D01*
X0353295Y0256285D01*
X0352799Y0257482D01*
X0352010Y0258510D01*
X0350982Y0259299D01*
X0350306Y0259579D01*
X0350405Y0260079D01*
X0353421D01*
Y0269921D01*
X0343579D01*
Y0266780D01*
X0328500D01*
X0327781Y0266685D01*
X0327110Y0266407D01*
X0326535Y0265966D01*
X0326093Y0265390D01*
X0326029Y0265235D01*
X0324265Y0263471D01*
X0324121Y0263284D01*
X0323621Y0263453D01*
Y0267972D01*
X0328850Y0273201D01*
X0333177D01*
Y0278713D01*
Y0280780D01*
X0325697D01*
Y0278713D01*
Y0278472D01*
X0318894Y0271669D01*
X0318421Y0271052D01*
X0318123Y0270334D01*
X0318022Y0269563D01*
X0318123Y0268792D01*
X0318379Y0268174D01*
Y0265453D01*
X0317879Y0265284D01*
X0317735Y0265471D01*
X0317192Y0265888D01*
X0316560Y0266150D01*
X0315882Y0266239D01*
X0313431D01*
X0312753Y0266150D01*
X0312707Y0266130D01*
X0312513D01*
X0311377Y0267266D01*
X0311408Y0267500D01*
X0311273Y0268528D01*
X0310876Y0269485D01*
X0310786Y0269603D01*
X0311007Y0270051D01*
X0317315D01*
Y0272709D01*
X0306685D01*
Y0271471D01*
X0297082D01*
X0296471Y0272082D01*
Y0272418D01*
X0304897Y0280844D01*
X0306685D01*
Y0280681D01*
X0317315D01*
Y0288949D01*
D02*
G37*
G36*
X0137500Y0339003D02*
X0134693Y0338819D01*
X0131935Y0338270D01*
X0129271Y0337366D01*
X0126749Y0336122D01*
X0124410Y0334559D01*
X0122295Y0332705D01*
X0120441Y0330590D01*
X0118878Y0328251D01*
X0117634Y0325729D01*
X0116730Y0323065D01*
X0116181Y0320307D01*
X0115997Y0317500D01*
X0116181Y0314693D01*
X0116730Y0311935D01*
X0117634Y0309271D01*
X0118878Y0306749D01*
X0120441Y0304410D01*
X0122295Y0302295D01*
X0124410Y0300441D01*
X0126749Y0298878D01*
X0129271Y0297634D01*
X0131935Y0296730D01*
X0134693Y0296181D01*
X0137500Y0295997D01*
X0140307Y0296181D01*
X0143065Y0296730D01*
X0145729Y0297634D01*
X0148251Y0298878D01*
X0150590Y0300441D01*
X0152705Y0302295D01*
X0154559Y0304410D01*
X0156122Y0306749D01*
X0157366Y0309271D01*
X0158166Y0311629D01*
X0218404D01*
Y0308746D01*
X0231396D01*
Y0311271D01*
X0293404D01*
Y0308746D01*
X0306396D01*
Y0311271D01*
X0377404D01*
Y0308746D01*
X0390396D01*
Y0321738D01*
X0377404D01*
Y0319213D01*
X0306396D01*
Y0321738D01*
X0293404D01*
Y0319213D01*
X0231396D01*
Y0321738D01*
X0218404D01*
Y0319571D01*
X0158867D01*
X0158819Y0320307D01*
X0158270Y0323065D01*
X0157366Y0325729D01*
X0156122Y0328251D01*
X0154559Y0330590D01*
X0152705Y0332705D01*
X0150590Y0334559D01*
X0148251Y0336122D01*
X0145729Y0337366D01*
X0143065Y0338270D01*
X0140307Y0338819D01*
X0137500Y0339003D01*
D02*
G37*
G36*
X0140000Y0485303D02*
X0137193Y0485119D01*
X0134435Y0484570D01*
X0131771Y0483666D01*
X0129249Y0482422D01*
X0126910Y0480859D01*
X0124795Y0479005D01*
X0122941Y0476890D01*
X0121378Y0474551D01*
X0120134Y0472029D01*
X0119230Y0469365D01*
X0118681Y0466607D01*
X0118497Y0463800D01*
X0118681Y0460993D01*
X0119230Y0458235D01*
X0120134Y0455571D01*
X0121378Y0453049D01*
X0122941Y0450710D01*
X0124795Y0448595D01*
X0126910Y0446741D01*
X0129249Y0445178D01*
X0131771Y0443934D01*
X0134435Y0443030D01*
X0135929Y0442733D01*
Y0438745D01*
X0131321Y0434136D01*
X0130689Y0433314D01*
X0130293Y0432356D01*
X0130157Y0431328D01*
Y0420332D01*
X0130293Y0419305D01*
X0130689Y0418347D01*
X0131178Y0417710D01*
X0131463Y0417022D01*
X0131952Y0416385D01*
X0132590Y0415896D01*
X0133332Y0415588D01*
X0134128Y0415483D01*
X0134883Y0415583D01*
X0135002Y0415475D01*
X0135150Y0415257D01*
X0135195Y0415159D01*
X0134918Y0414490D01*
X0134430Y0413853D01*
X0134033Y0412896D01*
X0133898Y0411868D01*
Y0406552D01*
Y0399932D01*
X0133615Y0399895D01*
X0132418Y0399399D01*
X0131991Y0399071D01*
X0131900D01*
X0130872Y0398936D01*
X0129914Y0398539D01*
X0129092Y0397908D01*
X0128882Y0397634D01*
X0128873Y0397627D01*
X0120373Y0389127D01*
X0119805Y0388387D01*
X0119657Y0388030D01*
X0119448Y0387525D01*
X0119326Y0386600D01*
Y0384100D01*
X0119448Y0383175D01*
X0119657Y0382670D01*
X0119805Y0382313D01*
X0120373Y0381573D01*
X0134420Y0367526D01*
X0135160Y0366958D01*
X0136022Y0366601D01*
X0136947Y0366479D01*
X0137872Y0366601D01*
X0138057Y0366677D01*
X0147933D01*
X0148155Y0366229D01*
X0148060Y0366106D01*
X0147559Y0364897D01*
X0147389Y0363600D01*
X0147559Y0362303D01*
X0148060Y0361094D01*
X0148856Y0360056D01*
X0149894Y0359260D01*
X0151103Y0358759D01*
X0152400Y0358589D01*
X0153697Y0358759D01*
X0154906Y0359260D01*
X0155944Y0360056D01*
X0156652Y0360979D01*
X0159191D01*
X0159219Y0360976D01*
X0161581D01*
X0162249Y0361064D01*
X0162871Y0361321D01*
X0163406Y0361732D01*
X0163816Y0362266D01*
X0164074Y0362889D01*
X0164162Y0363557D01*
Y0363640D01*
X0165439Y0364917D01*
X0165869Y0364832D01*
X0165971Y0364741D01*
X0166362Y0364231D01*
X0166896Y0363821D01*
X0167519Y0363563D01*
X0167892Y0363514D01*
Y0366647D01*
X0170845D01*
Y0363514D01*
X0171217Y0363563D01*
X0171840Y0363821D01*
X0172374Y0364231D01*
X0172554Y0364466D01*
X0173182D01*
X0173362Y0364231D01*
X0173897Y0363821D01*
X0174519Y0363563D01*
X0174892Y0363514D01*
Y0366647D01*
X0177845D01*
Y0363514D01*
X0178217Y0363563D01*
X0178840Y0363821D01*
X0179111Y0364030D01*
X0179171Y0364039D01*
X0179699Y0363869D01*
X0179996Y0363150D01*
X0180628Y0362328D01*
X0181450Y0361696D01*
X0182408Y0361300D01*
X0183435Y0361164D01*
X0194598D01*
X0200170Y0355592D01*
X0200194Y0355408D01*
X0200452Y0354786D01*
X0200595Y0354600D01*
X0200452Y0354414D01*
X0200194Y0353792D01*
X0200106Y0353123D01*
Y0351942D01*
X0200194Y0351274D01*
X0200452Y0350652D01*
X0200862Y0350117D01*
X0201397Y0349707D01*
X0202020Y0349449D01*
X0202077Y0349442D01*
X0202082Y0349438D01*
X0202944Y0349081D01*
X0203869Y0348959D01*
X0213327D01*
X0220929Y0341357D01*
Y0339454D01*
X0218404D01*
Y0326462D01*
X0231396D01*
Y0339454D01*
X0228871D01*
Y0343002D01*
X0228736Y0344029D01*
X0228339Y0344987D01*
X0227708Y0345810D01*
X0218177Y0355341D01*
X0217354Y0355972D01*
X0216396Y0356369D01*
X0215369Y0356504D01*
X0214341Y0356369D01*
X0213709Y0356107D01*
X0207631D01*
Y0357258D01*
X0207543Y0357926D01*
X0207285Y0358548D01*
X0206875Y0359083D01*
X0206340Y0359493D01*
X0205718Y0359751D01*
X0205534Y0359775D01*
X0204607Y0360702D01*
X0204798Y0361164D01*
X0207435D01*
X0208463Y0361300D01*
X0209421Y0361696D01*
X0210243Y0362328D01*
X0220208Y0372292D01*
X0220839Y0373114D01*
X0221236Y0374072D01*
X0221371Y0375100D01*
Y0391100D01*
X0221236Y0392128D01*
X0220839Y0393086D01*
X0220208Y0393908D01*
X0211255Y0402861D01*
X0210433Y0403492D01*
X0209475Y0403889D01*
X0208447Y0404024D01*
X0193244D01*
Y0404600D01*
X0193129Y0405474D01*
X0192792Y0406288D01*
X0192255Y0406987D01*
X0191556Y0407523D01*
X0190742Y0407860D01*
X0190185Y0407934D01*
X0187694Y0410425D01*
X0187159Y0410835D01*
X0186537Y0411093D01*
X0185869Y0411181D01*
X0185728Y0411163D01*
X0185228Y0411589D01*
Y0416732D01*
X0178892D01*
X0178701Y0417194D01*
X0179420Y0417913D01*
X0185228D01*
Y0425787D01*
X0183744D01*
Y0427234D01*
X0183629Y0428107D01*
X0183530Y0428346D01*
X0183292Y0428922D01*
X0182755Y0429621D01*
X0180373Y0432003D01*
Y0434143D01*
X0180278Y0434863D01*
X0180000Y0435533D01*
X0179559Y0436109D01*
X0178983Y0436551D01*
X0178312Y0436828D01*
X0177593Y0436923D01*
X0176018D01*
X0175299Y0436828D01*
X0174628Y0436551D01*
X0174053Y0436109D01*
X0173611Y0435533D01*
X0173333Y0434863D01*
X0173239Y0434143D01*
Y0427057D01*
X0173333Y0426337D01*
X0173611Y0425667D01*
X0174053Y0425091D01*
X0174628Y0424649D01*
X0175299Y0424372D01*
X0176018Y0424277D01*
X0176172D01*
Y0422079D01*
X0173047Y0418953D01*
X0172895Y0418755D01*
X0172396Y0418723D01*
X0170741Y0420378D01*
X0170741Y0420378D01*
X0170228Y0420891D01*
Y0424344D01*
X0170438Y0424372D01*
X0171109Y0424649D01*
X0171684Y0425091D01*
X0172126Y0425667D01*
X0172404Y0426337D01*
X0172499Y0427057D01*
Y0434143D01*
X0172404Y0434863D01*
X0172126Y0435533D01*
X0171684Y0436109D01*
X0171109Y0436551D01*
X0170438Y0436828D01*
X0169719Y0436923D01*
X0168144D01*
X0167425Y0436828D01*
X0166754Y0436551D01*
X0166179Y0436109D01*
X0165737Y0435533D01*
X0165459Y0434863D01*
X0165364Y0434143D01*
Y0432003D01*
X0163348Y0429987D01*
X0162812Y0429288D01*
X0162713Y0429049D01*
X0162474Y0428474D01*
X0162359Y0427600D01*
Y0425787D01*
X0161172D01*
Y0417913D01*
X0165905D01*
X0166624Y0417194D01*
X0166433Y0416732D01*
X0161172D01*
Y0408858D01*
X0164660D01*
X0165183Y0408334D01*
X0165154Y0407880D01*
X0164743Y0407345D01*
X0164486Y0406723D01*
X0164398Y0406055D01*
Y0405964D01*
X0162192Y0403759D01*
X0161881Y0403889D01*
X0160853Y0404024D01*
X0146013D01*
X0141840Y0408197D01*
Y0411868D01*
X0141704Y0412896D01*
X0141308Y0413853D01*
X0140819Y0414490D01*
X0140542Y0415159D01*
X0140588Y0415259D01*
X0140734Y0415474D01*
X0140854Y0415582D01*
X0141609Y0415483D01*
X0142405Y0415588D01*
X0143147Y0415895D01*
X0143785Y0416384D01*
X0144274Y0417022D01*
X0144559Y0417710D01*
X0145048Y0418347D01*
X0145444Y0419304D01*
X0145580Y0420332D01*
Y0425664D01*
X0170046Y0450130D01*
X0170631Y0450008D01*
X0172395Y0447995D01*
X0174510Y0446141D01*
X0176849Y0444578D01*
X0179371Y0443334D01*
X0182035Y0442430D01*
X0184793Y0441881D01*
X0187600Y0441697D01*
X0190407Y0441881D01*
X0193165Y0442430D01*
X0195829Y0443334D01*
X0198351Y0444578D01*
X0200690Y0446141D01*
X0202805Y0447995D01*
X0204659Y0450110D01*
X0206222Y0452449D01*
X0207466Y0454971D01*
X0208370Y0457635D01*
X0208919Y0460393D01*
X0209103Y0463200D01*
X0208919Y0466007D01*
X0208370Y0468765D01*
X0207466Y0471429D01*
X0206222Y0473951D01*
X0204659Y0476290D01*
X0202805Y0478405D01*
X0200690Y0480259D01*
X0198351Y0481822D01*
X0195829Y0483066D01*
X0193165Y0483970D01*
X0190407Y0484519D01*
X0187600Y0484703D01*
X0184793Y0484519D01*
X0182035Y0483970D01*
X0179371Y0483066D01*
X0176849Y0481822D01*
X0174510Y0480259D01*
X0172395Y0478405D01*
X0170541Y0476290D01*
X0168978Y0473951D01*
X0167734Y0471429D01*
X0166830Y0468765D01*
X0166281Y0466007D01*
X0166097Y0463200D01*
X0166281Y0460393D01*
X0166745Y0458061D01*
X0143938Y0435253D01*
X0143514Y0435537D01*
X0143736Y0436072D01*
X0143871Y0437100D01*
Y0442693D01*
X0145565Y0443030D01*
X0148229Y0443934D01*
X0150751Y0445178D01*
X0153090Y0446741D01*
X0155205Y0448595D01*
X0157059Y0450710D01*
X0158622Y0453049D01*
X0159866Y0455571D01*
X0160770Y0458235D01*
X0161319Y0460993D01*
X0161503Y0463800D01*
X0161319Y0466607D01*
X0160770Y0469365D01*
X0159866Y0472029D01*
X0158622Y0474551D01*
X0157059Y0476890D01*
X0155205Y0479005D01*
X0153090Y0480859D01*
X0150751Y0482422D01*
X0148229Y0483666D01*
X0145565Y0484570D01*
X0142807Y0485119D01*
X0140000Y0485303D01*
D02*
G37*
G36*
X0392500Y0486503D02*
X0389693Y0486319D01*
X0386935Y0485770D01*
X0384271Y0484866D01*
X0381749Y0483622D01*
X0379410Y0482059D01*
X0377295Y0480205D01*
X0375441Y0478090D01*
X0373878Y0475751D01*
X0372634Y0473229D01*
X0371730Y0470565D01*
X0371181Y0467807D01*
X0370997Y0465000D01*
X0371181Y0462193D01*
X0371730Y0459435D01*
X0372634Y0456771D01*
X0373878Y0454249D01*
X0374304Y0453612D01*
X0353216Y0432523D01*
X0352602Y0432269D01*
X0351964Y0431780D01*
X0351475Y0431143D01*
X0351190Y0430455D01*
X0351131Y0430377D01*
X0350631Y0430547D01*
Y0436715D01*
X0352208Y0438292D01*
X0352839Y0439115D01*
X0353236Y0440072D01*
X0353371Y0441100D01*
Y0446458D01*
X0355590Y0447941D01*
X0357705Y0449795D01*
X0359559Y0451910D01*
X0361122Y0454249D01*
X0362366Y0456771D01*
X0363270Y0459435D01*
X0363819Y0462193D01*
X0364003Y0465000D01*
X0363819Y0467807D01*
X0363270Y0470565D01*
X0362366Y0473229D01*
X0361122Y0475751D01*
X0359559Y0478090D01*
X0357705Y0480205D01*
X0355590Y0482059D01*
X0353251Y0483622D01*
X0350729Y0484866D01*
X0348065Y0485770D01*
X0345307Y0486319D01*
X0342500Y0486503D01*
X0339693Y0486319D01*
X0336935Y0485770D01*
X0334271Y0484866D01*
X0331749Y0483622D01*
X0329410Y0482059D01*
X0327295Y0480205D01*
X0325441Y0478090D01*
X0323878Y0475751D01*
X0322634Y0473229D01*
X0321730Y0470565D01*
X0321181Y0467807D01*
X0320997Y0465000D01*
X0321181Y0462193D01*
X0321730Y0459435D01*
X0322634Y0456771D01*
X0323878Y0454249D01*
X0325441Y0451910D01*
X0327295Y0449795D01*
X0329410Y0447941D01*
X0331749Y0446378D01*
X0334271Y0445134D01*
X0336935Y0444230D01*
X0339693Y0443681D01*
X0342500Y0443497D01*
X0344929Y0443656D01*
X0345415Y0443239D01*
X0345426Y0442741D01*
X0343852Y0441168D01*
X0343221Y0440345D01*
X0342824Y0439388D01*
X0342689Y0438360D01*
Y0427832D01*
X0342824Y0426805D01*
X0343221Y0425847D01*
X0343710Y0425210D01*
X0343995Y0424522D01*
X0344484Y0423885D01*
X0345121Y0423395D01*
X0345863Y0423088D01*
X0346660Y0422983D01*
X0347415Y0423083D01*
X0347533Y0422975D01*
X0347681Y0422757D01*
X0347727Y0422659D01*
X0347450Y0421990D01*
X0346961Y0421353D01*
X0346564Y0420396D01*
X0346429Y0419368D01*
Y0409632D01*
X0346564Y0408604D01*
X0346961Y0407646D01*
X0347592Y0406824D01*
X0352066Y0402350D01*
Y0401850D01*
X0350592Y0400377D01*
X0350592Y0400377D01*
X0350592Y0400377D01*
X0350245Y0399924D01*
X0349961Y0399554D01*
X0349961Y0399554D01*
X0349961Y0399554D01*
X0349765Y0399081D01*
X0349564Y0398597D01*
X0349564Y0398596D01*
X0349564Y0398596D01*
X0349509Y0398178D01*
X0349429Y0397569D01*
X0349429Y0397569D01*
X0349429Y0397569D01*
Y0396509D01*
X0349101Y0396082D01*
X0348605Y0394885D01*
X0348535Y0394351D01*
X0341092Y0386908D01*
X0340461Y0386086D01*
X0340064Y0385128D01*
X0339929Y0384100D01*
Y0374600D01*
X0340064Y0373572D01*
X0340461Y0372615D01*
X0341092Y0371792D01*
X0351139Y0361745D01*
X0351962Y0361114D01*
X0352919Y0360717D01*
X0353947Y0360582D01*
X0363692D01*
X0363809Y0360082D01*
X0363060Y0359106D01*
X0362559Y0357897D01*
X0362389Y0356600D01*
X0362559Y0355303D01*
X0363060Y0354094D01*
X0363856Y0353056D01*
X0364894Y0352260D01*
X0366103Y0351759D01*
X0367400Y0351589D01*
X0368697Y0351759D01*
X0369906Y0352260D01*
X0370944Y0353056D01*
X0371652Y0353979D01*
X0373852D01*
X0374531Y0354068D01*
X0375163Y0354330D01*
X0375706Y0354747D01*
X0376434Y0355475D01*
X0377081D01*
X0377749Y0355563D01*
X0378371Y0355821D01*
X0378906Y0356231D01*
X0379316Y0356766D01*
X0379574Y0357389D01*
X0379662Y0358057D01*
Y0358703D01*
X0383949Y0362990D01*
X0384393Y0363231D01*
X0384928Y0362821D01*
X0385550Y0362563D01*
X0385923Y0362514D01*
Y0365647D01*
X0388876D01*
Y0362514D01*
X0389249Y0362563D01*
X0389871Y0362821D01*
X0390406Y0363231D01*
X0390893D01*
X0391428Y0362821D01*
X0392051Y0362563D01*
X0392423Y0362514D01*
Y0365647D01*
X0395376D01*
Y0362514D01*
X0395749Y0362563D01*
X0396371Y0362821D01*
X0396906Y0363231D01*
X0397393D01*
X0397928Y0362821D01*
X0398551Y0362563D01*
X0399219Y0362475D01*
X0401581D01*
X0402249Y0362563D01*
X0402871Y0362821D01*
X0403138Y0363026D01*
X0404161D01*
X0404428Y0362821D01*
X0405051Y0362563D01*
X0405719Y0362475D01*
X0408081D01*
X0408749Y0362563D01*
X0409371Y0362821D01*
X0409639Y0363026D01*
X0421981D01*
X0424476Y0360531D01*
X0424226Y0359926D01*
X0424138Y0359258D01*
Y0358504D01*
X0405475D01*
X0404447Y0358369D01*
X0403489Y0357972D01*
X0402667Y0357341D01*
X0384780Y0339454D01*
X0377404D01*
Y0326462D01*
X0390396D01*
Y0333839D01*
X0407120Y0350562D01*
X0427900D01*
X0428928Y0350697D01*
X0429885Y0351094D01*
X0430708Y0351725D01*
X0431339Y0352548D01*
X0431736Y0353505D01*
X0431871Y0354533D01*
X0431736Y0355561D01*
X0431339Y0356519D01*
X0431225Y0356667D01*
X0431316Y0356786D01*
X0431574Y0357408D01*
X0431662Y0358077D01*
Y0359258D01*
X0431574Y0359926D01*
X0431316Y0360548D01*
X0431077Y0360860D01*
Y0361600D01*
X0430969Y0362422D01*
X0430744Y0362964D01*
X0430651Y0363188D01*
X0430432Y0363474D01*
X0430146Y0363846D01*
X0426099Y0367894D01*
X0425618Y0368263D01*
X0425506Y0368859D01*
X0434308Y0377661D01*
X0434939Y0378483D01*
X0435268Y0379276D01*
X0435336Y0379441D01*
Y0379441D01*
X0435336Y0379441D01*
X0435418Y0380063D01*
X0435471Y0380469D01*
Y0397032D01*
X0435336Y0398059D01*
X0434939Y0399017D01*
X0434308Y0399839D01*
X0428887Y0405261D01*
X0428064Y0405892D01*
X0427107Y0406288D01*
X0426079Y0406424D01*
X0415000D01*
X0413972Y0406288D01*
X0413014Y0405892D01*
X0412192Y0405261D01*
X0412089Y0405127D01*
X0407544D01*
X0401497Y0411173D01*
X0401688Y0411635D01*
X0402428D01*
Y0419509D01*
X0399396D01*
X0399297Y0420009D01*
X0399587Y0420130D01*
X0400286Y0420666D01*
X0400305Y0420691D01*
X0402428D01*
Y0428565D01*
X0401275D01*
Y0429234D01*
X0401160Y0430108D01*
X0400921Y0430683D01*
X0400823Y0430922D01*
X0400286Y0431621D01*
X0397904Y0434003D01*
Y0436143D01*
X0397809Y0436863D01*
X0397532Y0437533D01*
X0397090Y0438109D01*
X0396514Y0438551D01*
X0395844Y0438828D01*
X0395124Y0438923D01*
X0393550D01*
X0392830Y0438828D01*
X0392160Y0438551D01*
X0391584Y0438109D01*
X0391142Y0437533D01*
X0390865Y0436863D01*
X0390770Y0436143D01*
Y0429057D01*
X0390865Y0428337D01*
X0391142Y0427667D01*
X0391584Y0427091D01*
X0392160Y0426649D01*
X0392830Y0426372D01*
X0393372Y0426300D01*
Y0424740D01*
X0393314Y0424665D01*
X0389773Y0421124D01*
X0389213Y0421270D01*
X0389182Y0421343D01*
X0388772Y0421878D01*
X0385986Y0424665D01*
X0385928Y0424740D01*
Y0426277D01*
X0387250D01*
X0387970Y0426372D01*
X0388640Y0426649D01*
X0389216Y0427091D01*
X0389658Y0427667D01*
X0389935Y0428337D01*
X0390030Y0429057D01*
Y0436143D01*
X0389935Y0436863D01*
X0389658Y0437533D01*
X0389216Y0438109D01*
X0388640Y0438551D01*
X0387970Y0438828D01*
X0387250Y0438923D01*
X0385676D01*
X0384956Y0438828D01*
X0384286Y0438551D01*
X0383710Y0438109D01*
X0383268Y0437533D01*
X0382991Y0436863D01*
X0382896Y0436143D01*
Y0435806D01*
X0382451Y0435622D01*
X0382212Y0435523D01*
X0381513Y0434987D01*
X0379013Y0432486D01*
X0378477Y0431787D01*
X0378378Y0431549D01*
X0378139Y0430973D01*
X0378024Y0430100D01*
Y0428565D01*
X0376872D01*
Y0420691D01*
X0378994D01*
X0379013Y0420666D01*
X0379712Y0420130D01*
X0380002Y0420009D01*
X0379903Y0419509D01*
X0376872D01*
Y0411635D01*
X0380158D01*
X0381204Y0410590D01*
X0381194Y0410020D01*
X0381184Y0410009D01*
X0380871Y0409782D01*
X0380175Y0409873D01*
X0379404Y0409772D01*
X0378686Y0409474D01*
X0378069Y0409001D01*
X0375040Y0405972D01*
X0374286Y0406071D01*
X0359576D01*
X0354371Y0411276D01*
Y0419368D01*
X0354236Y0420396D01*
X0353839Y0421353D01*
X0353350Y0421990D01*
X0353073Y0422659D01*
X0353119Y0422758D01*
X0353267Y0422974D01*
X0353385Y0423082D01*
X0354140Y0422983D01*
X0354937Y0423088D01*
X0355679Y0423395D01*
X0356316Y0423884D01*
X0356805Y0424522D01*
X0357060Y0425136D01*
X0379682Y0447759D01*
X0381749Y0446378D01*
X0384271Y0445134D01*
X0386935Y0444230D01*
X0389693Y0443681D01*
X0392500Y0443497D01*
X0395307Y0443681D01*
X0398065Y0444230D01*
X0400729Y0445134D01*
X0403251Y0446378D01*
X0405590Y0447941D01*
X0407705Y0449795D01*
X0409559Y0451910D01*
X0411122Y0454249D01*
X0412366Y0456771D01*
X0413270Y0459435D01*
X0413819Y0462193D01*
X0414003Y0465000D01*
X0413819Y0467807D01*
X0413270Y0470565D01*
X0412366Y0473229D01*
X0411122Y0475751D01*
X0409559Y0478090D01*
X0407705Y0480205D01*
X0405590Y0482059D01*
X0403251Y0483622D01*
X0400729Y0484866D01*
X0398065Y0485770D01*
X0395307Y0486319D01*
X0392500Y0486503D01*
D02*
G37*
G36*
X0286600Y0495203D02*
X0283793Y0495019D01*
X0281035Y0494470D01*
X0278371Y0493566D01*
X0275849Y0492322D01*
X0273510Y0490759D01*
X0271395Y0488905D01*
X0269541Y0486790D01*
X0267978Y0484451D01*
X0266734Y0481929D01*
X0265830Y0479265D01*
X0265281Y0476507D01*
X0265097Y0473700D01*
X0265281Y0470893D01*
X0265830Y0468135D01*
X0266734Y0465471D01*
X0267978Y0462949D01*
X0268881Y0461597D01*
X0259192Y0451908D01*
X0258561Y0451086D01*
X0258164Y0450128D01*
X0258029Y0449100D01*
Y0442768D01*
X0252597D01*
X0251569Y0442632D01*
X0250611Y0442236D01*
X0249789Y0441605D01*
X0246938Y0438754D01*
X0246514Y0439037D01*
X0246736Y0439572D01*
X0246871Y0440600D01*
Y0445697D01*
X0248251Y0446378D01*
X0250590Y0447941D01*
X0252705Y0449795D01*
X0254559Y0451910D01*
X0256122Y0454249D01*
X0257366Y0456771D01*
X0258270Y0459435D01*
X0258819Y0462193D01*
X0259003Y0465000D01*
X0258819Y0467807D01*
X0258270Y0470565D01*
X0257366Y0473229D01*
X0256122Y0475751D01*
X0254559Y0478090D01*
X0252705Y0480205D01*
X0250590Y0482059D01*
X0248251Y0483622D01*
X0245729Y0484866D01*
X0243065Y0485770D01*
X0240307Y0486319D01*
X0237500Y0486503D01*
X0234693Y0486319D01*
X0231935Y0485770D01*
X0229271Y0484866D01*
X0226749Y0483622D01*
X0224410Y0482059D01*
X0222295Y0480205D01*
X0220441Y0478090D01*
X0218878Y0475751D01*
X0217634Y0473229D01*
X0216730Y0470565D01*
X0216181Y0467807D01*
X0215997Y0465000D01*
X0216181Y0462193D01*
X0216730Y0459435D01*
X0217634Y0456771D01*
X0218878Y0454249D01*
X0220441Y0451910D01*
X0222295Y0449795D01*
X0224410Y0447941D01*
X0226749Y0446378D01*
X0229271Y0445134D01*
X0231935Y0444230D01*
X0234693Y0443681D01*
X0237500Y0443497D01*
X0238564Y0443567D01*
X0238929Y0443225D01*
Y0442245D01*
X0232352Y0435668D01*
X0231721Y0434845D01*
X0231324Y0433888D01*
X0231189Y0432860D01*
Y0424832D01*
X0231324Y0423805D01*
X0231721Y0422847D01*
X0232210Y0422210D01*
X0232495Y0421522D01*
X0232984Y0420885D01*
X0233621Y0420396D01*
X0234363Y0420088D01*
X0235160Y0419983D01*
X0235915Y0420083D01*
X0236033Y0419975D01*
X0236181Y0419757D01*
X0236227Y0419659D01*
X0235950Y0418990D01*
X0235461Y0418353D01*
X0235064Y0417396D01*
X0234929Y0416368D01*
Y0409632D01*
X0235064Y0408604D01*
X0235461Y0407646D01*
X0236092Y0406824D01*
X0241316Y0401600D01*
X0239124Y0399408D01*
X0238493Y0398586D01*
X0238280Y0398071D01*
X0237432D01*
X0236404Y0397936D01*
X0235446Y0397539D01*
X0234624Y0396908D01*
X0231624Y0393908D01*
X0230993Y0393086D01*
X0230596Y0392128D01*
X0230461Y0391100D01*
Y0380600D01*
X0230596Y0379572D01*
X0230993Y0378614D01*
X0231624Y0377792D01*
X0245671Y0363745D01*
X0246493Y0363114D01*
X0247451Y0362717D01*
X0248479Y0362582D01*
X0251600D01*
X0251878Y0362166D01*
X0251559Y0361397D01*
X0251389Y0360100D01*
X0251559Y0358803D01*
X0252060Y0357594D01*
X0252856Y0356556D01*
X0253894Y0355760D01*
X0255103Y0355259D01*
X0256400Y0355089D01*
X0257697Y0355259D01*
X0258906Y0355760D01*
X0259944Y0356556D01*
X0260652Y0357479D01*
X0264222D01*
X0264250Y0357475D01*
X0266612D01*
X0267280Y0357563D01*
X0267903Y0357821D01*
X0268437Y0358231D01*
X0268848Y0358766D01*
X0269106Y0359389D01*
X0269193Y0360057D01*
Y0361238D01*
X0269136Y0361677D01*
X0270263Y0362805D01*
X0270822Y0362656D01*
X0270983Y0362266D01*
X0271393Y0361732D01*
X0271928Y0361321D01*
X0272551Y0361064D01*
X0272923Y0361014D01*
Y0364147D01*
X0275876D01*
Y0361014D01*
X0276249Y0361064D01*
X0276871Y0361321D01*
X0277406Y0361732D01*
X0277816Y0362266D01*
X0277879Y0362418D01*
X0278420D01*
X0278483Y0362266D01*
X0278893Y0361732D01*
X0279428Y0361321D01*
X0280050Y0361064D01*
X0280423Y0361014D01*
Y0364147D01*
X0283376D01*
Y0361014D01*
X0283749Y0361064D01*
X0284371Y0361321D01*
X0284906Y0361732D01*
X0285085Y0361966D01*
X0285714D01*
X0285893Y0361732D01*
X0286428Y0361321D01*
X0287051Y0361064D01*
X0287719Y0360976D01*
X0290081D01*
X0290749Y0361064D01*
X0291371Y0361321D01*
X0291638Y0361526D01*
X0293161D01*
X0293428Y0361321D01*
X0294051Y0361064D01*
X0294719Y0360976D01*
X0297081D01*
X0297749Y0361064D01*
X0298371Y0361321D01*
X0298639Y0361526D01*
X0302968D01*
X0303112Y0361339D01*
X0303934Y0360708D01*
X0304892Y0360312D01*
X0305319Y0360255D01*
X0308659Y0356915D01*
X0308726Y0356408D01*
X0308984Y0355786D01*
X0309126Y0355600D01*
X0308984Y0355414D01*
X0308726Y0354792D01*
X0308638Y0354123D01*
Y0352942D01*
X0308726Y0352274D01*
X0308929Y0351784D01*
Y0343209D01*
X0305174Y0339454D01*
X0293404D01*
Y0326462D01*
X0306396D01*
Y0329609D01*
X0306728Y0329863D01*
X0307102Y0330150D01*
X0307102Y0330150D01*
X0307102Y0330150D01*
X0315708Y0338757D01*
X0316002Y0339140D01*
X0316339Y0339579D01*
X0316339Y0339579D01*
X0316339Y0339579D01*
X0316668Y0340373D01*
X0316736Y0340537D01*
X0316736Y0340537D01*
X0316826Y0341226D01*
X0316871Y0341565D01*
Y0352600D01*
X0316736Y0353628D01*
X0316339Y0354586D01*
X0315949Y0355093D01*
X0315816Y0355414D01*
X0315674Y0355600D01*
X0315816Y0355786D01*
X0316074Y0356408D01*
X0316162Y0357077D01*
Y0358258D01*
X0316074Y0358926D01*
X0315816Y0359548D01*
X0315406Y0360083D01*
X0314872Y0360493D01*
X0314249Y0360751D01*
X0313742Y0360818D01*
X0312504Y0362056D01*
X0312504Y0362556D01*
X0325239Y0375292D01*
X0325871Y0376115D01*
X0326267Y0377072D01*
X0326403Y0378100D01*
Y0392600D01*
X0326267Y0393628D01*
X0326103Y0394024D01*
X0325871Y0394585D01*
X0325239Y0395408D01*
X0316787Y0403861D01*
X0315964Y0404492D01*
X0315007Y0404888D01*
X0313979Y0405024D01*
X0305702D01*
X0296739Y0413987D01*
X0296040Y0414523D01*
X0295226Y0414860D01*
X0294352Y0414975D01*
X0293479Y0414860D01*
X0292798Y0414578D01*
X0288428D01*
Y0420669D01*
X0286539D01*
X0286531Y0420725D01*
X0286269Y0421358D01*
X0286235Y0421402D01*
X0286456Y0421850D01*
X0288428D01*
Y0429724D01*
X0287375D01*
Y0431634D01*
X0287260Y0432508D01*
X0287161Y0432746D01*
X0286923Y0433322D01*
X0286386Y0434021D01*
X0283504Y0436903D01*
Y0439043D01*
X0283409Y0439763D01*
X0283132Y0440433D01*
X0282690Y0441009D01*
X0282114Y0441451D01*
X0281444Y0441728D01*
X0280724Y0441823D01*
X0279150D01*
X0278430Y0441728D01*
X0277760Y0441451D01*
X0277184Y0441009D01*
X0276742Y0440433D01*
X0276465Y0439763D01*
X0276370Y0439043D01*
Y0431957D01*
X0276465Y0431237D01*
X0276742Y0430567D01*
X0277184Y0429991D01*
X0277760Y0429549D01*
X0278430Y0429272D01*
X0279150Y0429177D01*
X0279372D01*
Y0426150D01*
X0276824Y0423602D01*
X0276234Y0423719D01*
X0276183Y0423843D01*
X0275772Y0424378D01*
X0272586Y0427565D01*
X0272528Y0427640D01*
Y0429177D01*
X0272850D01*
X0273570Y0429272D01*
X0274240Y0429549D01*
X0274816Y0429991D01*
X0275258Y0430567D01*
X0275535Y0431237D01*
X0275630Y0431957D01*
Y0439043D01*
X0275535Y0439763D01*
X0275258Y0440433D01*
X0274816Y0441009D01*
X0274240Y0441451D01*
X0273570Y0441728D01*
X0272850Y0441823D01*
X0271276D01*
X0270556Y0441728D01*
X0269886Y0441451D01*
X0269310Y0441009D01*
X0268868Y0440433D01*
X0268591Y0439763D01*
X0268496Y0439043D01*
Y0436903D01*
X0265613Y0434020D01*
X0265613Y0434020D01*
X0265613Y0434020D01*
X0265401Y0433744D01*
X0265076Y0433321D01*
X0265076Y0433321D01*
X0265076Y0433321D01*
X0264913Y0432926D01*
X0264739Y0432507D01*
Y0432507D01*
X0264739Y0432507D01*
X0264670Y0431979D01*
X0264624Y0431634D01*
X0264624Y0431634D01*
X0264624Y0431634D01*
Y0429687D01*
X0263472D01*
Y0421813D01*
X0265450D01*
X0265649Y0421490D01*
X0265712Y0421313D01*
X0265701Y0421286D01*
X0265655Y0421219D01*
X0265567Y0420962D01*
X0265469Y0420725D01*
X0265458Y0420649D01*
X0265453Y0420632D01*
X0263472D01*
Y0412758D01*
X0267535D01*
X0269147Y0411147D01*
X0269371Y0410975D01*
Y0410052D01*
X0269342Y0410048D01*
X0268720Y0409790D01*
X0268185Y0409380D01*
X0268092Y0409259D01*
X0268061Y0409272D01*
X0267290Y0409373D01*
X0266519Y0409272D01*
X0265801Y0408975D01*
X0265184Y0408501D01*
X0263254Y0406571D01*
X0247576D01*
X0242871Y0411276D01*
Y0416368D01*
X0242736Y0417396D01*
X0242339Y0418353D01*
X0241850Y0418990D01*
X0241573Y0419659D01*
X0241619Y0419758D01*
X0241767Y0419974D01*
X0241885Y0420082D01*
X0242640Y0419983D01*
X0243437Y0420088D01*
X0244179Y0420395D01*
X0244816Y0420884D01*
X0245305Y0421522D01*
X0245590Y0422210D01*
X0246079Y0422847D01*
X0246476Y0423804D01*
X0246611Y0424832D01*
Y0427195D01*
X0254242Y0434826D01*
X0262000D01*
X0263028Y0434961D01*
X0263985Y0435358D01*
X0264808Y0435989D01*
X0265439Y0436811D01*
X0265836Y0437769D01*
X0265971Y0438797D01*
Y0447455D01*
X0274497Y0455981D01*
X0275849Y0455078D01*
X0278371Y0453834D01*
X0281035Y0452930D01*
X0283793Y0452381D01*
X0286600Y0452197D01*
X0289407Y0452381D01*
X0292165Y0452930D01*
X0294829Y0453834D01*
X0297351Y0455078D01*
X0299690Y0456641D01*
X0301805Y0458495D01*
X0303659Y0460610D01*
X0305222Y0462949D01*
X0306466Y0465471D01*
X0307370Y0468135D01*
X0307919Y0470893D01*
X0308103Y0473700D01*
X0307919Y0476507D01*
X0307370Y0479265D01*
X0306466Y0481929D01*
X0305222Y0484451D01*
X0303659Y0486790D01*
X0301805Y0488905D01*
X0299690Y0490759D01*
X0297351Y0492322D01*
X0294829Y0493566D01*
X0292165Y0494470D01*
X0289407Y0495019D01*
X0286600Y0495203D01*
D02*
G37*
G36*
X0201193Y0301323D02*
X0199618D01*
X0198899Y0301228D01*
X0198228Y0300951D01*
X0197653Y0300509D01*
X0197211Y0299933D01*
X0196933Y0299263D01*
X0196838Y0298543D01*
Y0296201D01*
X0196767Y0296028D01*
X0196721Y0295678D01*
X0196216D01*
X0196170Y0296028D01*
X0196098Y0296201D01*
Y0298543D01*
X0196004Y0299263D01*
X0195726Y0299933D01*
X0195284Y0300509D01*
X0194709Y0300951D01*
X0194038Y0301228D01*
X0193319Y0301323D01*
X0191744D01*
X0191025Y0301228D01*
X0190354Y0300951D01*
X0189778Y0300509D01*
X0189337Y0299933D01*
X0189059Y0299263D01*
X0188964Y0298543D01*
Y0297075D01*
X0188896Y0296986D01*
X0188499Y0296028D01*
X0188364Y0295000D01*
Y0288511D01*
X0184613Y0284761D01*
X0183982Y0283938D01*
X0183887Y0283707D01*
X0183348Y0283503D01*
X0182544Y0283836D01*
X0181516Y0283971D01*
X0180488Y0283836D01*
X0179530Y0283439D01*
X0178708Y0282808D01*
X0178077Y0281986D01*
X0177680Y0281028D01*
X0177545Y0280000D01*
Y0275547D01*
X0177680Y0274519D01*
X0178077Y0273562D01*
X0178708Y0272739D01*
X0179014Y0272433D01*
X0178823Y0271971D01*
X0172469D01*
X0172363Y0271957D01*
X0171987Y0272287D01*
Y0273484D01*
X0171852Y0274512D01*
X0171455Y0275470D01*
X0170924Y0276161D01*
X0170841Y0276797D01*
X0170340Y0278006D01*
X0169544Y0279044D01*
X0168506Y0279840D01*
X0167297Y0280341D01*
X0166000Y0280511D01*
X0164703Y0280341D01*
X0163494Y0279840D01*
X0162456Y0279044D01*
X0161660Y0278006D01*
X0161159Y0276797D01*
X0160989Y0275500D01*
X0161159Y0274203D01*
X0161660Y0272994D01*
X0162456Y0271956D01*
X0163494Y0271160D01*
X0164045Y0270932D01*
Y0263547D01*
Y0257000D01*
X0164180Y0255972D01*
X0164577Y0255014D01*
X0165208Y0254192D01*
X0166030Y0253561D01*
X0166988Y0253164D01*
X0168016Y0253029D01*
X0169044Y0253164D01*
X0170001Y0253561D01*
X0170824Y0254192D01*
X0171404Y0254126D01*
X0171505Y0253993D01*
X0172040Y0253583D01*
X0172445Y0253415D01*
Y0257000D01*
Y0260629D01*
X0171987Y0260935D01*
Y0261902D01*
X0174113Y0264029D01*
X0187287D01*
X0187601Y0263753D01*
Y0263480D01*
X0187643Y0263272D01*
X0187626Y0262772D01*
X0186488D01*
Y0257476D01*
X0207512D01*
Y0262772D01*
X0206797D01*
X0206417Y0263272D01*
X0206459Y0263480D01*
Y0269028D01*
X0206952Y0269127D01*
X0207622Y0269575D01*
X0207969Y0269529D01*
X0208997Y0269664D01*
X0209954Y0270061D01*
X0210777Y0270692D01*
X0213229Y0273145D01*
X0213585Y0273609D01*
X0213860Y0273967D01*
X0213860Y0273967D01*
X0213860Y0273968D01*
X0214075Y0274486D01*
X0214257Y0274925D01*
X0214257Y0274925D01*
X0214257Y0274925D01*
X0214323Y0275429D01*
X0214392Y0275953D01*
Y0278391D01*
X0214609Y0278673D01*
X0214907Y0279062D01*
X0214907Y0279062D01*
X0214908Y0279062D01*
X0215095Y0279516D01*
X0215304Y0280019D01*
X0215304Y0280020D01*
X0215304Y0280020D01*
X0215366Y0280492D01*
X0215440Y0281047D01*
X0215440Y0281047D01*
X0215440Y0281048D01*
Y0291000D01*
X0215304Y0292028D01*
X0214908Y0292986D01*
X0214277Y0293808D01*
X0210277Y0297808D01*
X0209454Y0298439D01*
X0208496Y0298836D01*
X0207469Y0298971D01*
X0203916D01*
X0203878Y0299263D01*
X0203600Y0299933D01*
X0203158Y0300509D01*
X0202583Y0300951D01*
X0201912Y0301228D01*
X0201193Y0301323D01*
D02*
G37*
G36*
X0327961Y0285799D02*
X0325697D01*
Y0283732D01*
X0327961D01*
Y0285799D01*
D02*
G37*
G36*
X0435532Y0486713D02*
X0423302D01*
X0423356Y0486027D01*
X0423862Y0483918D01*
X0424692Y0481914D01*
X0425826Y0480064D01*
X0427234Y0478415D01*
X0428883Y0477007D01*
X0430733Y0475873D01*
X0432737Y0475043D01*
X0434846Y0474537D01*
X0435532Y0474483D01*
Y0486713D01*
D02*
G37*
G36*
X0125911D02*
X0113681D01*
Y0474483D01*
X0114367Y0474537D01*
X0116476Y0475043D01*
X0118480Y0475873D01*
X0120329Y0477007D01*
X0121978Y0478415D01*
X0123387Y0480064D01*
X0124520Y0481914D01*
X0125350Y0483918D01*
X0125857Y0486027D01*
X0125911Y0486713D01*
D02*
G37*
G36*
X0333177Y0285799D02*
X0330913D01*
Y0283732D01*
X0333177D01*
Y0285799D01*
D02*
G37*
%LPD*%
G36*
X0139218Y0204165D02*
X0139257Y0204070D01*
X0139405Y0203713D01*
X0139973Y0202973D01*
X0142414Y0200532D01*
X0142359Y0200364D01*
X0142155Y0200084D01*
X0141234Y0200205D01*
X0140206Y0200070D01*
X0139249Y0199673D01*
X0138426Y0199042D01*
X0137795Y0198220D01*
X0137399Y0197262D01*
X0137263Y0196234D01*
X0137399Y0195206D01*
X0137795Y0194249D01*
X0138426Y0193426D01*
X0148420Y0183433D01*
X0148229Y0182971D01*
X0144613D01*
X0131084Y0196500D01*
X0137308Y0202724D01*
X0137622Y0203133D01*
X0138044Y0203456D01*
X0138645Y0204241D01*
X0139218Y0204165D01*
D02*
G37*
G36*
X0140606Y0394483D02*
Y0393557D01*
X0140694Y0392889D01*
X0140952Y0392266D01*
X0141362Y0391732D01*
X0141896Y0391321D01*
X0142519Y0391063D01*
X0142892Y0391014D01*
Y0394147D01*
X0145845D01*
Y0391014D01*
X0146217Y0391063D01*
X0146840Y0391321D01*
X0147118Y0391535D01*
X0147397Y0391321D01*
X0148019Y0391063D01*
X0148687Y0390975D01*
X0149507D01*
X0149727Y0390476D01*
X0149060Y0389606D01*
X0148559Y0388397D01*
X0148389Y0387100D01*
X0148559Y0385803D01*
X0149060Y0384594D01*
X0149856Y0383556D01*
X0150894Y0382760D01*
X0152103Y0382259D01*
X0153400Y0382089D01*
X0154697Y0382259D01*
X0155754Y0382697D01*
X0155952Y0382219D01*
X0156362Y0381684D01*
X0156671Y0381448D01*
X0156680Y0381430D01*
Y0380864D01*
X0156671Y0380847D01*
X0156362Y0380610D01*
X0155952Y0380076D01*
X0155694Y0379453D01*
X0155606Y0378785D01*
Y0377604D01*
X0155584Y0377578D01*
X0148038D01*
X0139821Y0385794D01*
Y0390021D01*
X0136805D01*
X0136706Y0390521D01*
X0137382Y0390801D01*
X0138410Y0391590D01*
X0139199Y0392618D01*
X0139695Y0393815D01*
X0139765Y0394349D01*
X0140106Y0394690D01*
X0140606Y0394483D01*
D02*
G37*
G36*
X0186493Y0404325D02*
Y0402060D01*
X0186477Y0402038D01*
X0186454Y0401984D01*
X0186452Y0401981D01*
X0186194Y0401359D01*
X0186194Y0401355D01*
X0186080Y0401081D01*
X0185945Y0400053D01*
X0186080Y0399025D01*
X0186477Y0398067D01*
X0187047Y0397324D01*
X0187108Y0397245D01*
X0186988Y0396707D01*
X0186862Y0396610D01*
X0186452Y0396076D01*
X0186284Y0395671D01*
X0189869D01*
Y0394194D01*
X0191345D01*
Y0391062D01*
X0191718Y0391111D01*
X0192340Y0391369D01*
X0192844Y0391755D01*
X0192862Y0391732D01*
X0193396Y0391321D01*
X0194019Y0391063D01*
X0194392Y0391014D01*
Y0394147D01*
X0197345D01*
Y0391014D01*
X0197717Y0391063D01*
X0198340Y0391321D01*
X0198868Y0391727D01*
X0199397Y0391321D01*
X0200019Y0391063D01*
X0200392Y0391014D01*
Y0394147D01*
X0201868D01*
Y0395624D01*
X0205498D01*
X0205804Y0396082D01*
X0206802D01*
X0213429Y0389455D01*
Y0376745D01*
X0205791Y0369106D01*
X0192818D01*
X0192566Y0369300D01*
X0192557Y0369317D01*
Y0369883D01*
X0192566Y0369900D01*
X0192874Y0370137D01*
X0193285Y0370672D01*
X0193543Y0371294D01*
X0193630Y0371962D01*
Y0373143D01*
X0193543Y0373811D01*
X0193285Y0374434D01*
X0192874Y0374969D01*
X0192340Y0375379D01*
X0191752Y0375622D01*
X0192241Y0376803D01*
X0192411Y0378100D01*
X0192241Y0379397D01*
X0191740Y0380606D01*
X0190944Y0381644D01*
X0189906Y0382440D01*
X0188697Y0382941D01*
X0187400Y0383111D01*
X0186103Y0382941D01*
X0184894Y0382440D01*
X0183856Y0381644D01*
X0183060Y0380606D01*
X0182559Y0379397D01*
X0182389Y0378100D01*
X0182540Y0376947D01*
X0181515Y0375921D01*
X0181193Y0375501D01*
X0180896Y0375379D01*
X0180629Y0375174D01*
X0179107D01*
X0178840Y0375379D01*
X0178580Y0375486D01*
X0178221Y0375954D01*
X0177434Y0376741D01*
Y0384502D01*
X0177891Y0384748D01*
X0178122Y0384652D01*
X0178790Y0384564D01*
X0179458Y0384652D01*
X0179774Y0384783D01*
X0180090Y0384652D01*
X0180758Y0384564D01*
X0181426Y0384652D01*
X0182049Y0384910D01*
X0182583Y0385320D01*
X0182993Y0385855D01*
X0183251Y0386477D01*
X0183339Y0387145D01*
Y0387556D01*
X0183369Y0387627D01*
X0183458Y0388305D01*
Y0390632D01*
X0183369Y0391310D01*
X0183107Y0391942D01*
X0182690Y0392485D01*
X0182147Y0392901D01*
X0182141Y0392904D01*
X0181657Y0393388D01*
X0181438Y0393535D01*
Y0395124D01*
X0166300D01*
Y0394146D01*
X0166190Y0394131D01*
X0165558Y0393870D01*
X0165015Y0393453D01*
X0159369Y0387806D01*
X0158222Y0388953D01*
X0157912Y0389191D01*
X0157740Y0389606D01*
X0156944Y0390644D01*
X0157042Y0391198D01*
X0157340Y0391321D01*
X0157874Y0391732D01*
X0158285Y0392266D01*
X0158452Y0392671D01*
X0154868D01*
Y0395624D01*
X0158498D01*
X0158804Y0396082D01*
X0160853D01*
X0161881Y0396217D01*
X0162838Y0396614D01*
X0163661Y0397245D01*
X0164292Y0398067D01*
X0164639Y0398905D01*
X0165838Y0400104D01*
X0166300Y0399913D01*
Y0398076D01*
X0181438D01*
Y0401247D01*
X0182049Y0401500D01*
X0182583Y0401911D01*
X0182993Y0402445D01*
X0183251Y0403068D01*
X0183339Y0403736D01*
Y0406055D01*
X0183371Y0406091D01*
X0184727D01*
X0186493Y0404325D01*
D02*
G37*
G36*
X0403905Y0401465D02*
X0404015Y0400628D01*
X0404372Y0399766D01*
X0404940Y0399026D01*
X0405681Y0398458D01*
X0406542Y0398101D01*
X0407223Y0398011D01*
X0407459Y0397573D01*
X0407464Y0397547D01*
X0407463Y0397481D01*
X0407315Y0397124D01*
X0410900D01*
Y0395647D01*
X0412376D01*
Y0392514D01*
X0412749Y0392564D01*
X0413371Y0392821D01*
X0413650Y0393035D01*
X0413928Y0392821D01*
X0414550Y0392564D01*
X0414923Y0392514D01*
Y0395647D01*
X0417876D01*
Y0392514D01*
X0418249Y0392564D01*
X0418871Y0392821D01*
X0418900Y0392843D01*
X0418928Y0392821D01*
X0419551Y0392564D01*
X0419923Y0392514D01*
Y0395647D01*
X0421400D01*
Y0397124D01*
X0424984D01*
X0424912Y0397297D01*
X0425336Y0397580D01*
X0427529Y0395387D01*
Y0382113D01*
X0415224Y0369808D01*
X0414593Y0368986D01*
X0414295Y0368268D01*
X0409639D01*
X0409597Y0368300D01*
X0409588Y0368317D01*
Y0368883D01*
X0409597Y0368900D01*
X0409906Y0369137D01*
X0410316Y0369672D01*
X0410574Y0370294D01*
X0410662Y0370962D01*
Y0372143D01*
X0410574Y0372811D01*
X0410316Y0373434D01*
X0409906Y0373969D01*
X0409371Y0374379D01*
X0408749Y0374637D01*
X0408081Y0374725D01*
X0406203D01*
X0405956Y0375224D01*
X0406240Y0375594D01*
X0406741Y0376803D01*
X0406911Y0378100D01*
X0406741Y0379397D01*
X0406240Y0380606D01*
X0405444Y0381644D01*
X0404406Y0382440D01*
X0403197Y0382941D01*
X0401900Y0383111D01*
X0400603Y0382941D01*
X0399394Y0382440D01*
X0398356Y0381644D01*
X0397560Y0380606D01*
X0397059Y0379397D01*
X0397020Y0379101D01*
X0396520Y0379134D01*
Y0382608D01*
X0396431Y0383286D01*
X0396169Y0383918D01*
X0395753Y0384461D01*
X0395512Y0384647D01*
X0394971Y0385187D01*
X0393968Y0386190D01*
X0394093Y0386503D01*
X0394222Y0386643D01*
X0394821Y0386564D01*
X0395489Y0386652D01*
X0395806Y0386783D01*
X0396122Y0386652D01*
X0396790Y0386564D01*
X0397458Y0386652D01*
X0398080Y0386910D01*
X0398615Y0387320D01*
X0399025Y0387855D01*
X0399283Y0388477D01*
X0399371Y0389145D01*
Y0391464D01*
X0399319Y0391861D01*
Y0392210D01*
X0399126Y0393178D01*
X0398578Y0393998D01*
X0397469Y0395108D01*
Y0397124D01*
X0382331D01*
Y0395535D01*
X0382112Y0395388D01*
X0381706Y0394983D01*
X0381700Y0394980D01*
X0381157Y0394563D01*
X0377853Y0391260D01*
X0377710Y0391370D01*
X0377261Y0391556D01*
X0377240Y0391606D01*
X0376808Y0392168D01*
X0377003Y0392736D01*
X0377371Y0392888D01*
X0377906Y0393299D01*
X0378316Y0393833D01*
X0378484Y0394238D01*
X0374900D01*
Y0397191D01*
X0378484D01*
X0378316Y0397595D01*
X0377906Y0398130D01*
X0377597Y0398367D01*
X0377588Y0398384D01*
Y0398950D01*
X0377597Y0398967D01*
X0377906Y0399204D01*
X0378316Y0399739D01*
X0378574Y0400361D01*
X0378662Y0401029D01*
Y0401170D01*
X0381308Y0403816D01*
X0381720Y0403500D01*
X0382331Y0403247D01*
Y0400076D01*
X0397469D01*
Y0403247D01*
X0398080Y0403500D01*
X0398615Y0403911D01*
X0399025Y0404445D01*
X0399283Y0405068D01*
X0399319Y0405344D01*
X0399847Y0405523D01*
X0403905Y0401465D01*
D02*
G37*
G36*
X0295689Y0405490D02*
X0295510Y0404962D01*
X0294951Y0404888D01*
X0293993Y0404492D01*
X0293645Y0404224D01*
X0291719D01*
X0291051Y0404137D01*
X0290428Y0403879D01*
X0289893Y0403469D01*
X0289483Y0402934D01*
X0289225Y0402311D01*
X0289137Y0401643D01*
Y0400462D01*
X0289225Y0399794D01*
X0289483Y0399172D01*
X0289893Y0398637D01*
X0290202Y0398400D01*
X0290211Y0398383D01*
Y0397817D01*
X0290202Y0397800D01*
X0289893Y0397563D01*
X0289483Y0397028D01*
X0289316Y0396624D01*
X0292900D01*
Y0395147D01*
X0294376D01*
Y0392014D01*
X0294749Y0392063D01*
X0295371Y0392321D01*
X0295900Y0392727D01*
X0296428Y0392321D01*
X0297050Y0392063D01*
X0297423Y0392014D01*
Y0395147D01*
X0300376D01*
Y0392014D01*
X0300749Y0392063D01*
X0301371Y0392321D01*
X0301900Y0392727D01*
X0302428Y0392321D01*
X0303050Y0392063D01*
X0303423Y0392014D01*
Y0395147D01*
X0304900D01*
Y0396624D01*
X0308529D01*
X0308835Y0397082D01*
X0312334D01*
X0318461Y0390955D01*
Y0379745D01*
X0306834Y0368118D01*
X0305920D01*
X0304892Y0367983D01*
X0303934Y0367586D01*
X0303112Y0366955D01*
X0302968Y0366768D01*
X0298639D01*
X0298597Y0366800D01*
X0298588Y0366817D01*
Y0367383D01*
X0298597Y0367400D01*
X0298906Y0367637D01*
X0299316Y0368172D01*
X0299574Y0368794D01*
X0299662Y0369462D01*
Y0370643D01*
X0299574Y0371311D01*
X0299316Y0371934D01*
X0298906Y0372468D01*
X0298371Y0372879D01*
X0297749Y0373136D01*
X0297081Y0373224D01*
X0294719D01*
X0294701Y0373222D01*
X0294430Y0373691D01*
X0294740Y0374094D01*
X0295241Y0375303D01*
X0295411Y0376600D01*
X0295241Y0377897D01*
X0294740Y0379106D01*
X0293944Y0380144D01*
X0292906Y0380940D01*
X0291697Y0381441D01*
X0290400Y0381611D01*
X0289103Y0381441D01*
X0287894Y0380940D01*
X0286856Y0380144D01*
X0286060Y0379106D01*
X0285559Y0377897D01*
X0285389Y0376600D01*
X0285540Y0375447D01*
X0284982Y0374889D01*
X0284520Y0375080D01*
Y0378100D01*
X0284431Y0378779D01*
X0284169Y0379411D01*
X0283753Y0379954D01*
X0283511Y0380139D01*
X0280465Y0383185D01*
Y0386001D01*
X0280923Y0386248D01*
X0281153Y0386152D01*
X0281821Y0386064D01*
X0282489Y0386152D01*
X0282805Y0386283D01*
X0283122Y0386152D01*
X0283790Y0386064D01*
X0284458Y0386152D01*
X0285080Y0386410D01*
X0285615Y0386820D01*
X0286025Y0387355D01*
X0286283Y0387977D01*
X0286371Y0388645D01*
Y0390964D01*
X0286319Y0391361D01*
Y0392210D01*
X0286126Y0393178D01*
X0285578Y0393998D01*
X0284688Y0394888D01*
X0284469Y0395035D01*
Y0396624D01*
X0269331D01*
Y0395369D01*
X0268612Y0394888D01*
X0267051Y0393327D01*
X0267044Y0393324D01*
X0266502Y0392908D01*
X0263150Y0389556D01*
X0262753Y0389953D01*
X0262210Y0390370D01*
X0262011Y0390452D01*
X0261740Y0391106D01*
X0261100Y0391940D01*
X0261144Y0392122D01*
X0261355Y0392428D01*
X0263581D01*
X0264249Y0392516D01*
X0264872Y0392774D01*
X0265406Y0393184D01*
X0265816Y0393719D01*
X0265984Y0394124D01*
X0262400D01*
Y0397076D01*
X0265984D01*
X0265816Y0397481D01*
X0265406Y0398016D01*
X0265098Y0398252D01*
X0265088Y0398270D01*
Y0398836D01*
X0265098Y0398853D01*
X0265406Y0399090D01*
X0265452Y0399149D01*
X0265480Y0399161D01*
X0266302Y0399792D01*
X0266933Y0400615D01*
X0267330Y0401572D01*
X0267429Y0402322D01*
X0268373Y0403266D01*
X0268720Y0403000D01*
X0269331Y0402747D01*
Y0399576D01*
X0284469D01*
Y0402747D01*
X0285080Y0403000D01*
X0285615Y0403411D01*
X0286025Y0403945D01*
X0286283Y0404568D01*
X0286371Y0405236D01*
Y0407555D01*
X0286296Y0408122D01*
X0286578Y0408622D01*
X0292557D01*
X0295689Y0405490D01*
D02*
G37*
G36*
X0143998Y0239500D02*
Y0236500D01*
X0144133Y0235472D01*
X0144530Y0234514D01*
X0145161Y0233692D01*
X0147420Y0231433D01*
X0147229Y0230971D01*
X0139890D01*
Y0231921D01*
X0136874D01*
X0136774Y0232421D01*
X0137451Y0232701D01*
X0138479Y0233490D01*
X0139267Y0234518D01*
X0139763Y0235715D01*
X0139932Y0237000D01*
X0139763Y0238285D01*
X0139373Y0239228D01*
X0139675Y0239728D01*
X0143798D01*
X0143998Y0239500D01*
D02*
G37*
G36*
X0348479Y0381925D02*
Y0378679D01*
X0353205D01*
X0361592Y0370292D01*
X0362415Y0369661D01*
X0363372Y0369264D01*
X0364400Y0369129D01*
X0365428Y0369264D01*
X0366060Y0369526D01*
X0379973D01*
X0380219Y0369026D01*
X0380130Y0368910D01*
X0379869Y0368278D01*
X0379779Y0367600D01*
Y0366751D01*
X0379577Y0366653D01*
X0379279Y0366616D01*
X0378708Y0367361D01*
X0377885Y0367992D01*
X0376927Y0368389D01*
X0375900Y0368524D01*
X0355592D01*
X0347871Y0376245D01*
Y0382120D01*
X0347979Y0382192D01*
X0348479Y0381925D01*
D02*
G37*
G36*
X0248182Y0396528D02*
X0248138Y0396191D01*
Y0395009D01*
X0248226Y0394341D01*
X0248484Y0393719D01*
X0248894Y0393184D01*
X0249428Y0392774D01*
X0250051Y0392516D01*
X0250424Y0392467D01*
Y0395600D01*
X0253376D01*
Y0392467D01*
X0253521Y0392486D01*
X0253535Y0392472D01*
X0253756Y0392013D01*
X0253060Y0391106D01*
X0252559Y0389897D01*
X0252389Y0388600D01*
X0252559Y0387303D01*
X0253060Y0386094D01*
X0253856Y0385056D01*
X0254894Y0384260D01*
X0256103Y0383759D01*
X0257400Y0383589D01*
X0258697Y0383759D01*
X0259906Y0384260D01*
X0260544Y0384750D01*
X0260920Y0384373D01*
X0260893Y0383968D01*
X0260483Y0383434D01*
X0260225Y0382811D01*
X0260137Y0382143D01*
Y0380962D01*
X0260225Y0380294D01*
X0260483Y0379672D01*
X0260893Y0379137D01*
X0261202Y0378900D01*
X0261211Y0378883D01*
Y0378317D01*
X0261202Y0378300D01*
X0260893Y0378063D01*
X0260483Y0377528D01*
X0260225Y0376906D01*
X0260137Y0376238D01*
Y0375057D01*
X0260151Y0374954D01*
X0259821Y0374578D01*
X0256508D01*
X0246853Y0384233D01*
Y0389021D01*
X0243837D01*
X0243737Y0389521D01*
X0244413Y0389801D01*
X0245442Y0390590D01*
X0246230Y0391618D01*
X0246726Y0392815D01*
X0246895Y0394100D01*
X0246726Y0395385D01*
X0246611Y0395663D01*
X0247709Y0396761D01*
X0248182Y0396528D01*
D02*
G37*
G36*
X0169670Y0216663D02*
X0164184Y0211177D01*
X0157921D01*
Y0212921D01*
X0154905D01*
X0154806Y0213421D01*
X0155482Y0213701D01*
X0156427Y0214426D01*
X0162000D01*
X0162925Y0214548D01*
X0163430Y0214757D01*
X0163787Y0214905D01*
X0164527Y0215473D01*
X0166179Y0217125D01*
X0169479D01*
X0169670Y0216663D01*
D02*
G37*
G36*
X0210398Y0218415D02*
X0210802Y0218583D01*
X0211337Y0218993D01*
X0211747Y0219528D01*
X0212005Y0220150D01*
X0212498Y0220080D01*
Y0217536D01*
X0209912Y0214951D01*
X0209496Y0214779D01*
X0208962Y0214369D01*
X0208552Y0213834D01*
X0208294Y0213211D01*
X0208206Y0212543D01*
Y0211362D01*
X0208294Y0210694D01*
X0208295Y0210692D01*
X0206926Y0209323D01*
X0206509Y0208780D01*
X0206487Y0208725D01*
X0196697Y0198935D01*
X0195941Y0198836D01*
X0194983Y0198439D01*
X0194161Y0197808D01*
X0185824Y0189471D01*
X0153613D01*
X0148813Y0194272D01*
X0149004Y0194734D01*
X0157153D01*
X0157237Y0194638D01*
Y0193457D01*
X0157325Y0192789D01*
X0157583Y0192166D01*
X0157993Y0191631D01*
X0158528Y0191221D01*
X0159151Y0190963D01*
X0159523Y0190914D01*
Y0194047D01*
X0161000D01*
Y0194733D01*
X0163854D01*
X0163854Y0194733D01*
X0164533Y0194823D01*
X0164727Y0194903D01*
X0164727Y0194903D01*
X0165165Y0195085D01*
X0165708Y0195501D01*
X0177125Y0206919D01*
X0184206D01*
Y0205957D01*
X0184294Y0205289D01*
X0184552Y0204666D01*
X0184962Y0204132D01*
X0185496Y0203721D01*
X0186119Y0203464D01*
X0186492Y0203414D01*
Y0206547D01*
X0189445D01*
Y0203414D01*
X0189817Y0203464D01*
X0190440Y0203721D01*
X0190974Y0204132D01*
X0191385Y0204666D01*
X0191642Y0205289D01*
X0191730Y0205957D01*
Y0206919D01*
X0196008D01*
X0196686Y0207008D01*
X0196948Y0207116D01*
X0197318Y0207270D01*
X0197861Y0207686D01*
X0207822Y0217647D01*
X0208238Y0218190D01*
X0208262Y0218246D01*
X0208262Y0218246D01*
X0208283Y0218298D01*
X0208500Y0218822D01*
X0208590Y0219500D01*
X0208590Y0219500D01*
Y0222000D01*
X0210398D01*
Y0218415D01*
D02*
G37*
G36*
X0130285Y0235447D02*
X0130670Y0234518D01*
X0131459Y0233490D01*
X0132487Y0232701D01*
X0133163Y0232421D01*
X0133063Y0231921D01*
X0130047D01*
Y0222079D01*
X0139890D01*
Y0223029D01*
X0150975D01*
X0151074Y0222529D01*
X0150518Y0222299D01*
X0149574Y0221574D01*
X0146500D01*
X0145575Y0221452D01*
X0144713Y0221095D01*
X0143973Y0220527D01*
X0143973Y0220527D01*
X0139973Y0216527D01*
X0139405Y0215787D01*
X0139257Y0215430D01*
X0139048Y0214925D01*
X0138926Y0214000D01*
Y0210215D01*
X0138426Y0210045D01*
X0138044Y0210544D01*
X0137006Y0211340D01*
X0135797Y0211841D01*
X0134500Y0212011D01*
X0133203Y0211841D01*
X0131994Y0211340D01*
X0130956Y0210544D01*
X0130160Y0209506D01*
X0129940Y0208974D01*
X0129440Y0209073D01*
Y0235255D01*
X0129809Y0235567D01*
X0130285Y0235447D01*
D02*
G37*
G36*
X0361561Y0397629D02*
X0361483Y0397528D01*
X0361315Y0397124D01*
X0364900D01*
Y0395647D01*
X0366376D01*
Y0392514D01*
X0366749Y0392564D01*
X0367371Y0392821D01*
X0367400Y0392843D01*
X0367428Y0392821D01*
X0368051Y0392564D01*
X0368608Y0392490D01*
X0368897Y0392045D01*
X0368560Y0391606D01*
X0368059Y0390397D01*
X0367889Y0389100D01*
X0368059Y0387803D01*
X0368560Y0386594D01*
X0369356Y0385556D01*
X0370394Y0384760D01*
X0371603Y0384259D01*
X0372900Y0384089D01*
X0374197Y0384259D01*
X0374746Y0384487D01*
X0375143Y0384182D01*
X0375137Y0384143D01*
Y0382962D01*
X0375225Y0382294D01*
X0375483Y0381672D01*
X0375893Y0381137D01*
X0376202Y0380900D01*
X0376211Y0380883D01*
Y0380317D01*
X0376202Y0380300D01*
X0375893Y0380063D01*
X0375483Y0379528D01*
X0375225Y0378906D01*
X0375137Y0378238D01*
Y0377057D01*
X0375138Y0377050D01*
X0374809Y0376674D01*
X0366442D01*
X0358321Y0384794D01*
Y0388521D01*
X0355305D01*
X0355206Y0389021D01*
X0355882Y0389301D01*
X0356910Y0390090D01*
X0357699Y0391118D01*
X0358195Y0392315D01*
X0358364Y0393600D01*
X0358195Y0394885D01*
X0357699Y0396082D01*
X0357625Y0396178D01*
X0359576Y0398129D01*
X0361314D01*
X0361561Y0397629D01*
D02*
G37*
G36*
X0196838Y0293375D02*
Y0291457D01*
X0196933Y0290737D01*
X0197211Y0290067D01*
X0197653Y0289491D01*
X0198228Y0289049D01*
X0198899Y0288772D01*
X0199618Y0288677D01*
X0201193D01*
X0201912Y0288772D01*
X0202583Y0289049D01*
X0203158Y0289491D01*
X0203600Y0290067D01*
X0203878Y0290737D01*
X0203916Y0291029D01*
X0205824D01*
X0207498Y0289355D01*
Y0283305D01*
X0206998Y0283059D01*
X0206501Y0283439D01*
X0205544Y0283836D01*
X0204516Y0283971D01*
X0202969D01*
X0202969Y0283971D01*
X0202969Y0283971D01*
X0202427Y0283900D01*
X0201941Y0283836D01*
X0201941Y0283836D01*
X0201941Y0283836D01*
X0201420Y0283620D01*
X0200983Y0283439D01*
X0200983Y0283439D01*
X0200983Y0283439D01*
X0200558Y0283113D01*
X0200161Y0282808D01*
X0200161Y0282808D01*
X0200161Y0282808D01*
X0197661Y0280308D01*
X0197304Y0279844D01*
X0197030Y0279486D01*
X0197030Y0279485D01*
X0197030Y0279485D01*
X0196815Y0278967D01*
X0196764Y0278843D01*
X0196191Y0278768D01*
X0195776Y0279308D01*
X0193084Y0282000D01*
X0195142Y0284058D01*
X0195774Y0284881D01*
X0196170Y0285838D01*
X0196306Y0286866D01*
Y0293166D01*
X0196806Y0293402D01*
X0196838Y0293375D01*
D02*
G37*
G36*
X0150161Y0248692D02*
X0150983Y0248061D01*
X0151941Y0247664D01*
X0152969Y0247529D01*
X0153996Y0247664D01*
X0154068Y0247694D01*
X0154848Y0246914D01*
Y0246262D01*
X0154173D01*
X0153996Y0246335D01*
X0152968Y0246471D01*
X0152240D01*
X0151854Y0246767D01*
X0150944Y0247144D01*
X0149968Y0247272D01*
X0133149D01*
X0132996Y0247336D01*
X0131969Y0247471D01*
X0130941Y0247336D01*
X0129983Y0246939D01*
X0129161Y0246308D01*
X0122661Y0239808D01*
X0122030Y0238985D01*
X0121633Y0238028D01*
X0121498Y0237000D01*
Y0196500D01*
Y0196500D01*
Y0196500D01*
X0121569Y0195959D01*
X0121633Y0195472D01*
X0121633Y0195472D01*
Y0195472D01*
X0121817Y0195027D01*
X0121855Y0194937D01*
X0121431Y0194653D01*
X0119940Y0196145D01*
Y0242355D01*
X0126613Y0249029D01*
X0149824D01*
X0150161Y0248692D01*
D02*
G37*
G36*
X0343579Y0260079D02*
X0346595D01*
X0346694Y0259579D01*
X0346018Y0259299D01*
X0344990Y0258510D01*
X0344351Y0257677D01*
X0331358D01*
Y0260154D01*
X0331283Y0260720D01*
X0331584Y0261220D01*
X0343579D01*
Y0260079D01*
D02*
G37*
%LPC*%
G36*
X0188392Y0392718D02*
X0186284D01*
X0186452Y0392313D01*
X0186862Y0391779D01*
X0187397Y0391369D01*
X0188020Y0391111D01*
X0188392Y0391062D01*
Y0392718D01*
D02*
G37*
G36*
X0291423Y0393671D02*
X0289316D01*
X0289483Y0393266D01*
X0289893Y0392731D01*
X0290428Y0392321D01*
X0291051Y0392063D01*
X0291423Y0392014D01*
Y0393671D01*
D02*
G37*
G36*
X0164584Y0192571D02*
X0162476D01*
Y0190914D01*
X0162849Y0190963D01*
X0163471Y0191221D01*
X0164006Y0191631D01*
X0164416Y0192166D01*
X0164584Y0192571D01*
D02*
G37*
G36*
X0205452Y0392671D02*
X0203345D01*
Y0391014D01*
X0203717Y0391063D01*
X0204340Y0391321D01*
X0204874Y0391732D01*
X0205285Y0392266D01*
X0205452Y0392671D01*
D02*
G37*
G36*
X0409423Y0394171D02*
X0407315D01*
X0407483Y0393766D01*
X0407893Y0393232D01*
X0408428Y0392821D01*
X0409051Y0392564D01*
X0409423Y0392514D01*
Y0394171D01*
D02*
G37*
G36*
X0424984D02*
X0422876D01*
Y0392514D01*
X0423249Y0392564D01*
X0423871Y0392821D01*
X0424406Y0393232D01*
X0424816Y0393766D01*
X0424984Y0394171D01*
D02*
G37*
G36*
X0308484Y0393671D02*
X0306376D01*
Y0392014D01*
X0306749Y0392063D01*
X0307371Y0392321D01*
X0307906Y0392731D01*
X0308316Y0393266D01*
X0308484Y0393671D01*
D02*
G37*
G36*
X0363423Y0394171D02*
X0361315D01*
X0361483Y0393766D01*
X0361893Y0393232D01*
X0362428Y0392821D01*
X0363051Y0392564D01*
X0363423Y0392514D01*
Y0394171D01*
D02*
G37*
%LPD*%
D10*
X0397900Y0416732D02*
D03*
Y0425787D02*
D03*
X0381400Y0416732D02*
D03*
Y0425787D02*
D03*
X0283900Y0416732D02*
D03*
Y0425787D02*
D03*
X0268000Y0416732D02*
D03*
Y0425787D02*
D03*
X0180700Y0412795D02*
D03*
Y0421850D02*
D03*
X0165700Y0412795D02*
D03*
Y0421850D02*
D03*
D11*
X0427900Y0354533D02*
D03*
Y0358667D02*
D03*
X0312400Y0353533D02*
D03*
Y0357667D02*
D03*
X0203869Y0352533D02*
D03*
Y0356667D02*
D03*
X0222968Y0233453D02*
D03*
Y0227547D02*
D03*
X0224968Y0215453D02*
D03*
Y0209547D02*
D03*
X0211968Y0206047D02*
D03*
Y0211953D02*
D03*
X0246468Y0216047D02*
D03*
Y0221953D02*
D03*
X0237968Y0206547D02*
D03*
Y0212453D02*
D03*
X0177468Y0231953D02*
D03*
Y0226047D02*
D03*
X0161000Y0199953D02*
D03*
Y0194047D02*
D03*
X0187968Y0206547D02*
D03*
Y0212453D02*
D03*
X0160400Y0364147D02*
D03*
Y0370053D02*
D03*
X0375900Y0358647D02*
D03*
Y0364553D02*
D03*
X0406900Y0365647D02*
D03*
Y0371553D02*
D03*
X0421400Y0401553D02*
D03*
Y0395647D02*
D03*
X0410900Y0401553D02*
D03*
Y0395647D02*
D03*
X0374900Y0401620D02*
D03*
Y0395714D02*
D03*
X0364900Y0401553D02*
D03*
Y0395647D02*
D03*
X0400400Y0371553D02*
D03*
Y0365647D02*
D03*
X0387400D02*
D03*
Y0371553D02*
D03*
X0416400Y0401553D02*
D03*
Y0395647D02*
D03*
X0369900Y0401553D02*
D03*
Y0395647D02*
D03*
X0393900Y0365647D02*
D03*
Y0371553D02*
D03*
X0378900Y0383553D02*
D03*
Y0377647D02*
D03*
X0265431Y0360647D02*
D03*
Y0366553D02*
D03*
X0288900Y0364147D02*
D03*
Y0370053D02*
D03*
X0304900Y0401053D02*
D03*
Y0395147D02*
D03*
X0292900Y0401053D02*
D03*
Y0395147D02*
D03*
X0262400Y0401506D02*
D03*
Y0395600D02*
D03*
X0251900Y0401506D02*
D03*
Y0395600D02*
D03*
X0295900Y0370053D02*
D03*
Y0364147D02*
D03*
X0274400D02*
D03*
Y0370053D02*
D03*
X0298900Y0401053D02*
D03*
Y0395147D02*
D03*
X0257400Y0401506D02*
D03*
Y0395600D02*
D03*
X0281900Y0364147D02*
D03*
Y0370053D02*
D03*
X0263900Y0381553D02*
D03*
Y0375647D02*
D03*
X0183368Y0366647D02*
D03*
Y0372553D02*
D03*
X0201868Y0400053D02*
D03*
Y0394147D02*
D03*
X0189869Y0400100D02*
D03*
Y0394194D02*
D03*
X0154868Y0400053D02*
D03*
Y0394147D02*
D03*
X0144368Y0400053D02*
D03*
Y0394147D02*
D03*
X0195868Y0400053D02*
D03*
Y0394147D02*
D03*
X0149868Y0400053D02*
D03*
Y0394147D02*
D03*
X0176368Y0366647D02*
D03*
Y0372553D02*
D03*
X0159369Y0384100D02*
D03*
Y0378194D02*
D03*
X0169368Y0366647D02*
D03*
Y0372553D02*
D03*
X0189868D02*
D03*
Y0366647D02*
D03*
X0360437Y0231933D02*
D03*
Y0236067D02*
D03*
D12*
X0224900Y0332958D02*
D03*
Y0315242D02*
D03*
X0299900D02*
D03*
Y0332958D02*
D03*
X0383900Y0315242D02*
D03*
Y0332958D02*
D03*
D13*
X0190110Y0248520D02*
D03*
X0192079D02*
D03*
X0194047D02*
D03*
X0196016D02*
D03*
X0197984D02*
D03*
X0199953D02*
D03*
X0201921D02*
D03*
X0203890D02*
D03*
X0190110Y0263480D02*
D03*
X0192079D02*
D03*
X0194047D02*
D03*
X0196016D02*
D03*
X0197984D02*
D03*
X0199953D02*
D03*
X0201921D02*
D03*
X0203890D02*
D03*
D14*
X0197000Y0256000D02*
D03*
D15*
X0187421Y0280000D02*
D03*
X0181516D02*
D03*
X0210421D02*
D03*
X0204516D02*
D03*
X0203016Y0222000D02*
D03*
X0208921D02*
D03*
X0160421Y0242500D02*
D03*
X0154516D02*
D03*
X0168016Y0257000D02*
D03*
X0173921D02*
D03*
D16*
X0350400Y0419368D02*
D03*
X0346660Y0427832D02*
D03*
X0238900Y0416368D02*
D03*
X0235160Y0424832D02*
D03*
X0134128Y0420332D02*
D03*
X0137869Y0411868D02*
D03*
D17*
X0354140Y0427832D02*
D03*
X0242640Y0424832D02*
D03*
X0141609Y0420332D02*
D03*
D18*
X0388916Y0390305D02*
D03*
X0386947D02*
D03*
X0384979D02*
D03*
X0383010D02*
D03*
X0390884D02*
D03*
X0392853D02*
D03*
X0394821D02*
D03*
X0396790D02*
D03*
Y0406895D02*
D03*
X0394821D02*
D03*
X0392853D02*
D03*
X0390884D02*
D03*
X0383010D02*
D03*
X0384979D02*
D03*
X0386947D02*
D03*
X0388916D02*
D03*
X0275916Y0389805D02*
D03*
X0273947D02*
D03*
X0271979D02*
D03*
X0270010D02*
D03*
X0277884D02*
D03*
X0279853D02*
D03*
X0281821D02*
D03*
X0283790D02*
D03*
Y0406395D02*
D03*
X0281821D02*
D03*
X0279853D02*
D03*
X0277884D02*
D03*
X0270010D02*
D03*
X0271979D02*
D03*
X0273947D02*
D03*
X0275916D02*
D03*
X0172884Y0388305D02*
D03*
X0170916D02*
D03*
X0168947D02*
D03*
X0166979D02*
D03*
X0174853D02*
D03*
X0176821D02*
D03*
X0178790D02*
D03*
X0180758D02*
D03*
Y0404895D02*
D03*
X0178790D02*
D03*
X0176821D02*
D03*
X0174853D02*
D03*
X0166979D02*
D03*
X0168947D02*
D03*
X0170916D02*
D03*
X0172884D02*
D03*
D19*
X0389900Y0398600D02*
D03*
X0276900Y0398100D02*
D03*
X0173869Y0396600D02*
D03*
D20*
X0325252Y0181500D02*
D03*
X0314622D02*
D03*
D21*
X0312000Y0284815D02*
D03*
Y0274185D02*
D03*
X0231000Y0228685D02*
D03*
Y0239315D02*
D03*
D22*
X0313323Y0235941D02*
D03*
X0315882D02*
D03*
X0318441D02*
D03*
X0321000D02*
D03*
X0323559D02*
D03*
X0326118D02*
D03*
X0328677D02*
D03*
X0313323Y0258185D02*
D03*
X0315882D02*
D03*
X0318441D02*
D03*
X0321000D02*
D03*
X0323559D02*
D03*
X0326118D02*
D03*
X0328677D02*
D03*
D23*
X0321000Y0247063D02*
D03*
D24*
X0200406Y0295000D02*
D03*
X0192531D02*
D03*
X0386463Y0432600D02*
D03*
X0394337D02*
D03*
X0272063Y0435500D02*
D03*
X0279937D02*
D03*
X0168931Y0430600D02*
D03*
X0176806D02*
D03*
D25*
X0329008Y0205000D02*
D03*
X0312866D02*
D03*
D26*
X0329437Y0282256D02*
D03*
Y0276744D02*
D03*
D27*
X0397900Y0425600D02*
Y0429234D01*
X0381400Y0425600D02*
Y0430100D01*
X0268082Y0425870D02*
X0270630D01*
X0273947Y0422553D01*
X0277884Y0421012D02*
X0284000Y0427127D01*
X0394900Y0411007D02*
X0398013D01*
X0407468Y0401553D01*
X0273947Y0406395D02*
Y0422553D01*
X0275916Y0420973D02*
Y0425300D01*
X0277884Y0406395D02*
Y0421012D01*
X0279853Y0412553D02*
X0283900Y0416600D01*
Y0417972D01*
X0281919Y0409581D02*
X0283938Y0411600D01*
X0168700Y0408400D02*
Y0408468D01*
X0165868Y0411300D02*
X0168700Y0408468D01*
X0165735Y0421734D02*
X0168916Y0418553D01*
X0383010Y0390305D02*
Y0392710D01*
X0196035Y0270666D02*
X0196270Y0270431D01*
X0197969D01*
Y0263496D02*
Y0270431D01*
X0195984Y0239700D02*
Y0248520D01*
Y0234984D02*
Y0239700D01*
X0184000Y0215000D02*
X0199750Y0230750D01*
X0384979Y0377679D02*
Y0390305D01*
X0380400Y0373100D02*
X0384979Y0377679D01*
X0267432Y0371600D02*
X0271932Y0376100D01*
X0270010Y0389805D02*
Y0392553D01*
X0176821Y0385179D02*
Y0388305D01*
X0168947Y0380132D02*
Y0388305D01*
X0166979D02*
Y0390710D01*
X0315882Y0229945D02*
Y0235941D01*
X0313323Y0230386D02*
Y0235941D01*
X0168916Y0418553D02*
X0170916Y0416553D01*
X0162136Y0400053D02*
X0166842Y0404758D01*
X0185869Y0408600D02*
X0189869Y0404600D01*
X0170916Y0374100D02*
Y0388305D01*
X0174853Y0375616D02*
Y0388305D01*
X0279853Y0406395D02*
Y0412553D01*
X0381400Y0425600D02*
X0386947Y0420053D01*
Y0406895D02*
Y0420053D01*
X0390884Y0418584D02*
X0397900Y0425600D01*
X0390884Y0406895D02*
Y0418584D01*
X0392853Y0412100D02*
X0397900Y0417147D01*
X0392853Y0406895D02*
Y0412100D01*
X0201890Y0223126D02*
Y0246000D01*
X0277884Y0382116D02*
X0281900Y0378100D01*
X0277884Y0382116D02*
Y0389805D01*
X0275916Y0373300D02*
Y0389805D01*
X0273947Y0370195D02*
Y0375741D01*
X0273928Y0375761D02*
X0273947Y0375741D01*
X0273928Y0375761D02*
Y0377408D01*
X0273947Y0377427D01*
Y0389805D01*
X0386947Y0372005D02*
Y0390305D01*
X0178790Y0386310D02*
Y0388305D01*
X0194016Y0248520D02*
Y0250783D01*
X0318441Y0231292D02*
Y0235941D01*
X0321000Y0231600D02*
Y0235941D01*
X0149868Y0394147D02*
X0154868D01*
X0369900Y0395647D02*
X0374833D01*
X0388916Y0406895D02*
Y0421906D01*
X0257400Y0395600D02*
X0262400D01*
X0259353Y0375647D02*
X0263900D01*
X0251900Y0395600D02*
X0257400D01*
X0208921Y0222000D02*
Y0226421D01*
X0373453Y0377647D02*
X0378900D01*
X0364900Y0395647D02*
X0369900D01*
X0388916Y0375300D02*
X0390416Y0373800D01*
X0390500D01*
Y0373008D02*
Y0373800D01*
Y0373008D02*
X0390549Y0372959D01*
Y0363051D02*
Y0372959D01*
Y0363051D02*
X0390600Y0363000D01*
X0275916Y0406395D02*
Y0420973D01*
Y0373300D02*
X0278000Y0371216D01*
Y0361800D02*
Y0371216D01*
Y0361800D02*
X0278100Y0361700D01*
X0144368Y0394147D02*
X0149868D01*
X0155106Y0378194D02*
X0159369D01*
X0170916Y0404895D02*
Y0416553D01*
X0172884Y0404895D02*
Y0418818D01*
X0388916Y0375300D02*
Y0390305D01*
X0392853Y0387293D02*
Y0390305D01*
Y0387293D02*
X0397323Y0382823D01*
X0394821Y0388137D02*
Y0390305D01*
X0390884Y0385624D02*
Y0390305D01*
Y0385624D02*
X0391638Y0384870D01*
X0393146Y0383362D02*
X0393900Y0382608D01*
X0391638Y0384870D02*
X0393146Y0383362D01*
X0394821Y0388137D02*
X0397179Y0385779D01*
X0178790Y0386310D02*
X0181600Y0383500D01*
X0176821Y0385179D02*
X0178300Y0383700D01*
X0298443Y0367100D02*
X0298588Y0366955D01*
X0191880Y0369206D02*
X0192557Y0369883D01*
X0281900Y0364147D02*
X0284344D01*
X0286903Y0366706D01*
X0298049D01*
X0298443Y0367100D01*
X0176368Y0366647D02*
X0178813D01*
X0181372Y0369206D01*
X0191880D01*
X0393900Y0365647D02*
X0397250D01*
Y0367053D01*
X0398403Y0368206D01*
X0408911D01*
X0409588Y0368883D01*
D28*
X0268000Y0425953D02*
X0268082Y0425870D01*
X0165868Y0411300D02*
Y0412100D01*
X0378900Y0388600D02*
X0383010Y0392710D01*
X0378900Y0383553D02*
Y0386600D01*
X0315882Y0258185D02*
Y0263618D01*
X0307437Y0267500D02*
X0311427Y0263510D01*
X0313323D01*
X0313431Y0263618D01*
X0315882D01*
X0313323Y0258185D02*
Y0263510D01*
X0193500Y0252500D02*
X0195032Y0254032D01*
X0326118Y0261618D02*
X0328500Y0264000D01*
X0326118Y0258185D02*
Y0261618D01*
X0323559Y0258185D02*
Y0263559D01*
X0188806Y0394194D02*
X0189869D01*
X0159369Y0384100D02*
X0166869Y0391600D01*
X0284400Y0370053D02*
X0288900D01*
X0281900D02*
X0284400D01*
Y0370600D01*
X0290400Y0376600D01*
X0264884Y0360100D02*
X0265431Y0360647D01*
X0256400Y0360100D02*
X0264884D01*
X0152400Y0363600D02*
X0159852D01*
X0183368Y0372553D02*
Y0374068D01*
X0187400Y0378100D01*
X0373852Y0356600D02*
X0375900Y0358647D01*
X0367400Y0356600D02*
X0373852D01*
X0395353Y0371553D02*
X0400400D01*
X0393900D02*
X0395353D01*
X0401900Y0378100D01*
X0141234Y0196234D02*
X0142354Y0197354D01*
X0163854D01*
X0176039Y0209539D01*
X0196008D01*
X0201890Y0223126D02*
X0203016Y0222000D01*
X0181969Y0239500D02*
X0189984Y0247516D01*
X0328677Y0255740D02*
X0329500Y0254917D01*
X0386353Y0371553D02*
X0387400D01*
X0382400Y0367600D02*
X0386353Y0371553D01*
X0382400Y0365148D02*
Y0367600D01*
X0375900Y0358647D02*
X0382400Y0365148D01*
X0321000Y0243126D02*
Y0246000D01*
X0374286Y0401553D02*
X0374833D01*
X0374900Y0401620D01*
X0328677Y0230000D02*
Y0235941D01*
Y0255740D02*
Y0258185D01*
X0311000Y0228063D02*
X0314000D01*
X0315882Y0229945D01*
X0311000Y0228063D02*
X0313323Y0230386D01*
X0176821Y0409600D02*
X0180368Y0413147D01*
X0169368Y0372553D02*
X0170916Y0374100D01*
X0174853Y0375616D02*
X0176368Y0374100D01*
Y0372553D02*
X0183368D01*
X0189868D01*
X0288900Y0370053D02*
X0295900D01*
X0288900Y0364147D02*
X0295900D01*
X0305920D01*
X0380175Y0406895D02*
X0382400D01*
X0374833Y0395647D02*
X0374900Y0395714D01*
X0400400Y0371553D02*
X0406900D01*
X0192969Y0276500D02*
X0195969Y0273500D01*
Y0263496D02*
X0195984Y0263480D01*
X0187968Y0212453D02*
Y0213578D01*
Y0212453D02*
X0195015Y0219500D01*
X0200516D01*
X0203016Y0222000D01*
X0205969Y0219500D02*
Y0244000D01*
X0159469Y0238000D02*
X0167469D01*
X0157469Y0240000D02*
X0159469Y0238000D01*
X0157469Y0240000D02*
Y0248000D01*
X0231469Y0212500D02*
X0237421Y0206547D01*
X0237968D01*
X0224968Y0215453D02*
X0234516D01*
X0237516Y0212453D01*
X0224468Y0209047D02*
X0224968Y0209547D01*
X0152469Y0253000D02*
X0157469Y0248000D01*
X0321000Y0258185D02*
Y0269563D01*
X0196008Y0209539D02*
X0205969Y0219500D01*
X0196969Y0195000D02*
Y0195500D01*
X0208779Y0207311D01*
Y0207469D01*
X0210270Y0208961D01*
X0214929D01*
X0220469Y0214500D01*
Y0216740D01*
X0225469Y0221740D01*
Y0223000D01*
X0211969Y0206047D02*
X0216016D01*
X0222469Y0212500D02*
X0231469D01*
X0263900Y0386600D02*
X0268355Y0391055D01*
X0281900Y0370053D02*
Y0378100D01*
X0267290Y0406395D02*
X0269400D01*
X0268000Y0416000D02*
X0271000Y0413000D01*
X0381400Y0414100D02*
X0384900Y0410600D01*
X0381400Y0414100D02*
Y0417147D01*
X0313323Y0256114D02*
Y0258185D01*
X0193681Y0251118D02*
X0194016Y0250783D01*
X0153400Y0387100D02*
X0156369D01*
X0159369Y0384100D01*
X0263900Y0381553D02*
Y0385100D01*
Y0386600D01*
X0257900Y0388100D02*
X0260900D01*
X0257400Y0388600D02*
X0257900Y0388100D01*
X0260900D02*
X0263900Y0385100D01*
X0372900Y0389100D02*
X0376400D01*
X0378900Y0386600D01*
Y0388600D01*
X0160658Y0363842D02*
X0169368Y0372553D01*
X0264915Y0361163D02*
X0273947Y0370195D01*
X0180837Y0388305D02*
Y0390632D01*
X0348000Y0254500D02*
X0348500Y0254000D01*
X0400400Y0365647D02*
X0406900D01*
X0423853D01*
X0174900Y0417100D02*
X0179700Y0421900D01*
X0393900Y0371553D02*
Y0382608D01*
X0176368Y0372553D02*
Y0374100D01*
D29*
X0284000Y0427127D02*
Y0431634D01*
X0294352Y0411600D02*
X0304900Y0401053D01*
X0165735Y0421734D02*
Y0427600D01*
X0160000Y0225000D02*
X0164500Y0220500D01*
X0181500D01*
X0136947Y0370053D02*
X0160400D01*
X0195400Y0365135D02*
X0203869Y0356667D01*
X0165735Y0427600D02*
X0168735Y0430600D01*
X0177002D02*
X0180369Y0427234D01*
Y0421800D02*
Y0427234D01*
X0189869Y0400100D02*
Y0404600D01*
X0280134Y0435500D02*
X0284000Y0431634D01*
X0268000Y0431634D02*
X0271866Y0435500D01*
X0268000Y0425953D02*
Y0431634D01*
X0383900Y0432600D02*
X0386266D01*
X0381400Y0430100D02*
X0383900Y0432600D01*
X0394534D02*
X0397900Y0429234D01*
D30*
X0394900Y0406895D02*
Y0411100D01*
X0271000Y0413000D02*
X0271900Y0412100D01*
Y0406395D02*
Y0412100D01*
X0281900Y0406395D02*
Y0409600D01*
X0168869Y0405901D02*
Y0408231D01*
X0168700Y0408400D02*
X0168869Y0408231D01*
X0194016Y0263480D02*
Y0267953D01*
X0395400Y0393600D02*
X0396790Y0392210D01*
X0383900Y0393600D02*
X0395400D01*
X0383010Y0392710D02*
X0383900Y0393600D01*
X0282900Y0393100D02*
X0283790Y0392210D01*
X0270400Y0393100D02*
X0282900D01*
X0268355Y0391055D02*
X0270400Y0393100D01*
X0179869Y0391600D02*
X0180837Y0390632D01*
X0166869Y0391600D02*
X0179869D01*
X0178790Y0404895D02*
Y0407021D01*
X0180369Y0408600D01*
X0271932Y0376100D02*
Y0388942D01*
X0283790Y0389805D02*
Y0392210D01*
X0396790Y0390305D02*
Y0392210D01*
X0176821Y0405822D02*
Y0409600D01*
X0313323Y0256114D02*
X0315130Y0254307D01*
X0384900Y0406895D02*
Y0410600D01*
X0174774Y0404895D02*
Y0417006D01*
D31*
X0407468Y0401553D02*
X0410900D01*
X0321000Y0247063D02*
X0324937D01*
X0142500Y0205500D02*
X0147654Y0200346D01*
X0142500Y0205500D02*
Y0214000D01*
X0146500Y0218000D01*
X0153000D01*
X0162000D02*
X0164500Y0220500D01*
X0153000Y0218000D02*
X0162000D01*
X0203869Y0352533D02*
X0215369D01*
X0122900Y0384100D02*
X0136947Y0370053D01*
X0122900Y0386600D02*
X0131400Y0395100D01*
X0122900Y0384100D02*
Y0386600D01*
X0364400Y0373100D02*
X0380400D01*
X0241932Y0384100D02*
X0254432Y0371600D01*
X0410900Y0401553D02*
X0416400D01*
X0211968Y0211953D02*
X0216469Y0216453D01*
X0147654Y0200346D02*
X0161000D01*
X0416000Y0207000D02*
X0417000Y0206000D01*
D32*
X0283938Y0411600D02*
X0294352D01*
X0254432Y0371600D02*
X0267432D01*
X0163022Y0374600D02*
X0168554Y0380132D01*
X0145400Y0374600D02*
X0163022D01*
X0263494Y0402600D02*
X0267290Y0406395D01*
X0374900Y0401620D02*
X0380175Y0406895D01*
X0321000Y0269563D02*
X0327937Y0276500D01*
X0329437D01*
X0160421Y0242500D02*
X0163593D01*
D33*
X0262000Y0449100D02*
X0286600Y0473700D01*
X0262000Y0438797D02*
Y0449100D01*
X0172469Y0268000D02*
X0187287D01*
X0295437Y0267500D02*
X0307437D01*
X0125469Y0196500D02*
X0134500Y0205532D01*
X0346660Y0427832D02*
Y0438360D01*
X0349400Y0441100D01*
Y0447100D01*
X0141234Y0196234D02*
X0151969Y0185500D01*
X0169421Y0226047D02*
X0177468D01*
X0162969Y0232500D02*
X0169421Y0226047D01*
X0157469Y0227000D02*
X0161969Y0222500D01*
X0134969Y0227000D02*
X0157469D01*
X0177468Y0231953D02*
Y0235000D01*
X0354140Y0427832D02*
X0383904Y0457596D01*
X0242640Y0424832D02*
Y0428840D01*
X0252597Y0438797D01*
X0262000D01*
X0235160Y0424832D02*
Y0432860D01*
X0242900Y0440600D01*
Y0447600D01*
X0141609Y0420332D02*
Y0427309D01*
X0134128Y0420332D02*
Y0431328D01*
X0139900Y0437100D01*
Y0447600D01*
X0215369Y0352533D02*
X0224900Y0343002D01*
X0312900Y0341565D02*
Y0352600D01*
X0304294Y0332958D02*
X0312900Y0341565D01*
X0426079Y0402453D02*
X0431500Y0397032D01*
Y0380469D02*
Y0397032D01*
X0418032Y0367000D02*
X0431500Y0380469D01*
X0353900Y0383600D02*
X0364400Y0373100D01*
X0353947Y0364553D02*
X0375900D01*
X0343900Y0374600D02*
X0353947Y0364553D01*
X0343900Y0374600D02*
Y0384100D01*
X0353400Y0393600D01*
Y0397569D01*
X0357932Y0402100D01*
X0248479Y0366553D02*
X0265431D01*
X0234432Y0380600D02*
X0248479Y0366553D01*
X0234432Y0380600D02*
Y0391100D01*
X0237432Y0394100D01*
X0241932D01*
X0245932Y0402600D02*
X0247932D01*
X0241932Y0396600D02*
X0247932Y0402600D01*
X0241932Y0394100D02*
Y0396600D01*
X0134900Y0385100D02*
X0145400Y0374600D01*
X0137869Y0398069D02*
Y0406552D01*
X0134900Y0395100D02*
X0137869Y0398069D01*
X0131900Y0395100D02*
X0134900D01*
X0292500Y0274063D02*
X0303252Y0284815D01*
X0288500Y0270063D02*
X0292500Y0274063D01*
Y0270437D02*
X0295437Y0267500D01*
X0292500Y0270437D02*
Y0274063D01*
X0288500Y0166500D02*
Y0270063D01*
X0153400Y0315600D02*
X0224542D01*
X0383900Y0332958D02*
X0405475Y0354533D01*
X0427900D01*
X0299900Y0332958D02*
X0304294D01*
X0224900D02*
Y0343002D01*
X0299900Y0315242D02*
X0383900D01*
X0224900D02*
X0299900D01*
X0350400Y0409632D02*
X0357932Y0402100D01*
X0350400Y0409632D02*
Y0419368D01*
X0416400Y0401553D02*
X0421400D01*
X0415000Y0402453D02*
X0426079D01*
X0298900Y0401053D02*
X0304900D01*
X0295979D02*
X0298900D01*
X0305920Y0364147D02*
X0308479D01*
X0322432Y0378100D01*
Y0392600D01*
X0313979Y0401053D02*
X0322432Y0392600D01*
X0304900Y0401053D02*
X0313979D01*
X0238900Y0409632D02*
X0245932Y0402600D01*
X0238900Y0409632D02*
Y0416368D01*
X0195868Y0400053D02*
X0201868D01*
X0189916D02*
X0195868D01*
X0195400Y0365135D02*
X0207435D01*
X0217400Y0375100D01*
Y0391100D01*
X0208447Y0400053D02*
X0217400Y0391100D01*
X0201868Y0400053D02*
X0208447D01*
X0207969Y0273500D02*
X0210421Y0275953D01*
Y0280000D01*
X0200469Y0276000D02*
Y0277500D01*
X0202969Y0280000D01*
X0204516D01*
X0189468D02*
X0192969Y0276500D01*
X0187421Y0280000D02*
X0189468D01*
X0181516Y0275547D02*
Y0280000D01*
X0168016Y0263547D02*
X0172469Y0268000D01*
X0168016Y0257000D02*
Y0263547D01*
X0187421Y0280000D02*
Y0281953D01*
X0192335Y0286866D01*
X0210421Y0280000D02*
X0211469Y0281048D01*
Y0291000D01*
X0207469Y0295000D02*
X0211469Y0291000D01*
X0200602Y0295000D02*
X0207469D01*
X0336677Y0222000D02*
X0341937D01*
X0328677Y0230000D02*
X0336677Y0222000D01*
X0341937D02*
Y0229000D01*
X0334437Y0214500D02*
X0341937Y0222000D01*
X0303252Y0284815D02*
X0311937D01*
X0344870Y0231933D02*
X0360437D01*
X0341937Y0229000D02*
X0344870Y0231933D01*
X0305937Y0223000D02*
X0311000Y0228063D01*
X0305937Y0217500D02*
Y0223000D01*
Y0217500D02*
X0308937Y0214500D01*
X0147969Y0239500D02*
X0150968Y0242500D01*
X0147969Y0236500D02*
Y0239500D01*
Y0236500D02*
X0151969Y0232500D01*
X0162969D01*
X0177468Y0226047D02*
X0180016D01*
X0216469Y0216453D02*
Y0230000D01*
X0219921Y0233453D01*
X0222968D01*
X0239516Y0232953D02*
X0246468Y0226000D01*
Y0221953D02*
Y0226000D01*
X0222968Y0225500D02*
Y0227547D01*
X0228469Y0220000D02*
X0242969D01*
X0244921Y0221953D01*
X0246468D01*
X0326571Y0214500D02*
X0328252Y0212819D01*
X0115969Y0244000D02*
X0124969Y0253000D01*
X0115969Y0194500D02*
Y0244000D01*
Y0194500D02*
X0137969Y0172500D01*
X0194969D01*
X0125469Y0196500D02*
Y0237000D01*
Y0196500D02*
X0142969Y0179000D01*
X0191469D01*
X0211969Y0199500D01*
Y0204000D01*
X0237968Y0206547D02*
X0243016D01*
X0246468Y0210000D01*
Y0216047D01*
X0150968Y0242500D02*
X0152968D01*
X0151969Y0185500D02*
X0187469D01*
X0196969Y0195000D01*
X0124969Y0253000D02*
X0151469D01*
X0152969Y0251500D01*
X0325252Y0181500D02*
X0325937D01*
X0329008Y0184571D01*
Y0205000D01*
X0125469Y0237000D02*
X0131969Y0243500D01*
X0180016Y0226047D02*
X0191969Y0238000D01*
X0222968Y0225500D02*
X0225469Y0223000D01*
X0228469Y0220000D01*
X0194969Y0172500D02*
X0225469Y0203000D01*
Y0207500D01*
X0181516Y0275547D02*
X0182563Y0274500D01*
X0187469D01*
X0192583Y0269386D01*
X0369437Y0166000D02*
Y0238500D01*
X0365437Y0242500D02*
X0369437Y0238500D01*
X0363937Y0242500D02*
X0365437D01*
X0360437Y0239000D02*
X0363937Y0242500D01*
X0360437Y0236657D02*
Y0239000D01*
X0137869Y0406552D02*
Y0411868D01*
X0144368Y0400053D02*
X0149868D01*
X0154868D01*
X0160853D01*
X0137869Y0406552D02*
X0144368Y0400053D01*
X0168016Y0263547D02*
Y0273484D01*
X0166000Y0275500D02*
X0168016Y0273484D01*
X0257469Y0180469D02*
Y0215000D01*
X0238750Y0161750D02*
X0257469Y0180469D01*
X0222968Y0227547D02*
X0229862D01*
X0246468Y0226000D02*
X0257469Y0215000D01*
X0177468Y0235000D02*
X0183469Y0241000D01*
X0192335Y0286866D02*
Y0295000D01*
X0247932Y0402600D02*
X0263494D01*
X0357932Y0402100D02*
X0374286D01*
X0183435Y0365135D02*
X0195400D01*
X0326571Y0214500D02*
X0334437D01*
X0171400Y0456600D02*
X0178400Y0463600D01*
X0186900D01*
X0141609Y0427309D02*
X0170900Y0456600D01*
X0171400D01*
D34*
X0201890Y0271500D02*
X0205969D01*
X0203890Y0263480D02*
Y0271461D01*
X0201890Y0263480D02*
Y0271500D01*
X0205969D02*
X0207969Y0273500D01*
X0199969Y0275500D02*
X0200469Y0276000D01*
X0199969Y0263528D02*
Y0275500D01*
X0195969Y0263496D02*
Y0273500D01*
X0203858Y0246110D02*
X0205969Y0244000D01*
X0172884Y0363116D02*
Y0388305D01*
X0191969Y0238000D02*
Y0248441D01*
X0281821Y0384521D02*
Y0389805D01*
X0203858Y0246110D02*
Y0248520D01*
X0279853Y0386490D02*
X0281821Y0384521D01*
X0279853Y0386490D02*
Y0389805D01*
D35*
X0189180Y0268000D02*
X0192079Y0265101D01*
X0187287Y0268000D02*
X0189929Y0265358D01*
X0190110Y0263480D02*
Y0265358D01*
X0192079Y0263480D02*
Y0265101D01*
X0195984Y0239700D02*
X0197984Y0241700D01*
Y0248520D01*
X0180369Y0408600D02*
X0185869D01*
D36*
X0199750Y0230750D02*
Y0248520D01*
D37*
X0250400Y0395600D02*
X0251900D01*
X0181500Y0220500D02*
X0195984Y0234984D01*
X0172500Y0215000D02*
X0184000D01*
X0165500Y0208000D02*
X0172500Y0215000D01*
X0153000Y0208000D02*
X0165500D01*
X0329500Y0254500D02*
X0348000D01*
X0353400Y0383600D02*
X0353900D01*
X0305920Y0364147D02*
X0312400Y0357667D01*
X0427900Y0358667D02*
Y0361600D01*
X0173516Y0231953D02*
X0177468D01*
X0167469Y0238000D02*
X0173516Y0231953D01*
X0423853Y0365647D02*
X0427900Y0361600D01*
D38*
X0159852Y0363600D02*
X0160400Y0364147D01*
D39*
X0195868Y0394068D02*
Y0394147D01*
X0328500Y0264000D02*
X0348500D01*
D40*
X0315130Y0254307D02*
X0329500D01*
D41*
X0131969Y0243500D02*
X0149968D01*
X0150968Y0242500D01*
D42*
X0216016Y0206047D02*
X0222469Y0212500D01*
D43*
X0201890Y0246000D02*
Y0248520D01*
D44*
X0134500Y0207000D02*
D03*
X0152400Y0363600D02*
D03*
X0187400Y0378100D02*
D03*
X0256400Y0360100D02*
D03*
X0290400Y0376600D02*
D03*
X0367400Y0356600D02*
D03*
X0401900Y0378100D02*
D03*
X0166000Y0275500D02*
D03*
X0153400Y0387100D02*
D03*
X0257400Y0388600D02*
D03*
X0372900Y0389100D02*
D03*
D45*
X0348500Y0265000D02*
D03*
X0153000Y0208000D02*
D03*
X0353400Y0383600D02*
D03*
X0241932Y0384100D02*
D03*
X0134900Y0385100D02*
D03*
X0134969Y0227000D02*
D03*
D46*
X0348500Y0255000D02*
D03*
X0153000Y0218000D02*
D03*
X0353400Y0393600D02*
D03*
X0241932Y0394100D02*
D03*
X0134900Y0395100D02*
D03*
X0134969Y0237000D02*
D03*
D47*
X0112205Y0488189D02*
D03*
X0437008D02*
D03*
X0112205Y0125984D02*
D03*
X0437008D02*
D03*
D48*
X0140000Y0463800D02*
D03*
X0187600Y0463200D02*
D03*
X0237500Y0465000D02*
D03*
X0286600Y0473700D02*
D03*
X0342500Y0465000D02*
D03*
X0392500D02*
D03*
X0417000Y0206000D02*
D03*
X0370000Y0150000D02*
D03*
X0227500D02*
D03*
X0168000Y0144800D02*
D03*
X0137500Y0317500D02*
D03*
X0287500Y0150000D02*
D03*
D49*
X0191094Y0254032D02*
D03*
Y0257969D02*
D03*
X0195032Y0254032D02*
D03*
Y0257969D02*
D03*
X0198969Y0254032D02*
D03*
Y0257969D02*
D03*
X0202906Y0254032D02*
D03*
Y0257969D02*
D03*
D50*
X0324937Y0243126D02*
D03*
X0317063D02*
D03*
X0321000D02*
D03*
X0324937Y0251000D02*
D03*
Y0247063D02*
D03*
X0317063D02*
D03*
Y0251000D02*
D03*
X0321000Y0247063D02*
D03*
Y0251000D02*
D03*
M02*
