%FSDAX23Y23*%
%MOIN*%
%SFA1B1*%

%IPPOS*%
%ADD9500C,0.027990*%
%ADD9501C,0.030000*%
%ADD9502C,0.035430*%
%ADD9503C,0.047240*%
%ADD9504C,0.066930*%
%ADD9505C,0.078740*%
%ADD9506C,0.255910*%
%ADD9507C,0.255910*%
%LNupcnsl-abs-comms-rfpatest-v1.0-1*%
%LPD*%
G54D9500*
X00153Y01087D03*
X00129Y01153D03*
X00126Y01222D03*
Y01292D03*
Y01362D03*
Y01431D03*
Y01501D03*
Y01571D03*
Y01641D03*
Y01710D03*
X00452Y01725D03*
Y01586D03*
Y01307D03*
Y01237D03*
X00360Y00960D03*
X00552Y00960D03*
X00452Y01795D03*
Y01864D03*
Y01934D03*
X00126Y01919D03*
Y01850D03*
Y01780D03*
Y01989D03*
Y02059D03*
Y02128D03*
Y02198D03*
Y02268D03*
Y02337D03*
Y02407D03*
Y02477D03*
Y02546D03*
X00130Y02616D03*
X00148Y02683D03*
X00178Y02746D03*
X00220Y02802D03*
X00274Y02845D03*
X00341Y02866D03*
X00699Y00146D03*
X00967Y00442D03*
X00905Y00586D03*
X00948Y00864D03*
X00752Y01061D03*
X00826Y01143D03*
X00829Y01242D03*
X00664Y01414D03*
X00562D03*
X00600Y01569D03*
X00745Y01530D03*
X00737Y01653D03*
X00931Y01720D03*
X00932Y01586D03*
X01049Y01641D03*
X01430D03*
Y01581D03*
Y01521D03*
Y01461D03*
Y01401D03*
Y01341D03*
Y01281D03*
Y01221D03*
X01431Y01161D03*
X01446Y01103D03*
X01476Y00989D03*
X01507Y00938D03*
X01302Y00689D03*
X01388Y00455D03*
X01354Y00347D03*
X01150Y00390D03*
X01142Y01210D03*
X01216D03*
X01430Y01701D03*
X00160Y00983D03*
X00265Y00792D03*
X00175Y00661D03*
X01561Y00911D03*
X01621Y00913D03*
X01673Y00943D03*
X01701Y00996D03*
X01709Y01055D03*
X01740Y01106D03*
X01756Y01165D03*
X01756Y01225D03*
Y01285D03*
Y01345D03*
Y01405D03*
Y01465D03*
Y01525D03*
Y01585D03*
Y01645D03*
Y01705D03*
X02089Y01645D03*
X02335Y01609D03*
X02473Y01654D03*
X02649Y01571D03*
X02651Y01061D03*
X02779Y00924D03*
X02845Y01146D03*
X02947Y01345D03*
X02483Y00919D03*
X02076Y00767D03*
X01837Y00683D03*
X01934Y00472D03*
X01981Y00401D03*
X01884Y00193D03*
X02275Y00208D03*
X01667Y00456D03*
X02125Y01204D03*
X03191Y01106D03*
X03328Y01171D03*
X03349Y00912D03*
X03172Y00895D03*
X03173Y00829D03*
X03619Y00906D03*
X03492Y01328D03*
X03423Y01612D03*
X03255Y01659D03*
X03171Y01371D03*
X03229Y01916D03*
X03374Y02113D03*
X03534Y02131D03*
X03650Y02451D03*
X03402Y02910D03*
X03168Y03096D03*
X03642Y03194D03*
X02929Y02910D03*
X02662Y03092D03*
X02414Y02963D03*
X02156Y02748D03*
X01739Y02723D03*
X01753Y02664D03*
X01756Y02605D03*
Y02545D03*
Y02485D03*
Y02425D03*
Y02365D03*
Y02305D03*
Y02245D03*
Y02185D03*
Y02125D03*
Y02065D03*
Y02005D03*
Y01945D03*
Y01885D03*
Y01825D03*
Y01765D03*
X02318Y01846D03*
X02473Y01869D03*
X02729Y01941D03*
X02736Y02245D03*
X02530Y02232D03*
X02337Y02148D03*
X02089Y02170D03*
X01713Y02777D03*
X01677Y02825D03*
X01632Y02865D03*
X01581Y02895D03*
X01601Y03094D03*
X02824Y02528D03*
X01430Y02541D03*
Y02481D03*
Y02421D03*
Y02361D03*
Y02301D03*
Y02241D03*
Y02181D03*
Y02121D03*
Y02061D03*
Y02001D03*
Y01941D03*
Y01881D03*
Y01821D03*
Y01761D03*
X00750Y01733D03*
X00573Y01766D03*
X00509Y02019D03*
X00671Y02159D03*
X00838Y02248D03*
X00998Y02215D03*
X01015Y02333D03*
X01022Y02600D03*
X00962D03*
X00902D03*
X00842D03*
X00806Y02515D03*
X00808Y02435D03*
X00743Y02379D03*
X00689Y02455D03*
X00689Y02515D03*
X00689Y02575D03*
X00527Y02762D03*
X00637Y02899D03*
X00693Y02922D03*
X00873Y02927D03*
X00933D03*
X00993D03*
X01089Y02965D03*
X01089Y03025D03*
X01089Y03085D03*
X01089Y03145D03*
X01089Y03205D03*
X01088Y03265D03*
X00853Y03179D03*
X00791Y03034D03*
X00535Y03036D03*
X00439Y03111D03*
X00368Y03170D03*
X00374Y03248D03*
X00585Y03169D03*
X00361Y02949D03*
X00175Y03026D03*
X01416Y03042D03*
X01415Y03102D03*
X01415Y03162D03*
X01415Y03222D03*
X01415Y03282D03*
X01416Y02982D03*
X01524Y02914D03*
X01419Y02600D03*
X01365Y02625D03*
X01252Y02763D03*
X01082Y02601D03*
X01318Y02367D03*
X01007Y02065D03*
X00908Y02121D03*
X00972Y03344D03*
X01088Y03325D03*
X01088Y03385D03*
X01090Y03445D03*
X00982Y03599D03*
X00609Y03699D03*
X00329Y03667D03*
X00327Y03475D03*
X00116Y03388D03*
X01415Y03402D03*
X01415Y03342D03*
X01409Y03461D03*
X01614Y03553D03*
X02247Y03374D03*
X02600Y03523D03*
X02891Y03335D03*
X03330Y03312D03*
X03534Y03545D03*
G54D9501*
X01879Y00763D03*
Y00863D03*
Y00963D03*
Y01063D03*
Y01163D03*
Y01263D03*
Y01363D03*
Y01463D03*
Y01663D03*
X02080Y00663D03*
X02180D03*
X02280D03*
X02380D03*
X02480D03*
X02580D03*
X02680D03*
X02780D03*
X02880D03*
X02980D03*
X03080D03*
Y00563D03*
X02980D03*
X02880D03*
X02780D03*
X02680D03*
X02580D03*
X02480D03*
X02380D03*
X02280D03*
X02180D03*
X02080D03*
X03180D03*
X03280D03*
X03380D03*
X03480D03*
X03580D03*
X03680D03*
X03780D03*
Y00663D03*
X03680D03*
X03580D03*
X03480D03*
X03380D03*
X03280D03*
X03180D03*
X03780Y00963D03*
Y01063D03*
Y01163D03*
Y01263D03*
Y01363D03*
Y01463D03*
Y01563D03*
Y01663D03*
Y01862D03*
Y01962D03*
Y02062D03*
Y02162D03*
Y02262D03*
Y02362D03*
Y02462D03*
Y02562D03*
Y02723D03*
Y02823D03*
Y02923D03*
Y03023D03*
Y03123D03*
Y03223D03*
X01879Y03262D03*
Y03162D03*
Y03062D03*
Y02962D03*
Y02862D03*
Y02762D03*
Y02662D03*
Y02562D03*
Y02363D03*
Y02263D03*
Y02163D03*
Y02063D03*
Y01963D03*
Y01863D03*
Y01763D03*
X03780Y03323D03*
Y03423D03*
Y03523D03*
Y03623D03*
G54D9502*
X00729Y00738D03*
X00829D03*
X00929D03*
X01066Y00738D03*
Y00638D03*
X02080Y01428D03*
X02179D03*
X01108Y01811D03*
Y01911D03*
X01008D03*
Y01811D03*
X00908D03*
Y01911D03*
X00808D03*
Y01811D03*
X00735Y03356D03*
Y03456D03*
X00635D03*
Y03356D03*
X00535D03*
Y03456D03*
G54D9503*
X00527Y02161D03*
X01254Y03664D03*
G54D9504*
X00427Y02061D03*
X00627D03*
Y02261D03*
X00427D03*
X01154Y03564D03*
Y03764D03*
X01354D03*
Y03564D03*
G54D9505*
X03829Y00118D03*
X02381Y00113D03*
X01066D03*
X00118Y00118D03*
X01066Y01428D03*
X02381D03*
X00118Y03744D03*
X03829D03*
G54D9506*
X00473Y00575D03*
X03572Y00280D03*
G54D9507*
X03131Y00280D03*
M02*