%FSDAX23Y23*%
%MOIN*%
%SFA1B1*%

%IPPOS*%
%AMD12*
4,1,8,0.005900,0.017700,-0.005900,0.017700,-0.011800,0.011800,-0.011800,-0.011800,-0.005900,-0.017700,0.005900,-0.017700,0.011800,-0.011800,0.011800,0.011800,0.005900,0.017700,0.0*
1,1,0.011820,0.005900,0.011800*
1,1,0.011820,-0.005900,0.011800*
1,1,0.011820,-0.005900,-0.011800*
1,1,0.011820,0.005900,-0.011800*
%
%AMD15*
4,1,8,-0.017700,0.005900,-0.017700,-0.005900,-0.011800,-0.011800,0.011800,-0.011800,0.017700,-0.005900,0.017700,0.005900,0.011800,0.011800,-0.011800,0.011800,-0.017700,0.005900,0.0*
1,1,0.011820,-0.011800,0.005900*
1,1,0.011820,-0.011800,-0.005900*
1,1,0.011820,0.011800,-0.005900*
1,1,0.011820,0.011800,0.005900*
%
%ADD10C,0.010000*%
%ADD11C,0.117980*%
G04~CAMADD=12~8~0.0~0.0~236.2~354.3~59.1~0.0~15~0.0~0.0~0.0~0.0~0~0.0~0.0~0.0~0.0~0~0.0~0.0~0.0~0.0~236.2~354.3*
%ADD12D12*%
%ADD13O,0.098430X0.029530*%
%ADD14O,0.048030X0.015750*%
G04~CAMADD=15~8~0.0~0.0~236.2~354.3~59.1~0.0~15~0.0~0.0~0.0~0.0~0~0.0~0.0~0.0~0.0~0~0.0~0.0~0.0~90.0~354.0~236.0*
%ADD15D15*%
%ADD16R,0.086610X0.031500*%
%ADD17O,0.011020X0.025200*%
%ADD18O,0.025200X0.011020*%
%ADD19O,0.009840X0.031890*%
%ADD20O,0.031890X0.009840*%
%ADD21R,0.019690X0.011810*%
%ADD22C,0.007870*%
%ADD23C,0.039370*%
%ADD24C,0.019690*%
%ADD25C,0.070870*%
%ADD26C,0.117940*%
%ADD27C,0.011020*%
%ADD28R,0.080710X0.082680*%
%ADD29R,0.071850X0.076770*%
%ADD30C,0.059060*%
%ADD31C,0.060000*%
%ADD32C,0.118110*%
%ADD33C,0.393700*%
%ADD34C,0.110240*%
%ADD35C,0.078740*%
%ADD36R,0.059060X0.059060*%
%ADD37C,0.050000*%
%ADD62C,0.005000*%
%ADD63C,0.020000*%
%LNupcnsl-abs-comms-rfpatest-v1.0-1*%
%LPD*%
G54D62*
X00365Y02761D02*
X00365Y02761D01*
X00406Y02759*
X00410Y02755*
X00411Y02719*
X00409Y02703*
X00404Y02687*
X00397Y02673*
X00388Y02662*
X00390Y02661*
X00311Y02740*
X00321Y02748*
X00334Y02755*
X00349Y02760*
X00365Y02761*
X00365Y02761*
X00386Y02666D02*
X00390D01*
X00381Y02671D02*
X00395D01*
X00376Y02676D02*
X00398D01*
X00371Y02681D02*
X00401D01*
X00366Y02686D02*
X00403D01*
X00361Y02691D02*
X00405D01*
X00356Y02696D02*
X00407D01*
X00351Y02701D02*
X00409D01*
X00346Y02706D02*
X00411D01*
X00341Y02711D02*
X00411D01*
X00336Y02716D02*
X00411D01*
X00331Y02721D02*
X00411D01*
X00326Y02726D02*
X00411D01*
X00321Y02731D02*
X00411D01*
X00316Y02736D02*
X00411D01*
X00314Y02741D02*
X00411D01*
X00320Y02746D02*
X00411D01*
X00328Y02751D02*
X00411D01*
X00336Y02756D02*
X00411D01*
X00359Y02761D02*
X00364D01*
X03930Y03832D02*
Y00028D01*
X00031*
X00019Y00040*
Y00377*
X00035Y00384*
X00155Y00265*
X00159Y00262*
X00165Y00261*
X02810*
X02815Y00262*
X02820Y00265*
X02925Y00370*
X02938Y00361*
X02938Y00360*
X02929Y00334*
X02923Y00307*
X02922Y00283*
X03129*
Y00490*
X03104Y00488*
X03077Y00483*
X03051Y00474*
X03050Y00473*
X03051Y00472*
X03042Y00487*
X03043Y00490*
X03045Y00495*
Y00518*
X03061Y00527*
X03069Y00524*
X03080Y00522*
X03091Y00524*
X03100Y00528*
X03109Y00534*
X03115Y00543*
X03119Y00552*
X03121Y00563*
X03119Y00573*
X03115Y00583*
X03109Y00592*
X03100Y00598*
X03091Y00602*
X03080Y00604*
X03069Y00602*
X03069Y00602*
X03052Y00612*
Y00614*
X03069Y00624*
X03069Y00624*
X03080Y00622*
X03091Y00624*
X03100Y00628*
X03109Y00634*
X03115Y00643*
X03119Y00652*
X03121Y00663*
X03119Y00673*
X03115Y00683*
X03109Y00692*
X03100Y00698*
X03091Y00702*
X03080Y00704*
X03069Y00702*
X03061Y00699*
X03045Y00708*
Y02151*
X03230Y02337*
X03253Y02335*
X03256Y02332*
X03256Y02333*
X03253Y02329*
X03252Y02321*
X03375*
X03374Y02329*
X03371Y02333*
X03370Y02339*
X03370Y02354*
X03371Y02358*
X03372Y02359*
X03373Y02364*
X03374Y02369*
X03373Y02374*
X03372Y02379*
X03370Y02381*
X03369Y02390*
X03369Y02396*
X03369Y02401*
X03372Y02409*
X03372Y02410*
X03373Y02414*
X03374Y02419*
X03373Y02424*
X03372Y02425*
X03372Y02426*
X03372Y02429*
X03371Y02430*
X03367Y02442*
Y02452*
X03368Y02454*
X03372Y02459*
X03374Y02469*
X03372Y02479*
X03368Y02483*
X03367Y02486*
Y02495*
X03371Y02508*
X03372Y02509*
X03372Y02511*
X03372Y02513*
X03373Y02514*
X03374Y02519*
X03373Y02524*
X03372Y02528*
X03372Y02528*
X03371Y02531*
X03369Y02539*
X03369Y02544*
X03369Y02548*
X03369Y02552*
X03372Y02559*
X03372Y02560*
X03372Y02563*
X03373Y02565*
X03373Y02566*
X03374Y02569*
X03373Y02571*
X03373Y02573*
X03372Y02574*
X03372Y02578*
X03372Y02578*
X03369Y02587*
X03367Y02661*
X03364Y02599*
X03368Y02588*
Y02592*
X03365Y02549*
X03365Y02523*
X03369Y02598*
X03370Y02606*
X03372Y02609*
X03373Y02614*
X03374Y02619*
X03373Y02623*
X03372Y02629*
X03371Y02630*
X03370Y02634*
X03370Y02648*
X03371Y02655*
X03374Y02658*
X03375Y02666*
X03252*
X03253Y02658*
X03256Y02655*
X03257Y02649*
X03246Y02633*
X03161*
X03052Y02742*
X03047Y02745*
X03042Y02746*
X02329*
X02324Y02745*
X02319Y02742*
X01985Y02408*
X01982Y02404*
X01981Y02398*
Y01184*
X01938Y01141*
X01933Y01141*
X01929Y01145*
X01920Y01161*
X01920Y01163*
X01919Y01174*
X01915Y01183*
X01908Y01192*
X01900Y01198*
X01890Y01202*
X01879Y01204*
X01869Y01202*
X01859Y01198*
X01851Y01192*
X01844Y01183*
X01840Y01174*
X01839Y01163*
X01840Y01153*
X01844Y01143*
X01844Y01141*
X01842Y01125*
X01840Y01121*
X01791Y01073*
X01788Y01068*
X01787Y01063*
Y00939*
X01201Y00353*
X00150*
X00076Y00427*
Y00563*
X00093Y00570*
X00116Y00546*
X00121Y00543*
X00126Y00542*
X00268*
X00272Y00522*
X00281Y00496*
X00293Y00471*
X00308Y00449*
X00326Y00428*
X00347Y00411*
X00369Y00395*
X00393Y00383*
X00419Y00375*
X00446Y00369*
X00473Y00368*
X00500Y00369*
X00527Y00375*
X00552Y00383*
X00577Y00395*
X00599Y00411*
X00620Y00428*
X00638Y00449*
X00653Y00471*
X00665Y00496*
X00674Y00522*
X00676Y00536*
X00687Y00536*
X00691Y00537*
X00695Y00537*
X00699Y00539*
X00702Y00540*
X00706Y00543*
X00709Y00545*
X00751Y00587*
X00755Y00593*
X00758Y00600*
X00759Y00608*
Y00712*
X00764Y00718*
X00768Y00728*
X00768Y00731*
X00774Y00737*
X00777Y00738*
X00785Y00740*
X00788Y00738*
X00789Y00736*
X00790Y00728*
X00794Y00718*
X00801Y00710*
X00809Y00703*
X00819Y00699*
X00829Y00698*
X00840Y00699*
X00849Y00703*
X00858Y00710*
X00864Y00718*
X00868Y00728*
X00869Y00738*
X00868Y00749*
X00864Y00758*
X00858Y00767*
X00849Y00773*
X00840Y00777*
X00829Y00778*
X00819Y00777*
X00816Y00776*
X00749Y00844*
X00742Y00848*
X00735Y00850*
X00703*
X00694Y00861*
X00699Y00878*
X00701Y00880*
X00705Y00885*
X00706Y00889*
X00721*
X00721Y00885*
X00725Y00880*
X00730Y00876*
X00737Y00875*
X00749*
X00755Y00876*
X00760Y00880*
X00764Y00885*
X00765Y00891*
Y00915*
X00764Y00921*
X00760Y00927*
X00758Y00928*
Y00970*
X00762Y00979*
X00778Y00987*
X00778Y00987*
X00783Y00986*
X00786Y00987*
X00788Y00987*
X00789Y00987*
X00790Y00988*
X00792Y00989*
X00793Y00990*
X00793Y00990*
X00794Y00990*
X00794Y00991*
X00796Y00993*
X00798Y00996*
X00799Y01001*
X00799Y01001*
X00805Y01009*
X00813Y01015*
X00831Y01016*
X00835*
X00840Y01018*
X00845Y01021*
X00845Y01021*
X00859Y01030*
X00863Y01029*
X00868Y01028*
X00877*
X00878Y01025*
X00882Y01019*
X00887Y01016*
X00893Y01015*
X00905*
X00912Y01016*
X00917Y01019*
X00921Y01025*
X00921Y01029*
X00936*
X00937Y01025*
X00941Y01019*
X00946Y01016*
X00952Y01015*
X00965*
X00971Y01016*
X00976Y01019*
X00980Y01025*
X00980Y01028*
X01058*
Y01027*
X01059Y01021*
X01063Y01016*
X01066Y01014*
X01066Y01008*
X01066Y01001*
X01065Y00996*
X01061Y00993*
X01057Y00987*
X01056Y00980*
Y00977*
X01117*
Y00980*
X01115Y00987*
X01112Y00992*
X01113Y01011*
X01119Y01018*
X01213*
X01220Y01011*
X01220Y00992*
X01217Y00987*
X01216Y00980*
Y00976*
X01277*
Y00980*
X01275Y00987*
X01272Y00992*
X01273Y01011*
X01279Y01018*
X01385*
X01386Y01018*
X01391Y01017*
X01507*
X01507Y01013*
X01511Y01008*
X01511Y01007*
X01511Y01005*
X01515Y00992*
X01522Y00979*
X01531Y00969*
X01542Y00960*
X01554Y00953*
X01568Y00949*
X01582Y00948*
X01594*
X01607Y00949*
X01621Y00953*
X01633Y00960*
X01644Y00969*
X01653Y00979*
X01660Y00992*
X01664Y01005*
X01665Y01019*
Y01043*
X01664Y01057*
X01662Y01062*
X01665Y01065*
X01666Y01065*
X01668Y01068*
X01672Y01071*
X01677Y01076*
X01687Y01089*
X01692Y01095*
X01694Y01100*
X01702Y01114*
X01706Y01123*
X01707Y01126*
X01707Y01127*
X01712Y01137*
X01716Y01157*
X01718Y01176*
Y02618*
X01718Y02619*
X01718Y02623*
X01716Y02652*
X01711Y02681*
X01703Y02709*
X01692Y02736*
X01678Y02761*
X01661Y02785*
X01641Y02807*
X01620Y02826*
X01596Y02843*
X01570Y02857*
X01543Y02869*
X01515Y02877*
X01486Y02882*
X01471Y02882*
X01471Y02883*
X01468Y02883*
X01465*
X01461Y02883*
X01459Y02883*
X01458Y02883*
X01455*
X01443Y02882*
X01440Y02882*
X01439Y02882*
X01438Y02881*
X01434Y02881*
X01426Y02879*
X01409Y02874*
X01398Y02869*
X01382Y02861*
X01378Y02858*
X01372Y02854*
X01359Y02843*
X01357Y02841*
X01354Y02839*
X01354Y02839*
X01354Y02839*
X01348Y02833*
X01345*
X01335Y02834*
X01325*
X01325Y02850*
X01327Y02852*
X01327Y02853*
X01330Y02855*
X01333Y02858*
X01339Y02864*
X01349Y02876*
X01353Y02882*
X01356Y02887*
X01364Y02901*
X01367Y02910*
X01368Y02913*
X01373Y02928*
X01375Y02936*
X01376Y02941*
X01376Y02941*
X01376Y02942*
X01376Y02946*
X01377Y02957*
Y02958*
X01377Y02958*
X01377Y02961*
X01378Y02963*
X01377Y02965*
X01376Y03418*
X01375Y03438*
X01370Y03457*
X01363Y03475*
X01360Y03479*
X01366Y03497*
X01368Y03497*
X01380Y03501*
X01392Y03507*
X01402Y03516*
X01411Y03526*
X01417Y03538*
X01421Y03551*
X01422Y03561*
X01357*
Y03566*
X01422*
X01421Y03577*
X01417Y03590*
X01411Y03602*
X01402Y03612*
X01392Y03620*
X01380Y03627*
X01370Y03630*
X01366Y03634*
X01358Y03644*
X01358Y03648*
X01360Y03664*
X01358Y03680*
X01358Y03683*
X01364Y03692*
X01372Y03699*
X01380Y03701*
X01392Y03707*
X01402Y03716*
X01411Y03726*
X01417Y03738*
X01421Y03751*
X01422Y03761*
X01357*
Y03766*
X01422*
X01421Y03777*
X01417Y03790*
X01411Y03802*
X01402Y03812*
X01392Y03820*
X01380Y03827*
X01370Y03830*
X01373Y03844*
X03918*
X03930Y03832*
G54D10*
X03925Y03830D02*
Y00033D01*
X00033Y00033*
X00024Y00042*
Y00374*
X00034Y00378*
X00152Y00261*
X00157Y00257*
X00164Y00256*
X02810*
X02817Y00257*
X02823Y00261*
X02926Y00364*
X02932Y00360*
X02933Y00362*
X02924Y00336*
X02918Y00308*
X02916Y00278*
X03134*
Y00495*
X03103Y00493*
X03076Y00488*
X03049Y00478*
X03043Y00475*
X03158Y00318*
X03048Y00487*
X03048Y00488*
X03050Y00495*
Y00515*
X03061Y00521*
X03068Y00519*
X03080Y00517*
X03092Y00519*
X03103Y00523*
X03112Y00531*
X03120Y00540*
X03124Y00551*
X03126Y00563*
X03124Y00575*
X03120Y00586*
X03112Y00595*
X03103Y00603*
X03092Y00607*
X03080Y00609*
X03068Y00607*
X03069Y00607*
X03057Y00615*
Y00611*
X03069Y00618*
X03068Y00619*
X03080Y00617*
X03092Y00619*
X03103Y00623*
X03112Y00631*
X03120Y00640*
X03124Y00651*
X03126Y00663*
X03124Y00675*
X03120Y00686*
X03112Y00695*
X03103Y00703*
X03092Y00707*
X03080Y00709*
X03068Y00707*
X03061Y00704*
X03050Y00711*
Y02149*
X03232Y02332*
X03251Y02330*
X03258Y02320*
X03267Y02359*
X03249Y02331*
X03246Y02316*
X03381*
X03378Y02331*
X03376Y02335*
X03375Y02340*
X03375Y02353*
X03375Y02356*
X03376Y02357*
X03378Y02364*
X03379Y02369*
X03378Y02375*
X03376Y02380*
X03375Y02383*
X03374Y02390*
X03374Y02396*
X03374Y02400*
X03377Y02408*
X03377Y02409*
X03377Y02413*
X03379Y02419*
X03377Y02425*
X03377Y02426*
X03377Y02427*
X03376Y02431*
X03375Y02432*
X03372Y02443*
Y02450*
X03373Y02452*
X03376Y02457*
X03379Y02469*
X03376Y02481*
X03373Y02486*
X03372Y02487*
Y02494*
X03375Y02506*
X03376Y02507*
X03377Y02510*
X03377Y02512*
X03378Y02513*
X03379Y02519*
X03377Y02525*
X03377Y02529*
X03377Y02530*
X03376Y02532*
X03374Y02540*
X03374Y02544*
X03374Y02547*
X03374Y02551*
X03377Y02558*
X03377Y02559*
X03377Y02562*
X03378Y02564*
X03378Y02565*
X03379Y02569*
X03378Y02572*
X03378Y02574*
X03377Y02575*
X03377Y02579*
X03377Y02580*
X03374Y02588*
X03368Y02800*
X03359Y02599*
X03373Y02561*
Y02709*
X03360Y02549*
X03363Y02386*
X03374Y02597*
X03375Y02605*
X03376Y02607*
X03378Y02613*
X03379Y02619*
X03378Y02624*
X03376Y02631*
X03375Y02632*
X03375Y02634*
X03375Y02648*
X03376Y02653*
X03378Y02656*
X03381Y02671*
X03246*
X03249Y02656*
X03251Y02653*
X03251Y02651*
X03243Y02638*
X03163*
X03055Y02746*
X03049Y02750*
X03043Y02751*
X02328*
X02322Y02750*
X02316Y02746*
X01981Y02411*
X01977Y02406*
X01976Y02399*
Y01186*
X01936Y01146*
X01935Y01146*
X01933Y01148*
X01925Y01162*
X01925Y01163*
X01924Y01175*
X01919Y01186*
X01912Y01195*
X01902Y01203*
X01891Y01207*
X01879Y01209*
X01868Y01207*
X01857Y01203*
X01847Y01195*
X01840Y01186*
X01835Y01175*
X01834Y01163*
X01835Y01151*
X01839Y01142*
X01839Y01141*
X01837Y01127*
X01836Y01124*
X01787Y01076*
X01783Y01070*
X01782Y01063*
Y00941*
X01199Y00358*
X00152Y00358*
X00081Y00429*
Y00560*
X00091Y00564*
X00113Y00542*
X00119Y00538*
X00126Y00537*
X00264*
X00267Y00520*
X00276Y00494*
X00289Y00469*
X00304Y00446*
X00323Y00425*
X00343Y00407*
X00367Y00391*
X00392Y00379*
X00418Y00370*
X00445Y00364*
X00473Y00363*
X00501Y00364*
X00528Y00370*
X00554Y00379*
X00579Y00391*
X00602Y00407*
X00623Y00425*
X00642Y00446*
X00657Y00469*
X00669Y00494*
X00678Y00520*
X00681Y00531*
X00688Y00531*
X00692Y00532*
X00696Y00532*
X00701Y00534*
X00705Y00536*
X00709Y00539*
X00712Y00541*
X00754Y00584*
X00760Y00591*
X00763Y00599*
X00764Y00608*
Y00710*
X00768Y00716*
X00773Y00727*
X00773Y00729*
X00777Y00733*
X00778Y00733*
X00784Y00735*
X00784Y00735*
X00784Y00734*
X00785Y00727*
X00790Y00716*
X00797Y00706*
X00807Y00699*
X00817Y00695*
X00829Y00693*
X00841Y00695*
X00852Y00699*
X00861Y00706*
X00868Y00716*
X00873Y00727*
X00874Y00738*
X00873Y00750*
X00868Y00761*
X00861Y00770*
X00852Y00777*
X00841Y00782*
X00829Y00784*
X00817Y00782*
X00818Y00782*
X00752Y00848*
X00744Y00853*
X00735Y00855*
X00705*
X00700Y00862*
X00703Y00875*
X00705Y00876*
X00710Y00883*
X00710Y00884*
X00717*
X00717Y00883*
X00721Y00876*
X00728Y00871*
X00736Y00870*
X00749*
X00757Y00871*
X00764Y00876*
X00769Y00883*
X00770Y00891*
Y00916*
X00769Y00923*
X00764Y00930*
X00763Y00931*
Y00969*
X00766Y00976*
X00779Y00982*
X00783Y00981*
X00787Y00982*
X00789Y00982*
X00791Y00983*
X00792Y00983*
X00795Y00985*
X00796Y00986*
X00796Y00986*
X00796Y00986*
X00798Y00987*
X00800Y00991*
X00803Y00994*
X00804Y01000*
X00804Y00999*
X00809Y01005*
X00815Y01010*
X00831Y01011*
X00836*
X00842Y01013*
X00848Y01017*
X00849Y01017*
X00860Y01025*
X00862Y01025*
X00868Y01023*
X00873*
X00873Y01023*
X00878Y01016*
X00885Y01011*
X00893Y01010*
X00906*
X00914Y01011*
X00921Y01016*
X00925Y01023*
X00925Y01024*
X00932*
X00932Y01023*
X00937Y01016*
X00944Y01011*
X00952Y01010*
X00965*
X00973Y01011*
X00980Y01016*
X00984Y01023*
X00984Y01023*
X01053*
Y01027*
X01054Y01019*
X01059Y01012*
X01061Y01011*
X01061Y01008*
X01061Y01002*
X01061Y00999*
X01058Y00997*
X01052Y00989*
X01051Y00981*
Y00972*
X01122*
Y00981*
X01120Y00989*
X01117Y00994*
X01118Y01009*
X01122Y01013*
X01211*
X01215Y01009*
X01215Y00993*
X01212Y00989*
X01211Y00980*
Y00971*
X01282*
Y00980*
X01280Y00989*
X01277Y00993*
X01278Y01009*
X01281Y01013*
X01384*
X01384Y01013*
X01391Y01012*
X01502*
X01503Y01011*
X01507Y01004*
X01506Y01005*
X01506Y01004*
X01511Y00990*
X01518Y00977*
X01527Y00965*
X01539Y00956*
X01552Y00948*
X01567Y00944*
X01581Y00943*
X01594*
X01608Y00944*
X01623Y00948*
X01636Y00956*
X01648Y00965*
X01657Y00977*
X01664Y00990*
X01669Y01004*
X01670Y01019*
Y01043*
X01669Y01058*
X01668Y01061*
X01669Y01061*
X01669*
X01672Y01064*
X01675Y01068*
X01681Y01073*
X01691Y01086*
X01696Y01093*
X01699Y01097*
X01707Y01112*
X01710Y01121*
X01712Y01124*
X01712Y01125*
X01716Y01136*
X01721Y01156*
X01723Y01176*
Y02618*
X01723Y02619*
X01723Y02623*
X01721Y02652*
X01716Y02682*
X01708Y02710*
X01697Y02738*
X01682Y02764*
X01665Y02788*
X01645Y02810*
X01623Y02830*
X01599Y02848*
X01572Y02862*
X01545Y02873*
X01516Y02882*
X01487Y02887*
X01472Y02887*
X01472Y02887*
X01468Y02888*
X01465*
X01461Y02888*
X01458Y02888*
X01458Y02888*
X01455*
X01443Y02887*
X01439Y02887*
X01438Y02887*
X01437Y02886*
X01433Y02886*
X01424Y02884*
X01408Y02879*
X01395Y02874*
X01380Y02865*
X01375Y02862*
X01369Y02858*
X01355Y02847*
X01353Y02845*
X01350Y02842*
X01350Y02842*
X01346Y02838*
X01346*
X01336Y02839*
X01330*
X01330Y02848*
X01330Y02849*
X01333Y02851*
X01337Y02855*
X01342Y02860*
X01353Y02873*
X01357Y02880*
X01360Y02884*
X01368Y02899*
X01372Y02908*
X01373Y02911*
X01378Y02927*
X01380Y02935*
X01381Y02940*
X01381Y02941*
X01381Y02941*
X01381Y02946*
X01382Y02957*
Y02957*
X01382Y02958*
X01382Y02961*
X01383Y02963*
X01382Y02965*
X01381Y03418*
X01380Y03438*
X01375Y03458*
X01367Y03477*
X01365Y03480*
X01370Y03492*
X01369Y03492*
X01382Y03496*
X01395Y03503*
X01406Y03512*
X01415Y03523*
X01422Y03536*
X01426Y03550*
X01428Y03566*
X01362*
X01359Y03564*
X01428Y03561*
X01426Y03578*
X01422Y03592*
X01415Y03604*
X01406Y03615*
X01395Y03625*
X01382Y03631*
X01373Y03634*
X01370Y03637*
X01363Y03646*
X01363Y03647*
X01365Y03664*
X01363Y03680*
X01363Y03682*
X01368Y03688*
X01375Y03694*
X01382Y03696*
X01395Y03703*
X01406Y03712*
X01415Y03723*
X01422Y03736*
X01426Y03750*
X01428Y03766*
X01362*
X01359Y03764*
X01428Y03761*
X01426Y03778*
X01422Y03792*
X01415Y03804*
X01406Y03815*
X01395Y03825*
X01382Y03831*
X01376Y03833*
X01377Y03839*
X03916*
X03925Y03830*
X00031Y00038D02*
X03926D01*
X00025Y00048D02*
X03926D01*
X00025Y00058D02*
X03926D01*
X00025Y00068D02*
X03926D01*
X00025Y00078D02*
X03926D01*
X00025Y00088D02*
X03926D01*
X00025Y00098D02*
X03926D01*
X00025Y00108D02*
X03926D01*
X00025Y00118D02*
X03926D01*
X00025Y00128D02*
X03926D01*
X00025Y00138D02*
X03926D01*
X00025Y00148D02*
X03926D01*
X00025Y00158D02*
X03926D01*
X00025Y00168D02*
X03926D01*
X00025Y00178D02*
X03926D01*
X00025Y00188D02*
X03926D01*
X00025Y00198D02*
X03926D01*
X00025Y00208D02*
X03926D01*
X00025Y00218D02*
X03926D01*
X00025Y00228D02*
X03926D01*
X00025Y00238D02*
X03926D01*
X00025Y00248D02*
X03926D01*
X00025Y00258D02*
X00156D01*
X02821D02*
X03926D01*
X00025Y00268D02*
X00144D01*
X02831D02*
X03926D01*
X00025Y00278D02*
X00134D01*
X02841D02*
X02916D01*
X03135D02*
X03926D01*
X00025Y00288D02*
X00124D01*
X02851D02*
X02916D01*
X03135D02*
X03926D01*
X00025Y00298D02*
X00114D01*
X02861D02*
X02918D01*
X03135D02*
X03926D01*
X00025Y00308D02*
X00104D01*
X02871D02*
X02918D01*
X03135D02*
X03926D01*
X00025Y00318D02*
X00094D01*
X02881D02*
X02920D01*
X03135D02*
X03926D01*
X00025Y00328D02*
X00084D01*
X02891D02*
X02922D01*
X03135D02*
X03926D01*
X00025Y00338D02*
X00074D01*
X02901D02*
X02924D01*
X03135D02*
X03144D01*
X03149D02*
X03926D01*
X00025Y00348D02*
X00064D01*
X02911D02*
X02928D01*
X03135D02*
X03136D01*
X03141D02*
X03926D01*
X00025Y00358D02*
X00054D01*
X00155D02*
X01198D01*
X02921D02*
X02932D01*
X03133D02*
X03926D01*
X00025Y00368D02*
X00044D01*
X00145D02*
X00428D01*
X00519D02*
X01208D01*
X03125D02*
X03126D01*
X03135D02*
X03926D01*
X00035Y00378D02*
X00034D01*
X00135D02*
X00394D01*
X00553D02*
X01218D01*
X03117D02*
X03120D01*
X03135D02*
X03926D01*
X00125Y00388D02*
X00374D01*
X00575D02*
X01228D01*
X03111D02*
X03112D01*
X03135D02*
X03926D01*
X00115Y00398D02*
X00356D01*
X00591D02*
X01238D01*
X03103D02*
X03106D01*
X03135D02*
X03926D01*
X00105Y00408D02*
X00342D01*
X00607D02*
X01248D01*
X03095D02*
X03100D01*
X03135D02*
X03926D01*
X00095Y00418D02*
X00330D01*
X00617D02*
X01258D01*
X03087D02*
X03092D01*
X03135D02*
X03926D01*
X00085Y00428D02*
X00320D01*
X00629D02*
X01268D01*
X03081D02*
X03086D01*
X03135D02*
X03926D01*
X00083Y00438D02*
X00310D01*
X00637D02*
X01278D01*
X03073D02*
X03080D01*
X03135D02*
X03926D01*
X00083Y00448D02*
X00302D01*
X00645D02*
X01288D01*
X03065D02*
X03074D01*
X03135D02*
X03926D01*
X00083Y00458D02*
X00296D01*
X00653D02*
X01298D01*
X03059D02*
X03066D01*
X03135D02*
X03926D01*
X00083Y00468D02*
X00288D01*
X00659D02*
X01308D01*
X03051D02*
X03060D01*
X03135D02*
X03926D01*
X00083Y00478D02*
X00284D01*
X00665D02*
X01318D01*
X03049D02*
X03054D01*
X03135D02*
X03926D01*
X00083Y00488D02*
X00278D01*
X00669D02*
X01328D01*
X03049D02*
X03074D01*
X03135D02*
X03926D01*
X00083Y00498D02*
X00274D01*
X00673D02*
X01338D01*
X03051D02*
X03926D01*
X00083Y00508D02*
X00272D01*
X00677D02*
X01348D01*
X03051D02*
X03926D01*
X00083Y00518D02*
X00268D01*
X00679D02*
X01358D01*
X03055D02*
X03926D01*
X00083Y00528D02*
X00266D01*
X00683D02*
X01368D01*
X03111D02*
X03926D01*
X00083Y00538D02*
X00124D01*
X00709D02*
X01378D01*
X03119D02*
X03926D01*
X00083Y00548D02*
X00108D01*
X00721D02*
X01388D01*
X03125D02*
X03926D01*
X00083Y00558D02*
X00098D01*
X00731D02*
X01398D01*
X03127D02*
X03926D01*
X00741Y00568D02*
X01408D01*
X03127D02*
X03926D01*
X00751Y00578D02*
X01418D01*
X03125D02*
X03926D01*
X00759Y00588D02*
X01428D01*
X03121D02*
X03926D01*
X00765Y00598D02*
X01438D01*
X03113D02*
X03926D01*
X00767Y00608D02*
X01448D01*
X03093D02*
X03926D01*
X00767Y00618D02*
X01458D01*
X03071D02*
X03926D01*
X00767Y00628D02*
X01468D01*
X03111D02*
X03926D01*
X00767Y00638D02*
X01478D01*
X03119D02*
X03926D01*
X00767Y00648D02*
X01488D01*
X03125D02*
X03926D01*
X00767Y00658D02*
X01498D01*
X03127D02*
X03926D01*
X00767Y00668D02*
X01508D01*
X03127D02*
X03926D01*
X00767Y00678D02*
X01518D01*
X03125D02*
X03926D01*
X00767Y00688D02*
X01528D01*
X03121D02*
X03926D01*
X00767Y00698D02*
X00810D01*
X00849D02*
X01538D01*
X03113D02*
X03926D01*
X00767Y00708D02*
X00796D01*
X00865D02*
X01548D01*
X03057D02*
X03068D01*
X03093D02*
X03926D01*
X00771Y00718D02*
X00788D01*
X00871D02*
X01558D01*
X03051D02*
X03926D01*
X00775Y00728D02*
X00784D01*
X00875D02*
X01568D01*
X03051D02*
X03926D01*
X00877Y00738D02*
X01578D01*
X03051D02*
X03926D01*
X00875Y00748D02*
X01588D01*
X03051D02*
X03926D01*
X00873Y00758D02*
X01598D01*
X03051D02*
X03926D01*
X00867Y00768D02*
X01608D01*
X03051D02*
X03926D01*
X00853Y00778D02*
X01618D01*
X03051D02*
X03926D01*
X00815Y00788D02*
X01628D01*
X03051D02*
X03926D01*
X00805Y00798D02*
X01638D01*
X03051D02*
X03926D01*
X00795Y00808D02*
X01648D01*
X03051D02*
X03926D01*
X00785Y00818D02*
X01658D01*
X03051D02*
X03926D01*
X00775Y00828D02*
X01668D01*
X03051D02*
X03926D01*
X00765Y00838D02*
X01678D01*
X03051D02*
X03926D01*
X00753Y00848D02*
X01688D01*
X03051D02*
X03926D01*
X00705Y00858D02*
X01698D01*
X03051D02*
X03926D01*
X00703Y00868D02*
X01708D01*
X03051D02*
X03926D01*
X00707Y00878D02*
X00720D01*
X00767D02*
X01718D01*
X03051D02*
X03926D01*
X00773Y00888D02*
X01728D01*
X03051D02*
X03926D01*
X00773Y00898D02*
X01738D01*
X03051D02*
X03926D01*
X00773Y00908D02*
X01748D01*
X03051D02*
X03926D01*
X00773Y00918D02*
X01758D01*
X03051D02*
X03926D01*
X00769Y00928D02*
X01768D01*
X03051D02*
X03926D01*
X00765Y00938D02*
X01778D01*
X03051D02*
X03926D01*
X00765Y00948D02*
X01556D01*
X01621D02*
X01782D01*
X03051D02*
X03926D01*
X00765Y00958D02*
X01536D01*
X01641D02*
X01782D01*
X03051D02*
X03926D01*
X00765Y00968D02*
X01526D01*
X01651D02*
X01782D01*
X03051D02*
X03926D01*
X00773Y00978D02*
X01050D01*
X01123D02*
X01210D01*
X01283D02*
X01516D01*
X01661D02*
X01782D01*
X03051D02*
X03926D01*
X00801Y00988D02*
X01052D01*
X01123D02*
X01212D01*
X01283D02*
X01512D01*
X01665D02*
X01782D01*
X03051D02*
X03926D01*
X00805Y00998D02*
X01058D01*
X01121D02*
X01214D01*
X01279D02*
X01508D01*
X01669D02*
X01782D01*
X03051D02*
X03926D01*
X00813Y01008D02*
X01060D01*
X01121D02*
X01214D01*
X01279D02*
X01504D01*
X01671D02*
X01782D01*
X03051D02*
X03926D01*
X00851Y01018D02*
X00876D01*
X00925D02*
X00936D01*
X00983D02*
X01054D01*
X01673D02*
X01782D01*
X03051D02*
X03926D01*
X01673Y01028D02*
X01782D01*
X03051D02*
X03926D01*
X01673Y01038D02*
X01782D01*
X03051D02*
X03926D01*
X01673Y01048D02*
X01782D01*
X03051D02*
X03926D01*
X01671Y01058D02*
X01782D01*
X03051D02*
X03926D01*
X01677Y01068D02*
X01782D01*
X03051D02*
X03926D01*
X01687Y01078D02*
X01788D01*
X03051D02*
X03926D01*
X01695Y01088D02*
X01798D01*
X03051D02*
X03926D01*
X01701Y01098D02*
X01808D01*
X03051D02*
X03926D01*
X01707Y01108D02*
X01818D01*
X03051D02*
X03926D01*
X01711Y01118D02*
X01828D01*
X03051D02*
X03926D01*
X01715Y01128D02*
X01838D01*
X03051D02*
X03926D01*
X01719Y01138D02*
X01838D01*
X03051D02*
X03926D01*
X01721Y01148D02*
X01836D01*
X01937D02*
X01938D01*
X03051D02*
X03926D01*
X01725Y01158D02*
X01834D01*
X01931D02*
X01948D01*
X03051D02*
X03926D01*
X01725Y01168D02*
X01834D01*
X01927D02*
X01958D01*
X03051D02*
X03926D01*
X01725Y01178D02*
X01836D01*
X01925D02*
X01968D01*
X03051D02*
X03926D01*
X01725Y01188D02*
X01840D01*
X01921D02*
X01976D01*
X03051D02*
X03926D01*
X01725Y01198D02*
X01850D01*
X01911D02*
X01976D01*
X03051D02*
X03926D01*
X01725Y01208D02*
X01866D01*
X01893D02*
X01976D01*
X03051D02*
X03926D01*
X01725Y01218D02*
X01976D01*
X03051D02*
X03926D01*
X01725Y01228D02*
X01976D01*
X03051D02*
X03926D01*
X01725Y01238D02*
X01976D01*
X03051D02*
X03926D01*
X01725Y01248D02*
X01976D01*
X03051D02*
X03926D01*
X01725Y01258D02*
X01976D01*
X03051D02*
X03926D01*
X01725Y01268D02*
X01976D01*
X03051D02*
X03926D01*
X01725Y01278D02*
X01976D01*
X03051D02*
X03926D01*
X01725Y01288D02*
X01976D01*
X03051D02*
X03926D01*
X01725Y01298D02*
X01976D01*
X03051D02*
X03926D01*
X01725Y01308D02*
X01976D01*
X03051D02*
X03926D01*
X01725Y01318D02*
X01976D01*
X03051D02*
X03926D01*
X01725Y01328D02*
X01976D01*
X03051D02*
X03926D01*
X01725Y01338D02*
X01976D01*
X03051D02*
X03926D01*
X01725Y01348D02*
X01976D01*
X03051D02*
X03926D01*
X01725Y01358D02*
X01976D01*
X03051D02*
X03926D01*
X01725Y01368D02*
X01976D01*
X03051D02*
X03926D01*
X01725Y01378D02*
X01976D01*
X03051D02*
X03926D01*
X01725Y01388D02*
X01976D01*
X03051D02*
X03926D01*
X01725Y01398D02*
X01976D01*
X03051D02*
X03926D01*
X01725Y01408D02*
X01976D01*
X03051D02*
X03926D01*
X01725Y01418D02*
X01976D01*
X03051D02*
X03926D01*
X01725Y01428D02*
X01976D01*
X03051D02*
X03926D01*
X01725Y01438D02*
X01976D01*
X03051D02*
X03926D01*
X01725Y01448D02*
X01976D01*
X03051D02*
X03926D01*
X01725Y01458D02*
X01976D01*
X03051D02*
X03926D01*
X01725Y01468D02*
X01976D01*
X03051D02*
X03926D01*
X01725Y01478D02*
X01976D01*
X03051D02*
X03926D01*
X01725Y01488D02*
X01976D01*
X03051D02*
X03926D01*
X01725Y01498D02*
X01976D01*
X03051D02*
X03926D01*
X01725Y01508D02*
X01976D01*
X03051D02*
X03926D01*
X01725Y01518D02*
X01976D01*
X03051D02*
X03926D01*
X01725Y01528D02*
X01976D01*
X03051D02*
X03926D01*
X01725Y01538D02*
X01976D01*
X03051D02*
X03926D01*
X01725Y01548D02*
X01976D01*
X03051D02*
X03926D01*
X01725Y01558D02*
X01976D01*
X03051D02*
X03926D01*
X01725Y01568D02*
X01976D01*
X03051D02*
X03926D01*
X01725Y01578D02*
X01976D01*
X03051D02*
X03926D01*
X01725Y01588D02*
X01976D01*
X03051D02*
X03926D01*
X01725Y01598D02*
X01976D01*
X03051D02*
X03926D01*
X01725Y01608D02*
X01976D01*
X03051D02*
X03926D01*
X01725Y01618D02*
X01976D01*
X03051D02*
X03926D01*
X01725Y01628D02*
X01976D01*
X03051D02*
X03926D01*
X01725Y01638D02*
X01976D01*
X03051D02*
X03926D01*
X01725Y01648D02*
X01976D01*
X03051D02*
X03926D01*
X01725Y01658D02*
X01976D01*
X03051D02*
X03926D01*
X01725Y01668D02*
X01976D01*
X03051D02*
X03926D01*
X01725Y01678D02*
X01976D01*
X03051D02*
X03926D01*
X01725Y01688D02*
X01976D01*
X03051D02*
X03926D01*
X01725Y01698D02*
X01976D01*
X03051D02*
X03926D01*
X01725Y01708D02*
X01976D01*
X03051D02*
X03926D01*
X01725Y01718D02*
X01976D01*
X03051D02*
X03926D01*
X01725Y01728D02*
X01976D01*
X03051D02*
X03926D01*
X01725Y01738D02*
X01976D01*
X03051D02*
X03926D01*
X01725Y01748D02*
X01976D01*
X03051D02*
X03926D01*
X01725Y01758D02*
X01976D01*
X03051D02*
X03926D01*
X01725Y01768D02*
X01976D01*
X03051D02*
X03926D01*
X01725Y01778D02*
X01976D01*
X03051D02*
X03926D01*
X01725Y01788D02*
X01976D01*
X03051D02*
X03926D01*
X01725Y01798D02*
X01976D01*
X03051D02*
X03926D01*
X01725Y01808D02*
X01976D01*
X03051D02*
X03926D01*
X01725Y01818D02*
X01976D01*
X03051D02*
X03926D01*
X01725Y01828D02*
X01976D01*
X03051D02*
X03926D01*
X01725Y01838D02*
X01976D01*
X03051D02*
X03926D01*
X01725Y01848D02*
X01976D01*
X03051D02*
X03926D01*
X01725Y01858D02*
X01976D01*
X03051D02*
X03926D01*
X01725Y01868D02*
X01976D01*
X03051D02*
X03926D01*
X01725Y01878D02*
X01976D01*
X03051D02*
X03926D01*
X01725Y01888D02*
X01976D01*
X03051D02*
X03926D01*
X01725Y01898D02*
X01976D01*
X03051D02*
X03926D01*
X01725Y01908D02*
X01976D01*
X03051D02*
X03926D01*
X01725Y01918D02*
X01976D01*
X03051D02*
X03926D01*
X01725Y01928D02*
X01976D01*
X03051D02*
X03926D01*
X01725Y01938D02*
X01976D01*
X03051D02*
X03926D01*
X01725Y01948D02*
X01976D01*
X03051D02*
X03926D01*
X01725Y01958D02*
X01976D01*
X03051D02*
X03926D01*
X01725Y01968D02*
X01976D01*
X03051D02*
X03926D01*
X01725Y01978D02*
X01976D01*
X03051D02*
X03926D01*
X01725Y01988D02*
X01976D01*
X03051D02*
X03926D01*
X01725Y01998D02*
X01976D01*
X03051D02*
X03926D01*
X01725Y02008D02*
X01976D01*
X03051D02*
X03926D01*
X01725Y02018D02*
X01976D01*
X03051D02*
X03926D01*
X01725Y02028D02*
X01976D01*
X03051D02*
X03926D01*
X01725Y02038D02*
X01976D01*
X03051D02*
X03926D01*
X01725Y02048D02*
X01976D01*
X03051D02*
X03926D01*
X01725Y02058D02*
X01976D01*
X03051D02*
X03926D01*
X01725Y02068D02*
X01976D01*
X03051D02*
X03926D01*
X01725Y02078D02*
X01976D01*
X03051D02*
X03926D01*
X01725Y02088D02*
X01976D01*
X03051D02*
X03926D01*
X01725Y02098D02*
X01976D01*
X03051D02*
X03926D01*
X01725Y02108D02*
X01976D01*
X03051D02*
X03926D01*
X01725Y02118D02*
X01976D01*
X03051D02*
X03926D01*
X01725Y02128D02*
X01976D01*
X03051D02*
X03926D01*
X01725Y02138D02*
X01976D01*
X03051D02*
X03926D01*
X01725Y02148D02*
X01976D01*
X03051D02*
X03926D01*
X01725Y02158D02*
X01976D01*
X03061D02*
X03926D01*
X01725Y02168D02*
X01976D01*
X03071D02*
X03926D01*
X01725Y02178D02*
X01976D01*
X03081D02*
X03926D01*
X01725Y02188D02*
X01976D01*
X03091D02*
X03926D01*
X01725Y02198D02*
X01976D01*
X03101D02*
X03926D01*
X01725Y02208D02*
X01976D01*
X03111D02*
X03926D01*
X01725Y02218D02*
X01976D01*
X03121D02*
X03926D01*
X01725Y02228D02*
X01976D01*
X03131D02*
X03926D01*
X01725Y02238D02*
X01976D01*
X03141D02*
X03926D01*
X01725Y02248D02*
X01976D01*
X03151D02*
X03926D01*
X01725Y02258D02*
X01976D01*
X03161D02*
X03926D01*
X01725Y02268D02*
X01976D01*
X03171D02*
X03926D01*
X01725Y02278D02*
X01976D01*
X03181D02*
X03926D01*
X01725Y02288D02*
X01976D01*
X03191D02*
X03926D01*
X01725Y02298D02*
X01976D01*
X03201D02*
X03926D01*
X01725Y02308D02*
X01976D01*
X03211D02*
X03926D01*
X01725Y02318D02*
X01976D01*
X03221D02*
X03246D01*
X03383D02*
X03926D01*
X01725Y02328D02*
X01976D01*
X03231D02*
X03248D01*
X03255D02*
X03258D01*
X03381D02*
X03926D01*
X01725Y02338D02*
X01976D01*
X03255D02*
X03262D01*
X03377D02*
X03926D01*
X01725Y02348D02*
X01976D01*
X03261D02*
X03264D01*
X03377D02*
X03926D01*
X01725Y02358D02*
X01976D01*
X03379D02*
X03926D01*
X01725Y02368D02*
X01976D01*
X03381D02*
X03926D01*
X01725Y02378D02*
X01976D01*
X03379D02*
X03926D01*
X01725Y02388D02*
X01976D01*
X03365D02*
X03364D01*
X03377D02*
X03926D01*
X01725Y02398D02*
X01976D01*
X03365D02*
X03364D01*
X03375D02*
X03926D01*
X01725Y02408D02*
X01978D01*
X03365D02*
X03364D01*
X03379D02*
X03926D01*
X01725Y02418D02*
X01986D01*
X03365D02*
X03364D01*
X03381D02*
X03926D01*
X01725Y02428D02*
X01996D01*
X03365D02*
X03364D01*
X03379D02*
X03926D01*
X01725Y02438D02*
X02006D01*
X03365D02*
X03366D01*
X03377D02*
X03926D01*
X01725Y02448D02*
X02016D01*
X03365D02*
X03366D01*
X03373D02*
X03926D01*
X01725Y02458D02*
X02026D01*
X03365D02*
X03366D01*
X03379D02*
X03926D01*
X01725Y02468D02*
X02036D01*
X03363D02*
X03366D01*
X03381D02*
X03926D01*
X01725Y02478D02*
X02046D01*
X03363D02*
X03368D01*
X03379D02*
X03926D01*
X01725Y02488D02*
X02056D01*
X03363D02*
X03368D01*
X03373D02*
X03926D01*
X01725Y02498D02*
X02066D01*
X03363D02*
X03368D01*
X03375D02*
X03926D01*
X01725Y02508D02*
X02076D01*
X03363D02*
X03368D01*
X03379D02*
X03926D01*
X01725Y02518D02*
X02086D01*
X03363D02*
X03370D01*
X03381D02*
X03926D01*
X01725Y02528D02*
X02096D01*
X03363D02*
X03370D01*
X03379D02*
X03926D01*
X01725Y02538D02*
X02106D01*
X03363D02*
X03370D01*
X03377D02*
X03926D01*
X01725Y02548D02*
X02116D01*
X03363D02*
X03370D01*
X03375D02*
X03926D01*
X01725Y02558D02*
X02126D01*
X03363D02*
X03372D01*
X03379D02*
X03926D01*
X01725Y02568D02*
X02136D01*
X03363D02*
X03372D01*
X03381D02*
X03926D01*
X01725Y02578D02*
X02146D01*
X03365D02*
X03372D01*
X03379D02*
X03926D01*
X01725Y02588D02*
X02156D01*
X03365D02*
X03926D01*
X01725Y02598D02*
X02166D01*
X03361D02*
X03926D01*
X01725Y02608D02*
X02176D01*
X03361D02*
X03372D01*
X03379D02*
X03926D01*
X01725Y02618D02*
X02186D01*
X03361D02*
X03372D01*
X03381D02*
X03926D01*
X01725Y02628D02*
X02196D01*
X03363D02*
X03372D01*
X03379D02*
X03926D01*
X01725Y02638D02*
X02206D01*
X03363D02*
X03372D01*
X03377D02*
X03926D01*
X01725Y02648D02*
X02216D01*
X03157D02*
X03248D01*
X03363D02*
X03372D01*
X03377D02*
X03926D01*
X01723Y02658D02*
X02226D01*
X03147D02*
X03248D01*
X03363D02*
X03372D01*
X03381D02*
X03926D01*
X01721Y02668D02*
X02236D01*
X03137D02*
X03246D01*
X03365D02*
X03372D01*
X03383D02*
X03926D01*
X01719Y02678D02*
X02246D01*
X03127D02*
X03362D01*
X03375D02*
X03926D01*
X01717Y02688D02*
X02256D01*
X03117D02*
X03362D01*
X03373D02*
X03926D01*
X01715Y02698D02*
X02266D01*
X03107D02*
X03362D01*
X03373D02*
X03926D01*
X01711Y02708D02*
X02276D01*
X03097D02*
X03364D01*
X03373D02*
X03926D01*
X01707Y02718D02*
X02286D01*
X03087D02*
X03364D01*
X03373D02*
X03926D01*
X01703Y02728D02*
X02296D01*
X03077D02*
X03364D01*
X03373D02*
X03926D01*
X01699Y02738D02*
X02306D01*
X03067D02*
X03364D01*
X03373D02*
X03926D01*
X01693Y02748D02*
X02316D01*
X03055D02*
X03366D01*
X03373D02*
X03926D01*
X01689Y02758D02*
X03366D01*
X03371D02*
X03926D01*
X01683Y02768D02*
X03366D01*
X03371D02*
X03926D01*
X01675Y02778D02*
X03366D01*
X03371D02*
X03926D01*
X01667Y02788D02*
X03926D01*
X01659Y02798D02*
X03926D01*
X01651Y02808D02*
X03926D01*
X01639Y02818D02*
X03926D01*
X01629Y02828D02*
X03926D01*
X01615Y02838D02*
X03926D01*
X01333Y02848D02*
X01356D01*
X01601D02*
X03926D01*
X01341Y02858D02*
X01366D01*
X01583D02*
X03926D01*
X01351Y02868D02*
X01382D01*
X01561D02*
X03926D01*
X01359Y02878D02*
X01404D01*
X01533D02*
X03926D01*
X01365Y02888D02*
X01448D01*
X01473D02*
X03926D01*
X01371Y02898D02*
X03926D01*
X01373Y02908D02*
X03926D01*
X01377Y02918D02*
X03926D01*
X01381Y02928D02*
X03926D01*
X01383Y02938D02*
X03926D01*
X01385Y02948D02*
X03926D01*
X01385Y02958D02*
X03926D01*
X01385Y02968D02*
X03926D01*
X01385Y02978D02*
X03926D01*
X01385Y02988D02*
X03926D01*
X01385Y02998D02*
X03926D01*
X01385Y03008D02*
X03926D01*
X01385Y03018D02*
X03926D01*
X01385Y03028D02*
X03926D01*
X01385Y03038D02*
X03926D01*
X01385Y03048D02*
X03926D01*
X01385Y03058D02*
X03926D01*
X01385Y03068D02*
X03926D01*
X01385Y03078D02*
X03926D01*
X01385Y03088D02*
X03926D01*
X01385Y03098D02*
X03926D01*
X01385Y03108D02*
X03926D01*
X01385Y03118D02*
X03926D01*
X01385Y03128D02*
X03926D01*
X01385Y03138D02*
X03926D01*
X01385Y03148D02*
X03926D01*
X01385Y03158D02*
X03926D01*
X01385Y03168D02*
X03926D01*
X01385Y03178D02*
X03926D01*
X01385Y03188D02*
X03926D01*
X01385Y03198D02*
X03926D01*
X01385Y03208D02*
X03926D01*
X01385Y03218D02*
X03926D01*
X01385Y03228D02*
X03926D01*
X01385Y03238D02*
X03926D01*
X01385Y03248D02*
X03926D01*
X01385Y03258D02*
X03926D01*
X01385Y03268D02*
X03926D01*
X01385Y03278D02*
X03926D01*
X01385Y03288D02*
X03926D01*
X01385Y03298D02*
X03926D01*
X01385Y03308D02*
X03926D01*
X01385Y03318D02*
X03926D01*
X01385Y03328D02*
X03926D01*
X01385Y03338D02*
X03926D01*
X01385Y03348D02*
X03926D01*
X01385Y03358D02*
X03926D01*
X01385Y03368D02*
X03926D01*
X01385Y03378D02*
X03926D01*
X01385Y03388D02*
X03926D01*
X01385Y03398D02*
X03926D01*
X01385Y03408D02*
X03926D01*
X01385Y03418D02*
X03926D01*
X01383Y03428D02*
X03926D01*
X01383Y03438D02*
X03926D01*
X01379Y03448D02*
X03926D01*
X01377Y03458D02*
X03926D01*
X01373Y03468D02*
X03926D01*
X01369Y03478D02*
X03926D01*
X01371Y03488D02*
X03926D01*
X01387Y03498D02*
X03926D01*
X01403Y03508D02*
X03926D01*
X01413Y03518D02*
X03926D01*
X01419Y03528D02*
X03926D01*
X01425Y03538D02*
X03926D01*
X01427Y03548D02*
X03926D01*
X01429Y03558D02*
X03926D01*
X01429Y03568D02*
X03926D01*
X01429Y03578D02*
X03926D01*
X01425Y03588D02*
X03926D01*
X01421Y03598D02*
X03926D01*
X01415Y03608D02*
X03926D01*
X01407Y03618D02*
X03926D01*
X01391Y03628D02*
X03926D01*
X01371Y03638D02*
X03926D01*
X01365Y03648D02*
X03926D01*
X01367Y03658D02*
X03926D01*
X01367Y03668D02*
X03926D01*
X01367Y03678D02*
X03926D01*
X01371Y03688D02*
X03926D01*
X01387Y03698D02*
X03926D01*
X01403Y03708D02*
X03926D01*
X01413Y03718D02*
X03926D01*
X01419Y03728D02*
X03926D01*
X01425Y03738D02*
X03926D01*
X01427Y03748D02*
X03926D01*
X01429Y03758D02*
X03926D01*
X01429Y03768D02*
X03926D01*
X01429Y03778D02*
X03926D01*
X01425Y03788D02*
X03926D01*
X01421Y03798D02*
X03926D01*
X01415Y03808D02*
X03926D01*
X01407Y03818D02*
X03926D01*
X01391Y03828D02*
X03926D01*
X01379Y03838D02*
X03916D01*
G54D62*
X00504Y03018D02*
X00510Y03011D01*
X00517Y03005*
X00520Y03004*
Y02981*
X00478Y02939*
X00475Y02935*
X00474Y02929*
Y02851*
X00473Y02846*
Y02840*
X00466Y02834*
X00458*
X00455Y02834*
X00450Y02834*
X00429Y02833*
X00408Y02828*
X00407Y02828*
X00374Y02829*
X00374Y02829*
X00371Y02829*
X00365*
X00358*
X00342Y02828*
X00339Y02827*
X00330Y02825*
X00314Y02820*
X00311Y02819*
X00302Y02816*
X00301Y02815*
X00291Y02811*
X00275Y02801*
X00274Y02800*
X00273Y02799*
X00262Y02790*
X00260Y02788*
X00259Y02787*
X00258Y02787*
X00237Y02763*
X00218Y02738*
X00202Y02711*
X00188Y02682*
X00178Y02652*
X00170Y02622*
X00165Y02591*
X00165Y02574*
X00164Y02571*
X00164Y02567*
Y02551*
Y01188*
X00166Y01169*
X00167Y01165*
X00167Y01160*
X00168Y01156*
X00169Y01148*
X00174Y01131*
X00179Y01120*
X00187Y01105*
X00190Y01100*
X00194Y01094*
X00205Y01081*
X00206Y01080*
X00207Y01080*
X00205Y01067*
Y01054*
X00207Y01041*
X00211Y01027*
X00217Y01015*
X00226Y01004*
X00237Y00995*
X00250Y00988*
X00263Y00984*
X00262Y00984*
X00264Y00982*
X00270Y00978*
X00277Y00977*
X00301*
X00308Y00978*
X00314Y00982*
X00315Y00984*
X00315Y00984*
X00328Y00988*
X00333Y00991*
X00420*
X00428Y00984*
X00441Y00978*
X00454Y00973*
X00468Y00972*
X00480*
X00494Y00973*
X00507Y00978*
X00520Y00984*
X00531Y00993*
X00539Y01004*
X00546Y01016*
X00550Y01030*
X00550Y01032*
X00551Y01032*
X00554Y01037*
X00554Y01036*
X00660*
X00677Y01029*
X00678Y01024*
X00682Y01018*
X00688Y01014*
X00695Y01013*
X00700*
Y01029*
X00705*
Y01013*
X00707*
X00708Y01007*
Y01002*
X00709Y00996*
X00709Y00995*
Y00976*
X00710Y00971*
X00713Y00966*
X00730Y00950*
X00729Y00951*
Y00930*
X00730Y00930*
X00725Y00927*
X00721Y00921*
X00721Y00918*
X00706*
X00705Y00921*
X00701Y00927*
X00696Y00930*
X00690Y00932*
X00677*
X00671Y00930*
X00668Y00928*
X00599*
X00597Y00929*
X00591Y00930*
X00567*
X00561Y00929*
X00559Y00928*
X00490*
X00488Y00929*
X00482Y00930*
X00458*
X00452Y00929*
X00450Y00928*
X00349*
X00347Y00929*
X00341Y00930*
X00317*
X00311Y00929*
X00309Y00928*
X00216*
X00216Y00928*
X00210Y00929*
X00186*
X00180Y00928*
X00175Y00924*
X00171Y00919*
X00170Y00913*
Y00901*
X00171Y00895*
X00175Y00889*
X00178Y00887*
X00178Y00882*
X00178Y00875*
X00177Y00870*
X00173Y00867*
X00169Y00861*
X00168Y00854*
Y00850*
X00229*
Y00854*
X00227Y00861*
X00224Y00866*
X00229Y00883*
X00233Y00887*
X00293*
X00297Y00884*
X00303Y00866*
X00300Y00862*
X00299Y00855*
Y00851*
X00360*
Y00855*
X00358Y00862*
X00355Y00866*
X00361Y00884*
X00365Y00887*
X00434*
X00438Y00884*
X00444Y00866*
X00441Y00862*
X00440Y00855*
Y00851*
X00501*
Y00855*
X00499Y00862*
X00496Y00866*
X00502Y00884*
X00506Y00887*
X00543*
X00547Y00884*
X00553Y00866*
X00550Y00862*
X00549Y00855*
Y00851*
X00610*
Y00855*
X00609Y00861*
X00616Y00878*
X00616Y00878*
X00616Y00878*
X00679Y00815*
X00685Y00810*
X00693Y00809*
X00726*
X00742Y00792*
X00740Y00786*
X00734Y00778*
X00729Y00778*
X00719Y00777*
X00709Y00773*
X00701Y00767*
X00694Y00758*
X00690Y00749*
X00689Y00738*
X00690Y00728*
X00694Y00718*
X00699Y00712*
Y00632*
X00692Y00626*
X00678Y00629*
X00672Y00632*
X00665Y00655*
X00653Y00679*
X00638Y00702*
X00620Y00722*
X00599Y00740*
X00577Y00755*
X00552Y00767*
X00527Y00776*
X00500Y00781*
X00473Y00783*
X00446Y00781*
X00419Y00776*
X00393Y00767*
X00369Y00755*
X00347Y00740*
X00326Y00722*
X00308Y00702*
X00293Y00679*
X00281Y00655*
X00272Y00629*
X00267Y00602*
X00265Y00576*
X00260Y00571*
X00132*
X00099Y00605*
Y02774*
X00345Y03020*
X00503*
X00504Y03018*
G54D10*
X00500Y03016D02*
X00506Y03007D01*
X00515Y03001*
X00515Y03001*
Y02983*
X00474Y02942*
X00470Y02937*
X00469Y02930*
Y02851*
X00468Y02846*
Y02842*
X00464Y02839*
X00458*
X00456Y02839*
X00450Y02840*
X00428Y02838*
X00406Y02833*
X00406Y02833*
X00375Y02834*
X00375*
X00371Y02834*
X00365*
X00358*
X00341Y02833*
X00338Y02832*
X00328Y02830*
X00312Y02825*
X00309Y02824*
X00300Y02820*
X00299Y02819*
X00288Y02815*
X00272Y02805*
X00271Y02804*
X00270Y02803*
X00258Y02793*
X00256Y02792*
X00255Y02791*
X00255Y02790*
X00233Y02766*
X00214Y02741*
X00197Y02713*
X00184Y02684*
X00173Y02654*
X00165Y02623*
X00160Y02591*
X00160Y02574*
X00159Y02572*
X00159Y02567*
Y02551*
Y01188*
X00161Y01168*
X00162Y01164*
X00162Y01159*
X00163Y01155*
X00165Y01146*
X00170Y01130*
X00175Y01117*
X00183Y01102*
X00186Y01098*
X00190Y01091*
X00201Y01077*
X00209Y01070*
X00197Y01028*
X00200Y01067*
Y01054*
X00202Y01040*
X00206Y01025*
X00213Y01012*
X00223Y01000*
X00234Y00991*
X00248Y00984*
X00214Y00994*
X00252Y00990*
X00260Y00979*
X00268Y00974*
X00276Y00972*
X00301*
X00310Y00974*
X00318Y00979*
X00325Y00990*
X00364Y00994*
X00330Y00984*
X00334Y00986*
X00418*
X00425Y00980*
X00439Y00973*
X00453Y00968*
X00468Y00967*
X00480*
X00495Y00968*
X00509Y00973*
X00522Y00980*
X00534Y00990*
X00544Y01001*
X00551Y01014*
X00555Y01029*
X00555Y01029*
X00554Y01028*
X00544Y01013*
X00548Y01031*
X00659*
X00673Y01026*
X00673Y01022*
X00679Y01014*
X00686Y01009*
X00694Y01008*
X00705*
Y01024*
X00702Y01026*
X00699Y01008*
X00703*
X00703Y01006*
Y01002*
X00704Y00994*
X00704Y00994*
Y00976*
X00706Y00969*
X00710Y00963*
X00685Y00988*
X00724Y00960*
Y00924*
X00707Y00921*
X00721Y00930*
X00717Y00923*
X00717Y00923*
X00710*
X00710Y00923*
X00705Y00930*
X00698Y00935*
X00690Y00937*
X00677*
X00669Y00935*
X00666Y00933*
X00600*
X00599Y00934*
X00592Y00935*
X00567*
X00559Y00934*
X00558Y00933*
X00491*
X00490Y00934*
X00483Y00935*
X00458*
X00450Y00934*
X00449Y00933*
X00350*
X00349Y00934*
X00342Y00935*
X00317*
X00309Y00934*
X00308Y00933*
X00217*
X00211Y00934*
X00186*
X00178Y00933*
X00171Y00928*
X00166Y00921*
X00165Y00913*
Y00900*
X00166Y00893*
X00171Y00886*
X00173Y00884*
X00173Y00882*
X00173Y00875*
X00173Y00873*
X00169Y00870*
X00164Y00863*
X00163Y00854*
Y00845*
X00234*
Y00854*
X00232Y00863*
X00230Y00866*
X00234Y00881*
X00235Y00882*
X00291*
X00293Y00881*
X00298Y00867*
X00295Y00864*
X00294Y00855*
Y00846*
X00365*
Y00855*
X00363Y00864*
X00361Y00867*
X00366Y00881*
X00367Y00882*
X00432*
X00434Y00881*
X00439Y00867*
X00436Y00864*
X00435Y00855*
Y00846*
X00506*
Y00855*
X00504Y00864*
X00502Y00867*
X00507Y00881*
X00508Y00882*
X00541*
X00543Y00881*
X00548Y00867*
X00545Y00864*
X00544Y00855*
Y00846*
X00615*
Y00855*
X00614Y00860*
X00620Y00875*
X00631Y00887*
X00606Y00880*
X00676Y00811*
X00683Y00805*
X00692Y00804*
X00724*
X00737Y00791*
X00736Y00789*
X00732Y00783*
X00729Y00784*
X00717Y00782*
X00707Y00777*
X00697Y00770*
X00690Y00761*
X00685Y00750*
X00684Y00738*
X00685Y00727*
X00690Y00716*
X00694Y00710*
Y00634*
X00690Y00631*
X00680Y00634*
X00677Y00636*
X00669Y00657*
X00657Y00682*
X00642Y00705*
X00623Y00726*
X00602Y00744*
X00579Y00759*
X00554Y00772*
X00528Y00781*
X00501Y00786*
X00473Y00788*
X00445Y00786*
X00418Y00781*
X00392Y00772*
X00367Y00759*
X00343Y00744*
X00323Y00726*
X00304Y00705*
X00289Y00682*
X00276Y00657*
X00267Y00630*
X00262Y00603*
X00260Y00578*
X00258Y00576*
X00135*
X00104Y00607*
Y02772*
X00347Y03015*
X00500*
X00500Y03016*
X00109Y00604D02*
Y02777D01*
X00119Y00594D02*
Y02787D01*
X00129Y00584D02*
Y02797D01*
X00139Y00578D02*
Y02807D01*
X00149Y00578D02*
Y02817D01*
X00159Y00578D02*
Y02827D01*
X00169Y00578D02*
Y00845D01*
Y00872D02*
Y00889D01*
Y00926D02*
Y01133D01*
Y02638D02*
Y02837D01*
X00179Y00578D02*
Y00845D01*
Y00936D02*
Y01109D01*
Y02672D02*
Y02847D01*
X00189Y00578D02*
Y00845D01*
Y00936D02*
Y01093D01*
Y02698D02*
Y02857D01*
X00199Y00578D02*
Y00845D01*
Y00936D02*
Y01081D01*
Y02718D02*
Y02867D01*
X00209Y00578D02*
Y00845D01*
Y00936D02*
Y01021D01*
Y02734D02*
Y02877D01*
X00219Y00578D02*
Y00845D01*
Y00934D02*
Y01005D01*
Y02750D02*
Y02887D01*
X00229Y00578D02*
Y00845D01*
Y00934D02*
Y00995D01*
Y02762D02*
Y02897D01*
X00239Y00578D02*
Y00881D01*
Y00934D02*
Y00991D01*
Y02774D02*
Y02907D01*
X00249Y00578D02*
Y00881D01*
Y00934D02*
Y00991D01*
Y02786D02*
Y02917D01*
X00259Y00580D02*
Y00881D01*
Y00934D02*
Y00981D01*
Y02796D02*
Y02927D01*
X00269Y00636D02*
Y00881D01*
Y00934D02*
Y00973D01*
Y02806D02*
Y02937D01*
X00279Y00664D02*
Y00881D01*
Y00934D02*
Y00971D01*
Y02812D02*
Y02947D01*
X00289Y00684D02*
Y00881D01*
Y00934D02*
Y00971D01*
Y02818D02*
Y02957D01*
X00299Y00698D02*
Y00845D01*
Y00934D02*
Y00971D01*
Y02822D02*
Y02967D01*
X00309Y00712D02*
Y00845D01*
Y00936D02*
Y00973D01*
Y02826D02*
Y02977D01*
X00319Y00724D02*
Y00845D01*
Y00938D02*
Y00979D01*
Y02830D02*
Y02987D01*
X00329Y00734D02*
Y00845D01*
Y00938D02*
Y00991D01*
Y02834D02*
Y02997D01*
X00339Y00742D02*
Y00845D01*
Y00938D02*
Y00991D01*
Y02834D02*
Y03007D01*
X00349Y00750D02*
Y00845D01*
Y00936D02*
Y00985D01*
Y00992D02*
Y00993D01*
Y02836D02*
Y03016D01*
X00359Y00756D02*
Y00845D01*
Y00934D02*
Y00985D01*
Y02836D02*
Y03016D01*
X00369Y00762D02*
Y00881D01*
Y00934D02*
Y00985D01*
Y02836D02*
Y03016D01*
X00379Y00768D02*
Y00881D01*
Y00934D02*
Y00985D01*
Y02836D02*
Y03016D01*
X00389Y00772D02*
Y00881D01*
Y00934D02*
Y00985D01*
Y02836D02*
Y03016D01*
X00399Y00776D02*
Y00881D01*
Y00934D02*
Y00985D01*
Y02836D02*
Y03016D01*
X00409Y00780D02*
Y00881D01*
Y00934D02*
Y00985D01*
Y02836D02*
Y03016D01*
X00419Y00784D02*
Y00881D01*
Y00934D02*
Y00985D01*
Y02838D02*
Y03016D01*
X00429Y00786D02*
Y00881D01*
Y00934D02*
Y00977D01*
Y02840D02*
Y03016D01*
X00439Y00788D02*
Y00845D01*
Y00934D02*
Y00971D01*
Y02842D02*
Y03016D01*
X00449Y00790D02*
Y00845D01*
Y00936D02*
Y00969D01*
Y02842D02*
Y03016D01*
X00459Y00790D02*
Y00845D01*
Y00938D02*
Y00967D01*
Y02842D02*
Y03016D01*
X00469Y00790D02*
Y00845D01*
Y00938D02*
Y00967D01*
Y02932D02*
Y03016D01*
X00479Y00790D02*
Y00845D01*
Y00938D02*
Y00967D01*
Y02950D02*
Y03016D01*
X00489Y00790D02*
Y00845D01*
Y00936D02*
Y00967D01*
Y02960D02*
Y03016D01*
X00499Y00790D02*
Y00845D01*
Y00934D02*
Y00969D01*
Y02970D02*
Y03016D01*
X00509Y00788D02*
Y00881D01*
Y00934D02*
Y00971D01*
Y02980D02*
Y03005D01*
X00519Y00784D02*
Y00881D01*
Y00934D02*
Y00977D01*
X00529Y00782D02*
Y00881D01*
Y00934D02*
Y00985D01*
X00539Y00780D02*
Y00881D01*
Y00934D02*
Y00995D01*
X00549Y00776D02*
Y00845D01*
Y00934D02*
Y01011D01*
Y01022D02*
Y01031D01*
X00559Y00772D02*
Y00845D01*
Y00936D02*
Y01031D01*
X00569Y00768D02*
Y00845D01*
Y00938D02*
Y01031D01*
X00579Y00762D02*
Y00845D01*
Y00938D02*
Y01031D01*
X00589Y00756D02*
Y00845D01*
Y00938D02*
Y01031D01*
X00599Y00750D02*
Y00845D01*
Y00936D02*
Y01031D01*
X00609Y00742D02*
Y00845D01*
Y00880D02*
Y00881D01*
Y00934D02*
Y01031D01*
X00619Y00732D02*
Y00867D01*
Y00872D02*
Y00883D01*
Y00934D02*
Y01031D01*
X00629Y00722D02*
Y00857D01*
Y00886D02*
Y00885D01*
Y00934D02*
Y01031D01*
X00639Y00710D02*
Y00847D01*
Y00934D02*
Y01031D01*
X00649Y00696D02*
Y00837D01*
Y00934D02*
Y01031D01*
X00659Y00682D02*
Y00827D01*
Y00934D02*
Y01031D01*
X00669Y00662D02*
Y00817D01*
Y00938D02*
Y01027D01*
X00679Y00638D02*
Y00809D01*
Y00938D02*
Y01013D01*
X00689Y00634D02*
Y00717D01*
Y00760D02*
Y00803D01*
Y00938D02*
Y01009D01*
X00699Y00774D02*
Y00803D01*
Y00938D02*
Y01007D01*
X00709Y00780D02*
Y00803D01*
Y00928D02*
Y00971D01*
X00719Y00784D02*
Y00803D01*
Y00926D02*
Y00965D01*
X00729Y00786D02*
Y00797D01*
G54D62*
X01309Y02961D02*
X01308Y02948D01*
X01303Y02933*
X01296Y02919*
X01286Y02907*
X01286Y02907*
X01286Y02907*
X01255Y02879*
X01249*
X01224Y02904*
X01213Y02917*
X01206Y02931*
X01201Y02947*
X01199Y02961*
X01309*
G54D10*
X01303Y02956D02*
X01303Y02949D01*
X01299Y02935*
X01292Y02922*
X01282Y02911*
X01286Y02911*
X01282Y02911*
X01253Y02884*
X01251*
X01227Y02907*
X01217Y02920*
X01210Y02933*
X01206Y02948*
X01205Y02956*
X01303*
X01249Y02889D02*
X01258D01*
X01239Y02899D02*
X01270D01*
X01229Y02909D02*
X01280D01*
X01221Y02919D02*
X01288D01*
X01215Y02929D02*
X01294D01*
X01211Y02939D02*
X01300D01*
X01207Y02949D02*
X01304D01*
G54D62*
X00712Y01628D02*
X00719Y01622D01*
X00727Y01619*
X00732Y01601*
X00598Y01467*
X00595Y01462*
X00594Y01457*
Y01253*
X00594*
X00588Y01252*
X00583Y01248*
X00579Y01243*
X00578Y01237*
Y01225*
X00579Y01219*
X00583Y01213*
X00586Y01211*
X00586Y01206*
X00586Y01199*
X00585Y01194*
X00581Y01191*
X00577Y01185*
X00576Y01178*
Y01174*
X00604*
Y01169*
X00576*
Y01167*
X00564Y01153*
X00562Y01152*
X00537*
X00537Y01152*
X00534Y01157*
X00528Y01161*
X00524Y01162*
Y01177*
X00528Y01178*
X00534Y01181*
X00537Y01187*
X00539Y01193*
Y01205*
X00537Y01211*
X00534Y01216*
X00528Y01220*
X00530Y01220*
Y01348*
X00530Y01349*
X00532Y01356*
Y01380*
X00530Y01386*
X00530Y01387*
Y01490*
X00530Y01491*
X00532Y01497*
Y01521*
X00530Y01528*
X00530Y01529*
Y01633*
X00529Y01633*
X00529Y01633*
X00708*
X00712Y01628*
X00527Y01163D02*
Y01177D01*
X00532Y01161D02*
Y01180D01*
Y01220D02*
Y01633D01*
X00537Y01155D02*
Y01185D01*
Y01215D02*
Y01633D01*
X00542Y01154D02*
Y01633D01*
X00547Y01154D02*
Y01633D01*
X00552Y01154D02*
Y01633D01*
X00557Y01154D02*
Y01633D01*
X00562Y01154D02*
Y01633D01*
X00567Y01159D02*
Y01633D01*
X00572Y01164D02*
Y01633D01*
X00577Y01171D02*
Y01174D01*
Y01183D02*
Y01633D01*
X00582Y01171D02*
Y01174D01*
Y01193D02*
Y01215D01*
Y01249D02*
Y01633D01*
X00587Y01171D02*
Y01174D01*
Y01254D02*
Y01633D01*
X00592Y01171D02*
Y01174D01*
Y01255D02*
Y01633D01*
X00597Y01171D02*
Y01174D01*
Y01467D02*
Y01633D01*
X00602Y01171D02*
Y01174D01*
Y01473D02*
Y01633D01*
X00607Y01478D02*
Y01633D01*
X00612Y01483D02*
Y01633D01*
X00617Y01488D02*
Y01633D01*
X00622Y01493D02*
Y01633D01*
X00627Y01498D02*
Y01633D01*
X00632Y01503D02*
Y01633D01*
X00637Y01508D02*
Y01633D01*
X00642Y01513D02*
Y01633D01*
X00647Y01518D02*
Y01633D01*
X00652Y01523D02*
Y01633D01*
X00657Y01528D02*
Y01633D01*
X00662Y01533D02*
Y01633D01*
X00667Y01538D02*
Y01633D01*
X00672Y01543D02*
Y01633D01*
X00677Y01548D02*
Y01633D01*
X00682Y01553D02*
Y01633D01*
X00687Y01558D02*
Y01633D01*
X00692Y01563D02*
Y01633D01*
X00697Y01568D02*
Y01633D01*
X00702Y01573D02*
Y01633D01*
X00707Y01578D02*
Y01633D01*
X00712Y01583D02*
Y01628D01*
X00717Y01588D02*
Y01625D01*
X00722Y01593D02*
Y01622D01*
X00727Y01598D02*
Y01619D01*
X00732Y01603D02*
Y01604D01*
X00343Y01181D02*
X00342Y01168D01*
X00337Y01153*
X00330Y01139*
X00320Y01127*
X00320Y01127*
X00319Y01127*
X00289Y01099*
X00283*
X00258Y01124*
X00247Y01137*
X00240Y01152*
X00235Y01167*
X00234Y01181*
X00343*
G54D10*
X00338Y01176D02*
X00337Y01169D01*
X00333Y01155*
X00326Y01142*
X00317Y01131*
X00320Y01131*
X00316Y01131*
X00287Y01104*
X00285*
X00262Y01128*
X00252Y01140*
X00244Y01153*
X00240Y01168*
X00239Y01176*
X00338*
X00283Y01110D02*
X00292D01*
X00273Y01120D02*
X00304D01*
X00263Y01130D02*
X00314D01*
X00253Y01140D02*
X00322D01*
X00249Y01150D02*
X00328D01*
X00245Y01160D02*
X00334D01*
X00241Y01170D02*
X00338D01*
G54D62*
X00453Y01337D02*
X00456D01*
X00463Y01338*
X00468Y01342*
X00485Y01336*
X00489Y01332*
Y01218*
X00487Y01216*
X00483Y01211*
X00482Y01205*
Y01193*
X00483Y01187*
X00487Y01181*
X00492Y01178*
X00496Y01177*
Y01162*
X00492Y01161*
X00487Y01157*
X00483Y01152*
X00482Y01146*
Y01142*
X00479Y01139*
X00468*
X00454Y01138*
X00441Y01134*
X00434Y01130*
X00420*
X00407Y01148*
X00407Y01149*
X00407Y01149*
X00408Y01150*
X00412Y01169*
X00414Y01188*
Y01342*
X00421Y01344*
X00430Y01345*
X00431Y01343*
X00437Y01338*
X00444Y01337*
X00448*
Y01365*
X00453*
Y01337*
G54D10*
X00447Y01332D02*
X00457D01*
X00465Y01334*
X00469Y01336*
X00483Y01332*
X00484Y01330*
Y01220*
X00483Y01220*
X00478Y01213*
X00477Y01205*
Y01192*
X00478Y01185*
X00483Y01178*
X00490Y01173*
X00491Y01173*
Y01166*
X00490Y01166*
X00483Y01161*
X00478Y01154*
X00477Y01146*
Y01144*
X00477Y01144*
X00468*
X00453Y01143*
X00439Y01138*
X00433Y01135*
X00423*
X00413Y01149*
X00412Y01147*
X00413Y01150*
X00417Y01168*
X00419Y01188*
Y01338*
X00422Y01339*
X00427Y01339*
X00427Y01339*
X00435Y01334*
X00443Y01332*
X00453*
Y01360*
X00450Y01363*
X00447Y01332*
X00418Y01145D02*
Y01168D01*
X00428Y01137D02*
Y01338D01*
X00438Y01141D02*
Y01332D01*
X00448Y01143D02*
Y01332D01*
X00458Y01145D02*
Y01332D01*
X00468Y01147D02*
Y01336D01*
X00478Y01153D02*
Y01188D01*
Y01211D02*
Y01332D01*
X00488Y01167D02*
Y01174D01*
G54D62*
X03248Y02544D02*
X03242Y02533D01*
X03171*
X03166Y02532*
X03161Y02529*
X02866Y02234*
X02863Y02229*
X02862Y02224*
Y01588*
X02118Y00844*
X02115Y00840*
X02114Y00834*
Y00711*
X02107Y00706*
X02097Y00702*
X02091Y00704*
X02083Y00705*
Y00665*
X02078*
Y00705*
X02069Y00704*
X02059Y00700*
X02053Y00696*
X02045Y00698*
X02037Y00703*
Y00801*
X02824Y01588*
X02827Y01592*
X02828Y01598*
Y02218*
X03164Y02554*
X03242*
X03248Y02544*
G54D10*
X03242Y02544D02*
X03239Y02538D01*
X03171*
X03164Y02537*
X03158Y02533*
X02862Y02237*
X02858Y02231*
X02857Y02225*
Y01590*
X02114Y00847*
X02110Y00842*
X02109Y00835*
Y00714*
X02105Y00711*
X02097Y00707*
X02092Y00709*
X02078Y00711*
Y00670*
X02080Y00668*
X02083Y00711*
X02068Y00709*
X02056Y00704*
X02052Y00701*
X02047Y00703*
X02042Y00706*
Y00798*
X02828Y01585*
X02832Y01590*
X02833Y01597*
Y02216*
X03166Y02549*
X03239*
X03242Y02544*
X02047Y00706D02*
Y00803D01*
X02057Y00708D02*
Y00813D01*
X02067Y00712D02*
Y00823D01*
X02077Y00714D02*
Y00833D01*
X02087Y00712D02*
Y00843D01*
X02097Y00710D02*
Y00853D01*
X02107Y00714D02*
Y00863D01*
X02117Y00852D02*
Y00873D01*
X02127Y00862D02*
Y00883D01*
X02137Y00872D02*
Y00893D01*
X02147Y00882D02*
Y00903D01*
X02157Y00892D02*
Y00913D01*
X02167Y00902D02*
Y00923D01*
X02177Y00912D02*
Y00933D01*
X02187Y00922D02*
Y00943D01*
X02197Y00932D02*
Y00953D01*
X02207Y00942D02*
Y00963D01*
X02217Y00952D02*
Y00973D01*
X02227Y00962D02*
Y00983D01*
X02237Y00972D02*
Y00993D01*
X02247Y00982D02*
Y01003D01*
X02257Y00992D02*
Y01013D01*
X02267Y01002D02*
Y01023D01*
X02277Y01012D02*
Y01033D01*
X02287Y01022D02*
Y01043D01*
X02297Y01032D02*
Y01053D01*
X02307Y01042D02*
Y01063D01*
X02317Y01052D02*
Y01073D01*
X02327Y01062D02*
Y01083D01*
X02337Y01072D02*
Y01093D01*
X02347Y01082D02*
Y01103D01*
X02357Y01092D02*
Y01113D01*
X02367Y01102D02*
Y01123D01*
X02377Y01112D02*
Y01133D01*
X02387Y01122D02*
Y01143D01*
X02397Y01132D02*
Y01153D01*
X02407Y01142D02*
Y01163D01*
X02417Y01152D02*
Y01173D01*
X02427Y01162D02*
Y01183D01*
X02437Y01172D02*
Y01193D01*
X02447Y01182D02*
Y01203D01*
X02457Y01192D02*
Y01213D01*
X02467Y01202D02*
Y01223D01*
X02477Y01212D02*
Y01233D01*
X02487Y01222D02*
Y01243D01*
X02497Y01232D02*
Y01253D01*
X02507Y01242D02*
Y01263D01*
X02517Y01252D02*
Y01273D01*
X02527Y01262D02*
Y01283D01*
X02537Y01272D02*
Y01293D01*
X02547Y01282D02*
Y01303D01*
X02557Y01292D02*
Y01313D01*
X02567Y01302D02*
Y01323D01*
X02577Y01312D02*
Y01333D01*
X02587Y01322D02*
Y01343D01*
X02597Y01332D02*
Y01353D01*
X02607Y01342D02*
Y01363D01*
X02617Y01352D02*
Y01373D01*
X02627Y01362D02*
Y01383D01*
X02637Y01372D02*
Y01393D01*
X02647Y01382D02*
Y01403D01*
X02657Y01392D02*
Y01413D01*
X02667Y01402D02*
Y01423D01*
X02677Y01412D02*
Y01433D01*
X02687Y01422D02*
Y01443D01*
X02697Y01432D02*
Y01453D01*
X02707Y01442D02*
Y01463D01*
X02717Y01452D02*
Y01473D01*
X02727Y01462D02*
Y01483D01*
X02737Y01472D02*
Y01493D01*
X02747Y01482D02*
Y01503D01*
X02757Y01492D02*
Y01513D01*
X02767Y01502D02*
Y01523D01*
X02777Y01512D02*
Y01533D01*
X02787Y01522D02*
Y01543D01*
X02797Y01532D02*
Y01553D01*
X02807Y01542D02*
Y01563D01*
X02817Y01552D02*
Y01573D01*
X02827Y01562D02*
Y01583D01*
X02837Y01572D02*
Y02219D01*
X02847Y01582D02*
Y02229D01*
X02857Y02228D02*
Y02239D01*
X02867Y02244D02*
Y02249D01*
X02877Y02254D02*
Y02259D01*
X02887Y02264D02*
Y02269D01*
X02897Y02274D02*
Y02279D01*
X02907Y02284D02*
Y02289D01*
X02917Y02294D02*
Y02299D01*
X02927Y02304D02*
Y02309D01*
X02937Y02314D02*
Y02319D01*
X02947Y02324D02*
Y02329D01*
X02957Y02334D02*
Y02339D01*
X02967Y02344D02*
Y02349D01*
X02977Y02354D02*
Y02359D01*
X02987Y02364D02*
Y02369D01*
X02997Y02374D02*
Y02379D01*
X03007Y02384D02*
Y02389D01*
X03017Y02394D02*
Y02399D01*
X03027Y02404D02*
Y02409D01*
X03037Y02414D02*
Y02419D01*
X03047Y02424D02*
Y02429D01*
X03057Y02434D02*
Y02439D01*
X03067Y02444D02*
Y02449D01*
X03077Y02454D02*
Y02459D01*
X03087Y02464D02*
Y02469D01*
X03097Y02474D02*
Y02479D01*
X03107Y02484D02*
Y02489D01*
X03117Y02494D02*
Y02499D01*
X03127Y02504D02*
Y02509D01*
X03137Y02514D02*
Y02519D01*
X03147Y02524D02*
Y02529D01*
X03157Y02534D02*
Y02539D01*
X03167Y02540D02*
Y02550D01*
X03177Y02540D02*
Y02550D01*
X03187Y02540D02*
Y02550D01*
X03197Y02540D02*
Y02550D01*
X03207Y02540D02*
Y02550D01*
X03217Y02540D02*
Y02550D01*
X03227Y02540D02*
Y02550D01*
X03237Y02540D02*
Y02550D01*
G54D62*
X03145Y02608D02*
X03149Y02605D01*
X03155Y02604*
X03242*
X03248Y02594*
X03242Y02583*
X03158*
X03153Y02582*
X03148Y02579*
X02803Y02234*
X02800Y02229*
X02799Y02224*
Y01604*
X02013Y00818*
X01998Y00827*
X01995Y00829*
Y00870*
X02193Y01068*
X02196Y01073*
X02197Y01078*
Y01392*
X02199Y01393*
X02208Y01399*
X02214Y01408*
X02218Y01417*
X02219Y01428*
X02218Y01438*
X02214Y01448*
X02208Y01456*
X02199Y01463*
X02190Y01467*
X02179Y01468*
X02169Y01467*
X02159Y01463*
X02151Y01456*
X02144Y01448*
X02140Y01438*
X02139Y01428*
X02140Y01417*
X02144Y01408*
X02151Y01399*
X02159Y01393*
X02169Y01389*
X02168Y01389*
Y01084*
X01970Y00887*
X01967Y00882*
X01966Y00877*
Y00531*
X01949Y00522*
X01948Y00522*
Y00930*
X02089Y01071*
X02092Y01075*
X02093Y01081*
Y01390*
X02100Y01393*
X02108Y01399*
X02114Y01408*
X02118Y01417*
X02120Y01428*
X02118Y01438*
X02114Y01448*
X02108Y01456*
X02100Y01463*
X02090Y01467*
X02080Y01468*
X02069Y01467*
X02059Y01463*
X02051Y01456*
X02045Y01448*
X02041Y01438*
X02039Y01428*
X02041Y01417*
X02045Y01408*
X02051Y01399*
X02059Y01393*
X02064Y01391*
Y01087*
X01936Y00958*
X01922Y00964*
X01920Y00966*
X01919Y00974*
X01915Y00983*
X01908Y00992*
X01900Y00998*
X01890Y01002*
X01879Y01004*
X01869Y01002*
X01859Y00998*
X01851Y00992*
X01844Y00983*
X01840Y00974*
X01839Y00963*
X01840Y00953*
X01844Y00943*
X01851Y00934*
X01859Y00928*
X01869Y00924*
X01879Y00922*
X01890Y00924*
X01900Y00928*
X01902Y00930*
X01916Y00925*
X01919Y00923*
Y00904*
X01916Y00901*
X01902Y00896*
X01900Y00898*
X01890Y00902*
X01879Y00904*
X01869Y00902*
X01859Y00898*
X01851Y00892*
X01844Y00883*
X01840Y00874*
X01839Y00863*
X01840Y00853*
X01844Y00843*
X01851Y00834*
X01859Y00828*
X01869Y00824*
X01879Y00822*
X01890Y00824*
X01900Y00828*
X01902Y00830*
X01916Y00825*
X01919Y00823*
Y00804*
X01916Y00801*
X01902Y00796*
X01900Y00798*
X01890Y00802*
X01879Y00804*
X01869Y00802*
X01859Y00798*
X01851Y00792*
X01844Y00783*
X01840Y00774*
X01839Y00763*
X01840Y00753*
X01844Y00743*
X01851Y00734*
X01859Y00728*
X01869Y00724*
X01879Y00722*
X01890Y00724*
X01900Y00728*
X01902Y00730*
X01916Y00725*
X01919Y00723*
Y00504*
X01916Y00503*
X01908Y00497*
X01903Y00490*
X01899Y00481*
X01898Y00472*
X01899Y00463*
X01903Y00454*
X01908Y00447*
X01916Y00441*
X01924Y00437*
X01934Y00436*
X01943Y00437*
X01949Y00440*
X01958Y00428*
X01956Y00426*
X01950Y00419*
X01946Y00410*
X01945Y00401*
X01946Y00392*
X01950Y00383*
X01956Y00376*
X01963Y00370*
X01972Y00367*
X01981Y00365*
X01990Y00367*
X01999Y00370*
X02006Y00376*
X02012Y00383*
X02015Y00392*
X02016Y00401*
X02015Y00410*
X02012Y00419*
X02006Y00426*
X01999Y00432*
X01995Y00433*
Y00524*
X01998Y00526*
X02013Y00535*
X02055Y00493*
X02060Y00490*
X02065Y00489*
X02221*
X02226Y00490*
X02231Y00493*
X02264Y00526*
X02269Y00524*
X02280Y00522*
X02291Y00524*
X02300Y00528*
X02309Y00534*
X02315Y00543*
X02319Y00552*
X02321Y00563*
X02319Y00573*
X02315Y00583*
X02309Y00592*
X02300Y00598*
X02291Y00602*
X02280Y00604*
X02269Y00602*
X02260Y00598*
X02251Y00592*
X02245Y00583*
X02241Y00573*
X02239Y00563*
X02241Y00552*
X02243Y00547*
X02228Y00532*
X02228Y00532*
X02226Y00534*
X02219Y00552*
X02219Y00552*
X02221Y00563*
X02219Y00573*
X02216Y00582*
X02224Y00599*
X02231*
X02236Y00600*
X02241Y00603*
X02264Y00626*
X02269Y00624*
X02280Y00622*
X02291Y00624*
X02298Y00626*
X02303Y00625*
X02315Y00617*
Y00613*
X02316Y00608*
X02319Y00604*
X02343Y00579*
X02341Y00573*
X02339Y00563*
X02341Y00552*
X02345Y00543*
X02351Y00534*
X02360Y00528*
X02369Y00524*
X02380Y00522*
X02391Y00524*
X02400Y00528*
X02409Y00534*
X02415Y00543*
X02419Y00552*
X02421Y00563*
X02419Y00573*
X02415Y00583*
X02409Y00592*
X02400Y00598*
X02391Y00602*
X02380Y00604*
X02374Y00603*
X02365Y00609*
X02362Y00613*
X02371Y00623*
X02380Y00622*
X02391Y00624*
X02400Y00628*
X02409Y00634*
X02415Y00643*
X02419Y00652*
X02421Y00663*
X02419Y00673*
X02415Y00683*
X02409Y00692*
X02400Y00698*
X02391Y00702*
X02380Y00704*
X02369Y00702*
X02361Y00699*
X02344Y00707*
Y00899*
X02997Y01552*
X03000Y01557*
X03000Y01557*
X03015Y01556*
Y00708*
X02999Y00699*
X02991Y00702*
X02980Y00704*
X02969Y00702*
X02960Y00698*
X02951Y00692*
X02945Y00683*
X02941Y00673*
X02939Y00663*
X02941Y00652*
X02945Y00643*
X02951Y00634*
X02960Y00628*
X02969Y00624*
X02980Y00622*
X02991Y00624*
X02991Y00624*
X03008Y00614*
Y00612*
X02991Y00602*
X02991Y00602*
X02980Y00604*
X02969Y00602*
X02960Y00598*
X02951Y00592*
X02945Y00583*
X02941Y00573*
X02939Y00563*
X02941Y00552*
X02945Y00543*
X02951Y00534*
X02960Y00528*
X02969Y00524*
X02980Y00522*
X02991Y00524*
X02999Y00527*
X03015Y00518*
Y00502*
X02804Y00290*
X00171*
X00154Y00307*
X00160Y00324*
X01207*
X01213Y00325*
X01217Y00328*
X01812Y00922*
X01815Y00927*
X01816Y00932*
Y01048*
X01824Y01057*
X01826Y01056*
X01842Y01049*
X01844Y01043*
X01851Y01034*
X01859Y01028*
X01869Y01024*
X01879Y01022*
X01890Y01024*
X01900Y01028*
X01908Y01034*
X01915Y01043*
X01919Y01053*
X01920Y01063*
X01919Y01074*
X01915Y01082*
X01924Y01099*
X01932*
X01937Y01100*
X01942Y01103*
X02006Y01168*
X02009Y01172*
X02010Y01177*
Y02392*
X02335Y02717*
X03036*
X03145Y02608*
G54D10*
X03142Y02604D02*
X03147Y02601D01*
X03154Y02599*
X03239*
X03242Y02594*
X03239Y02588*
X03158*
X03151Y02587*
X03145Y02583*
X02799Y02237*
X02795Y02231*
X02794Y02225*
Y01606*
X02012Y00825*
X02001Y00831*
X02000Y00832*
Y00868*
X02197Y01065*
X02201Y01071*
X02202Y01078*
Y01389*
X02202Y01388*
X02211Y01396*
X02218Y01405*
X02223Y01416*
X02225Y01428*
X02223Y01439*
X02218Y01450*
X02211Y01460*
X02202Y01467*
X02191Y01471*
X02179Y01473*
X02168Y01471*
X02157Y01467*
X02147Y01460*
X02140Y01450*
X02135Y01439*
X02134Y01428*
X02135Y01416*
X02140Y01405*
X02147Y01396*
X02157Y01388*
X02132Y01399*
X02163Y01395*
Y01086*
X01966Y00890*
X01963Y00884*
X01961Y00877*
Y00534*
X01949Y00527*
X01953Y00525*
Y00927*
X02093Y01067*
X02097Y01073*
X02098Y01080*
Y01387*
X02102Y01388*
X02112Y01396*
X02119Y01405*
X02123Y01416*
X02125Y01428*
X02123Y01439*
X02119Y01450*
X02112Y01460*
X02102Y01467*
X02091Y01471*
X02080Y01473*
X02068Y01471*
X02057Y01467*
X02048Y01460*
X02040Y01450*
X02036Y01439*
X02034Y01428*
X02036Y01416*
X02040Y01405*
X02048Y01396*
X02057Y01388*
X02059Y01387*
Y01089*
X01935Y00964*
X01925Y00968*
X01924Y00968*
X01924Y00975*
X01919Y00986*
X01912Y00995*
X01902Y01003*
X01891Y01007*
X01879Y01009*
X01868Y01007*
X01857Y01003*
X01847Y00995*
X01840Y00986*
X01835Y00975*
X01834Y00963*
X01835Y00951*
X01840Y00940*
X01847Y00931*
X01857Y00923*
X01868Y00919*
X01879Y00917*
X01891Y00919*
X01902Y00923*
X01903Y00924*
X01914Y00921*
X01914Y00920*
Y00906*
X01914Y00906*
X01903Y00902*
X01902Y00903*
X01891Y00907*
X01879Y00909*
X01868Y00907*
X01857Y00903*
X01847Y00895*
X01840Y00886*
X01835Y00875*
X01834Y00863*
X01835Y00851*
X01840Y00840*
X01847Y00831*
X01857Y00823*
X01868Y00819*
X01879Y00817*
X01891Y00819*
X01902Y00823*
X01903Y00824*
X01914Y00821*
X01914Y00820*
Y00806*
X01914Y00806*
X01903Y00802*
X01902Y00803*
X01891Y00807*
X01879Y00809*
X01868Y00807*
X01857Y00803*
X01847Y00795*
X01840Y00786*
X01835Y00775*
X01834Y00763*
X01835Y00751*
X01840Y00740*
X01847Y00731*
X01857Y00723*
X01868Y00719*
X01879Y00717*
X01891Y00719*
X01902Y00723*
X01903Y00724*
X01914Y00721*
X01914Y00720*
Y00508*
X01913Y00507*
X01905Y00501*
X01898Y00492*
X01894Y00482*
X01893Y00472*
X01894Y00461*
X01898Y00452*
X01905Y00443*
X01913Y00437*
X01923Y00433*
X01934Y00431*
X01944Y00433*
X01947Y00434*
X01951Y00429*
X01952Y00430*
X01946Y00421*
X01941Y00412*
X01940Y00401*
X01941Y00391*
X01946Y00381*
X01952Y00372*
X01960Y00366*
X01970Y00362*
X01981Y00360*
X01991Y00362*
X02001Y00366*
X02010Y00372*
X02016Y00381*
X02020Y00391*
X02022Y00401*
X02020Y00412*
X02016Y00421*
X02010Y00430*
X02001Y00436*
X02000Y00437*
Y00522*
X02001Y00522*
X02012Y00529*
X02052Y00489*
X02058Y00485*
X02065Y00484*
X02221*
X02228Y00485*
X02234Y00489*
X02265Y00520*
X02268Y00519*
X02280Y00517*
X02292Y00519*
X02303Y00523*
X02312Y00531*
X02320Y00540*
X02324Y00551*
X02326Y00563*
X02324Y00575*
X02320Y00586*
X02312Y00595*
X02303Y00603*
X02292Y00607*
X02280Y00609*
X02268Y00607*
X02257Y00603*
X02248Y00595*
X02240Y00586*
X02236Y00575*
X02234Y00563*
X02236Y00551*
X02237Y00548*
X02228Y00539*
X02230Y00537*
X02224Y00552*
X02224Y00551*
X02226Y00563*
X02224Y00575*
X02221Y00582*
X02227Y00594*
X02232*
X02238Y00595*
X02244Y00599*
X02265Y00620*
X02268Y00619*
X02280Y00617*
X02292Y00619*
X02298Y00621*
X02301Y00620*
X02310Y00615*
Y00613*
X02311Y00606*
X02315Y00600*
X02337Y00578*
X02336Y00575*
X02334Y00563*
X02336Y00551*
X02340Y00540*
X02348Y00531*
X02357Y00523*
X02368Y00519*
X02380Y00517*
X02392Y00519*
X02403Y00523*
X02412Y00531*
X02420Y00540*
X02424Y00551*
X02426Y00563*
X02424Y00575*
X02420Y00586*
X02412Y00595*
X02403Y00603*
X02392Y00607*
X02380Y00609*
X02376Y00608*
X02369Y00613*
X02369Y00613*
X02373Y00618*
X02380Y00617*
X02392Y00619*
X02403Y00623*
X02412Y00631*
X02420Y00640*
X02424Y00651*
X02426Y00663*
X02424Y00675*
X02420Y00686*
X02412Y00695*
X02403Y00703*
X02392Y00707*
X02380Y00709*
X02368Y00707*
X02361Y00704*
X02349Y00710*
Y00897*
X03001Y01549*
X03005Y01555*
X03004Y01552*
X03010Y01551*
Y00711*
X02999Y00704*
X02992Y00707*
X02980Y00709*
X02968Y00707*
X02957Y00703*
X02948Y00695*
X02940Y00686*
X02936Y00675*
X02934Y00663*
X02936Y00651*
X02940Y00640*
X02948Y00631*
X02957Y00623*
X02968Y00619*
X02980Y00617*
X02992Y00619*
X02991Y00618*
X03003Y00611*
Y00615*
X02991Y00607*
X02992Y00607*
X02980Y00609*
X02968Y00607*
X02957Y00603*
X02948Y00595*
X02940Y00586*
X02936Y00575*
X02934Y00563*
X02936Y00551*
X02940Y00540*
X02948Y00531*
X02957Y00523*
X02968Y00519*
X02980Y00517*
X02992Y00519*
X02999Y00521*
X03010Y00515*
Y00504*
X02801Y00295*
X00173*
X00159Y00308*
X00164Y00319*
X01208*
X01215Y00320*
X01220Y00324*
X01816Y00919*
X01820Y00925*
X01821Y00932*
Y01046*
X01826Y01051*
X01825Y01051*
X01838Y01045*
X01840Y01040*
X01847Y01031*
X01857Y01023*
X01868Y01019*
X01879Y01017*
X01891Y01019*
X01902Y01023*
X01912Y01031*
X01919Y01040*
X01924Y01051*
X01925Y01063*
X01924Y01075*
X01921Y01082*
X01927Y01094*
X01932*
X01939Y01095*
X01945Y01099*
X02010Y01164*
X02014Y01170*
X02015Y01177*
Y02390*
X02337Y02712*
X03034*
X03142Y02604*
G54D63*
X03135Y02597D02*
X03143Y02591D01*
X03153Y02589*
X03233*
X03231Y02594*
X03233Y02598*
X03157*
X03147Y02596*
X03139Y02591*
X02791Y02244*
X02786Y02235*
X02784Y02226*
Y01610*
X02011Y00837*
X02007Y00840*
X02008Y00836*
X02010Y00864*
X02205Y01059*
X02210Y01067*
X02212Y01077*
Y01403*
X02268Y01426*
X02218Y01388*
X02227Y01400*
X02233Y01413*
X02235Y01428*
X02233Y01442*
X02227Y01455*
X02218Y01467*
X02207Y01476*
X02194Y01481*
X02179Y01483*
X02165Y01481*
X02152Y01476*
X02140Y01467*
X02131Y01455*
X02126Y01442*
X02124Y01428*
X02126Y01413*
X02131Y01400*
X02140Y01388*
X02090Y01427*
X02206Y01379*
X02153Y01386*
Y01090*
X01959Y00896*
X01953Y00888*
X01951Y00878*
Y00540*
X01929Y00527*
X01963Y00508*
Y00923*
X02101Y01061*
X02106Y01069*
X02108Y01079*
Y01380*
X02107Y01380*
X02119Y01388*
X02128Y01400*
X02133Y01413*
X02135Y01428*
X02133Y01442*
X02128Y01455*
X02119Y01467*
X02107Y01476*
X02094Y01481*
X02080Y01483*
X02065Y01481*
X02052Y01476*
X02040Y01467*
X02032Y01455*
X02026Y01442*
X02024Y01428*
X02026Y01413*
X02032Y01400*
X02040Y01388*
X02052Y01380*
X02049Y01381*
Y01093*
X01932Y00976*
X01930Y00977*
X01934Y00974*
X01933Y00978*
X01928Y00991*
X01919Y01003*
X01907Y01011*
X01894Y01017*
X01879Y01019*
X01865Y01017*
X01851Y01011*
X01840Y01003*
X01831Y00991*
X01825Y00978*
X01824Y00963*
X01825Y00949*
X01831Y00935*
X01840Y00924*
X01851Y00915*
X01865Y00909*
X01879Y00907*
X01894Y00909*
X01907Y00915*
X01905Y00913*
X01909Y00912*
X01904Y00915*
Y00911*
X01909Y00914*
X01905Y00913*
X01907Y00911*
X01894Y00917*
X01879Y00919*
X01865Y00917*
X01851Y00911*
X01840Y00903*
X01831Y00891*
X01825Y00878*
X01824Y00863*
X01825Y00849*
X01831Y00835*
X01840Y00824*
X01851Y00815*
X01865Y00809*
X01879Y00807*
X01894Y00809*
X01907Y00815*
X01905Y00813*
X01909Y00812*
X01904Y00815*
Y00811*
X01909Y00814*
X01905Y00813*
X01907Y00811*
X01894Y00817*
X01879Y00819*
X01865Y00817*
X01851Y00811*
X01840Y00803*
X01831Y00791*
X01825Y00778*
X01824Y00763*
X01825Y00749*
X01831Y00735*
X01840Y00724*
X01851Y00715*
X01865Y00709*
X01879Y00707*
X01894Y00709*
X01907Y00715*
X01905Y00713*
X01909Y00712*
X01904Y00715*
Y00514*
X01908Y00516*
X01898Y00508*
X01890Y00497*
X01884Y00485*
X01883Y00472*
X01884Y00459*
X01890Y00447*
X01898Y00436*
X01908Y00428*
X01920Y00423*
X01934Y00421*
X01947Y00423*
X01944Y00422*
X01948Y00415*
X01898Y00376*
X01937Y00426*
X01932Y00414*
X01930Y00401*
X01932Y00388*
X01937Y00376*
X01945Y00365*
X01955Y00357*
X01968Y00352*
X01981Y00350*
X01994Y00352*
X02006Y00357*
X02017Y00365*
X02025Y00376*
X02030Y00388*
X02032Y00401*
X02030Y00414*
X02025Y00426*
X02017Y00437*
X02006Y00445*
X02010Y00443*
Y00517*
X02007Y00514*
X02011Y00516*
X02046Y00481*
X02054Y00476*
X02064Y00474*
X02222*
X02232Y00476*
X02240Y00481*
X02267Y00508*
X02266Y00509*
X02280Y00507*
X02294Y00509*
X02308Y00515*
X02319Y00523*
X02328Y00535*
X02334Y00548*
X02336Y00563*
X02334Y00577*
X02328Y00591*
X02319Y00602*
X02308Y00611*
X02294Y00617*
X02280Y00619*
X02266Y00617*
X02252Y00611*
X02241Y00602*
X02232Y00591*
X02226Y00577*
X02224Y00563*
X02226Y00548*
X02225Y00550*
X02214Y00539*
X02257Y00494*
X02223Y00584*
X02254Y00693*
X02236Y00563*
X02234Y00577*
X02232Y00581*
X02234Y00584*
X02233*
X02242Y00586*
X02250Y00592*
X02267Y00608*
X02266Y00609*
X02280Y00607*
X02294Y00609*
X02298Y00610*
X02297Y00611*
X02300Y00609*
Y00612*
X02302Y00602*
X02307Y00594*
X02325Y00576*
X02326Y00577*
X02324Y00563*
X02326Y00548*
X02332Y00535*
X02341Y00523*
X02352Y00515*
X02366Y00509*
X02380Y00507*
X02394Y00509*
X02408Y00515*
X02420Y00523*
X02428Y00535*
X02434Y00548*
X02436Y00563*
X02434Y00577*
X02428Y00591*
X02420Y00602*
X02408Y00611*
X02394Y00617*
X02380Y00619*
X02378Y00619*
X02376Y00620*
X02382Y00613*
X02377Y00607*
X02380Y00607*
X02394Y00609*
X02408Y00615*
X02420Y00623*
X02428Y00635*
X02434Y00648*
X02436Y00663*
X02434Y00677*
X02428Y00691*
X02420Y00702*
X02408Y00711*
X02394Y00717*
X02380Y00719*
X02366Y00717*
X02362Y00715*
X02359Y00717*
Y00893*
X03009Y01543*
X02985Y01508*
X02992Y01543*
X03000Y01542*
Y00717*
X02998Y00715*
X02994Y00717*
X02980Y00719*
X02966Y00717*
X02952Y00711*
X02941Y00702*
X02932Y00691*
X02926Y00677*
X02924Y00663*
X02926Y00648*
X02932Y00635*
X02941Y00623*
X02952Y00615*
X02966Y00609*
X02980Y00607*
X02917Y00599*
X02969Y00620*
X03013Y00593*
Y00633*
X02969Y00606*
X02918Y00627*
X02980Y00619*
X02966Y00617*
X02952Y00611*
X02941Y00602*
X02932Y00591*
X02926Y00577*
X02924Y00563*
X02926Y00548*
X02932Y00535*
X02941Y00523*
X02952Y00515*
X02966Y00509*
X02980Y00507*
X02994Y00509*
X02998Y00510*
X03000Y00509*
Y00508*
X02797Y00305*
X00177*
X00171Y00310*
X00170Y00309*
X01209*
X01219Y00310*
X01227Y00316*
X01824Y00913*
X01829Y00921*
X01831Y00931*
Y01042*
X01847Y01058*
X01761Y01072*
X01830Y01038*
X01831Y01035*
X01840Y01024*
X01851Y01015*
X01865Y01009*
X01879Y01007*
X01894Y01009*
X01907Y01015*
X01919Y01024*
X01928Y01035*
X01933Y01049*
X01935Y01063*
X01933Y01078*
X01932Y01081*
X01933Y01084*
X01933*
X01943Y01086*
X01951Y01092*
X02018Y01158*
X02023Y01166*
X02025Y01176*
Y02386*
X02341Y02702*
X03030*
X03135Y02597*
X01227Y00315D02*
X02806D01*
X01247Y00335D02*
X02826D01*
X01267Y00355D02*
X01961D01*
X02002D02*
X02846D01*
X01287Y00375D02*
X01936D01*
X02027D02*
X02866D01*
X01307Y00395D02*
X01926D01*
X02032D02*
X02886D01*
X01327Y00415D02*
X01946D01*
X02032D02*
X02906D01*
X01347Y00435D02*
X01896D01*
X02022D02*
X02926D01*
X01367Y00455D02*
X01886D01*
X02012D02*
X02946D01*
X01387Y00475D02*
X01881D01*
X02012D02*
X02056D01*
X02232D02*
X02966D01*
X01407Y00495D02*
X01886D01*
X02012D02*
X02031D01*
X02257D02*
X02986D01*
X01427Y00515D02*
X01906D01*
X01957D02*
X01961D01*
X02012D02*
X02011D01*
X02242D02*
X02246D01*
X02312D02*
X02351D01*
X02412D02*
X02951D01*
X01447Y00535D02*
X01901D01*
X01947D02*
X01961D01*
X02222D02*
X02241D01*
X02332D02*
X02331D01*
X02432D02*
X02931D01*
X01467Y00555D02*
X01901D01*
X01957D02*
X01961D01*
X02232D02*
X02231D01*
X02332D02*
X02331D01*
X02437D02*
X02926D01*
X01487Y00575D02*
X01901D01*
X01957D02*
X01961D01*
X02237D02*
X02236D01*
X02332D02*
X02331D01*
X02437D02*
X02926D01*
X01507Y00595D02*
X01901D01*
X01957D02*
X01961D01*
X02232D02*
X02231D01*
X02242D02*
X02251D01*
X02312D02*
X02321D01*
X02427D02*
X02931D01*
X03012D02*
X03011D01*
X01527Y00615D02*
X01901D01*
X01957D02*
X01961D01*
X02237D02*
X02241D01*
X02262D02*
X02296D01*
X02382D02*
X02396D01*
X02412D02*
X02976D01*
X02987D02*
X03011D01*
X01547Y00635D02*
X01901D01*
X01957D02*
X01961D01*
X02242D02*
X02241D01*
X02432D02*
X02931D01*
X01567Y00655D02*
X01901D01*
X01957D02*
X01961D01*
X02247D02*
X02246D01*
X02437D02*
X02926D01*
X01587Y00675D02*
X01901D01*
X01957D02*
X01961D01*
X02252D02*
X02251D01*
X02437D02*
X02926D01*
X01607Y00695D02*
X01901D01*
X01957D02*
X01961D01*
X02427D02*
X02931D01*
X01627Y00715D02*
X01851D01*
X01957D02*
X01961D01*
X02402D02*
X02956D01*
X01647Y00735D02*
X01831D01*
X01957D02*
X01961D01*
X02362D02*
X02996D01*
X01667Y00755D02*
X01821D01*
X01957D02*
X01961D01*
X02362D02*
X02996D01*
X01687Y00775D02*
X01821D01*
X01957D02*
X01961D01*
X02362D02*
X02996D01*
X01707Y00795D02*
X01831D01*
X01957D02*
X01961D01*
X02362D02*
X02996D01*
X01727Y00815D02*
X01851D01*
X01862D02*
X01896D01*
X01957D02*
X01961D01*
X02362D02*
X02996D01*
X01747Y00835D02*
X01831D01*
X01957D02*
X01961D01*
X02362D02*
X02996D01*
X01767Y00855D02*
X01821D01*
X01957D02*
X01961D01*
X02012D02*
X02026D01*
X02362D02*
X02996D01*
X01787Y00875D02*
X01821D01*
X01957D02*
X01961D01*
X02027D02*
X02046D01*
X02362D02*
X02996D01*
X01807Y00895D02*
X01831D01*
X01962D02*
X01961D01*
X02047D02*
X02066D01*
X02362D02*
X02996D01*
X01827Y00915D02*
X01851D01*
X01862D02*
X01896D01*
X01967D02*
X01976D01*
X02067D02*
X02086D01*
X02382D02*
X02996D01*
X01977Y00935D02*
X01996D01*
X02087D02*
X02106D01*
X02402D02*
X02996D01*
X01827Y00955D02*
X01831D01*
X01997D02*
X02016D01*
X02107D02*
X02126D01*
X02422D02*
X02996D01*
X01827Y00975D02*
X01831D01*
X02017D02*
X02036D01*
X02127D02*
X02146D01*
X02442D02*
X02996D01*
X01927Y00995D02*
X01946D01*
X02037D02*
X02056D01*
X02147D02*
X02166D01*
X02462D02*
X02996D01*
X01837Y01015D02*
X01851D01*
X01862D02*
X01896D01*
X01912D02*
X01966D01*
X02057D02*
X02076D01*
X02167D02*
X02186D01*
X02482D02*
X02996D01*
X01932Y01035D02*
X01986D01*
X02077D02*
X02096D01*
X02187D02*
X02206D01*
X02502D02*
X02996D01*
X01802Y01055D02*
X01841D01*
X01937D02*
X02006D01*
X02097D02*
X02116D01*
X02207D02*
X02226D01*
X02522D02*
X02996D01*
X01937Y01075D02*
X02026D01*
X02112D02*
X02136D01*
X02217D02*
X02246D01*
X02542D02*
X02996D01*
X01957Y01095D02*
X02046D01*
X02112D02*
X02151D01*
X02217D02*
X02266D01*
X02562D02*
X02996D01*
X01977Y01115D02*
X02046D01*
X02112D02*
X02151D01*
X02217D02*
X02286D01*
X02582D02*
X02996D01*
X01997Y01135D02*
X02046D01*
X02112D02*
X02151D01*
X02217D02*
X02306D01*
X02602D02*
X02996D01*
X02017Y01155D02*
X02046D01*
X02112D02*
X02151D01*
X02217D02*
X02326D01*
X02622D02*
X02996D01*
X02027Y01175D02*
X02046D01*
X02112D02*
X02151D01*
X02217D02*
X02346D01*
X02642D02*
X02996D01*
X02027Y01195D02*
X02046D01*
X02112D02*
X02151D01*
X02217D02*
X02366D01*
X02662D02*
X02996D01*
X02027Y01215D02*
X02046D01*
X02112D02*
X02151D01*
X02217D02*
X02386D01*
X02682D02*
X02996D01*
X02027Y01235D02*
X02046D01*
X02112D02*
X02151D01*
X02217D02*
X02406D01*
X02702D02*
X02996D01*
X02027Y01255D02*
X02046D01*
X02112D02*
X02151D01*
X02217D02*
X02426D01*
X02722D02*
X02996D01*
X02027Y01275D02*
X02046D01*
X02112D02*
X02151D01*
X02217D02*
X02446D01*
X02742D02*
X02996D01*
X02027Y01295D02*
X02046D01*
X02112D02*
X02151D01*
X02217D02*
X02466D01*
X02762D02*
X02996D01*
X02027Y01315D02*
X02046D01*
X02112D02*
X02151D01*
X02217D02*
X02486D01*
X02782D02*
X02996D01*
X02027Y01335D02*
X02046D01*
X02112D02*
X02151D01*
X02217D02*
X02506D01*
X02802D02*
X02996D01*
X02027Y01355D02*
X02046D01*
X02112D02*
X02151D01*
X02217D02*
X02526D01*
X02822D02*
X02996D01*
X02027Y01375D02*
X02046D01*
X02112D02*
X02151D01*
X02217D02*
X02546D01*
X02842D02*
X02996D01*
X02027Y01395D02*
X02036D01*
X02127D02*
X02166D01*
X02217D02*
X02566D01*
X02862D02*
X02996D01*
X02027Y01415D02*
X02026D01*
X02112D02*
X02116D01*
X02127D02*
X02131D01*
X02237D02*
X02586D01*
X02882D02*
X02996D01*
X02127Y01435D02*
X02131D01*
X02237D02*
X02606D01*
X02902D02*
X02996D01*
X02027Y01455D02*
X02031D01*
X02132D02*
X02131D01*
X02232D02*
X02626D01*
X02922D02*
X02996D01*
X02027Y01475D02*
X02046D01*
X02112D02*
X02146D01*
X02212D02*
X02646D01*
X02942D02*
X02996D01*
X02027Y01495D02*
X02666D01*
X02962D02*
X02996D01*
X02027Y01515D02*
X02686D01*
X02982D02*
X02996D01*
X02027Y01535D02*
X02706D01*
X02997D02*
X03001D01*
X02027Y01555D02*
X02726D01*
X02027Y01575D02*
X02746D01*
X02027Y01595D02*
X02766D01*
X02027Y01615D02*
X02781D01*
X02027Y01635D02*
X02781D01*
X02027Y01655D02*
X02781D01*
X02027Y01675D02*
X02781D01*
X02027Y01695D02*
X02781D01*
X02027Y01715D02*
X02781D01*
X02027Y01735D02*
X02781D01*
X02027Y01755D02*
X02781D01*
X02027Y01775D02*
X02781D01*
X02027Y01795D02*
X02781D01*
X02027Y01815D02*
X02781D01*
X02027Y01835D02*
X02781D01*
X02027Y01855D02*
X02781D01*
X02027Y01875D02*
X02781D01*
X02027Y01895D02*
X02781D01*
X02027Y01915D02*
X02781D01*
X02027Y01935D02*
X02781D01*
X02027Y01955D02*
X02781D01*
X02027Y01975D02*
X02781D01*
X02027Y01995D02*
X02781D01*
X02027Y02015D02*
X02781D01*
X02027Y02035D02*
X02781D01*
X02027Y02055D02*
X02781D01*
X02027Y02075D02*
X02781D01*
X02027Y02095D02*
X02781D01*
X02027Y02115D02*
X02781D01*
X02027Y02135D02*
X02781D01*
X02027Y02155D02*
X02781D01*
X02027Y02175D02*
X02781D01*
X02027Y02195D02*
X02781D01*
X02027Y02215D02*
X02781D01*
X02027Y02235D02*
X02781D01*
X02027Y02255D02*
X02801D01*
X02027Y02275D02*
X02821D01*
X02027Y02295D02*
X02841D01*
X02027Y02315D02*
X02861D01*
X02027Y02335D02*
X02881D01*
X02027Y02355D02*
X02901D01*
X02027Y02375D02*
X02921D01*
X02037Y02395D02*
X02941D01*
X02057Y02415D02*
X02961D01*
X02077Y02435D02*
X02981D01*
X02097Y02455D02*
X03001D01*
X02117Y02475D02*
X03021D01*
X02137Y02495D02*
X03041D01*
X02157Y02515D02*
X03061D01*
X02177Y02535D02*
X03081D01*
X02197Y02555D02*
X03101D01*
X02217Y02575D02*
X03121D01*
X02237Y02595D02*
X03136D01*
X03147D02*
X03234D01*
X02257Y02615D02*
X03116D01*
X02277Y02635D02*
X03096D01*
X02297Y02655D02*
X03076D01*
X02317Y02675D02*
X03056D01*
X02337Y02695D02*
X03036D01*
G54D62*
X01647Y01174D02*
X01646Y01161D01*
X01642Y01146*
X01634Y01132*
X01625Y01120*
X01624Y01120*
X01624Y01120*
X01594Y01092*
X01588*
X01562Y01117*
X01552Y01130*
X01544Y01144*
X01539Y01160*
X01538Y01174*
X01647*
G54D10*
X01642Y01169D02*
X01641Y01162D01*
X01637Y01148*
X01630Y01135*
X01621Y01124*
X01624Y01124*
X01621Y01124*
X01592Y01097*
X01590*
X01566Y01120*
X01556Y01132*
X01549Y01146*
X01544Y01161*
X01544Y01169*
X01642*
X01586Y01102D02*
X01597D01*
X01576Y01112D02*
X01607D01*
X01568Y01122D02*
X01617D01*
X01560Y01132D02*
X01627D01*
X01554Y01142D02*
X01633D01*
X01550Y01152D02*
X01639D01*
X01546Y01162D02*
X01642D01*
G54D62*
X01351Y02687D02*
X01351Y02687D01*
X01353Y02685*
X01356Y02681*
X01362Y02676*
X01374Y02665*
X01381Y02661*
X01383Y02660*
X01386Y02657*
X01402Y02647*
X01421Y02640*
X01440Y02635*
X01457Y02634*
X01457Y02634*
X01459Y02632*
X01468Y02617*
Y02598*
Y01176*
X01470Y01157*
X01474Y01137*
X01476Y01132*
X01479Y01124*
X01484Y01112*
X01492Y01097*
X01495Y01093*
X01499Y01087*
X01510Y01073*
X01512Y01071*
X01512Y01071*
X01510Y01054*
X01507Y01049*
X01507Y01046*
X01396*
X01396Y01046*
X01390Y01047*
X01272*
X01270Y01050*
X01264Y01054*
X01258Y01055*
X01234*
X01228Y01054*
X01223Y01050*
X01221Y01047*
X01112*
X01110Y01051*
X01104Y01054*
X01098Y01056*
X01083*
X01082Y01056*
X01077Y01058*
X00980*
X00980Y01061*
X00976Y01067*
X00971Y01070*
X00965Y01071*
X00952*
X00946Y01070*
X00946Y01070*
X00927Y01071*
X00924Y01072*
X00923Y01075*
X00926Y01081*
X00937Y01092*
X00940Y01097*
X00940Y01099*
X00980*
Y01151*
X00875*
X00859Y01156*
X00857Y01161*
X00852Y01168*
X00844Y01174*
X00836Y01178*
X00833Y01178*
X00833Y01178*
X00825Y01181*
X00818Y01182*
X00804*
X00804Y01181*
X00803Y01183*
Y01197*
X00802Y01205*
X00799Y01212*
X00795Y01219*
X00791Y01223*
X00791Y01287*
X00807Y01291*
X00806Y01291*
X00809Y01287*
X00815Y01283*
X00822Y01282*
X00826*
Y01313*
Y01343*
X00822*
X00815Y01342*
X00809Y01338*
X00806Y01334*
X00807Y01334*
X00791Y01338*
X00791Y01403*
X00829Y01441*
X00844Y01435*
Y01388*
X00845Y01381*
X00848Y01373*
X00853Y01367*
X00896Y01324*
Y01258*
X00872*
Y01205*
X00980*
Y01258*
X00957*
Y01289*
X00957Y01289*
X00973Y01297*
X00974Y01297*
X00979Y01296*
X00983*
Y01326*
Y01357*
X00979*
X00972Y01356*
X00970Y01354*
X00962Y01354*
X00949Y01356*
X00948Y01357*
X00936Y01370*
X00936Y01370*
X00944Y01385*
X00948*
X00955Y01387*
X00961Y01391*
X00965Y01397*
X00966Y01404*
Y01413*
X00944*
Y01418*
X00939*
Y01446*
X00935*
X00928Y01445*
X00924Y01442*
X00909Y01447*
X00908Y01465*
X00908Y01465*
X00926Y01471*
X00930Y01467*
X00937Y01466*
X00941*
Y01494*
X00946*
Y01499*
X00968*
Y01509*
X00967Y01516*
X00963Y01522*
X00956Y01526*
X00950Y01527*
X00945*
X00937Y01543*
X00941Y01549*
X00944Y01553*
X00950Y01555*
X00957Y01561*
X00963Y01568*
X00967Y01577*
X00968Y01586*
X00967Y01595*
X00963Y01604*
X00957Y01611*
X00950Y01617*
X00941Y01621*
X00939Y01621*
X00933Y01633*
X00932Y01638*
X01019Y01725*
X01022Y01729*
X01023Y01734*
Y01775*
X01028Y01777*
X01036Y01783*
X01042Y01791*
X01046Y01801*
X01048Y01811*
X01046Y01822*
X01042Y01832*
X01036Y01840*
X01028Y01846*
X01018Y01850*
X01008Y01852*
X00997Y01850*
X00987Y01846*
X00979Y01840*
X00973Y01832*
X00969Y01822*
X00967Y01811*
X00969Y01801*
X00973Y01791*
X00979Y01783*
X00987Y01777*
X00994Y01774*
Y01741*
X00705Y01452*
X00702Y01447*
X00701Y01442*
Y01344*
X00694Y01338*
X00675Y01337*
X00670Y01340*
X00663Y01342*
X00659*
Y01314*
X00654*
Y01342*
X00650*
X00644Y01340*
X00639Y01338*
X00637Y01338*
X00623Y01343*
Y01451*
X00918Y01746*
X00921Y01750*
X00922Y01756*
Y01774*
X00928Y01777*
X00936Y01783*
X00942Y01791*
X00946Y01801*
X00948Y01811*
X00946Y01822*
X00942Y01832*
X00936Y01840*
X00928Y01846*
X00918Y01850*
X00908Y01852*
X00897Y01850*
X00894Y01849*
X00879Y01859*
X00879Y01864*
X00894Y01874*
X00897Y01873*
X00908Y01871*
X00918Y01873*
X00928Y01877*
X00936Y01883*
X00942Y01891*
X00946Y01901*
X00948Y01911*
X00946Y01922*
X00942Y01932*
X00939Y01936*
X00941Y01945*
X00946Y01952*
X00969*
X00974Y01945*
X00976Y01936*
X00973Y01932*
X00969Y01922*
X00967Y01911*
X00969Y01901*
X00973Y01891*
X00979Y01883*
X00987Y01877*
X00997Y01873*
X01008Y01871*
X01018Y01873*
X01026Y01876*
X01043Y01867*
Y01861*
X01044Y01856*
X01047Y01851*
X01071Y01827*
X01069Y01822*
X01067Y01811*
X01069Y01801*
X01073Y01791*
X01079Y01783*
X01087Y01777*
X01097Y01773*
X01108Y01771*
X01118Y01773*
X01128Y01777*
X01136Y01783*
X01142Y01791*
X01146Y01799*
X01161Y01798*
Y01650*
X01160Y01649*
X01156Y01644*
X01155Y01638*
Y01613*
X01156Y01607*
X01160Y01602*
X01161Y01601*
Y01371*
X01132Y01341*
X01129Y01337*
X01128Y01331*
Y01242*
X01124Y01241*
X01117Y01235*
X01111Y01228*
X01108Y01219*
X01107Y01210*
X01108Y01201*
X01111Y01192*
X01117Y01185*
X01124Y01179*
X01133Y01176*
X01142Y01174*
X01151Y01176*
X01160Y01179*
X01167Y01185*
X01169Y01187*
X01176Y01189*
X01182*
X01189Y01187*
X01191Y01185*
X01198Y01179*
X01207Y01176*
X01216Y01174*
X01225Y01176*
X01234Y01179*
X01241Y01185*
X01247Y01192*
X01250Y01201*
X01252Y01210*
X01250Y01219*
X01247Y01228*
X01242Y01235*
X01239Y01254*
X01239Y01257*
X01311Y01329*
X01314Y01333*
X01315Y01339*
Y01738*
X01318Y01740*
X01322Y01745*
X01323Y01751*
Y01775*
X01322Y01781*
X01318Y01787*
X01315Y01789*
Y02030*
X01314Y02036*
X01311Y02040*
X01309Y02042*
X01297Y02054*
X01296Y02055*
X01299Y02071*
X01299Y02070*
X01299Y02070*
X01301Y02070*
X01314*
X01320Y02071*
X01325Y02074*
X01327Y02077*
X01332Y02078*
X01340Y02078*
X01345Y02077*
X01347Y02073*
X01354Y02069*
X01360Y02067*
X01364*
Y02098*
Y02128*
X01360*
X01354Y02127*
X01347Y02123*
X01345Y02119*
X01340Y02118*
X01332Y02118*
X01327Y02119*
X01325Y02121*
X01320Y02125*
X01314Y02126*
X01301*
X01299Y02126*
X01284Y02128*
X01278Y02133*
X01276Y02134*
X01270Y02139*
X01262Y02140*
X01248*
Y02122*
X01243*
Y02117*
X01209*
X01210Y02113*
X01207Y02104*
X01200Y02098*
X01197Y02095*
X01180Y02100*
X01176Y02114*
X01177Y02120*
X01176Y02127*
X01172Y02133*
X01166Y02137*
X01159Y02138*
X01126*
X01119Y02137*
X01116Y02135*
X00940*
X00939Y02138*
X00933Y02146*
X00926Y02151*
X00917Y02155*
X00908Y02156*
X00899Y02155*
X00890Y02151*
X00883Y02146*
X00877Y02138*
X00874Y02130*
X00872Y02121*
X00874Y02111*
X00877Y02103*
X00883Y02095*
X00890Y02090*
X00899Y02086*
X00908Y02085*
X00917Y02086*
X00926Y02090*
X00933Y02095*
X00939Y02103*
X00940Y02106*
X00974*
X00980Y02090*
X00980Y02089*
X00976Y02083*
X00972Y02075*
X00971Y02065*
X00972Y02056*
X00976Y02048*
X00981Y02040*
X00983Y02039*
X00978Y02023*
X00804*
X00799Y02022*
X00795Y02019*
X00741Y01966*
X00647*
X00642Y01965*
X00637Y01962*
X00576Y01901*
X00573Y01896*
X00572Y01891*
Y01878*
X00569Y01876*
X00565Y01870*
X00565Y01867*
X00541*
X00536Y01866*
X00531Y01863*
X00500Y01832*
X00497Y01827*
X00496Y01822*
Y01690*
X00489Y01684*
X00471Y01682*
X00466Y01685*
X00459Y01687*
X00455*
Y01656*
Y01626*
X00459*
X00466Y01627*
X00472Y01631*
X00473Y01632*
X00485Y01631*
X00489Y01630*
Y01545*
X00485Y01541*
X00468Y01535*
X00463Y01539*
X00456Y01540*
X00453*
Y01512*
X00448*
Y01540*
X00444*
X00437Y01539*
X00431Y01534*
X00430Y01533*
X00421Y01533*
X00414Y01535*
Y01638*
X00429Y01640*
X00429Y01637*
X00433Y01631*
X00440Y01627*
X00446Y01626*
X00450*
Y01656*
Y01687*
X00446*
X00440Y01685*
X00433Y01681*
X00429Y01675*
X00429Y01673*
X00414Y01674*
Y01977*
X00428Y01993*
X00440Y01994*
X00453Y01998*
X00465Y02004*
X00475Y02013*
X00484Y02023*
X00490Y02035*
X00492Y02043*
X00499Y02051*
X00508Y02057*
X00511Y02057*
X00527Y02056*
X00543Y02057*
X00547Y02057*
X00555Y02051*
X00562Y02043*
X00564Y02035*
X00571Y02023*
X00579Y02013*
X00589Y02004*
X00601Y01998*
X00614Y01994*
X00625Y01993*
Y02058*
X00630*
Y02063*
X00695*
X00694Y02074*
X00690Y02087*
X00684Y02099*
X00675Y02109*
X00665Y02117*
X00653Y02124*
X00645Y02126*
X00637Y02133*
X00631Y02141*
X00631Y02145*
X00632Y02161*
X00631Y02177*
X00631Y02180*
X00638Y02191*
X00643Y02195*
X00653Y02198*
X00665Y02204*
X00675Y02213*
X00684Y02223*
X00690Y02235*
X00694Y02248*
X00695Y02258*
X00630*
Y02263*
X00695*
X00694Y02274*
X00690Y02287*
X00684Y02299*
X00675Y02309*
X00665Y02317*
X00653Y02324*
X00640Y02328*
X00628Y02329*
X00628Y02329*
X00628Y02347*
X00629Y02348*
X00639Y02365*
X00646Y02383*
X00651Y02402*
X00652Y02422*
X00651Y02574*
X00649Y02593*
X00645Y02612*
X00643Y02617*
X00640Y02625*
X00637Y02632*
X00635Y02636*
X00627Y02651*
X00624Y02657*
X00620Y02662*
X00619Y02664*
X00624Y02669*
X00633Y02673*
X00641Y02667*
X00647Y02662*
X00651Y02660*
X00666Y02652*
X00674Y02648*
X00677Y02647*
X00693Y02642*
X00700Y02641*
X00705Y02640*
X00722Y02638*
X00722*
X00723Y02638*
X00726Y02638*
X00728Y02638*
X00731Y02638*
X00734*
X00735Y02638*
X01064*
X01083Y02640*
X01102Y02645*
X01117Y02651*
X01119Y02651*
X01130Y02656*
X01145Y02664*
X01150Y02667*
X01156Y02671*
X01169Y02682*
X01171Y02684*
X01174Y02686*
X01174Y02686*
X01174Y02687*
X01180Y02693*
X01192*
X01198Y02687*
Y02681*
X01199Y02676*
Y02664*
X01065Y02530*
X00838*
X00837Y02533*
X00831Y02540*
X00823Y02546*
X00815Y02550*
X00806Y02551*
X00796Y02550*
X00788Y02546*
X00780Y02540*
X00775Y02533*
X00771Y02524*
X00770Y02515*
X00771Y02506*
X00775Y02497*
X00780Y02490*
X00788Y02484*
X00791Y02483*
X00792Y02471*
X00791Y02466*
X00790Y02465*
X00782Y02460*
X00777Y02452*
X00773Y02444*
X00772Y02435*
X00773Y02425*
X00777Y02417*
X00777Y02416*
X00766Y02406*
X00760Y02410*
X00752Y02414*
X00743Y02415*
X00733Y02414*
X00725Y02410*
X00717Y02405*
X00712Y02397*
X00708Y02389*
X00707Y02379*
X00708Y02370*
X00712Y02362*
X00717Y02354*
X00725Y02349*
X00733Y02345*
X00743Y02344*
X00752Y02345*
X00760Y02349*
X00768Y02354*
X00774Y02362*
X00775Y02365*
X01068*
X01073Y02366*
X01078Y02369*
X01303Y02594*
X01306Y02599*
X01307Y02604*
Y02676*
X01308Y02681*
Y02687*
X01314Y02693*
X01335*
X01346Y02694*
X01345*
X01351Y02687*
X00416Y01537D02*
Y01639D01*
Y01676D02*
Y01979D01*
X00421Y01535D02*
Y01639D01*
Y01676D02*
Y01984D01*
X00426Y01534D02*
Y01639D01*
Y01675D02*
Y01990D01*
X00431Y01537D02*
Y01636D01*
Y01679D02*
Y01994D01*
X00436Y01540D02*
Y01630D01*
Y01685D02*
Y01994D01*
X00441Y01541D02*
Y01627D01*
Y01688D02*
Y01995D01*
X00446Y01541D02*
Y01626D01*
Y01688D02*
Y01996D01*
X00451Y01513D02*
Y01998D01*
X00456Y01541D02*
Y01625D01*
Y01688D02*
Y02000D01*
X00461Y01541D02*
Y01626D01*
Y01688D02*
Y02002D01*
X00466Y01539D02*
Y01628D01*
Y01687D02*
Y02005D01*
X00471Y01539D02*
Y01631D01*
Y01685D02*
Y02009D01*
X00476Y01540D02*
Y01632D01*
Y01685D02*
Y02013D01*
X00481Y01542D02*
Y01632D01*
Y01686D02*
Y02019D01*
X00486Y01544D02*
Y01631D01*
Y01686D02*
Y02027D01*
X00491Y01687D02*
Y02038D01*
X00496Y01824D02*
Y02047D01*
X00501Y01834D02*
Y02052D01*
X00506Y01839D02*
Y02056D01*
X00511Y01844D02*
Y02057D01*
X00516Y01849D02*
Y02057D01*
X00521Y01854D02*
Y02056D01*
X00526Y01859D02*
Y02056D01*
X00531Y01864D02*
Y02056D01*
X00536Y01868D02*
Y02057D01*
X00541Y01868D02*
Y02057D01*
X00546Y01868D02*
Y02057D01*
X00551Y01868D02*
Y02054D01*
X00556Y01868D02*
Y02050D01*
X00561Y01868D02*
Y02045D01*
X00566Y01873D02*
Y02033D01*
X00571Y01879D02*
Y02023D01*
X00576Y01901D02*
Y02017D01*
X00581Y01907D02*
Y02012D01*
X00586Y01912D02*
Y02008D01*
X00591Y01917D02*
Y02004D01*
X00596Y01922D02*
Y02001D01*
X00601Y01927D02*
Y01999D01*
X00606Y01932D02*
Y01997D01*
X00611Y01937D02*
Y01995D01*
X00616Y01942D02*
Y01994D01*
X00621Y01947D02*
Y01994D01*
Y02663D02*
Y02666D01*
X00626Y01344D02*
Y01454D01*
Y01952D02*
Y02058D01*
Y02656D02*
Y02670D01*
X00631Y01343D02*
Y01459D01*
Y01957D02*
Y02063D01*
Y02143D02*
Y02145D01*
Y02179D02*
Y02181D01*
Y02260D02*
Y02263D01*
Y02330D02*
Y02352D01*
Y02648D02*
Y02673D01*
X00636Y01341D02*
Y01464D01*
Y01962D02*
Y02063D01*
Y02137D02*
Y02187D01*
Y02260D02*
Y02263D01*
Y02330D02*
Y02360D01*
Y02638D02*
Y02671D01*
X00641Y01340D02*
Y01469D01*
Y01966D02*
Y02063D01*
Y02132D02*
Y02193D01*
Y02260D02*
Y02263D01*
Y02329D02*
Y02369D01*
Y02626D02*
Y02666D01*
X00646Y01343D02*
Y01474D01*
Y01967D02*
Y02063D01*
Y02128D02*
Y02196D01*
Y02260D02*
Y02263D01*
Y02328D02*
Y02380D01*
Y02610D02*
Y02664D01*
X00651Y01343D02*
Y01479D01*
Y01967D02*
Y02063D01*
Y02126D02*
Y02198D01*
Y02260D02*
Y02263D01*
Y02326D02*
Y02403D01*
Y02575D02*
Y02660D01*
X00656Y01315D02*
Y01484D01*
Y01967D02*
Y02063D01*
Y02124D02*
Y02200D01*
Y02260D02*
Y02263D01*
Y02324D02*
Y02657D01*
X00661Y01343D02*
Y01489D01*
Y01967D02*
Y02063D01*
Y02122D02*
Y02202D01*
Y02260D02*
Y02263D01*
Y02322D02*
Y02654D01*
X00666Y01343D02*
Y01494D01*
Y01967D02*
Y02063D01*
Y02119D02*
Y02205D01*
Y02260D02*
Y02263D01*
Y02319D02*
Y02651D01*
X00671Y01342D02*
Y01499D01*
Y01967D02*
Y02063D01*
Y02115D02*
Y02209D01*
Y02260D02*
Y02263D01*
Y02315D02*
Y02650D01*
X00676Y01339D02*
Y01504D01*
Y01967D02*
Y02063D01*
Y02110D02*
Y02213D01*
Y02260D02*
Y02263D01*
Y02310D02*
Y02648D01*
X00681Y01339D02*
Y01509D01*
Y01967D02*
Y02063D01*
Y02104D02*
Y02219D01*
Y02260D02*
Y02263D01*
Y02304D02*
Y02646D01*
X00686Y01339D02*
Y01514D01*
Y01967D02*
Y02063D01*
Y02096D02*
Y02227D01*
Y02260D02*
Y02263D01*
Y02296D02*
Y02645D01*
X00691Y01339D02*
Y01519D01*
Y01967D02*
Y02063D01*
Y02085D02*
Y02238D01*
Y02260D02*
Y02263D01*
Y02285D02*
Y02643D01*
X00696Y01341D02*
Y01524D01*
Y01967D02*
Y02642D01*
X00701Y01346D02*
Y01529D01*
Y01967D02*
Y02640D01*
X00706Y01454D02*
Y01534D01*
Y01967D02*
Y02639D01*
X00711Y01459D02*
Y01539D01*
Y01967D02*
Y02364D01*
Y02397D02*
Y02639D01*
X00716Y01464D02*
Y01544D01*
Y01967D02*
Y02357D01*
Y02404D02*
Y02639D01*
X00721Y01469D02*
Y01549D01*
Y01967D02*
Y02352D01*
Y02409D02*
Y02639D01*
X00726Y01474D02*
Y01554D01*
Y01967D02*
Y02348D01*
Y02413D02*
Y02638D01*
X00731Y01479D02*
Y01559D01*
Y01967D02*
Y02346D01*
Y02415D02*
Y02638D01*
X00736Y01484D02*
Y01564D01*
Y01967D02*
Y02344D01*
Y02416D02*
Y02638D01*
X00741Y01489D02*
Y01569D01*
Y01967D02*
Y02344D01*
Y02417D02*
Y02638D01*
X00746Y01494D02*
Y01574D01*
Y01972D02*
Y02344D01*
Y02417D02*
Y02638D01*
X00751Y01499D02*
Y01579D01*
Y01977D02*
Y02344D01*
Y02416D02*
Y02638D01*
X00756Y01504D02*
Y01584D01*
Y01982D02*
Y02346D01*
Y02414D02*
Y02638D01*
X00761Y01509D02*
Y01589D01*
Y01987D02*
Y02349D01*
Y02412D02*
Y02638D01*
X00766Y01514D02*
Y01594D01*
Y01992D02*
Y02353D01*
Y02409D02*
Y02638D01*
X00771Y01519D02*
Y01599D01*
Y01997D02*
Y02358D01*
Y02412D02*
Y02511D01*
Y02522D02*
Y02638D01*
X00776Y01524D02*
Y01604D01*
Y02002D02*
Y02364D01*
Y02416D02*
Y02419D01*
Y02452D02*
Y02496D01*
Y02537D02*
Y02638D01*
X00781Y01529D02*
Y01609D01*
Y02007D02*
Y02364D01*
Y02459D02*
Y02490D01*
Y02543D02*
Y02638D01*
X00786Y01534D02*
Y01614D01*
Y02012D02*
Y02364D01*
Y02464D02*
Y02486D01*
Y02547D02*
Y02638D01*
X00791Y01224D02*
Y01287D01*
Y01340D02*
Y01404D01*
Y01539D02*
Y01619D01*
Y02017D02*
Y02364D01*
Y02468D02*
Y02483D01*
Y02550D02*
Y02638D01*
X00796Y01219D02*
Y01288D01*
Y01339D02*
Y01409D01*
Y01544D02*
Y01624D01*
Y02021D02*
Y02364D01*
Y02551D02*
Y02638D01*
X00801Y01212D02*
Y01290D01*
Y01337D02*
Y01414D01*
Y01549D02*
Y01629D01*
Y02024D02*
Y02364D01*
Y02552D02*
Y02638D01*
X00806Y01184D02*
Y01291D01*
Y01336D02*
Y01419D01*
Y01554D02*
Y01634D01*
Y02024D02*
Y02364D01*
Y02552D02*
Y02638D01*
X00811Y01184D02*
Y01287D01*
Y01340D02*
Y01424D01*
Y01559D02*
Y01639D01*
Y02024D02*
Y02364D01*
Y02552D02*
Y02638D01*
X00816Y01184D02*
Y01283D01*
Y01344D02*
Y01429D01*
Y01564D02*
Y01644D01*
Y02024D02*
Y02364D01*
Y02551D02*
Y02638D01*
X00821Y01184D02*
Y01282D01*
Y01345D02*
Y01434D01*
Y01569D02*
Y01649D01*
Y02024D02*
Y02364D01*
Y02549D02*
Y02638D01*
X00826Y01183D02*
Y01439D01*
Y01574D02*
Y01654D01*
Y02024D02*
Y02364D01*
Y02547D02*
Y02638D01*
X00831Y01181D02*
Y01441D01*
Y01579D02*
Y01659D01*
Y02024D02*
Y02364D01*
Y02542D02*
Y02638D01*
X00836Y01179D02*
Y01438D01*
Y01584D02*
Y01664D01*
Y02024D02*
Y02364D01*
Y02537D02*
Y02638D01*
X00841Y01178D02*
Y01436D01*
Y01589D02*
Y01669D01*
Y02024D02*
Y02364D01*
Y02531D02*
Y02638D01*
X00846Y01176D02*
Y01378D01*
Y01594D02*
Y01674D01*
Y02024D02*
Y02364D01*
Y02531D02*
Y02638D01*
X00851Y01171D02*
Y01370D01*
Y01599D02*
Y01679D01*
Y02024D02*
Y02364D01*
Y02531D02*
Y02638D01*
X00856Y01166D02*
Y01364D01*
Y01604D02*
Y01684D01*
Y02024D02*
Y02364D01*
Y02531D02*
Y02638D01*
X00861Y01157D02*
Y01359D01*
Y01609D02*
Y01689D01*
Y02024D02*
Y02364D01*
Y02531D02*
Y02638D01*
X00866Y01156D02*
Y01354D01*
Y01614D02*
Y01694D01*
Y02024D02*
Y02364D01*
Y02531D02*
Y02638D01*
X00871Y01155D02*
Y01349D01*
Y01619D02*
Y01699D01*
Y02024D02*
Y02364D01*
Y02531D02*
Y02638D01*
X00876Y01153D02*
Y01205D01*
Y01259D02*
Y01344D01*
Y01624D02*
Y01704D01*
Y02024D02*
Y02107D01*
Y02136D02*
Y02364D01*
Y02531D02*
Y02638D01*
X00881Y01153D02*
Y01205D01*
Y01259D02*
Y01339D01*
Y01629D02*
Y01709D01*
Y01859D02*
Y01866D01*
Y02024D02*
Y02098D01*
Y02145D02*
Y02364D01*
Y02531D02*
Y02638D01*
X00886Y01153D02*
Y01205D01*
Y01259D02*
Y01334D01*
Y01634D02*
Y01714D01*
Y01857D02*
Y01868D01*
Y02024D02*
Y02093D01*
Y02150D02*
Y02364D01*
Y02531D02*
Y02638D01*
X00891Y01153D02*
Y01205D01*
Y01259D02*
Y01329D01*
Y01639D02*
Y01719D01*
Y01854D02*
Y01871D01*
Y02024D02*
Y02089D01*
Y02154D02*
Y02364D01*
Y02531D02*
Y02638D01*
X00896Y01153D02*
Y01205D01*
Y01259D02*
Y01324D01*
Y01644D02*
Y01724D01*
Y01852D02*
Y01873D01*
Y02024D02*
Y02088D01*
Y02156D02*
Y02364D01*
Y02531D02*
Y02638D01*
X00901Y01153D02*
Y01205D01*
Y01649D02*
Y01729D01*
Y01853D02*
Y01872D01*
Y02024D02*
Y02086D01*
Y02158D02*
Y02364D01*
Y02531D02*
Y02638D01*
X00906Y01153D02*
Y01205D01*
Y01654D02*
Y01734D01*
Y01853D02*
Y01872D01*
Y02024D02*
Y02085D01*
Y02158D02*
Y02364D01*
Y02531D02*
Y02638D01*
X00911Y01153D02*
Y01205D01*
Y01448D02*
Y01466D01*
Y01659D02*
Y01739D01*
Y01853D02*
Y01872D01*
Y02024D02*
Y02085D01*
Y02158D02*
Y02364D01*
Y02531D02*
Y02638D01*
X00916Y01153D02*
Y01205D01*
Y01446D02*
Y01468D01*
Y01664D02*
Y01744D01*
Y01853D02*
Y01872D01*
Y02024D02*
Y02086D01*
Y02158D02*
Y02364D01*
Y02531D02*
Y02638D01*
X00921Y01153D02*
Y01205D01*
Y01445D02*
Y01469D01*
Y01669D02*
Y01749D01*
Y01851D02*
Y01874D01*
Y02024D02*
Y02088D01*
Y02156D02*
Y02364D01*
Y02531D02*
Y02638D01*
X00926Y01073D02*
Y01082D01*
Y01153D02*
Y01205D01*
Y01445D02*
Y01470D01*
Y01674D02*
Y01776D01*
Y01849D02*
Y01876D01*
Y02024D02*
Y02090D01*
Y02153D02*
Y02364D01*
Y02531D02*
Y02638D01*
X00931Y01072D02*
Y01087D01*
Y01153D02*
Y01205D01*
Y01447D02*
Y01467D01*
Y01679D02*
Y01779D01*
Y01846D02*
Y01879D01*
Y02024D02*
Y02093D01*
Y02150D02*
Y02364D01*
Y02531D02*
Y02638D01*
X00936Y01072D02*
Y01092D01*
Y01153D02*
Y01205D01*
Y01371D02*
Y01370D01*
Y01448D02*
Y01467D01*
Y01631D02*
Y01641D01*
Y01684D02*
Y01783D01*
Y01841D02*
Y01883D01*
Y02024D02*
Y02098D01*
Y02145D02*
Y02364D01*
Y02531D02*
Y02638D01*
X00941Y01072D02*
Y01098D01*
Y01153D02*
Y01205D01*
Y01367D02*
Y01380D01*
Y01420D02*
Y01494D01*
Y01538D02*
Y01550D01*
Y01623D02*
Y01646D01*
Y01689D02*
Y01789D01*
Y01836D02*
Y01889D01*
Y01936D02*
Y01940D01*
Y02024D02*
Y02105D01*
Y02136D02*
Y02364D01*
Y02531D02*
Y02638D01*
X00946Y01072D02*
Y01098D01*
Y01153D02*
Y01205D01*
Y01362D02*
Y01385D01*
Y01415D02*
Y01499D01*
Y01529D02*
Y01554D01*
Y01621D02*
Y01651D01*
Y01694D02*
Y01798D01*
Y01826D02*
Y01898D01*
Y01926D02*
Y01952D01*
Y02024D02*
Y02105D01*
Y02136D02*
Y02364D01*
Y02531D02*
Y02638D01*
X00951Y01073D02*
Y01098D01*
Y01153D02*
Y01205D01*
Y01358D02*
Y01386D01*
Y01415D02*
Y01499D01*
Y01529D02*
Y01556D01*
Y01619D02*
Y01656D01*
Y01699D02*
Y01952D01*
Y02024D02*
Y02105D01*
Y02136D02*
Y02364D01*
Y02531D02*
Y02638D01*
X00956Y01073D02*
Y01098D01*
Y01153D02*
Y01205D01*
Y01357D02*
Y01387D01*
Y01415D02*
Y01499D01*
Y01528D02*
Y01560D01*
Y01615D02*
Y01661D01*
Y01704D02*
Y01952D01*
Y02024D02*
Y02105D01*
Y02136D02*
Y02364D01*
Y02531D02*
Y02638D01*
X00961Y01073D02*
Y01098D01*
Y01153D02*
Y01205D01*
Y01259D02*
Y01290D01*
Y01356D02*
Y01391D01*
Y01415D02*
Y01499D01*
Y01525D02*
Y01565D01*
Y01610D02*
Y01666D01*
Y01709D02*
Y01952D01*
Y02024D02*
Y02105D01*
Y02136D02*
Y02364D01*
Y02531D02*
Y02638D01*
X00966Y01073D02*
Y01098D01*
Y01153D02*
Y01205D01*
Y01259D02*
Y01293D01*
Y01356D02*
Y01400D01*
Y01415D02*
Y01499D01*
Y01519D02*
Y01575D01*
Y01600D02*
Y01671D01*
Y01714D02*
Y01952D01*
Y02024D02*
Y02105D01*
Y02136D02*
Y02364D01*
Y02531D02*
Y02638D01*
X00971Y01072D02*
Y01098D01*
Y01153D02*
Y01205D01*
Y01259D02*
Y01295D01*
Y01357D02*
Y01676D01*
Y01719D02*
Y01796D01*
Y01829D02*
Y01896D01*
Y01929D02*
Y01950D01*
Y02024D02*
Y02065D01*
Y02068D02*
Y02105D01*
Y02136D02*
Y02364D01*
Y02531D02*
Y02638D01*
X00976Y01069D02*
Y01098D01*
Y01153D02*
Y01205D01*
Y01259D02*
Y01296D01*
Y01358D02*
Y01681D01*
Y01724D02*
Y01788D01*
Y01837D02*
Y01888D01*
Y01937D02*
Y01938D01*
Y02024D02*
Y02047D01*
Y02086D02*
Y02103D01*
Y02136D02*
Y02364D01*
Y02531D02*
Y02638D01*
X00981Y01059D02*
Y01295D01*
Y01358D02*
Y01686D01*
Y01729D02*
Y01782D01*
Y01842D02*
Y01882D01*
Y02033D02*
Y02042D01*
Y02136D02*
Y02364D01*
Y02531D02*
Y02638D01*
X00986Y01059D02*
Y01691D01*
Y01734D02*
Y01778D01*
Y01847D02*
Y01878D01*
Y02136D02*
Y02364D01*
Y02531D02*
Y02638D01*
X00991Y01059D02*
Y01696D01*
Y01739D02*
Y01775D01*
Y01850D02*
Y01875D01*
Y02136D02*
Y02364D01*
Y02531D02*
Y02638D01*
X00996Y01059D02*
Y01701D01*
Y01852D02*
Y01873D01*
Y02136D02*
Y02364D01*
Y02531D02*
Y02638D01*
X01001Y01059D02*
Y01706D01*
Y01853D02*
Y01872D01*
Y02136D02*
Y02364D01*
Y02531D02*
Y02638D01*
X01006Y01059D02*
Y01711D01*
Y01853D02*
Y01872D01*
Y02136D02*
Y02364D01*
Y02531D02*
Y02638D01*
X01011Y01059D02*
Y01716D01*
Y01853D02*
Y01872D01*
Y02136D02*
Y02364D01*
Y02531D02*
Y02638D01*
X01016Y01059D02*
Y01721D01*
Y01853D02*
Y01872D01*
Y02136D02*
Y02364D01*
Y02531D02*
Y02638D01*
X01021Y01059D02*
Y01726D01*
Y01851D02*
Y01874D01*
Y02136D02*
Y02364D01*
Y02531D02*
Y02638D01*
X01026Y01059D02*
Y01776D01*
Y01849D02*
Y01875D01*
Y02136D02*
Y02364D01*
Y02531D02*
Y02638D01*
X01031Y01059D02*
Y01779D01*
Y01846D02*
Y01874D01*
Y02136D02*
Y02364D01*
Y02531D02*
Y02638D01*
X01036Y01059D02*
Y01783D01*
Y01841D02*
Y01871D01*
Y02136D02*
Y02364D01*
Y02531D02*
Y02638D01*
X01041Y01059D02*
Y01789D01*
Y01836D02*
Y01869D01*
Y02136D02*
Y02364D01*
Y02531D02*
Y02638D01*
X01046Y01059D02*
Y01798D01*
Y01826D02*
Y01854D01*
Y02136D02*
Y02364D01*
Y02531D02*
Y02638D01*
X01051Y01059D02*
Y01848D01*
Y02136D02*
Y02364D01*
Y02531D02*
Y02638D01*
X01056Y01059D02*
Y01843D01*
Y02136D02*
Y02364D01*
Y02531D02*
Y02638D01*
X01061Y01059D02*
Y01838D01*
Y02136D02*
Y02364D01*
Y02531D02*
Y02638D01*
X01066Y01059D02*
Y01833D01*
Y02136D02*
Y02364D01*
Y02532D02*
Y02639D01*
X01071Y01059D02*
Y01796D01*
Y02136D02*
Y02365D01*
Y02537D02*
Y02639D01*
X01076Y01059D02*
Y01788D01*
Y02136D02*
Y02367D01*
Y02542D02*
Y02639D01*
X01081Y01059D02*
Y01782D01*
Y02136D02*
Y02372D01*
Y02547D02*
Y02639D01*
X01086Y01057D02*
Y01778D01*
Y02136D02*
Y02377D01*
Y02552D02*
Y02640D01*
X01091Y01057D02*
Y01775D01*
Y02136D02*
Y02382D01*
Y02557D02*
Y02641D01*
X01096Y01057D02*
Y01773D01*
Y02136D02*
Y02387D01*
Y02562D02*
Y02643D01*
X01101Y01057D02*
Y01772D01*
Y02136D02*
Y02392D01*
Y02567D02*
Y02644D01*
X01106Y01056D02*
Y01772D01*
Y02136D02*
Y02397D01*
Y02572D02*
Y02646D01*
X01111Y01051D02*
Y01194D01*
Y01228D02*
Y01772D01*
Y02136D02*
Y02402D01*
Y02577D02*
Y02648D01*
X01116Y01049D02*
Y01186D01*
Y01236D02*
Y01772D01*
Y02136D02*
Y02407D01*
Y02582D02*
Y02650D01*
X01121Y01049D02*
Y01182D01*
Y01241D02*
Y01774D01*
Y02139D02*
Y02412D01*
Y02587D02*
Y02652D01*
X01126Y01049D02*
Y01179D01*
Y01244D02*
Y01776D01*
Y02140D02*
Y02417D01*
Y02592D02*
Y02654D01*
X01131Y01049D02*
Y01176D01*
Y01342D02*
Y01779D01*
Y02140D02*
Y02422D01*
Y02597D02*
Y02657D01*
X01136Y01049D02*
Y01175D01*
Y01347D02*
Y01783D01*
Y02140D02*
Y02427D01*
Y02602D02*
Y02659D01*
X01141Y01049D02*
Y01175D01*
Y01352D02*
Y01789D01*
Y02140D02*
Y02432D01*
Y02607D02*
Y02662D01*
X01146Y01049D02*
Y01175D01*
Y01357D02*
Y01798D01*
Y02140D02*
Y02437D01*
Y02612D02*
Y02665D01*
X01151Y01049D02*
Y01175D01*
Y01362D02*
Y01798D01*
Y02140D02*
Y02442D01*
Y02617D02*
Y02667D01*
X01156Y01049D02*
Y01177D01*
Y01367D02*
Y01613D01*
Y01640D02*
Y01798D01*
Y02140D02*
Y02447D01*
Y02622D02*
Y02672D01*
X01161Y01049D02*
Y01180D01*
Y01372D02*
Y01601D01*
Y01651D02*
Y01798D01*
Y02140D02*
Y02452D01*
Y02627D02*
Y02675D01*
X01166Y01049D02*
Y01183D01*
Y02138D02*
Y02457D01*
Y02632D02*
Y02679D01*
X01171Y01049D02*
Y01188D01*
Y02135D02*
Y02462D01*
Y02637D02*
Y02683D01*
X01176Y01049D02*
Y01188D01*
Y02115D02*
Y02114D01*
Y02128D02*
Y02467D01*
Y02642D02*
Y02688D01*
X01181Y01049D02*
Y01188D01*
Y02101D02*
Y02472D01*
Y02647D02*
Y02692D01*
X01186Y01049D02*
Y01188D01*
Y02100D02*
Y02477D01*
Y02652D02*
Y02692D01*
X01191Y01049D02*
Y01184D01*
Y02098D02*
Y02482D01*
Y02657D02*
Y02692D01*
X01196Y01049D02*
Y01181D01*
Y02097D02*
Y02487D01*
Y02662D02*
Y02689D01*
X01201Y01049D02*
Y01178D01*
Y02100D02*
Y02492D01*
X01206Y01049D02*
Y01176D01*
Y02105D02*
Y02497D01*
X01211Y01049D02*
Y01175D01*
Y02119D02*
Y02502D01*
X01216Y01049D02*
Y01175D01*
Y02119D02*
Y02507D01*
X01221Y01050D02*
Y01175D01*
Y02119D02*
Y02512D01*
X01226Y01055D02*
Y01176D01*
Y02119D02*
Y02517D01*
X01231Y01057D02*
Y01178D01*
Y02119D02*
Y02522D01*
X01236Y01057D02*
Y01181D01*
Y02119D02*
Y02527D01*
X01241Y01057D02*
Y01184D01*
Y01243D02*
Y01258D01*
Y02119D02*
Y02532D01*
X01246Y01057D02*
Y01191D01*
Y01231D02*
Y01263D01*
Y02124D02*
Y02537D01*
X01251Y01057D02*
Y01201D01*
Y01221D02*
Y01268D01*
Y02142D02*
Y02542D01*
X01256Y01057D02*
Y01273D01*
Y02142D02*
Y02547D01*
X01261Y01057D02*
Y01278D01*
Y02142D02*
Y02552D01*
X01266Y01056D02*
Y01283D01*
Y02141D02*
Y02557D01*
X01271Y01051D02*
Y01288D01*
Y02140D02*
Y02562D01*
X01276Y01049D02*
Y01293D01*
Y02137D02*
Y02567D01*
X01281Y01049D02*
Y01298D01*
Y02132D02*
Y02572D01*
X01286Y01049D02*
Y01303D01*
Y02130D02*
Y02577D01*
X01291Y01049D02*
Y01308D01*
Y02129D02*
Y02582D01*
X01296Y01049D02*
Y01313D01*
Y02128D02*
Y02587D01*
X01301Y01049D02*
Y01318D01*
Y02052D02*
Y02070D01*
Y02128D02*
Y02592D01*
X01306Y01049D02*
Y01323D01*
Y02047D02*
Y02069D01*
Y02128D02*
Y02599D01*
X01311Y01049D02*
Y01328D01*
Y02043D02*
Y02069D01*
Y02128D02*
Y02689D01*
X01316Y01049D02*
Y01738D01*
Y01790D02*
Y02070D01*
Y02128D02*
Y02692D01*
X01321Y01049D02*
Y01744D01*
Y01785D02*
Y02071D01*
Y02127D02*
Y02692D01*
X01326Y01049D02*
Y02075D01*
Y02123D02*
Y02692D01*
X01331Y01049D02*
Y02077D01*
Y02120D02*
Y02692D01*
X01336Y01049D02*
Y02077D01*
Y02120D02*
Y02694D01*
X01341Y01049D02*
Y02077D01*
Y02120D02*
Y02694D01*
X01346Y01049D02*
Y02075D01*
Y02122D02*
Y02692D01*
X01351Y01049D02*
Y02070D01*
Y02128D02*
Y02687D01*
X01356Y01049D02*
Y02068D01*
Y02130D02*
Y02682D01*
X01361Y01049D02*
Y02067D01*
Y02130D02*
Y02677D01*
X01366Y01049D02*
Y02672D01*
X01371Y01049D02*
Y02669D01*
X01376Y01049D02*
Y02665D01*
X01381Y01049D02*
Y02661D01*
X01386Y01049D02*
Y02657D01*
X01391Y01049D02*
Y02655D01*
X01396Y01048D02*
Y02652D01*
X01401Y01047D02*
Y02649D01*
X01406Y01047D02*
Y02646D01*
X01411Y01047D02*
Y02644D01*
X01416Y01047D02*
Y02642D01*
X01421Y01047D02*
Y02639D01*
X01426Y01047D02*
Y02638D01*
X01431Y01047D02*
Y02637D01*
X01436Y01047D02*
Y02636D01*
X01441Y01047D02*
Y02635D01*
X01446Y01047D02*
Y02635D01*
X01451Y01047D02*
Y02634D01*
X01456Y01047D02*
Y02634D01*
X01461Y01047D02*
Y02628D01*
X01466Y01047D02*
Y02621D01*
X01471Y01047D02*
Y01153D01*
X01476Y01047D02*
Y01135D01*
X01481Y01047D02*
Y01119D01*
X01486Y01047D02*
Y01109D01*
X01491Y01047D02*
Y01099D01*
X01496Y01047D02*
Y01091D01*
X01501Y01047D02*
Y01084D01*
X01506Y01047D02*
Y01078D01*
X01511Y01056D02*
Y01072D01*
X01139Y03830D02*
X01128Y03827D01*
X01117Y03820*
X01106Y03812*
X01098Y03802*
X01092Y03790*
X01088Y03777*
X01087Y03766*
X01152*
Y03761*
X01087*
X01088Y03751*
X01092Y03738*
X01098Y03726*
X01106Y03716*
X01117Y03707*
X01128Y03701*
X01137Y03699*
X01145Y03692*
X01151Y03683*
X01151Y03680*
X01149Y03664*
X01151Y03648*
X01151Y03644*
X01143Y03634*
X01139Y03630*
X01128Y03627*
X01117Y03620*
X01106Y03612*
X01098Y03602*
X01092Y03590*
X01088Y03577*
X01087Y03566*
X01152*
Y03561*
X01087*
X01088Y03551*
X01092Y03538*
X01098Y03526*
X01106Y03516*
X01117Y03507*
X01128Y03501*
X01136Y03499*
X01135Y03499*
X01142Y03488*
X01144Y03480*
X01140Y03474*
X01133Y03456*
X01128Y03437*
X01127Y03418*
X01128Y02961*
X01129Y02941*
X01134Y02922*
X01141Y02904*
X01151Y02889*
X01153Y02884*
X01156Y02880*
X01160Y02874*
X01161Y02873*
X01151Y02861*
X01148Y02863*
X01143Y02867*
X01129Y02874*
X01119Y02878*
X01117Y02879*
X01101Y02884*
X01089Y02886*
X01073Y02888*
X01069*
X01065*
X01064Y02888*
X00732*
X00712Y02887*
X00693Y02882*
X00680Y02876*
X00676Y02875*
X00664Y02870*
X00649Y02862*
X00645Y02859*
X00639Y02855*
X00625Y02844*
X00623Y02842*
X00620Y02840*
X00620Y02840*
X00620Y02840*
X00614Y02834*
X00610Y02834*
X00589*
X00582Y02840*
Y02846*
X00581Y02851*
Y02907*
X00693Y03019*
X00759*
X00760Y03016*
X00766Y03009*
X00773Y03003*
X00782Y02999*
X00791Y02998*
X00800Y02999*
X00809Y03003*
X00816Y03009*
X00822Y03016*
X00825Y03025*
X00827Y03034*
X00825Y03043*
X00822Y03052*
X00816Y03059*
X00809Y03065*
X00800Y03068*
X00791Y03070*
X00782Y03068*
X00773Y03065*
X00766Y03059*
X00760Y03052*
X00759Y03048*
X00702*
Y03307*
X00708Y03312*
X00719Y03317*
X00724Y03315*
X00732Y03314*
Y03356*
Y03398*
X00725Y03397*
X00717Y03405*
X00722Y03410*
X00727Y03414*
X00732Y03414*
Y03456*
Y03498*
X00724Y03497*
X00714Y03493*
X00705Y03486*
X00698Y03477*
X00695Y03469*
X00694Y03468*
X00676Y03462*
X00674Y03463*
X00674Y03466*
X00670Y03476*
X00663Y03484*
X00655Y03491*
X00645Y03495*
X00635Y03496*
X00625Y03495*
X00615Y03491*
X00606Y03484*
X00600Y03476*
X00596Y03466*
X00595Y03456*
X00596Y03445*
X00600Y03436*
X00606Y03427*
X00615Y03421*
X00625Y03417*
X00635Y03416*
X00645Y03417*
X00655Y03421*
X00656Y03422*
X00670Y03412*
X00670Y03411*
X00668Y03399*
X00667Y03399*
X00652Y03392*
X00645Y03395*
X00635Y03396*
X00625Y03395*
X00615Y03391*
X00606Y03384*
X00600Y03376*
X00596Y03366*
X00595Y03356*
X00596Y03345*
X00600Y03336*
X00606Y03327*
X00615Y03321*
X00620Y03319*
Y03206*
X00620Y03207*
X00603Y03200*
X00603Y03200*
X00594Y03203*
X00585Y03204*
X00576Y03203*
X00567Y03200*
X00565Y03198*
X00553Y03202*
X00549Y03206*
Y03316*
X00575*
Y03396*
X00549*
Y03419*
X00555Y03421*
X00563Y03427*
X00570Y03436*
X00574Y03445*
X00575Y03456*
X00574Y03466*
X00570Y03476*
X00563Y03484*
X00555Y03491*
X00545Y03495*
X00535Y03496*
X00525Y03495*
X00515Y03491*
X00506Y03484*
X00500Y03476*
X00496Y03466*
X00495Y03456*
X00496Y03445*
X00500Y03436*
X00506Y03427*
X00515Y03421*
X00520Y03419*
Y03396*
X00495*
Y03316*
X00520*
Y03068*
X00517Y03067*
X00510Y03061*
X00504Y03054*
X00502Y03049*
X00339*
X00333Y03048*
X00329Y03045*
X00093Y02809*
X00076Y02816*
Y03069*
X00163Y03156*
X00192*
Y03154*
X00260*
Y03155*
X00335*
X00337Y03152*
X00342Y03145*
X00350Y03139*
X00358Y03135*
X00368Y03134*
X00377Y03135*
X00385Y03139*
X00393Y03145*
X00399Y03152*
X00402Y03161*
X00403Y03170*
X00402Y03179*
X00399Y03188*
X00393Y03195*
X00388Y03198*
X00388Y03200*
X00388Y03205*
X00391Y03216*
X00391Y03217*
X00399Y03222*
X00404Y03230*
X00408Y03238*
X00409Y03248*
X00408Y03257*
X00404Y03265*
X00399Y03273*
X00391Y03278*
X00383Y03282*
X00374Y03283*
X00364Y03282*
X00356Y03278*
X00348Y03273*
X00343Y03265*
X00341Y03262*
X00251*
Y03263*
X00183*
Y03262*
X00122*
X00117Y03261*
X00112Y03258*
X00035Y03181*
X00019Y03188*
Y03844*
X01136*
X01139Y03830*
G54D10*
X01133Y03833D02*
X01126Y03831D01*
X01114Y03825*
X01103Y03815*
X01094Y03804*
X01087Y03792*
X01083Y03778*
X01081Y03761*
X01147*
X01149Y03764*
X01081Y03767*
X01083Y03750*
X01087Y03736*
X01094Y03723*
X01103Y03712*
X01114Y03703*
X01126Y03696*
X01134Y03694*
X01141Y03688*
X01146Y03682*
X01146Y03680*
X01144Y03664*
X01146Y03647*
X01146Y03646*
X01139Y03637*
X01136Y03634*
X01126Y03631*
X01114Y03625*
X01103Y03615*
X01094Y03604*
X01087Y03592*
X01083Y03578*
X01081Y03561*
X01147*
X01149Y03564*
X01081Y03567*
X01083Y03550*
X01087Y03536*
X01094Y03523*
X01103Y03512*
X01114Y03503*
X01126Y03496*
X01150Y03489*
X01107Y03541*
X01137Y03486*
X01138Y03481*
X01136Y03477*
X01128Y03458*
X01123Y03438*
X01122Y03418*
X01123Y02961*
X01124Y02941*
X01129Y02921*
X01137Y02902*
X01146Y02886*
X01149Y02882*
X01152Y02877*
X01156Y02871*
X01154Y02873*
X01150Y02868*
X01151Y02867*
X01145Y02871*
X01131Y02879*
X01121Y02883*
X01119Y02884*
X01103Y02889*
X01090Y02891*
X01073Y02893*
X01069*
X01065*
X01064Y02893*
X00731*
X00711Y02892*
X00692Y02887*
X00678Y02881*
X00674Y02880*
X00662Y02875*
X00646Y02867*
X00642Y02864*
X00636Y02859*
X00622Y02848*
X00620Y02846*
X00617Y02844*
X00617Y02843*
X00612Y02839*
X00610Y02839*
X00591*
X00587Y02842*
Y02846*
X00586Y02851*
Y02905*
X00695Y03014*
X00755*
X00756Y03014*
X00762Y03005*
X00770Y02999*
X00780Y02995*
X00791Y02993*
X00801Y02995*
X00811Y02999*
X00820Y03005*
X00826Y03014*
X00830Y03023*
X00832Y03034*
X00830Y03044*
X00826Y03054*
X00820Y03063*
X00811Y03069*
X00801Y03073*
X00791Y03075*
X00780Y03073*
X00770Y03069*
X00762Y03063*
X00756Y03054*
X00755Y03053*
X00707*
Y03305*
X00710Y03308*
X00719Y03311*
X00723Y03310*
X00737Y03308*
Y03356*
Y03404*
X00727Y03402*
X00724Y03405*
X00725Y03406*
X00729Y03409*
X00737Y03408*
Y03456*
Y03504*
X00723Y03502*
X00711Y03497*
X00701Y03489*
X00694Y03480*
X00691Y03472*
X00691Y03472*
X00677Y03467*
X00679Y03466*
X00679Y03468*
X00674Y03478*
X00667Y03488*
X00658Y03495*
X00647Y03500*
X00635Y03501*
X00623Y03500*
X00612Y03495*
X00603Y03488*
X00596Y03478*
X00591Y03468*
X00590Y03456*
X00591Y03444*
X00596Y03433*
X00603Y03424*
X00612Y03417*
X00623Y03412*
X00635Y03411*
X00647Y03412*
X00658Y03417*
X00656Y03415*
X00665Y03409*
X00665Y03411*
X00663Y03403*
X00665Y03404*
X00652Y03397*
X00647Y03400*
X00635Y03401*
X00623Y03400*
X00612Y03395*
X00603Y03388*
X00596Y03378*
X00591Y03368*
X00590Y03356*
X00591Y03344*
X00596Y03333*
X00603Y03324*
X00612Y03317*
X00615Y03316*
Y03195*
X00642Y03222*
X00593Y03201*
X00569Y03219*
X00596Y03208*
X00585Y03210*
X00575Y03208*
X00565Y03204*
X00564Y03204*
X00555Y03207*
X00554Y03208*
Y03311*
X00580*
Y03401*
X00554*
Y03415*
X00558Y03417*
X00567Y03424*
X00574Y03433*
X00579Y03444*
X00580Y03456*
X00579Y03468*
X00574Y03478*
X00567Y03488*
X00558Y03495*
X00547Y03500*
X00535Y03501*
X00523Y03500*
X00512Y03495*
X00503Y03488*
X00496Y03478*
X00491Y03468*
X00490Y03456*
X00491Y03444*
X00496Y03433*
X00503Y03424*
X00512Y03417*
X00515Y03415*
Y03401*
X00490*
Y03311*
X00515*
Y03071*
X00515Y03071*
X00506Y03065*
X00500Y03056*
X00499Y03054*
X00338*
X00332Y03053*
X00326Y03049*
X00091Y02815*
X00081Y02819*
Y03067*
X00165Y03151*
X00187*
Y03149*
X00265*
Y03150*
X00332*
X00332Y03149*
X00339Y03141*
X00347Y03135*
X00357Y03130*
X00368Y03129*
X00378Y03130*
X00388Y03135*
X00396Y03141*
X00403Y03149*
X00407Y03159*
X00408Y03170*
X00407Y03180*
X00403Y03190*
X00396Y03199*
X00393Y03201*
X00393Y03200*
X00393Y03205*
X00395Y03213*
X00394Y03212*
X00402Y03219*
X00409Y03227*
X00413Y03237*
X00414Y03248*
X00413Y03258*
X00409Y03268*
X00402Y03276*
X00394Y03283*
X00384Y03287*
X00374Y03288*
X00363Y03287*
X00353Y03283*
X00345Y03276*
X00338Y03268*
X00338Y03267*
X00256*
Y03268*
X00178*
Y03267*
X00122*
X00115Y03266*
X00109Y03262*
X00034Y03187*
X00024Y03191*
Y03839*
X01132*
X01133Y03833*
X00083Y02821D02*
X00096D01*
X00083Y02831D02*
X00106D01*
X00083Y02841D02*
X00116D01*
X00591D02*
X00614D01*
X00083Y02851D02*
X00126D01*
X00589D02*
X00624D01*
X00083Y02861D02*
X00136D01*
X00589D02*
X00636D01*
X00083Y02871D02*
X00146D01*
X00589D02*
X00654D01*
X01149D02*
X01152D01*
X00083Y02881D02*
X00156D01*
X00589D02*
X00676D01*
X01127D02*
X01148D01*
X00083Y02891D02*
X00166D01*
X00589D02*
X00706D01*
X01097D02*
X01144D01*
X00083Y02901D02*
X00176D01*
X00589D02*
X01136D01*
X00083Y02911D02*
X00186D01*
X00593D02*
X01132D01*
X00083Y02921D02*
X00196D01*
X00603D02*
X01128D01*
X00083Y02931D02*
X00206D01*
X00613D02*
X01126D01*
X00083Y02941D02*
X00216D01*
X00623D02*
X01124D01*
X00083Y02951D02*
X00226D01*
X00633D02*
X01122D01*
X00083Y02961D02*
X00236D01*
X00643D02*
X01122D01*
X00083Y02971D02*
X00246D01*
X00653D02*
X01122D01*
X00083Y02981D02*
X00256D01*
X00663D02*
X01122D01*
X00083Y02991D02*
X00266D01*
X00673D02*
X01122D01*
X00083Y03001D02*
X00276D01*
X00683D02*
X00768D01*
X00817D02*
X01122D01*
X00083Y03011D02*
X00286D01*
X00693D02*
X00758D01*
X00827D02*
X01122D01*
X00083Y03021D02*
X00296D01*
X00831D02*
X01122D01*
X00083Y03031D02*
X00306D01*
X00833D02*
X01122D01*
X00083Y03041D02*
X00316D01*
X00833D02*
X01122D01*
X00083Y03051D02*
X00326D01*
X00831D02*
X01122D01*
X00083Y03061D02*
X00502D01*
X00709D02*
X00760D01*
X00823D02*
X01122D01*
X00087Y03071D02*
X00512D01*
X00709D02*
X00772D01*
X00811D02*
X01122D01*
X00097Y03081D02*
X00514D01*
X00709D02*
X01122D01*
X00107Y03091D02*
X00514D01*
X00709D02*
X01122D01*
X00117Y03101D02*
X00514D01*
X00709D02*
X01122D01*
X00127Y03111D02*
X00514D01*
X00709D02*
X01122D01*
X00137Y03121D02*
X00514D01*
X00709D02*
X01122D01*
X00147Y03131D02*
X00356D01*
X00381D02*
X00514D01*
X00709D02*
X01122D01*
X00157Y03141D02*
X00338D01*
X00399D02*
X00514D01*
X00709D02*
X01122D01*
X00167Y03151D02*
X00186D01*
X00405D02*
X00514D01*
X00709D02*
X01122D01*
X00409Y03161D02*
X00514D01*
X00709D02*
X01122D01*
X00411Y03171D02*
X00514D01*
X00709D02*
X01122D01*
X00409Y03181D02*
X00514D01*
X00709D02*
X01122D01*
X00025Y03191D02*
X00038D01*
X00405D02*
X00514D01*
X00709D02*
X01122D01*
X00025Y03201D02*
X00048D01*
X00397D02*
X00514D01*
X00617D02*
X00620D01*
X00709D02*
X01122D01*
X00025Y03211D02*
X00058D01*
X00397D02*
X00514D01*
X00555D02*
X00630D01*
X00709D02*
X01122D01*
X00025Y03221D02*
X00068D01*
X00407D02*
X00514D01*
X00555D02*
X00614D01*
X00709D02*
X01122D01*
X00025Y03231D02*
X00078D01*
X00413D02*
X00514D01*
X00555D02*
X00614D01*
X00709D02*
X01122D01*
X00025Y03241D02*
X00088D01*
X00415D02*
X00514D01*
X00555D02*
X00614D01*
X00709D02*
X01122D01*
X00025Y03251D02*
X00098D01*
X00417D02*
X00514D01*
X00555D02*
X00614D01*
X00709D02*
X01122D01*
X00025Y03261D02*
X00108D01*
X00415D02*
X00514D01*
X00555D02*
X00614D01*
X00709D02*
X01122D01*
X00025Y03271D02*
X00340D01*
X00409D02*
X00514D01*
X00555D02*
X00614D01*
X00709D02*
X01122D01*
X00025Y03281D02*
X00350D01*
X00399D02*
X00514D01*
X00555D02*
X00614D01*
X00709D02*
X01122D01*
X00025Y03291D02*
X00514D01*
X00555D02*
X00614D01*
X00709D02*
X01122D01*
X00025Y03301D02*
X00514D01*
X00555D02*
X00614D01*
X00709D02*
X01122D01*
X00025Y03311D02*
X00490D01*
X00581D02*
X00614D01*
X00719D02*
X00720D01*
X00739D02*
X01122D01*
X00025Y03321D02*
X00490D01*
X00581D02*
X00606D01*
X00739D02*
X01122D01*
X00025Y03331D02*
X00490D01*
X00581D02*
X00598D01*
X00739D02*
X01122D01*
X00025Y03341D02*
X00490D01*
X00581D02*
X00592D01*
X00739D02*
X01122D01*
X00025Y03351D02*
X00490D01*
X00581D02*
X00590D01*
X00739D02*
X01122D01*
X00025Y03361D02*
X00490D01*
X00581D02*
X00590D01*
X00739D02*
X01122D01*
X00025Y03371D02*
X00490D01*
X00581D02*
X00592D01*
X00739D02*
X01122D01*
X00025Y03381D02*
X00490D01*
X00581D02*
X00596D01*
X00739D02*
X01122D01*
X00025Y03391D02*
X00490D01*
X00581D02*
X00606D01*
X00739D02*
X01122D01*
X00025Y03401D02*
X00514D01*
X00557D02*
X00628D01*
X00643D02*
X00658D01*
X00739D02*
X01122D01*
X00025Y03411D02*
X00514D01*
X00557D02*
X00662D01*
X00739D02*
X01122D01*
X00025Y03421D02*
X00506D01*
X00565D02*
X00606D01*
X00739D02*
X01122D01*
X00025Y03431D02*
X00498D01*
X00575D02*
X00598D01*
X00739D02*
X01122D01*
X00025Y03441D02*
X00492D01*
X00579D02*
X00592D01*
X00739D02*
X01124D01*
X00025Y03451D02*
X00490D01*
X00583D02*
X00590D01*
X00739D02*
X01126D01*
X00025Y03461D02*
X00490D01*
X00583D02*
X00590D01*
X00739D02*
X01128D01*
X00025Y03471D02*
X00492D01*
X00579D02*
X00592D01*
X00679D02*
X00684D01*
X00739D02*
X01132D01*
X00025Y03481D02*
X00496D01*
X00575D02*
X00596D01*
X00675D02*
X00694D01*
X00739D02*
X01138D01*
X00025Y03491D02*
X00506D01*
X00565D02*
X00606D01*
X00665D02*
X00702D01*
X00739D02*
X01134D01*
X01149D02*
X01150D01*
X00025Y03501D02*
X00528D01*
X00543D02*
X00628D01*
X00643D02*
X00720D01*
X00739D02*
X01118D01*
X01131D02*
X01140D01*
X00025Y03511D02*
X01104D01*
X01127D02*
X01132D01*
X00025Y03521D02*
X01096D01*
X01121D02*
X01124D01*
X00025Y03531D02*
X01090D01*
X01115D02*
X01116D01*
X00025Y03541D02*
X01086D01*
X00025Y03551D02*
X01082D01*
X00025Y03561D02*
X01082D01*
X00025Y03571D02*
X01082D01*
X00025Y03581D02*
X01082D01*
X00025Y03591D02*
X01086D01*
X00025Y03601D02*
X01092D01*
X00025Y03611D02*
X01098D01*
X00025Y03621D02*
X01108D01*
X00025Y03631D02*
X01124D01*
X00025Y03641D02*
X01142D01*
X00025Y03651D02*
X01144D01*
X00025Y03661D02*
X01144D01*
X00025Y03671D02*
X01144D01*
X00025Y03681D02*
X01144D01*
X00025Y03691D02*
X01138D01*
X00025Y03701D02*
X01118D01*
X00025Y03711D02*
X01104D01*
X00025Y03721D02*
X01096D01*
X00025Y03731D02*
X01090D01*
X00025Y03741D02*
X01086D01*
X00025Y03751D02*
X01082D01*
X00025Y03761D02*
X01082D01*
X00025Y03771D02*
X01082D01*
X00025Y03781D02*
X01082D01*
X00025Y03791D02*
X01086D01*
X00025Y03801D02*
X01092D01*
X00025Y03811D02*
X01098D01*
X00025Y03821D02*
X01108D01*
X00025Y03831D02*
X01124D01*
%LNupcnsl-abs-comms-rfpatest-v1.0-2*%
%LPC*%
G36*
X01114Y00969D02*
X01091D01*
Y00952*
X01098*
X01104Y00953*
X01110Y00957*
X01113Y00962*
X01114Y00968*
Y00969*
G37*
G36*
X01274Y00969D02*
X01251D01*
Y00952*
X01258*
X01264Y00953*
X01269Y00956*
X01273Y00962*
X01274Y00968*
Y00969*
G37*
G36*
X01081Y00969D02*
X01058D01*
Y00968*
X01060Y00962*
X01063Y00957*
X01068Y00953*
X01075Y00952*
X01081*
Y00969*
G37*
G36*
X03126Y00275D02*
X02925D01*
X02926Y00253*
X02931Y00226*
X02940Y00201*
X02952Y00176*
X02967Y00154*
X02985Y00133*
X03005Y00116*
X03028Y00100*
X03052Y00089*
X03078Y00080*
X03104Y00074*
X03126Y00073*
Y00275*
G37*
G36*
X00118Y00185D02*
X00104Y00184D01*
X00092Y00180*
X00080Y00174*
X00070Y00165*
X00062Y00155*
X00055Y00143*
X00052Y00131*
X00050Y00118*
X00052Y00104*
X00055Y00092*
X00062Y00080*
X00070Y00070*
X00080Y00062*
X00092Y00055*
X00104Y00052*
X00118Y00050*
X00131Y00052*
X00143Y00055*
X00155Y00062*
X00165Y00070*
X00174Y00080*
X00180Y00092*
X00184Y00104*
X00185Y00118*
X00184Y00131*
X00180Y00143*
X00174Y00155*
X00165Y00165*
X00155Y00174*
X00143Y00180*
X00131Y00184*
X00118Y00185*
G37*
G36*
X03780Y01301D02*
X03770Y01300D01*
X03761Y01296*
X03753Y01290*
X03747Y01282*
X03743Y01273*
X03742Y01263*
X03743Y01253*
X03747Y01244*
X03753Y01236*
X03761Y01230*
X03770Y01226*
X03780Y01225*
X03790Y01226*
X03799Y01230*
X03807Y01236*
X03813Y01244*
X03817Y01253*
X03818Y01263*
X03817Y01273*
X03813Y01282*
X03807Y01290*
X03799Y01296*
X03790Y01300*
X03780Y01301*
G37*
G36*
X03829Y00185D02*
X03816Y00184D01*
X03803Y00180*
X03792Y00174*
X03782Y00165*
X03773Y00155*
X03767Y00143*
X03763Y00131*
X03762Y00118*
X03763Y00104*
X03767Y00092*
X03773Y00080*
X03782Y00070*
X03792Y00062*
X03803Y00055*
X03816Y00052*
X03829Y00050*
X03842Y00052*
X03855Y00055*
X03867Y00062*
X03877Y00070*
X03885Y00080*
X03891Y00092*
X03895Y00104*
X03896Y00118*
X03895Y00131*
X03891Y00143*
X03885Y00155*
X03877Y00165*
X03867Y00174*
X03855Y00180*
X03842Y00184*
X03829Y00185*
G37*
G36*
X03780Y01201D02*
X03770Y01200D01*
X03761Y01196*
X03753Y01190*
X03747Y01182*
X03743Y01173*
X03742Y01163*
X03743Y01153*
X03747Y01144*
X03753Y01136*
X03761Y01130*
X03770Y01126*
X03780Y01125*
X03790Y01126*
X03799Y01130*
X03807Y01136*
X03813Y01144*
X03817Y01153*
X03818Y01163*
X03817Y01173*
X03813Y01182*
X03807Y01190*
X03799Y01196*
X03790Y01200*
X03780Y01201*
G37*
G36*
X00465Y00844D02*
X00442D01*
Y00843*
X00443Y00837*
X00447Y00831*
X00452Y00828*
X00458Y00827*
X00465*
Y00844*
G37*
G36*
X00498D02*
X00475D01*
Y00827*
X00482*
X00488Y00828*
X00493Y00831*
X00497Y00837*
X00498Y00843*
Y00844*
G37*
G36*
X00574D02*
X00551D01*
Y00843*
X00552Y00837*
X00556Y00831*
X00561Y00828*
X00567Y00827*
X00574*
Y00844*
G37*
G36*
X00607D02*
X00584D01*
Y00827*
X00591*
X00597Y00828*
X00602Y00831*
X00606Y00837*
X00607Y00843*
Y00844*
G37*
G36*
X03780Y01101D02*
X03770Y01100D01*
X03761Y01096*
X03753Y01090*
X03747Y01082*
X03743Y01073*
X03742Y01063*
X03743Y01053*
X03747Y01044*
X03753Y01036*
X03761Y01030*
X03770Y01026*
X03780Y01025*
X03790Y01026*
X03797Y01029*
X03846Y00980*
Y00930*
X03779Y00863*
X03320*
X03316Y00862*
X03312Y00859*
X03294Y00841*
X03211*
X03196Y00858*
X03197Y00874*
X03198Y00875*
X03200Y00879*
X03202Y00883*
X03235*
X03239Y00884*
X03243Y00887*
X03308Y00951*
X03744*
X03747Y00944*
X03753Y00936*
X03761Y00930*
X03770Y00926*
X03780Y00925*
X03790Y00926*
X03799Y00930*
X03807Y00936*
X03813Y00944*
X03817Y00953*
X03818Y00963*
X03817Y00973*
X03813Y00982*
X03807Y00990*
X03799Y00996*
X03790Y01000*
X03780Y01001*
X03770Y01000*
X03761Y00996*
X03753Y00990*
X03747Y00982*
X03744Y00975*
X03303*
X03298Y00974*
X03294Y00971*
X03230Y00907*
X03202*
X03200Y00912*
X03195Y00919*
X03188Y00924*
X03180Y00927*
X03172Y00928*
X03163Y00927*
X03155Y00924*
X03148Y00919*
X03143Y00912*
X03140Y00904*
X03139Y00895*
X03140Y00887*
X03143Y00879*
X03146Y00874*
X03149Y00861*
X03149Y00854*
X03147Y00849*
X03144Y00846*
X03141Y00838*
X03140Y00829*
X03141Y00821*
X03144Y00813*
X03149Y00806*
X03156Y00801*
X03164Y00797*
X03173Y00796*
X03181Y00797*
X03189Y00801*
X03196Y00806*
X03201Y00813*
X03203Y00817*
X03299*
X03303Y00818*
X03307Y00821*
X03325Y00839*
X03784*
X03789Y00840*
X03792Y00842*
X03866Y00916*
X03869Y00920*
X03870Y00925*
Y00985*
X03869Y00990*
X03866Y00994*
X03814Y01046*
X03817Y01053*
X03818Y01063*
X03817Y01073*
X03813Y01082*
X03807Y01090*
X03799Y01096*
X03790Y01100*
X03780Y01101*
G37*
G36*
X01241Y00969D02*
X01218D01*
Y00968*
X01219Y00962*
X01223Y00956*
X01228Y00953*
X01234Y00952*
X01241*
Y00969*
G37*
G36*
X00324Y00844D02*
X00301D01*
Y00843*
X00302Y00837*
X00306Y00831*
X00311Y00828*
X00317Y00827*
X00324*
Y00844*
G37*
G36*
X00357D02*
X00334D01*
Y00827*
X00341*
X00347Y00828*
X00352Y00831*
X00356Y00837*
X00357Y00843*
Y00844*
G37*
G36*
X01879Y01301D02*
X01870Y01300D01*
X01860Y01296*
X01852Y01290*
X01846Y01282*
X01843Y01273*
X01841Y01263*
X01843Y01253*
X01846Y01244*
X01852Y01236*
X01860Y01230*
X01870Y01226*
X01879Y01225*
X01889Y01226*
X01899Y01230*
X01906Y01236*
X01913Y01244*
X01916Y01253*
X01918Y01263*
X01916Y01273*
X01913Y01282*
X01906Y01290*
X01899Y01296*
X01889Y01300*
X01879Y01301*
G37*
G36*
Y01501D02*
X01870Y01500D01*
X01860Y01496*
X01852Y01490*
X01846Y01482*
X01843Y01473*
X01841Y01463*
X01843Y01453*
X01846Y01444*
X01852Y01436*
X01860Y01430*
X01870Y01426*
X01879Y01425*
X01889Y01426*
X01899Y01430*
X01906Y01436*
X01913Y01444*
X01916Y01453*
X01918Y01463*
X01916Y01473*
X01913Y01482*
X01906Y01490*
X01899Y01496*
X01889Y01500*
X01879Y01501*
G37*
G36*
X00966Y01492D02*
X00948D01*
Y01469*
X00949*
X00956Y01470*
X00961Y01473*
X00964Y01479*
X00966Y01485*
Y01492*
G37*
G36*
X00947Y01444D02*
X00946D01*
Y01421*
X00964*
Y01428*
X00962Y01434*
X00959Y01439*
X00954Y01443*
X00947Y01444*
G37*
G36*
X03780Y01501D02*
X03770Y01500D01*
X03761Y01496*
X03753Y01490*
X03747Y01482*
X03743Y01473*
X03742Y01463*
X03743Y01453*
X03747Y01444*
X03753Y01436*
X03761Y01430*
X03770Y01426*
X03780Y01425*
X03790Y01426*
X03799Y01430*
X03807Y01436*
X03813Y01444*
X03817Y01453*
X03818Y01463*
X03817Y01473*
X03813Y01482*
X03807Y01490*
X03799Y01496*
X03790Y01500*
X03780Y01501*
G37*
G36*
Y01701D02*
X03770Y01700D01*
X03761Y01696*
X03753Y01690*
X03747Y01682*
X03743Y01673*
X03742Y01663*
X03743Y01653*
X03747Y01644*
X03753Y01636*
X03761Y01630*
X03770Y01626*
X03780Y01625*
X03790Y01626*
X03799Y01630*
X03807Y01636*
X03813Y01644*
X03817Y01653*
X03818Y01663*
X03817Y01673*
X03813Y01682*
X03807Y01690*
X03799Y01696*
X03790Y01700*
X03780Y01701*
G37*
G36*
X01066Y00180D02*
X01053Y00179D01*
X01041Y00175*
X01029Y00169*
X01019Y00160*
X01011Y00150*
X01004Y00138*
X01000Y00126*
X00999Y00113*
X01000Y00100*
X01004Y00087*
X01011Y00075*
X01019Y00065*
X01029Y00057*
X01041Y00051*
X01053Y00047*
X01066Y00045*
X01080Y00047*
X01092Y00051*
X01104Y00057*
X01114Y00065*
X01122Y00075*
X01129Y00087*
X01132Y00100*
X01134Y00113*
X01132Y00126*
X01129Y00138*
X01122Y00150*
X01114Y00160*
X01104Y00169*
X01092Y00175*
X01080Y00179*
X01066Y00180*
G37*
G36*
X03780Y01601D02*
X03770Y01600D01*
X03761Y01596*
X03753Y01590*
X03747Y01582*
X03743Y01573*
X03742Y01563*
X03743Y01553*
X03747Y01544*
X03753Y01536*
X03761Y01530*
X03770Y01526*
X03780Y01525*
X03790Y01526*
X03799Y01530*
X03807Y01536*
X03813Y01544*
X03817Y01553*
X03818Y01563*
X03817Y01573*
X03813Y01582*
X03807Y01590*
X03799Y01596*
X03790Y01600*
X03780Y01601*
G37*
G36*
X01879Y01701D02*
X01870Y01700D01*
X01860Y01696*
X01852Y01690*
X01846Y01682*
X01843Y01673*
X01841Y01663*
X01843Y01653*
X01846Y01644*
X01852Y01636*
X01860Y01630*
X01870Y01626*
X01879Y01624*
X01889Y01626*
X01899Y01630*
X01906Y01636*
X01913Y01644*
X01916Y01653*
X01918Y01663*
X01916Y01673*
X01913Y01682*
X01906Y01690*
X01899Y01696*
X01889Y01700*
X01879Y01701*
G37*
G36*
X02381Y01495D02*
X02368Y01494D01*
X02356Y01490*
X02344Y01484*
X02334Y01475*
X02325Y01465*
X02319Y01453*
X02315Y01441*
X02314Y01428*
X02315Y01415*
X02319Y01402*
X02325Y01390*
X02334Y01380*
X02344Y01372*
X02356Y01366*
X02368Y01362*
X02381Y01360*
X02395Y01362*
X02407Y01366*
X02419Y01372*
X02429Y01380*
X02437Y01390*
X02444Y01402*
X02447Y01415*
X02449Y01428*
X02447Y01441*
X02444Y01453*
X02437Y01465*
X02429Y01475*
X02419Y01484*
X02407Y01490*
X02395Y01494*
X02381Y01495*
G37*
G36*
X00834Y01341D02*
X00833D01*
Y01318*
X00850*
Y01324*
X00849Y01331*
X00846Y01336*
X00840Y01339*
X00834Y01341*
G37*
G36*
X03780Y01401D02*
X03770Y01400D01*
X03761Y01396*
X03753Y01390*
X03747Y01382*
X03743Y01373*
X03742Y01363*
X03743Y01353*
X03747Y01344*
X03753Y01336*
X03761Y01330*
X03770Y01326*
X03780Y01325*
X03790Y01326*
X03799Y01330*
X03807Y01336*
X03813Y01344*
X03817Y01353*
X03818Y01363*
X03817Y01373*
X03813Y01382*
X03807Y01390*
X03799Y01396*
X03790Y01400*
X03780Y01401*
G37*
G36*
X00850Y01308D02*
X00833D01*
Y01284*
X00834*
X00840Y01286*
X00846Y01289*
X00849Y01294*
X00850Y01301*
Y01308*
G37*
G36*
X01007Y01321D02*
X00990D01*
Y01298*
X00991*
X00997Y01300*
X01003Y01303*
X01006Y01308*
X01007Y01315*
Y01321*
G37*
G36*
X02381Y00180D02*
X02368Y00179D01*
X02356Y00175*
X02344Y00169*
X02334Y00160*
X02325Y00150*
X02319Y00138*
X02315Y00126*
X02314Y00113*
X02315Y00100*
X02319Y00087*
X02325Y00075*
X02334Y00065*
X02344Y00057*
X02356Y00051*
X02368Y00047*
X02381Y00045*
X02395Y00047*
X02407Y00051*
X02419Y00057*
X02429Y00065*
X02437Y00075*
X02444Y00087*
X02447Y00100*
X02449Y00113*
X02447Y00126*
X02444Y00138*
X02437Y00150*
X02429Y00160*
X02419Y00169*
X02407Y00175*
X02395Y00179*
X02381Y00180*
G37*
G36*
X01066Y01495D02*
X01053Y01494D01*
X01041Y01490*
X01029Y01484*
X01019Y01475*
X01011Y01465*
X01004Y01453*
X01000Y01441*
X00999Y01428*
X01000Y01415*
X01004Y01402*
X01011Y01390*
X01019Y01380*
X01029Y01372*
X01041Y01366*
X01053Y01362*
X01066Y01360*
X01080Y01362*
X01092Y01366*
X01104Y01372*
X01114Y01380*
X01122Y01390*
X01129Y01402*
X01132Y01415*
X01134Y01428*
X01132Y01441*
X01129Y01453*
X01122Y01465*
X01114Y01475*
X01104Y01484*
X01092Y01490*
X01080Y01494*
X01066Y01495*
G37*
G36*
X01879Y01401D02*
X01870Y01400D01*
X01860Y01396*
X01852Y01390*
X01846Y01382*
X01843Y01373*
X01841Y01363*
X01843Y01353*
X01846Y01344*
X01852Y01336*
X01860Y01330*
X01870Y01326*
X01879Y01325*
X01889Y01326*
X01899Y01330*
X01906Y01336*
X01913Y01344*
X01916Y01353*
X01918Y01363*
X01916Y01373*
X01913Y01382*
X01906Y01390*
X01899Y01396*
X01889Y01400*
X01879Y01401*
G37*
G36*
X00991Y01354D02*
X00990D01*
Y01331*
X01007*
Y01338*
X01006Y01344*
X01003Y01350*
X00997Y01353*
X00991Y01354*
G37*
G36*
X01106Y00633D02*
X01071D01*
Y00598*
X01077Y00599*
X01086Y00603*
X01095Y00610*
X01101Y00618*
X01105Y00627*
X01106Y00633*
G37*
G36*
X02480Y00701D02*
X02470Y00700D01*
X02461Y00696*
X02453Y00690*
X02447Y00682*
X02443Y00673*
X02442Y00663*
X02443Y00653*
X02447Y00644*
X02453Y00636*
X02461Y00630*
X02470Y00626*
X02480Y00625*
X02490Y00626*
X02499Y00630*
X02507Y00636*
X02513Y00644*
X02517Y00653*
X02518Y00663*
X02517Y00673*
X02513Y00682*
X02507Y00690*
X02499Y00696*
X02490Y00700*
X02480Y00701*
G37*
G36*
X02780Y00601D02*
X02770Y00600D01*
X02761Y00596*
X02753Y00590*
X02747Y00582*
X02743Y00573*
X02742Y00563*
X02743Y00553*
X02747Y00544*
X02753Y00536*
X02761Y00530*
X02770Y00526*
X02780Y00525*
X02790Y00526*
X02799Y00530*
X02807Y00536*
X02813Y00544*
X02817Y00553*
X02818Y00563*
X02817Y00573*
X02813Y00582*
X02807Y00590*
X02799Y00596*
X02790Y00600*
X02780Y00601*
G37*
G36*
X02680D02*
X02670Y00600D01*
X02661Y00596*
X02653Y00590*
X02647Y00582*
X02643Y00573*
X02642Y00563*
X02643Y00553*
X02647Y00544*
X02653Y00536*
X02661Y00530*
X02670Y00526*
X02680Y00525*
X02690Y00526*
X02699Y00530*
X02707Y00536*
X02713Y00544*
X02717Y00553*
X02718Y00563*
X02717Y00573*
X02713Y00582*
X02707Y00590*
X02699Y00596*
X02690Y00600*
X02680Y00601*
G37*
G36*
X02780Y00701D02*
X02770Y00700D01*
X02761Y00696*
X02753Y00690*
X02747Y00682*
X02743Y00673*
X02742Y00663*
X02743Y00653*
X02747Y00644*
X02753Y00636*
X02761Y00630*
X02770Y00626*
X02780Y00625*
X02790Y00626*
X02799Y00630*
X02807Y00636*
X02813Y00644*
X02817Y00653*
X02818Y00663*
X02817Y00673*
X02813Y00682*
X02807Y00690*
X02799Y00696*
X02790Y00700*
X02780Y00701*
G37*
G36*
X02880D02*
X02870Y00700D01*
X02861Y00696*
X02853Y00690*
X02847Y00682*
X02843Y00673*
X02842Y00663*
X02843Y00653*
X02847Y00644*
X02853Y00636*
X02861Y00630*
X02870Y00626*
X02880Y00625*
X02890Y00626*
X02899Y00630*
X02907Y00636*
X02913Y00644*
X02917Y00653*
X02918Y00663*
X02917Y00673*
X02913Y00682*
X02907Y00690*
X02899Y00696*
X02890Y00700*
X02880Y00701*
G37*
G36*
X02580D02*
X02570Y00700D01*
X02561Y00696*
X02553Y00690*
X02547Y00682*
X02543Y00673*
X02542Y00663*
X02543Y00653*
X02547Y00644*
X02553Y00636*
X02561Y00630*
X02570Y00626*
X02580Y00625*
X02590Y00626*
X02599Y00630*
X02607Y00636*
X02613Y00644*
X02617Y00653*
X02618Y00663*
X02617Y00673*
X02613Y00682*
X02607Y00690*
X02599Y00696*
X02590Y00700*
X02580Y00701*
G37*
G36*
X02680D02*
X02670Y00700D01*
X02661Y00696*
X02653Y00690*
X02647Y00682*
X02643Y00673*
X02642Y00663*
X02643Y00653*
X02647Y00644*
X02653Y00636*
X02661Y00630*
X02670Y00626*
X02680Y00625*
X02690Y00626*
X02699Y00630*
X02707Y00636*
X02713Y00644*
X02717Y00653*
X02718Y00663*
X02717Y00673*
X02713Y00682*
X02707Y00690*
X02699Y00696*
X02690Y00700*
X02680Y00701*
G37*
G36*
X02880Y00601D02*
X02870Y00600D01*
X02861Y00596*
X02853Y00590*
X02847Y00582*
X02843Y00573*
X02842Y00563*
X02843Y00553*
X02847Y00544*
X02853Y00536*
X02861Y00530*
X02870Y00526*
X02880Y00525*
X02890Y00526*
X02899Y00530*
X02907Y00536*
X02913Y00544*
X02917Y00553*
X02918Y00563*
X02917Y00573*
X02913Y00582*
X02907Y00590*
X02899Y00596*
X02890Y00600*
X02880Y00601*
G37*
G36*
X03280D02*
X03270Y00600D01*
X03261Y00596*
X03253Y00590*
X03247Y00582*
X03243Y00573*
X03242Y00563*
X03243Y00553*
X03247Y00544*
X03253Y00536*
X03261Y00530*
X03270Y00526*
X03280Y00525*
X03290Y00526*
X03299Y00530*
X03307Y00536*
X03313Y00544*
X03317Y00553*
X03318Y00563*
X03317Y00573*
X03313Y00582*
X03307Y00590*
X03299Y00596*
X03290Y00600*
X03280Y00601*
G37*
G36*
X03580D02*
X03570Y00600D01*
X03561Y00596*
X03553Y00590*
X03547Y00582*
X03543Y00573*
X03542Y00563*
X03543Y00553*
X03547Y00544*
X03553Y00536*
X03561Y00530*
X03570Y00526*
X03580Y00525*
X03590Y00526*
X03599Y00530*
X03607Y00536*
X03613Y00544*
X03617Y00553*
X03618Y00563*
X03617Y00573*
X03613Y00582*
X03607Y00590*
X03599Y00596*
X03590Y00600*
X03580Y00601*
G37*
G36*
X03380D02*
X03370Y00600D01*
X03361Y00596*
X03353Y00590*
X03347Y00582*
X03343Y00573*
X03342Y00563*
X03343Y00553*
X03347Y00544*
X03353Y00536*
X03361Y00530*
X03370Y00526*
X03380Y00525*
X03390Y00526*
X03399Y00530*
X03407Y00536*
X03413Y00544*
X03417Y00553*
X03418Y00563*
X03417Y00573*
X03413Y00582*
X03407Y00590*
X03399Y00596*
X03390Y00600*
X03380Y00601*
G37*
G36*
X03480D02*
X03470Y00600D01*
X03461Y00596*
X03453Y00590*
X03447Y00582*
X03443Y00573*
X03442Y00563*
X03443Y00553*
X03447Y00544*
X03453Y00536*
X03461Y00530*
X03470Y00526*
X03480Y00525*
X03490Y00526*
X03499Y00530*
X03507Y00536*
X03513Y00544*
X03517Y00553*
X03518Y00563*
X03517Y00573*
X03513Y00582*
X03507Y00590*
X03499Y00596*
X03490Y00600*
X03480Y00601*
G37*
G36*
X03780D02*
X03770Y00600D01*
X03761Y00596*
X03753Y00590*
X03747Y00582*
X03743Y00573*
X03742Y00563*
X03743Y00553*
X03747Y00544*
X03753Y00536*
X03761Y00530*
X03770Y00526*
X03780Y00525*
X03790Y00526*
X03799Y00530*
X03807Y00536*
X03813Y00544*
X03817Y00553*
X03818Y00563*
X03817Y00573*
X03813Y00582*
X03807Y00590*
X03799Y00596*
X03790Y00600*
X03780Y00601*
G37*
G36*
X01061Y00633D02*
X01027D01*
X01028Y00627*
X01032Y00618*
X01038Y00610*
X01047Y00603*
X01056Y00599*
X01061Y00598*
Y00633*
G37*
G36*
X03180Y00601D02*
X03170Y00600D01*
X03161Y00596*
X03153Y00590*
X03147Y00582*
X03143Y00573*
X03142Y00563*
X03143Y00553*
X03147Y00544*
X03153Y00536*
X03161Y00530*
X03170Y00526*
X03180Y00525*
X03190Y00526*
X03199Y00530*
X03207Y00536*
X03213Y00544*
X03217Y00553*
X03218Y00563*
X03217Y00573*
X03213Y00582*
X03207Y00590*
X03199Y00596*
X03190Y00600*
X03180Y00601*
G37*
G36*
X03680D02*
X03670Y00600D01*
X03661Y00596*
X03653Y00590*
X03647Y00582*
X03643Y00573*
X03642Y00563*
X03643Y00553*
X03647Y00544*
X03653Y00536*
X03661Y00530*
X03670Y00526*
X03680Y00525*
X03690Y00526*
X03699Y00530*
X03707Y00536*
X03713Y00544*
X03717Y00553*
X03718Y00563*
X03717Y00573*
X03713Y00582*
X03707Y00590*
X03699Y00596*
X03690Y00600*
X03680Y00601*
G37*
G36*
X01061Y00677D02*
X01056Y00676D01*
X01047Y00672*
X01038Y00666*
X01032Y00658*
X01028Y00648*
X01027Y00643*
X01061*
Y00677*
G37*
G36*
X03338Y00275D02*
X03136D01*
Y00073*
X03159Y00074*
X03185Y00080*
X03211Y00089*
X03235Y00100*
X03258Y00116*
X03278Y00133*
X03296Y00154*
X03311Y00176*
X03323Y00201*
X03332Y00226*
X03337Y00253*
X03338Y00275*
G37*
G36*
X03572Y00485D02*
X03546Y00483D01*
X03519Y00478*
X03494Y00470*
X03470Y00458*
X03447Y00443*
X03427Y00425*
X03410Y00405*
X03395Y00383*
X03383Y00359*
X03374Y00333*
X03369Y00307*
X03367Y00280*
X03369Y00253*
X03374Y00227*
X03383Y00202*
X03395Y00177*
X03410Y00155*
X03427Y00135*
X03447Y00117*
X03470Y00102*
X03494Y00090*
X03519Y00082*
X03546Y00077*
X03572Y00075*
X03599Y00077*
X03625Y00082*
X03651Y00090*
X03675Y00102*
X03697Y00117*
X03717Y00135*
X03735Y00155*
X03750Y00177*
X03762Y00202*
X03771Y00227*
X03776Y00253*
X03778Y00280*
X03776Y00307*
X03771Y00333*
X03762Y00359*
X03750Y00383*
X03735Y00405*
X03717Y00425*
X03697Y00443*
X03675Y00458*
X03651Y00470*
X03625Y00478*
X03599Y00483*
X03572Y00485*
G37*
G36*
X03780Y00701D02*
X03770Y00700D01*
X03761Y00696*
X03753Y00690*
X03747Y00682*
X03743Y00673*
X03742Y00663*
X03743Y00653*
X03747Y00644*
X03753Y00636*
X03761Y00630*
X03770Y00626*
X03780Y00625*
X03790Y00626*
X03799Y00630*
X03807Y00636*
X03813Y00644*
X03817Y00653*
X03818Y00663*
X03817Y00673*
X03813Y00682*
X03807Y00690*
X03799Y00696*
X03790Y00700*
X03780Y00701*
G37*
G36*
X00193Y00843D02*
X00170D01*
Y00842*
X00171Y00836*
X00175Y00830*
X00180Y00827*
X00186Y00826*
X00193*
Y00843*
G37*
G36*
X00226D02*
X00203D01*
Y00826*
X00210*
X00216Y00827*
X00221Y00830*
X00225Y00836*
X00226Y00842*
Y00843*
G37*
G36*
X01071Y00677D02*
Y00643D01*
X01106*
X01105Y00648*
X01101Y00658*
X01095Y00666*
X01086Y00672*
X01077Y00676*
X01071Y00677*
G37*
G36*
X00929Y00776D02*
X00919Y00775D01*
X00910Y00771*
X00902Y00765*
X00896Y00757*
X00893Y00748*
X00891Y00738*
X00893Y00728*
X00896Y00719*
X00902Y00712*
X00910Y00706*
X00919Y00702*
X00929Y00701*
X00939Y00702*
X00948Y00706*
X00956Y00712*
X00957Y00713*
X01038*
X01040Y00711*
X01048Y00705*
X01057Y00701*
X01066Y00700*
X01076Y00701*
X01085Y00705*
X01093Y00711*
X01099Y00719*
X01103Y00728*
X01103Y00729*
X01105Y00734*
X01106Y00741*
X01105Y00748*
X01102Y00755*
X01098Y00761*
X01093Y00764*
X01093Y00764*
X01085Y00770*
X01076Y00774*
X01066Y00775*
X01057Y00774*
X01048Y00770*
X01045Y00769*
X00951*
X00948Y00771*
X00939Y00775*
X00929Y00776*
G37*
G36*
X03136Y00487D02*
Y00285D01*
X03338*
X03337Y00307*
X03332Y00334*
X03323Y00359*
X03311Y00384*
X03296Y00406*
X03278Y00427*
X03258Y00444*
X03235Y00460*
X03211Y00472*
X03185Y00480*
X03159Y00486*
X03136Y00487*
G37*
G36*
X03380Y00701D02*
X03370Y00700D01*
X03361Y00696*
X03353Y00690*
X03347Y00682*
X03343Y00673*
X03342Y00663*
X03343Y00653*
X03347Y00644*
X03353Y00636*
X03361Y00630*
X03370Y00626*
X03380Y00625*
X03390Y00626*
X03399Y00630*
X03407Y00636*
X03413Y00644*
X03417Y00653*
X03418Y00663*
X03417Y00673*
X03413Y00682*
X03407Y00690*
X03399Y00696*
X03390Y00700*
X03380Y00701*
G37*
G36*
X02580Y00601D02*
X02570Y00600D01*
X02561Y00596*
X02553Y00590*
X02547Y00582*
X02543Y00573*
X02542Y00563*
X02543Y00553*
X02547Y00544*
X02553Y00536*
X02561Y00530*
X02570Y00526*
X02580Y00525*
X02590Y00526*
X02599Y00530*
X02607Y00536*
X02613Y00544*
X02617Y00553*
X02618Y00563*
X02617Y00573*
X02613Y00582*
X02607Y00590*
X02599Y00596*
X02590Y00600*
X02580Y00601*
G37*
G36*
X03180Y00701D02*
X03170Y00700D01*
X03161Y00696*
X03153Y00690*
X03147Y00682*
X03143Y00673*
X03142Y00663*
X03143Y00653*
X03147Y00644*
X03153Y00636*
X03161Y00630*
X03170Y00626*
X03180Y00625*
X03190Y00626*
X03199Y00630*
X03207Y00636*
X03213Y00644*
X03217Y00653*
X03218Y00663*
X03217Y00673*
X03213Y00682*
X03207Y00690*
X03199Y00696*
X03190Y00700*
X03180Y00701*
G37*
G36*
X03280D02*
X03270Y00700D01*
X03261Y00696*
X03253Y00690*
X03247Y00682*
X03243Y00673*
X03242Y00663*
X03243Y00653*
X03247Y00644*
X03253Y00636*
X03261Y00630*
X03270Y00626*
X03280Y00625*
X03290Y00626*
X03299Y00630*
X03307Y00636*
X03313Y00644*
X03317Y00653*
X03318Y00663*
X03317Y00673*
X03313Y00682*
X03307Y00690*
X03299Y00696*
X03290Y00700*
X03280Y00701*
G37*
G36*
X03580D02*
X03570Y00700D01*
X03561Y00696*
X03553Y00690*
X03547Y00682*
X03543Y00673*
X03542Y00663*
X03543Y00653*
X03547Y00644*
X03553Y00636*
X03561Y00630*
X03570Y00626*
X03580Y00625*
X03590Y00626*
X03599Y00630*
X03607Y00636*
X03613Y00644*
X03617Y00653*
X03618Y00663*
X03617Y00673*
X03613Y00682*
X03607Y00690*
X03599Y00696*
X03590Y00700*
X03580Y00701*
G37*
G36*
X03680D02*
X03670Y00700D01*
X03661Y00696*
X03653Y00690*
X03647Y00682*
X03643Y00673*
X03642Y00663*
X03643Y00653*
X03647Y00644*
X03653Y00636*
X03661Y00630*
X03670Y00626*
X03680Y00625*
X03690Y00626*
X03699Y00630*
X03707Y00636*
X03713Y00644*
X03717Y00653*
X03718Y00663*
X03717Y00673*
X03713Y00682*
X03707Y00690*
X03699Y00696*
X03690Y00700*
X03680Y00701*
G37*
G36*
X02480Y00601D02*
X02470Y00600D01*
X02461Y00596*
X02453Y00590*
X02447Y00582*
X02443Y00573*
X02442Y00563*
X02443Y00553*
X02447Y00544*
X02453Y00536*
X02461Y00530*
X02470Y00526*
X02480Y00525*
X02490Y00526*
X02499Y00530*
X02507Y00536*
X02513Y00544*
X02517Y00553*
X02518Y00563*
X02517Y00573*
X02513Y00582*
X02507Y00590*
X02499Y00596*
X02490Y00600*
X02480Y00601*
G37*
G36*
X03480Y00701D02*
X03470Y00700D01*
X03461Y00696*
X03453Y00690*
X03447Y00682*
X03443Y00673*
X03442Y00663*
X03443Y00653*
X03447Y00644*
X03453Y00636*
X03461Y00630*
X03470Y00626*
X03480Y00625*
X03490Y00626*
X03499Y00630*
X03507Y00636*
X03513Y00644*
X03517Y00653*
X03518Y00663*
X03517Y00673*
X03513Y00682*
X03507Y00690*
X03499Y00696*
X03490Y00700*
X03480Y00701*
G37*
G36*
X03348Y02694D02*
X03318D01*
Y02674*
X03372*
X03371Y02678*
X03366Y02687*
X03358Y02692*
X03348Y02694*
G37*
G36*
X03466D02*
X03437D01*
X03427Y02692*
X03419Y02687*
X03413Y02678*
X03412Y02674*
X03466*
Y02694*
G37*
G36*
X02600D02*
X02570D01*
Y02674*
X02624*
X02623Y02678*
X02618Y02687*
X02610Y02692*
X02600Y02694*
G37*
G36*
X03308D02*
X03279D01*
X03269Y02692*
X03261Y02687*
X03256Y02678*
X03255Y02674*
X03308*
Y02694*
G37*
G36*
X03505D02*
X03476D01*
Y02674*
X03530*
X03529Y02678*
X03523Y02687*
X03515Y02692*
X03505Y02694*
G37*
G36*
X03780Y02861D02*
X03770Y02859D01*
X03761Y02856*
X03753Y02850*
X03747Y02842*
X03743Y02832*
X03742Y02823*
X03743Y02813*
X03747Y02803*
X03753Y02796*
X03761Y02789*
X03770Y02786*
X03780Y02784*
X03790Y02786*
X03799Y02789*
X03807Y02796*
X03813Y02803*
X03817Y02813*
X03818Y02823*
X03817Y02832*
X03813Y02842*
X03807Y02850*
X03799Y02856*
X03790Y02859*
X03780Y02861*
G37*
G36*
X01879Y02901D02*
X01870Y02899D01*
X01860Y02895*
X01852Y02889*
X01846Y02881*
X01843Y02872*
X01841Y02862*
X01843Y02852*
X01846Y02843*
X01852Y02835*
X01860Y02829*
X01870Y02825*
X01879Y02824*
X01889Y02825*
X01899Y02829*
X01906Y02835*
X01913Y02843*
X01916Y02852*
X01918Y02862*
X01916Y02872*
X01913Y02881*
X01906Y02889*
X01899Y02895*
X01889Y02899*
X01879Y02901*
G37*
G36*
X03780Y02761D02*
X03770Y02759D01*
X03761Y02756*
X03753Y02750*
X03747Y02742*
X03743Y02732*
X03742Y02723*
X03743Y02713*
X03747Y02703*
X03753Y02696*
X03761Y02689*
X03770Y02686*
X03780Y02684*
X03790Y02686*
X03799Y02689*
X03807Y02696*
X03813Y02703*
X03817Y02713*
X03818Y02723*
X03817Y02732*
X03813Y02742*
X03807Y02750*
X03799Y02756*
X03790Y02759*
X03780Y02761*
G37*
G36*
X01879Y02801D02*
X01870Y02799D01*
X01860Y02795*
X01852Y02789*
X01846Y02781*
X01843Y02772*
X01841Y02762*
X01843Y02752*
X01846Y02743*
X01852Y02735*
X01860Y02729*
X01870Y02725*
X01879Y02724*
X01889Y02725*
X01899Y02729*
X01906Y02735*
X01913Y02743*
X01916Y02752*
X01918Y02762*
X01916Y02772*
X01913Y02781*
X01906Y02789*
X01899Y02795*
X01889Y02799*
X01879Y02801*
G37*
G36*
X03530Y02614D02*
X03412D01*
X03413Y02609*
X03419Y02601*
Y02587*
X03413Y02578*
X03412Y02574*
X03530*
X03529Y02578*
X03523Y02587*
Y02601*
X03529Y02609*
X03530Y02614*
G37*
G36*
X02467Y02664D02*
X02349D01*
X02350Y02659*
X02356Y02651*
Y02637*
X02350Y02628*
X02349Y02624*
X02467*
X02466Y02628*
X02460Y02637*
Y02651*
X02466Y02659*
X02467Y02664*
G37*
G36*
X03780Y02601D02*
X03770Y02599D01*
X03761Y02596*
X03753Y02590*
X03747Y02582*
X03743Y02572*
X03742Y02562*
X03743Y02553*
X03747Y02543*
X03753Y02535*
X03761Y02529*
X03770Y02526*
X03780Y02524*
X03790Y02526*
X03799Y02529*
X03807Y02535*
X03813Y02543*
X03817Y02553*
X03818Y02562*
X03817Y02572*
X03813Y02582*
X03807Y02590*
X03799Y02596*
X03790Y02599*
X03780Y02601*
G37*
G36*
X02467Y02614D02*
X02349D01*
X02350Y02609*
X02356Y02601*
Y02587*
X02350Y02578*
X02349Y02574*
X02467*
X02466Y02578*
X02460Y02587*
Y02601*
X02466Y02609*
X02467Y02614*
G37*
G36*
X03530Y02664D02*
X03412D01*
X03413Y02659*
X03419Y02651*
Y02637*
X03413Y02628*
X03412Y02624*
X03530*
X03529Y02628*
X03523Y02637*
Y02651*
X03529Y02659*
X03530Y02664*
G37*
G36*
X02442Y02694D02*
X02413D01*
Y02674*
X02467*
X02466Y02678*
X02460Y02687*
X02452Y02692*
X02442Y02694*
G37*
G36*
X02560D02*
X02531D01*
X02521Y02692*
X02513Y02687*
X02508Y02678*
X02507Y02674*
X02560*
Y02694*
G37*
G36*
X01879Y02701D02*
X01870Y02699D01*
X01860Y02695*
X01852Y02689*
X01846Y02681*
X01843Y02672*
X01841Y02662*
X01843Y02652*
X01846Y02643*
X01852Y02635*
X01860Y02629*
X01870Y02625*
X01879Y02624*
X01889Y02625*
X01899Y02629*
X01906Y02635*
X01913Y02643*
X01916Y02652*
X01918Y02662*
X01916Y02672*
X01913Y02681*
X01906Y02689*
X01899Y02695*
X01889Y02699*
X01879Y02701*
G37*
G36*
X02403Y02694D02*
X02374D01*
X02364Y02692*
X02356Y02687*
X02350Y02678*
X02349Y02674*
X02403*
Y02694*
G37*
G36*
X03780Y03461D02*
X03770Y03459D01*
X03761Y03456*
X03753Y03450*
X03747Y03442*
X03743Y03432*
X03742Y03423*
X03743Y03413*
X03747Y03403*
X03753Y03396*
X03761Y03389*
X03770Y03386*
X03780Y03384*
X03790Y03386*
X03799Y03389*
X03807Y03396*
X03813Y03403*
X03817Y03413*
X03818Y03423*
X03817Y03432*
X03813Y03442*
X03807Y03450*
X03799Y03456*
X03790Y03459*
X03780Y03461*
G37*
G36*
X00774Y03451D02*
X00740D01*
Y03417*
X00745Y03417*
X00755Y03421*
X00763Y03428*
X00769Y03436*
X00773Y03445*
X00774Y03451*
G37*
G36*
Y03351D02*
X00740D01*
Y03317*
X00745Y03317*
X00755Y03321*
X00763Y03328*
X00769Y03336*
X00773Y03345*
X00774Y03351*
G37*
G36*
X00740Y03395D02*
Y03361D01*
X00774*
X00773Y03366*
X00769Y03376*
X00763Y03384*
X00755Y03390*
X00745Y03394*
X00740Y03395*
G37*
G36*
Y03495D02*
Y03461D01*
X00774*
X00773Y03466*
X00769Y03476*
X00763Y03484*
X00755Y03490*
X00745Y03494*
X00740Y03495*
G37*
G36*
X00118Y03811D02*
X00104Y03810D01*
X00092Y03806*
X00080Y03800*
X00070Y03791*
X00062Y03781*
X00055Y03769*
X00052Y03757*
X00050Y03744*
X00052Y03730*
X00055Y03718*
X00062Y03706*
X00070Y03696*
X00080Y03688*
X00092Y03681*
X00104Y03678*
X00118Y03676*
X00131Y03678*
X00143Y03681*
X00155Y03688*
X00165Y03696*
X00174Y03706*
X00180Y03718*
X00184Y03730*
X00185Y03744*
X00184Y03757*
X00180Y03769*
X00174Y03781*
X00165Y03791*
X00155Y03800*
X00143Y03806*
X00131Y03810*
X00118Y03811*
G37*
G36*
X03829D02*
X03816Y03810D01*
X03803Y03806*
X03792Y03800*
X03782Y03791*
X03773Y03781*
X03767Y03769*
X03763Y03757*
X03762Y03744*
X03763Y03730*
X03767Y03718*
X03773Y03706*
X03782Y03696*
X03792Y03688*
X03803Y03681*
X03816Y03678*
X03829Y03676*
X03842Y03678*
X03855Y03681*
X03867Y03688*
X03877Y03696*
X03885Y03706*
X03891Y03718*
X03895Y03730*
X03896Y03744*
X03895Y03757*
X03891Y03769*
X03885Y03781*
X03877Y03791*
X03867Y03800*
X03855Y03806*
X03842Y03810*
X03829Y03811*
G37*
G36*
X03780Y03561D02*
X03770Y03559D01*
X03761Y03556*
X03753Y03550*
X03747Y03542*
X03743Y03532*
X03742Y03523*
X03743Y03513*
X03747Y03503*
X03753Y03496*
X03761Y03489*
X03770Y03486*
X03780Y03484*
X03790Y03486*
X03799Y03489*
X03807Y03496*
X03813Y03503*
X03817Y03513*
X03818Y03523*
X03817Y03532*
X03813Y03542*
X03807Y03550*
X03799Y03556*
X03790Y03559*
X03780Y03561*
G37*
G36*
Y03661D02*
X03770Y03659D01*
X03761Y03656*
X03753Y03650*
X03747Y03642*
X03743Y03632*
X03742Y03623*
X03743Y03613*
X03747Y03603*
X03753Y03596*
X03761Y03589*
X03770Y03586*
X03780Y03584*
X03790Y03586*
X03799Y03589*
X03807Y03596*
X03813Y03603*
X03817Y03613*
X03818Y03623*
X03817Y03632*
X03813Y03642*
X03807Y03650*
X03799Y03656*
X03790Y03659*
X03780Y03661*
G37*
G36*
Y03061D02*
X03770Y03059D01*
X03761Y03056*
X03753Y03050*
X03747Y03042*
X03743Y03032*
X03742Y03023*
X03743Y03013*
X03747Y03003*
X03753Y02996*
X03761Y02989*
X03770Y02986*
X03780Y02984*
X03790Y02986*
X03799Y02989*
X03807Y02996*
X03813Y03003*
X03817Y03013*
X03818Y03023*
X03817Y03032*
X03813Y03042*
X03807Y03050*
X03799Y03056*
X03790Y03059*
X03780Y03061*
G37*
G36*
X01879Y03101D02*
X01870Y03099D01*
X01860Y03095*
X01852Y03089*
X01846Y03081*
X01843Y03072*
X01841Y03062*
X01843Y03052*
X01846Y03043*
X01852Y03035*
X01860Y03029*
X01870Y03025*
X01879Y03024*
X01889Y03025*
X01899Y03029*
X01906Y03035*
X01913Y03043*
X01916Y03052*
X01918Y03062*
X01916Y03072*
X01913Y03081*
X01906Y03089*
X01899Y03095*
X01889Y03099*
X01879Y03101*
G37*
G36*
X03780Y02961D02*
X03770Y02959D01*
X03761Y02956*
X03753Y02950*
X03747Y02942*
X03743Y02932*
X03742Y02923*
X03743Y02913*
X03747Y02903*
X03753Y02896*
X03761Y02889*
X03770Y02886*
X03780Y02884*
X03790Y02886*
X03799Y02889*
X03807Y02896*
X03813Y02903*
X03817Y02913*
X03818Y02923*
X03817Y02932*
X03813Y02942*
X03807Y02950*
X03799Y02956*
X03790Y02959*
X03780Y02961*
G37*
G36*
X01879Y03001D02*
X01870Y02999D01*
X01860Y02995*
X01852Y02989*
X01846Y02981*
X01843Y02972*
X01841Y02962*
X01843Y02952*
X01846Y02943*
X01852Y02935*
X01860Y02929*
X01870Y02925*
X01879Y02924*
X01889Y02925*
X01899Y02929*
X01906Y02935*
X01913Y02943*
X01916Y02952*
X01918Y02962*
X01916Y02972*
X01913Y02981*
X01906Y02989*
X01899Y02995*
X01889Y02999*
X01879Y03001*
G37*
G36*
X03780Y03161D02*
X03770Y03159D01*
X03761Y03156*
X03753Y03150*
X03747Y03142*
X03743Y03132*
X03742Y03123*
X03743Y03113*
X03747Y03103*
X03753Y03096*
X03761Y03089*
X03770Y03086*
X03780Y03084*
X03790Y03086*
X03799Y03089*
X03807Y03096*
X03813Y03103*
X03817Y03113*
X03818Y03123*
X03817Y03132*
X03813Y03142*
X03807Y03150*
X03799Y03156*
X03790Y03159*
X03780Y03161*
G37*
G36*
X01879Y03301D02*
X01870Y03299D01*
X01860Y03295*
X01852Y03289*
X01846Y03281*
X01843Y03272*
X01841Y03262*
X01843Y03252*
X01846Y03243*
X01852Y03235*
X01860Y03229*
X01870Y03225*
X01879Y03224*
X01889Y03225*
X01899Y03229*
X01906Y03235*
X01913Y03243*
X01916Y03252*
X01918Y03262*
X01916Y03272*
X01913Y03281*
X01906Y03289*
X01899Y03295*
X01889Y03299*
X01879Y03301*
G37*
G36*
X03780Y03361D02*
X03770Y03359D01*
X03761Y03356*
X03753Y03350*
X03747Y03342*
X03743Y03332*
X03742Y03323*
X03743Y03313*
X03747Y03303*
X03753Y03296*
X03761Y03289*
X03770Y03286*
X03780Y03284*
X03790Y03286*
X03799Y03289*
X03807Y03296*
X03813Y03303*
X03817Y03313*
X03818Y03323*
X03817Y03332*
X03813Y03342*
X03807Y03350*
X03799Y03356*
X03790Y03359*
X03780Y03361*
G37*
G36*
X01879Y03201D02*
X01870Y03199D01*
X01860Y03195*
X01852Y03189*
X01846Y03181*
X01843Y03172*
X01841Y03162*
X01843Y03152*
X01846Y03143*
X01852Y03135*
X01860Y03129*
X01870Y03125*
X01879Y03124*
X01889Y03125*
X01899Y03129*
X01906Y03135*
X01913Y03143*
X01916Y03152*
X01918Y03162*
X01916Y03172*
X01913Y03181*
X01906Y03189*
X01899Y03195*
X01889Y03199*
X01879Y03201*
G37*
G36*
X03780Y03261D02*
X03770Y03259D01*
X03761Y03256*
X03753Y03250*
X03747Y03242*
X03743Y03232*
X03742Y03223*
X03743Y03213*
X03747Y03203*
X03753Y03196*
X03761Y03189*
X03770Y03186*
X03780Y03184*
X03790Y03186*
X03799Y03189*
X03807Y03196*
X03813Y03203*
X03817Y03213*
X03818Y03223*
X03817Y03232*
X03813Y03242*
X03807Y03250*
X03799Y03256*
X03790Y03259*
X03780Y03261*
G37*
G36*
X01879Y02601D02*
X01870Y02599D01*
X01860Y02595*
X01852Y02589*
X01846Y02581*
X01843Y02572*
X01841Y02562*
X01843Y02552*
X01846Y02543*
X01852Y02535*
X01860Y02529*
X01870Y02525*
X01879Y02524*
X01889Y02525*
X01899Y02529*
X01906Y02535*
X01913Y02543*
X01916Y02552*
X01918Y02562*
X01916Y02572*
X01913Y02581*
X01906Y02589*
X01899Y02595*
X01889Y02599*
X01879Y02601*
G37*
G36*
Y02201D02*
X01870Y02200D01*
X01860Y02196*
X01852Y02190*
X01846Y02182*
X01843Y02173*
X01841Y02163*
X01843Y02153*
X01846Y02144*
X01852Y02136*
X01860Y02130*
X01870Y02126*
X01879Y02124*
X01889Y02126*
X01899Y02130*
X01906Y02136*
X01913Y02144*
X01916Y02153*
X01918Y02163*
X01916Y02173*
X01913Y02182*
X01906Y02190*
X01899Y02196*
X01889Y02200*
X01879Y02201*
G37*
G36*
X01241Y02138D02*
X01229D01*
X01222Y02136*
X01217Y02132*
X01213Y02127*
X01212Y02125*
X01241*
Y02138*
G37*
G36*
X01373Y02126D02*
X01372D01*
Y02103*
X01389*
Y02110*
X01388Y02116*
X01384Y02121*
X01379Y02125*
X01373Y02126*
G37*
G36*
X03780Y02201D02*
X03770Y02199D01*
X03761Y02196*
X03753Y02190*
X03747Y02182*
X03743Y02172*
X03742Y02162*
X03743Y02153*
X03747Y02143*
X03753Y02135*
X03761Y02129*
X03770Y02126*
X03780Y02124*
X03790Y02126*
X03799Y02129*
X03807Y02135*
X03813Y02143*
X03817Y02153*
X03818Y02162*
X03817Y02172*
X03813Y02182*
X03807Y02190*
X03799Y02196*
X03790Y02199*
X03780Y02201*
G37*
G36*
Y02301D02*
X03770Y02299D01*
X03761Y02296*
X03753Y02290*
X03747Y02282*
X03743Y02272*
X03742Y02262*
X03743Y02253*
X03747Y02243*
X03753Y02235*
X03761Y02229*
X03770Y02226*
X03780Y02224*
X03790Y02226*
X03799Y02229*
X03807Y02235*
X03813Y02243*
X03817Y02253*
X03818Y02262*
X03817Y02272*
X03813Y02282*
X03807Y02290*
X03799Y02296*
X03790Y02299*
X03780Y02301*
G37*
G36*
X02467Y02314D02*
X02413D01*
Y02294*
X02442*
X02452Y02295*
X02460Y02301*
X02466Y02309*
X02467Y02314*
G37*
G36*
X02560D02*
X02507D01*
X02508Y02309*
X02513Y02301*
X02521Y02295*
X02531Y02294*
X02560*
Y02314*
G37*
G36*
X01879Y02301D02*
X01870Y02300D01*
X01860Y02296*
X01852Y02290*
X01846Y02282*
X01843Y02273*
X01841Y02263*
X01843Y02253*
X01846Y02244*
X01852Y02236*
X01860Y02230*
X01870Y02226*
X01879Y02224*
X01889Y02226*
X01899Y02230*
X01906Y02236*
X01913Y02244*
X01916Y02253*
X01918Y02263*
X01916Y02273*
X01913Y02282*
X01906Y02290*
X01899Y02296*
X01889Y02300*
X01879Y02301*
G37*
G36*
X02403Y02314D02*
X02349D01*
X02350Y02309*
X02356Y02301*
X02364Y02295*
X02374Y02294*
X02403*
Y02314*
G37*
G36*
X01879Y01901D02*
X01870Y01900D01*
X01860Y01896*
X01852Y01890*
X01846Y01882*
X01843Y01873*
X01841Y01863*
X01843Y01853*
X01846Y01844*
X01852Y01836*
X01860Y01830*
X01870Y01826*
X01879Y01824*
X01889Y01826*
X01899Y01830*
X01906Y01836*
X01913Y01844*
X01916Y01853*
X01918Y01863*
X01916Y01873*
X01913Y01882*
X01906Y01890*
X01899Y01896*
X01889Y01900*
X01879Y01901*
G37*
G36*
X03780Y02001D02*
X03770Y01999D01*
X03761Y01996*
X03753Y01990*
X03747Y01982*
X03743Y01972*
X03742Y01962*
X03743Y01953*
X03747Y01943*
X03753Y01935*
X03761Y01929*
X03770Y01926*
X03780Y01924*
X03790Y01926*
X03799Y01929*
X03807Y01935*
X03813Y01943*
X03817Y01953*
X03818Y01962*
X03817Y01972*
X03813Y01982*
X03807Y01990*
X03799Y01996*
X03790Y01999*
X03780Y02001*
G37*
G36*
X01879Y01801D02*
X01870Y01800D01*
X01860Y01796*
X01852Y01790*
X01846Y01782*
X01843Y01773*
X01841Y01763*
X01843Y01753*
X01846Y01744*
X01852Y01736*
X01860Y01730*
X01870Y01726*
X01879Y01724*
X01889Y01726*
X01899Y01730*
X01906Y01736*
X01913Y01744*
X01916Y01753*
X01918Y01763*
X01916Y01773*
X01913Y01782*
X01906Y01790*
X01899Y01796*
X01889Y01800*
X01879Y01801*
G37*
G36*
X03780Y01901D02*
X03770Y01899D01*
X03761Y01896*
X03753Y01890*
X03747Y01882*
X03743Y01872*
X03742Y01862*
X03743Y01853*
X03747Y01843*
X03753Y01835*
X03761Y01829*
X03770Y01826*
X03780Y01824*
X03790Y01826*
X03799Y01829*
X03807Y01835*
X03813Y01843*
X03817Y01853*
X03818Y01862*
X03817Y01872*
X03813Y01882*
X03807Y01890*
X03799Y01896*
X03790Y01899*
X03780Y01901*
G37*
G36*
X01879Y02001D02*
X01870Y02000D01*
X01860Y01996*
X01852Y01990*
X01846Y01982*
X01843Y01973*
X01841Y01963*
X01843Y01953*
X01846Y01944*
X01852Y01936*
X01860Y01930*
X01870Y01926*
X01879Y01924*
X01889Y01926*
X01899Y01930*
X01906Y01936*
X01913Y01944*
X01916Y01953*
X01918Y01963*
X01916Y01973*
X01913Y01982*
X01906Y01990*
X01899Y01996*
X01889Y02000*
X01879Y02001*
G37*
G36*
Y02101D02*
X01870Y02100D01*
X01860Y02096*
X01852Y02090*
X01846Y02082*
X01843Y02073*
X01841Y02063*
X01843Y02053*
X01846Y02044*
X01852Y02036*
X01860Y02030*
X01870Y02026*
X01879Y02024*
X01889Y02026*
X01899Y02030*
X01906Y02036*
X01913Y02044*
X01916Y02053*
X01918Y02063*
X01916Y02073*
X01913Y02082*
X01906Y02090*
X01899Y02096*
X01889Y02100*
X01879Y02101*
G37*
G36*
X01389Y02093D02*
X01372D01*
Y02070*
X01373*
X01379Y02071*
X01384Y02075*
X01388Y02080*
X01389Y02086*
Y02093*
G37*
G36*
X00692Y02056D02*
X00632D01*
Y01996*
X00640Y01997*
X00652Y02000*
X00663Y02007*
X00673Y02015*
X00681Y02025*
X00688Y02036*
X00691Y02048*
X00692Y02056*
G37*
G36*
X03780Y02101D02*
X03770Y02099D01*
X03761Y02096*
X03753Y02090*
X03747Y02082*
X03743Y02072*
X03742Y02062*
X03743Y02053*
X03747Y02043*
X03753Y02035*
X03761Y02029*
X03770Y02026*
X03780Y02024*
X03790Y02026*
X03799Y02029*
X03807Y02035*
X03813Y02043*
X03817Y02053*
X03818Y02062*
X03817Y02072*
X03813Y02082*
X03807Y02090*
X03799Y02096*
X03790Y02099*
X03780Y02101*
G37*
G36*
X03530Y02464D02*
X03412D01*
X03413Y02459*
X03419Y02451*
Y02437*
X03413Y02428*
X03412Y02424*
X03530*
X03529Y02428*
X03523Y02437*
Y02451*
X03529Y02459*
X03530Y02464*
G37*
G36*
X03780Y02501D02*
X03770Y02499D01*
X03761Y02496*
X03753Y02490*
X03747Y02482*
X03743Y02472*
X03742Y02462*
X03743Y02453*
X03747Y02443*
X03753Y02435*
X03761Y02429*
X03770Y02426*
X03780Y02424*
X03790Y02426*
X03799Y02429*
X03807Y02435*
X03813Y02443*
X03817Y02453*
X03818Y02462*
X03817Y02472*
X03813Y02482*
X03807Y02490*
X03799Y02496*
X03790Y02499*
X03780Y02501*
G37*
G36*
X03530Y02414D02*
X03412D01*
X03413Y02409*
X03419Y02401*
Y02387*
X03413Y02378*
X03412Y02374*
X03530*
X03529Y02378*
X03523Y02387*
Y02401*
X03529Y02409*
X03530Y02414*
G37*
G36*
X02467Y02464D02*
X02349D01*
X02350Y02459*
X02356Y02451*
Y02437*
X02350Y02428*
X02349Y02424*
X02467*
X02466Y02428*
X02460Y02437*
Y02451*
X02466Y02459*
X02467Y02464*
G37*
G36*
Y02514D02*
X02349D01*
X02350Y02509*
X02356Y02501*
Y02487*
X02350Y02478*
X02349Y02474*
X02467*
X02466Y02478*
X02460Y02487*
Y02501*
X02466Y02509*
X02467Y02514*
G37*
G36*
Y02564D02*
X02349D01*
X02350Y02559*
X02356Y02551*
Y02537*
X02350Y02528*
X02349Y02524*
X02467*
X02466Y02528*
X02460Y02537*
Y02551*
X02466Y02559*
X02467Y02564*
G37*
G36*
X03530D02*
X03412D01*
X03413Y02559*
X03419Y02551*
Y02537*
X03413Y02528*
X03412Y02524*
X03530*
X03529Y02528*
X03523Y02537*
Y02551*
X03529Y02559*
X03530Y02564*
G37*
G36*
Y02514D02*
X03412D01*
X03413Y02509*
X03419Y02501*
Y02487*
X03413Y02478*
X03412Y02474*
X03530*
X03529Y02478*
X03523Y02487*
Y02501*
X03529Y02509*
X03530Y02514*
G37*
G36*
X02624Y02664D02*
X02507D01*
X02508Y02660*
X02508Y02659*
X02511Y02647*
X02511Y02635*
X02510Y02628*
X02510Y02628*
X02509Y02623*
Y02623*
X02509Y02623*
X02508Y02619*
X02508*
X02508Y02619*
X02509Y02614*
X02509Y02611*
X02510Y02610*
X02511Y02609*
X02511Y02604*
X02512Y02589*
X02510Y02582*
X02508Y02578*
X02507Y02574*
X02565*
Y02564*
X02507*
X02508Y02559*
X02513Y02551*
Y02537*
X02508Y02528*
X02507Y02524*
X02565*
Y02514*
X02507*
X02508Y02509*
X02510Y02506*
X02512Y02499*
X02511Y02484*
X02511Y02479*
X02510Y02478*
X02509Y02474*
X02509Y02473*
X02508Y02469*
X02508*
X02509Y02465*
X02509Y02464*
X02510Y02460*
X02510Y02460*
X02511Y02458*
X02513Y02449*
X02513Y02444*
X02513Y02439*
X02512Y02435*
X02510Y02428*
X02510Y02427*
X02509Y02422*
X02509Y02422*
X02508Y02419*
X02508*
X02509Y02415*
X02509Y02413*
X02510Y02410*
X02512Y02407*
X02513Y02401*
X02514Y02394*
X02513Y02387*
X02512Y02381*
X02510Y02378*
X02509Y02373*
X02508Y02369*
X02509Y02365*
X02510Y02360*
X02511Y02359*
X02511Y02354*
X02512Y02339*
X02510Y02332*
X02508Y02328*
X02507Y02324*
X02565*
Y02319*
X02570*
Y02294*
X02600*
X02610Y02295*
X02617Y02301*
X02621Y02300*
X02637Y02294*
Y01602*
X02632Y01600*
X02625Y01595*
X02620Y01588*
X02617Y01580*
X02616Y01571*
X02617Y01563*
X02620Y01555*
X02625Y01548*
X02632Y01542*
X02640Y01539*
X02649Y01538*
X02657Y01539*
X02665Y01542*
X02672Y01548*
X02678Y01555*
X02681Y01563*
X02682Y01571*
X02681Y01580*
X02678Y01588*
X02672Y01595*
X02665Y01600*
X02661Y01602*
Y02604*
X02660Y02609*
X02657Y02613*
X02643Y02627*
X02639Y02630*
X02634Y02631*
Y02631*
X02632*
X02619Y02649*
X02621Y02656*
X02623Y02659*
X02624Y02664*
G37*
G36*
X03466Y02314D02*
X03412D01*
X03413Y02309*
X03419Y02301*
X03427Y02295*
X03437Y02294*
X03466*
Y02314*
G37*
G36*
X03530D02*
X03476D01*
Y02294*
X03505*
X03515Y02295*
X03523Y02301*
X03529Y02309*
X03530Y02314*
G37*
G36*
X03308D02*
X03255D01*
X03256Y02309*
X03261Y02301*
X03269Y02295*
X03279Y02294*
X03308*
Y02314*
G37*
G36*
X03372D02*
X03318D01*
Y02294*
X03348*
X03358Y02295*
X03366Y02301*
X03371Y02309*
X03372Y02314*
G37*
G36*
X02467Y02364D02*
X02349D01*
X02350Y02359*
X02356Y02351*
Y02337*
X02350Y02328*
X02349Y02324*
X02467*
X02466Y02328*
X02460Y02337*
Y02351*
X02466Y02359*
X02467Y02364*
G37*
G36*
X01879Y02401D02*
X01870Y02400D01*
X01860Y02396*
X01852Y02390*
X01846Y02382*
X01843Y02373*
X01841Y02363*
X01843Y02353*
X01846Y02344*
X01852Y02336*
X01860Y02330*
X01870Y02326*
X01879Y02324*
X01889Y02326*
X01899Y02330*
X01906Y02336*
X01913Y02344*
X01916Y02353*
X01918Y02363*
X01916Y02373*
X01913Y02382*
X01906Y02390*
X01899Y02396*
X01889Y02400*
X01879Y02401*
G37*
G36*
X02467Y02414D02*
X02349D01*
X02350Y02409*
X02356Y02401*
Y02387*
X02350Y02378*
X02349Y02374*
X02467*
X02466Y02378*
X02460Y02387*
Y02401*
X02466Y02409*
X02467Y02414*
G37*
G36*
X03530Y02364D02*
X03412D01*
X03413Y02359*
X03419Y02351*
Y02337*
X03413Y02328*
X03412Y02324*
X03530*
X03529Y02328*
X03523Y02337*
Y02351*
X03529Y02359*
X03530Y02364*
G37*
G36*
X03780Y02401D02*
X03770Y02399D01*
X03761Y02396*
X03753Y02390*
X03747Y02382*
X03743Y02372*
X03742Y02362*
X03743Y02353*
X03747Y02343*
X03753Y02335*
X03761Y02329*
X03770Y02326*
X03780Y02324*
X03790Y02326*
X03799Y02329*
X03807Y02335*
X03813Y02343*
X03817Y02353*
X03818Y02362*
X03817Y02372*
X03813Y02382*
X03807Y02390*
X03799Y02396*
X03790Y02399*
X03780Y02401*
G37*
%LNupcnsl-abs-comms-rfpatest-v1.0-3*%
%LPD*%
G54D10*
X00456Y02763D02*
D01*
X00452Y02764*
X00447Y02764*
X00442Y02763*
X00438Y02762*
X00433Y02761*
X00429Y02760*
X00425Y02759*
X00421Y02757*
X00417Y02754*
X00413Y02752*
X00409Y02749*
X00405Y02746*
X00402Y02743*
X00399Y02740*
X00398Y02738*
G54D11*
X00347Y02699D02*
D01*
X00338Y02689*
X00329Y02679*
X00321Y02667*
X00314Y02656*
X00308Y02643*
X00302Y02631*
X00298Y02618*
X00294Y02605*
X00291Y02591*
X00290Y02577*
X00289Y02566*
X01593Y02621D02*
D01*
X01593Y02630*
X01592Y02639*
X01590Y02649*
X01588Y02658*
X01585Y02667*
X01582Y02676*
X01578Y02685*
X01573Y02693*
X01568Y02701*
X01562Y02708*
X01556Y02715*
X01550Y02722*
X01542Y02728*
X01535Y02734*
X01527Y02739*
X01518Y02744*
X01510Y02748*
X01501Y02751*
X01492Y02754*
X01483Y02756*
X01473Y02757*
X01464Y02758*
X01459Y02758*
X01593Y01176D02*
Y02618D01*
X00289Y01188D02*
Y02566D01*
X00526Y02573D02*
X00527Y02421D01*
X01251Y03418D02*
X01252Y02961D01*
G54D12*
X01367Y02098D03*
X01308D03*
X01237Y01625D03*
X01178D03*
X00453Y01656D03*
X00512D03*
X00450Y01509D03*
X00509D03*
X00450Y01368D03*
X00509D03*
X00533Y01056D03*
X00474D03*
X01588Y01031D03*
X01529D03*
X00985Y01326D03*
X00926D03*
X00943Y01497D03*
X00884D03*
X00882Y01416D03*
X00941D03*
X00769Y01313D03*
X00828D03*
X00716Y01311D03*
X00657D03*
X00743Y00903D03*
X00684D03*
X00899Y01043D03*
X00958D03*
X00646Y01852D03*
X00587D03*
X01242Y01763D03*
X01301D03*
G54D13*
X03313Y02669D03*
Y02619D03*
Y02569D03*
Y02519D03*
Y02469D03*
Y02419D03*
Y02369D03*
Y02319D03*
X03471Y02669D03*
Y02619D03*
Y02569D03*
Y02519D03*
Y02469D03*
Y02419D03*
Y02369D03*
Y02319D03*
X02408Y02669D03*
Y02619D03*
Y02569D03*
Y02519D03*
Y02469D03*
Y02419D03*
Y02369D03*
Y02319D03*
X02565Y02669D03*
Y02619D03*
Y02569D03*
Y02519D03*
Y02469D03*
Y02419D03*
Y02369D03*
Y02319D03*
G54D14*
X01142Y02120D03*
Y02094D03*
Y02068D03*
Y02043D03*
X01246Y02120D03*
Y02094D03*
Y02068D03*
Y02043D03*
G54D15*
X00198Y00848D03*
Y00907D03*
X00329Y00849D03*
Y00908D03*
X00470Y00849D03*
Y00908D03*
X00579Y00849D03*
Y00908D03*
X01086Y00974D03*
Y01033D03*
X01246Y00974D03*
Y01033D03*
X00606Y01231D03*
Y01172D03*
X00510Y01140D03*
Y01199D03*
X00289Y01061D03*
Y01001D03*
X00642Y01756D03*
Y01697D03*
G54D16*
X00926Y01231D03*
Y01125D03*
G54D17*
X00724Y01112D03*
X00744D03*
X00763D03*
X00783D03*
Y01009D03*
X00763D03*
X00744D03*
X00724D03*
G54D18*
X00805Y01090D03*
Y01070D03*
Y01051D03*
Y01031D03*
X00702D03*
Y01051D03*
Y01070D03*
Y01090D03*
G54D19*
X00488Y02835D03*
X00508D03*
X00527D03*
X00547D03*
X00567D03*
Y02692D03*
X00547D03*
X00527D03*
X00508D03*
X00488D03*
X01292D03*
X01273D03*
X01253D03*
X01233D03*
X01214D03*
Y02835D03*
X01233D03*
X01253D03*
X01273D03*
X01292D03*
G54D20*
X00599Y02803D03*
Y02783D03*
Y02763D03*
Y02744D03*
Y02724D03*
X00456D03*
Y02744D03*
Y02763D03*
Y02783D03*
Y02803D03*
X01182Y02724D03*
Y02744D03*
Y02763D03*
Y02783D03*
Y02803D03*
X01324D03*
Y02783D03*
Y02763D03*
Y02744D03*
Y02724D03*
G54D21*
X00240Y03170D03*
X00212D03*
X00231Y03247D03*
X00203D03*
G54D22*
X02183Y01078D02*
Y01428D01*
X01981Y00876D02*
X02183Y01078D01*
X01934Y00936D02*
X02079Y01081D01*
Y01428*
X01996Y02398D02*
X02329Y02732D01*
X01996Y01178D02*
Y02398D01*
X01932Y01114D02*
X01996Y01178D01*
X01218Y02095D02*
X01248D01*
X01246Y02094D02*
X01304D01*
X00284Y00952D02*
X00289Y00957D01*
Y01001*
X00508Y02692D02*
Y02722D01*
X00547Y02692D02*
Y02723D01*
X00497Y02744D02*
Y02793D01*
X00456Y02783D02*
X00496D01*
X00487Y02803D02*
X00497Y02793D01*
X00456Y02803D02*
X00487D01*
X00456Y02744D02*
X00497D01*
X00165Y00275D02*
X02810D01*
X00039Y00401D02*
X00165Y00275D01*
X00039Y00401D02*
Y03164D01*
X00534Y02975D02*
Y03035D01*
X00488Y02929D02*
X00534Y02975D01*
X00126Y00557D02*
X00454D01*
X00084Y00599D02*
X00126Y00557D01*
X00084Y00599D02*
Y02780D01*
X00454Y00557D02*
X00471Y00573D01*
X02634Y02619D02*
X02649Y02604D01*
Y01571D02*
Y02604D01*
X03303Y00963D02*
X03780D01*
X03172Y00895D02*
X03235D01*
X03303Y00963*
X03173Y00829D02*
X03299D01*
X03320Y00851*
X01176Y01365D02*
Y01956D01*
X01150Y01982D02*
X01176Y01956D01*
X01142Y01331D02*
X01176Y01365D01*
X00744Y01112D02*
Y01160D01*
X00157Y03171D02*
X00210D01*
X03242Y02369D02*
X03313D01*
X03030Y02157D02*
X03242Y02369D01*
X03030Y00496D02*
Y02157D01*
X02810Y00275D02*
X03030Y00496D01*
X03155Y02619D02*
X03313D01*
X03042Y02732D02*
X03155Y02619D01*
X02329Y02732D02*
X03042D01*
X01853Y01114D02*
X01932D01*
X01802Y01062D02*
X01853Y01114D01*
X01802Y00933D02*
Y01062D01*
X01207Y00338D02*
X01802Y00933D01*
X02329Y00614D02*
X02380Y00563D01*
X02329Y00614D02*
Y00905D01*
X02987Y01562*
Y02196*
X03209Y02419*
X03313*
X02231Y00614D02*
X02280Y00663D01*
X02168Y00614D02*
X02231D01*
X02128Y00653D02*
X02168Y00614D01*
X02128Y00653D02*
Y00834D01*
X02022Y00547D02*
Y00807D01*
Y00547D02*
X02065Y00503D01*
X02221*
X02280Y00563*
X02022Y00807D02*
X02813Y01598D01*
X02128Y00834D02*
X02876Y01582D01*
X02813Y02224D02*
X03158Y02569D01*
X02813Y01598D02*
Y02224D01*
X02876Y01582D02*
Y02224D01*
X03171Y02519*
X03313*
X03158Y02569D02*
X03313D01*
X03192Y02469D02*
X03313D01*
X02932Y02208D02*
X03192Y02469D01*
X02932Y01590D02*
Y02208D01*
X02180Y00838D02*
X02932Y01590D01*
X02180Y00663D02*
Y00838D01*
X00646Y01759D02*
Y01852D01*
X00648Y01811D02*
X00808D01*
X00488Y02681D02*
Y02692D01*
X00233Y03248D02*
X00374D01*
X00239Y03170D02*
X00368D01*
X00716Y01311D02*
Y01442D01*
X01007Y02065D02*
X01036Y02095D01*
X01144*
X00908Y02120D02*
X01144D01*
X00587Y01891D02*
X00647Y01951D01*
X00632Y01090D02*
X00702D01*
X00585Y01138D02*
X00632Y01090D01*
X00510Y01138D02*
X00585D01*
X00587Y01852D02*
Y01891D01*
X00541Y01852D02*
X00587D01*
X00744Y00911D02*
Y01009D01*
X00724Y00976D02*
X00740Y00961D01*
X00724Y00976D02*
Y01009D01*
X00321Y00900D02*
X00323Y00902D01*
X00926Y01102D02*
Y01125D01*
X00899Y01043D02*
Y01075D01*
X00926Y01102*
X01246Y01033D02*
X01390D01*
X01087D02*
X01246D01*
X01086Y01033D02*
X01087Y01033D01*
X01076Y01043D02*
X01086Y01033D01*
X00958Y01043D02*
X01076D01*
X00846Y01057D02*
Y01077D01*
Y01042D02*
Y01057D01*
X00868Y01043D02*
X00899D01*
X00854Y01057D02*
X00868Y01043D01*
X00846Y01057D02*
X00854D01*
X00805Y01070D02*
X00846D01*
X00805Y01051D02*
X00844D01*
X00805Y01031D02*
X00835D01*
X00846Y01042*
X00833Y01090D02*
X00846Y01077D01*
X00805Y01090D02*
X00833D01*
X01144Y02069D02*
X01192D01*
X00808Y01811D02*
X00823D01*
X00646Y01759D02*
X00648Y01757D01*
X00488Y02835D02*
Y02929D01*
X01592Y01036D02*
Y01105D01*
X00285Y01061D02*
Y01118D01*
X01323Y02763D02*
X01384D01*
X00527Y02647D02*
Y02692D01*
X01145Y02763D02*
X01182D01*
X00599D02*
X00641D01*
X01252Y02833D02*
Y02882D01*
X00285Y01061D02*
X00466D01*
X00538Y01051D02*
X00702D01*
X00606Y01231D02*
X00608D01*
X00640*
X00687Y03034D02*
X00791D01*
X00687D02*
Y03415D01*
X00535Y03356D02*
Y03456D01*
X00635D02*
X00647D01*
X00687Y03415*
X00547Y02835D02*
Y02927D01*
X00567Y02913D02*
X00687Y03034D01*
X00567Y02835D02*
Y02913D01*
X01103Y02043D02*
X01144D01*
X01089Y02030D02*
X01103Y02043D01*
X01089Y02003D02*
Y02030D01*
Y02003D02*
X01111Y01982D01*
X01150*
X01091Y02068D02*
X01145D01*
X00608Y01231D02*
Y01457D01*
X00716Y01442D02*
X01009Y01735D01*
Y01810*
X01008Y01811D02*
X01009Y01810D01*
X00647Y01951D02*
X00748D01*
X00805Y02008*
X01032*
X01091Y02068*
X01248Y02043D02*
X01287D01*
X01301Y02030*
Y01339D02*
Y02030D01*
X01213Y01251D02*
X01301Y01339D01*
X01213Y01214D02*
Y01251D01*
X01142Y01210D02*
Y01331D01*
X00339Y03035D02*
X00534D01*
Y03356*
X00586Y03168D02*
X00634D01*
X00585Y03169D02*
X00586Y03168D01*
X00634Y03014D02*
Y03168D01*
Y03356*
X01241Y01617D02*
Y01751D01*
X01192Y01926D02*
Y02069D01*
Y01926D02*
X01240Y01878D01*
Y01773D02*
Y01878D01*
X01934Y00472D02*
Y00936D01*
X01981Y00401D02*
Y00876D01*
X03320Y00851D02*
X03784D01*
X03858Y00925*
Y00985*
X03780Y01063D02*
X03858Y00985D01*
X00716Y01188D02*
Y01311D01*
X00724Y01112D02*
Y01146D01*
X00643Y01228D02*
X00724Y01146D01*
X00608Y01457D02*
X00908Y01756D01*
Y01811*
X01058Y01861D02*
X01108Y01811D01*
X00823D02*
X00858Y01847D01*
Y01928*
X01058Y01861D02*
Y01933D01*
X00858Y01928D02*
X00897Y01967D01*
X01023*
X01058Y01933*
X01192Y02069D02*
X01218Y02095D01*
X02565Y02369D02*
X02649D01*
X02565Y02619D02*
X02634D01*
X00456Y02743D02*
Y02744D01*
X00062Y00421D02*
X00144Y00338D01*
X01207*
X00039Y03164D02*
X00123Y03248D01*
X00205*
X00062Y00421D02*
Y03075D01*
X00157Y03171*
X00084Y02780D02*
X00339Y03035D01*
X00547Y02927D02*
X00634Y03014D01*
X01392Y01031D02*
X01529D01*
X01071Y02515D02*
X01214Y02658D01*
Y02692*
X01233Y02650D02*
Y02692D01*
X01292Y02604D02*
Y02692D01*
X00806Y02515D02*
X01071D01*
X00808Y02435D02*
X01018D01*
X01233Y02650*
X00743Y02379D02*
X01067D01*
X01292Y02604*
X00488Y02692D02*
Y02723D01*
X00456Y02724D02*
X00489D01*
X00497Y02732*
Y02744*
X00566Y02723D02*
X00567Y02723D01*
Y02692D02*
Y02723D01*
X00540Y02724D02*
X00599D01*
X00488Y02723D02*
X00566D01*
X00546Y02744D02*
X00599D01*
X00567Y02803D02*
X00599D01*
X00548Y02783D02*
X00599D01*
X00548D02*
X00567Y02803D01*
X00527Y02763D02*
Y02835D01*
X00527Y02762D02*
X00527Y02763D01*
X00548Y02783*
X00508Y02782D02*
Y02835D01*
Y02782D02*
X00527Y02762D01*
X00702Y01070D02*
X00743D01*
X01246Y02068D02*
X01422D01*
X01430Y02061*
X00510Y01658D02*
X00516Y01652D01*
X00510Y01658D02*
Y01821D01*
X00541Y01852*
X01182Y02803D02*
X01220D01*
X01182Y02783D02*
X01233D01*
X01182Y02744D02*
X01233D01*
X01182Y02724D02*
X01223D01*
X01234Y02735*
X01253Y02692D02*
Y02763D01*
X01273Y02692D02*
Y02742D01*
X01292Y02724D02*
X01324D01*
X01252Y02763D02*
X01253Y02763D01*
X01274Y02744D02*
X01324D01*
X01253Y02763D02*
X01292Y02724D01*
X01284Y02783D02*
X01324D01*
X01290Y02803D02*
X01324D01*
X01292Y02805D02*
Y02835D01*
X01282Y02795D02*
X01290Y02803D01*
X01292Y02805*
X01273Y02779D02*
Y02835D01*
X01214Y02809D02*
Y02835D01*
Y02809D02*
X01220Y02803D01*
X01230Y02793*
X01233Y02784D02*
Y02835D01*
X00716Y01188D02*
X00744Y01160D01*
G54D23*
X00760Y01313D02*
X00761Y01416D01*
X00760Y01218D02*
X00760Y01313D01*
X00760Y01210D02*
X00773Y01197D01*
X00818Y01152D02*
X00826Y01143D01*
X00729Y00608D02*
Y00719D01*
X00926Y00741D02*
X01078D01*
X00687Y00566D02*
X00729Y00608D01*
X00647Y00567D02*
X00687Y00566D01*
X00874Y01528D02*
X00932Y01586D01*
X00874Y01389D02*
Y01528D01*
Y01389D02*
X00927Y01336D01*
Y01241D02*
Y01336D01*
X00761Y01416D02*
X00873Y01528D01*
X00760Y01210D02*
X00760Y01218D01*
X00773Y01175D02*
Y01197D01*
Y01175D02*
X00775Y01173D01*
Y01152D02*
Y01173D01*
Y01152D02*
X00818D01*
G54D24*
X00617Y00905D02*
X00693Y00829D01*
X00734*
X00193Y00907D02*
X00684D01*
X00734Y00829D02*
X00825Y00738D01*
X00509Y01200D02*
Y01368D01*
Y01651*
Y01653D02*
X00737D01*
G54D25*
X00526Y02398D02*
X00527Y02161D01*
X01254Y03430D02*
Y03664D01*
G54D26*
X00732Y02763D02*
X01063D01*
G54D27*
X00763Y01112D02*
Y01141D01*
G54D28*
X00527Y02765D03*
G54D29*
X01254Y02762D03*
G54D30*
X02179Y01428D03*
X02080D03*
X01108Y01811D03*
X01008Y01911D03*
Y01811D03*
X00908Y01911D03*
Y01811D03*
X00808Y01911D03*
Y01811D03*
X00929Y00738D03*
X00829D03*
X00729D03*
X00735Y03456D03*
Y03356D03*
X00635Y03456D03*
Y03356D03*
X00535Y03456D03*
X01066Y00638D03*
Y00738D03*
G54D31*
X03780Y00963D03*
Y01063D03*
Y01163D03*
Y01263D03*
Y01363D03*
Y01463D03*
Y01563D03*
Y01663D03*
Y01862D03*
Y01962D03*
Y02062D03*
Y02162D03*
Y02262D03*
Y02362D03*
Y02462D03*
Y02562D03*
X01879Y02562D03*
Y02662D03*
Y02762D03*
Y02862D03*
Y02962D03*
Y03062D03*
Y03162D03*
Y03262D03*
Y01663D03*
Y01763D03*
Y01863D03*
Y01963D03*
Y02063D03*
Y02163D03*
Y02263D03*
Y02363D03*
Y00763D03*
Y00863D03*
Y00963D03*
Y01063D03*
Y01163D03*
Y01263D03*
Y01363D03*
Y01463D03*
X03780Y02723D03*
Y02823D03*
Y02923D03*
Y03023D03*
Y03123D03*
Y03223D03*
Y03323D03*
Y03423D03*
Y03523D03*
Y03623D03*
Y00663D03*
Y00563D03*
X03680Y00663D03*
Y00563D03*
X03580Y00663D03*
Y00563D03*
X03480Y00663D03*
Y00563D03*
X03380Y00663D03*
Y00563D03*
X03280Y00663D03*
Y00563D03*
X03180Y00663D03*
Y00563D03*
X03080Y00663D03*
Y00563D03*
X02980Y00663D03*
Y00563D03*
X02880Y00663D03*
Y00563D03*
X02780Y00663D03*
Y00563D03*
X02680Y00663D03*
Y00563D03*
X02580Y00663D03*
Y00563D03*
X02480Y00663D03*
Y00563D03*
X02380Y00663D03*
Y00563D03*
X02280Y00663D03*
Y00563D03*
X02180Y00663D03*
Y00563D03*
X02080Y00663D03*
Y00563D03*
G54D32*
X00118Y03744D03*
X03829D03*
Y00118D03*
X00118D03*
X01066Y01428D03*
X02381D03*
Y00113D03*
X01066D03*
G54D33*
X03572Y00280D03*
X00473Y00575D03*
X03131Y00280D03*
G54D34*
X00627Y02061D03*
X00427D03*
Y02261D03*
X00627D03*
X01154Y03764D03*
X01354D03*
Y03564D03*
X01154D03*
G54D35*
X00527Y02161D03*
X01254Y03664D03*
G54D36*
X01108Y01911D03*
X00535Y03356D03*
G54D37*
X00535Y03036D03*
X03173Y00829D03*
X03172Y00895D03*
X02600Y03523D03*
X00327Y03475D03*
X00908Y02121D03*
X00160Y00983D03*
X01318Y02367D03*
X00600Y01569D03*
X01049Y01641D03*
X00948Y00864D03*
X00853Y03179D03*
X00838Y02248D03*
X01015Y02333D03*
X00998Y02215D03*
X03374Y02113D03*
X03191Y01106D03*
X03349Y00912D03*
X02275Y00208D03*
X01354Y00347D03*
X00265Y00792D03*
X00175Y00661D03*
X00967Y00442D03*
X00699Y00146D03*
X01150Y00390D03*
X00361Y02949D03*
X00175Y03026D03*
X00609Y03699D03*
X00329Y03667D03*
X00972Y03344D03*
X00982Y03599D03*
X02156Y02748D03*
X02729Y01941D03*
X02824Y02528D03*
X03168Y03096D03*
X03402Y02910D03*
X02662Y03092D03*
X02247Y03374D03*
X03330Y03312D03*
X02929Y02910D03*
X02891Y03335D03*
X02414Y02963D03*
X02089Y02170D03*
X02318Y01846D03*
X02089Y01645D03*
X00905Y00586D03*
X01837Y00683D03*
X01388Y00455D03*
X01884Y00193D03*
X02483Y00919D03*
X02473Y01869D03*
X02530Y02232D03*
X02337Y02148D03*
X02473Y01654D03*
X02845Y01146D03*
X02779Y00924D03*
X02651Y01061D03*
X02947Y01345D03*
X03255Y01659D03*
X03492Y01328D03*
X03534Y02131D03*
X03229Y01916D03*
X03423Y01612D03*
X03171Y01371D03*
X03328Y01171D03*
X02649Y01571D03*
X00368Y03170D03*
X00374Y03248D03*
X00932Y01586D03*
X01007Y02065D03*
X00737Y01653D03*
X01142Y01210D03*
X01216D03*
X00585Y03169D03*
X01934Y00472D03*
X01981Y00401D03*
X00826Y01143D03*
X00806Y02515D03*
X00452Y01934D03*
Y01864D03*
Y01795D03*
Y01725D03*
Y01586D03*
Y01307D03*
Y01237D03*
X00552Y00960D03*
X00360Y00960D03*
X00153Y01087D03*
X00129Y01153D03*
X00126Y01222D03*
Y01292D03*
Y01362D03*
Y01431D03*
Y01501D03*
Y01571D03*
Y01641D03*
Y01710D03*
Y01780D03*
Y01850D03*
Y01919D03*
Y01989D03*
Y02059D03*
Y02128D03*
Y02198D03*
Y02268D03*
Y02337D03*
Y02407D03*
Y02477D03*
Y02546D03*
X00130Y02616D03*
X00148Y02683D03*
X00178Y02746D03*
X00220Y02802D03*
X00274Y02845D03*
X00341Y02866D03*
X00689Y02575D03*
X00689Y02515D03*
X00689Y02455D03*
X00671Y02159D03*
X00509Y02019D03*
X01614Y03553D03*
X01409Y03461D03*
X01415Y03402D03*
X01415Y03342D03*
X01415Y03282D03*
X01415Y03222D03*
X01415Y03162D03*
X01415Y03102D03*
X01416Y03042D03*
X01416Y02982D03*
X01089Y02965D03*
X01089Y03025D03*
X01089Y03085D03*
X01089Y03145D03*
X01089Y03205D03*
X01088Y03265D03*
X01088Y03325D03*
X01088Y03385D03*
X01090Y03445D03*
X01524Y02914D03*
X01581Y02895D03*
X01632Y02865D03*
X01677Y02825D03*
X01713Y02777D03*
X01739Y02723D03*
X01753Y02664D03*
X01756Y02605D03*
Y02545D03*
Y02485D03*
Y02425D03*
Y02365D03*
Y02305D03*
Y02245D03*
Y02185D03*
Y02125D03*
Y02065D03*
Y02005D03*
Y01945D03*
Y01885D03*
Y01825D03*
Y01765D03*
Y01705D03*
Y01645D03*
Y01585D03*
Y01525D03*
Y01465D03*
Y01405D03*
Y01345D03*
Y01285D03*
Y01225D03*
X01756Y01165D03*
X01740Y01106D03*
X01709Y01055D03*
X01701Y00996D03*
X01673Y00943D03*
X01621Y00913D03*
X01561Y00911D03*
X01507Y00938D03*
X01476Y00989D03*
X01446Y01103D03*
X01431Y01161D03*
X01430Y01221D03*
Y01281D03*
Y01341D03*
Y01401D03*
Y01461D03*
Y01521D03*
Y01581D03*
Y01641D03*
Y01701D03*
Y01761D03*
Y01821D03*
Y01881D03*
Y01941D03*
Y02001D03*
Y02061D03*
Y02121D03*
Y02181D03*
Y02241D03*
Y02301D03*
Y02361D03*
Y02421D03*
Y02481D03*
Y02541D03*
X01419Y02600D03*
X01365Y02625D03*
X01082Y02601D03*
X01022Y02600D03*
X00962D03*
X00902D03*
X00842D03*
X00637Y02899D03*
X00693Y02922D03*
X00873Y02927D03*
X00933D03*
X00993D03*
X00808Y02435D03*
X00743Y02379D03*
X00791Y03034D03*
X00527Y02762D03*
X01252Y02763D03*
X00750Y01733D03*
X00573Y01766D03*
X00752Y01061D03*
X00931Y01720D03*
X00745Y01530D03*
X00664Y01414D03*
X00562D03*
X00829Y01242D03*
X00439Y03111D03*
X00116Y03388D03*
X01601Y03094D03*
X01302Y00689D03*
X01667Y00456D03*
X03650Y02451D03*
X02736Y02245D03*
X03642Y03194D03*
X03534Y03545D03*
X02335Y01609D03*
X02125Y01204D03*
X02076Y00767D03*
X03619Y00906D03*
M02*