G04 Layer_Color=8388736*
%FSLAX25Y25*%
%MOIN*%
G70*
G01*
G75*
%ADD41R,0.02769X0.01981*%
G04:AMPARAMS|DCode=42|XSize=31.62mil|YSize=43.43mil|CornerRadius=9.91mil|HoleSize=0mil|Usage=FLASHONLY|Rotation=180.000|XOffset=0mil|YOffset=0mil|HoleType=Round|Shape=RoundedRectangle|*
%AMROUNDEDRECTD42*
21,1,0.03162,0.02362,0,0,180.0*
21,1,0.01181,0.04343,0,0,180.0*
1,1,0.01981,-0.00591,0.01181*
1,1,0.01981,0.00591,0.01181*
1,1,0.01981,0.00591,-0.01181*
1,1,0.01981,-0.00591,-0.01181*
%
%ADD42ROUNDEDRECTD42*%
%ADD43O,0.03989X0.01784*%
%ADD44O,0.01784X0.03989*%
%ADD45O,0.03780X0.01575*%
%ADD46O,0.01575X0.03780*%
%ADD47O,0.02913X0.01496*%
%ADD48O,0.01496X0.02913*%
G04:AMPARAMS|DCode=49|XSize=31.62mil|YSize=43.43mil|CornerRadius=9.91mil|HoleSize=0mil|Usage=FLASHONLY|Rotation=90.000|XOffset=0mil|YOffset=0mil|HoleType=Round|Shape=RoundedRectangle|*
%AMROUNDEDRECTD49*
21,1,0.03162,0.02362,0,0,90.0*
21,1,0.01181,0.04343,0,0,90.0*
1,1,0.01981,0.01181,0.00591*
1,1,0.01981,0.01181,-0.00591*
1,1,0.01981,-0.01181,-0.00591*
1,1,0.01981,-0.01181,0.00591*
%
%ADD49ROUNDEDRECTD49*%
%ADD50R,0.09461X0.03950*%
%ADD51O,0.05603X0.02375*%
%ADD52O,0.10642X0.03753*%
%ADD53C,0.06706*%
%ADD54R,0.06706X0.06706*%
%ADD55C,0.06800*%
%ADD56C,0.08674*%
%ADD57C,0.11824*%
%ADD58C,0.12611*%
%ADD59C,0.40170*%
%ADD60C,0.05800*%
D41*
X20374Y324705D02*
D03*
X23130D02*
D03*
X21260Y317028D02*
D03*
X24016D02*
D03*
D42*
X130118Y176378D02*
D03*
X124213D02*
D03*
X58713Y185275D02*
D03*
X64618D02*
D03*
X95888Y104350D02*
D03*
X89982D02*
D03*
X68413Y90375D02*
D03*
X74318D02*
D03*
X65713Y131175D02*
D03*
X71618D02*
D03*
X82874Y131300D02*
D03*
X76968D02*
D03*
X94193Y141634D02*
D03*
X88287D02*
D03*
X88484Y149705D02*
D03*
X94390D02*
D03*
X92673Y132693D02*
D03*
X98578D02*
D03*
X152902Y103167D02*
D03*
X158807D02*
D03*
X47441Y105610D02*
D03*
X53347D02*
D03*
X50962Y136815D02*
D03*
X45057D02*
D03*
X50962Y150988D02*
D03*
X45057D02*
D03*
X51218Y165675D02*
D03*
X45313D02*
D03*
X117815Y162599D02*
D03*
X123721D02*
D03*
X130807Y209843D02*
D03*
X136713D02*
D03*
D43*
X132480Y272441D02*
D03*
Y274409D02*
D03*
Y276378D02*
D03*
Y278346D02*
D03*
Y280315D02*
D03*
X118228D02*
D03*
Y278346D02*
D03*
Y276378D02*
D03*
Y274409D02*
D03*
Y272441D02*
D03*
X45669Y278347D02*
D03*
Y276378D02*
D03*
Y274410D02*
D03*
Y272441D02*
D03*
X59921D02*
D03*
Y274410D02*
D03*
Y276378D02*
D03*
Y278347D02*
D03*
Y280315D02*
D03*
D44*
X129291Y283504D02*
D03*
X127323D02*
D03*
X125354D02*
D03*
X123386D02*
D03*
X121417D02*
D03*
Y269252D02*
D03*
X123386D02*
D03*
X125354D02*
D03*
X127323D02*
D03*
X129291D02*
D03*
X52795D02*
D03*
X54764D02*
D03*
X56732D02*
D03*
Y283504D02*
D03*
X54764D02*
D03*
X52795D02*
D03*
X50827D02*
D03*
X48858D02*
D03*
D45*
X45669Y280315D02*
D03*
D46*
X48858Y269252D02*
D03*
X50827D02*
D03*
D47*
X70276Y109055D02*
D03*
Y107087D02*
D03*
Y105118D02*
D03*
Y103150D02*
D03*
X80512D02*
D03*
Y105118D02*
D03*
Y107087D02*
D03*
Y109055D02*
D03*
D48*
X72441Y100984D02*
D03*
X74410D02*
D03*
X76378D02*
D03*
X78347D02*
D03*
Y111221D02*
D03*
X76378D02*
D03*
X74410D02*
D03*
X72441D02*
D03*
D49*
X64265Y169722D02*
D03*
Y175628D02*
D03*
X28937Y100197D02*
D03*
Y106102D02*
D03*
X51066Y119928D02*
D03*
Y114022D02*
D03*
X60666Y117222D02*
D03*
Y123128D02*
D03*
X124665Y103328D02*
D03*
Y97422D02*
D03*
X108683Y103366D02*
D03*
Y97460D02*
D03*
X57965Y90828D02*
D03*
Y84922D02*
D03*
X47065Y90828D02*
D03*
Y84922D02*
D03*
X32965Y90828D02*
D03*
Y84922D02*
D03*
X19865Y90728D02*
D03*
Y84822D02*
D03*
D50*
X92665Y112560D02*
D03*
Y123190D02*
D03*
D51*
X124606Y204331D02*
D03*
Y206890D02*
D03*
Y209449D02*
D03*
Y212008D02*
D03*
X114291Y204331D02*
D03*
Y206890D02*
D03*
Y209449D02*
D03*
Y212008D02*
D03*
D52*
X256594Y231929D02*
D03*
Y236929D02*
D03*
Y241929D02*
D03*
Y246929D02*
D03*
Y251929D02*
D03*
Y256929D02*
D03*
Y261929D02*
D03*
Y266929D02*
D03*
X240846Y231929D02*
D03*
Y236929D02*
D03*
Y241929D02*
D03*
Y246929D02*
D03*
Y251929D02*
D03*
Y256929D02*
D03*
Y261929D02*
D03*
Y266929D02*
D03*
X347146Y231929D02*
D03*
Y236929D02*
D03*
Y241929D02*
D03*
Y246929D02*
D03*
Y251929D02*
D03*
Y256929D02*
D03*
Y261929D02*
D03*
Y266929D02*
D03*
X331398Y231929D02*
D03*
Y236929D02*
D03*
Y241929D02*
D03*
Y246929D02*
D03*
Y251929D02*
D03*
Y256929D02*
D03*
Y261929D02*
D03*
Y266929D02*
D03*
D53*
X106693Y73819D02*
D03*
Y63819D02*
D03*
X53543Y345630D02*
D03*
X63543Y335630D02*
D03*
Y345630D02*
D03*
X73543Y335630D02*
D03*
Y345630D02*
D03*
X72966Y73875D02*
D03*
X82965D02*
D03*
X92966D02*
D03*
X80803Y181188D02*
D03*
Y191188D02*
D03*
X90803Y181188D02*
D03*
Y191188D02*
D03*
X100803Y181188D02*
D03*
Y191188D02*
D03*
X110803Y181188D02*
D03*
X208012Y142815D02*
D03*
X217972D02*
D03*
D54*
X53543Y335630D02*
D03*
X110803Y191188D02*
D03*
D55*
X208051Y56339D02*
D03*
Y66339D02*
D03*
X218051Y56339D02*
D03*
Y66339D02*
D03*
X228051Y56339D02*
D03*
Y66339D02*
D03*
X238051Y56339D02*
D03*
Y66339D02*
D03*
X248051Y56339D02*
D03*
Y66339D02*
D03*
X258051Y56339D02*
D03*
Y66339D02*
D03*
X268051Y56339D02*
D03*
Y66339D02*
D03*
X278051Y56339D02*
D03*
Y66339D02*
D03*
X288051Y56339D02*
D03*
Y66339D02*
D03*
X298051Y56339D02*
D03*
Y66339D02*
D03*
X308051Y56339D02*
D03*
Y66339D02*
D03*
X318051Y56339D02*
D03*
Y66339D02*
D03*
X328051Y56339D02*
D03*
Y66339D02*
D03*
X338051Y56339D02*
D03*
Y66339D02*
D03*
X348051Y56339D02*
D03*
Y66339D02*
D03*
X358051Y56339D02*
D03*
Y66339D02*
D03*
X368051Y56339D02*
D03*
Y66339D02*
D03*
X378051Y56339D02*
D03*
Y66339D02*
D03*
Y362303D02*
D03*
Y352303D02*
D03*
Y342303D02*
D03*
Y332303D02*
D03*
Y322303D02*
D03*
Y312303D02*
D03*
Y302303D02*
D03*
Y292303D02*
D03*
Y282303D02*
D03*
Y272303D02*
D03*
X187992Y146358D02*
D03*
Y136358D02*
D03*
Y126358D02*
D03*
Y116358D02*
D03*
Y106358D02*
D03*
Y96358D02*
D03*
Y86358D02*
D03*
Y76358D02*
D03*
Y236319D02*
D03*
Y226319D02*
D03*
Y216319D02*
D03*
Y206319D02*
D03*
Y196319D02*
D03*
Y186319D02*
D03*
Y176319D02*
D03*
Y166319D02*
D03*
Y326280D02*
D03*
Y316280D02*
D03*
Y306280D02*
D03*
Y296280D02*
D03*
Y286280D02*
D03*
Y276280D02*
D03*
Y266280D02*
D03*
Y256280D02*
D03*
X378051Y256299D02*
D03*
Y246299D02*
D03*
Y236299D02*
D03*
Y226299D02*
D03*
Y216299D02*
D03*
Y206299D02*
D03*
Y196299D02*
D03*
Y186299D02*
D03*
Y166339D02*
D03*
Y156339D02*
D03*
Y146339D02*
D03*
Y136339D02*
D03*
Y126339D02*
D03*
Y116339D02*
D03*
Y106339D02*
D03*
Y96339D02*
D03*
D56*
X125492Y366437D02*
D03*
X52756Y216142D02*
D03*
D57*
X115492Y356437D02*
D03*
X135492D02*
D03*
Y376437D02*
D03*
X115492D02*
D03*
X62756Y226142D02*
D03*
X42756D02*
D03*
Y206142D02*
D03*
X62756D02*
D03*
D58*
X106693Y11319D02*
D03*
X238189D02*
D03*
Y142815D02*
D03*
X106693D02*
D03*
X11811Y11811D02*
D03*
X382973D02*
D03*
X382973Y374410D02*
D03*
X11811Y374410D02*
D03*
D59*
X313197Y28051D02*
D03*
X47343Y57579D02*
D03*
X357284Y28051D02*
D03*
D60*
X361910Y90650D02*
D03*
X207677Y76772D02*
D03*
X212500Y120473D02*
D03*
X233563Y160925D02*
D03*
X353445Y354528D02*
D03*
X364272Y319488D02*
D03*
X273622Y224508D02*
D03*
X365059Y245177D02*
D03*
X166732Y45669D02*
D03*
X130217Y68996D02*
D03*
X160138Y309449D02*
D03*
X11614Y338878D02*
D03*
X43996Y311122D02*
D03*
X82973Y124213D02*
D03*
X56201Y141437D02*
D03*
X66437D02*
D03*
X74508Y153051D02*
D03*
X93110Y172047D02*
D03*
X75295Y106102D02*
D03*
X57382Y176673D02*
D03*
X75098Y173327D02*
D03*
X125295Y276378D02*
D03*
X52756Y276280D02*
D03*
X79134Y303445D02*
D03*
X74311Y237992D02*
D03*
X80807Y243504D02*
D03*
X99320Y292710D02*
D03*
X93320D02*
D03*
X87320D02*
D03*
X69340Y292222D02*
D03*
X63771Y289990D02*
D03*
X84214Y260047D02*
D03*
X90214D02*
D03*
X96214D02*
D03*
X102214D02*
D03*
X108212Y260175D02*
D03*
X136502Y262590D02*
D03*
X141951Y260079D02*
D03*
X143011Y254173D02*
D03*
Y248173D02*
D03*
Y242173D02*
D03*
Y236173D02*
D03*
Y230173D02*
D03*
Y224173D02*
D03*
Y218173D02*
D03*
Y212173D02*
D03*
Y206173D02*
D03*
Y200173D02*
D03*
Y194173D02*
D03*
Y188173D02*
D03*
Y182173D02*
D03*
Y176173D02*
D03*
Y170173D02*
D03*
Y164173D02*
D03*
Y158173D02*
D03*
Y152173D02*
D03*
Y146173D02*
D03*
Y140173D02*
D03*
Y134173D02*
D03*
Y128173D02*
D03*
Y122173D02*
D03*
X143107Y116174D02*
D03*
X144650Y110376D02*
D03*
X147635Y98962D02*
D03*
X150777Y93850D02*
D03*
X156146Y91171D02*
D03*
X162143Y91330D02*
D03*
X167332Y94344D02*
D03*
X170168Y99632D02*
D03*
X170970Y105578D02*
D03*
X174098Y110698D02*
D03*
X175615Y116503D02*
D03*
X175678Y122503D02*
D03*
Y128503D02*
D03*
Y134503D02*
D03*
Y140503D02*
D03*
Y146503D02*
D03*
Y152503D02*
D03*
Y158503D02*
D03*
Y164503D02*
D03*
Y170503D02*
D03*
Y176503D02*
D03*
Y182503D02*
D03*
Y188503D02*
D03*
Y194503D02*
D03*
Y200503D02*
D03*
Y206503D02*
D03*
Y212503D02*
D03*
Y218503D02*
D03*
Y224503D02*
D03*
Y230503D02*
D03*
Y236503D02*
D03*
Y242503D02*
D03*
Y248503D02*
D03*
Y254503D02*
D03*
Y260503D02*
D03*
X175372Y266495D02*
D03*
X173927Y272318D02*
D03*
X171379Y277750D02*
D03*
X167769Y282543D02*
D03*
X163292Y286538D02*
D03*
X158100Y289545D02*
D03*
X152413Y291455D02*
D03*
X109099Y344513D02*
D03*
X108871Y338517D02*
D03*
X108884Y332517D02*
D03*
X108897Y326517D02*
D03*
X108909Y320517D02*
D03*
X108922Y314517D02*
D03*
X108935Y308517D02*
D03*
X108948Y302517D02*
D03*
X108961Y296517D02*
D03*
X141624Y298210D02*
D03*
X141612Y304210D02*
D03*
X141599Y310210D02*
D03*
X141586Y316210D02*
D03*
X141573Y322210D02*
D03*
X141560Y328210D02*
D03*
X141547Y334210D02*
D03*
X141534Y340210D02*
D03*
X140918Y346178D02*
D03*
X161417Y355315D02*
D03*
X50947Y201913D02*
D03*
X67125Y215961D02*
D03*
X68915Y245595D02*
D03*
X68952Y251595D02*
D03*
X68958Y257595D02*
D03*
X34139Y286646D02*
D03*
X27488Y284567D02*
D03*
X22031Y280233D02*
D03*
X17833Y274671D02*
D03*
X14806Y268394D02*
D03*
X13070Y261646D02*
D03*
X12604Y254693D02*
D03*
Y247724D02*
D03*
Y240756D02*
D03*
Y233787D02*
D03*
Y226819D02*
D03*
Y219850D02*
D03*
Y212882D02*
D03*
Y205913D02*
D03*
Y198945D02*
D03*
Y191976D02*
D03*
Y185008D02*
D03*
Y178039D02*
D03*
Y171071D02*
D03*
Y164102D02*
D03*
Y157134D02*
D03*
Y150165D02*
D03*
Y143197D02*
D03*
Y136228D02*
D03*
Y129260D02*
D03*
Y122291D02*
D03*
X12985Y115333D02*
D03*
X15364Y108783D02*
D03*
X36024Y96063D02*
D03*
X55277Y96099D02*
D03*
X45271Y123761D02*
D03*
Y130729D02*
D03*
Y158603D02*
D03*
Y172540D02*
D03*
Y179509D02*
D03*
Y186477D02*
D03*
Y193446D02*
D03*
X80610Y251575D02*
D03*
X82677Y114370D02*
D03*
X198130Y40157D02*
D03*
X193406Y47244D02*
D03*
X58563Y316929D02*
D03*
X121654Y121063D02*
D03*
X114272D02*
D03*
X73765Y165375D02*
D03*
X100703Y206588D02*
D03*
X93265Y158675D02*
D03*
X37402Y324803D02*
D03*
X36811Y317028D02*
D03*
X264941Y157165D02*
D03*
X332874Y117126D02*
D03*
X317126Y137106D02*
D03*
X342323Y161221D02*
D03*
X322933Y191634D02*
D03*
X353445Y213189D02*
D03*
X349213Y132874D02*
D03*
X325591Y165945D02*
D03*
X294783Y134547D02*
D03*
X265158Y106102D02*
D03*
X277953Y92421D02*
D03*
X284547Y114665D02*
D03*
X247343Y165453D02*
D03*
X233760Y214862D02*
D03*
X253051Y223228D02*
D03*
X247343Y186909D02*
D03*
X248327Y91929D02*
D03*
X188484Y19390D02*
D03*
X138878Y45571D02*
D03*
X183760Y68307D02*
D03*
X90551Y58662D02*
D03*
X208957Y164567D02*
D03*
X231890Y184646D02*
D03*
X208957Y217028D02*
D03*
X241437Y296358D02*
D03*
X289173Y333563D02*
D03*
X292914Y291043D02*
D03*
X333071Y331201D02*
D03*
X224705Y337402D02*
D03*
X266240Y309252D02*
D03*
X340256Y291043D02*
D03*
X316831Y309646D02*
D03*
X282480Y252854D02*
D03*
X272933Y194193D02*
D03*
X215650Y274803D02*
D03*
X98228Y359941D02*
D03*
X97244Y334449D02*
D03*
X32973Y366732D02*
D03*
X60925Y369980D02*
D03*
X17520Y302658D02*
D03*
X36122Y294980D02*
D03*
X115059Y39075D02*
D03*
X69980Y14665D02*
D03*
X96752Y44291D02*
D03*
X17520Y66142D02*
D03*
X26575Y79232D02*
D03*
X135433Y34744D02*
D03*
X227559Y20866D02*
D03*
X334941Y91240D02*
D03*
X319193Y110630D02*
D03*
X337402Y211319D02*
D03*
X99803Y221555D02*
D03*
X101575Y233366D02*
D03*
X83858Y224803D02*
D03*
X85335Y317914D02*
D03*
X94882Y86417D02*
D03*
X104921Y164173D02*
D03*
X60039Y156988D02*
D03*
X131890Y236713D02*
D03*
X16043Y98327D02*
D03*
X90847Y212106D02*
D03*
X32776Y347539D02*
D03*
X260039Y352362D02*
D03*
X317225Y89567D02*
D03*
X317323Y82973D02*
D03*
X53543Y303642D02*
D03*
M02*
