G04 Layer_Physical_Order=1*
G04 Layer_Color=255*
%FSLAX25Y25*%
%MOIN*%
G70*
G01*
G75*
%ADD10C,0.11798*%
%ADD11C,0.01000*%
%ADD12R,0.01969X0.01181*%
G04:AMPARAMS|DCode=13|XSize=23.62mil|YSize=35.43mil|CornerRadius=5.91mil|HoleSize=0mil|Usage=FLASHONLY|Rotation=180.000|XOffset=0mil|YOffset=0mil|HoleType=Round|Shape=RoundedRectangle|*
%AMROUNDEDRECTD13*
21,1,0.02362,0.02362,0,0,180.0*
21,1,0.01181,0.03543,0,0,180.0*
1,1,0.01181,-0.00591,0.01181*
1,1,0.01181,0.00591,0.01181*
1,1,0.01181,0.00591,-0.01181*
1,1,0.01181,-0.00591,-0.01181*
%
%ADD13ROUNDEDRECTD13*%
%ADD14O,0.03189X0.00984*%
%ADD15O,0.00984X0.03189*%
%ADD16O,0.02520X0.01102*%
%ADD17O,0.01102X0.02520*%
G04:AMPARAMS|DCode=18|XSize=23.62mil|YSize=35.43mil|CornerRadius=5.91mil|HoleSize=0mil|Usage=FLASHONLY|Rotation=90.000|XOffset=0mil|YOffset=0mil|HoleType=Round|Shape=RoundedRectangle|*
%AMROUNDEDRECTD18*
21,1,0.02362,0.02362,0,0,90.0*
21,1,0.01181,0.03543,0,0,90.0*
1,1,0.01181,0.01181,0.00591*
1,1,0.01181,0.01181,-0.00591*
1,1,0.01181,-0.01181,-0.00591*
1,1,0.01181,-0.01181,0.00591*
%
%ADD18ROUNDEDRECTD18*%
%ADD19R,0.08661X0.03150*%
%ADD20O,0.04803X0.01575*%
%ADD21O,0.09843X0.02953*%
%ADD22C,0.03937*%
%ADD23C,0.00787*%
%ADD24C,0.01102*%
%ADD25C,0.07087*%
%ADD26C,0.11794*%
%ADD27C,0.01969*%
%ADD28R,0.07185X0.07677*%
%ADD29R,0.08071X0.08268*%
%ADD30C,0.05906*%
%ADD31R,0.05906X0.05906*%
%ADD32C,0.06000*%
%ADD33C,0.07874*%
%ADD34C,0.11024*%
%ADD35C,0.11811*%
%ADD36C,0.39370*%
%ADD37C,0.05000*%
G36*
X36812Y276393D02*
X36811Y276378D01*
X40787Y276231D01*
X41344Y275674D01*
X41385Y271979D01*
X41385Y271979D01*
X41220Y270302D01*
X40731Y268690D01*
X39936Y267204D01*
X38867Y265901D01*
X38867Y265901D01*
X38838Y265930D01*
X30737Y274031D01*
X30737Y274031D01*
X31974Y275047D01*
X33386Y275801D01*
X34918Y276266D01*
X36511Y276423D01*
X36812Y276393D01*
D02*
G37*
G36*
X146186Y281773D02*
Y270316D01*
X146186Y270316D01*
X144593Y270473D01*
X143061Y270938D01*
X141650Y271692D01*
X140412Y272708D01*
X140220Y272942D01*
X140231Y272952D01*
X137524Y275867D01*
Y276655D01*
X140108Y279297D01*
X140108Y279297D01*
X141410Y280366D01*
X142896Y281160D01*
X144509Y281649D01*
X146186Y281814D01*
X146186D01*
Y281773D01*
D02*
G37*
G36*
X393307Y383352D02*
X393307Y2559D01*
X3065Y2559D01*
X1673Y3951D01*
Y37963D01*
X3642Y38750D01*
X15684Y26708D01*
X15684Y26708D01*
X16075Y26447D01*
X16535Y26355D01*
X16535Y26355D01*
X281004D01*
X281004Y26355D01*
X281465Y26447D01*
X281856Y26708D01*
X292550Y37402D01*
X294172Y36240D01*
X294045Y35984D01*
X293174Y33416D01*
X292645Y30757D01*
X292500Y28551D01*
X312697D01*
Y48748D01*
X310491Y48603D01*
X307832Y48074D01*
X305264Y47203D01*
X305009Y47077D01*
X304981Y47115D01*
X303903Y48755D01*
X304164Y49145D01*
X304256Y49606D01*
X304256Y49606D01*
Y51996D01*
X306141Y53030D01*
X307063Y52649D01*
X308051Y52519D01*
X309040Y52649D01*
X309961Y53030D01*
X310752Y53637D01*
X311360Y54429D01*
X311741Y55350D01*
X311871Y56339D01*
X311741Y57327D01*
X311360Y58249D01*
X310752Y59040D01*
X309961Y59647D01*
X309040Y60029D01*
X308051Y60159D01*
X307063Y60029D01*
X306883Y59954D01*
X305038Y61116D01*
Y61562D01*
X306883Y62723D01*
X307063Y62649D01*
X308051Y62519D01*
X309040Y62649D01*
X309961Y63030D01*
X310752Y63638D01*
X311360Y64429D01*
X311741Y65350D01*
X311871Y66339D01*
X311741Y67327D01*
X311360Y68249D01*
X310752Y69040D01*
X309961Y69647D01*
X309040Y70029D01*
X308051Y70159D01*
X307063Y70029D01*
X306141Y69647D01*
X304256Y70681D01*
Y215249D01*
X323002Y233995D01*
X325510Y233807D01*
X325870Y233321D01*
X325852Y233243D01*
X325620Y232895D01*
X325527Y232429D01*
X337268D01*
X337175Y232895D01*
X336943Y233243D01*
X336785Y233935D01*
X336798Y235442D01*
X336880Y235903D01*
X336975Y236046D01*
X337074Y236546D01*
X337151Y236929D01*
D01*
X337066Y237356D01*
X336975Y237812D01*
X336975Y237812D01*
X336803Y238080D01*
X336687Y238994D01*
X336654Y239665D01*
X336666Y240155D01*
X336975Y241046D01*
X336983Y241086D01*
X337063Y241490D01*
X337151Y241929D01*
X337151Y241929D01*
X337150Y241932D01*
X337064Y242367D01*
X337035Y242510D01*
X337011Y242634D01*
X336975Y242812D01*
X336902Y242921D01*
X336475Y244246D01*
Y245272D01*
X336683Y245609D01*
X336975Y246046D01*
X337151Y246929D01*
X336975Y247813D01*
X336683Y248249D01*
X336475Y248586D01*
Y249612D01*
X336902Y250937D01*
X336975Y251046D01*
X337011Y251225D01*
X337035Y251349D01*
X337068Y251513D01*
X337150Y251926D01*
X337151Y251929D01*
X337151Y251929D01*
X337063Y252369D01*
X336983Y252772D01*
X336975Y252813D01*
X336892Y253052D01*
X336691Y253922D01*
X336666Y254429D01*
X336687Y254865D01*
X336749Y255347D01*
X336975Y256046D01*
Y256046D01*
Y256046D01*
X336980Y256070D01*
X337048Y256415D01*
X337078Y256561D01*
X337079Y256569D01*
X337112Y256733D01*
X337151Y256929D01*
D01*
Y256929D01*
X337111Y257130D01*
X337077Y257301D01*
X337076Y257306D01*
X337050Y257438D01*
X336978Y257797D01*
X336975Y257812D01*
X336666Y258703D01*
X336654Y259194D01*
X336635Y258795D01*
X336630Y258808D01*
Y259290D01*
X336647Y259488D01*
X336654Y259194D01*
X336687Y259865D01*
X336803Y260778D01*
X336975Y261046D01*
Y261046D01*
X337066Y261502D01*
X337151Y261929D01*
D01*
X337074Y262313D01*
X336975Y262812D01*
X336880Y262955D01*
X336798Y263416D01*
Y263416D01*
X336798Y263416D01*
X336785Y264924D01*
X336943Y265616D01*
X337175Y265963D01*
X337268Y266429D01*
X325527D01*
X325620Y265963D01*
X325852Y265616D01*
X326004Y264948D01*
X324749Y263133D01*
X316030D01*
X305084Y274080D01*
X304693Y274341D01*
X304232Y274433D01*
X304232Y274433D01*
X232973D01*
X232512Y274341D01*
X232121Y274080D01*
X232121Y274080D01*
X198755Y240714D01*
X198494Y240323D01*
X198402Y239862D01*
X198402Y239862D01*
Y118314D01*
X193940Y113851D01*
X193222Y113942D01*
X192747Y114383D01*
X191779Y116109D01*
X191812Y116358D01*
X191682Y117347D01*
X191300Y118268D01*
X190693Y119060D01*
X189902Y119667D01*
X188981Y120048D01*
X187992Y120178D01*
X187003Y120048D01*
X186082Y119667D01*
X185291Y119060D01*
X184684Y118268D01*
X184302Y117347D01*
X184172Y116358D01*
X184302Y115370D01*
X184684Y114448D01*
X184718Y114100D01*
X184506Y112449D01*
X184215Y112001D01*
X179365Y107151D01*
X179104Y106760D01*
X179012Y106299D01*
X179012Y106299D01*
Y93806D01*
X120269Y35063D01*
X14967D01*
X7405Y42625D01*
Y56514D01*
X9374Y57329D01*
X11845Y54857D01*
X11845Y54857D01*
X12236Y54596D01*
X12697Y54505D01*
X12697Y54505D01*
X27081D01*
X27525Y52269D01*
X28388Y49727D01*
X29575Y47321D01*
X31066Y45089D01*
X32835Y43072D01*
X34853Y41302D01*
X37084Y39811D01*
X39491Y38624D01*
X42033Y37762D01*
X44665Y37238D01*
X47343Y37062D01*
X50020Y37238D01*
X52653Y37762D01*
X55194Y38624D01*
X57601Y39811D01*
X59832Y41302D01*
X61850Y43072D01*
X63619Y45089D01*
X65110Y47321D01*
X66297Y49727D01*
X67160Y52269D01*
X67488Y53918D01*
X68774Y53913D01*
X68779Y53914D01*
X68783Y53913D01*
X69139Y53960D01*
X69494Y54006D01*
X69498Y54007D01*
X69503Y54008D01*
X69834Y54145D01*
X70165Y54281D01*
X70169Y54284D01*
X70173Y54286D01*
X70459Y54505D01*
X70742Y54721D01*
X70745Y54725D01*
X70749Y54727D01*
X74931Y58909D01*
X75373Y59485D01*
X75650Y60155D01*
X75745Y60875D01*
Y71353D01*
X76232Y71989D01*
X76609Y72898D01*
X76660Y73283D01*
X77293Y73916D01*
X77614Y74083D01*
X78663Y74333D01*
X79045Y74003D01*
X79211Y73739D01*
X79322Y72898D01*
X79698Y71989D01*
X80298Y71207D01*
X81079Y70608D01*
X81989Y70231D01*
X82965Y70102D01*
X83942Y70231D01*
X84852Y70608D01*
X85633Y71207D01*
X86233Y71989D01*
X86609Y72898D01*
X86738Y73875D01*
X86609Y74851D01*
X86233Y75761D01*
X85633Y76542D01*
X84852Y77142D01*
X83942Y77519D01*
X82965Y77647D01*
X81989Y77519D01*
X81637Y77373D01*
X74758Y84252D01*
X74172Y84644D01*
X73481Y84781D01*
X70189D01*
X69194Y86134D01*
X69741Y88029D01*
X69997Y88200D01*
X70301Y88656D01*
X70408Y89193D01*
X72323D01*
X72430Y88656D01*
X72734Y88200D01*
X73190Y87896D01*
X73728Y87789D01*
X74909D01*
X75446Y87896D01*
X75902Y88200D01*
X76207Y88656D01*
X76314Y89193D01*
Y91556D01*
X76207Y92093D01*
X75902Y92549D01*
X75614Y92742D01*
Y97056D01*
X76064Y98148D01*
X77824Y99015D01*
X77824D01*
X77903Y98999D01*
X78347Y98911D01*
X78347Y98911D01*
X78584Y98958D01*
X78753Y98992D01*
X78869Y99015D01*
X78869D01*
X78880Y99022D01*
X79140Y99196D01*
X79195Y99233D01*
X79245Y99266D01*
X79276Y99287D01*
X79312Y99311D01*
X79454Y99523D01*
X79607Y99753D01*
X79607Y99753D01*
X79696Y100197D01*
X79711Y100276D01*
X79711Y100276D01*
Y100276D01*
X80373Y101124D01*
X81221Y101785D01*
X81221D01*
X83123Y101946D01*
X83540D01*
X83540Y101945D01*
X84001Y102037D01*
X84392Y102298D01*
X84424Y102330D01*
X85843Y103357D01*
X86430Y103237D01*
X86890Y103146D01*
X87991D01*
X88094Y102631D01*
X88398Y102175D01*
X88854Y101871D01*
X89391Y101764D01*
X90573D01*
X91110Y101871D01*
X91566Y102175D01*
X91871Y102631D01*
X91978Y103169D01*
X93892D01*
X93999Y102631D01*
X94304Y102175D01*
X94760Y101871D01*
X95297Y101764D01*
X96478D01*
X97016Y101871D01*
X97472Y102175D01*
X97776Y102631D01*
X97879Y103146D01*
X106097D01*
Y102775D01*
X106203Y102237D01*
X106508Y101782D01*
X106854Y101550D01*
X106939Y100897D01*
X106906Y100132D01*
X106809Y99501D01*
X106355Y99197D01*
X106003Y98671D01*
X105880Y98050D01*
Y97960D01*
X111485D01*
Y98050D01*
X111362Y98671D01*
X111011Y99197D01*
X111129Y101241D01*
X111861Y102123D01*
X121504D01*
X122258Y101211D01*
X122337Y99159D01*
X121986Y98633D01*
X121862Y98013D01*
Y97922D01*
X127468D01*
Y98013D01*
X127345Y98633D01*
X126993Y99159D01*
X127072Y101211D01*
X127826Y102123D01*
X138656D01*
X138760Y102054D01*
X139220Y101962D01*
X150911D01*
X151013Y101448D01*
X151318Y100992D01*
X151397Y100939D01*
X151427Y100635D01*
X151821Y99336D01*
X152460Y98139D01*
X153321Y97090D01*
X154370Y96229D01*
X155567Y95589D01*
X156866Y95196D01*
X158217Y95063D01*
X159398D01*
X160748Y95196D01*
X162047Y95589D01*
X163244Y96229D01*
X164293Y97090D01*
X165154Y98139D01*
X165794Y99336D01*
X166188Y100635D01*
X166321Y101986D01*
Y104348D01*
X166188Y105698D01*
X165987Y106360D01*
X166445Y106785D01*
X166463Y106796D01*
X166697Y106989D01*
X166697Y106989D01*
X166697Y106989D01*
X167048Y107339D01*
X167574Y107866D01*
X167574Y107866D01*
X167574Y107866D01*
X168590Y109103D01*
X168590Y109103D01*
X169001Y109719D01*
X169279Y110135D01*
X169279Y110135D01*
X169279Y110135D01*
X170034Y111547D01*
X170393Y112415D01*
X170509Y112693D01*
X170509Y112693D01*
Y112693D01*
Y112693D01*
X170553Y112840D01*
X170981Y113874D01*
X171430Y115741D01*
X171580Y117655D01*
Y261811D01*
X171567Y261985D01*
X171585Y262306D01*
X171422Y265197D01*
X170937Y268052D01*
X170136Y270834D01*
X169028Y273509D01*
X167627Y276043D01*
X165952Y278404D01*
X164022Y280563D01*
X161863Y282493D01*
X159502Y284168D01*
X156968Y285569D01*
X154293Y286677D01*
X151510Y287479D01*
X148656Y287964D01*
X147170Y288047D01*
X147111Y288053D01*
X146806Y288113D01*
X146495D01*
X146186Y288144D01*
X146186D01*
X145933Y288119D01*
X145862Y288113D01*
X145565D01*
X144385Y287997D01*
X144051Y287971D01*
X144004Y287960D01*
X143888Y287948D01*
X143888D01*
X143485Y287868D01*
X142672Y287706D01*
X142671Y287706D01*
X141059Y287217D01*
X141059Y287217D01*
X139913Y286742D01*
X139913Y286742D01*
X139913D01*
X139913D01*
X138427Y285948D01*
X138426Y285948D01*
X138013Y285672D01*
X137395Y285259D01*
X137395Y285259D01*
X136092Y284190D01*
X135870Y283967D01*
X135627Y283768D01*
X135607Y283743D01*
X135582Y283722D01*
X134977Y283103D01*
X134585D01*
X133583Y283202D01*
X132351D01*
X132251Y285171D01*
X132593Y285488D01*
X132610Y285500D01*
X132844Y285692D01*
X132844Y285692D01*
X132844Y285692D01*
X133195Y286043D01*
X133722Y286569D01*
X133722Y286569D01*
X133722Y286569D01*
X134737Y287807D01*
X134737Y287807D01*
X135149Y288422D01*
X135427Y288838D01*
X135427Y288838D01*
X135427Y288838D01*
X136181Y290250D01*
X136541Y291118D01*
X136656Y291396D01*
X136656Y291396D01*
Y291396D01*
Y291396D01*
X137121Y292928D01*
X137267Y293661D01*
X137363Y294145D01*
X137369Y294208D01*
X137385Y294274D01*
X137417Y294691D01*
X137520Y295738D01*
Y295824D01*
X137534Y295910D01*
X137528Y296135D01*
X137550Y296358D01*
X137530Y296560D01*
X137433Y341857D01*
X137278Y343771D01*
X136826Y345637D01*
X136087Y347409D01*
X135759Y347942D01*
X136496Y349993D01*
X136769Y350020D01*
X137996Y350392D01*
X139128Y350996D01*
X140119Y351810D01*
X140933Y352802D01*
X141537Y353933D01*
X141910Y355160D01*
X141986Y355937D01*
X135492D01*
Y356937D01*
X141986D01*
X141910Y357714D01*
X141537Y358941D01*
X140933Y360072D01*
X140119Y361064D01*
X139128Y361878D01*
X137996Y362482D01*
X136936Y362804D01*
X136466Y363256D01*
X135591Y364416D01*
X135621Y364842D01*
X135778Y366437D01*
X135621Y368032D01*
X135591Y368458D01*
X136297Y369394D01*
X137127Y370128D01*
X137996Y370392D01*
X139128Y370996D01*
X140119Y371810D01*
X140933Y372802D01*
X141537Y373933D01*
X141910Y375161D01*
X141986Y375937D01*
X135492D01*
Y376937D01*
X141986D01*
X141910Y377714D01*
X141537Y378941D01*
X140933Y380072D01*
X140119Y381064D01*
X139128Y381878D01*
X137996Y382482D01*
X136769Y382855D01*
X137092Y384744D01*
X391915Y384744D01*
X393307Y383352D01*
D02*
G37*
G36*
X55906Y263386D02*
X55906Y263386D01*
X56975Y262083D01*
X57769Y260597D01*
X58258Y258985D01*
X58423Y257308D01*
X58423Y257308D01*
X58382Y257308D01*
X46925D01*
X46925Y257308D01*
X47082Y258901D01*
X47547Y260433D01*
X48301Y261844D01*
X49317Y263081D01*
X49551Y263273D01*
X49561Y263262D01*
X52477Y265969D01*
X53264D01*
X55906Y263386D01*
D02*
G37*
G36*
X50672Y301984D02*
X51199Y301297D01*
X51885Y300770D01*
X52261Y300615D01*
Y298074D01*
X48007Y293819D01*
X47746Y293429D01*
X47654Y292968D01*
X47654Y292968D01*
Y285107D01*
X47653Y285106D01*
X47554Y284606D01*
Y283911D01*
X46772Y283202D01*
X45801D01*
X45585Y283206D01*
X45039Y283249D01*
X42941Y283084D01*
X40894Y282592D01*
X40824Y282563D01*
X37453Y282688D01*
X37432Y282693D01*
X37131Y282722D01*
X37131D01*
X37131Y282722D01*
X36511D01*
X35890Y282722D01*
X35890Y282722D01*
X35890D01*
X34297Y282565D01*
X33995Y282505D01*
X33080Y282323D01*
X31549Y281859D01*
X31549D01*
X31549D01*
X31549Y281859D01*
X31270Y281743D01*
X30402Y281384D01*
X30266Y281311D01*
X29233Y280883D01*
X27659Y279918D01*
X27654Y279915D01*
X27596Y279880D01*
X27496Y279795D01*
X26364Y278828D01*
X26363Y278827D01*
X26195Y278684D01*
X26103Y278598D01*
X26045Y278544D01*
Y278544D01*
X26045Y278544D01*
X26045D01*
X23939Y276221D01*
X22072Y273702D01*
X20460Y271013D01*
X19119Y268178D01*
X18063Y265226D01*
X17301Y262184D01*
X16841Y259083D01*
X16759Y257427D01*
X16738Y257153D01*
D01*
X16738D01*
X16738D01*
X16738Y257153D01*
X16702Y256693D01*
Y256693D01*
X16702Y256693D01*
X16702Y256693D01*
Y256693D01*
X16702Y255199D01*
Y118898D01*
X16852Y116984D01*
X16948Y116585D01*
X16996Y116096D01*
Y116096D01*
X17076Y115692D01*
X17238Y114879D01*
X17238Y114879D01*
X17727Y113267D01*
X17727Y113267D01*
X18202Y112120D01*
X18202Y112120D01*
Y112120D01*
Y112120D01*
X18996Y110634D01*
X18996Y110634D01*
X19273Y110221D01*
X19686Y109602D01*
X19686Y109602D01*
X20755Y108300D01*
X20976Y108078D01*
X20966Y108044D01*
X20833Y106693D01*
Y105512D01*
X20966Y104161D01*
X21360Y102863D01*
X22000Y101666D01*
X22861Y100617D01*
X23910Y99756D01*
X25106Y99116D01*
X26405Y98722D01*
X26436Y98719D01*
X26609Y98460D01*
X27135Y98108D01*
X27756Y97985D01*
X30118D01*
X30739Y98108D01*
X31265Y98460D01*
X31438Y98719D01*
X31469Y98722D01*
X32767Y99116D01*
X33256Y99377D01*
X42146D01*
X43004Y98673D01*
X44201Y98033D01*
X45500Y97639D01*
X46850Y97506D01*
X48031D01*
X49382Y97639D01*
X50681Y98033D01*
X51878Y98673D01*
X52927Y99534D01*
X53788Y100583D01*
X54428Y101780D01*
X54821Y103078D01*
X54852Y103383D01*
X54931Y103436D01*
X55235Y103891D01*
X55240Y103914D01*
X66131D01*
X67986Y103150D01*
X68106Y102545D01*
X68449Y102031D01*
X68962Y101689D01*
X69567Y101568D01*
X69776D01*
Y103150D01*
X70776D01*
Y101568D01*
X70985D01*
X71076Y100716D01*
Y100276D01*
X71180Y99753D01*
X71237Y99669D01*
Y97699D01*
X71237Y97699D01*
X71329Y97238D01*
X71590Y96847D01*
X73168Y95270D01*
X73205Y95244D01*
Y92857D01*
X73190Y92854D01*
X72734Y92549D01*
X72430Y92093D01*
X72323Y91556D01*
X70408D01*
X70301Y92093D01*
X69997Y92549D01*
X69541Y92854D01*
X69003Y92961D01*
X67822D01*
X67285Y92854D01*
X66900Y92597D01*
X59863D01*
X59684Y92716D01*
X59146Y92823D01*
X56784D01*
X56246Y92716D01*
X56068Y92597D01*
X48963D01*
X48784Y92716D01*
X48246Y92823D01*
X45884D01*
X45346Y92716D01*
X45168Y92597D01*
X34863D01*
X34684Y92716D01*
X34146Y92823D01*
X31784D01*
X31246Y92716D01*
X31068Y92597D01*
X21613D01*
X21584Y92616D01*
X21046Y92723D01*
X18684D01*
X18146Y92616D01*
X17691Y92312D01*
X17386Y91856D01*
X17279Y91318D01*
Y90137D01*
X17386Y89599D01*
X17691Y89144D01*
X18036Y88912D01*
X18121Y88259D01*
X18089Y87494D01*
X17992Y86863D01*
X17537Y86559D01*
X17186Y86033D01*
X17062Y85413D01*
Y85322D01*
X22668D01*
Y85413D01*
X22545Y86033D01*
X22193Y86559D01*
X22761Y88514D01*
X23277Y88984D01*
X29434D01*
X29956Y88572D01*
X30637Y86659D01*
X30286Y86133D01*
X30162Y85513D01*
Y85422D01*
X35768D01*
Y85513D01*
X35645Y86133D01*
X35293Y86659D01*
X35974Y88572D01*
X36496Y88984D01*
X43533D01*
X44055Y88571D01*
X44737Y86659D01*
X44386Y86133D01*
X44262Y85513D01*
Y85422D01*
X49868D01*
Y85513D01*
X49744Y86133D01*
X49393Y86659D01*
X50075Y88571D01*
X50597Y88984D01*
X54434D01*
X54955Y88571D01*
X55637Y86659D01*
X55286Y86133D01*
X55162Y85513D01*
Y85422D01*
X60768D01*
Y85513D01*
X60645Y86133D01*
X61454Y87955D01*
X61546Y88058D01*
X61690Y88095D01*
X68088Y81698D01*
X68674Y81306D01*
X69365Y81169D01*
X72733D01*
X74564Y79337D01*
X74298Y78561D01*
X73547Y77571D01*
X72966Y77647D01*
X71989Y77519D01*
X71079Y77142D01*
X70298Y76542D01*
X69699Y75761D01*
X69322Y74851D01*
X69193Y73875D01*
X69322Y72898D01*
X69699Y71989D01*
X70186Y71354D01*
Y63092D01*
X69270Y62368D01*
X67730Y62748D01*
X67090Y63094D01*
X66297Y65430D01*
X65110Y67837D01*
X63619Y70068D01*
X61850Y72086D01*
X59832Y73856D01*
X57601Y75346D01*
X55194Y76534D01*
X52653Y77396D01*
X50020Y77920D01*
X47343Y78095D01*
X44665Y77920D01*
X42033Y77396D01*
X39491Y76534D01*
X37084Y75346D01*
X34853Y73856D01*
X32835Y72086D01*
X31066Y70068D01*
X29575Y67837D01*
X28388Y65430D01*
X27525Y62889D01*
X27002Y60257D01*
X26826Y57579D01*
X26203Y56913D01*
X13196D01*
X9669Y60440D01*
Y277552D01*
X34456Y302339D01*
X50525D01*
X50672Y301984D01*
D02*
G37*
G36*
X131220Y296358D02*
X131064Y294765D01*
X130599Y293234D01*
X129844Y291822D01*
X128829Y290585D01*
X128595Y290393D01*
X128585Y290404D01*
X125669Y287697D01*
X124882D01*
X122240Y290280D01*
X122240Y290280D01*
X121171Y291583D01*
X120377Y293069D01*
X119888Y294681D01*
X119722Y296358D01*
Y296358D01*
X131220D01*
X131220Y296358D01*
D02*
G37*
G36*
X72835Y281890D02*
Y270433D01*
X72835Y270433D01*
X71242Y270590D01*
X69710Y271055D01*
X68299Y271809D01*
X67061Y272825D01*
X66869Y273059D01*
X66881Y273069D01*
X64174Y275984D01*
Y276772D01*
X66757Y279414D01*
X66757Y279414D01*
X68059Y280483D01*
X69546Y281277D01*
X71158Y281766D01*
X72835Y281931D01*
X72835D01*
Y281890D01*
D02*
G37*
G36*
X108286Y282147D02*
X109818Y281682D01*
X111229Y280927D01*
X112466Y279912D01*
X112658Y279678D01*
X112647Y279668D01*
X115354Y276752D01*
Y275965D01*
X112771Y273323D01*
X112771Y273323D01*
X111468Y272254D01*
X109982Y271460D01*
X108370Y270971D01*
X106693Y270805D01*
X106299Y270844D01*
X106299Y270856D01*
X106299Y282265D01*
X106693Y282303D01*
X108286Y282147D01*
D02*
G37*
G36*
X71421Y163030D02*
X72107Y162503D01*
X72907Y162172D01*
X73581Y160127D01*
X60014Y146560D01*
X59753Y146169D01*
X59661Y145708D01*
X59661Y145708D01*
Y125123D01*
X59485D01*
X58947Y125016D01*
X58491Y124712D01*
X58187Y124256D01*
X58080Y123718D01*
Y122537D01*
X58187Y122000D01*
X58491Y121544D01*
X58837Y121313D01*
X58922Y120659D01*
X58889Y119894D01*
X58792Y119263D01*
X58338Y118959D01*
X57986Y118433D01*
X57863Y117813D01*
Y117722D01*
X60666D01*
Y116722D01*
X57863D01*
Y116635D01*
Y116632D01*
X57863Y116631D01*
X56597Y115186D01*
X56328Y115026D01*
X53569D01*
X53545Y115150D01*
X53240Y115606D01*
X52784Y115911D01*
X52247Y116018D01*
Y117932D01*
X52784Y118039D01*
X53240Y118344D01*
X53545Y118799D01*
X53652Y119337D01*
Y120518D01*
X53545Y121056D01*
X53240Y121512D01*
X52784Y121816D01*
X52769Y121819D01*
Y134973D01*
X52851Y135096D01*
X52958Y135634D01*
Y137996D01*
X52851Y138533D01*
X52769Y138656D01*
Y149146D01*
X52851Y149269D01*
X52958Y149807D01*
Y152169D01*
X52851Y152707D01*
X52769Y152830D01*
Y163478D01*
X52802Y163501D01*
X52847Y163568D01*
X71008D01*
X71421Y163030D01*
D02*
G37*
G36*
X34628Y118393D02*
X34471Y116800D01*
X34007Y115269D01*
X33252Y113857D01*
X32237Y112620D01*
X32003Y112428D01*
X31992Y112439D01*
X29077Y109732D01*
X28290D01*
X25648Y112315D01*
X25648Y112315D01*
X24579Y113618D01*
X23785Y115104D01*
X23295Y116717D01*
X23130Y118393D01*
Y118394D01*
X34628D01*
X34628Y118393D01*
D02*
G37*
G36*
X56824Y183556D02*
X57129Y183101D01*
X57585Y182796D01*
X58122Y182689D01*
X59303D01*
X59841Y182796D01*
X60297Y183101D01*
X60352Y183183D01*
X61927Y183451D01*
X62577Y183399D01*
X63414Y182453D01*
Y177623D01*
X63084D01*
X62546Y177516D01*
X62091Y177212D01*
X61786Y176756D01*
X61679Y176218D01*
Y175037D01*
X61786Y174499D01*
X62091Y174044D01*
X62436Y173813D01*
X62521Y173159D01*
X62489Y172394D01*
X62392Y171763D01*
X61937Y171459D01*
X61586Y170933D01*
X61462Y170313D01*
Y170222D01*
X67068D01*
Y170313D01*
X66944Y170933D01*
X66593Y171459D01*
X66139Y171763D01*
X66042Y172394D01*
X66009Y173159D01*
X66094Y173813D01*
X66440Y174044D01*
X66744Y174499D01*
X66851Y175037D01*
Y176218D01*
X66744Y176756D01*
X66440Y177212D01*
X65984Y177516D01*
X65822Y177548D01*
Y179984D01*
X77254D01*
X77536Y179302D01*
X78136Y178521D01*
X78917Y177921D01*
X79827Y177544D01*
X80803Y177416D01*
X81779Y177544D01*
X82689Y177921D01*
X83471Y178521D01*
X84070Y179302D01*
X84447Y180212D01*
X84490Y180541D01*
X85093Y180983D01*
X87159Y180212D01*
X87536Y179302D01*
X88136Y178521D01*
X88917Y177921D01*
X89026Y177876D01*
X89275Y175820D01*
X79013Y165559D01*
X76968Y166233D01*
X76637Y167033D01*
X76110Y167719D01*
X75423Y168246D01*
X74624Y168578D01*
X73765Y168691D01*
X72907Y168578D01*
X72107Y168246D01*
X71421Y167719D01*
X71008Y167181D01*
X68424D01*
X68030Y167535D01*
X67068Y169132D01*
Y169132D01*
X67068Y169150D01*
Y169222D01*
X61462D01*
Y169150D01*
X61462Y169132D01*
Y169132D01*
X60500Y167535D01*
X60107Y167181D01*
X53149D01*
X53107Y167394D01*
X52802Y167850D01*
X52346Y168154D01*
X52287Y168166D01*
Y181693D01*
X54664Y184071D01*
X56722D01*
X56824Y183556D01*
D02*
G37*
G36*
X45557Y134012D02*
X45647D01*
X46268Y134135D01*
X46794Y134487D01*
X48737Y133863D01*
X49156Y133374D01*
Y121689D01*
X48891Y121512D01*
X48587Y121056D01*
X48480Y120518D01*
Y119337D01*
X48587Y118799D01*
X48891Y118344D01*
X49347Y118039D01*
X49885Y117932D01*
Y116018D01*
X49347Y115911D01*
X48891Y115606D01*
X48587Y115150D01*
X48480Y114613D01*
Y114120D01*
X48031Y113714D01*
X46850D01*
X45500Y113581D01*
X44201Y113187D01*
X43528Y112828D01*
X41921D01*
X41921Y112828D01*
X40478Y114796D01*
X40528Y114963D01*
X40545Y115047D01*
X40574Y115117D01*
X41022Y116984D01*
X41173Y118898D01*
Y134426D01*
X42115Y134734D01*
X43141Y134754D01*
X43320Y134487D01*
X43846Y134135D01*
X44466Y134012D01*
X44557D01*
Y136815D01*
X45557D01*
Y134012D01*
D02*
G37*
G36*
X325157Y254429D02*
X324379Y253133D01*
X317185D01*
X317185Y253134D01*
X316724Y253042D01*
X316334Y252781D01*
X286845Y223292D01*
X286584Y222902D01*
X286493Y222441D01*
X286493Y222441D01*
Y158767D01*
X212042Y84316D01*
X211781Y83925D01*
X211689Y83465D01*
X211689Y83465D01*
Y71070D01*
X210879Y70451D01*
X209721Y69977D01*
X209095Y70236D01*
X208551Y70307D01*
Y66339D01*
X207551D01*
Y70307D01*
X207007Y70236D01*
X206034Y69833D01*
X205437Y69374D01*
X204484Y69596D01*
X203468Y70170D01*
Y80210D01*
X282249Y158991D01*
X282249Y158991D01*
X282510Y159382D01*
X282602Y159843D01*
X282602Y159843D01*
Y221942D01*
X316385Y255725D01*
X324379D01*
X325157Y254429D01*
D02*
G37*
G36*
X314680Y261078D02*
X314680Y261078D01*
X315071Y260817D01*
X315532Y260725D01*
X315532Y260725D01*
X324379D01*
X325157Y259429D01*
X324379Y258133D01*
X315886D01*
X315886Y258134D01*
X315425Y258042D01*
X315034Y257781D01*
X315034Y257781D01*
X280546Y223292D01*
X280285Y222902D01*
X280193Y222441D01*
X280193Y222441D01*
Y160341D01*
X201412Y81560D01*
X199715Y82563D01*
X199334Y82870D01*
Y87198D01*
X219159Y107023D01*
X219159Y107023D01*
X219420Y107413D01*
X219511Y107874D01*
X219511Y107874D01*
Y139404D01*
X219859Y139548D01*
X220640Y140147D01*
X221239Y140929D01*
X221616Y141839D01*
X221745Y142815D01*
X221616Y143791D01*
X221239Y144701D01*
X220640Y145483D01*
X219859Y146082D01*
X218949Y146459D01*
X217972Y146587D01*
X216996Y146459D01*
X216086Y146082D01*
X215305Y145483D01*
X214705Y144701D01*
X214329Y143791D01*
X214200Y142815D01*
X214329Y141839D01*
X214705Y140929D01*
X215305Y140147D01*
X216086Y139548D01*
X216996Y139171D01*
X217103Y139157D01*
Y108373D01*
X197278Y88548D01*
X197017Y88158D01*
X196926Y87697D01*
X196926Y87697D01*
Y53048D01*
X194957Y51918D01*
X194610Y52120D01*
Y93104D01*
X208785Y107278D01*
X208785Y107279D01*
X209046Y107669D01*
X209137Y108130D01*
Y139233D01*
X209898Y139548D01*
X210679Y140147D01*
X211279Y140929D01*
X211656Y141839D01*
X211784Y142815D01*
X211656Y143791D01*
X211279Y144701D01*
X210679Y145483D01*
X209898Y146082D01*
X208988Y146459D01*
X208012Y146587D01*
X207035Y146459D01*
X206126Y146082D01*
X205344Y145483D01*
X204745Y144701D01*
X204368Y143791D01*
X204240Y142815D01*
X204368Y141839D01*
X204745Y140929D01*
X205344Y140147D01*
X206126Y139548D01*
X206729Y139298D01*
Y108629D01*
X193698Y95597D01*
X192162Y96217D01*
X191796Y96480D01*
X191682Y97347D01*
X191300Y98268D01*
X190693Y99059D01*
X189902Y99667D01*
X188981Y100048D01*
X187992Y100178D01*
X187003Y100048D01*
X186082Y99667D01*
X185291Y99059D01*
X184684Y98268D01*
X184302Y97347D01*
X184172Y96358D01*
X184302Y95370D01*
X184684Y94448D01*
X185291Y93657D01*
X186082Y93050D01*
X187003Y92668D01*
X187992Y92538D01*
X188981Y92668D01*
X189902Y93050D01*
X190233Y93304D01*
X191771Y92779D01*
X192201Y92428D01*
Y90289D01*
X191771Y89938D01*
X190233Y89413D01*
X189902Y89667D01*
X188981Y90048D01*
X187992Y90178D01*
X187003Y90048D01*
X186082Y89667D01*
X185291Y89060D01*
X184684Y88268D01*
X184302Y87347D01*
X184172Y86358D01*
X184302Y85370D01*
X184684Y84448D01*
X185291Y83657D01*
X186082Y83050D01*
X187003Y82668D01*
X187992Y82538D01*
X188981Y82668D01*
X189902Y83050D01*
X190233Y83304D01*
X191771Y82779D01*
X192201Y82428D01*
Y80289D01*
X191771Y79938D01*
X190233Y79413D01*
X189902Y79667D01*
X188981Y80048D01*
X187992Y80178D01*
X187003Y80048D01*
X186082Y79667D01*
X185291Y79059D01*
X184684Y78268D01*
X184302Y77347D01*
X184172Y76358D01*
X184302Y75370D01*
X184684Y74448D01*
X185291Y73657D01*
X186082Y73050D01*
X187003Y72668D01*
X187992Y72538D01*
X188981Y72668D01*
X189902Y73050D01*
X190233Y73304D01*
X191771Y72779D01*
X192201Y72428D01*
Y50304D01*
X191748Y50116D01*
X191061Y49589D01*
X190534Y48902D01*
X190203Y48102D01*
X190090Y47244D01*
X190203Y46386D01*
X190534Y45586D01*
X191061Y44900D01*
X191748Y44373D01*
X192547Y44041D01*
X193406Y43928D01*
X194264Y44041D01*
X195063Y44373D01*
X196148Y42780D01*
X195785Y42502D01*
X195258Y41815D01*
X194927Y41016D01*
X194814Y40157D01*
X194927Y39299D01*
X195258Y38500D01*
X195785Y37813D01*
X196472Y37286D01*
X197272Y36955D01*
X198130Y36842D01*
X198988Y36955D01*
X199788Y37286D01*
X200475Y37813D01*
X201002Y38500D01*
X201333Y39299D01*
X201446Y40157D01*
X201333Y41016D01*
X201002Y41815D01*
X200475Y42502D01*
X199788Y43029D01*
X199334Y43217D01*
Y52563D01*
X199715Y52870D01*
X201412Y53873D01*
X205743Y49542D01*
X205743Y49542D01*
X206134Y49281D01*
X206595Y49189D01*
X222106D01*
X222106Y49189D01*
X222567Y49281D01*
X222958Y49542D01*
X226357Y52941D01*
X227063Y52649D01*
X228051Y52519D01*
X229040Y52649D01*
X229961Y53030D01*
X230752Y53637D01*
X231360Y54429D01*
X231741Y55350D01*
X231871Y56339D01*
X231741Y57327D01*
X231360Y58249D01*
X230752Y59040D01*
X229961Y59647D01*
X229040Y60029D01*
X228051Y60159D01*
X227063Y60029D01*
X226141Y59647D01*
X225350Y59040D01*
X224743Y58249D01*
X224361Y57327D01*
X224231Y56339D01*
X224361Y55350D01*
X224654Y54644D01*
X222951Y52941D01*
X222738Y52991D01*
X222440Y53302D01*
X221701Y55254D01*
X221741Y55350D01*
X221871Y56339D01*
X221741Y57327D01*
X221359Y58249D01*
X222333Y60213D01*
X223130D01*
X223130Y60213D01*
X223591Y60305D01*
X223981Y60566D01*
X226357Y62941D01*
X227063Y62649D01*
X228051Y62519D01*
X229040Y62649D01*
X229800Y62963D01*
X230456Y62731D01*
X231768Y61936D01*
Y61418D01*
X231768Y61418D01*
X231860Y60957D01*
X232121Y60566D01*
X234654Y58033D01*
X234361Y57327D01*
X234231Y56339D01*
X234361Y55350D01*
X234743Y54429D01*
X235350Y53637D01*
X236141Y53030D01*
X237063Y52649D01*
X238051Y52519D01*
X239040Y52649D01*
X239961Y53030D01*
X240752Y53637D01*
X241359Y54429D01*
X241741Y55350D01*
X241871Y56339D01*
X241741Y57327D01*
X241359Y58249D01*
X240752Y59040D01*
X239961Y59647D01*
X239040Y60029D01*
X238051Y60159D01*
X237402Y60073D01*
X236411Y60798D01*
X235908Y61392D01*
X237063Y62649D01*
X238051Y62519D01*
X239040Y62649D01*
X239961Y63030D01*
X240752Y63638D01*
X241359Y64429D01*
X241741Y65350D01*
X241871Y66339D01*
X241741Y67327D01*
X241359Y68249D01*
X240752Y69040D01*
X239961Y69647D01*
X239040Y70029D01*
X238051Y70159D01*
X237063Y70029D01*
X236141Y69647D01*
X234177Y70621D01*
Y90052D01*
X299572Y155448D01*
X299833Y155838D01*
X299879Y156067D01*
X301847Y155873D01*
Y70681D01*
X299961Y69647D01*
X299040Y70029D01*
X298051Y70159D01*
X297062Y70029D01*
X296141Y69647D01*
X295350Y69040D01*
X294743Y68249D01*
X294361Y67327D01*
X294231Y66339D01*
X294361Y65350D01*
X294743Y64429D01*
X295350Y63638D01*
X296141Y63030D01*
X297062Y62649D01*
X298051Y62519D01*
X299040Y62649D01*
X299220Y62723D01*
X301065Y61562D01*
Y61115D01*
X299220Y59954D01*
X299040Y60029D01*
X298051Y60159D01*
X297062Y60029D01*
X296141Y59647D01*
X295350Y59040D01*
X294743Y58249D01*
X294361Y57327D01*
X294231Y56339D01*
X294361Y55350D01*
X294743Y54429D01*
X295350Y53637D01*
X296141Y53030D01*
X297062Y52649D01*
X298051Y52519D01*
X299040Y52649D01*
X299961Y53030D01*
X301847Y51996D01*
Y50105D01*
X280505Y28763D01*
X17034D01*
X15112Y30686D01*
X15927Y32654D01*
X120768D01*
X120768Y32654D01*
X121229Y32746D01*
X121619Y33007D01*
X181068Y92456D01*
X181068Y92456D01*
X181329Y92846D01*
X181421Y93307D01*
X181421Y93307D01*
Y104967D01*
X182394Y105971D01*
X182762Y105911D01*
X184417Y105092D01*
X184684Y104448D01*
X185291Y103657D01*
X186082Y103050D01*
X187003Y102668D01*
X187992Y102538D01*
X188981Y102668D01*
X189902Y103050D01*
X190693Y103657D01*
X191300Y104448D01*
X191682Y105370D01*
X191812Y106358D01*
X191682Y107347D01*
X191300Y108268D01*
X192289Y110213D01*
X193209D01*
X193209Y110213D01*
X193670Y110305D01*
X194060Y110566D01*
X200458Y116963D01*
X200719Y117354D01*
X200811Y117815D01*
X200811Y117815D01*
Y239363D01*
X233471Y272024D01*
X303733D01*
X314680Y261078D01*
D02*
G37*
G36*
X165073Y117655D02*
X164916Y116062D01*
X164451Y114530D01*
X163697Y113119D01*
X162681Y111881D01*
X162448Y111689D01*
X162437Y111701D01*
X159522Y108994D01*
X158734D01*
X156093Y111577D01*
X156093Y111577D01*
X155024Y112880D01*
X154229Y114366D01*
X153740Y115978D01*
X153575Y117655D01*
Y117655D01*
X165073D01*
X165073Y117655D01*
D02*
G37*
G36*
X135315Y268944D02*
X135327Y268926D01*
X135519Y268692D01*
X135519Y268692D01*
X135519Y268692D01*
X135870Y268341D01*
X136397Y267815D01*
X136397Y267815D01*
X136397Y267815D01*
X137634Y266799D01*
X137634Y266799D01*
X138250Y266388D01*
X138496Y266224D01*
X138773Y265987D01*
X140410Y264984D01*
X142184Y264249D01*
X144051Y263801D01*
X145785Y263664D01*
X145785Y263662D01*
X145836Y263651D01*
X146106Y263364D01*
X147109Y261811D01*
X147109Y259843D01*
Y117655D01*
X147260Y115741D01*
X147708Y113874D01*
X147917Y113369D01*
X148172Y112528D01*
X148172Y112528D01*
X148647Y111382D01*
X148647Y111382D01*
Y111382D01*
Y111382D01*
X149441Y109896D01*
X149441Y109896D01*
X149717Y109483D01*
X150131Y108864D01*
X150131Y108864D01*
X151199Y107561D01*
X151422Y107339D01*
X151482Y107265D01*
X151318Y105341D01*
X151013Y104885D01*
X150911Y104371D01*
X139624D01*
X139520Y104440D01*
X139060Y104532D01*
X127093D01*
X126840Y104912D01*
X126384Y105216D01*
X125846Y105323D01*
X123484D01*
X122946Y105216D01*
X122491Y104912D01*
X122237Y104532D01*
X111136D01*
X110857Y104950D01*
X110401Y105254D01*
X109864Y105361D01*
X108311D01*
X108159Y105463D01*
X107698Y105554D01*
X107698Y105554D01*
X97879D01*
X97776Y106069D01*
X97472Y106525D01*
X97016Y106829D01*
X96478Y106936D01*
X95297D01*
X94760Y106829D01*
X94716Y106800D01*
X92733Y106892D01*
X92327Y106986D01*
X92027Y107500D01*
X92417Y108323D01*
X93517Y109423D01*
X93778Y109814D01*
X93854Y110198D01*
X97784D01*
Y114922D01*
X87547D01*
X87547Y114922D01*
X85793Y115439D01*
X85549Y116028D01*
X85022Y116715D01*
X84335Y117242D01*
X83535Y117573D01*
X83243Y117612D01*
X83201Y117644D01*
X82530Y117921D01*
X81811Y118016D01*
X80249D01*
X80244Y118055D01*
X80142Y118301D01*
Y119783D01*
X80047Y120503D01*
X79770Y121173D01*
X79328Y121749D01*
X78864Y122213D01*
X78874Y128908D01*
X80692Y129448D01*
X80833Y129426D01*
X81137Y128972D01*
X81663Y128620D01*
X82284Y128497D01*
X82374D01*
Y131300D01*
Y134102D01*
X82284D01*
X81663Y133979D01*
X81137Y133627D01*
X80833Y133173D01*
X80695Y133152D01*
X78881Y133710D01*
X78891Y140469D01*
X82867Y144445D01*
X84685Y143692D01*
Y138913D01*
X84780Y138194D01*
X85058Y137523D01*
X85500Y136947D01*
X89933Y132514D01*
Y125552D01*
X87547D01*
Y120828D01*
X97784D01*
Y125552D01*
X95492D01*
Y129079D01*
X95558Y129142D01*
X97343Y130003D01*
X97461Y129995D01*
X97988Y129891D01*
X98078D01*
Y132693D01*
Y135496D01*
X97988D01*
X97367Y135373D01*
X97173Y135243D01*
X96203Y135154D01*
X94823Y135442D01*
X94678Y135631D01*
X93377Y136932D01*
X93396Y137094D01*
X94262Y138831D01*
X94784D01*
X95404Y138955D01*
X95930Y139306D01*
X96282Y139832D01*
X96405Y140453D01*
Y141134D01*
X94193D01*
Y141634D01*
X93693D01*
Y144437D01*
X93602D01*
X92982Y144314D01*
X92456Y143962D01*
X90734Y144566D01*
X90561Y146638D01*
X90701Y146793D01*
X92653Y147377D01*
X93179Y147025D01*
X93799Y146902D01*
X93890D01*
Y149705D01*
X94390D01*
Y150205D01*
X96602D01*
Y150886D01*
X96479Y151506D01*
X96127Y152032D01*
X95601Y152384D01*
X94981Y152507D01*
X94436D01*
X93435Y154319D01*
X93903Y155104D01*
X94248Y155524D01*
X94923Y155803D01*
X95610Y156330D01*
X96137Y157017D01*
X96468Y157817D01*
X96581Y158675D01*
X96468Y159533D01*
X96137Y160333D01*
X95610Y161020D01*
X94923Y161546D01*
X94124Y161878D01*
X93798Y161920D01*
X93111Y163268D01*
X93030Y163936D01*
X101766Y172672D01*
X102027Y173063D01*
X102118Y173524D01*
X102118Y173524D01*
Y177685D01*
X102689Y177921D01*
X103471Y178521D01*
X104070Y179302D01*
X104447Y180212D01*
X104576Y181188D01*
X104447Y182165D01*
X104070Y183074D01*
X103471Y183856D01*
X102689Y184455D01*
X101779Y184832D01*
X100803Y184961D01*
X99827Y184832D01*
X98917Y184455D01*
X98136Y183856D01*
X97536Y183074D01*
X97159Y182165D01*
X97031Y181188D01*
X97159Y180212D01*
X97536Y179302D01*
X98136Y178521D01*
X98917Y177921D01*
X99710Y177593D01*
Y174022D01*
X70767Y145079D01*
X70506Y144689D01*
X70414Y144228D01*
X70414Y144228D01*
Y134336D01*
X69502Y133582D01*
X67450Y133502D01*
X66924Y133854D01*
X66303Y133977D01*
X66213D01*
Y131175D01*
X65213D01*
Y133977D01*
X65122D01*
X64502Y133854D01*
X64038Y133544D01*
X63657Y133618D01*
X62070Y134194D01*
Y145209D01*
X91655Y174794D01*
X91655Y174794D01*
X91916Y175185D01*
X92007Y175646D01*
X92007Y175646D01*
Y177639D01*
X92689Y177921D01*
X93471Y178521D01*
X94070Y179302D01*
X94447Y180212D01*
X94576Y181188D01*
X94447Y182165D01*
X94070Y183074D01*
X93471Y183856D01*
X92689Y184455D01*
X91780Y184832D01*
X90803Y184961D01*
X89827Y184832D01*
X89447Y184675D01*
X87668Y185778D01*
X87672Y186594D01*
X89452Y187700D01*
X89827Y187544D01*
X90803Y187416D01*
X91780Y187544D01*
X92689Y187921D01*
X93471Y188521D01*
X94070Y189302D01*
X94447Y190212D01*
X94576Y191188D01*
X94447Y192165D01*
X94070Y193075D01*
X93683Y193579D01*
X93951Y194645D01*
X94499Y195548D01*
X97107D01*
X97656Y194645D01*
X97923Y193579D01*
X97536Y193075D01*
X97159Y192165D01*
X97031Y191188D01*
X97159Y190212D01*
X97536Y189302D01*
X98136Y188521D01*
X98917Y187921D01*
X99827Y187544D01*
X100803Y187416D01*
X101779Y187544D01*
X102689Y187921D01*
X104603Y186908D01*
Y186184D01*
X104603Y186184D01*
X104695Y185723D01*
X104956Y185333D01*
X107442Y182847D01*
X107159Y182165D01*
X107031Y181188D01*
X107159Y180212D01*
X107536Y179302D01*
X108136Y178521D01*
X108917Y177921D01*
X109827Y177544D01*
X110803Y177416D01*
X111779Y177544D01*
X112689Y177921D01*
X113471Y178521D01*
X114070Y179302D01*
X114447Y180212D01*
X116414Y180071D01*
Y164895D01*
X116231Y164773D01*
X115927Y164318D01*
X115820Y163780D01*
Y161418D01*
X115927Y160880D01*
X116231Y160424D01*
X116414Y160302D01*
Y137015D01*
X113420Y134021D01*
X113159Y133630D01*
X113067Y133169D01*
X113067Y133169D01*
Y124123D01*
X112614Y123935D01*
X111927Y123408D01*
X111400Y122721D01*
X111069Y121921D01*
X110956Y121063D01*
X111069Y120205D01*
X111400Y119405D01*
X111927Y118719D01*
X112614Y118192D01*
X113414Y117860D01*
X114272Y117747D01*
X115130Y117860D01*
X115930Y118192D01*
X116616Y118719D01*
X116824Y118989D01*
X117673Y119169D01*
X118252D01*
X119102Y118989D01*
X119309Y118719D01*
X119996Y118192D01*
X120795Y117860D01*
X121654Y117747D01*
X122512Y117860D01*
X123311Y118192D01*
X123998Y118719D01*
X124525Y119405D01*
X124856Y120205D01*
X124969Y121063D01*
X124856Y121921D01*
X124525Y122721D01*
X123998Y123408D01*
X123652Y125453D01*
X123749Y125884D01*
X130970Y133105D01*
X131231Y133496D01*
X131322Y133957D01*
X131322Y133957D01*
Y173950D01*
X131702Y174203D01*
X132007Y174659D01*
X132114Y175197D01*
Y177559D01*
X132007Y178096D01*
X131702Y178552D01*
X131322Y178806D01*
Y203051D01*
X131322Y203051D01*
X131231Y203512D01*
X130970Y203903D01*
X130970Y203903D01*
X130819Y204053D01*
X129633Y205240D01*
X129405Y205392D01*
X129405D01*
X129729Y207226D01*
X129737Y207257D01*
X129967Y207307D01*
X130217Y207257D01*
X131398D01*
X131935Y207364D01*
X132391Y207668D01*
X132622Y208014D01*
X133276Y208099D01*
X134040Y208066D01*
X134672Y207969D01*
X134975Y207515D01*
X135502Y207164D01*
X136122Y207040D01*
X136213D01*
Y209843D01*
Y212646D01*
X136122D01*
X135502Y212522D01*
X134975Y212171D01*
X134672Y211717D01*
X134040Y211619D01*
X133276Y211587D01*
X132622Y211672D01*
X132391Y212017D01*
X131935Y212322D01*
X131398Y212429D01*
X130217D01*
X129971Y212380D01*
X128330Y212638D01*
X127619Y213133D01*
X127509Y213297D01*
X126918Y213692D01*
X126221Y213830D01*
X125106D01*
Y212008D01*
X124606D01*
Y211508D01*
X121269D01*
X121309Y211311D01*
X120959Y210358D01*
X120959Y210358D01*
X120959D01*
X120239Y209637D01*
X119818Y209217D01*
X117852Y209832D01*
X117389Y211393D01*
X117511Y212008D01*
X117389Y212622D01*
X117041Y213143D01*
X116520Y213491D01*
X115906Y213614D01*
X112677D01*
X112063Y213491D01*
X111731Y213270D01*
X93923D01*
X93718Y213764D01*
X93191Y214451D01*
X92504Y214978D01*
X91705Y215309D01*
X90847Y215422D01*
X89988Y215309D01*
X89189Y214978D01*
X88502Y214451D01*
X87975Y213764D01*
X87644Y212965D01*
X87531Y212106D01*
X87644Y211248D01*
X87975Y210449D01*
X88502Y209762D01*
X89189Y209235D01*
X89988Y208904D01*
X90847Y208791D01*
X91705Y208904D01*
X92504Y209235D01*
X93191Y209762D01*
X93718Y210449D01*
X93889Y210861D01*
X97638D01*
X98302Y209085D01*
X98328Y208893D01*
X97832Y208246D01*
X97500Y207446D01*
X97387Y206588D01*
X97500Y205730D01*
X97832Y204930D01*
X98359Y204244D01*
X98600Y204059D01*
X98089Y202090D01*
X80512D01*
X80051Y201998D01*
X79660Y201737D01*
X79660Y201737D01*
X74302Y196379D01*
X64765D01*
X64305Y196287D01*
X63914Y196026D01*
X57861Y189974D01*
X57600Y189583D01*
X57508Y189122D01*
X57508Y189122D01*
Y187703D01*
X57129Y187450D01*
X56824Y186994D01*
X56722Y186479D01*
X54166D01*
X54166Y186479D01*
X53705Y186388D01*
X53314Y186127D01*
X53314Y186127D01*
X50231Y183044D01*
X49970Y182653D01*
X49878Y182192D01*
X49878Y182192D01*
Y168899D01*
X49073Y168223D01*
X47050Y168003D01*
X46524Y168354D01*
X45903Y168478D01*
X45813D01*
Y165675D01*
Y162872D01*
X45903D01*
X46524Y162996D01*
X47050Y163347D01*
X47188Y163553D01*
X48629Y163420D01*
X49156Y163226D01*
Y154429D01*
X48737Y153941D01*
X46794Y153316D01*
X46268Y153667D01*
X45647Y153791D01*
X45557D01*
Y150988D01*
X44557D01*
Y153791D01*
X44466D01*
X43846Y153667D01*
X43319Y153316D01*
X43141Y153049D01*
X42114Y153069D01*
X41173Y153376D01*
Y164094D01*
X43141Y164288D01*
X43224Y163873D01*
X43575Y163347D01*
X44102Y162996D01*
X44722Y162872D01*
X44813D01*
Y165675D01*
Y168478D01*
X44722D01*
X44102Y168354D01*
X43575Y168003D01*
X43224Y167477D01*
X43141Y167062D01*
X41173Y167256D01*
Y197826D01*
X42756Y199599D01*
X44033Y199724D01*
X45260Y200097D01*
X46391Y200701D01*
X47383Y201515D01*
X48197Y202507D01*
X48801Y203638D01*
X49065Y204508D01*
X49799Y205337D01*
X50735Y206043D01*
X51161Y206013D01*
X52756Y205856D01*
X54351Y206013D01*
X54777Y206043D01*
X55713Y205337D01*
X56447Y204508D01*
X56711Y203638D01*
X57315Y202507D01*
X58129Y201515D01*
X59121Y200701D01*
X60252Y200097D01*
X61480Y199724D01*
X62256Y199648D01*
Y206142D01*
X62756D01*
Y206642D01*
X69250D01*
X69174Y207418D01*
X68801Y208646D01*
X68197Y209777D01*
X67383Y210769D01*
X66391Y211582D01*
X65260Y212187D01*
X64390Y212451D01*
X63561Y213185D01*
X62855Y214121D01*
X62885Y214547D01*
X63042Y216142D01*
X62885Y217737D01*
X62855Y218163D01*
X63712Y219299D01*
X64215Y219780D01*
X65260Y220097D01*
X66391Y220701D01*
X67383Y221515D01*
X68197Y222507D01*
X68801Y223638D01*
X69174Y224865D01*
X69250Y225642D01*
X62756D01*
Y226642D01*
X69250D01*
X69174Y227418D01*
X68801Y228646D01*
X68197Y229777D01*
X67383Y230769D01*
X66391Y231582D01*
X65260Y232187D01*
X64033Y232559D01*
X62756Y232685D01*
X62577Y232847D01*
X62569Y234841D01*
X62703Y235001D01*
X63695Y236645D01*
X64418Y238423D01*
X64854Y240293D01*
X64991Y242209D01*
X64889Y257390D01*
X64726Y259303D01*
X64265Y261167D01*
X64073Y261622D01*
X63826Y262435D01*
X63826Y262435D01*
X63548Y263106D01*
X63351Y263581D01*
X63351Y263581D01*
X62557Y265067D01*
X62557Y265067D01*
X62215Y265580D01*
X61868Y266099D01*
X61697Y266522D01*
X62343Y267197D01*
X63353Y267680D01*
X64283Y266916D01*
X64283Y266916D01*
X64899Y266505D01*
X65315Y266227D01*
X65315Y266227D01*
X65315Y266227D01*
X66726Y265472D01*
X67595Y265113D01*
X67873Y264998D01*
X67873Y264998D01*
X67873D01*
X67873D01*
X69405Y264533D01*
X70137Y264387D01*
X70622Y264291D01*
X72214Y264134D01*
X72301D01*
X72386Y264120D01*
X72611Y264126D01*
X72835Y264104D01*
X73144Y264134D01*
X73455D01*
X73506Y264144D01*
X106398D01*
X108311Y264295D01*
X110178Y264743D01*
X111636Y265347D01*
X111820Y265403D01*
X111820Y265403D01*
X112966Y265877D01*
X112966Y265877D01*
X112966D01*
X112966D01*
X114452Y266672D01*
X114452Y266672D01*
X114865Y266948D01*
X115484Y267361D01*
X115484Y267361D01*
X116786Y268430D01*
X117009Y268652D01*
X117251Y268852D01*
X117272Y268877D01*
X117297Y268898D01*
X117938Y269554D01*
X119331D01*
X120113Y268845D01*
Y268150D01*
X120212Y267650D01*
X120213Y267649D01*
Y266306D01*
X106686Y252779D01*
X83670D01*
X83482Y253233D01*
X82955Y253920D01*
X82268Y254446D01*
X81468Y254778D01*
X80610Y254891D01*
X79752Y254778D01*
X78952Y254446D01*
X78266Y253920D01*
X77739Y253233D01*
X77407Y252433D01*
X77294Y251575D01*
X77407Y250717D01*
X77739Y249917D01*
X78266Y249230D01*
X78952Y248703D01*
X79382Y248526D01*
X79520Y247139D01*
X79396Y246478D01*
X79149Y246376D01*
X78462Y245849D01*
X77936Y245162D01*
X77604Y244362D01*
X77491Y243504D01*
X77604Y242646D01*
X77936Y241846D01*
X78140Y241580D01*
X76656Y240337D01*
X75969Y240864D01*
X75169Y241195D01*
X74311Y241308D01*
X73453Y241195D01*
X72653Y240864D01*
X71966Y240337D01*
X71439Y239650D01*
X71108Y238850D01*
X70995Y237992D01*
X71108Y237134D01*
X71439Y236334D01*
X71966Y235648D01*
X72653Y235121D01*
X73453Y234789D01*
X74311Y234676D01*
X75169Y234789D01*
X75969Y235121D01*
X76656Y235648D01*
X77183Y236334D01*
X77371Y236788D01*
X106791D01*
X106791Y236788D01*
X107252Y236880D01*
X107643Y237141D01*
X130143Y259641D01*
X130404Y260031D01*
X130496Y260492D01*
X130496Y260492D01*
Y267649D01*
X130497Y267650D01*
X130596Y268150D01*
Y268845D01*
X131378Y269554D01*
X133583D01*
X134589Y269653D01*
X134657D01*
X135315Y268944D01*
D02*
G37*
G36*
X114216Y382855D02*
X112988Y382482D01*
X111857Y381878D01*
X110865Y381064D01*
X110052Y380072D01*
X109447Y378941D01*
X109075Y377714D01*
X108998Y376937D01*
X115492D01*
Y375937D01*
X108998D01*
X109075Y375161D01*
X109447Y373933D01*
X110052Y372802D01*
X110865Y371810D01*
X111857Y370996D01*
X112988Y370392D01*
X113858Y370128D01*
X114687Y369394D01*
X115393Y368458D01*
X115364Y368032D01*
X115207Y366437D01*
X115364Y364842D01*
X115393Y364416D01*
X114518Y363256D01*
X114049Y362804D01*
X112988Y362482D01*
X111857Y361878D01*
X110865Y361064D01*
X110052Y360072D01*
X109447Y358941D01*
X109075Y357714D01*
X108998Y356937D01*
X115492D01*
Y355937D01*
X108998D01*
X109075Y355160D01*
X109447Y353933D01*
X110052Y352802D01*
X110865Y351810D01*
X111857Y350996D01*
X112988Y350392D01*
X113746Y350162D01*
X113788Y350130D01*
X114467Y348902D01*
X114670Y347997D01*
X114283Y347362D01*
X113552Y345587D01*
X113108Y343719D01*
X112961Y341804D01*
X113060Y296135D01*
X113215Y294221D01*
X113667Y292355D01*
X114405Y290583D01*
X115336Y289072D01*
X115589Y288599D01*
X115589Y288599D01*
X115865Y288186D01*
X116278Y287567D01*
X116278Y287567D01*
X116453Y287354D01*
X115245Y285821D01*
X115244Y285820D01*
X114731Y286163D01*
X114213Y286510D01*
X114213Y286510D01*
X112801Y287264D01*
X112801Y287264D01*
X111852Y287657D01*
X111655Y287739D01*
X111655Y287739D01*
X110123Y288204D01*
X110123Y288204D01*
X108906Y288446D01*
X107314Y288603D01*
X107314Y288603D01*
X107314D01*
X107314Y288603D01*
X106900D01*
X106516Y288603D01*
X106398Y288612D01*
X73229D01*
X71315Y288461D01*
X69448Y288013D01*
X68085Y287448D01*
X67708Y287334D01*
X67708Y287334D01*
X66562Y286859D01*
X66562Y286859D01*
X66562D01*
X66562D01*
X65076Y286065D01*
X65076Y286065D01*
X64662Y285789D01*
X64044Y285376D01*
X64044Y285375D01*
X62741Y284307D01*
X62519Y284084D01*
X62276Y283885D01*
X62256Y283860D01*
X62231Y283839D01*
X61557Y283150D01*
X61024Y283202D01*
X58819D01*
X58037Y283911D01*
Y284606D01*
X57938Y285106D01*
X57937Y285107D01*
Y290898D01*
X69279Y302241D01*
X76074D01*
X76262Y301787D01*
X76789Y301100D01*
X77476Y300573D01*
X78276Y300242D01*
X79134Y300129D01*
X79992Y300242D01*
X80792Y300573D01*
X81479Y301100D01*
X82005Y301787D01*
X82337Y302587D01*
X82450Y303445D01*
X82337Y304303D01*
X82005Y305103D01*
X81479Y305790D01*
X80792Y306316D01*
X79992Y306648D01*
X79134Y306761D01*
X78276Y306648D01*
X77476Y306316D01*
X76789Y305790D01*
X76262Y305103D01*
X76074Y304649D01*
X69985D01*
Y330897D01*
X70684Y331469D01*
X71953Y332010D01*
X72512Y331779D01*
X73043Y331709D01*
Y335630D01*
Y339551D01*
X72512Y339481D01*
X71456Y340492D01*
X72053Y341220D01*
X72707Y341753D01*
X73043Y341709D01*
Y345630D01*
Y349551D01*
X72512Y349481D01*
X71550Y349083D01*
X70724Y348449D01*
X70091Y347623D01*
X69755Y346814D01*
X69590Y346627D01*
X67613Y345947D01*
X67238Y346222D01*
X67187Y346606D01*
X66810Y347516D01*
X66211Y348298D01*
X65430Y348897D01*
X64520Y349274D01*
X63543Y349402D01*
X62567Y349274D01*
X61657Y348897D01*
X60876Y348298D01*
X60276Y347516D01*
X59899Y346606D01*
X59771Y345630D01*
X59899Y344654D01*
X60276Y343744D01*
X60876Y342963D01*
X61657Y342363D01*
X62567Y341986D01*
X63543Y341858D01*
X64520Y341986D01*
X65430Y342363D01*
X65624Y342512D01*
X67233Y341380D01*
X67265Y341165D01*
X67084Y339841D01*
X66900Y339737D01*
X65229Y338980D01*
X64520Y339274D01*
X63543Y339402D01*
X62567Y339274D01*
X61657Y338897D01*
X60876Y338298D01*
X60276Y337516D01*
X59899Y336606D01*
X59771Y335630D01*
X59899Y334654D01*
X60276Y333744D01*
X60876Y332962D01*
X61657Y332363D01*
X62261Y332113D01*
Y320592D01*
X62215Y320547D01*
X60293Y319746D01*
X60221Y319801D01*
X59421Y320132D01*
X58563Y320245D01*
X57705Y320132D01*
X56905Y319801D01*
X56638Y319596D01*
X55219Y320052D01*
X54670Y320480D01*
Y331890D01*
X57284D01*
Y339370D01*
X54748D01*
Y342080D01*
X55430Y342363D01*
X56211Y342963D01*
X56810Y343744D01*
X57187Y344654D01*
X57316Y345630D01*
X57187Y346606D01*
X56810Y347516D01*
X56211Y348298D01*
X55430Y348897D01*
X54520Y349274D01*
X53543Y349402D01*
X52567Y349274D01*
X51657Y348897D01*
X50876Y348298D01*
X50276Y347516D01*
X49900Y346606D01*
X49771Y345630D01*
X49900Y344654D01*
X50276Y343744D01*
X50876Y342963D01*
X51657Y342363D01*
X52339Y342080D01*
Y339370D01*
X49803D01*
Y331890D01*
X52261D01*
Y306669D01*
X51885Y306513D01*
X51199Y305986D01*
X50672Y305300D01*
X50443Y304748D01*
X33957D01*
X33496Y304656D01*
X33105Y304395D01*
X33105Y304395D01*
X9374Y280663D01*
X7405Y281479D01*
Y307080D01*
X16247Y315922D01*
X19488D01*
Y315650D01*
X25787D01*
Y315823D01*
X33752D01*
X33939Y315370D01*
X34466Y314683D01*
X35153Y314156D01*
X35953Y313825D01*
X36811Y313712D01*
X37669Y313825D01*
X38469Y314156D01*
X39156Y314683D01*
X39683Y315370D01*
X40014Y316170D01*
X40127Y317028D01*
X40014Y317886D01*
X39683Y318686D01*
X39156Y319372D01*
X38676Y319741D01*
X38620Y319987D01*
X38616Y320596D01*
X38883Y321859D01*
X39059Y321932D01*
X39746Y322459D01*
X40273Y323145D01*
X40604Y323945D01*
X40717Y324803D01*
X40604Y325661D01*
X40273Y326461D01*
X39746Y327148D01*
X39059Y327675D01*
X38260Y328006D01*
X37402Y328119D01*
X36544Y328006D01*
X35744Y327675D01*
X35057Y327148D01*
X34530Y326461D01*
X34342Y326008D01*
X24902D01*
Y326083D01*
X18602D01*
Y326008D01*
X12303D01*
X11842Y325916D01*
X11452Y325655D01*
X11452Y325655D01*
X3642Y317845D01*
X1673Y318632D01*
Y384744D01*
X113893Y384744D01*
X114216Y382855D01*
D02*
G37*
%LPC*%
G36*
X111485Y96960D02*
X109183D01*
Y95248D01*
X109864D01*
X110484Y95371D01*
X111011Y95723D01*
X111362Y96249D01*
X111485Y96869D01*
Y96960D01*
D02*
G37*
G36*
X127468Y96922D02*
X125165D01*
Y95210D01*
X125846D01*
X126467Y95333D01*
X126993Y95685D01*
X127345Y96211D01*
X127468Y96832D01*
Y96922D01*
D02*
G37*
G36*
X108183Y96960D02*
X105880D01*
Y96869D01*
X106003Y96249D01*
X106355Y95723D01*
X106881Y95371D01*
X107501Y95248D01*
X108183D01*
Y96960D01*
D02*
G37*
G36*
X312697Y27551D02*
X292500D01*
X292645Y25346D01*
X293174Y22686D01*
X294045Y20119D01*
X295245Y17687D01*
X296751Y15432D01*
X298539Y13393D01*
X300578Y11605D01*
X302832Y10099D01*
X305264Y8900D01*
X307832Y8028D01*
X310491Y7499D01*
X312697Y7355D01*
Y27551D01*
D02*
G37*
G36*
X11811Y18536D02*
X10499Y18407D01*
X9237Y18024D01*
X8075Y17403D01*
X7056Y16567D01*
X6219Y15547D01*
X5598Y14385D01*
X5215Y13123D01*
X5086Y11811D01*
X5215Y10499D01*
X5598Y9237D01*
X6219Y8075D01*
X7056Y7056D01*
X8075Y6219D01*
X9237Y5598D01*
X10499Y5215D01*
X11811Y5086D01*
X13123Y5215D01*
X14385Y5598D01*
X15547Y6219D01*
X16567Y7056D01*
X17403Y8075D01*
X18024Y9237D01*
X18407Y10499D01*
X18536Y11811D01*
X18407Y13123D01*
X18024Y14385D01*
X17403Y15547D01*
X16567Y16567D01*
X15547Y17403D01*
X14385Y18024D01*
X13123Y18407D01*
X11811Y18536D01*
D02*
G37*
G36*
X378051Y130159D02*
X377063Y130028D01*
X376141Y129647D01*
X375350Y129040D01*
X374743Y128249D01*
X374361Y127327D01*
X374231Y126339D01*
X374361Y125350D01*
X374743Y124429D01*
X375350Y123637D01*
X376141Y123030D01*
X377063Y122649D01*
X378051Y122519D01*
X379040Y122649D01*
X379961Y123030D01*
X380752Y123637D01*
X381360Y124429D01*
X381741Y125350D01*
X381871Y126339D01*
X381741Y127327D01*
X381360Y128249D01*
X380752Y129040D01*
X379961Y129647D01*
X379040Y130028D01*
X378051Y130159D01*
D02*
G37*
G36*
X382973Y18536D02*
X381661Y18407D01*
X380399Y18024D01*
X379236Y17403D01*
X378217Y16567D01*
X377381Y15547D01*
X376759Y14385D01*
X376377Y13123D01*
X376247Y11811D01*
X376377Y10499D01*
X376759Y9237D01*
X377381Y8075D01*
X378217Y7056D01*
X379236Y6219D01*
X380399Y5598D01*
X381661Y5215D01*
X382973Y5086D01*
X384285Y5215D01*
X385546Y5598D01*
X386709Y6219D01*
X387728Y7056D01*
X388564Y8075D01*
X389186Y9237D01*
X389569Y10499D01*
X389698Y11811D01*
X389569Y13123D01*
X389186Y14385D01*
X388564Y15547D01*
X387728Y16567D01*
X386709Y17403D01*
X385546Y18024D01*
X384285Y18407D01*
X382973Y18536D01*
D02*
G37*
G36*
X378051Y120159D02*
X377063Y120028D01*
X376141Y119647D01*
X375350Y119040D01*
X374743Y118249D01*
X374361Y117327D01*
X374231Y116339D01*
X374361Y115350D01*
X374743Y114429D01*
X375350Y113637D01*
X376141Y113030D01*
X377063Y112649D01*
X378051Y112519D01*
X379040Y112649D01*
X379961Y113030D01*
X380752Y113637D01*
X381360Y114429D01*
X381741Y115350D01*
X381871Y116339D01*
X381741Y117327D01*
X381360Y118249D01*
X380752Y119040D01*
X379961Y119647D01*
X379040Y120028D01*
X378051Y120159D01*
D02*
G37*
G36*
X46565Y84422D02*
X44262D01*
Y84332D01*
X44386Y83711D01*
X44737Y83185D01*
X45263Y82833D01*
X45884Y82710D01*
X46565D01*
Y84422D01*
D02*
G37*
G36*
X49868D02*
X47565D01*
Y82710D01*
X48246D01*
X48867Y82833D01*
X49393Y83185D01*
X49744Y83711D01*
X49868Y84332D01*
Y84422D01*
D02*
G37*
G36*
X57465Y84422D02*
X55162D01*
Y84332D01*
X55286Y83711D01*
X55637Y83185D01*
X56164Y82833D01*
X56784Y82710D01*
X57465D01*
Y84422D01*
D02*
G37*
G36*
X60768D02*
X58465D01*
Y82710D01*
X59146D01*
X59767Y82833D01*
X60293Y83185D01*
X60645Y83711D01*
X60768Y84332D01*
Y84422D01*
D02*
G37*
G36*
X378051Y110159D02*
X377063Y110029D01*
X376141Y109647D01*
X375350Y109040D01*
X374743Y108249D01*
X374361Y107327D01*
X374231Y106339D01*
X374361Y105350D01*
X374743Y104429D01*
X375350Y103637D01*
X376141Y103030D01*
X377063Y102649D01*
X378051Y102519D01*
X379040Y102649D01*
X379750Y102943D01*
X384623Y98071D01*
Y93019D01*
X377946Y86342D01*
X332087D01*
X331626Y86250D01*
X331235Y85989D01*
X329422Y84177D01*
X321112D01*
X319698Y85862D01*
X319788Y87476D01*
X319832Y87565D01*
X320096Y87909D01*
X320284Y88363D01*
X323524D01*
X323524Y88363D01*
X323985Y88454D01*
X324375Y88715D01*
X330801Y95141D01*
X374448D01*
X374743Y94429D01*
X375350Y93637D01*
X376141Y93030D01*
X377063Y92649D01*
X378051Y92519D01*
X379040Y92649D01*
X379961Y93030D01*
X380752Y93637D01*
X381360Y94429D01*
X381741Y95350D01*
X381871Y96339D01*
X381741Y97327D01*
X381360Y98249D01*
X380752Y99040D01*
X379961Y99647D01*
X379040Y100029D01*
X378051Y100159D01*
X377063Y100029D01*
X376141Y99647D01*
X375350Y99040D01*
X374743Y98249D01*
X374453Y97549D01*
X330302D01*
X330302Y97549D01*
X329841Y97458D01*
X329450Y97197D01*
X329450Y97197D01*
X323025Y90771D01*
X320284D01*
X320096Y91225D01*
X319569Y91912D01*
X318882Y92439D01*
X318083Y92770D01*
X317225Y92883D01*
X316366Y92770D01*
X315567Y92439D01*
X314880Y91912D01*
X314353Y91225D01*
X314022Y90425D01*
X313909Y89567D01*
X314022Y88709D01*
X314353Y87909D01*
X314693Y87466D01*
X314935Y86156D01*
X314969Y85488D01*
X314716Y84975D01*
X314451Y84630D01*
X314120Y83831D01*
X314007Y82973D01*
X314120Y82114D01*
X314451Y81315D01*
X314978Y80628D01*
X315665Y80101D01*
X316465Y79770D01*
X317323Y79657D01*
X318181Y79770D01*
X318981Y80101D01*
X319668Y80628D01*
X320194Y81315D01*
X320382Y81768D01*
X329921D01*
X329921Y81768D01*
X330382Y81860D01*
X330773Y82121D01*
X332586Y83934D01*
X378445D01*
X378445Y83934D01*
X378906Y84025D01*
X379296Y84286D01*
X386678Y91668D01*
X386678Y91668D01*
X386939Y92059D01*
X387031Y92520D01*
Y98569D01*
X387031Y98569D01*
X386939Y99030D01*
X386678Y99421D01*
X386678Y99421D01*
X381451Y104649D01*
X381741Y105350D01*
X381871Y106339D01*
X381741Y107327D01*
X381360Y108249D01*
X380752Y109040D01*
X379961Y109647D01*
X379040Y110029D01*
X378051Y110159D01*
D02*
G37*
G36*
X124165Y96922D02*
X121862D01*
Y96832D01*
X121986Y96211D01*
X122337Y95685D01*
X122863Y95333D01*
X123484Y95210D01*
X124165D01*
Y96922D01*
D02*
G37*
G36*
X32465Y84422D02*
X30162D01*
Y84332D01*
X30286Y83711D01*
X30637Y83185D01*
X31163Y82833D01*
X31784Y82710D01*
X32465D01*
Y84422D01*
D02*
G37*
G36*
X35768D02*
X33465D01*
Y82710D01*
X34146D01*
X34767Y82833D01*
X35293Y83185D01*
X35645Y83711D01*
X35768Y84332D01*
Y84422D01*
D02*
G37*
G36*
X187992Y130178D02*
X187003Y130048D01*
X186082Y129667D01*
X185291Y129060D01*
X184684Y128268D01*
X184302Y127347D01*
X184172Y126358D01*
X184302Y125370D01*
X184684Y124448D01*
X185291Y123657D01*
X186082Y123050D01*
X187003Y122668D01*
X187992Y122538D01*
X188981Y122668D01*
X189902Y123050D01*
X190693Y123657D01*
X191300Y124448D01*
X191682Y125370D01*
X191812Y126358D01*
X191682Y127347D01*
X191300Y128268D01*
X190693Y129060D01*
X189902Y129667D01*
X188981Y130048D01*
X187992Y130178D01*
D02*
G37*
G36*
Y150178D02*
X187003Y150048D01*
X186082Y149667D01*
X185291Y149059D01*
X184684Y148268D01*
X184302Y147347D01*
X184172Y146358D01*
X184302Y145370D01*
X184684Y144448D01*
X185291Y143657D01*
X186082Y143050D01*
X187003Y142668D01*
X187992Y142538D01*
X188981Y142668D01*
X189902Y143050D01*
X190693Y143657D01*
X191300Y144448D01*
X191682Y145370D01*
X191812Y146358D01*
X191682Y147347D01*
X191300Y148268D01*
X190693Y149059D01*
X189902Y149667D01*
X188981Y150048D01*
X187992Y150178D01*
D02*
G37*
G36*
X96602Y149205D02*
X94890D01*
Y146902D01*
X94981D01*
X95601Y147025D01*
X96127Y147377D01*
X96479Y147903D01*
X96602Y148523D01*
Y149205D01*
D02*
G37*
G36*
X94784Y144437D02*
X94693D01*
Y142134D01*
X96405D01*
Y142815D01*
X96282Y143436D01*
X95930Y143962D01*
X95404Y144314D01*
X94784Y144437D01*
D02*
G37*
G36*
X378051Y150159D02*
X377063Y150029D01*
X376141Y149647D01*
X375350Y149040D01*
X374743Y148249D01*
X374361Y147327D01*
X374231Y146339D01*
X374361Y145350D01*
X374743Y144429D01*
X375350Y143637D01*
X376141Y143030D01*
X377063Y142649D01*
X378051Y142519D01*
X379040Y142649D01*
X379961Y143030D01*
X380752Y143637D01*
X381360Y144429D01*
X381741Y145350D01*
X381871Y146339D01*
X381741Y147327D01*
X381360Y148249D01*
X380752Y149040D01*
X379961Y149647D01*
X379040Y150029D01*
X378051Y150159D01*
D02*
G37*
G36*
Y170159D02*
X377063Y170028D01*
X376141Y169647D01*
X375350Y169040D01*
X374743Y168249D01*
X374361Y167327D01*
X374231Y166339D01*
X374361Y165350D01*
X374743Y164429D01*
X375350Y163637D01*
X376141Y163030D01*
X377063Y162649D01*
X378051Y162519D01*
X379040Y162649D01*
X379961Y163030D01*
X380752Y163637D01*
X381360Y164429D01*
X381741Y165350D01*
X381871Y166339D01*
X381741Y167327D01*
X381360Y168249D01*
X380752Y169040D01*
X379961Y169647D01*
X379040Y170028D01*
X378051Y170159D01*
D02*
G37*
G36*
X106693Y18044D02*
X105381Y17915D01*
X104119Y17532D01*
X102957Y16911D01*
X101937Y16074D01*
X101101Y15055D01*
X100480Y13893D01*
X100097Y12631D01*
X99968Y11319D01*
X100097Y10007D01*
X100480Y8745D01*
X101101Y7583D01*
X101937Y6564D01*
X102957Y5727D01*
X104119Y5106D01*
X105381Y4723D01*
X106693Y4594D01*
X108005Y4723D01*
X109267Y5106D01*
X110429Y5727D01*
X111449Y6564D01*
X112285Y7583D01*
X112906Y8745D01*
X113289Y10007D01*
X113418Y11319D01*
X113289Y12631D01*
X112906Y13893D01*
X112285Y15055D01*
X111449Y16074D01*
X110429Y16911D01*
X109267Y17532D01*
X108005Y17915D01*
X106693Y18044D01*
D02*
G37*
G36*
X378051Y160159D02*
X377063Y160029D01*
X376141Y159647D01*
X375350Y159040D01*
X374743Y158249D01*
X374361Y157327D01*
X374231Y156339D01*
X374361Y155350D01*
X374743Y154429D01*
X375350Y153637D01*
X376141Y153030D01*
X377063Y152649D01*
X378051Y152519D01*
X379040Y152649D01*
X379961Y153030D01*
X380752Y153637D01*
X381360Y154429D01*
X381741Y155350D01*
X381871Y156339D01*
X381741Y157327D01*
X381360Y158249D01*
X380752Y159040D01*
X379961Y159647D01*
X379040Y160029D01*
X378051Y160159D01*
D02*
G37*
G36*
X187992Y170139D02*
X187003Y170009D01*
X186082Y169627D01*
X185291Y169020D01*
X184684Y168229D01*
X184302Y167308D01*
X184172Y166319D01*
X184302Y165330D01*
X184684Y164409D01*
X185291Y163618D01*
X186082Y163011D01*
X187003Y162629D01*
X187992Y162499D01*
X188981Y162629D01*
X189902Y163011D01*
X190693Y163618D01*
X191300Y164409D01*
X191682Y165330D01*
X191812Y166319D01*
X191682Y167308D01*
X191300Y168229D01*
X190693Y169020D01*
X189902Y169627D01*
X188981Y170009D01*
X187992Y170139D01*
D02*
G37*
G36*
X238189Y149540D02*
X236877Y149411D01*
X235615Y149028D01*
X234453Y148407D01*
X233434Y147571D01*
X232597Y146551D01*
X231976Y145389D01*
X231593Y144127D01*
X231464Y142815D01*
X231593Y141503D01*
X231976Y140241D01*
X232597Y139079D01*
X233434Y138059D01*
X234453Y137223D01*
X235615Y136602D01*
X236877Y136219D01*
X238189Y136090D01*
X239501Y136219D01*
X240763Y136602D01*
X241925Y137223D01*
X242945Y138059D01*
X243781Y139079D01*
X244402Y140241D01*
X244785Y141503D01*
X244914Y142815D01*
X244785Y144127D01*
X244402Y145389D01*
X243781Y146551D01*
X242945Y147571D01*
X241925Y148407D01*
X240763Y149028D01*
X239501Y149411D01*
X238189Y149540D01*
D02*
G37*
G36*
X83465Y134102D02*
X83374D01*
Y131800D01*
X85086D01*
Y132481D01*
X84963Y133101D01*
X84611Y133627D01*
X84085Y133979D01*
X83465Y134102D01*
D02*
G37*
G36*
X378051Y140159D02*
X377063Y140029D01*
X376141Y139647D01*
X375350Y139040D01*
X374743Y138249D01*
X374361Y137327D01*
X374231Y136339D01*
X374361Y135350D01*
X374743Y134429D01*
X375350Y133637D01*
X376141Y133030D01*
X377063Y132649D01*
X378051Y132519D01*
X379040Y132649D01*
X379961Y133030D01*
X380752Y133637D01*
X381360Y134429D01*
X381741Y135350D01*
X381871Y136339D01*
X381741Y137327D01*
X381360Y138249D01*
X380752Y139040D01*
X379961Y139647D01*
X379040Y140029D01*
X378051Y140159D01*
D02*
G37*
G36*
X85086Y130800D02*
X83374D01*
Y128497D01*
X83465D01*
X84085Y128620D01*
X84611Y128972D01*
X84963Y129498D01*
X85086Y130119D01*
Y130800D01*
D02*
G37*
G36*
X100791Y132193D02*
X99078D01*
Y129891D01*
X99169D01*
X99789Y130014D01*
X100315Y130366D01*
X100667Y130892D01*
X100791Y131512D01*
Y132193D01*
D02*
G37*
G36*
X238189Y18044D02*
X236877Y17915D01*
X235615Y17532D01*
X234453Y16911D01*
X233434Y16074D01*
X232597Y15055D01*
X231976Y13893D01*
X231593Y12631D01*
X231464Y11319D01*
X231593Y10007D01*
X231976Y8745D01*
X232597Y7583D01*
X233434Y6564D01*
X234453Y5727D01*
X235615Y5106D01*
X236877Y4723D01*
X238189Y4594D01*
X239501Y4723D01*
X240763Y5106D01*
X241925Y5727D01*
X242945Y6564D01*
X243781Y7583D01*
X244402Y8745D01*
X244785Y10007D01*
X244914Y11319D01*
X244785Y12631D01*
X244402Y13893D01*
X243781Y15055D01*
X242945Y16074D01*
X241925Y16911D01*
X240763Y17532D01*
X239501Y17915D01*
X238189Y18044D01*
D02*
G37*
G36*
X106693Y149540D02*
X105381Y149411D01*
X104119Y149028D01*
X102957Y148407D01*
X101937Y147571D01*
X101101Y146551D01*
X100480Y145389D01*
X100097Y144127D01*
X99968Y142815D01*
X100097Y141503D01*
X100480Y140241D01*
X101101Y139079D01*
X101937Y138059D01*
X102957Y137223D01*
X104119Y136602D01*
X105381Y136219D01*
X106693Y136090D01*
X108005Y136219D01*
X109267Y136602D01*
X110429Y137223D01*
X111449Y138059D01*
X112285Y139079D01*
X112906Y140241D01*
X113289Y141503D01*
X113418Y142815D01*
X113289Y144127D01*
X112906Y145389D01*
X112285Y146551D01*
X111449Y147571D01*
X110429Y148407D01*
X109267Y149028D01*
X108005Y149411D01*
X106693Y149540D01*
D02*
G37*
G36*
X187992Y140178D02*
X187003Y140048D01*
X186082Y139667D01*
X185291Y139059D01*
X184684Y138268D01*
X184302Y137347D01*
X184172Y136358D01*
X184302Y135370D01*
X184684Y134448D01*
X185291Y133657D01*
X186082Y133050D01*
X187003Y132668D01*
X187992Y132538D01*
X188981Y132668D01*
X189902Y133050D01*
X190693Y133657D01*
X191300Y134448D01*
X191682Y135370D01*
X191812Y136358D01*
X191682Y137347D01*
X191300Y138268D01*
X190693Y139059D01*
X189902Y139667D01*
X188981Y140048D01*
X187992Y140178D01*
D02*
G37*
G36*
X99169Y135496D02*
X99078D01*
Y133193D01*
X100791D01*
Y133874D01*
X100667Y134495D01*
X100315Y135021D01*
X99789Y135373D01*
X99169Y135496D01*
D02*
G37*
G36*
X110614Y63319D02*
X107193D01*
Y59898D01*
X107725Y59968D01*
X108686Y60366D01*
X109512Y61000D01*
X110146Y61826D01*
X110544Y62787D01*
X110614Y63319D01*
D02*
G37*
G36*
X248051Y70159D02*
X247062Y70029D01*
X246141Y69647D01*
X245350Y69040D01*
X244743Y68249D01*
X244361Y67327D01*
X244231Y66339D01*
X244361Y65350D01*
X244743Y64429D01*
X245350Y63638D01*
X246141Y63030D01*
X247062Y62649D01*
X248051Y62519D01*
X249040Y62649D01*
X249961Y63030D01*
X250752Y63638D01*
X251360Y64429D01*
X251741Y65350D01*
X251871Y66339D01*
X251741Y67327D01*
X251360Y68249D01*
X250752Y69040D01*
X249961Y69647D01*
X249040Y70029D01*
X248051Y70159D01*
D02*
G37*
G36*
X278051Y60159D02*
X277063Y60029D01*
X276141Y59647D01*
X275350Y59040D01*
X274743Y58249D01*
X274361Y57327D01*
X274231Y56339D01*
X274361Y55350D01*
X274743Y54429D01*
X275350Y53637D01*
X276141Y53030D01*
X277063Y52649D01*
X278051Y52519D01*
X279040Y52649D01*
X279961Y53030D01*
X280752Y53637D01*
X281360Y54429D01*
X281741Y55350D01*
X281871Y56339D01*
X281741Y57327D01*
X281360Y58249D01*
X280752Y59040D01*
X279961Y59647D01*
X279040Y60029D01*
X278051Y60159D01*
D02*
G37*
G36*
X268051D02*
X267062Y60029D01*
X266141Y59647D01*
X265350Y59040D01*
X264743Y58249D01*
X264361Y57327D01*
X264231Y56339D01*
X264361Y55350D01*
X264743Y54429D01*
X265350Y53637D01*
X266141Y53030D01*
X267062Y52649D01*
X268051Y52519D01*
X269040Y52649D01*
X269961Y53030D01*
X270752Y53637D01*
X271359Y54429D01*
X271741Y55350D01*
X271871Y56339D01*
X271741Y57327D01*
X271359Y58249D01*
X270752Y59040D01*
X269961Y59647D01*
X269040Y60029D01*
X268051Y60159D01*
D02*
G37*
G36*
X278051Y70159D02*
X277063Y70029D01*
X276141Y69647D01*
X275350Y69040D01*
X274743Y68249D01*
X274361Y67327D01*
X274231Y66339D01*
X274361Y65350D01*
X274743Y64429D01*
X275350Y63638D01*
X276141Y63030D01*
X277063Y62649D01*
X278051Y62519D01*
X279040Y62649D01*
X279961Y63030D01*
X280752Y63638D01*
X281360Y64429D01*
X281741Y65350D01*
X281871Y66339D01*
X281741Y67327D01*
X281360Y68249D01*
X280752Y69040D01*
X279961Y69647D01*
X279040Y70029D01*
X278051Y70159D01*
D02*
G37*
G36*
X288051D02*
X287063Y70029D01*
X286141Y69647D01*
X285350Y69040D01*
X284743Y68249D01*
X284361Y67327D01*
X284231Y66339D01*
X284361Y65350D01*
X284743Y64429D01*
X285350Y63638D01*
X286141Y63030D01*
X287063Y62649D01*
X288051Y62519D01*
X289040Y62649D01*
X289961Y63030D01*
X290752Y63638D01*
X291359Y64429D01*
X291741Y65350D01*
X291871Y66339D01*
X291741Y67327D01*
X291359Y68249D01*
X290752Y69040D01*
X289961Y69647D01*
X289040Y70029D01*
X288051Y70159D01*
D02*
G37*
G36*
X258051D02*
X257063Y70029D01*
X256141Y69647D01*
X255350Y69040D01*
X254743Y68249D01*
X254361Y67327D01*
X254231Y66339D01*
X254361Y65350D01*
X254743Y64429D01*
X255350Y63638D01*
X256141Y63030D01*
X257063Y62649D01*
X258051Y62519D01*
X259040Y62649D01*
X259961Y63030D01*
X260752Y63638D01*
X261360Y64429D01*
X261741Y65350D01*
X261871Y66339D01*
X261741Y67327D01*
X261360Y68249D01*
X260752Y69040D01*
X259961Y69647D01*
X259040Y70029D01*
X258051Y70159D01*
D02*
G37*
G36*
X268051D02*
X267062Y70029D01*
X266141Y69647D01*
X265350Y69040D01*
X264743Y68249D01*
X264361Y67327D01*
X264231Y66339D01*
X264361Y65350D01*
X264743Y64429D01*
X265350Y63638D01*
X266141Y63030D01*
X267062Y62649D01*
X268051Y62519D01*
X269040Y62649D01*
X269961Y63030D01*
X270752Y63638D01*
X271359Y64429D01*
X271741Y65350D01*
X271871Y66339D01*
X271741Y67327D01*
X271359Y68249D01*
X270752Y69040D01*
X269961Y69647D01*
X269040Y70029D01*
X268051Y70159D01*
D02*
G37*
G36*
X288051Y60159D02*
X287063Y60029D01*
X286141Y59647D01*
X285350Y59040D01*
X284743Y58249D01*
X284361Y57327D01*
X284231Y56339D01*
X284361Y55350D01*
X284743Y54429D01*
X285350Y53637D01*
X286141Y53030D01*
X287063Y52649D01*
X288051Y52519D01*
X289040Y52649D01*
X289961Y53030D01*
X290752Y53637D01*
X291359Y54429D01*
X291741Y55350D01*
X291871Y56339D01*
X291741Y57327D01*
X291359Y58249D01*
X290752Y59040D01*
X289961Y59647D01*
X289040Y60029D01*
X288051Y60159D01*
D02*
G37*
G36*
X328051D02*
X327063Y60029D01*
X326141Y59647D01*
X325350Y59040D01*
X324743Y58249D01*
X324361Y57327D01*
X324231Y56339D01*
X324361Y55350D01*
X324743Y54429D01*
X325350Y53637D01*
X326141Y53030D01*
X327063Y52649D01*
X328051Y52519D01*
X329040Y52649D01*
X329961Y53030D01*
X330752Y53637D01*
X331360Y54429D01*
X331741Y55350D01*
X331871Y56339D01*
X331741Y57327D01*
X331360Y58249D01*
X330752Y59040D01*
X329961Y59647D01*
X329040Y60029D01*
X328051Y60159D01*
D02*
G37*
G36*
X358051D02*
X357063Y60029D01*
X356141Y59647D01*
X355350Y59040D01*
X354743Y58249D01*
X354361Y57327D01*
X354231Y56339D01*
X354361Y55350D01*
X354743Y54429D01*
X355350Y53637D01*
X356141Y53030D01*
X357063Y52649D01*
X358051Y52519D01*
X359040Y52649D01*
X359961Y53030D01*
X360752Y53637D01*
X361360Y54429D01*
X361741Y55350D01*
X361871Y56339D01*
X361741Y57327D01*
X361360Y58249D01*
X360752Y59040D01*
X359961Y59647D01*
X359040Y60029D01*
X358051Y60159D01*
D02*
G37*
G36*
X338051D02*
X337063Y60029D01*
X336141Y59647D01*
X335350Y59040D01*
X334743Y58249D01*
X334361Y57327D01*
X334231Y56339D01*
X334361Y55350D01*
X334743Y54429D01*
X335350Y53637D01*
X336141Y53030D01*
X337063Y52649D01*
X338051Y52519D01*
X339040Y52649D01*
X339961Y53030D01*
X340752Y53637D01*
X341359Y54429D01*
X341741Y55350D01*
X341871Y56339D01*
X341741Y57327D01*
X341359Y58249D01*
X340752Y59040D01*
X339961Y59647D01*
X339040Y60029D01*
X338051Y60159D01*
D02*
G37*
G36*
X348051D02*
X347062Y60029D01*
X346141Y59647D01*
X345350Y59040D01*
X344743Y58249D01*
X344361Y57327D01*
X344231Y56339D01*
X344361Y55350D01*
X344743Y54429D01*
X345350Y53637D01*
X346141Y53030D01*
X347062Y52649D01*
X348051Y52519D01*
X349040Y52649D01*
X349961Y53030D01*
X350752Y53637D01*
X351360Y54429D01*
X351741Y55350D01*
X351871Y56339D01*
X351741Y57327D01*
X351360Y58249D01*
X350752Y59040D01*
X349961Y59647D01*
X349040Y60029D01*
X348051Y60159D01*
D02*
G37*
G36*
X378051D02*
X377063Y60029D01*
X376141Y59647D01*
X375350Y59040D01*
X374743Y58249D01*
X374361Y57327D01*
X374231Y56339D01*
X374361Y55350D01*
X374743Y54429D01*
X375350Y53637D01*
X376141Y53030D01*
X377063Y52649D01*
X378051Y52519D01*
X379040Y52649D01*
X379961Y53030D01*
X380752Y53637D01*
X381360Y54429D01*
X381741Y55350D01*
X381871Y56339D01*
X381741Y57327D01*
X381360Y58249D01*
X380752Y59040D01*
X379961Y59647D01*
X379040Y60029D01*
X378051Y60159D01*
D02*
G37*
G36*
X106193Y63319D02*
X102772D01*
X102842Y62787D01*
X103240Y61826D01*
X103874Y61000D01*
X104700Y60366D01*
X105661Y59968D01*
X106193Y59898D01*
Y63319D01*
D02*
G37*
G36*
X318051Y60159D02*
X317062Y60029D01*
X316141Y59647D01*
X315350Y59040D01*
X314743Y58249D01*
X314361Y57327D01*
X314231Y56339D01*
X314361Y55350D01*
X314743Y54429D01*
X315350Y53637D01*
X316141Y53030D01*
X317062Y52649D01*
X318051Y52519D01*
X319040Y52649D01*
X319961Y53030D01*
X320752Y53637D01*
X321359Y54429D01*
X321741Y55350D01*
X321871Y56339D01*
X321741Y57327D01*
X321359Y58249D01*
X320752Y59040D01*
X319961Y59647D01*
X319040Y60029D01*
X318051Y60159D01*
D02*
G37*
G36*
X368051D02*
X367062Y60029D01*
X366141Y59647D01*
X365350Y59040D01*
X364743Y58249D01*
X364361Y57327D01*
X364231Y56339D01*
X364361Y55350D01*
X364743Y54429D01*
X365350Y53637D01*
X366141Y53030D01*
X367062Y52649D01*
X368051Y52519D01*
X369040Y52649D01*
X369961Y53030D01*
X370752Y53637D01*
X371359Y54429D01*
X371741Y55350D01*
X371871Y56339D01*
X371741Y57327D01*
X371359Y58249D01*
X370752Y59040D01*
X369961Y59647D01*
X369040Y60029D01*
X368051Y60159D01*
D02*
G37*
G36*
X106193Y67740D02*
X105661Y67670D01*
X104700Y67272D01*
X103874Y66638D01*
X103240Y65812D01*
X102842Y64851D01*
X102772Y64319D01*
X106193D01*
Y67740D01*
D02*
G37*
G36*
X333894Y27551D02*
X313697D01*
Y7355D01*
X315903Y7499D01*
X318562Y8028D01*
X321130Y8900D01*
X323562Y10099D01*
X325816Y11605D01*
X327855Y13393D01*
X329643Y15432D01*
X331149Y17687D01*
X332348Y20119D01*
X333220Y22686D01*
X333749Y25346D01*
X333894Y27551D01*
D02*
G37*
G36*
X357284Y48568D02*
X354606Y48392D01*
X351974Y47869D01*
X349432Y47006D01*
X347025Y45819D01*
X344794Y44328D01*
X342776Y42559D01*
X341007Y40541D01*
X339516Y38309D01*
X338329Y35903D01*
X337466Y33361D01*
X336943Y30729D01*
X336767Y28051D01*
X336943Y25373D01*
X337466Y22741D01*
X338329Y20200D01*
X339516Y17793D01*
X341007Y15562D01*
X342776Y13544D01*
X344794Y11774D01*
X347025Y10284D01*
X349432Y9097D01*
X351974Y8234D01*
X354606Y7710D01*
X357284Y7535D01*
X359962Y7710D01*
X362594Y8234D01*
X365135Y9097D01*
X367542Y10284D01*
X369773Y11774D01*
X371791Y13544D01*
X373560Y15562D01*
X375051Y17793D01*
X376238Y20200D01*
X377101Y22741D01*
X377625Y25373D01*
X377800Y28051D01*
X377625Y30729D01*
X377101Y33361D01*
X376238Y35903D01*
X375051Y38309D01*
X373560Y40541D01*
X371791Y42559D01*
X369773Y44328D01*
X367542Y45819D01*
X365135Y47006D01*
X362594Y47869D01*
X359962Y48392D01*
X357284Y48568D01*
D02*
G37*
G36*
X378051Y70159D02*
X377063Y70029D01*
X376141Y69647D01*
X375350Y69040D01*
X374743Y68249D01*
X374361Y67327D01*
X374231Y66339D01*
X374361Y65350D01*
X374743Y64429D01*
X375350Y63638D01*
X376141Y63030D01*
X377063Y62649D01*
X378051Y62519D01*
X379040Y62649D01*
X379961Y63030D01*
X380752Y63638D01*
X381360Y64429D01*
X381741Y65350D01*
X381871Y66339D01*
X381741Y67327D01*
X381360Y68249D01*
X380752Y69040D01*
X379961Y69647D01*
X379040Y70029D01*
X378051Y70159D01*
D02*
G37*
G36*
X19365Y84322D02*
X17062D01*
Y84232D01*
X17186Y83611D01*
X17537Y83085D01*
X18064Y82733D01*
X18684Y82610D01*
X19365D01*
Y84322D01*
D02*
G37*
G36*
X22668D02*
X20365D01*
Y82610D01*
X21046D01*
X21667Y82733D01*
X22193Y83085D01*
X22545Y83611D01*
X22668Y84232D01*
Y84322D01*
D02*
G37*
G36*
X107193Y67740D02*
Y64319D01*
X110614D01*
X110544Y64851D01*
X110146Y65812D01*
X109512Y66638D01*
X108686Y67272D01*
X107725Y67670D01*
X107193Y67740D01*
D02*
G37*
G36*
X92966Y77647D02*
X91989Y77519D01*
X91079Y77142D01*
X90298Y76542D01*
X89698Y75761D01*
X89322Y74851D01*
X89193Y73875D01*
X89322Y72898D01*
X89698Y71989D01*
X90298Y71207D01*
X91079Y70608D01*
X91989Y70231D01*
X92966Y70102D01*
X93942Y70231D01*
X94852Y70608D01*
X95633Y71207D01*
X95755Y71367D01*
X103860D01*
X104025Y71152D01*
X104807Y70552D01*
X105717Y70175D01*
X106693Y70047D01*
X107669Y70175D01*
X108579Y70552D01*
X109361Y71152D01*
X109960Y71933D01*
X110337Y72843D01*
X110346Y72913D01*
X110559Y73427D01*
X110654Y74146D01*
X110559Y74866D01*
X110281Y75536D01*
X109840Y76112D01*
X109373Y76470D01*
X109361Y76486D01*
X108579Y77086D01*
X107669Y77463D01*
X106693Y77591D01*
X105717Y77463D01*
X104807Y77086D01*
X104599Y76926D01*
X95133D01*
X94852Y77142D01*
X93942Y77519D01*
X92966Y77647D01*
D02*
G37*
G36*
X313697Y48748D02*
Y28551D01*
X333894D01*
X333749Y30757D01*
X333220Y33416D01*
X332348Y35984D01*
X331149Y38416D01*
X329643Y40670D01*
X327855Y42709D01*
X325816Y44497D01*
X323562Y46003D01*
X321130Y47203D01*
X318562Y48074D01*
X315903Y48603D01*
X313697Y48748D01*
D02*
G37*
G36*
X338051Y70159D02*
X337063Y70029D01*
X336141Y69647D01*
X335350Y69040D01*
X334743Y68249D01*
X334361Y67327D01*
X334231Y66339D01*
X334361Y65350D01*
X334743Y64429D01*
X335350Y63638D01*
X336141Y63030D01*
X337063Y62649D01*
X338051Y62519D01*
X339040Y62649D01*
X339961Y63030D01*
X340752Y63638D01*
X341359Y64429D01*
X341741Y65350D01*
X341871Y66339D01*
X341741Y67327D01*
X341359Y68249D01*
X340752Y69040D01*
X339961Y69647D01*
X339040Y70029D01*
X338051Y70159D01*
D02*
G37*
G36*
X258051Y60159D02*
X257063Y60029D01*
X256141Y59647D01*
X255350Y59040D01*
X254743Y58249D01*
X254361Y57327D01*
X254231Y56339D01*
X254361Y55350D01*
X254743Y54429D01*
X255350Y53637D01*
X256141Y53030D01*
X257063Y52649D01*
X258051Y52519D01*
X259040Y52649D01*
X259961Y53030D01*
X260752Y53637D01*
X261360Y54429D01*
X261741Y55350D01*
X261871Y56339D01*
X261741Y57327D01*
X261360Y58249D01*
X260752Y59040D01*
X259961Y59647D01*
X259040Y60029D01*
X258051Y60159D01*
D02*
G37*
G36*
X318051Y70159D02*
X317062Y70029D01*
X316141Y69647D01*
X315350Y69040D01*
X314743Y68249D01*
X314361Y67327D01*
X314231Y66339D01*
X314361Y65350D01*
X314743Y64429D01*
X315350Y63638D01*
X316141Y63030D01*
X317062Y62649D01*
X318051Y62519D01*
X319040Y62649D01*
X319961Y63030D01*
X320752Y63638D01*
X321359Y64429D01*
X321741Y65350D01*
X321871Y66339D01*
X321741Y67327D01*
X321359Y68249D01*
X320752Y69040D01*
X319961Y69647D01*
X319040Y70029D01*
X318051Y70159D01*
D02*
G37*
G36*
X328051D02*
X327063Y70029D01*
X326141Y69647D01*
X325350Y69040D01*
X324743Y68249D01*
X324361Y67327D01*
X324231Y66339D01*
X324361Y65350D01*
X324743Y64429D01*
X325350Y63638D01*
X326141Y63030D01*
X327063Y62649D01*
X328051Y62519D01*
X329040Y62649D01*
X329961Y63030D01*
X330752Y63638D01*
X331360Y64429D01*
X331741Y65350D01*
X331871Y66339D01*
X331741Y67327D01*
X331360Y68249D01*
X330752Y69040D01*
X329961Y69647D01*
X329040Y70029D01*
X328051Y70159D01*
D02*
G37*
G36*
X358051D02*
X357063Y70029D01*
X356141Y69647D01*
X355350Y69040D01*
X354743Y68249D01*
X354361Y67327D01*
X354231Y66339D01*
X354361Y65350D01*
X354743Y64429D01*
X355350Y63638D01*
X356141Y63030D01*
X357063Y62649D01*
X358051Y62519D01*
X359040Y62649D01*
X359961Y63030D01*
X360752Y63638D01*
X361360Y64429D01*
X361741Y65350D01*
X361871Y66339D01*
X361741Y67327D01*
X361360Y68249D01*
X360752Y69040D01*
X359961Y69647D01*
X359040Y70029D01*
X358051Y70159D01*
D02*
G37*
G36*
X368051D02*
X367062Y70029D01*
X366141Y69647D01*
X365350Y69040D01*
X364743Y68249D01*
X364361Y67327D01*
X364231Y66339D01*
X364361Y65350D01*
X364743Y64429D01*
X365350Y63638D01*
X366141Y63030D01*
X367062Y62649D01*
X368051Y62519D01*
X369040Y62649D01*
X369961Y63030D01*
X370752Y63638D01*
X371359Y64429D01*
X371741Y65350D01*
X371871Y66339D01*
X371741Y67327D01*
X371359Y68249D01*
X370752Y69040D01*
X369961Y69647D01*
X369040Y70029D01*
X368051Y70159D01*
D02*
G37*
G36*
X248051Y60159D02*
X247062Y60029D01*
X246141Y59647D01*
X245350Y59040D01*
X244743Y58249D01*
X244361Y57327D01*
X244231Y56339D01*
X244361Y55350D01*
X244743Y54429D01*
X245350Y53637D01*
X246141Y53030D01*
X247062Y52649D01*
X248051Y52519D01*
X249040Y52649D01*
X249961Y53030D01*
X250752Y53637D01*
X251360Y54429D01*
X251741Y55350D01*
X251871Y56339D01*
X251741Y57327D01*
X251360Y58249D01*
X250752Y59040D01*
X249961Y59647D01*
X249040Y60029D01*
X248051Y60159D01*
D02*
G37*
G36*
X348051Y70159D02*
X347062Y70029D01*
X346141Y69647D01*
X345350Y69040D01*
X344743Y68249D01*
X344361Y67327D01*
X344231Y66339D01*
X344361Y65350D01*
X344743Y64429D01*
X345350Y63638D01*
X346141Y63030D01*
X347062Y62649D01*
X348051Y62519D01*
X349040Y62649D01*
X349961Y63030D01*
X350752Y63638D01*
X351360Y64429D01*
X351741Y65350D01*
X351871Y66339D01*
X351741Y67327D01*
X351360Y68249D01*
X350752Y69040D01*
X349961Y69647D01*
X349040Y70029D01*
X348051Y70159D01*
D02*
G37*
G36*
X334843Y269454D02*
X331898D01*
Y267429D01*
X337268D01*
X337175Y267895D01*
X336628Y268715D01*
X335809Y269262D01*
X334843Y269454D01*
D02*
G37*
G36*
X346646D02*
X343701D01*
X342735Y269262D01*
X341915Y268715D01*
X341368Y267895D01*
X341275Y267429D01*
X346646D01*
Y269454D01*
D02*
G37*
G36*
X260039D02*
X257095D01*
Y267429D01*
X262465D01*
X262372Y267895D01*
X261825Y268715D01*
X261006Y269262D01*
X260039Y269454D01*
D02*
G37*
G36*
X330898D02*
X327953D01*
X326987Y269262D01*
X326167Y268715D01*
X325620Y267895D01*
X325527Y267429D01*
X330898D01*
Y269454D01*
D02*
G37*
G36*
X350591D02*
X347646D01*
Y267429D01*
X353016D01*
X352923Y267895D01*
X352376Y268715D01*
X351557Y269262D01*
X350591Y269454D01*
D02*
G37*
G36*
X378051Y286123D02*
X377063Y285993D01*
X376141Y285612D01*
X375350Y285005D01*
X374743Y284213D01*
X374361Y283292D01*
X374231Y282303D01*
X374361Y281315D01*
X374743Y280393D01*
X375350Y279602D01*
X376141Y278995D01*
X377063Y278613D01*
X378051Y278483D01*
X379040Y278613D01*
X379961Y278995D01*
X380752Y279602D01*
X381360Y280393D01*
X381741Y281315D01*
X381871Y282303D01*
X381741Y283292D01*
X381360Y284213D01*
X380752Y285005D01*
X379961Y285612D01*
X379040Y285993D01*
X378051Y286123D01*
D02*
G37*
G36*
X187992Y290100D02*
X187003Y289969D01*
X186082Y289588D01*
X185291Y288981D01*
X184684Y288190D01*
X184302Y287268D01*
X184172Y286280D01*
X184302Y285291D01*
X184684Y284369D01*
X185291Y283578D01*
X186082Y282971D01*
X187003Y282590D01*
X187992Y282459D01*
X188981Y282590D01*
X189902Y282971D01*
X190693Y283578D01*
X191300Y284369D01*
X191682Y285291D01*
X191812Y286280D01*
X191682Y287268D01*
X191300Y288190D01*
X190693Y288981D01*
X189902Y289588D01*
X188981Y289969D01*
X187992Y290100D01*
D02*
G37*
G36*
X378051Y276123D02*
X377063Y275993D01*
X376141Y275612D01*
X375350Y275005D01*
X374743Y274213D01*
X374361Y273292D01*
X374231Y272303D01*
X374361Y271315D01*
X374743Y270393D01*
X375350Y269602D01*
X376141Y268995D01*
X377063Y268614D01*
X378051Y268483D01*
X379040Y268614D01*
X379961Y268995D01*
X380752Y269602D01*
X381360Y270393D01*
X381741Y271315D01*
X381871Y272303D01*
X381741Y273292D01*
X381360Y274213D01*
X380752Y275005D01*
X379961Y275612D01*
X379040Y275993D01*
X378051Y276123D01*
D02*
G37*
G36*
X187992Y280100D02*
X187003Y279970D01*
X186082Y279588D01*
X185291Y278981D01*
X184684Y278190D01*
X184302Y277268D01*
X184172Y276280D01*
X184302Y275291D01*
X184684Y274370D01*
X185291Y273578D01*
X186082Y272971D01*
X187003Y272590D01*
X187992Y272460D01*
X188981Y272590D01*
X189902Y272971D01*
X190693Y273578D01*
X191300Y274370D01*
X191682Y275291D01*
X191812Y276280D01*
X191682Y277268D01*
X191300Y278190D01*
X190693Y278981D01*
X189902Y279588D01*
X188981Y279970D01*
X187992Y280100D01*
D02*
G37*
G36*
X353016Y261429D02*
X341275D01*
X341368Y260963D01*
X341915Y260144D01*
Y258715D01*
X341368Y257895D01*
X341275Y257429D01*
X353016D01*
X352923Y257895D01*
X352376Y258715D01*
Y260144D01*
X352923Y260963D01*
X353016Y261429D01*
D02*
G37*
G36*
X246717Y266429D02*
X234976D01*
X235069Y265963D01*
X235616Y265144D01*
Y263715D01*
X235069Y262895D01*
X234976Y262429D01*
X246717D01*
X246624Y262895D01*
X246077Y263715D01*
Y265144D01*
X246624Y265963D01*
X246717Y266429D01*
D02*
G37*
G36*
X378051Y260120D02*
X377063Y259989D01*
X376141Y259608D01*
X375350Y259001D01*
X374743Y258209D01*
X374361Y257288D01*
X374231Y256299D01*
X374361Y255311D01*
X374743Y254389D01*
X375350Y253598D01*
X376141Y252991D01*
X377063Y252609D01*
X378051Y252479D01*
X379040Y252609D01*
X379961Y252991D01*
X380752Y253598D01*
X381360Y254389D01*
X381741Y255311D01*
X381871Y256299D01*
X381741Y257288D01*
X381360Y258209D01*
X380752Y259001D01*
X379961Y259608D01*
X379040Y259989D01*
X378051Y260120D01*
D02*
G37*
G36*
X246717Y261429D02*
X234976D01*
X235069Y260963D01*
X235616Y260144D01*
Y258715D01*
X235069Y257895D01*
X234976Y257429D01*
X246717D01*
X246624Y257895D01*
X246077Y258715D01*
Y260144D01*
X246624Y260963D01*
X246717Y261429D01*
D02*
G37*
G36*
X353016Y266429D02*
X341275D01*
X341368Y265963D01*
X341915Y265144D01*
Y263715D01*
X341368Y262895D01*
X341275Y262429D01*
X353016D01*
X352923Y262895D01*
X352376Y263715D01*
Y265144D01*
X352923Y265963D01*
X353016Y266429D01*
D02*
G37*
G36*
X244291Y269454D02*
X241347D01*
Y267429D01*
X246717D01*
X246624Y267895D01*
X246077Y268715D01*
X245258Y269262D01*
X244291Y269454D01*
D02*
G37*
G36*
X256095D02*
X253150D01*
X252183Y269262D01*
X251364Y268715D01*
X250817Y267895D01*
X250724Y267429D01*
X256095D01*
Y269454D01*
D02*
G37*
G36*
X187992Y270100D02*
X187003Y269970D01*
X186082Y269588D01*
X185291Y268981D01*
X184684Y268190D01*
X184302Y267268D01*
X184172Y266280D01*
X184302Y265291D01*
X184684Y264370D01*
X185291Y263578D01*
X186082Y262971D01*
X187003Y262590D01*
X187992Y262459D01*
X188981Y262590D01*
X189902Y262971D01*
X190693Y263578D01*
X191300Y264370D01*
X191682Y265291D01*
X191812Y266280D01*
X191682Y267268D01*
X191300Y268190D01*
X190693Y268981D01*
X189902Y269588D01*
X188981Y269970D01*
X187992Y270100D01*
D02*
G37*
G36*
X240347Y269454D02*
X237402D01*
X236435Y269262D01*
X235616Y268715D01*
X235069Y267895D01*
X234976Y267429D01*
X240347D01*
Y269454D01*
D02*
G37*
G36*
X378051Y346124D02*
X377063Y345993D01*
X376141Y345612D01*
X375350Y345005D01*
X374743Y344213D01*
X374361Y343292D01*
X374231Y342303D01*
X374361Y341315D01*
X374743Y340393D01*
X375350Y339602D01*
X376141Y338995D01*
X377063Y338614D01*
X378051Y338483D01*
X379040Y338614D01*
X379961Y338995D01*
X380752Y339602D01*
X381360Y340393D01*
X381741Y341315D01*
X381871Y342303D01*
X381741Y343292D01*
X381360Y344213D01*
X380752Y345005D01*
X379961Y345612D01*
X379040Y345993D01*
X378051Y346124D01*
D02*
G37*
G36*
X77464Y345130D02*
X74043D01*
Y341709D01*
X74575Y341779D01*
X75537Y342177D01*
X76363Y342811D01*
X76996Y343637D01*
X77394Y344598D01*
X77464Y345130D01*
D02*
G37*
G36*
Y335130D02*
X74043D01*
Y331709D01*
X74575Y331779D01*
X75537Y332177D01*
X76363Y332811D01*
X76996Y333637D01*
X77394Y334598D01*
X77464Y335130D01*
D02*
G37*
G36*
X74043Y339551D02*
Y336130D01*
X77464D01*
X77394Y336662D01*
X76996Y337624D01*
X76363Y338449D01*
X75537Y339083D01*
X74575Y339481D01*
X74043Y339551D01*
D02*
G37*
G36*
Y349551D02*
Y346130D01*
X77464D01*
X77394Y346662D01*
X76996Y347623D01*
X76363Y348449D01*
X75537Y349083D01*
X74575Y349481D01*
X74043Y349551D01*
D02*
G37*
G36*
X11811Y381135D02*
X10499Y381006D01*
X9237Y380623D01*
X8075Y380001D01*
X7056Y379165D01*
X6219Y378146D01*
X5598Y376983D01*
X5215Y375722D01*
X5086Y374410D01*
X5215Y373097D01*
X5598Y371836D01*
X6219Y370673D01*
X7056Y369654D01*
X8075Y368818D01*
X9237Y368196D01*
X10499Y367813D01*
X11811Y367684D01*
X13123Y367813D01*
X14385Y368196D01*
X15547Y368818D01*
X16567Y369654D01*
X17403Y370673D01*
X18024Y371836D01*
X18407Y373097D01*
X18536Y374410D01*
X18407Y375722D01*
X18024Y376983D01*
X17403Y378146D01*
X16567Y379165D01*
X15547Y380001D01*
X14385Y380623D01*
X13123Y381006D01*
X11811Y381135D01*
D02*
G37*
G36*
X382973Y381135D02*
X381661Y381006D01*
X380399Y380623D01*
X379236Y380001D01*
X378217Y379165D01*
X377381Y378146D01*
X376759Y376983D01*
X376377Y375722D01*
X376247Y374410D01*
X376377Y373097D01*
X376759Y371836D01*
X377381Y370673D01*
X378217Y369654D01*
X379236Y368818D01*
X380399Y368196D01*
X381661Y367813D01*
X382973Y367684D01*
X384285Y367813D01*
X385546Y368196D01*
X386709Y368818D01*
X387728Y369654D01*
X388564Y370673D01*
X389186Y371836D01*
X389569Y373097D01*
X389698Y374410D01*
X389569Y375722D01*
X389186Y376983D01*
X388564Y378146D01*
X387728Y379165D01*
X386709Y380001D01*
X385546Y380623D01*
X384285Y381006D01*
X382973Y381135D01*
D02*
G37*
G36*
X378051Y356123D02*
X377063Y355993D01*
X376141Y355612D01*
X375350Y355005D01*
X374743Y354213D01*
X374361Y353292D01*
X374231Y352303D01*
X374361Y351315D01*
X374743Y350393D01*
X375350Y349602D01*
X376141Y348995D01*
X377063Y348614D01*
X378051Y348483D01*
X379040Y348614D01*
X379961Y348995D01*
X380752Y349602D01*
X381360Y350393D01*
X381741Y351315D01*
X381871Y352303D01*
X381741Y353292D01*
X381360Y354213D01*
X380752Y355005D01*
X379961Y355612D01*
X379040Y355993D01*
X378051Y356123D01*
D02*
G37*
G36*
Y366124D02*
X377063Y365993D01*
X376141Y365612D01*
X375350Y365005D01*
X374743Y364213D01*
X374361Y363292D01*
X374231Y362303D01*
X374361Y361315D01*
X374743Y360393D01*
X375350Y359602D01*
X376141Y358995D01*
X377063Y358613D01*
X378051Y358483D01*
X379040Y358613D01*
X379961Y358995D01*
X380752Y359602D01*
X381360Y360393D01*
X381741Y361315D01*
X381871Y362303D01*
X381741Y363292D01*
X381360Y364213D01*
X380752Y365005D01*
X379961Y365612D01*
X379040Y365993D01*
X378051Y366124D01*
D02*
G37*
G36*
Y306123D02*
X377063Y305993D01*
X376141Y305612D01*
X375350Y305005D01*
X374743Y304213D01*
X374361Y303292D01*
X374231Y302303D01*
X374361Y301315D01*
X374743Y300393D01*
X375350Y299602D01*
X376141Y298995D01*
X377063Y298614D01*
X378051Y298483D01*
X379040Y298614D01*
X379961Y298995D01*
X380752Y299602D01*
X381360Y300393D01*
X381741Y301315D01*
X381871Y302303D01*
X381741Y303292D01*
X381360Y304213D01*
X380752Y305005D01*
X379961Y305612D01*
X379040Y305993D01*
X378051Y306123D01*
D02*
G37*
G36*
X187992Y310100D02*
X187003Y309969D01*
X186082Y309588D01*
X185291Y308981D01*
X184684Y308190D01*
X184302Y307268D01*
X184172Y306280D01*
X184302Y305291D01*
X184684Y304369D01*
X185291Y303578D01*
X186082Y302971D01*
X187003Y302590D01*
X187992Y302460D01*
X188981Y302590D01*
X189902Y302971D01*
X190693Y303578D01*
X191300Y304369D01*
X191682Y305291D01*
X191812Y306280D01*
X191682Y307268D01*
X191300Y308190D01*
X190693Y308981D01*
X189902Y309588D01*
X188981Y309969D01*
X187992Y310100D01*
D02*
G37*
G36*
X378051Y296124D02*
X377063Y295993D01*
X376141Y295612D01*
X375350Y295005D01*
X374743Y294213D01*
X374361Y293292D01*
X374231Y292303D01*
X374361Y291315D01*
X374743Y290393D01*
X375350Y289602D01*
X376141Y288995D01*
X377063Y288614D01*
X378051Y288483D01*
X379040Y288614D01*
X379961Y288995D01*
X380752Y289602D01*
X381360Y290393D01*
X381741Y291315D01*
X381871Y292303D01*
X381741Y293292D01*
X381360Y294213D01*
X380752Y295005D01*
X379961Y295612D01*
X379040Y295993D01*
X378051Y296124D01*
D02*
G37*
G36*
X187992Y300100D02*
X187003Y299970D01*
X186082Y299588D01*
X185291Y298981D01*
X184684Y298190D01*
X184302Y297268D01*
X184172Y296280D01*
X184302Y295291D01*
X184684Y294370D01*
X185291Y293578D01*
X186082Y292971D01*
X187003Y292590D01*
X187992Y292460D01*
X188981Y292590D01*
X189902Y292971D01*
X190693Y293578D01*
X191300Y294370D01*
X191682Y295291D01*
X191812Y296280D01*
X191682Y297268D01*
X191300Y298190D01*
X190693Y298981D01*
X189902Y299588D01*
X188981Y299970D01*
X187992Y300100D01*
D02*
G37*
G36*
X378051Y316124D02*
X377063Y315993D01*
X376141Y315612D01*
X375350Y315005D01*
X374743Y314213D01*
X374361Y313292D01*
X374231Y312303D01*
X374361Y311315D01*
X374743Y310393D01*
X375350Y309602D01*
X376141Y308995D01*
X377063Y308613D01*
X378051Y308483D01*
X379040Y308613D01*
X379961Y308995D01*
X380752Y309602D01*
X381360Y310393D01*
X381741Y311315D01*
X381871Y312303D01*
X381741Y313292D01*
X381360Y314213D01*
X380752Y315005D01*
X379961Y315612D01*
X379040Y315993D01*
X378051Y316124D01*
D02*
G37*
G36*
X187992Y330100D02*
X187003Y329970D01*
X186082Y329588D01*
X185291Y328981D01*
X184684Y328190D01*
X184302Y327268D01*
X184172Y326280D01*
X184302Y325291D01*
X184684Y324370D01*
X185291Y323578D01*
X186082Y322971D01*
X187003Y322590D01*
X187992Y322460D01*
X188981Y322590D01*
X189902Y322971D01*
X190693Y323578D01*
X191300Y324370D01*
X191682Y325291D01*
X191812Y326280D01*
X191682Y327268D01*
X191300Y328190D01*
X190693Y328981D01*
X189902Y329588D01*
X188981Y329970D01*
X187992Y330100D01*
D02*
G37*
G36*
X378051Y336123D02*
X377063Y335993D01*
X376141Y335612D01*
X375350Y335005D01*
X374743Y334213D01*
X374361Y333292D01*
X374231Y332303D01*
X374361Y331315D01*
X374743Y330393D01*
X375350Y329602D01*
X376141Y328995D01*
X377063Y328613D01*
X378051Y328483D01*
X379040Y328613D01*
X379961Y328995D01*
X380752Y329602D01*
X381360Y330393D01*
X381741Y331315D01*
X381871Y332303D01*
X381741Y333292D01*
X381360Y334213D01*
X380752Y335005D01*
X379961Y335612D01*
X379040Y335993D01*
X378051Y336123D01*
D02*
G37*
G36*
X187992Y320100D02*
X187003Y319970D01*
X186082Y319588D01*
X185291Y318981D01*
X184684Y318190D01*
X184302Y317268D01*
X184172Y316280D01*
X184302Y315291D01*
X184684Y314370D01*
X185291Y313578D01*
X186082Y312971D01*
X187003Y312590D01*
X187992Y312459D01*
X188981Y312590D01*
X189902Y312971D01*
X190693Y313578D01*
X191300Y314370D01*
X191682Y315291D01*
X191812Y316280D01*
X191682Y317268D01*
X191300Y318190D01*
X190693Y318981D01*
X189902Y319588D01*
X188981Y319970D01*
X187992Y320100D01*
D02*
G37*
G36*
X378051Y326123D02*
X377063Y325993D01*
X376141Y325612D01*
X375350Y325005D01*
X374743Y324213D01*
X374361Y323292D01*
X374231Y322303D01*
X374361Y321315D01*
X374743Y320393D01*
X375350Y319602D01*
X376141Y318995D01*
X377063Y318614D01*
X378051Y318483D01*
X379040Y318614D01*
X379961Y318995D01*
X380752Y319602D01*
X381360Y320393D01*
X381741Y321315D01*
X381871Y322303D01*
X381741Y323292D01*
X381360Y324213D01*
X380752Y325005D01*
X379961Y325612D01*
X379040Y325993D01*
X378051Y326123D01*
D02*
G37*
G36*
X187992Y260100D02*
X187003Y259969D01*
X186082Y259588D01*
X185291Y258981D01*
X184684Y258190D01*
X184302Y257268D01*
X184172Y256280D01*
X184302Y255291D01*
X184684Y254369D01*
X185291Y253578D01*
X186082Y252971D01*
X187003Y252590D01*
X187992Y252460D01*
X188981Y252590D01*
X189902Y252971D01*
X190693Y253578D01*
X191300Y254369D01*
X191682Y255291D01*
X191812Y256280D01*
X191682Y257268D01*
X191300Y258190D01*
X190693Y258981D01*
X189902Y259588D01*
X188981Y259969D01*
X187992Y260100D01*
D02*
G37*
G36*
Y220139D02*
X187003Y220009D01*
X186082Y219627D01*
X185291Y219020D01*
X184684Y218229D01*
X184302Y217308D01*
X184172Y216319D01*
X184302Y215330D01*
X184684Y214409D01*
X185291Y213618D01*
X186082Y213011D01*
X187003Y212629D01*
X187992Y212499D01*
X188981Y212629D01*
X189902Y213011D01*
X190693Y213618D01*
X191300Y214409D01*
X191682Y215330D01*
X191812Y216319D01*
X191682Y217308D01*
X191300Y218229D01*
X190693Y219020D01*
X189902Y219627D01*
X188981Y220009D01*
X187992Y220139D01*
D02*
G37*
G36*
X124106Y213830D02*
X122992D01*
X122295Y213692D01*
X121704Y213297D01*
X121309Y212705D01*
X121269Y212508D01*
X124106D01*
Y213830D01*
D02*
G37*
G36*
X137303Y212646D02*
X137213D01*
Y210343D01*
X138925D01*
Y211024D01*
X138801Y211645D01*
X138450Y212171D01*
X137924Y212522D01*
X137303Y212646D01*
D02*
G37*
G36*
X378051Y220120D02*
X377063Y219989D01*
X376141Y219608D01*
X375350Y219001D01*
X374743Y218210D01*
X374361Y217288D01*
X374231Y216299D01*
X374361Y215311D01*
X374743Y214389D01*
X375350Y213598D01*
X376141Y212991D01*
X377063Y212610D01*
X378051Y212479D01*
X379040Y212610D01*
X379961Y212991D01*
X380752Y213598D01*
X381360Y214389D01*
X381741Y215311D01*
X381871Y216299D01*
X381741Y217288D01*
X381360Y218210D01*
X380752Y219001D01*
X379961Y219608D01*
X379040Y219989D01*
X378051Y220120D01*
D02*
G37*
G36*
Y230119D02*
X377063Y229989D01*
X376141Y229608D01*
X375350Y229001D01*
X374743Y228209D01*
X374361Y227288D01*
X374231Y226299D01*
X374361Y225311D01*
X374743Y224389D01*
X375350Y223598D01*
X376141Y222991D01*
X377063Y222609D01*
X378051Y222479D01*
X379040Y222609D01*
X379961Y222991D01*
X380752Y223598D01*
X381360Y224389D01*
X381741Y225311D01*
X381871Y226299D01*
X381741Y227288D01*
X381360Y228209D01*
X380752Y229001D01*
X379961Y229608D01*
X379040Y229989D01*
X378051Y230119D01*
D02*
G37*
G36*
X246717Y231429D02*
X241347D01*
Y229404D01*
X244291D01*
X245258Y229596D01*
X246077Y230144D01*
X246624Y230963D01*
X246717Y231429D01*
D02*
G37*
G36*
X256095D02*
X250724D01*
X250817Y230963D01*
X251364Y230144D01*
X252183Y229596D01*
X253150Y229404D01*
X256095D01*
Y231429D01*
D02*
G37*
G36*
X187992Y230139D02*
X187003Y230009D01*
X186082Y229627D01*
X185291Y229020D01*
X184684Y228229D01*
X184302Y227308D01*
X184172Y226319D01*
X184302Y225330D01*
X184684Y224409D01*
X185291Y223618D01*
X186082Y223011D01*
X187003Y222629D01*
X187992Y222499D01*
X188981Y222629D01*
X189902Y223011D01*
X190693Y223618D01*
X191300Y224409D01*
X191682Y225330D01*
X191812Y226319D01*
X191682Y227308D01*
X191300Y228229D01*
X190693Y229020D01*
X189902Y229627D01*
X188981Y230009D01*
X187992Y230139D01*
D02*
G37*
G36*
X240347Y231429D02*
X234976D01*
X235069Y230963D01*
X235616Y230144D01*
X236435Y229596D01*
X237402Y229404D01*
X240347D01*
Y231429D01*
D02*
G37*
G36*
X187992Y190139D02*
X187003Y190009D01*
X186082Y189627D01*
X185291Y189020D01*
X184684Y188229D01*
X184302Y187308D01*
X184172Y186319D01*
X184302Y185330D01*
X184684Y184409D01*
X185291Y183618D01*
X186082Y183011D01*
X187003Y182629D01*
X187992Y182499D01*
X188981Y182629D01*
X189902Y183011D01*
X190693Y183618D01*
X191300Y184409D01*
X191682Y185330D01*
X191812Y186319D01*
X191682Y187308D01*
X191300Y188229D01*
X190693Y189020D01*
X189902Y189627D01*
X188981Y190009D01*
X187992Y190139D01*
D02*
G37*
G36*
X378051Y200119D02*
X377063Y199989D01*
X376141Y199608D01*
X375350Y199001D01*
X374743Y198209D01*
X374361Y197288D01*
X374231Y196299D01*
X374361Y195311D01*
X374743Y194389D01*
X375350Y193598D01*
X376141Y192991D01*
X377063Y192610D01*
X378051Y192479D01*
X379040Y192610D01*
X379961Y192991D01*
X380752Y193598D01*
X381360Y194389D01*
X381741Y195311D01*
X381871Y196299D01*
X381741Y197288D01*
X381360Y198209D01*
X380752Y199001D01*
X379961Y199608D01*
X379040Y199989D01*
X378051Y200119D01*
D02*
G37*
G36*
X187992Y180139D02*
X187003Y180009D01*
X186082Y179627D01*
X185291Y179020D01*
X184684Y178229D01*
X184302Y177308D01*
X184172Y176319D01*
X184302Y175330D01*
X184684Y174409D01*
X185291Y173618D01*
X186082Y173011D01*
X187003Y172629D01*
X187992Y172499D01*
X188981Y172629D01*
X189902Y173011D01*
X190693Y173618D01*
X191300Y174409D01*
X191682Y175330D01*
X191812Y176319D01*
X191682Y177308D01*
X191300Y178229D01*
X190693Y179020D01*
X189902Y179627D01*
X188981Y180009D01*
X187992Y180139D01*
D02*
G37*
G36*
X378051Y190120D02*
X377063Y189989D01*
X376141Y189608D01*
X375350Y189001D01*
X374743Y188209D01*
X374361Y187288D01*
X374231Y186299D01*
X374361Y185311D01*
X374743Y184389D01*
X375350Y183598D01*
X376141Y182991D01*
X377063Y182609D01*
X378051Y182479D01*
X379040Y182609D01*
X379961Y182991D01*
X380752Y183598D01*
X381360Y184389D01*
X381741Y185311D01*
X381871Y186299D01*
X381741Y187288D01*
X381360Y188209D01*
X380752Y189001D01*
X379961Y189608D01*
X379040Y189989D01*
X378051Y190120D01*
D02*
G37*
G36*
X187992Y200139D02*
X187003Y200009D01*
X186082Y199627D01*
X185291Y199020D01*
X184684Y198229D01*
X184302Y197308D01*
X184172Y196319D01*
X184302Y195330D01*
X184684Y194409D01*
X185291Y193618D01*
X186082Y193011D01*
X187003Y192629D01*
X187992Y192499D01*
X188981Y192629D01*
X189902Y193011D01*
X190693Y193618D01*
X191300Y194409D01*
X191682Y195330D01*
X191812Y196319D01*
X191682Y197308D01*
X191300Y198229D01*
X190693Y199020D01*
X189902Y199627D01*
X188981Y200009D01*
X187992Y200139D01*
D02*
G37*
G36*
Y210139D02*
X187003Y210009D01*
X186082Y209627D01*
X185291Y209020D01*
X184684Y208229D01*
X184302Y207308D01*
X184172Y206319D01*
X184302Y205330D01*
X184684Y204409D01*
X185291Y203618D01*
X186082Y203011D01*
X187003Y202629D01*
X187992Y202499D01*
X188981Y202629D01*
X189902Y203011D01*
X190693Y203618D01*
X191300Y204409D01*
X191682Y205330D01*
X191812Y206319D01*
X191682Y207308D01*
X191300Y208229D01*
X190693Y209020D01*
X189902Y209627D01*
X188981Y210009D01*
X187992Y210139D01*
D02*
G37*
G36*
X138925Y209343D02*
X137213D01*
Y207040D01*
X137303D01*
X137924Y207164D01*
X138450Y207515D01*
X138801Y208041D01*
X138925Y208662D01*
Y209343D01*
D02*
G37*
G36*
X69250Y205642D02*
X63256D01*
Y199648D01*
X64033Y199724D01*
X65260Y200097D01*
X66391Y200701D01*
X67383Y201515D01*
X68197Y202507D01*
X68801Y203638D01*
X69174Y204865D01*
X69250Y205642D01*
D02*
G37*
G36*
X378051Y210120D02*
X377063Y209989D01*
X376141Y209608D01*
X375350Y209001D01*
X374743Y208209D01*
X374361Y207288D01*
X374231Y206299D01*
X374361Y205311D01*
X374743Y204389D01*
X375350Y203598D01*
X376141Y202991D01*
X377063Y202609D01*
X378051Y202479D01*
X379040Y202609D01*
X379961Y202991D01*
X380752Y203598D01*
X381360Y204389D01*
X381741Y205311D01*
X381871Y206299D01*
X381741Y207288D01*
X381360Y208209D01*
X380752Y209001D01*
X379961Y209608D01*
X379040Y209989D01*
X378051Y210120D01*
D02*
G37*
G36*
X353016Y246429D02*
X341275D01*
X341368Y245963D01*
X341915Y245144D01*
Y243715D01*
X341368Y242895D01*
X341275Y242429D01*
X353016D01*
X352923Y242895D01*
X352376Y243715D01*
Y245144D01*
X352923Y245963D01*
X353016Y246429D01*
D02*
G37*
G36*
X378051Y250119D02*
X377063Y249989D01*
X376141Y249608D01*
X375350Y249001D01*
X374743Y248210D01*
X374361Y247288D01*
X374231Y246299D01*
X374361Y245311D01*
X374743Y244389D01*
X375350Y243598D01*
X376141Y242991D01*
X377063Y242610D01*
X378051Y242479D01*
X379040Y242610D01*
X379961Y242991D01*
X380752Y243598D01*
X381360Y244389D01*
X381741Y245311D01*
X381871Y246299D01*
X381741Y247288D01*
X381360Y248210D01*
X380752Y249001D01*
X379961Y249608D01*
X379040Y249989D01*
X378051Y250119D01*
D02*
G37*
G36*
X353016Y241429D02*
X341275D01*
X341368Y240963D01*
X341915Y240144D01*
Y238715D01*
X341368Y237895D01*
X341275Y237429D01*
X353016D01*
X352923Y237895D01*
X352376Y238715D01*
Y240144D01*
X352923Y240963D01*
X353016Y241429D01*
D02*
G37*
G36*
X246717Y246429D02*
X234976D01*
X235069Y245963D01*
X235616Y245144D01*
Y243715D01*
X235069Y242895D01*
X234976Y242429D01*
X246717D01*
X246624Y242895D01*
X246077Y243715D01*
Y245144D01*
X246624Y245963D01*
X246717Y246429D01*
D02*
G37*
G36*
Y251429D02*
X234976D01*
X235069Y250963D01*
X235616Y250144D01*
Y248715D01*
X235069Y247895D01*
X234976Y247429D01*
X246717D01*
X246624Y247895D01*
X246077Y248715D01*
Y250144D01*
X246624Y250963D01*
X246717Y251429D01*
D02*
G37*
G36*
Y256429D02*
X234976D01*
X235069Y255963D01*
X235616Y255144D01*
Y253715D01*
X235069Y252895D01*
X234976Y252429D01*
X246717D01*
X246624Y252895D01*
X246077Y253715D01*
Y255144D01*
X246624Y255963D01*
X246717Y256429D01*
D02*
G37*
G36*
X353016D02*
X341275D01*
X341368Y255963D01*
X341915Y255144D01*
Y253715D01*
X341368Y252895D01*
X341275Y252429D01*
X353016D01*
X352923Y252895D01*
X352376Y253715D01*
Y255144D01*
X352923Y255963D01*
X353016Y256429D01*
D02*
G37*
G36*
Y251429D02*
X341275D01*
X341368Y250963D01*
X341915Y250144D01*
Y248715D01*
X341368Y247895D01*
X341275Y247429D01*
X353016D01*
X352923Y247895D01*
X352376Y248715D01*
Y250144D01*
X352923Y250963D01*
X353016Y251429D01*
D02*
G37*
G36*
X262465Y266429D02*
X250724D01*
X250802Y266039D01*
X250817Y265963D01*
X251135Y264781D01*
X251187Y263573D01*
X251017Y262812D01*
X251016Y262805D01*
X250930Y262373D01*
X250930Y262372D01*
X250929Y262368D01*
X250842Y261929D01*
X250841Y261929D01*
X250845Y261914D01*
X250930Y261486D01*
Y261486D01*
X250990Y261185D01*
Y261185D01*
X251017Y261046D01*
X251113Y260903D01*
X251194Y260442D01*
X251207Y258935D01*
X251049Y258243D01*
X250817Y257895D01*
X250724Y257429D01*
X256594D01*
Y256429D01*
X250724D01*
X250817Y255963D01*
X251364Y255144D01*
Y253715D01*
X250817Y252895D01*
X250724Y252429D01*
X256594D01*
Y251429D01*
X250724D01*
X250817Y250963D01*
X251049Y250616D01*
X251207Y249924D01*
X251194Y248416D01*
X251113Y247955D01*
X251017Y247813D01*
X250951Y247481D01*
D01*
X250918Y247313D01*
X250918Y247313D01*
X250841Y246929D01*
D01*
X250842Y246929D01*
X250927Y246500D01*
X250928Y246493D01*
X250928Y246493D01*
X251015Y246058D01*
X251017Y246046D01*
X251100Y245807D01*
X251302Y244937D01*
X251326Y244429D01*
X251305Y243994D01*
X251244Y243511D01*
X251017Y242812D01*
Y242812D01*
Y242812D01*
X251012Y242789D01*
X250915Y242297D01*
X250915Y242297D01*
X250913Y242290D01*
X250842Y241929D01*
X250841Y241929D01*
D01*
X250916Y241553D01*
Y241553D01*
X250948Y241392D01*
D01*
X251017Y241046D01*
X251240Y240712D01*
X251362Y240150D01*
X251445Y239429D01*
X251362Y238709D01*
X251240Y238147D01*
X251017Y237812D01*
X250928Y237365D01*
X250841Y236929D01*
D01*
X250918Y236546D01*
X251017Y236046D01*
X251113Y235903D01*
X251194Y235442D01*
X251207Y233935D01*
X251049Y233243D01*
X250817Y232895D01*
X250724Y232429D01*
X256594D01*
Y231929D01*
X257095D01*
Y229404D01*
X260039D01*
X261006Y229596D01*
X261768Y230106D01*
X262116Y230040D01*
X263737Y229462D01*
Y160225D01*
X263283Y160037D01*
X262596Y159510D01*
X262070Y158823D01*
X261738Y158024D01*
X261625Y157165D01*
X261738Y156307D01*
X262070Y155508D01*
X262596Y154821D01*
X263283Y154294D01*
X264083Y153963D01*
X264941Y153850D01*
X265799Y153963D01*
X266599Y154294D01*
X267286Y154821D01*
X267813Y155508D01*
X268144Y156307D01*
X268257Y157165D01*
X268144Y158024D01*
X267813Y158823D01*
X267286Y159510D01*
X266599Y160037D01*
X266145Y160225D01*
Y260453D01*
X266054Y260914D01*
X265792Y261304D01*
X264316Y262781D01*
X263926Y263042D01*
X263465Y263134D01*
X263465Y263133D01*
X263243D01*
X261988Y264948D01*
X262140Y265616D01*
X262372Y265963D01*
X262465Y266429D01*
D02*
G37*
G36*
X346646Y231429D02*
X341275D01*
X341368Y230963D01*
X341915Y230144D01*
X342735Y229596D01*
X343701Y229404D01*
X346646D01*
Y231429D01*
D02*
G37*
G36*
X353016D02*
X347646D01*
Y229404D01*
X350591D01*
X351557Y229596D01*
X352376Y230144D01*
X352923Y230963D01*
X353016Y231429D01*
D02*
G37*
G36*
X330898D02*
X325527D01*
X325620Y230963D01*
X326167Y230144D01*
X326987Y229596D01*
X327953Y229404D01*
X330898D01*
Y231429D01*
D02*
G37*
G36*
X337268D02*
X331898D01*
Y229404D01*
X334843D01*
X335809Y229596D01*
X336628Y230144D01*
X337175Y230963D01*
X337268Y231429D01*
D02*
G37*
G36*
X246717Y236429D02*
X234976D01*
X235069Y235963D01*
X235616Y235144D01*
Y233715D01*
X235069Y232895D01*
X234976Y232429D01*
X246717D01*
X246624Y232895D01*
X246077Y233715D01*
Y235144D01*
X246624Y235963D01*
X246717Y236429D01*
D02*
G37*
G36*
X187992Y240139D02*
X187003Y240009D01*
X186082Y239627D01*
X185291Y239020D01*
X184684Y238229D01*
X184302Y237308D01*
X184172Y236319D01*
X184302Y235330D01*
X184684Y234409D01*
X185291Y233618D01*
X186082Y233011D01*
X187003Y232629D01*
X187992Y232499D01*
X188981Y232629D01*
X189902Y233011D01*
X190693Y233618D01*
X191300Y234409D01*
X191682Y235330D01*
X191812Y236319D01*
X191682Y237308D01*
X191300Y238229D01*
X190693Y239020D01*
X189902Y239627D01*
X188981Y240009D01*
X187992Y240139D01*
D02*
G37*
G36*
X246717Y241429D02*
X234976D01*
X235069Y240963D01*
X235616Y240144D01*
Y238715D01*
X235069Y237895D01*
X234976Y237429D01*
X246717D01*
X246624Y237895D01*
X246077Y238715D01*
Y240144D01*
X246624Y240963D01*
X246717Y241429D01*
D02*
G37*
G36*
X353016Y236429D02*
X341275D01*
X341368Y235963D01*
X341915Y235144D01*
Y233715D01*
X341368Y232895D01*
X341275Y232429D01*
X353016D01*
X352923Y232895D01*
X352376Y233715D01*
Y235144D01*
X352923Y235963D01*
X353016Y236429D01*
D02*
G37*
G36*
X378051Y240120D02*
X377063Y239989D01*
X376141Y239608D01*
X375350Y239001D01*
X374743Y238210D01*
X374361Y237288D01*
X374231Y236299D01*
X374361Y235311D01*
X374743Y234389D01*
X375350Y233598D01*
X376141Y232991D01*
X377063Y232610D01*
X378051Y232479D01*
X379040Y232610D01*
X379961Y232991D01*
X380752Y233598D01*
X381360Y234389D01*
X381741Y235311D01*
X381871Y236299D01*
X381741Y237288D01*
X381360Y238210D01*
X380752Y239001D01*
X379961Y239608D01*
X379040Y239989D01*
X378051Y240120D01*
D02*
G37*
%LPD*%
D10*
X159345Y262106D02*
G03*
X145965Y275886I-13580J200D01*
G01*
X34788Y269981D02*
G03*
X28937Y256693I13851J-14030D01*
G01*
X125197Y341831D02*
X125295Y296162D01*
X52654Y257308D02*
X52756Y242126D01*
X28937Y118898D02*
Y256693D01*
X159345Y117655D02*
Y261811D01*
D11*
X45669Y276378D02*
G03*
X39864Y273888I-630J-6543D01*
G01*
D12*
X20374Y324705D02*
D03*
X23130D02*
D03*
X21260Y317028D02*
D03*
X24016D02*
D03*
D13*
X130118Y176378D02*
D03*
X124213D02*
D03*
X58713Y185275D02*
D03*
X64618D02*
D03*
X95888Y104350D02*
D03*
X89982D02*
D03*
X68413Y90375D02*
D03*
X74318D02*
D03*
X65713Y131175D02*
D03*
X71618D02*
D03*
X82874Y131300D02*
D03*
X76968D02*
D03*
X94193Y141634D02*
D03*
X88287D02*
D03*
X88484Y149705D02*
D03*
X94390D02*
D03*
X92673Y132693D02*
D03*
X98578D02*
D03*
X152902Y103167D02*
D03*
X158807D02*
D03*
X47441Y105610D02*
D03*
X53347D02*
D03*
X50962Y136815D02*
D03*
X45057D02*
D03*
X50962Y150988D02*
D03*
X45057D02*
D03*
X51218Y165675D02*
D03*
X45313D02*
D03*
X117815Y162599D02*
D03*
X123721D02*
D03*
X130807Y209843D02*
D03*
X136713D02*
D03*
D14*
X132480Y272441D02*
D03*
Y274409D02*
D03*
Y276378D02*
D03*
Y278346D02*
D03*
Y280315D02*
D03*
X118228D02*
D03*
Y278346D02*
D03*
Y276378D02*
D03*
Y274409D02*
D03*
Y272441D02*
D03*
X45669Y280315D02*
D03*
Y278347D02*
D03*
Y276378D02*
D03*
Y274410D02*
D03*
Y272441D02*
D03*
X59921D02*
D03*
Y274410D02*
D03*
Y276378D02*
D03*
Y278347D02*
D03*
Y280315D02*
D03*
D15*
X129291Y283504D02*
D03*
X127323D02*
D03*
X125354D02*
D03*
X123386D02*
D03*
X121417D02*
D03*
Y269252D02*
D03*
X123386D02*
D03*
X125354D02*
D03*
X127323D02*
D03*
X129291D02*
D03*
X48858D02*
D03*
X50827D02*
D03*
X52795D02*
D03*
X54764D02*
D03*
X56732D02*
D03*
Y283504D02*
D03*
X54764D02*
D03*
X52795D02*
D03*
X50827D02*
D03*
X48858D02*
D03*
D16*
X70276Y109055D02*
D03*
Y107087D02*
D03*
Y105118D02*
D03*
Y103150D02*
D03*
X80512D02*
D03*
Y105118D02*
D03*
Y107087D02*
D03*
Y109055D02*
D03*
D17*
X72441Y100984D02*
D03*
X74410D02*
D03*
X76378D02*
D03*
X78347D02*
D03*
Y111221D02*
D03*
X76378D02*
D03*
X74410D02*
D03*
X72441D02*
D03*
D18*
X64265Y169722D02*
D03*
Y175628D02*
D03*
X28937Y100197D02*
D03*
Y106102D02*
D03*
X51066Y119928D02*
D03*
Y114022D02*
D03*
X60666Y117222D02*
D03*
Y123128D02*
D03*
X124665Y103328D02*
D03*
Y97422D02*
D03*
X108683Y103366D02*
D03*
Y97460D02*
D03*
X57965Y90828D02*
D03*
Y84922D02*
D03*
X47065Y90828D02*
D03*
Y84922D02*
D03*
X32965Y90828D02*
D03*
Y84922D02*
D03*
X19865Y90728D02*
D03*
Y84822D02*
D03*
D19*
X92665Y112560D02*
D03*
Y123190D02*
D03*
D20*
X124606Y204331D02*
D03*
Y206890D02*
D03*
Y209449D02*
D03*
Y212008D02*
D03*
X114291Y204331D02*
D03*
Y206890D02*
D03*
Y209449D02*
D03*
Y212008D02*
D03*
D21*
X256594Y231929D02*
D03*
Y236929D02*
D03*
Y241929D02*
D03*
Y246929D02*
D03*
Y251929D02*
D03*
Y256929D02*
D03*
Y261929D02*
D03*
Y266929D02*
D03*
X240846Y231929D02*
D03*
Y236929D02*
D03*
Y241929D02*
D03*
Y246929D02*
D03*
Y251929D02*
D03*
Y256929D02*
D03*
Y261929D02*
D03*
Y266929D02*
D03*
X347146Y231929D02*
D03*
Y236929D02*
D03*
Y241929D02*
D03*
Y246929D02*
D03*
Y251929D02*
D03*
Y256929D02*
D03*
Y261929D02*
D03*
Y266929D02*
D03*
X331398Y231929D02*
D03*
Y236929D02*
D03*
Y241929D02*
D03*
Y246929D02*
D03*
Y251929D02*
D03*
Y256929D02*
D03*
Y261929D02*
D03*
Y266929D02*
D03*
D22*
X77559Y115236D02*
X81811D01*
X77559D02*
Y117335D01*
X77362Y117532D02*
X77559Y117335D01*
X77362Y117532D02*
Y119783D01*
X76083Y121063D02*
X76084Y121851D01*
X76113Y141622D02*
X87365Y152875D01*
X92713Y124114D02*
Y133665D01*
X87465Y138913D02*
X92713Y133665D01*
X87465Y138913D02*
Y152875D01*
X93265Y158675D01*
X64763Y56707D02*
X68783Y56693D01*
X72965Y60875D01*
X92670Y74146D02*
X107874D01*
X72965Y60875D02*
Y71925D01*
X81811Y115236D02*
X82677Y114370D01*
X76083Y121063D02*
X77362Y119783D01*
X76084Y121851D02*
X76098Y131301D01*
X76113Y141622D01*
D23*
X71618Y118822D02*
X74410Y116031D01*
X123386Y278405D02*
Y283504D01*
X122047Y280315D02*
X123031Y279331D01*
X121417Y280945D02*
X122047Y280315D01*
X121417Y280945D02*
Y283504D01*
X127323Y277992D02*
Y283504D01*
X129035Y280315D02*
X129291Y280571D01*
X128248Y279528D02*
X129035Y280315D01*
X129291Y280571D02*
Y283504D01*
X129035Y280315D02*
X132480D01*
X128445Y278346D02*
X132480D01*
X125354Y276319D02*
X129232Y272441D01*
X127480Y274409D02*
X132480D01*
X125295Y276378D02*
X125354Y276319D01*
X129232Y272441D02*
X132480D01*
X127323Y269252D02*
Y274252D01*
X125354Y269252D02*
Y276319D01*
X122343Y272441D02*
X123425Y273524D01*
X118228Y272441D02*
X122343D01*
X118228Y274409D02*
X123327D01*
X118228Y278346D02*
X123327D01*
X118228Y280315D02*
X122047D01*
X51083Y182192D02*
X54166Y185275D01*
X51083Y165811D02*
Y182192D01*
Y165811D02*
X51665Y165228D01*
X142295Y206890D02*
X143011Y206173D01*
X124606Y206890D02*
X142295D01*
X70276Y107087D02*
X74311D01*
X50827Y278208D02*
X52756Y276280D01*
X50827Y278208D02*
Y283504D01*
X52795Y276319D02*
X54823Y278347D01*
X52756Y276280D02*
X52795Y276319D01*
Y283504D01*
X54823Y278347D02*
X56791Y280315D01*
X54823Y278347D02*
X59921D01*
X56791Y280315D02*
X59921D01*
X54626Y274410D02*
X59921D01*
X48858Y272343D02*
X56693D01*
X54036Y272441D02*
X59921D01*
X56732Y269252D02*
Y272303D01*
X56693Y272343D02*
X56732Y272303D01*
X49705Y273228D02*
Y274410D01*
X48917Y272441D02*
X49705Y273228D01*
X45669Y272441D02*
X48917D01*
X48858Y269252D02*
Y272343D01*
X106791Y237992D02*
X129291Y260492D01*
X74311Y237992D02*
X106791D01*
X101870Y243504D02*
X123386Y265020D01*
X80807Y243504D02*
X101870D01*
X80610Y251575D02*
X107185D01*
X129291Y260492D02*
Y269252D01*
X123386Y265020D02*
Y269252D01*
X121417Y265807D02*
Y269252D01*
X107185Y251575D02*
X121417Y265807D01*
X139220Y103167D02*
X152902D01*
X54764Y292756D02*
X63465Y301458D01*
X8465Y278051D02*
X33957Y303543D01*
X6201Y307579D02*
X15748Y317126D01*
X6201Y42126D02*
Y307579D01*
X12303Y324803D02*
X20571D01*
X3937Y316437D02*
X12303Y324803D01*
X14469Y33858D02*
X120768D01*
X6201Y42126D02*
X14469Y33858D01*
X45669Y274349D02*
Y274410D01*
X256594Y261929D02*
X263465D01*
X256594Y236929D02*
X264941D01*
X119252Y206947D02*
X121811Y209506D01*
X102362Y196752D02*
X105807Y193307D01*
X89764Y196752D02*
X102362D01*
X85827Y192815D02*
X89764Y196752D01*
X105807Y186184D02*
Y193307D01*
X85827Y184712D02*
Y192815D01*
X82303Y181188D02*
X85827Y184712D01*
X105807Y186184D02*
X110803Y181188D01*
X90803Y175646D02*
Y181188D01*
X60865Y145708D02*
X90803Y175646D01*
X64315Y122825D02*
X72441Y114699D01*
Y111221D02*
Y114699D01*
X71618Y118822D02*
Y131175D01*
X378051Y106345D02*
X385827Y98569D01*
Y92520D02*
Y98569D01*
X378445Y85138D02*
X385827Y92520D01*
X332087Y85138D02*
X378445D01*
X198130Y40157D02*
Y87697D01*
X193406Y47244D02*
Y93602D01*
X124016Y177325D02*
Y187894D01*
X119252Y192657D02*
X124016Y187894D01*
X119252Y192657D02*
Y206947D01*
X124114Y161713D02*
Y175197D01*
X63465Y316831D02*
Y335630D01*
Y301458D02*
Y316831D01*
X58563Y316929D02*
X58662Y316831D01*
X63465D01*
X53465Y303543D02*
Y335630D01*
X33957Y303543D02*
X53465D01*
X114272Y121063D02*
Y133169D01*
X121309Y121407D02*
Y125148D01*
X130118Y133957D01*
Y203051D01*
X128781Y204388D02*
X130118Y203051D01*
X124803Y204388D02*
X128781D01*
X103201Y200886D02*
X109162Y206847D01*
X80512Y200886D02*
X103201D01*
X74801Y195175D02*
X80512Y200886D01*
X64765Y195175D02*
X74801D01*
X100803Y181188D02*
X100914Y181077D01*
Y173524D02*
Y181077D01*
X71618Y144228D02*
X100914Y173524D01*
X60865Y123128D02*
Y145708D01*
X109162Y206847D02*
X114503D01*
X111122Y198228D02*
X115059D01*
X108957Y200394D02*
X111122Y198228D01*
X108957Y200394D02*
Y203010D01*
X110335Y204388D01*
X114488D01*
X56732Y283504D02*
Y291397D01*
X68780Y303445D01*
X54764Y283504D02*
Y292756D01*
X64724Y345630D02*
X68780Y341574D01*
X63543Y345630D02*
X64724D01*
X53543Y335630D02*
Y345630D01*
X68780Y303445D02*
Y341574D01*
Y303445D02*
X79134D01*
X60865Y123128D02*
X64013D01*
X60666D02*
X60865D01*
X53838Y105118D02*
X70276D01*
X28543Y106102D02*
X46654D01*
X125295Y283372D02*
Y288287D01*
X59921Y276378D02*
X64173D01*
X114567Y276378D02*
X118228D01*
X52795Y264705D02*
Y269252D01*
X132382Y276378D02*
X138484D01*
X28543Y106102D02*
Y111818D01*
X159252Y103641D02*
Y110531D01*
X48858Y283504D02*
Y292968D01*
X64618Y175981D02*
X64824Y175775D01*
X80803Y181188D02*
X82303D01*
X114488Y206947D02*
X119252D01*
X80512Y109055D02*
X83385D01*
X84665Y107775D01*
X83540Y103150D02*
X84665Y104275D01*
X80512Y103150D02*
X83540D01*
X80512Y105118D02*
X84409D01*
X80512Y107087D02*
X84646D01*
X84665Y105775D02*
X85465D01*
X86890Y104350D01*
X89982D01*
X84665Y104275D02*
Y105775D01*
Y107775D01*
X95888Y104350D02*
X107698D01*
X108683Y103366D01*
X108721Y103328D01*
X124665D01*
X139060D01*
X89982Y107591D02*
X92665Y110275D01*
X89982Y104350D02*
Y107591D01*
X92665Y110275D02*
Y112560D01*
X32149Y90028D02*
X32327Y90206D01*
X72441Y97699D02*
Y100984D01*
Y97699D02*
X74019Y96121D01*
X74410Y91181D02*
Y100984D01*
X54166Y185275D02*
X58713D01*
Y189122D01*
X51066Y113822D02*
X58518D01*
X63285Y109055D01*
X70276D01*
X58713Y189122D02*
X64765Y195175D01*
X90847Y212065D02*
X114488D01*
X103621Y209506D02*
X114488D01*
X100703Y206588D02*
X103621Y209506D01*
X71618Y131175D02*
Y144228D01*
X23917Y317028D02*
X36811D01*
X23327Y324803D02*
X37402D01*
X48858Y268150D02*
Y269252D01*
X64828Y181188D02*
X80803D01*
X64618Y175981D02*
Y185275D01*
X218051Y66339D02*
Y83898D01*
X293209Y159055D01*
Y220866D01*
X319272Y246929D01*
X331398D01*
X315886Y256929D02*
X331398D01*
X317185Y251929D02*
X331398D01*
X287697Y222441D02*
X317185Y251929D01*
X287697Y158268D02*
Y222441D01*
X281398Y159843D02*
Y222441D01*
X315886Y256929D01*
X212894Y83465D02*
X287697Y158268D01*
X202264Y80709D02*
X281398Y159843D01*
X222106Y50394D02*
X228051Y56339D01*
X206595Y50394D02*
X222106D01*
X202264Y54725D02*
X206595Y50394D01*
X202264Y54725D02*
Y80709D01*
X212894Y65354D02*
Y83465D01*
Y65354D02*
X216831Y61417D01*
X223130D01*
X228051Y66339D01*
X320965Y241929D02*
X331398D01*
X298721Y219685D02*
X320965Y241929D01*
X298721Y156299D02*
Y219685D01*
X232973Y90551D02*
X298721Y156299D01*
X232973Y61418D02*
Y90551D01*
Y61418D02*
X238051Y56339D01*
X120768Y33858D02*
X180217Y93307D01*
Y106299D01*
X185335Y111417D01*
X193209D01*
X232973Y273228D02*
X304232D01*
X315532Y261929D01*
X331398D01*
X281004Y27559D02*
X303051Y49606D01*
Y215748D01*
X324232Y236929D01*
X331398D01*
X15748Y317126D02*
X21063D01*
X74410Y111221D02*
Y116031D01*
X114272Y133169D02*
X117618Y136516D01*
X115059Y198228D02*
X117618Y195669D01*
Y136516D02*
Y195669D01*
X329921Y82973D02*
X332087Y85138D01*
X317323Y82973D02*
X329921D01*
X323524Y89567D02*
X330302Y96345D01*
X317225Y89567D02*
X323524D01*
X330302Y96345D02*
X378051D01*
X264941Y157165D02*
Y260453D01*
X263465Y261929D02*
X264941Y260453D01*
X45472Y55709D02*
X47106Y57343D01*
X8465Y59941D02*
Y278051D01*
Y59941D02*
X12697Y55709D01*
X45472D01*
X48858Y292968D02*
X53465Y297575D01*
Y303543D01*
X3937Y40157D02*
Y316437D01*
Y40157D02*
X16535Y27559D01*
X281004D01*
X45669Y274410D02*
X49705D01*
X45669Y280315D02*
X48720D01*
X49705Y279331D01*
X45669Y278347D02*
X49606D01*
X49705Y274410D02*
Y279331D01*
X54764Y269252D02*
Y272303D01*
X50827Y269252D02*
Y272284D01*
X28937Y95768D02*
Y100197D01*
X28445Y95276D02*
X28937Y95768D01*
X124606Y209449D02*
X130413D01*
X121811Y209506D02*
X124803D01*
X193209Y111417D02*
X199606Y117815D01*
Y239862D01*
X232973Y273228D01*
X207933Y108130D02*
Y142815D01*
X193406Y93602D02*
X207933Y108130D01*
X198130Y87697D02*
X218307Y107874D01*
Y142815D01*
D24*
X76378Y111221D02*
Y114173D01*
D25*
X125492Y343006D02*
Y366437D01*
X52658Y239862D02*
X52756Y216142D01*
D26*
X73229Y276378D02*
X106398D01*
D27*
X50962Y165375D02*
X73765D01*
X50962Y136815D02*
Y165161D01*
Y120028D02*
Y136815D01*
X73481Y82975D02*
X82581Y73875D01*
X19365Y90790D02*
X68413D01*
X69365Y82975D02*
X73481D01*
X61765Y90575D02*
X69365Y82975D01*
D28*
X125443Y276280D02*
D03*
D29*
X52756Y276575D02*
D03*
D30*
X106693Y73819D02*
D03*
Y63819D02*
D03*
X53543Y345630D02*
D03*
X63543Y335630D02*
D03*
Y345630D02*
D03*
X73543Y335630D02*
D03*
Y345630D02*
D03*
X72966Y73875D02*
D03*
X82965D02*
D03*
X92966D02*
D03*
X80803Y181188D02*
D03*
Y191188D02*
D03*
X90803Y181188D02*
D03*
Y191188D02*
D03*
X100803Y181188D02*
D03*
Y191188D02*
D03*
X110803Y181188D02*
D03*
X208012Y142815D02*
D03*
X217972D02*
D03*
D31*
X53543Y335630D02*
D03*
X110803Y191188D02*
D03*
D32*
X208051Y56339D02*
D03*
Y66339D02*
D03*
X218051Y56339D02*
D03*
Y66339D02*
D03*
X228051Y56339D02*
D03*
Y66339D02*
D03*
X238051Y56339D02*
D03*
Y66339D02*
D03*
X248051Y56339D02*
D03*
Y66339D02*
D03*
X258051Y56339D02*
D03*
Y66339D02*
D03*
X268051Y56339D02*
D03*
Y66339D02*
D03*
X278051Y56339D02*
D03*
Y66339D02*
D03*
X288051Y56339D02*
D03*
Y66339D02*
D03*
X298051Y56339D02*
D03*
Y66339D02*
D03*
X308051Y56339D02*
D03*
Y66339D02*
D03*
X318051Y56339D02*
D03*
Y66339D02*
D03*
X328051Y56339D02*
D03*
Y66339D02*
D03*
X338051Y56339D02*
D03*
Y66339D02*
D03*
X348051Y56339D02*
D03*
Y66339D02*
D03*
X358051Y56339D02*
D03*
Y66339D02*
D03*
X368051Y56339D02*
D03*
Y66339D02*
D03*
X378051Y56339D02*
D03*
Y66339D02*
D03*
Y362303D02*
D03*
Y352303D02*
D03*
Y342303D02*
D03*
Y332303D02*
D03*
Y322303D02*
D03*
Y312303D02*
D03*
Y302303D02*
D03*
Y292303D02*
D03*
Y282303D02*
D03*
Y272303D02*
D03*
X187992Y146358D02*
D03*
Y136358D02*
D03*
Y126358D02*
D03*
Y116358D02*
D03*
Y106358D02*
D03*
Y96358D02*
D03*
Y86358D02*
D03*
Y76358D02*
D03*
Y236319D02*
D03*
Y226319D02*
D03*
Y216319D02*
D03*
Y206319D02*
D03*
Y196319D02*
D03*
Y186319D02*
D03*
Y176319D02*
D03*
Y166319D02*
D03*
Y326280D02*
D03*
Y316280D02*
D03*
Y306280D02*
D03*
Y296280D02*
D03*
Y286280D02*
D03*
Y276280D02*
D03*
Y266280D02*
D03*
Y256280D02*
D03*
X378051Y256299D02*
D03*
Y246299D02*
D03*
Y236299D02*
D03*
Y226299D02*
D03*
Y216299D02*
D03*
Y206299D02*
D03*
Y196299D02*
D03*
Y186299D02*
D03*
Y166339D02*
D03*
Y156339D02*
D03*
Y146339D02*
D03*
Y136339D02*
D03*
Y126339D02*
D03*
Y116339D02*
D03*
Y106339D02*
D03*
Y96339D02*
D03*
D33*
X125492Y366437D02*
D03*
X52756Y216142D02*
D03*
D34*
X115492Y356437D02*
D03*
X135492D02*
D03*
Y376437D02*
D03*
X115492D02*
D03*
X62756Y226142D02*
D03*
X42756D02*
D03*
Y206142D02*
D03*
X62756D02*
D03*
D35*
X106693Y11319D02*
D03*
X238189D02*
D03*
Y142815D02*
D03*
X106693D02*
D03*
X11811Y11811D02*
D03*
X382973D02*
D03*
X382973Y374410D02*
D03*
X11811Y374410D02*
D03*
D36*
X313197Y28051D02*
D03*
X47343Y57579D02*
D03*
X357284Y28051D02*
D03*
D37*
X361910Y90650D02*
D03*
X207677Y76772D02*
D03*
X212500Y120473D02*
D03*
X233563Y160925D02*
D03*
X353445Y354528D02*
D03*
X364272Y319488D02*
D03*
X273622Y224508D02*
D03*
X365059Y245177D02*
D03*
X166732Y45669D02*
D03*
X130217Y68996D02*
D03*
X160138Y309449D02*
D03*
X11614Y338878D02*
D03*
X43996Y311122D02*
D03*
X82973Y124213D02*
D03*
X56201Y141437D02*
D03*
X66437D02*
D03*
X74508Y153051D02*
D03*
X93110Y172047D02*
D03*
X75295Y106102D02*
D03*
X57382Y176673D02*
D03*
X75098Y173327D02*
D03*
X125295Y276378D02*
D03*
X52756Y276280D02*
D03*
X79134Y303445D02*
D03*
X74311Y237992D02*
D03*
X80807Y243504D02*
D03*
X99320Y292710D02*
D03*
X93320D02*
D03*
X87320D02*
D03*
X69340Y292222D02*
D03*
X63771Y289990D02*
D03*
X84214Y260047D02*
D03*
X90214D02*
D03*
X96214D02*
D03*
X102214D02*
D03*
X108212Y260175D02*
D03*
X136502Y262590D02*
D03*
X141951Y260079D02*
D03*
X143011Y254173D02*
D03*
Y248173D02*
D03*
Y242173D02*
D03*
Y236173D02*
D03*
Y230173D02*
D03*
Y224173D02*
D03*
Y218173D02*
D03*
Y212173D02*
D03*
Y206173D02*
D03*
Y200173D02*
D03*
Y194173D02*
D03*
Y188173D02*
D03*
Y182173D02*
D03*
Y176173D02*
D03*
Y170173D02*
D03*
Y164173D02*
D03*
Y158173D02*
D03*
Y152173D02*
D03*
Y146173D02*
D03*
Y140173D02*
D03*
Y134173D02*
D03*
Y128173D02*
D03*
Y122173D02*
D03*
X143107Y116174D02*
D03*
X144650Y110376D02*
D03*
X147635Y98962D02*
D03*
X150777Y93850D02*
D03*
X156146Y91171D02*
D03*
X162143Y91330D02*
D03*
X167332Y94344D02*
D03*
X170168Y99632D02*
D03*
X170970Y105578D02*
D03*
X174098Y110698D02*
D03*
X175615Y116503D02*
D03*
X175678Y122503D02*
D03*
Y128503D02*
D03*
Y134503D02*
D03*
Y140503D02*
D03*
Y146503D02*
D03*
Y152503D02*
D03*
Y158503D02*
D03*
Y164503D02*
D03*
Y170503D02*
D03*
Y176503D02*
D03*
Y182503D02*
D03*
Y188503D02*
D03*
Y194503D02*
D03*
Y200503D02*
D03*
Y206503D02*
D03*
Y212503D02*
D03*
Y218503D02*
D03*
Y224503D02*
D03*
Y230503D02*
D03*
Y236503D02*
D03*
Y242503D02*
D03*
Y248503D02*
D03*
Y254503D02*
D03*
Y260503D02*
D03*
X175372Y266495D02*
D03*
X173927Y272318D02*
D03*
X171379Y277750D02*
D03*
X167769Y282543D02*
D03*
X163292Y286538D02*
D03*
X158100Y289545D02*
D03*
X152413Y291455D02*
D03*
X109099Y344513D02*
D03*
X108871Y338517D02*
D03*
X108884Y332517D02*
D03*
X108897Y326517D02*
D03*
X108909Y320517D02*
D03*
X108922Y314517D02*
D03*
X108935Y308517D02*
D03*
X108948Y302517D02*
D03*
X108961Y296517D02*
D03*
X141624Y298210D02*
D03*
X141612Y304210D02*
D03*
X141599Y310210D02*
D03*
X141586Y316210D02*
D03*
X141573Y322210D02*
D03*
X141560Y328210D02*
D03*
X141547Y334210D02*
D03*
X141534Y340210D02*
D03*
X140918Y346178D02*
D03*
X161417Y355315D02*
D03*
X50947Y201913D02*
D03*
X67125Y215961D02*
D03*
X68915Y245595D02*
D03*
X68952Y251595D02*
D03*
X68958Y257595D02*
D03*
X34139Y286646D02*
D03*
X27488Y284567D02*
D03*
X22031Y280233D02*
D03*
X17833Y274671D02*
D03*
X14806Y268394D02*
D03*
X13070Y261646D02*
D03*
X12604Y254693D02*
D03*
Y247724D02*
D03*
Y240756D02*
D03*
Y233787D02*
D03*
Y226819D02*
D03*
Y219850D02*
D03*
Y212882D02*
D03*
Y205913D02*
D03*
Y198945D02*
D03*
Y191976D02*
D03*
Y185008D02*
D03*
Y178039D02*
D03*
Y171071D02*
D03*
Y164102D02*
D03*
Y157134D02*
D03*
Y150165D02*
D03*
Y143197D02*
D03*
Y136228D02*
D03*
Y129260D02*
D03*
Y122291D02*
D03*
X12985Y115333D02*
D03*
X15364Y108783D02*
D03*
X36024Y96063D02*
D03*
X55277Y96099D02*
D03*
X45271Y123761D02*
D03*
Y130729D02*
D03*
Y158603D02*
D03*
Y172540D02*
D03*
Y179509D02*
D03*
Y186477D02*
D03*
Y193446D02*
D03*
X80610Y251575D02*
D03*
X82677Y114370D02*
D03*
X198130Y40157D02*
D03*
X193406Y47244D02*
D03*
X58563Y316929D02*
D03*
X121654Y121063D02*
D03*
X114272D02*
D03*
X73765Y165375D02*
D03*
X100703Y206588D02*
D03*
X93265Y158675D02*
D03*
X37402Y324803D02*
D03*
X36811Y317028D02*
D03*
X264941Y157165D02*
D03*
X332874Y117126D02*
D03*
X317126Y137106D02*
D03*
X342323Y161221D02*
D03*
X322933Y191634D02*
D03*
X353445Y213189D02*
D03*
X349213Y132874D02*
D03*
X325591Y165945D02*
D03*
X294783Y134547D02*
D03*
X265158Y106102D02*
D03*
X277953Y92421D02*
D03*
X284547Y114665D02*
D03*
X247343Y165453D02*
D03*
X233760Y214862D02*
D03*
X253051Y223228D02*
D03*
X247343Y186909D02*
D03*
X248327Y91929D02*
D03*
X188484Y19390D02*
D03*
X138878Y45571D02*
D03*
X183760Y68307D02*
D03*
X90551Y58662D02*
D03*
X208957Y164567D02*
D03*
X231890Y184646D02*
D03*
X208957Y217028D02*
D03*
X241437Y296358D02*
D03*
X289173Y333563D02*
D03*
X292914Y291043D02*
D03*
X333071Y331201D02*
D03*
X224705Y337402D02*
D03*
X266240Y309252D02*
D03*
X340256Y291043D02*
D03*
X316831Y309646D02*
D03*
X282480Y252854D02*
D03*
X272933Y194193D02*
D03*
X215650Y274803D02*
D03*
X98228Y359941D02*
D03*
X97244Y334449D02*
D03*
X32973Y366732D02*
D03*
X60925Y369980D02*
D03*
X17520Y302658D02*
D03*
X36122Y294980D02*
D03*
X115059Y39075D02*
D03*
X69980Y14665D02*
D03*
X96752Y44291D02*
D03*
X17520Y66142D02*
D03*
X26575Y79232D02*
D03*
X135433Y34744D02*
D03*
X227559Y20866D02*
D03*
X334941Y91240D02*
D03*
X319193Y110630D02*
D03*
X337402Y211319D02*
D03*
X99803Y221555D02*
D03*
X101575Y233366D02*
D03*
X83858Y224803D02*
D03*
X85335Y317914D02*
D03*
X94882Y86417D02*
D03*
X104921Y164173D02*
D03*
X60039Y156988D02*
D03*
X131890Y236713D02*
D03*
X16043Y98327D02*
D03*
X90847Y212106D02*
D03*
X32776Y347539D02*
D03*
X260039Y352362D02*
D03*
X317225Y89567D02*
D03*
X317323Y82973D02*
D03*
X53543Y303642D02*
D03*
M02*
