M48
;Layer_Color=9474304
;FILE_FORMAT=2:5
INCH,LZ
;TYPE=PLATED
T1F00S00C0.02799
T2F00S00C0.02800
T3F00S00C0.03000
T4F00S00C0.03543
T5F00S00C0.04724
T6F00S00C0.06693
T7F00S00C0.07874
T8F00S00C0.25591
;TYPE=NON_PLATED
T9F00S00C0.25591
%
T01
X0015364Y0108783
X0012985Y0115333
X0012604Y0122291
Y012926
Y0136228
Y0143197
Y0150165
Y0157134
Y0164102
Y0171071
X0045271Y017254
Y0158603
Y0130729
Y0123761
X0036024Y0096063
X0055277Y0096099
X0045271Y0179509
Y0186477
Y0193446
X0012604Y0191976
Y0198945
Y0205913
Y0212882
Y021985
Y0226819
Y0233787
Y0240756
Y0247724
Y0254693
X001307Y0261646
X0014806Y0268394
X0017833Y0274671
X0022031Y0280233
X0027488Y0284567
X0034139Y0286646
X0012604Y0185008
Y0178039
T02
X006998Y0014665
X0096752Y0044291
X0090551Y0058662
X0094882Y0086417
X0075295Y0106102
X0082677Y011437
X0082973Y0124213
X0066437Y0141437
X0056201
X0060039Y0156988
X0074508Y0153051
X0073765Y0165375
X009311Y0172047
X0093265Y0158675
X0104921Y0164173
X0143011Y0164173
Y0170173
Y0158173
Y0152173
Y0146173
Y0140173
Y0134173
Y0128173
Y0122173
X0143107Y0116174
X014465Y0110376
X0147635Y0098962
X0150777Y009385
X0130217Y0068996
X0138878Y0045571
X0135433Y0034744
X0115059Y0039075
X0114272Y0121063
X0121654
X0016043Y0098327
X0026575Y0079232
X001752Y0066142
X0156146Y0091171
X0162143Y009133
X0167332Y0094344
X0170168Y0099632
X017097Y0105578
X0174098Y0110698
X0175615Y0116503
X0175678Y0122503
Y0128503
Y0134503
Y0140503
Y0146503
Y0152503
Y0158503
Y0164503
Y0170503
X0208957Y0164567
X0233563Y0160925
X0247343Y0165453
X0264941Y0157165
X0265158Y0106102
X0277953Y0092421
X0284547Y0114665
X0294783Y0134547
X0248327Y0091929
X0207677Y0076772
X018376Y0068307
X0193406Y0047244
X019813Y0040157
X0188484Y001939
X0227559Y0020866
X0166732Y0045669
X02125Y0120473
X0319193Y011063
X0332874Y0117126
X0334941Y009124
X0317225Y0089567
X0317323Y0082973
X036191Y009065
X0349213Y0132874
X0342323Y0161221
X0325591Y0165945
X0317126Y0137106
X0322933Y0191634
X0337402Y0211319
X0353445Y0213189
X0365059Y0245177
X0340256Y0291043
X0316831Y0309646
X0364272Y0319488
X0292914Y0291043
X026624Y0309252
X0241437Y0296358
X021565Y0274803
X0173927Y0272318
X0175372Y0266495
X0175678Y0260503
Y0254503
Y0248503
Y0242503
Y0236503
Y0230503
Y0224503
Y0218503
Y0212503
Y0206503
Y0200503
Y0194503
Y0188503
Y0182503
Y0176503
X023189Y0184646
X0247343Y0186909
X0272933Y0194193
X0273622Y0224508
X0253051Y0223228
X023376Y0214862
X0208957Y0217028
X0171379Y027775
X0167769Y0282543
X0163292Y0286538
X01581Y0289545
X0160138Y0309449
X028248Y0252854
X0143011Y0254173
Y0248173
Y0242173
Y0236173
Y0230173
Y0224173
Y0218173
Y0212173
Y0206173
Y0200173
Y0194173
Y0188173
Y0182173
Y0176173
X0075098Y0173327
X0057382Y0176673
X0050947Y0201913
X0067125Y0215961
X0083858Y0224803
X0099803Y0221555
X0101575Y0233366
X0102214Y0260047
X0096214
X0090214
X0084214
X008061Y0251575
X0080807Y0243504
X0074311Y0237992
X0068915Y0245595
X0068952Y0251595
X0068958Y0257595
X0052756Y027628
X0063771Y028999
X006934Y0292222
X008732Y029271
X009332
X009932
X0108961Y0296517
X0108948Y0302517
X0108935Y0308517
X0108922Y0314517
X0108909Y0320517
X0108897Y0326517
X0085335Y0317914
X0079134Y0303445
X0053543Y0303642
X0043996Y0311122
X0036811Y0317028
X0037402Y0324803
X0058563Y0316929
X0036122Y029498
X001752Y0302658
X0141612Y030421
X0141624Y029821
X0141599Y031021
X0141586Y031621
X0141573Y032221
X014156Y032821
X0152413Y0291455
X0141951Y0260079
X0136502Y026259
X0125295Y0276378
X0108212Y0260175
X013189Y0236713
X0100703Y0206588
X0090847Y0212106
X0097244Y0334449
X0108884Y0332517
X0108871Y0338517
X0109099Y0344513
X0098228Y0359941
X0060925Y036998
X0032973Y0366732
X0032776Y0347539
X0011614Y0338878
X0141534Y034021
X0141547Y033421
X0140918Y0346178
X0161417Y0355315
X0224705Y0337402
X0260039Y0352362
X0289173Y0333563
X0333071Y0331201
X0353445Y0354528
T03
X0187992Y0076358
Y0086358
Y0096358
Y0106358
Y0116358
Y0126358
Y0136358
Y0146358
Y0166319
X0208051Y0066339
Y0056339
X0218051
Y0066339
X0228051
Y0056339
X0238051
Y0066339
X0248051
Y0056339
X0258051
Y0066339
X0268051
Y0056339
X0278051
Y0066339
X0288051
Y0056339
X0298051
Y0066339
X0308051
Y0056339
X0318051
Y0066339
X0328051
Y0056339
X0338051
Y0066339
X0348051
Y0056339
X0358051
Y0066339
X0368051
Y0056339
X0378051
Y0066339
Y0096339
Y0106339
Y0116339
Y0126339
Y0136339
Y0146339
Y0156339
Y0166339
Y0186299
Y0196299
Y0206299
Y0216299
Y0226299
Y0236299
Y0246299
Y0256299
Y0272303
Y0282303
Y0292303
Y0302303
Y0312303
Y0322303
X0187992Y032628
Y031628
Y030628
Y029628
Y028628
Y027628
Y026628
Y025628
Y0236319
Y0226319
Y0216319
Y0206319
Y0196319
Y0186319
Y0176319
X0378051Y0332303
Y0342303
Y0352303
Y0362303
T04
X0072966Y0073875
X0082965
X0092966
X0106693Y0073819
Y0063819
X0208012Y0142815
X0217972
X0110803Y0181188
X0100803
X0090803
X0080803
Y0191188
X0090803
X0100803
X0110803
X0073543Y033563
X0063543
X0053543
Y034563
X0063543
X0073543
T05
X0052756Y0216142
X0125492Y0366437
T06
X0042756Y0206142
Y0226142
X0062756
Y0206142
X0115492Y0356437
X0135492
Y0376437
X0115492
T07
X0382973Y0011811
X0238189Y0011319
X0106693
X0011811Y0011811
X0106693Y0142815
X0238189
X0011811Y037441
X0382973Y037441
T08
X0047343Y0057579
X0357284Y0028051
T09
X0313197Y0028051
M30
