%FSLAX25Y25*%
%MOIN*%
G70*
G01*
G75*
G04 Layer_Color=8388736*
G04:AMPARAMS|DCode=10|XSize=23.62mil|YSize=35.43mil|CornerRadius=5.91mil|HoleSize=0mil|Usage=FLASHONLY|Rotation=0.000|XOffset=0mil|YOffset=0mil|HoleType=Round|Shape=RoundedRectangle|*
%AMROUNDEDRECTD10*
21,1,0.02362,0.02362,0,0,0.0*
21,1,0.01181,0.03543,0,0,0.0*
1,1,0.01181,0.00591,-0.01181*
1,1,0.01181,-0.00591,-0.01181*
1,1,0.01181,-0.00591,0.01181*
1,1,0.01181,0.00591,0.01181*
%
%ADD10ROUNDEDRECTD10*%
G04:AMPARAMS|DCode=11|XSize=23.62mil|YSize=35.43mil|CornerRadius=5.91mil|HoleSize=0mil|Usage=FLASHONLY|Rotation=270.000|XOffset=0mil|YOffset=0mil|HoleType=Round|Shape=RoundedRectangle|*
%AMROUNDEDRECTD11*
21,1,0.02362,0.02362,0,0,270.0*
21,1,0.01181,0.03543,0,0,270.0*
1,1,0.01181,-0.01181,-0.00591*
1,1,0.01181,-0.01181,0.00591*
1,1,0.01181,0.01181,0.00591*
1,1,0.01181,0.01181,-0.00591*
%
%ADD11ROUNDEDRECTD11*%
%ADD12R,0.01575X0.02165*%
%ADD13O,0.05512X0.01772*%
%ADD14O,0.08268X0.01772*%
%ADD15R,0.06102X0.05315*%
%ADD16R,0.06693X0.04331*%
%ADD17R,0.04331X0.06693*%
%ADD18R,0.02165X0.01575*%
%ADD19O,0.05709X0.02165*%
%ADD20O,0.05709X0.02165*%
%ADD21O,0.02165X0.05709*%
%ADD22O,0.02165X0.05709*%
%ADD23R,0.05906X0.12598*%
G04:AMPARAMS|DCode=24|XSize=86.61mil|YSize=248.03mil|CornerRadius=21.65mil|HoleSize=0mil|Usage=FLASHONLY|Rotation=270.000|XOffset=0mil|YOffset=0mil|HoleType=Round|Shape=RoundedRectangle|*
%AMROUNDEDRECTD24*
21,1,0.08661,0.20472,0,0,270.0*
21,1,0.04331,0.24803,0,0,270.0*
1,1,0.04331,-0.10236,-0.02165*
1,1,0.04331,-0.10236,0.02165*
1,1,0.04331,0.10236,0.02165*
1,1,0.04331,0.10236,-0.02165*
%
%ADD24ROUNDEDRECTD24*%
%ADD25R,0.08740X0.04449*%
%ADD26R,0.05512X0.03937*%
%ADD27R,0.02756X0.03543*%
%ADD28R,0.03543X0.02756*%
%ADD29R,0.03740X0.01772*%
%ADD30O,0.05709X0.01181*%
%ADD31O,0.01181X0.05709*%
%ADD32R,0.02559X0.06299*%
%ADD33O,0.03347X0.01575*%
%ADD34R,0.05906X0.03150*%
%ADD35R,0.07480X0.05512*%
%ADD36R,0.05512X0.05118*%
%ADD37O,0.01181X0.03937*%
%ADD38R,0.11201X0.06500*%
%ADD39R,0.05512X0.06299*%
%ADD40R,0.01772X0.03740*%
%ADD41O,0.05906X0.01181*%
%ADD42O,0.01181X0.05906*%
%ADD43R,0.05512X0.04331*%
%ADD44C,0.01969*%
%ADD45C,0.00787*%
%ADD46C,0.01575*%
%ADD47C,0.00984*%
%ADD48C,0.03543*%
G04:AMPARAMS|DCode=49|XSize=62.01mil|YSize=62.01mil|CornerRadius=0mil|HoleSize=0mil|Usage=FLASHONLY|Rotation=0.000|XOffset=0mil|YOffset=0mil|HoleType=Round|Shape=Octagon|*
%AMOCTAGOND49*
4,1,8,0.03100,-0.01550,0.03100,0.01550,0.01550,0.03100,-0.01550,0.03100,-0.03100,0.01550,-0.03100,-0.01550,-0.01550,-0.03100,0.01550,-0.03100,0.03100,-0.01550,0.0*
%
%ADD49OCTAGOND49*%

%ADD50C,0.19685*%
%ADD51C,0.06000*%
%ADD52C,0.05000*%
%ADD53C,0.00394*%
%ADD54C,0.02362*%
%ADD55C,0.01000*%
%ADD56C,0.00492*%
G04:AMPARAMS|DCode=57|XSize=31.62mil|YSize=43.43mil|CornerRadius=9.91mil|HoleSize=0mil|Usage=FLASHONLY|Rotation=0.000|XOffset=0mil|YOffset=0mil|HoleType=Round|Shape=RoundedRectangle|*
%AMROUNDEDRECTD57*
21,1,0.03162,0.02362,0,0,0.0*
21,1,0.01181,0.04343,0,0,0.0*
1,1,0.01981,0.00591,-0.01181*
1,1,0.01981,-0.00591,-0.01181*
1,1,0.01981,-0.00591,0.01181*
1,1,0.01981,0.00591,0.01181*
%
%ADD57ROUNDEDRECTD57*%
G04:AMPARAMS|DCode=58|XSize=31.62mil|YSize=43.43mil|CornerRadius=9.91mil|HoleSize=0mil|Usage=FLASHONLY|Rotation=270.000|XOffset=0mil|YOffset=0mil|HoleType=Round|Shape=RoundedRectangle|*
%AMROUNDEDRECTD58*
21,1,0.03162,0.02362,0,0,270.0*
21,1,0.01181,0.04343,0,0,270.0*
1,1,0.01981,-0.01181,-0.00591*
1,1,0.01981,-0.01181,0.00591*
1,1,0.01981,0.01181,0.00591*
1,1,0.01981,0.01181,-0.00591*
%
%ADD58ROUNDEDRECTD58*%
%ADD59R,0.02375X0.02965*%
%ADD60O,0.06312X0.02572*%
%ADD61O,0.09068X0.02572*%
%ADD62R,0.06902X0.06115*%
%ADD63R,0.07493X0.05131*%
%ADD64R,0.05131X0.07493*%
%ADD65R,0.02965X0.02375*%
%ADD66O,0.06509X0.02965*%
%ADD67O,0.06509X0.02965*%
%ADD68O,0.02965X0.06509*%
%ADD69O,0.02965X0.06509*%
%ADD70R,0.06706X0.13398*%
G04:AMPARAMS|DCode=71|XSize=94.61mil|YSize=256.03mil|CornerRadius=25.65mil|HoleSize=0mil|Usage=FLASHONLY|Rotation=270.000|XOffset=0mil|YOffset=0mil|HoleType=Round|Shape=RoundedRectangle|*
%AMROUNDEDRECTD71*
21,1,0.09461,0.20472,0,0,270.0*
21,1,0.04331,0.25603,0,0,270.0*
1,1,0.05131,-0.10236,-0.02165*
1,1,0.05131,-0.10236,0.02165*
1,1,0.05131,0.10236,0.02165*
1,1,0.05131,0.10236,-0.02165*
%
%ADD71ROUNDEDRECTD71*%
%ADD72R,0.09540X0.05249*%
%ADD73R,0.06312X0.04737*%
%ADD74R,0.03556X0.04343*%
%ADD75R,0.04343X0.03556*%
%ADD76R,0.04540X0.02572*%
%ADD77O,0.06509X0.01981*%
%ADD78O,0.01981X0.06509*%
%ADD79R,0.03359X0.07099*%
%ADD80O,0.04147X0.02375*%
%ADD81R,0.06706X0.03950*%
%ADD82R,0.08280X0.06312*%
%ADD83R,0.06312X0.05918*%
%ADD84O,0.01981X0.04737*%
%ADD85R,0.12001X0.07300*%
%ADD86R,0.06312X0.07099*%
%ADD87R,0.02572X0.04540*%
%ADD88O,0.06706X0.01981*%
%ADD89O,0.01981X0.06706*%
%ADD90R,0.06312X0.05131*%
%ADD91C,0.04343*%
G04:AMPARAMS|DCode=92|XSize=70.01mil|YSize=70.01mil|CornerRadius=0mil|HoleSize=0mil|Usage=FLASHONLY|Rotation=0.000|XOffset=0mil|YOffset=0mil|HoleType=Round|Shape=Octagon|*
%AMOCTAGOND92*
4,1,8,0.03500,-0.01750,0.03500,0.01750,0.01750,0.03500,-0.01750,0.03500,-0.03500,0.01750,-0.03500,-0.01750,-0.01750,-0.03500,0.01750,-0.03500,0.03500,-0.01750,0.0*
%
%ADD92OCTAGOND92*%

%ADD93C,0.20485*%
%ADD94C,0.06800*%
%ADD95C,0.05800*%
D57*
X92815Y340945D02*
D03*
X96949D02*
D03*
X230512Y328543D02*
D03*
X234646D02*
D03*
X72638Y60728D02*
D03*
X76772D02*
D03*
X277657Y302559D02*
D03*
X273524D02*
D03*
X47343Y306004D02*
D03*
X43209D02*
D03*
X225492Y30315D02*
D03*
X229626D02*
D03*
X309941Y60236D02*
D03*
X305807D02*
D03*
X253445Y30610D02*
D03*
X249311D02*
D03*
X109449Y59252D02*
D03*
X113583D02*
D03*
X84744Y311811D02*
D03*
X90650D02*
D03*
X210925Y318701D02*
D03*
X216831D02*
D03*
X318406Y40945D02*
D03*
X324311D02*
D03*
X317028Y25098D02*
D03*
X322933D02*
D03*
X318602Y50885D02*
D03*
X324508D02*
D03*
X265256Y57185D02*
D03*
X259350D02*
D03*
X142618Y140157D02*
D03*
X136713D02*
D03*
X244980Y245570D02*
D03*
X239075D02*
D03*
X294882Y232776D02*
D03*
X300787D02*
D03*
X143898Y175788D02*
D03*
X149803D02*
D03*
X143898Y155315D02*
D03*
X149803D02*
D03*
X122244Y231595D02*
D03*
X128150D02*
D03*
X75689Y343012D02*
D03*
X69783D02*
D03*
X197835Y338583D02*
D03*
X191929D02*
D03*
X299311Y342618D02*
D03*
X293406D02*
D03*
X113583Y236122D02*
D03*
X119488D02*
D03*
X116929Y225886D02*
D03*
X122835D02*
D03*
X144783Y197343D02*
D03*
X150689D02*
D03*
X144783Y220079D02*
D03*
X150689D02*
D03*
D58*
X337008Y330906D02*
D03*
Y326772D02*
D03*
X170079Y306693D02*
D03*
Y310827D02*
D03*
X247933Y134646D02*
D03*
Y140551D02*
D03*
X234252Y191339D02*
D03*
Y197244D02*
D03*
X129035Y40551D02*
D03*
Y36417D02*
D03*
X81102Y343110D02*
D03*
Y337205D02*
D03*
X64468Y342913D02*
D03*
Y337008D02*
D03*
X187204Y339567D02*
D03*
Y333661D02*
D03*
X202165Y339567D02*
D03*
Y333661D02*
D03*
X287204Y344094D02*
D03*
Y338189D02*
D03*
X306004Y343898D02*
D03*
Y337992D02*
D03*
X310236Y314272D02*
D03*
Y308366D02*
D03*
X117815Y43701D02*
D03*
Y49606D02*
D03*
X251280Y36220D02*
D03*
Y42126D02*
D03*
X242716Y25098D02*
D03*
Y19193D02*
D03*
X264271Y68012D02*
D03*
Y62106D02*
D03*
X297047Y65551D02*
D03*
Y59646D02*
D03*
X243897Y223622D02*
D03*
Y229528D02*
D03*
X322047Y180512D02*
D03*
Y186417D02*
D03*
X55512Y172638D02*
D03*
Y166732D02*
D03*
X87992Y132382D02*
D03*
Y138287D02*
D03*
X103346Y243701D02*
D03*
Y249606D02*
D03*
X65551Y229331D02*
D03*
Y235236D02*
D03*
X168602Y198031D02*
D03*
Y202165D02*
D03*
X168996Y170472D02*
D03*
Y174606D02*
D03*
Y185728D02*
D03*
Y181595D02*
D03*
X168602Y212992D02*
D03*
Y208858D02*
D03*
X164567Y238189D02*
D03*
Y234055D02*
D03*
Y223130D02*
D03*
Y227264D02*
D03*
D59*
X344783Y317618D02*
D03*
Y311319D02*
D03*
D60*
X104626Y35335D02*
D03*
Y37894D02*
D03*
Y40453D02*
D03*
Y43012D02*
D03*
Y45571D02*
D03*
Y48130D02*
D03*
Y50689D02*
D03*
X81398Y35335D02*
D03*
Y37894D02*
D03*
Y40453D02*
D03*
Y43012D02*
D03*
Y45571D02*
D03*
Y48130D02*
D03*
Y50689D02*
D03*
D61*
X297539Y23031D02*
D03*
Y25591D02*
D03*
Y28150D02*
D03*
Y30709D02*
D03*
Y33268D02*
D03*
Y35827D02*
D03*
Y38386D02*
D03*
Y40945D02*
D03*
Y43504D02*
D03*
Y46063D02*
D03*
X270374Y23031D02*
D03*
Y25591D02*
D03*
Y28150D02*
D03*
Y30709D02*
D03*
Y33268D02*
D03*
Y35827D02*
D03*
Y38386D02*
D03*
Y40945D02*
D03*
Y43504D02*
D03*
Y46063D02*
D03*
D62*
X119488Y249410D02*
D03*
Y242717D02*
D03*
X110827Y249410D02*
D03*
Y242717D02*
D03*
D63*
X58169Y328346D02*
D03*
Y317717D02*
D03*
X87008Y328346D02*
D03*
Y317717D02*
D03*
X275000Y313976D02*
D03*
Y324606D02*
D03*
D64*
X179626Y325197D02*
D03*
X168996D02*
D03*
X221555Y328051D02*
D03*
X210925D02*
D03*
X321457Y330118D02*
D03*
X310827D02*
D03*
X117323Y26673D02*
D03*
X106693D02*
D03*
X271260Y15157D02*
D03*
X260630D02*
D03*
D65*
X94586Y328740D02*
D03*
X100886D02*
D03*
X229134Y320965D02*
D03*
X235433D02*
D03*
D66*
X40551Y321752D02*
D03*
D67*
X40551Y314272D02*
D03*
X49016Y318012D02*
D03*
D68*
X159646Y321654D02*
D03*
X263386Y324213D02*
D03*
D69*
X152165Y321654D02*
D03*
X155905Y313189D02*
D03*
X255905Y324213D02*
D03*
X259646Y315748D02*
D03*
D70*
X42815Y172539D02*
D03*
X26279D02*
D03*
D71*
X43406Y48850D02*
D03*
Y33039D02*
D03*
D72*
X333169Y27618D02*
D03*
Y36555D02*
D03*
D73*
X68504Y172047D02*
D03*
X77165D02*
D03*
D74*
X53149Y301673D02*
D03*
X59055D02*
D03*
Y295965D02*
D03*
X53149D02*
D03*
X156004Y305512D02*
D03*
X161909D02*
D03*
Y299606D02*
D03*
X156004D02*
D03*
X259822Y307546D02*
D03*
X265727D02*
D03*
Y301247D02*
D03*
X259822D02*
D03*
X284744Y62205D02*
D03*
X278838D02*
D03*
D75*
X236811Y25098D02*
D03*
Y19193D02*
D03*
X258366Y68012D02*
D03*
Y62106D02*
D03*
X290748Y59646D02*
D03*
Y65551D02*
D03*
X251083Y46457D02*
D03*
Y52362D02*
D03*
D76*
X42716Y204134D02*
D03*
Y200984D02*
D03*
Y197835D02*
D03*
Y194685D02*
D03*
X49803Y204134D02*
D03*
Y200984D02*
D03*
Y197835D02*
D03*
Y194685D02*
D03*
X121063Y196161D02*
D03*
Y199311D02*
D03*
Y202461D02*
D03*
Y205610D02*
D03*
X113976Y196161D02*
D03*
Y199311D02*
D03*
Y202461D02*
D03*
Y205610D02*
D03*
D77*
X77067Y227854D02*
D03*
Y225886D02*
D03*
Y223917D02*
D03*
Y221949D02*
D03*
Y219980D02*
D03*
Y218012D02*
D03*
Y216043D02*
D03*
Y214075D02*
D03*
X102461D02*
D03*
Y216043D02*
D03*
Y218012D02*
D03*
Y219980D02*
D03*
Y221949D02*
D03*
Y223917D02*
D03*
Y225886D02*
D03*
Y227854D02*
D03*
D78*
X82874Y208268D02*
D03*
X84843D02*
D03*
X86811D02*
D03*
X88780D02*
D03*
X90748D02*
D03*
X92717D02*
D03*
X94685D02*
D03*
X96654D02*
D03*
Y233661D02*
D03*
X94685D02*
D03*
X92717D02*
D03*
X90748D02*
D03*
X88780D02*
D03*
X86811D02*
D03*
X84843D02*
D03*
X82874D02*
D03*
D79*
X266535Y143012D02*
D03*
X257087D02*
D03*
X261748D02*
D03*
D80*
X143209Y226870D02*
D03*
Y231988D02*
D03*
X152067D02*
D03*
Y229429D02*
D03*
Y226870D02*
D03*
X143209Y203740D02*
D03*
Y208858D02*
D03*
X152067D02*
D03*
Y206299D02*
D03*
Y203740D02*
D03*
X142717Y181791D02*
D03*
Y186909D02*
D03*
X151575D02*
D03*
Y184350D02*
D03*
Y181791D02*
D03*
X142618Y160827D02*
D03*
Y165945D02*
D03*
X151476D02*
D03*
Y163386D02*
D03*
Y160827D02*
D03*
D81*
X38435Y120942D02*
D03*
X40009Y125273D02*
D03*
X38435Y129604D02*
D03*
X37647Y133934D02*
D03*
X38435Y138265D02*
D03*
X37647Y142596D02*
D03*
X38435Y146927D02*
D03*
X38435Y151277D02*
D03*
D82*
X27213Y154407D02*
D03*
X23275Y102635D02*
D03*
D83*
X78986Y148108D02*
D03*
Y125667D02*
D03*
D84*
X71555Y311784D02*
D03*
X69586D02*
D03*
X67618D02*
D03*
X65649D02*
D03*
X73523D02*
D03*
X75492D02*
D03*
X77460D02*
D03*
X79429D02*
D03*
Y328374D02*
D03*
X77460D02*
D03*
X75492D02*
D03*
X73523D02*
D03*
X65649D02*
D03*
X67618D02*
D03*
X69586D02*
D03*
X71555D02*
D03*
X194390Y310504D02*
D03*
X192421D02*
D03*
X190453D02*
D03*
X188484D02*
D03*
X196358D02*
D03*
X198327D02*
D03*
X200295D02*
D03*
X202264D02*
D03*
Y327095D02*
D03*
X200295D02*
D03*
X198327D02*
D03*
X196358D02*
D03*
X188484D02*
D03*
X190453D02*
D03*
X192421D02*
D03*
X194390D02*
D03*
X295177Y313260D02*
D03*
X293209D02*
D03*
X291240D02*
D03*
X289272D02*
D03*
X297146D02*
D03*
X299114D02*
D03*
X301083D02*
D03*
X303051D02*
D03*
Y329850D02*
D03*
X301083D02*
D03*
X299114D02*
D03*
X297146D02*
D03*
X289272D02*
D03*
X291240D02*
D03*
X293209D02*
D03*
X295177D02*
D03*
D85*
X72539Y320079D02*
D03*
X195374Y318799D02*
D03*
X296161Y321555D02*
D03*
D86*
X127067Y115650D02*
D03*
X138878D02*
D03*
D87*
X170965Y120571D02*
D03*
X167815D02*
D03*
X164665D02*
D03*
X161516D02*
D03*
X170965Y113484D02*
D03*
X167815D02*
D03*
X164665D02*
D03*
X161516D02*
D03*
D88*
X243456Y214049D02*
D03*
Y212080D02*
D03*
Y210112D02*
D03*
Y208143D02*
D03*
Y206175D02*
D03*
Y204206D02*
D03*
Y202238D02*
D03*
Y200269D02*
D03*
Y198301D02*
D03*
Y196332D02*
D03*
Y194364D02*
D03*
Y192395D02*
D03*
Y190427D02*
D03*
Y188458D02*
D03*
Y186490D02*
D03*
Y184521D02*
D03*
Y182553D02*
D03*
Y180584D02*
D03*
Y178616D02*
D03*
Y176647D02*
D03*
Y174679D02*
D03*
Y172710D02*
D03*
Y170742D02*
D03*
Y168773D02*
D03*
Y166805D02*
D03*
X304480D02*
D03*
Y168773D02*
D03*
Y170742D02*
D03*
Y172710D02*
D03*
Y174679D02*
D03*
Y176647D02*
D03*
Y178616D02*
D03*
Y180584D02*
D03*
Y182553D02*
D03*
Y184521D02*
D03*
Y186490D02*
D03*
Y188458D02*
D03*
Y190427D02*
D03*
Y192395D02*
D03*
Y194364D02*
D03*
Y196332D02*
D03*
Y198301D02*
D03*
Y200269D02*
D03*
Y202238D02*
D03*
Y204206D02*
D03*
Y206175D02*
D03*
Y208143D02*
D03*
Y210112D02*
D03*
Y212080D02*
D03*
Y214049D02*
D03*
D89*
X250346Y159915D02*
D03*
X252314D02*
D03*
X254283D02*
D03*
X256251D02*
D03*
X258220D02*
D03*
X260188D02*
D03*
X262157D02*
D03*
X264125D02*
D03*
X266094D02*
D03*
X268062D02*
D03*
X270031D02*
D03*
X271999D02*
D03*
X273968D02*
D03*
X275936D02*
D03*
X277905D02*
D03*
X279873D02*
D03*
X281842D02*
D03*
X283810D02*
D03*
X285779D02*
D03*
X287747D02*
D03*
X289716D02*
D03*
X291684D02*
D03*
X293653D02*
D03*
X295621D02*
D03*
X297590D02*
D03*
Y220939D02*
D03*
X295621D02*
D03*
X293653D02*
D03*
X291684D02*
D03*
X289716D02*
D03*
X287747D02*
D03*
X285779D02*
D03*
X283810D02*
D03*
X281842D02*
D03*
X279873D02*
D03*
X277905D02*
D03*
X275936D02*
D03*
X273968D02*
D03*
X271999D02*
D03*
X270031D02*
D03*
X268062D02*
D03*
X266094D02*
D03*
X264125D02*
D03*
X262157D02*
D03*
X260188D02*
D03*
X258220D02*
D03*
X256251D02*
D03*
X254283D02*
D03*
X252314D02*
D03*
X250346D02*
D03*
D90*
X63779Y38878D02*
D03*
Y44783D02*
D03*
D91*
X28642Y206496D02*
D03*
Y201575D02*
D03*
Y196653D02*
D03*
Y191732D02*
D03*
X186122Y36220D02*
D03*
Y31299D02*
D03*
Y26378D02*
D03*
Y21457D02*
D03*
X150886Y336024D02*
D03*
X155807D02*
D03*
X160728D02*
D03*
X165649D02*
D03*
X254507D02*
D03*
X259428D02*
D03*
X264349D02*
D03*
X269270D02*
D03*
X32185Y302756D02*
D03*
X27264D02*
D03*
X22343D02*
D03*
X17421D02*
D03*
D92*
X106063Y154705D02*
D03*
Y164705D02*
D03*
Y174705D02*
D03*
X96063Y154705D02*
D03*
Y164705D02*
D03*
Y174705D02*
D03*
D93*
X16535Y16535D02*
D03*
X361417D02*
D03*
X16535Y337795D02*
D03*
X361417D02*
D03*
D94*
X227059Y281606D02*
D03*
X217059D02*
D03*
X207059D02*
D03*
X197059D02*
D03*
X187059D02*
D03*
X177059D02*
D03*
X167059D02*
D03*
X157059D02*
D03*
X247059D02*
D03*
X257059D02*
D03*
X267059D02*
D03*
X277059D02*
D03*
X287059D02*
D03*
X297059D02*
D03*
X307059D02*
D03*
X317059D02*
D03*
X357059Y111606D02*
D03*
X347059D02*
D03*
X357059Y121606D02*
D03*
X347059D02*
D03*
X357059Y131606D02*
D03*
X347059D02*
D03*
X357059Y141606D02*
D03*
X347059D02*
D03*
X357059Y151606D02*
D03*
X347059D02*
D03*
X357059Y161606D02*
D03*
X347059D02*
D03*
X357059Y171606D02*
D03*
X347059D02*
D03*
X357059Y181606D02*
D03*
X347059D02*
D03*
X357059Y191606D02*
D03*
X347059D02*
D03*
X357059Y201606D02*
D03*
X347059D02*
D03*
X357059Y211606D02*
D03*
X347059D02*
D03*
X357059Y221606D02*
D03*
X347059D02*
D03*
X357059Y231606D02*
D03*
X347059D02*
D03*
X357059Y241606D02*
D03*
X347059D02*
D03*
X357059Y251606D02*
D03*
X347059D02*
D03*
X357059Y261606D02*
D03*
X347059D02*
D03*
X357059Y271606D02*
D03*
X347059D02*
D03*
X357059Y281606D02*
D03*
X347059D02*
D03*
X267059Y91606D02*
D03*
X277059D02*
D03*
X287059D02*
D03*
X297059D02*
D03*
X307059D02*
D03*
X317059D02*
D03*
X327059D02*
D03*
X337059D02*
D03*
X157059D02*
D03*
X147059D02*
D03*
X137059D02*
D03*
X127059D02*
D03*
X117059D02*
D03*
X107059D02*
D03*
X97059D02*
D03*
X87059D02*
D03*
X177059D02*
D03*
X187059D02*
D03*
X197059D02*
D03*
X207059D02*
D03*
X217059D02*
D03*
X227059D02*
D03*
X237059D02*
D03*
X247059D02*
D03*
X141059Y281606D02*
D03*
X131059D02*
D03*
X121059D02*
D03*
X111059D02*
D03*
X101059D02*
D03*
X91059D02*
D03*
X81059D02*
D03*
X71059D02*
D03*
X61059D02*
D03*
X51059D02*
D03*
X142224Y131595D02*
D03*
X132382D02*
D03*
D95*
X182579Y60532D02*
D03*
X72835Y92913D02*
D03*
X123524Y322638D02*
D03*
X43504Y253346D02*
D03*
X326575Y151083D02*
D03*
X326476Y143307D02*
D03*
X326575Y136811D02*
D03*
X326575Y129921D02*
D03*
X296063Y194783D02*
D03*
X251378Y62106D02*
D03*
X97441Y60532D02*
D03*
X43406D02*
D03*
X303051Y303937D02*
D03*
X338681Y299606D02*
D03*
X285728Y308268D02*
D03*
X228740Y299606D02*
D03*
X46063Y338976D02*
D03*
X179921Y308169D02*
D03*
X202264Y303642D02*
D03*
X58464Y310531D02*
D03*
X79429Y303543D02*
D03*
X18799Y91606D02*
D03*
X26280D02*
D03*
X33760D02*
D03*
X41240D02*
D03*
X106890Y124114D02*
D03*
X166535Y102461D02*
D03*
X58760Y211811D02*
D03*
X66535Y217520D02*
D03*
X92224Y221752D02*
D03*
X161221Y135827D02*
D03*
X60630Y188484D02*
D03*
X86614Y217618D02*
D03*
X102657Y201378D02*
D03*
X65354Y162598D02*
D03*
X120472Y147146D02*
D03*
X101279Y138265D02*
D03*
X125394Y156201D02*
D03*
X98327Y192421D02*
D03*
X92323D02*
D03*
X133366Y197647D02*
D03*
X85236Y184350D02*
D03*
X86319Y192421D02*
D03*
X151870Y149705D02*
D03*
X72244Y184350D02*
D03*
X102663Y185836D02*
D03*
X127362Y185925D02*
D03*
X133366Y189869D02*
D03*
X135827Y223425D02*
D03*
X131496Y206890D02*
D03*
X133366Y174311D02*
D03*
Y182090D02*
D03*
X131496Y212894D02*
D03*
X217913Y71480D02*
D03*
X137795D02*
D03*
X112205Y219685D02*
D03*
X123228Y214873D02*
D03*
X47835Y229331D02*
D03*
X182185Y315748D02*
D03*
X126083Y52658D02*
D03*
X135728Y26280D02*
D03*
X226476Y49311D02*
D03*
X306890Y15059D02*
D03*
X98032Y71480D02*
D03*
X193996Y248031D02*
D03*
X158957Y216575D02*
D03*
X193701Y163386D02*
D03*
X156496Y245571D02*
D03*
X185433Y171457D02*
D03*
X178347Y212992D02*
D03*
X183957Y200492D02*
D03*
X187106Y191831D02*
D03*
X237598Y263484D02*
D03*
X76378Y264075D02*
D03*
X225394Y248031D02*
D03*
X172244Y228445D02*
D03*
X225197Y241043D02*
D03*
X197933Y240650D02*
D03*
X193110Y234350D02*
D03*
X225197Y234449D02*
D03*
X193898Y227854D02*
D03*
X225295Y228150D02*
D03*
X155905Y268504D02*
D03*
X272342Y65354D02*
D03*
X155512Y170965D02*
D03*
X155315Y192028D02*
D03*
X316339Y319587D02*
D03*
X251279Y259449D02*
D03*
X283957Y260039D02*
D03*
X288326Y254883D02*
D03*
X293406Y260335D02*
D03*
X258268Y251476D02*
D03*
X254232Y237402D02*
D03*
X266043Y256299D02*
D03*
X272539Y256201D02*
D03*
X278163Y258772D02*
D03*
X277264Y248524D02*
D03*
X269980Y249311D02*
D03*
X262513Y247453D02*
D03*
X256201Y205315D02*
D03*
X260643Y201486D02*
D03*
X284758Y209558D02*
D03*
X276293Y210542D02*
D03*
X279738Y203553D02*
D03*
X273622Y243406D02*
D03*
X297160Y254048D02*
D03*
X299227Y260446D02*
D03*
X304542Y256804D02*
D03*
X308677Y260938D02*
D03*
X311925Y255918D02*
D03*
X265945Y184646D02*
D03*
X260151Y182489D02*
D03*
X254823Y176870D02*
D03*
X262402Y171063D02*
D03*
X195177Y122736D02*
D03*
X189764Y117815D02*
D03*
X241535Y117618D02*
D03*
X245288Y111029D02*
D03*
X293602Y143602D02*
D03*
X289272Y139370D02*
D03*
X315650Y202435D02*
D03*
X322047Y207972D02*
D03*
X327953Y207776D02*
D03*
X327756Y201476D02*
D03*
X326476Y195079D02*
D03*
M02*
