M48
;Layer_Color=9474304
;FILE_FORMAT=2:5
INCH,LZ
;TYPE=PLATED
T1F00S00C0.01968
T2F00S00C0.02800
T3F00S00C0.03000
T4F00S00C0.03799
T5F00S00C0.13780
%
T01
X0186122Y0021457
Y0026378
Y0031299
Y003622
X0028642Y0191732
Y0196653
Y0201575
Y0206496
X0027264Y0302756
X0022343
X0017421
X0032185
X0150886Y0336024
X0155807
X0160728
X0165649
X0254507
X0259428
X0264349
X026927
T02
X0043406Y0060532
X004124Y0091606
X003376
X002628
X0018799
X0072835Y0092913
X0098032Y007148
X0097441Y0060532
X010689Y0124114
X0101279Y0138265
X0065354Y0162598
X0125394Y0156201
X0120472Y0147146
X015187Y0149705
X0161221Y0135827
X0166535Y0102461
X0189764Y0117815
X0195177Y0122736
X0193701Y0163386
X0241535Y0117618
X0245288Y0111029
X0251378Y0062106
X0226476Y0049311
X0217913Y007148
X0182579Y0060532
X0137795Y007148
X0126083Y0052658
X0135728Y002628
X0272342Y0065354
X030689Y0015059
X0326575Y0129921
X0326575Y0136811
X0326476Y0143307
X0326575Y0151083
X0293602Y0143602
X0289272Y013937
X0296063Y0194783
X0279738Y0203553
X0276293Y0210542
X0284758Y0209558
X031565Y0202435
X0322047Y0207972
X0327953Y0207776
X0327756Y0201476
X0326476Y0195079
X0311925Y0255918
X0304542Y0256804
X0308677Y0260938
X0299227Y0260446
X0293406Y0260335
X0283957Y0260039
X0278163Y0258772
X0272539Y0256201
X026998Y0249311
X0277264Y0248524
X0273622Y0243406
X0288326Y0254883
X029716Y0254048
X0303051Y0303937
X0285728Y0308268
X0316339Y0319587
X0338681Y0299606
X022874
X0202264Y0303642
X0179921Y0308169
X0182185Y0315748
X0123524Y0322638
X0155905Y0268504
X0156496Y0245571
X0158957Y0216575
X0178347Y0212992
X0183957Y0200492
X0187106Y0191831
X0185433Y0171457
X0155512Y0170965
X0155315Y0192028
X0133366Y0189869
Y0197647
X0131496Y020689
Y0212894
X0123228Y0214873
X0135827Y0223425
X0172244Y0228445
X0193898Y0227854
X019311Y023435
X0197933Y024065
X0193996Y0248031
X0225394
X0225197Y0241043
Y0234449
X0225295Y022815
X0254232Y0237402
X0258268Y0251476
X0262513Y0247453
X0266043Y0256299
X0251279Y0259449
X0237598Y0263484
X0256201Y0205315
X0260643Y0201486
X0260151Y0182489
X0265945Y0184646
X0262402Y0171063
X0254823Y017687
X0133366Y0174311
Y018209
X0127362Y0185925
X0102663Y0185836
X0098327Y0192421
X0092323
X0086319
X0085236Y018435
X0072244
X006063Y0188484
X005876Y0211811
X0066535Y021752
X0086614Y0217618
X0092224Y0221752
X0112205Y0219685
X0102657Y0201378
X0047835Y0229331
X0043504Y0253346
X0076378Y0264075
X0079429Y0303543
X0058464Y0310531
X0046063Y0338976
T03
X0087059Y0091606
X0097059
X0107059
X0117059
X0127059
X0137059
X0147059
X0157059
X0177059
X0187059
X0197059
X0207059
X0217059
X0227059
X0237059
X0247059
X0267059
X0277059
X0287059
X0297059
X0307059
X0317059
X0327059
X0337059
X0347059Y0111606
X0357059
Y0121606
X0347059
Y0131606
X0357059
Y0141606
X0347059
Y0151606
X0357059
Y0161606
X0347059
Y0171606
X0357059
Y0181606
X0347059
Y0191606
X0357059
Y0201606
X0347059
Y0211606
X0357059
Y0221606
X0347059
Y0231606
X0357059
Y0241606
X0347059
Y0251606
X0357059
Y0261606
X0347059
Y0271606
X0357059
Y0281606
X0347059
X0317059
X0307059
X0297059
X0287059
X0277059
X0267059
X0257059
X0247059
X0227059
X0217059
X0207059
X0197059
X0187059
X0177059
X0167059
X0157059
X0141059
X0131059
X0121059
X0111059
X0101059
X0091059
X0081059
X0071059
X0061059
X0051059
T04
X0096063Y0154705
X0106063
Y0164705
X0096063
X0132382Y0131595
X0142224
X0106063Y0174705
X0096063
T05
X0016535Y0016535
X0361417
X0016535Y0337795
X0361417
M30
