%FSLAX25Y25*%
%MOIN*%
G70*
G01*
G75*
G04 Layer_Color=16711935*
G04:AMPARAMS|DCode=10|XSize=23.62mil|YSize=35.43mil|CornerRadius=5.91mil|HoleSize=0mil|Usage=FLASHONLY|Rotation=0.000|XOffset=0mil|YOffset=0mil|HoleType=Round|Shape=RoundedRectangle|*
%AMROUNDEDRECTD10*
21,1,0.02362,0.02362,0,0,0.0*
21,1,0.01181,0.03543,0,0,0.0*
1,1,0.01181,0.00591,-0.01181*
1,1,0.01181,-0.00591,-0.01181*
1,1,0.01181,-0.00591,0.01181*
1,1,0.01181,0.00591,0.01181*
%
%ADD10ROUNDEDRECTD10*%
G04:AMPARAMS|DCode=11|XSize=23.62mil|YSize=35.43mil|CornerRadius=5.91mil|HoleSize=0mil|Usage=FLASHONLY|Rotation=270.000|XOffset=0mil|YOffset=0mil|HoleType=Round|Shape=RoundedRectangle|*
%AMROUNDEDRECTD11*
21,1,0.02362,0.02362,0,0,270.0*
21,1,0.01181,0.03543,0,0,270.0*
1,1,0.01181,-0.01181,-0.00591*
1,1,0.01181,-0.01181,0.00591*
1,1,0.01181,0.01181,0.00591*
1,1,0.01181,0.01181,-0.00591*
%
%ADD11ROUNDEDRECTD11*%
%ADD12R,0.01575X0.02165*%
%ADD13O,0.05512X0.01772*%
%ADD14O,0.08268X0.01772*%
%ADD15R,0.06102X0.05315*%
%ADD16R,0.06693X0.04331*%
%ADD17R,0.04331X0.06693*%
%ADD18R,0.02165X0.01575*%
%ADD19O,0.05709X0.02165*%
%ADD20O,0.05709X0.02165*%
%ADD21O,0.02165X0.05709*%
%ADD22O,0.02165X0.05709*%
%ADD23R,0.05906X0.12598*%
G04:AMPARAMS|DCode=24|XSize=86.61mil|YSize=248.03mil|CornerRadius=21.65mil|HoleSize=0mil|Usage=FLASHONLY|Rotation=270.000|XOffset=0mil|YOffset=0mil|HoleType=Round|Shape=RoundedRectangle|*
%AMROUNDEDRECTD24*
21,1,0.08661,0.20472,0,0,270.0*
21,1,0.04331,0.24803,0,0,270.0*
1,1,0.04331,-0.10236,-0.02165*
1,1,0.04331,-0.10236,0.02165*
1,1,0.04331,0.10236,0.02165*
1,1,0.04331,0.10236,-0.02165*
%
%ADD24ROUNDEDRECTD24*%
%ADD25R,0.08740X0.04449*%
%ADD26R,0.05512X0.03937*%
%ADD27R,0.02756X0.03543*%
%ADD28R,0.03543X0.02756*%
%ADD29R,0.03740X0.01772*%
%ADD30O,0.05709X0.01181*%
%ADD31O,0.01181X0.05709*%
%ADD32R,0.02559X0.06299*%
%ADD33O,0.03347X0.01575*%
%ADD34R,0.05906X0.03150*%
%ADD35R,0.07480X0.05512*%
%ADD36R,0.05512X0.05118*%
%ADD37O,0.01181X0.03937*%
%ADD38R,0.11201X0.06500*%
%ADD39R,0.05512X0.06299*%
%ADD40R,0.01772X0.03740*%
%ADD41O,0.05906X0.01181*%
%ADD42O,0.01181X0.05906*%
%ADD43R,0.05512X0.04331*%
%ADD44C,0.01969*%
%ADD45C,0.00787*%
%ADD46C,0.01575*%
%ADD47C,0.00984*%
%ADD48C,0.03543*%
G04:AMPARAMS|DCode=49|XSize=62.01mil|YSize=62.01mil|CornerRadius=0mil|HoleSize=0mil|Usage=FLASHONLY|Rotation=0.000|XOffset=0mil|YOffset=0mil|HoleType=Round|Shape=Octagon|*
%AMOCTAGOND49*
4,1,8,0.03100,-0.01550,0.03100,0.01550,0.01550,0.03100,-0.01550,0.03100,-0.03100,0.01550,-0.03100,-0.01550,-0.01550,-0.03100,0.01550,-0.03100,0.03100,-0.01550,0.0*
%
%ADD49OCTAGOND49*%

%ADD50C,0.19685*%
%ADD51C,0.06000*%
%ADD52C,0.05000*%
%ADD53C,0.00394*%
%ADD54C,0.02362*%
%ADD55C,0.01000*%
%ADD56C,0.00492*%
G04:AMPARAMS|DCode=57|XSize=31.62mil|YSize=43.43mil|CornerRadius=9.91mil|HoleSize=0mil|Usage=FLASHONLY|Rotation=0.000|XOffset=0mil|YOffset=0mil|HoleType=Round|Shape=RoundedRectangle|*
%AMROUNDEDRECTD57*
21,1,0.03162,0.02362,0,0,0.0*
21,1,0.01181,0.04343,0,0,0.0*
1,1,0.01981,0.00591,-0.01181*
1,1,0.01981,-0.00591,-0.01181*
1,1,0.01981,-0.00591,0.01181*
1,1,0.01981,0.00591,0.01181*
%
%ADD57ROUNDEDRECTD57*%
G04:AMPARAMS|DCode=58|XSize=31.62mil|YSize=43.43mil|CornerRadius=9.91mil|HoleSize=0mil|Usage=FLASHONLY|Rotation=270.000|XOffset=0mil|YOffset=0mil|HoleType=Round|Shape=RoundedRectangle|*
%AMROUNDEDRECTD58*
21,1,0.03162,0.02362,0,0,270.0*
21,1,0.01181,0.04343,0,0,270.0*
1,1,0.01981,-0.01181,-0.00591*
1,1,0.01981,-0.01181,0.00591*
1,1,0.01981,0.01181,0.00591*
1,1,0.01981,0.01181,-0.00591*
%
%ADD58ROUNDEDRECTD58*%
%ADD59R,0.02375X0.02965*%
%ADD60O,0.06312X0.02572*%
%ADD61O,0.09068X0.02572*%
%ADD62R,0.06902X0.06115*%
%ADD63R,0.07493X0.05131*%
%ADD64R,0.05131X0.07493*%
%ADD65R,0.02965X0.02375*%
%ADD66O,0.06509X0.02965*%
%ADD67O,0.06509X0.02965*%
%ADD68O,0.02965X0.06509*%
%ADD69O,0.02965X0.06509*%
%ADD70R,0.06706X0.13398*%
G04:AMPARAMS|DCode=71|XSize=94.61mil|YSize=256.03mil|CornerRadius=25.65mil|HoleSize=0mil|Usage=FLASHONLY|Rotation=270.000|XOffset=0mil|YOffset=0mil|HoleType=Round|Shape=RoundedRectangle|*
%AMROUNDEDRECTD71*
21,1,0.09461,0.20472,0,0,270.0*
21,1,0.04331,0.25603,0,0,270.0*
1,1,0.05131,-0.10236,-0.02165*
1,1,0.05131,-0.10236,0.02165*
1,1,0.05131,0.10236,0.02165*
1,1,0.05131,0.10236,-0.02165*
%
%ADD71ROUNDEDRECTD71*%
%ADD72R,0.09540X0.05249*%
%ADD73R,0.06312X0.04737*%
%ADD74R,0.03556X0.04343*%
%ADD75R,0.04343X0.03556*%
%ADD76R,0.04540X0.02572*%
%ADD77O,0.06509X0.01981*%
%ADD78O,0.01981X0.06509*%
%ADD79R,0.03359X0.07099*%
%ADD80O,0.04147X0.02375*%
%ADD81R,0.06706X0.03950*%
%ADD82R,0.08280X0.06312*%
%ADD83R,0.06312X0.05918*%
%ADD84O,0.01981X0.04737*%
%ADD85R,0.12001X0.07300*%
%ADD86R,0.06312X0.07099*%
%ADD87R,0.02572X0.04540*%
%ADD88O,0.06706X0.01981*%
%ADD89O,0.01981X0.06706*%
%ADD90R,0.06312X0.05131*%
%ADD91C,0.04343*%
G04:AMPARAMS|DCode=92|XSize=70.01mil|YSize=70.01mil|CornerRadius=0mil|HoleSize=0mil|Usage=FLASHONLY|Rotation=0.000|XOffset=0mil|YOffset=0mil|HoleType=Round|Shape=Octagon|*
%AMOCTAGOND92*
4,1,8,0.03500,-0.01750,0.03500,0.01750,0.01750,0.03500,-0.01750,0.03500,-0.03500,0.01750,-0.03500,-0.01750,-0.01750,-0.03500,0.01750,-0.03500,0.03500,-0.01750,0.0*
%
%ADD92OCTAGOND92*%

%ADD93C,0.20485*%
%ADD94C,0.06800*%
%ADD95C,0.05800*%
D91*
X28642Y206496D02*
D03*
Y201575D02*
D03*
Y196653D02*
D03*
Y191732D02*
D03*
X186122Y36220D02*
D03*
Y31299D02*
D03*
Y26378D02*
D03*
Y21457D02*
D03*
X150886Y336024D02*
D03*
X155807D02*
D03*
X160728D02*
D03*
X165649D02*
D03*
X254507D02*
D03*
X259428D02*
D03*
X264349D02*
D03*
X269270D02*
D03*
X32185Y302756D02*
D03*
X27264D02*
D03*
X22343D02*
D03*
X17421D02*
D03*
D92*
X106063Y154705D02*
D03*
Y164705D02*
D03*
Y174705D02*
D03*
X96063Y154705D02*
D03*
Y164705D02*
D03*
Y174705D02*
D03*
D93*
X16535Y16535D02*
D03*
X361417D02*
D03*
X16535Y337795D02*
D03*
X361417D02*
D03*
D94*
X227059Y281606D02*
D03*
X217059D02*
D03*
X207059D02*
D03*
X197059D02*
D03*
X187059D02*
D03*
X177059D02*
D03*
X167059D02*
D03*
X157059D02*
D03*
X247059D02*
D03*
X257059D02*
D03*
X267059D02*
D03*
X277059D02*
D03*
X287059D02*
D03*
X297059D02*
D03*
X307059D02*
D03*
X317059D02*
D03*
X357059Y111606D02*
D03*
X347059D02*
D03*
X357059Y121606D02*
D03*
X347059D02*
D03*
X357059Y131606D02*
D03*
X347059D02*
D03*
X357059Y141606D02*
D03*
X347059D02*
D03*
X357059Y151606D02*
D03*
X347059D02*
D03*
X357059Y161606D02*
D03*
X347059D02*
D03*
X357059Y171606D02*
D03*
X347059D02*
D03*
X357059Y181606D02*
D03*
X347059D02*
D03*
X357059Y191606D02*
D03*
X347059D02*
D03*
X357059Y201606D02*
D03*
X347059D02*
D03*
X357059Y211606D02*
D03*
X347059D02*
D03*
X357059Y221606D02*
D03*
X347059D02*
D03*
X357059Y231606D02*
D03*
X347059D02*
D03*
X357059Y241606D02*
D03*
X347059D02*
D03*
X357059Y251606D02*
D03*
X347059D02*
D03*
X357059Y261606D02*
D03*
X347059D02*
D03*
X357059Y271606D02*
D03*
X347059D02*
D03*
X357059Y281606D02*
D03*
X347059D02*
D03*
X267059Y91606D02*
D03*
X277059D02*
D03*
X287059D02*
D03*
X297059D02*
D03*
X307059D02*
D03*
X317059D02*
D03*
X327059D02*
D03*
X337059D02*
D03*
X157059D02*
D03*
X147059D02*
D03*
X137059D02*
D03*
X127059D02*
D03*
X117059D02*
D03*
X107059D02*
D03*
X97059D02*
D03*
X87059D02*
D03*
X177059D02*
D03*
X187059D02*
D03*
X197059D02*
D03*
X207059D02*
D03*
X217059D02*
D03*
X227059D02*
D03*
X237059D02*
D03*
X247059D02*
D03*
X141059Y281606D02*
D03*
X131059D02*
D03*
X121059D02*
D03*
X111059D02*
D03*
X101059D02*
D03*
X91059D02*
D03*
X81059D02*
D03*
X71059D02*
D03*
X61059D02*
D03*
X51059D02*
D03*
X142224Y131595D02*
D03*
X132382D02*
D03*
D95*
X182579Y60532D02*
D03*
X72835Y92913D02*
D03*
X123524Y322638D02*
D03*
X43504Y253346D02*
D03*
X326575Y151083D02*
D03*
X326476Y143307D02*
D03*
X326575Y136811D02*
D03*
X326575Y129921D02*
D03*
X296063Y194783D02*
D03*
X251378Y62106D02*
D03*
X97441Y60532D02*
D03*
X43406D02*
D03*
X303051Y303937D02*
D03*
X338681Y299606D02*
D03*
X285728Y308268D02*
D03*
X228740Y299606D02*
D03*
X46063Y338976D02*
D03*
X179921Y308169D02*
D03*
X202264Y303642D02*
D03*
X58464Y310531D02*
D03*
X79429Y303543D02*
D03*
X18799Y91606D02*
D03*
X26280D02*
D03*
X33760D02*
D03*
X41240D02*
D03*
X106890Y124114D02*
D03*
X166535Y102461D02*
D03*
X58760Y211811D02*
D03*
X66535Y217520D02*
D03*
X92224Y221752D02*
D03*
X161221Y135827D02*
D03*
X60630Y188484D02*
D03*
X86614Y217618D02*
D03*
X102657Y201378D02*
D03*
X65354Y162598D02*
D03*
X120472Y147146D02*
D03*
X101279Y138265D02*
D03*
X125394Y156201D02*
D03*
X98327Y192421D02*
D03*
X92323D02*
D03*
X133366Y197647D02*
D03*
X85236Y184350D02*
D03*
X86319Y192421D02*
D03*
X151870Y149705D02*
D03*
X72244Y184350D02*
D03*
X102663Y185836D02*
D03*
X127362Y185925D02*
D03*
X133366Y189869D02*
D03*
X135827Y223425D02*
D03*
X131496Y206890D02*
D03*
X133366Y174311D02*
D03*
Y182090D02*
D03*
X131496Y212894D02*
D03*
X217913Y71480D02*
D03*
X137795D02*
D03*
X112205Y219685D02*
D03*
X123228Y214873D02*
D03*
X47835Y229331D02*
D03*
X182185Y315748D02*
D03*
X126083Y52658D02*
D03*
X135728Y26280D02*
D03*
X226476Y49311D02*
D03*
X306890Y15059D02*
D03*
X98032Y71480D02*
D03*
X193996Y248031D02*
D03*
X158957Y216575D02*
D03*
X193701Y163386D02*
D03*
X156496Y245571D02*
D03*
X185433Y171457D02*
D03*
X178347Y212992D02*
D03*
X183957Y200492D02*
D03*
X187106Y191831D02*
D03*
X237598Y263484D02*
D03*
X76378Y264075D02*
D03*
X225394Y248031D02*
D03*
X172244Y228445D02*
D03*
X225197Y241043D02*
D03*
X197933Y240650D02*
D03*
X193110Y234350D02*
D03*
X225197Y234449D02*
D03*
X193898Y227854D02*
D03*
X225295Y228150D02*
D03*
X155905Y268504D02*
D03*
X272342Y65354D02*
D03*
X155512Y170965D02*
D03*
X155315Y192028D02*
D03*
X316339Y319587D02*
D03*
X251279Y259449D02*
D03*
X283957Y260039D02*
D03*
X288326Y254883D02*
D03*
X293406Y260335D02*
D03*
X258268Y251476D02*
D03*
X254232Y237402D02*
D03*
X266043Y256299D02*
D03*
X272539Y256201D02*
D03*
X278163Y258772D02*
D03*
X277264Y248524D02*
D03*
X269980Y249311D02*
D03*
X262513Y247453D02*
D03*
X256201Y205315D02*
D03*
X260643Y201486D02*
D03*
X284758Y209558D02*
D03*
X276293Y210542D02*
D03*
X279738Y203553D02*
D03*
X273622Y243406D02*
D03*
X297160Y254048D02*
D03*
X299227Y260446D02*
D03*
X304542Y256804D02*
D03*
X308677Y260938D02*
D03*
X311925Y255918D02*
D03*
X265945Y184646D02*
D03*
X260151Y182489D02*
D03*
X254823Y176870D02*
D03*
X262402Y171063D02*
D03*
X195177Y122736D02*
D03*
X189764Y117815D02*
D03*
X241535Y117618D02*
D03*
X245288Y111029D02*
D03*
X293602Y143602D02*
D03*
X289272Y139370D02*
D03*
X315650Y202435D02*
D03*
X322047Y207972D02*
D03*
X327953Y207776D02*
D03*
X327756Y201476D02*
D03*
X326476Y195079D02*
D03*
M02*
