%FSLAX25Y25*%
%MOIN*%
G70*
G01*
G75*
G04 Layer_Physical_Order=2*
G04 Layer_Color=11367680*
G04:AMPARAMS|DCode=10|XSize=23.62mil|YSize=35.43mil|CornerRadius=5.91mil|HoleSize=0mil|Usage=FLASHONLY|Rotation=0.000|XOffset=0mil|YOffset=0mil|HoleType=Round|Shape=RoundedRectangle|*
%AMROUNDEDRECTD10*
21,1,0.02362,0.02362,0,0,0.0*
21,1,0.01181,0.03543,0,0,0.0*
1,1,0.01181,0.00591,-0.01181*
1,1,0.01181,-0.00591,-0.01181*
1,1,0.01181,-0.00591,0.01181*
1,1,0.01181,0.00591,0.01181*
%
%ADD10ROUNDEDRECTD10*%
G04:AMPARAMS|DCode=11|XSize=23.62mil|YSize=35.43mil|CornerRadius=5.91mil|HoleSize=0mil|Usage=FLASHONLY|Rotation=270.000|XOffset=0mil|YOffset=0mil|HoleType=Round|Shape=RoundedRectangle|*
%AMROUNDEDRECTD11*
21,1,0.02362,0.02362,0,0,270.0*
21,1,0.01181,0.03543,0,0,270.0*
1,1,0.01181,-0.01181,-0.00591*
1,1,0.01181,-0.01181,0.00591*
1,1,0.01181,0.01181,0.00591*
1,1,0.01181,0.01181,-0.00591*
%
%ADD11ROUNDEDRECTD11*%
%ADD12R,0.01575X0.02165*%
%ADD13O,0.05512X0.01772*%
%ADD14O,0.08268X0.01772*%
%ADD15R,0.06102X0.05315*%
%ADD16R,0.06693X0.04331*%
%ADD17R,0.04331X0.06693*%
%ADD18R,0.02165X0.01575*%
%ADD19O,0.05709X0.02165*%
%ADD20O,0.05709X0.02165*%
%ADD21O,0.02165X0.05709*%
%ADD22O,0.02165X0.05709*%
%ADD23R,0.05906X0.12598*%
G04:AMPARAMS|DCode=24|XSize=86.61mil|YSize=248.03mil|CornerRadius=21.65mil|HoleSize=0mil|Usage=FLASHONLY|Rotation=270.000|XOffset=0mil|YOffset=0mil|HoleType=Round|Shape=RoundedRectangle|*
%AMROUNDEDRECTD24*
21,1,0.08661,0.20472,0,0,270.0*
21,1,0.04331,0.24803,0,0,270.0*
1,1,0.04331,-0.10236,-0.02165*
1,1,0.04331,-0.10236,0.02165*
1,1,0.04331,0.10236,0.02165*
1,1,0.04331,0.10236,-0.02165*
%
%ADD24ROUNDEDRECTD24*%
%ADD25R,0.08740X0.04449*%
%ADD26R,0.05512X0.03937*%
%ADD27R,0.02756X0.03543*%
%ADD28R,0.03543X0.02756*%
%ADD29R,0.03740X0.01772*%
%ADD30O,0.05709X0.01181*%
%ADD31O,0.01181X0.05709*%
%ADD32R,0.02559X0.06299*%
%ADD33O,0.03347X0.01575*%
%ADD34R,0.05906X0.03150*%
%ADD35R,0.07480X0.05512*%
%ADD36R,0.05512X0.05118*%
%ADD37O,0.01181X0.03937*%
%ADD38R,0.11201X0.06500*%
%ADD39R,0.05512X0.06299*%
%ADD40R,0.01772X0.03740*%
%ADD41O,0.05906X0.01181*%
%ADD42O,0.01181X0.05906*%
%ADD43R,0.05512X0.04331*%
%ADD44C,0.01969*%
%ADD45C,0.00787*%
%ADD46C,0.01575*%
%ADD47C,0.00984*%
%ADD48C,0.03543*%
G04:AMPARAMS|DCode=49|XSize=62.01mil|YSize=62.01mil|CornerRadius=0mil|HoleSize=0mil|Usage=FLASHONLY|Rotation=0.000|XOffset=0mil|YOffset=0mil|HoleType=Round|Shape=Octagon|*
%AMOCTAGOND49*
4,1,8,0.03100,-0.01550,0.03100,0.01550,0.01550,0.03100,-0.01550,0.03100,-0.03100,0.01550,-0.03100,-0.01550,-0.01550,-0.03100,0.01550,-0.03100,0.03100,-0.01550,0.0*
%
%ADD49OCTAGOND49*%

%ADD50C,0.19685*%
%ADD51C,0.06000*%
%ADD52C,0.05000*%
G36*
X377953Y0D02*
X0D01*
Y354331D01*
X377953D01*
Y0D01*
D02*
G37*
%LPC*%
G36*
X110163Y153720D02*
X107047D01*
Y150604D01*
X108113D01*
X110163Y152655D01*
Y153720D01*
D02*
G37*
G36*
X98007Y158592D02*
X94119D01*
X92175Y156649D01*
Y152761D01*
X94119Y150817D01*
X98007D01*
X99951Y152761D01*
Y156649D01*
X98007Y158592D01*
D02*
G37*
G36*
X105079Y158805D02*
X104013D01*
X101963Y156755D01*
Y155689D01*
X105079D01*
Y158805D01*
D02*
G37*
G36*
X347059Y155426D02*
X346070Y155296D01*
X345149Y154915D01*
X344358Y154307D01*
X343751Y153516D01*
X343369Y152595D01*
X343239Y151606D01*
X343369Y150618D01*
X343751Y149696D01*
X344358Y148905D01*
X345149Y148298D01*
X346070Y147916D01*
X347059Y147786D01*
X348048Y147916D01*
X348969Y148298D01*
X349760Y148905D01*
X350367Y149696D01*
X350749Y150618D01*
X350879Y151606D01*
X350749Y152595D01*
X350367Y153516D01*
X349760Y154307D01*
X348969Y154915D01*
X348048Y155296D01*
X347059Y155426D01*
D02*
G37*
G36*
X357059D02*
X356070Y155296D01*
X355149Y154915D01*
X354358Y154307D01*
X353751Y153516D01*
X353369Y152595D01*
X353239Y151606D01*
X353369Y150618D01*
X353751Y149696D01*
X354358Y148905D01*
X355149Y148298D01*
X356070Y147916D01*
X357059Y147786D01*
X358048Y147916D01*
X358969Y148298D01*
X359760Y148905D01*
X360367Y149696D01*
X360749Y150618D01*
X360879Y151606D01*
X360749Y152595D01*
X360367Y153516D01*
X359760Y154307D01*
X358969Y154915D01*
X358048Y155296D01*
X357059Y155426D01*
D02*
G37*
G36*
X105079Y153720D02*
X101963D01*
Y152655D01*
X104013Y150604D01*
X105079D01*
Y153720D01*
D02*
G37*
G36*
X98007Y168593D02*
X94119D01*
X92175Y166649D01*
Y162761D01*
X94119Y160817D01*
X98007D01*
X99951Y162761D01*
Y166649D01*
X98007Y168593D01*
D02*
G37*
G36*
X108007D02*
X104119D01*
X102175Y166649D01*
Y162761D01*
X104119Y160817D01*
X108007D01*
X109951Y162761D01*
Y166649D01*
X108007Y168593D01*
D02*
G37*
G36*
X154528Y169980D02*
X152131D01*
X152455Y169200D01*
X153016Y168468D01*
X153747Y167907D01*
X154528Y167584D01*
Y169980D01*
D02*
G37*
G36*
X108113Y158805D02*
X107047D01*
Y155689D01*
X110163D01*
Y156755D01*
X108113Y158805D01*
D02*
G37*
G36*
X347059Y165426D02*
X346070Y165296D01*
X345149Y164915D01*
X344358Y164307D01*
X343751Y163516D01*
X343369Y162595D01*
X343239Y161606D01*
X343369Y160618D01*
X343751Y159696D01*
X344358Y158905D01*
X345149Y158298D01*
X346070Y157916D01*
X347059Y157786D01*
X348048Y157916D01*
X348969Y158298D01*
X349760Y158905D01*
X350367Y159696D01*
X350749Y160618D01*
X350879Y161606D01*
X350749Y162595D01*
X350367Y163516D01*
X349760Y164307D01*
X348969Y164915D01*
X348048Y165296D01*
X347059Y165426D01*
D02*
G37*
G36*
X357059D02*
X356070Y165296D01*
X355149Y164915D01*
X354358Y164307D01*
X353751Y163516D01*
X353369Y162595D01*
X353239Y161606D01*
X353369Y160618D01*
X353751Y159696D01*
X354358Y158905D01*
X355149Y158298D01*
X356070Y157916D01*
X357059Y157786D01*
X358048Y157916D01*
X358969Y158298D01*
X359760Y158905D01*
X360367Y159696D01*
X360749Y160618D01*
X360879Y161606D01*
X360749Y162595D01*
X360367Y163516D01*
X359760Y164307D01*
X358969Y164915D01*
X358048Y165296D01*
X357059Y165426D01*
D02*
G37*
G36*
Y145426D02*
X356070Y145296D01*
X355149Y144915D01*
X354358Y144307D01*
X353751Y143516D01*
X353369Y142595D01*
X353239Y141606D01*
X353369Y140618D01*
X353751Y139696D01*
X354358Y138905D01*
X355149Y138298D01*
X356070Y137916D01*
X357059Y137786D01*
X358048Y137916D01*
X358969Y138298D01*
X359760Y138905D01*
X360367Y139696D01*
X360749Y140618D01*
X360879Y141606D01*
X360749Y142595D01*
X360367Y143516D01*
X359760Y144307D01*
X358969Y144915D01*
X358048Y145296D01*
X357059Y145426D01*
D02*
G37*
G36*
X71850Y96294D02*
X71070Y95971D01*
X70338Y95410D01*
X69777Y94678D01*
X69454Y93898D01*
X71850D01*
Y96294D01*
D02*
G37*
G36*
X73819D02*
Y93898D01*
X76215D01*
X75892Y94678D01*
X75331Y95410D01*
X74600Y95971D01*
X73819Y96294D01*
D02*
G37*
G36*
X350964Y110622D02*
X348043D01*
Y107701D01*
X348103Y107709D01*
X349076Y108112D01*
X349912Y108754D01*
X350553Y109589D01*
X350956Y110562D01*
X350964Y110622D01*
D02*
G37*
G36*
X138043Y95511D02*
Y92590D01*
X140964D01*
X140956Y92651D01*
X140553Y93624D01*
X139912Y94459D01*
X139076Y95100D01*
X138103Y95503D01*
X138043Y95511D01*
D02*
G37*
G36*
X146075D02*
X146015Y95503D01*
X145042Y95100D01*
X144206Y94459D01*
X143565Y93624D01*
X143162Y92651D01*
X143154Y92590D01*
X146075D01*
Y95511D01*
D02*
G37*
G36*
X148043D02*
Y92590D01*
X150964D01*
X150956Y92651D01*
X150553Y93624D01*
X149912Y94459D01*
X149076Y95100D01*
X148103Y95503D01*
X148043Y95511D01*
D02*
G37*
G36*
X131398Y135499D02*
X131338Y135492D01*
X130365Y135089D01*
X129529Y134447D01*
X128888Y133612D01*
X128485Y132639D01*
X128477Y132579D01*
X131398D01*
Y135499D01*
D02*
G37*
G36*
X133366D02*
Y132579D01*
X136287D01*
X136279Y132639D01*
X135876Y133612D01*
X135235Y134447D01*
X134399Y135089D01*
X133426Y135492D01*
X133366Y135499D01*
D02*
G37*
G36*
X347059Y145426D02*
X346070Y145296D01*
X345149Y144915D01*
X344358Y144307D01*
X343751Y143516D01*
X343369Y142595D01*
X343239Y141606D01*
X343369Y140618D01*
X343751Y139696D01*
X344358Y138905D01*
X345149Y138298D01*
X346070Y137916D01*
X347059Y137786D01*
X348048Y137916D01*
X348969Y138298D01*
X349760Y138905D01*
X350367Y139696D01*
X350749Y140618D01*
X350879Y141606D01*
X350749Y142595D01*
X350367Y143516D01*
X349760Y144307D01*
X348969Y144915D01*
X348048Y145296D01*
X347059Y145426D01*
D02*
G37*
G36*
X348043Y115511D02*
Y112591D01*
X350964D01*
X350956Y112651D01*
X350553Y113624D01*
X349912Y114459D01*
X349076Y115100D01*
X348103Y115503D01*
X348043Y115511D01*
D02*
G37*
G36*
X131398Y130610D02*
X128477D01*
X128485Y130550D01*
X128888Y129577D01*
X129529Y128742D01*
X130365Y128101D01*
X131338Y127697D01*
X131398Y127690D01*
Y130610D01*
D02*
G37*
G36*
X136287D02*
X133366D01*
Y127690D01*
X133426Y127697D01*
X134399Y128101D01*
X135235Y128742D01*
X135876Y129577D01*
X136279Y130550D01*
X136287Y130610D01*
D02*
G37*
G36*
X158893Y169980D02*
X156496D01*
Y167584D01*
X157277Y167907D01*
X158008Y168468D01*
X158569Y169200D01*
X158893Y169980D01*
D02*
G37*
G36*
X27657Y209088D02*
X27244Y208917D01*
X26665Y208473D01*
X26221Y207894D01*
X26049Y207480D01*
X27657D01*
Y209088D01*
D02*
G37*
G36*
X29626D02*
Y207480D01*
X31234D01*
X31063Y207894D01*
X30619Y208473D01*
X30040Y208917D01*
X29626Y209088D01*
D02*
G37*
G36*
X347059Y215426D02*
X346070Y215296D01*
X345149Y214915D01*
X344358Y214307D01*
X343751Y213516D01*
X343369Y212595D01*
X343239Y211606D01*
X343369Y210618D01*
X343751Y209696D01*
X344358Y208905D01*
X345149Y208298D01*
X346070Y207916D01*
X347059Y207786D01*
X348048Y207916D01*
X348969Y208298D01*
X349760Y208905D01*
X350367Y209696D01*
X350749Y210618D01*
X350879Y211606D01*
X350749Y212595D01*
X350367Y213516D01*
X349760Y214307D01*
X348969Y214915D01*
X348048Y215296D01*
X347059Y215426D01*
D02*
G37*
G36*
X156299Y195408D02*
Y193012D01*
X158696D01*
X158372Y193793D01*
X157811Y194524D01*
X157080Y195085D01*
X156299Y195408D01*
D02*
G37*
G36*
X347059Y205426D02*
X346070Y205296D01*
X345149Y204915D01*
X344358Y204308D01*
X343751Y203516D01*
X343369Y202595D01*
X343239Y201606D01*
X343369Y200618D01*
X343751Y199696D01*
X344358Y198905D01*
X345149Y198298D01*
X346070Y197916D01*
X347059Y197786D01*
X348048Y197916D01*
X348969Y198298D01*
X349760Y198905D01*
X350367Y199696D01*
X350749Y200618D01*
X350879Y201606D01*
X350749Y202595D01*
X350367Y203516D01*
X349760Y204308D01*
X348969Y204915D01*
X348048Y205296D01*
X347059Y205426D01*
D02*
G37*
G36*
X357059D02*
X356070Y205296D01*
X355149Y204915D01*
X354358Y204308D01*
X353751Y203516D01*
X353369Y202595D01*
X353239Y201606D01*
X353369Y200618D01*
X353751Y199696D01*
X354358Y198905D01*
X355149Y198298D01*
X356070Y197916D01*
X357059Y197786D01*
X358048Y197916D01*
X358969Y198298D01*
X359760Y198905D01*
X360367Y199696D01*
X360749Y200618D01*
X360879Y201606D01*
X360749Y202595D01*
X360367Y203516D01*
X359760Y204308D01*
X358969Y204915D01*
X358048Y205296D01*
X357059Y205426D01*
D02*
G37*
G36*
X347059Y225426D02*
X346070Y225296D01*
X345149Y224915D01*
X344358Y224307D01*
X343751Y223516D01*
X343369Y222595D01*
X343239Y221606D01*
X343369Y220618D01*
X343751Y219696D01*
X344358Y218905D01*
X345149Y218298D01*
X346070Y217916D01*
X347059Y217786D01*
X348048Y217916D01*
X348969Y218298D01*
X349760Y218905D01*
X350367Y219696D01*
X350749Y220618D01*
X350879Y221606D01*
X350749Y222595D01*
X350367Y223516D01*
X349760Y224307D01*
X348969Y224915D01*
X348048Y225296D01*
X347059Y225426D01*
D02*
G37*
G36*
X357059D02*
X356070Y225296D01*
X355149Y224915D01*
X354358Y224307D01*
X353751Y223516D01*
X353369Y222595D01*
X353239Y221606D01*
X353369Y220618D01*
X353751Y219696D01*
X354358Y218905D01*
X355149Y218298D01*
X356070Y217916D01*
X357059Y217786D01*
X358048Y217916D01*
X358969Y218298D01*
X359760Y218905D01*
X360367Y219696D01*
X360749Y220618D01*
X360879Y221606D01*
X360749Y222595D01*
X360367Y223516D01*
X359760Y224307D01*
X358969Y224915D01*
X358048Y225296D01*
X357059Y225426D01*
D02*
G37*
G36*
X47835Y232646D02*
X46977Y232534D01*
X46177Y232202D01*
X45490Y231675D01*
X44963Y230989D01*
X44632Y230189D01*
X44519Y229331D01*
X44632Y228472D01*
X44963Y227673D01*
X45490Y226986D01*
X46028Y226573D01*
Y223917D01*
X46166Y223226D01*
X46557Y222640D01*
X52682Y216516D01*
Y210042D01*
X52819Y209350D01*
X53211Y208764D01*
X58824Y203152D01*
Y191242D01*
X58285Y190829D01*
X57758Y190142D01*
X57427Y189342D01*
X57314Y188484D01*
X57427Y187626D01*
X57758Y186826D01*
X58285Y186140D01*
X58972Y185613D01*
X59772Y185282D01*
X60630Y185169D01*
X61488Y185282D01*
X62288Y185613D01*
X62975Y186140D01*
X63502Y186826D01*
X63833Y187626D01*
X63946Y188484D01*
X63833Y189342D01*
X63502Y190142D01*
X62975Y190829D01*
X62436Y191242D01*
Y203900D01*
X62299Y204591D01*
X61907Y205177D01*
X59055Y208030D01*
X59234Y208558D01*
X59618Y208608D01*
X60418Y208940D01*
X61104Y209466D01*
X61631Y210153D01*
X61963Y210953D01*
X62076Y211811D01*
X61963Y212669D01*
X61631Y213469D01*
X61104Y214156D01*
X60418Y214683D01*
X59964Y214871D01*
Y219285D01*
X61227Y220548D01*
X64260D01*
X64430Y220048D01*
X64191Y219864D01*
X63664Y219178D01*
X63333Y218378D01*
X63220Y217520D01*
X63333Y216662D01*
X63664Y215862D01*
X64191Y215175D01*
X64877Y214648D01*
X65677Y214317D01*
X66535Y214204D01*
X67394Y214317D01*
X68193Y214648D01*
X68880Y215175D01*
X69407Y215862D01*
X69595Y216316D01*
X83596D01*
X83743Y215960D01*
X84270Y215273D01*
X84956Y214747D01*
X85756Y214415D01*
X86614Y214302D01*
X87472Y214415D01*
X88272Y214747D01*
X88959Y215273D01*
X89486Y215960D01*
X89817Y216760D01*
X89930Y217618D01*
X89817Y218476D01*
X89605Y218988D01*
X90016Y219303D01*
X90566Y218880D01*
X91366Y218549D01*
X92224Y218436D01*
X93083Y218549D01*
X93882Y218880D01*
X94569Y219407D01*
X95096Y220094D01*
X95427Y220894D01*
X95540Y221752D01*
X95427Y222610D01*
X95096Y223410D01*
X94569Y224097D01*
X93882Y224623D01*
X93083Y224955D01*
X92224Y225068D01*
X91366Y224955D01*
X90566Y224623D01*
X89880Y224097D01*
X89353Y223410D01*
X89165Y222956D01*
X60728D01*
X60268Y222865D01*
X60111Y222760D01*
X59877Y222604D01*
X59877Y222604D01*
X57908Y220635D01*
X57647Y220244D01*
X57556Y219783D01*
X57556Y219783D01*
Y214871D01*
X57102Y214683D01*
X56795Y214447D01*
X56295Y214693D01*
Y217264D01*
X56157Y217955D01*
X55765Y218541D01*
X49641Y224666D01*
Y226573D01*
X50179Y226986D01*
X50706Y227673D01*
X51037Y228472D01*
X51150Y229331D01*
X51037Y230189D01*
X50706Y230989D01*
X50179Y231675D01*
X49492Y232202D01*
X48693Y232534D01*
X47835Y232646D01*
D02*
G37*
G36*
X357059Y215426D02*
X356070Y215296D01*
X355149Y214915D01*
X354358Y214307D01*
X353751Y213516D01*
X353369Y212595D01*
X353239Y211606D01*
X353369Y210618D01*
X353751Y209696D01*
X354358Y208905D01*
X355149Y208298D01*
X356070Y207916D01*
X357059Y207786D01*
X358048Y207916D01*
X358969Y208298D01*
X359760Y208905D01*
X360367Y209696D01*
X360749Y210618D01*
X360879Y211606D01*
X360749Y212595D01*
X360367Y213516D01*
X359760Y214307D01*
X358969Y214915D01*
X358048Y215296D01*
X357059Y215426D01*
D02*
G37*
G36*
X111221Y218701D02*
X108824D01*
X109148Y217920D01*
X109708Y217189D01*
X110440Y216628D01*
X111221Y216304D01*
Y218701D01*
D02*
G37*
G36*
X115585D02*
X113189D01*
Y216304D01*
X113970Y216628D01*
X114701Y217189D01*
X115262Y217920D01*
X115585Y218701D01*
D02*
G37*
G36*
X154331Y195408D02*
X153550Y195085D01*
X152819Y194524D01*
X152258Y193793D01*
X151934Y193012D01*
X154331D01*
Y195408D01*
D02*
G37*
G36*
X154528Y174345D02*
X153747Y174022D01*
X153016Y173461D01*
X152455Y172730D01*
X152131Y171949D01*
X154528D01*
Y174345D01*
D02*
G37*
G36*
X156496D02*
Y171949D01*
X158893D01*
X158569Y172730D01*
X158008Y173461D01*
X157277Y174022D01*
X156496Y174345D01*
D02*
G37*
G36*
X347059Y185426D02*
X346070Y185296D01*
X345149Y184915D01*
X344358Y184308D01*
X343751Y183516D01*
X343369Y182595D01*
X343239Y181606D01*
X343369Y180618D01*
X343751Y179696D01*
X344358Y178905D01*
X345149Y178298D01*
X346070Y177916D01*
X347059Y177786D01*
X348048Y177916D01*
X348969Y178298D01*
X349760Y178905D01*
X350367Y179696D01*
X350749Y180618D01*
X350879Y181606D01*
X350749Y182595D01*
X350367Y183516D01*
X349760Y184308D01*
X348969Y184915D01*
X348048Y185296D01*
X347059Y185426D01*
D02*
G37*
G36*
Y175426D02*
X346070Y175296D01*
X345149Y174915D01*
X344358Y174308D01*
X343751Y173516D01*
X343369Y172595D01*
X343239Y171606D01*
X343369Y170618D01*
X343751Y169696D01*
X344358Y168905D01*
X345149Y168298D01*
X346070Y167916D01*
X347059Y167786D01*
X348048Y167916D01*
X348969Y168298D01*
X349760Y168905D01*
X350367Y169696D01*
X350749Y170618D01*
X350879Y171606D01*
X350749Y172595D01*
X350367Y173516D01*
X349760Y174308D01*
X348969Y174915D01*
X348048Y175296D01*
X347059Y175426D01*
D02*
G37*
G36*
X357059D02*
X356070Y175296D01*
X355149Y174915D01*
X354358Y174308D01*
X353751Y173516D01*
X353369Y172595D01*
X353239Y171606D01*
X353369Y170618D01*
X353751Y169696D01*
X354358Y168905D01*
X355149Y168298D01*
X356070Y167916D01*
X357059Y167786D01*
X358048Y167916D01*
X358969Y168298D01*
X359760Y168905D01*
X360367Y169696D01*
X360749Y170618D01*
X360879Y171606D01*
X360749Y172595D01*
X360367Y173516D01*
X359760Y174308D01*
X358969Y174915D01*
X358048Y175296D01*
X357059Y175426D01*
D02*
G37*
G36*
X98007Y178593D02*
X94119D01*
X92175Y176649D01*
Y172761D01*
X94119Y170817D01*
X98007D01*
X99951Y172761D01*
Y176649D01*
X98007Y178593D01*
D02*
G37*
G36*
X154331Y191043D02*
X151934D01*
X152258Y190262D01*
X152819Y189531D01*
X153550Y188970D01*
X154331Y188647D01*
Y191043D01*
D02*
G37*
G36*
X158696D02*
X156299D01*
Y188647D01*
X157080Y188970D01*
X157811Y189531D01*
X158372Y190262D01*
X158696Y191043D01*
D02*
G37*
G36*
X31234Y205512D02*
X26049D01*
X26221Y205098D01*
X26665Y204519D01*
X27066Y204212D01*
X27112Y203694D01*
X27080Y203602D01*
X26817Y203400D01*
X26406Y202865D01*
X26149Y202243D01*
X26061Y201575D01*
X26149Y200907D01*
X26406Y200284D01*
X26817Y199750D01*
X27275Y199398D01*
X27317Y199114D01*
X27275Y198830D01*
X26817Y198479D01*
X26406Y197944D01*
X26149Y197322D01*
X26061Y196653D01*
X26149Y195985D01*
X26406Y195363D01*
X26817Y194828D01*
X27275Y194477D01*
X27317Y194193D01*
X27275Y193909D01*
X26817Y193557D01*
X26406Y193023D01*
X26149Y192400D01*
X26061Y191732D01*
X26149Y191064D01*
X26406Y190442D01*
X26817Y189907D01*
X27351Y189497D01*
X27974Y189239D01*
X28642Y189151D01*
X29310Y189239D01*
X29932Y189497D01*
X30467Y189907D01*
X30877Y190442D01*
X31135Y191064D01*
X31223Y191732D01*
X31135Y192400D01*
X30877Y193023D01*
X30467Y193557D01*
X30009Y193909D01*
X29966Y194193D01*
X30009Y194477D01*
X30467Y194828D01*
X30877Y195363D01*
X31135Y195985D01*
X31223Y196653D01*
X31135Y197322D01*
X30877Y197944D01*
X30467Y198479D01*
X30009Y198830D01*
X29966Y199114D01*
X30009Y199398D01*
X30467Y199750D01*
X30877Y200284D01*
X31135Y200907D01*
X31223Y201575D01*
X31135Y202243D01*
X30877Y202865D01*
X30467Y203400D01*
X30204Y203602D01*
X30172Y203694D01*
X30218Y204212D01*
X30619Y204519D01*
X31063Y205098D01*
X31234Y205512D01*
D02*
G37*
G36*
X357059Y185426D02*
X356070Y185296D01*
X355149Y184915D01*
X354358Y184308D01*
X353751Y183516D01*
X353369Y182595D01*
X353239Y181606D01*
X353369Y180618D01*
X353751Y179696D01*
X354358Y178905D01*
X355149Y178298D01*
X356070Y177916D01*
X357059Y177786D01*
X358048Y177916D01*
X358969Y178298D01*
X359760Y178905D01*
X360367Y179696D01*
X360749Y180618D01*
X360879Y181606D01*
X360749Y182595D01*
X360367Y183516D01*
X359760Y184308D01*
X358969Y184915D01*
X358048Y185296D01*
X357059Y185426D01*
D02*
G37*
G36*
X347059Y195426D02*
X346070Y195296D01*
X345149Y194915D01*
X344358Y194307D01*
X343751Y193516D01*
X343369Y192595D01*
X343239Y191606D01*
X343369Y190618D01*
X343751Y189696D01*
X344358Y188905D01*
X345149Y188298D01*
X346070Y187916D01*
X347059Y187786D01*
X348048Y187916D01*
X348969Y188298D01*
X349760Y188905D01*
X350367Y189696D01*
X350749Y190618D01*
X350879Y191606D01*
X350749Y192595D01*
X350367Y193516D01*
X349760Y194307D01*
X348969Y194915D01*
X348048Y195296D01*
X347059Y195426D01*
D02*
G37*
G36*
X357059D02*
X356070Y195296D01*
X355149Y194915D01*
X354358Y194307D01*
X353751Y193516D01*
X353369Y192595D01*
X353239Y191606D01*
X353369Y190618D01*
X353751Y189696D01*
X354358Y188905D01*
X355149Y188298D01*
X356070Y187916D01*
X357059Y187786D01*
X358048Y187916D01*
X358969Y188298D01*
X359760Y188905D01*
X360367Y189696D01*
X360749Y190618D01*
X360879Y191606D01*
X360749Y192595D01*
X360367Y193516D01*
X359760Y194307D01*
X358969Y194915D01*
X358048Y195296D01*
X357059Y195426D01*
D02*
G37*
G36*
X136075Y95511D02*
X136015Y95503D01*
X135042Y95100D01*
X134206Y94459D01*
X133565Y93624D01*
X133162Y92651D01*
X133154Y92590D01*
X136075D01*
Y95511D01*
D02*
G37*
G36*
X134744Y25295D02*
X132348D01*
X132671Y24514D01*
X133232Y23783D01*
X133963Y23222D01*
X134744Y22899D01*
Y25295D01*
D02*
G37*
G36*
X139109D02*
X136713D01*
Y22899D01*
X137494Y23222D01*
X138225Y23783D01*
X138786Y24514D01*
X139109Y25295D01*
D02*
G37*
G36*
X134744Y29660D02*
X133963Y29337D01*
X133232Y28776D01*
X132671Y28045D01*
X132348Y27264D01*
X134744D01*
Y29660D01*
D02*
G37*
G36*
X185138Y20472D02*
X183530D01*
X183701Y20059D01*
X184145Y19480D01*
X184724Y19036D01*
X185138Y18864D01*
Y20472D01*
D02*
G37*
G36*
X188714D02*
X187106D01*
Y18864D01*
X187520Y19036D01*
X188099Y19480D01*
X188543Y20059D01*
X188714Y20472D01*
D02*
G37*
G36*
Y35236D02*
X183530D01*
X183701Y34823D01*
X184145Y34244D01*
X184546Y33936D01*
X184592Y33418D01*
X184560Y33326D01*
X184297Y33124D01*
X183887Y32590D01*
X183629Y31967D01*
X183541Y31299D01*
X183629Y30631D01*
X183887Y30009D01*
X184297Y29474D01*
X184755Y29123D01*
X184798Y28839D01*
X184755Y28554D01*
X184297Y28203D01*
X183887Y27669D01*
X183629Y27046D01*
X183541Y26378D01*
X183629Y25710D01*
X183887Y25087D01*
X184297Y24553D01*
X184560Y24351D01*
X184592Y24259D01*
X184546Y23741D01*
X184145Y23434D01*
X183701Y22854D01*
X183530Y22441D01*
X188714D01*
X188543Y22854D01*
X188099Y23434D01*
X187698Y23741D01*
X187652Y24259D01*
X187684Y24351D01*
X187947Y24553D01*
X188357Y25087D01*
X188615Y25710D01*
X188703Y26378D01*
X188615Y27046D01*
X188357Y27669D01*
X187947Y28203D01*
X187489Y28554D01*
X187446Y28839D01*
X187489Y29123D01*
X187947Y29474D01*
X188357Y30009D01*
X188615Y30631D01*
X188703Y31299D01*
X188615Y31967D01*
X188357Y32590D01*
X187947Y33124D01*
X187684Y33326D01*
X187652Y33418D01*
X187698Y33936D01*
X188099Y34244D01*
X188543Y34823D01*
X188714Y35236D01*
D02*
G37*
G36*
X185138Y38813D02*
X184724Y38642D01*
X184145Y38197D01*
X183701Y37618D01*
X183530Y37205D01*
X185138D01*
Y38813D01*
D02*
G37*
G36*
X187106D02*
Y37205D01*
X188714D01*
X188543Y37618D01*
X188099Y38197D01*
X187520Y38642D01*
X187106Y38813D01*
D02*
G37*
G36*
X225492Y48327D02*
X223096D01*
X223419Y47546D01*
X223980Y46815D01*
X224711Y46254D01*
X225492Y45930D01*
Y48327D01*
D02*
G37*
G36*
X136713Y29660D02*
Y27264D01*
X139109D01*
X138786Y28045D01*
X138225Y28776D01*
X137494Y29337D01*
X136713Y29660D01*
D02*
G37*
G36*
X15354Y319909D02*
X14817Y319802D01*
X14361Y319497D01*
X4125Y309261D01*
X3820Y308805D01*
X3713Y308268D01*
Y46850D01*
X3820Y46313D01*
X4125Y45857D01*
X14558Y35424D01*
X15014Y35119D01*
X15551Y35012D01*
X16089Y35119D01*
X16545Y35424D01*
X16849Y35880D01*
X16956Y36417D01*
X16849Y36955D01*
X16545Y37411D01*
X6523Y47432D01*
Y307686D01*
X16348Y317511D01*
X16652Y317966D01*
X16759Y318504D01*
X16652Y319042D01*
X16348Y319497D01*
X15892Y319802D01*
X15354Y319909D01*
D02*
G37*
G36*
X362598Y319909D02*
X362061Y319802D01*
X361605Y319497D01*
X361300Y319042D01*
X361193Y318504D01*
X361300Y317966D01*
X361605Y317511D01*
X371430Y307686D01*
Y47746D01*
X361330Y37646D01*
X361025Y37190D01*
X360918Y36653D01*
X361025Y36115D01*
X361330Y35659D01*
X361786Y35355D01*
X362323Y35248D01*
X362861Y35355D01*
X363317Y35659D01*
X373828Y46171D01*
X374133Y46626D01*
X374240Y47164D01*
Y308268D01*
X374133Y308805D01*
X373828Y309261D01*
X363592Y319497D01*
X363136Y319802D01*
X362598Y319909D01*
D02*
G37*
G36*
X362402Y27334D02*
Y17520D01*
X372216D01*
X372160Y18237D01*
X371761Y19896D01*
X371108Y21473D01*
X370216Y22928D01*
X369108Y24226D01*
X367810Y25334D01*
X366355Y26226D01*
X364778Y26879D01*
X363119Y27278D01*
X362402Y27334D01*
D02*
G37*
G36*
X372216Y15551D02*
X362402D01*
Y5737D01*
X363119Y5793D01*
X364778Y6192D01*
X366355Y6845D01*
X367810Y7737D01*
X369108Y8845D01*
X370216Y10143D01*
X371108Y11598D01*
X371761Y13174D01*
X372160Y14834D01*
X372216Y15551D01*
D02*
G37*
G36*
X341300Y17035D02*
X340763Y16928D01*
X340307Y16623D01*
X330207Y6523D01*
X47432D01*
X37411Y16545D01*
X36955Y16849D01*
X36417Y16956D01*
X35880Y16849D01*
X35424Y16545D01*
X35119Y16089D01*
X35012Y15551D01*
X35119Y15014D01*
X35424Y14558D01*
X45857Y4125D01*
X46313Y3820D01*
X46850Y3713D01*
X330789D01*
X331326Y3820D01*
X331782Y4125D01*
X342294Y14636D01*
X342598Y15092D01*
X342705Y15630D01*
X342598Y16167D01*
X342294Y16623D01*
X341838Y16928D01*
X341300Y17035D01*
D02*
G37*
G36*
X305906Y14075D02*
X303509D01*
X303833Y13294D01*
X304394Y12563D01*
X305125Y12002D01*
X305906Y11678D01*
Y14075D01*
D02*
G37*
G36*
X15551Y15551D02*
X5737D01*
X5793Y14834D01*
X6192Y13174D01*
X6845Y11598D01*
X7737Y10143D01*
X8845Y8845D01*
X10143Y7737D01*
X11598Y6845D01*
X13174Y6192D01*
X14834Y5793D01*
X15551Y5737D01*
Y15551D01*
D02*
G37*
G36*
X27334D02*
X17520D01*
Y5737D01*
X18237Y5793D01*
X19896Y6192D01*
X21473Y6845D01*
X22928Y7737D01*
X24226Y8845D01*
X25334Y10143D01*
X26226Y11598D01*
X26879Y13174D01*
X27278Y14834D01*
X27334Y15551D01*
D02*
G37*
G36*
X360433D02*
X350619D01*
X350675Y14834D01*
X351074Y13174D01*
X351727Y11598D01*
X352618Y10143D01*
X353727Y8845D01*
X355025Y7737D01*
X356480Y6845D01*
X358056Y6192D01*
X359716Y5793D01*
X360433Y5737D01*
Y15551D01*
D02*
G37*
G36*
X15551Y27334D02*
X14834Y27278D01*
X13174Y26879D01*
X11598Y26226D01*
X10143Y25334D01*
X8845Y24226D01*
X7737Y22928D01*
X6845Y21473D01*
X6192Y19896D01*
X5793Y18237D01*
X5737Y17520D01*
X15551D01*
Y27334D01*
D02*
G37*
G36*
X17520D02*
Y17520D01*
X27334D01*
X27278Y18237D01*
X26879Y19896D01*
X26226Y21473D01*
X25334Y22928D01*
X24226Y24226D01*
X22928Y25334D01*
X21473Y26226D01*
X19896Y26879D01*
X18237Y27278D01*
X17520Y27334D01*
D02*
G37*
G36*
X360433D02*
X359716Y27278D01*
X358056Y26879D01*
X356480Y26226D01*
X355025Y25334D01*
X353727Y24226D01*
X352618Y22928D01*
X351727Y21473D01*
X351074Y19896D01*
X350675Y18237D01*
X350619Y17520D01*
X360433D01*
Y27334D01*
D02*
G37*
G36*
X310270Y14075D02*
X307874D01*
Y11678D01*
X308655Y12002D01*
X309386Y12563D01*
X309947Y13294D01*
X310270Y14075D01*
D02*
G37*
G36*
X305906Y18440D02*
X305125Y18116D01*
X304394Y17555D01*
X303833Y16824D01*
X303509Y16043D01*
X305906D01*
Y18440D01*
D02*
G37*
G36*
X307874D02*
Y16043D01*
X310270D01*
X309947Y16824D01*
X309386Y17555D01*
X308655Y18116D01*
X307874Y18440D01*
D02*
G37*
G36*
X229857Y48327D02*
X227461D01*
Y45930D01*
X228241Y46254D01*
X228973Y46815D01*
X229534Y47546D01*
X229857Y48327D01*
D02*
G37*
G36*
X150964Y90622D02*
X148043D01*
Y87701D01*
X148103Y87709D01*
X149076Y88112D01*
X149912Y88753D01*
X150553Y89589D01*
X150956Y90562D01*
X150964Y90622D01*
D02*
G37*
G36*
X87059Y95426D02*
X86070Y95296D01*
X85149Y94915D01*
X84358Y94308D01*
X83751Y93516D01*
X83369Y92595D01*
X83239Y91606D01*
X83369Y90618D01*
X83751Y89696D01*
X84358Y88905D01*
X85149Y88298D01*
X86070Y87916D01*
X87059Y87786D01*
X88048Y87916D01*
X88969Y88298D01*
X89760Y88905D01*
X90367Y89696D01*
X90749Y90618D01*
X90879Y91606D01*
X90749Y92595D01*
X90367Y93516D01*
X89760Y94308D01*
X88969Y94915D01*
X88048Y95296D01*
X87059Y95426D01*
D02*
G37*
G36*
X97059D02*
X96070Y95296D01*
X95149Y94915D01*
X94358Y94308D01*
X93751Y93516D01*
X93369Y92595D01*
X93239Y91606D01*
X93369Y90618D01*
X93751Y89696D01*
X94358Y88905D01*
X95149Y88298D01*
X96070Y87916D01*
X97059Y87786D01*
X98048Y87916D01*
X98969Y88298D01*
X99760Y88905D01*
X100367Y89696D01*
X100749Y90618D01*
X100879Y91606D01*
X100749Y92595D01*
X100367Y93516D01*
X99760Y94308D01*
X98969Y94915D01*
X98048Y95296D01*
X97059Y95426D01*
D02*
G37*
G36*
X136075Y90622D02*
X133154D01*
X133162Y90562D01*
X133565Y89589D01*
X134206Y88753D01*
X135042Y88112D01*
X136015Y87709D01*
X136075Y87701D01*
Y90622D01*
D02*
G37*
G36*
X140964D02*
X138043D01*
Y87701D01*
X138103Y87709D01*
X139076Y88112D01*
X139912Y88753D01*
X140553Y89589D01*
X140956Y90562D01*
X140964Y90622D01*
D02*
G37*
G36*
X146075D02*
X143154D01*
X143162Y90562D01*
X143565Y89589D01*
X144206Y88753D01*
X145042Y88112D01*
X146015Y87709D01*
X146075Y87701D01*
Y90622D01*
D02*
G37*
G36*
X157059Y95426D02*
X156070Y95296D01*
X155149Y94915D01*
X154358Y94308D01*
X153751Y93516D01*
X153369Y92595D01*
X153239Y91606D01*
X153369Y90618D01*
X153751Y89696D01*
X154358Y88905D01*
X155149Y88298D01*
X156070Y87916D01*
X157059Y87786D01*
X158048Y87916D01*
X158969Y88298D01*
X159760Y88905D01*
X160367Y89696D01*
X160749Y90618D01*
X160879Y91606D01*
X160749Y92595D01*
X160367Y93516D01*
X159760Y94308D01*
X158969Y94915D01*
X158048Y95296D01*
X157059Y95426D01*
D02*
G37*
G36*
X71850Y91929D02*
X69454D01*
X69777Y91148D01*
X70338Y90417D01*
X71070Y89856D01*
X71850Y89533D01*
Y91929D01*
D02*
G37*
G36*
X76215D02*
X73819D01*
Y89533D01*
X74600Y89856D01*
X75331Y90417D01*
X75892Y91148D01*
X76215Y91929D01*
D02*
G37*
G36*
X107059Y95426D02*
X106070Y95296D01*
X105149Y94915D01*
X104358Y94308D01*
X103751Y93516D01*
X103369Y92595D01*
X103239Y91606D01*
X103369Y90618D01*
X103751Y89696D01*
X104358Y88905D01*
X105149Y88298D01*
X106070Y87916D01*
X107059Y87786D01*
X108048Y87916D01*
X108969Y88298D01*
X109760Y88905D01*
X110367Y89696D01*
X110749Y90618D01*
X110879Y91606D01*
X110749Y92595D01*
X110367Y93516D01*
X109760Y94308D01*
X108969Y94915D01*
X108048Y95296D01*
X107059Y95426D01*
D02*
G37*
G36*
X117059D02*
X116070Y95296D01*
X115149Y94915D01*
X114358Y94308D01*
X113751Y93516D01*
X113369Y92595D01*
X113239Y91606D01*
X113369Y90618D01*
X113751Y89696D01*
X114358Y88905D01*
X115149Y88298D01*
X116070Y87916D01*
X117059Y87786D01*
X118048Y87916D01*
X118969Y88298D01*
X119760Y88905D01*
X120367Y89696D01*
X120749Y90618D01*
X120879Y91606D01*
X120749Y92595D01*
X120367Y93516D01*
X119760Y94308D01*
X118969Y94915D01*
X118048Y95296D01*
X117059Y95426D01*
D02*
G37*
G36*
X127059D02*
X126070Y95296D01*
X125149Y94915D01*
X124358Y94308D01*
X123751Y93516D01*
X123369Y92595D01*
X123239Y91606D01*
X123369Y90618D01*
X123751Y89696D01*
X124358Y88905D01*
X125149Y88298D01*
X126070Y87916D01*
X127059Y87786D01*
X128048Y87916D01*
X128969Y88298D01*
X129760Y88905D01*
X130367Y89696D01*
X130749Y90618D01*
X130879Y91606D01*
X130749Y92595D01*
X130367Y93516D01*
X129760Y94308D01*
X128969Y94915D01*
X128048Y95296D01*
X127059Y95426D01*
D02*
G37*
G36*
X217913Y74796D02*
X217055Y74683D01*
X216255Y74352D01*
X215569Y73825D01*
X215361Y73554D01*
X140347D01*
X140140Y73825D01*
X139453Y74352D01*
X138654Y74683D01*
X137795Y74796D01*
X136937Y74683D01*
X136137Y74352D01*
X135451Y73825D01*
X135092Y73358D01*
X100735D01*
X100376Y73825D01*
X99689Y74352D01*
X98890Y74683D01*
X98032Y74796D01*
X97173Y74683D01*
X96374Y74352D01*
X95687Y73825D01*
X95160Y73138D01*
X94829Y72338D01*
X94716Y71480D01*
X94829Y70622D01*
X95160Y69822D01*
X95687Y69136D01*
X96374Y68609D01*
X97173Y68278D01*
X98032Y68164D01*
X98890Y68278D01*
X99689Y68609D01*
X100376Y69136D01*
X100903Y69822D01*
X101037Y70146D01*
X134790D01*
X134924Y69822D01*
X135451Y69136D01*
X136137Y68609D01*
X136937Y68278D01*
X137795Y68164D01*
X138654Y68278D01*
X139453Y68609D01*
X140140Y69136D01*
X140667Y69822D01*
X140883Y70343D01*
X214826D01*
X215042Y69822D01*
X215569Y69136D01*
X216255Y68609D01*
X217055Y68278D01*
X217913Y68164D01*
X218772Y68278D01*
X219571Y68609D01*
X220258Y69136D01*
X220785Y69822D01*
X221116Y70622D01*
X221229Y71480D01*
X221116Y72338D01*
X220785Y73138D01*
X220258Y73825D01*
X219571Y74352D01*
X218772Y74683D01*
X217913Y74796D01*
D02*
G37*
G36*
X227461Y52692D02*
Y50295D01*
X229857D01*
X229534Y51076D01*
X228973Y51807D01*
X228241Y52368D01*
X227461Y52692D01*
D02*
G37*
G36*
X125098Y56038D02*
X124318Y55715D01*
X123586Y55154D01*
X123025Y54423D01*
X122702Y53642D01*
X125098D01*
Y56038D01*
D02*
G37*
G36*
X127067D02*
Y53642D01*
X129463D01*
X129140Y54423D01*
X128579Y55154D01*
X127848Y55715D01*
X127067Y56038D01*
D02*
G37*
G36*
X125098Y51673D02*
X122702D01*
X123025Y50892D01*
X123586Y50161D01*
X124318Y49600D01*
X125098Y49277D01*
Y51673D01*
D02*
G37*
G36*
X129463D02*
X127067D01*
Y49277D01*
X127848Y49600D01*
X128579Y50161D01*
X129140Y50892D01*
X129463Y51673D01*
D02*
G37*
G36*
X225492Y52692D02*
X224711Y52368D01*
X223980Y51807D01*
X223419Y51076D01*
X223096Y50295D01*
X225492D01*
Y52692D01*
D02*
G37*
G36*
X183563Y63912D02*
Y61516D01*
X185959D01*
X185636Y62297D01*
X185075Y63028D01*
X184344Y63589D01*
X183563Y63912D01*
D02*
G37*
G36*
X97441Y63847D02*
X96583Y63734D01*
X95783Y63403D01*
X95096Y62876D01*
X94683Y62338D01*
X46163D01*
X45750Y62876D01*
X45063Y63403D01*
X44264Y63734D01*
X43406Y63847D01*
X42547Y63734D01*
X41748Y63403D01*
X41061Y62876D01*
X40534Y62189D01*
X40203Y61390D01*
X40090Y60532D01*
X40203Y59673D01*
X40534Y58874D01*
X41061Y58187D01*
X41748Y57660D01*
X42547Y57329D01*
X43406Y57216D01*
X44264Y57329D01*
X45063Y57660D01*
X45750Y58187D01*
X46163Y58725D01*
X94683D01*
X95096Y58187D01*
X95783Y57660D01*
X96583Y57329D01*
X97441Y57216D01*
X98299Y57329D01*
X99099Y57660D01*
X99786Y58187D01*
X100312Y58874D01*
X100644Y59673D01*
X100757Y60532D01*
X100644Y61390D01*
X100312Y62189D01*
X99786Y62876D01*
X99099Y63403D01*
X98299Y63734D01*
X97441Y63847D01*
D02*
G37*
G36*
X272342Y68670D02*
X271484Y68557D01*
X270685Y68226D01*
X269998Y67699D01*
X269471Y67012D01*
X269140Y66212D01*
X269027Y65354D01*
X269140Y64496D01*
X269424Y63811D01*
X269204Y63310D01*
X254437D01*
X254250Y63764D01*
X253723Y64451D01*
X253036Y64978D01*
X252236Y65309D01*
X251378Y65422D01*
X250520Y65309D01*
X249720Y64978D01*
X249033Y64451D01*
X248506Y63764D01*
X248175Y62964D01*
X248062Y62106D01*
X248175Y61248D01*
X248506Y60448D01*
X249033Y59762D01*
X249720Y59235D01*
X250520Y58903D01*
X251378Y58790D01*
X252236Y58903D01*
X253036Y59235D01*
X253723Y59762D01*
X254250Y60448D01*
X254437Y60902D01*
X271161D01*
X271161Y60902D01*
X271622Y60994D01*
X272013Y61255D01*
X272866Y62107D01*
X273201Y62151D01*
X274000Y62483D01*
X274687Y63010D01*
X275214Y63696D01*
X275545Y64496D01*
X275658Y65354D01*
X275545Y66212D01*
X275214Y67012D01*
X274687Y67699D01*
X274000Y68226D01*
X273201Y68557D01*
X272342Y68670D01*
D02*
G37*
G36*
X181595Y59547D02*
X179198D01*
X179522Y58766D01*
X180082Y58035D01*
X180814Y57474D01*
X181595Y57151D01*
Y59547D01*
D02*
G37*
G36*
X185959D02*
X183563D01*
Y57151D01*
X184344Y57474D01*
X185075Y58035D01*
X185636Y58766D01*
X185959Y59547D01*
D02*
G37*
G36*
X181595Y63912D02*
X180814Y63589D01*
X180082Y63028D01*
X179522Y62297D01*
X179198Y61516D01*
X181595D01*
Y63912D01*
D02*
G37*
G36*
X267059Y285426D02*
X266070Y285296D01*
X265149Y284915D01*
X264358Y284308D01*
X263751Y283516D01*
X263369Y282595D01*
X263239Y281606D01*
X263369Y280618D01*
X263751Y279696D01*
X264358Y278905D01*
X265149Y278298D01*
X266070Y277916D01*
X267059Y277786D01*
X268048Y277916D01*
X268969Y278298D01*
X269760Y278905D01*
X270367Y279696D01*
X270749Y280618D01*
X270879Y281606D01*
X270749Y282595D01*
X270367Y283516D01*
X269760Y284308D01*
X268969Y284915D01*
X268048Y285296D01*
X267059Y285426D01*
D02*
G37*
G36*
X277059D02*
X276070Y285296D01*
X275149Y284915D01*
X274358Y284308D01*
X273751Y283516D01*
X273369Y282595D01*
X273239Y281606D01*
X273369Y280618D01*
X273751Y279696D01*
X274358Y278905D01*
X275149Y278298D01*
X276070Y277916D01*
X277059Y277786D01*
X278048Y277916D01*
X278969Y278298D01*
X279760Y278905D01*
X280367Y279696D01*
X280749Y280618D01*
X280879Y281606D01*
X280749Y282595D01*
X280367Y283516D01*
X279760Y284308D01*
X278969Y284915D01*
X278048Y285296D01*
X277059Y285426D01*
D02*
G37*
G36*
X227059D02*
X226070Y285296D01*
X225149Y284915D01*
X224358Y284308D01*
X223751Y283516D01*
X223369Y282595D01*
X223239Y281606D01*
X223369Y280618D01*
X223751Y279696D01*
X224358Y278905D01*
X225149Y278298D01*
X226070Y277916D01*
X227059Y277786D01*
X228048Y277916D01*
X228969Y278298D01*
X229760Y278905D01*
X230367Y279696D01*
X230749Y280618D01*
X230879Y281606D01*
X230749Y282595D01*
X230367Y283516D01*
X229760Y284308D01*
X228969Y284915D01*
X228048Y285296D01*
X227059Y285426D01*
D02*
G37*
G36*
X217059D02*
X216070Y285296D01*
X215149Y284915D01*
X214358Y284308D01*
X213751Y283516D01*
X213369Y282595D01*
X213239Y281606D01*
X213369Y280618D01*
X213751Y279696D01*
X214358Y278905D01*
X215149Y278298D01*
X216070Y277916D01*
X217059Y277786D01*
X218048Y277916D01*
X218969Y278298D01*
X219760Y278905D01*
X220367Y279696D01*
X220749Y280618D01*
X220879Y281606D01*
X220749Y282595D01*
X220367Y283516D01*
X219760Y284308D01*
X218969Y284915D01*
X218048Y285296D01*
X217059Y285426D01*
D02*
G37*
G36*
X317323Y322967D02*
Y320571D01*
X319719D01*
X319396Y321352D01*
X318835Y322083D01*
X318104Y322644D01*
X317323Y322967D01*
D02*
G37*
G36*
X347059Y285426D02*
X346070Y285296D01*
X345149Y284915D01*
X344358Y284308D01*
X343751Y283516D01*
X343369Y282595D01*
X343239Y281606D01*
X343369Y280618D01*
X343751Y279696D01*
X344358Y278905D01*
X345149Y278298D01*
X346070Y277916D01*
X347059Y277786D01*
X348048Y277916D01*
X348969Y278298D01*
X349760Y278905D01*
X350367Y279696D01*
X350749Y280618D01*
X350879Y281606D01*
X350749Y282595D01*
X350367Y283516D01*
X349760Y284308D01*
X348969Y284915D01*
X348048Y285296D01*
X347059Y285426D01*
D02*
G37*
G36*
X227756Y298622D02*
X225359D01*
X225683Y297841D01*
X226244Y297110D01*
X226975Y296549D01*
X227756Y296226D01*
Y298622D01*
D02*
G37*
G36*
X232121D02*
X229724D01*
Y296226D01*
X230505Y296549D01*
X231236Y297110D01*
X231797Y297841D01*
X232121Y298622D01*
D02*
G37*
G36*
X82043Y285511D02*
Y282591D01*
X84964D01*
X84956Y282650D01*
X84553Y283624D01*
X83912Y284459D01*
X83076Y285100D01*
X82103Y285503D01*
X82043Y285511D01*
D02*
G37*
G36*
X357059Y285426D02*
X356070Y285296D01*
X355149Y284915D01*
X354358Y284308D01*
X353751Y283516D01*
X353369Y282595D01*
X353239Y281606D01*
X353369Y280618D01*
X353751Y279696D01*
X354358Y278905D01*
X355149Y278298D01*
X356070Y277916D01*
X357059Y277786D01*
X358048Y277916D01*
X358969Y278298D01*
X359760Y278905D01*
X360367Y279696D01*
X360749Y280618D01*
X360879Y281606D01*
X360749Y282595D01*
X360367Y283516D01*
X359760Y284308D01*
X358969Y284915D01*
X358048Y285296D01*
X357059Y285426D01*
D02*
G37*
G36*
X80075Y285511D02*
X80015Y285503D01*
X79042Y285100D01*
X78206Y284459D01*
X77565Y283624D01*
X77162Y282650D01*
X77154Y282591D01*
X80075D01*
Y285511D01*
D02*
G37*
G36*
X167059Y285426D02*
X166070Y285296D01*
X165149Y284915D01*
X164358Y284308D01*
X163751Y283516D01*
X163369Y282595D01*
X163239Y281606D01*
X163369Y280618D01*
X163751Y279696D01*
X164358Y278905D01*
X165149Y278298D01*
X166070Y277916D01*
X167059Y277786D01*
X168048Y277916D01*
X168969Y278298D01*
X169760Y278905D01*
X170367Y279696D01*
X170749Y280618D01*
X170879Y281606D01*
X170749Y282595D01*
X170367Y283516D01*
X169760Y284308D01*
X168969Y284915D01*
X168048Y285296D01*
X167059Y285426D01*
D02*
G37*
G36*
X177059D02*
X176070Y285296D01*
X175149Y284915D01*
X174358Y284308D01*
X173751Y283516D01*
X173369Y282595D01*
X173239Y281606D01*
X173369Y280618D01*
X173751Y279696D01*
X174358Y278905D01*
X175149Y278298D01*
X176070Y277916D01*
X177059Y277786D01*
X178048Y277916D01*
X178969Y278298D01*
X179760Y278905D01*
X180367Y279696D01*
X180749Y280618D01*
X180879Y281606D01*
X180749Y282595D01*
X180367Y283516D01*
X179760Y284308D01*
X178969Y284915D01*
X178048Y285296D01*
X177059Y285426D01*
D02*
G37*
G36*
X27334Y336811D02*
X17520D01*
Y326997D01*
X18237Y327053D01*
X19896Y327451D01*
X21473Y328105D01*
X22928Y328996D01*
X24226Y330105D01*
X25334Y331402D01*
X26226Y332858D01*
X26879Y334434D01*
X27278Y336094D01*
X27334Y336811D01*
D02*
G37*
G36*
X141059Y285426D02*
X140070Y285296D01*
X139149Y284915D01*
X138358Y284308D01*
X137751Y283516D01*
X137369Y282595D01*
X137239Y281606D01*
X137369Y280618D01*
X137751Y279696D01*
X138358Y278905D01*
X139149Y278298D01*
X140070Y277916D01*
X141059Y277786D01*
X142048Y277916D01*
X142969Y278298D01*
X143760Y278905D01*
X144367Y279696D01*
X144749Y280618D01*
X144879Y281606D01*
X144749Y282595D01*
X144367Y283516D01*
X143760Y284308D01*
X142969Y284915D01*
X142048Y285296D01*
X141059Y285426D01*
D02*
G37*
G36*
X157059D02*
X156070Y285296D01*
X155149Y284915D01*
X154358Y284308D01*
X153751Y283516D01*
X153369Y282595D01*
X153239Y281606D01*
X153369Y280618D01*
X153751Y279696D01*
X154358Y278905D01*
X155149Y278298D01*
X156070Y277916D01*
X157059Y277786D01*
X158048Y277916D01*
X158969Y278298D01*
X159760Y278905D01*
X160367Y279696D01*
X160749Y280618D01*
X160879Y281606D01*
X160749Y282595D01*
X160367Y283516D01*
X159760Y284308D01*
X158969Y284915D01*
X158048Y285296D01*
X157059Y285426D01*
D02*
G37*
G36*
X187059D02*
X186070Y285296D01*
X185149Y284915D01*
X184358Y284308D01*
X183751Y283516D01*
X183369Y282595D01*
X183239Y281606D01*
X183369Y280618D01*
X183751Y279696D01*
X184358Y278905D01*
X185149Y278298D01*
X186070Y277916D01*
X187059Y277786D01*
X188048Y277916D01*
X188969Y278298D01*
X189760Y278905D01*
X190367Y279696D01*
X190749Y280618D01*
X190879Y281606D01*
X190749Y282595D01*
X190367Y283516D01*
X189760Y284308D01*
X188969Y284915D01*
X188048Y285296D01*
X187059Y285426D01*
D02*
G37*
G36*
X124508Y326019D02*
Y323622D01*
X126904D01*
X126581Y324403D01*
X126020Y325134D01*
X125289Y325695D01*
X124508Y326019D01*
D02*
G37*
G36*
X122539D02*
X121758Y325695D01*
X121027Y325134D01*
X120466Y324403D01*
X120143Y323622D01*
X122539D01*
Y326019D01*
D02*
G37*
G36*
X207059Y285426D02*
X206070Y285296D01*
X205149Y284915D01*
X204358Y284308D01*
X203751Y283516D01*
X203369Y282595D01*
X203239Y281606D01*
X203369Y280618D01*
X203751Y279696D01*
X204358Y278905D01*
X205149Y278298D01*
X206070Y277916D01*
X207059Y277786D01*
X208048Y277916D01*
X208969Y278298D01*
X209760Y278905D01*
X210367Y279696D01*
X210749Y280618D01*
X210879Y281606D01*
X210749Y282595D01*
X210367Y283516D01*
X209760Y284308D01*
X208969Y284915D01*
X208048Y285296D01*
X207059Y285426D01*
D02*
G37*
G36*
X197059D02*
X196070Y285296D01*
X195149Y284915D01*
X194358Y284308D01*
X193751Y283516D01*
X193369Y282595D01*
X193239Y281606D01*
X193369Y280618D01*
X193751Y279696D01*
X194358Y278905D01*
X195149Y278298D01*
X196070Y277916D01*
X197059Y277786D01*
X198048Y277916D01*
X198969Y278298D01*
X199760Y278905D01*
X200367Y279696D01*
X200749Y280618D01*
X200879Y281606D01*
X200749Y282595D01*
X200367Y283516D01*
X199760Y284308D01*
X198969Y284915D01*
X198048Y285296D01*
X197059Y285426D01*
D02*
G37*
G36*
X15551Y336811D02*
X5737D01*
X5793Y336094D01*
X6192Y334434D01*
X6845Y332858D01*
X7737Y331402D01*
X8845Y330105D01*
X10143Y328996D01*
X11598Y328105D01*
X13174Y327451D01*
X14834Y327053D01*
X15551Y326997D01*
Y336811D01*
D02*
G37*
G36*
X337697Y298622D02*
X335300D01*
X335624Y297841D01*
X336185Y297110D01*
X336916Y296549D01*
X337697Y296226D01*
Y298622D01*
D02*
G37*
G36*
X185566Y314764D02*
X183169D01*
Y312367D01*
X183950Y312691D01*
X184681Y313252D01*
X185242Y313983D01*
X185566Y314764D01*
D02*
G37*
G36*
X315354Y318602D02*
X312958D01*
X313281Y317822D01*
X313842Y317090D01*
X314574Y316529D01*
X315354Y316206D01*
Y318602D01*
D02*
G37*
G36*
X181201Y314764D02*
X178804D01*
X179128Y313983D01*
X179689Y313252D01*
X180420Y312691D01*
X181201Y312367D01*
Y314764D01*
D02*
G37*
G36*
X33169Y305348D02*
Y303740D01*
X34777D01*
X34606Y304154D01*
X34162Y304733D01*
X33583Y305177D01*
X33169Y305348D01*
D02*
G37*
G36*
X31201D02*
X30787Y305177D01*
X30208Y304733D01*
X29901Y304332D01*
X29383Y304286D01*
X29291Y304318D01*
X29089Y304581D01*
X28554Y304991D01*
X27932Y305249D01*
X27264Y305337D01*
X26596Y305249D01*
X25973Y304991D01*
X25439Y304581D01*
X25087Y304123D01*
X24803Y304080D01*
X24519Y304123D01*
X24168Y304581D01*
X23633Y304991D01*
X23011Y305249D01*
X22343Y305337D01*
X21675Y305249D01*
X21052Y304991D01*
X20517Y304581D01*
X20315Y304318D01*
X20223Y304286D01*
X19705Y304332D01*
X19398Y304733D01*
X18819Y305177D01*
X18406Y305348D01*
Y302756D01*
Y300164D01*
X18819Y300335D01*
X19398Y300779D01*
X19705Y301180D01*
X20223Y301226D01*
X20315Y301194D01*
X20517Y300931D01*
X21052Y300521D01*
X21675Y300263D01*
X22343Y300175D01*
X23011Y300263D01*
X23633Y300521D01*
X24168Y300931D01*
X24519Y301389D01*
X24803Y301431D01*
X25087Y301389D01*
X25439Y300931D01*
X25973Y300521D01*
X26596Y300263D01*
X27264Y300175D01*
X27932Y300263D01*
X28554Y300521D01*
X29089Y300931D01*
X29291Y301194D01*
X29383Y301226D01*
X29901Y301180D01*
X30208Y300779D01*
X30787Y300335D01*
X31201Y300164D01*
Y302756D01*
Y305348D01*
D02*
G37*
G36*
X319719Y318602D02*
X317323D01*
Y316206D01*
X318104Y316529D01*
X318835Y317090D01*
X319396Y317822D01*
X319719Y318602D01*
D02*
G37*
G36*
X126904Y321654D02*
X124508D01*
Y319257D01*
X125289Y319581D01*
X126020Y320142D01*
X126581Y320873D01*
X126904Y321654D01*
D02*
G37*
G36*
X315354Y322967D02*
X314574Y322644D01*
X313842Y322083D01*
X313281Y321352D01*
X312958Y320571D01*
X315354D01*
Y322967D01*
D02*
G37*
G36*
X122539Y321654D02*
X120143D01*
X120466Y320873D01*
X121027Y320142D01*
X121758Y319581D01*
X122539Y319257D01*
Y321654D01*
D02*
G37*
G36*
X181201Y319129D02*
X180420Y318805D01*
X179689Y318244D01*
X179128Y317513D01*
X178804Y316732D01*
X181201D01*
Y319129D01*
D02*
G37*
G36*
X183169D02*
Y316732D01*
X185566D01*
X185242Y317513D01*
X184681Y318244D01*
X183950Y318805D01*
X183169Y319129D01*
D02*
G37*
G36*
X58464Y313847D02*
X57606Y313734D01*
X56807Y313403D01*
X56120Y312876D01*
X55593Y312189D01*
X55262Y311390D01*
X55149Y310531D01*
X55262Y309673D01*
X55593Y308874D01*
X56120Y308187D01*
X56807Y307660D01*
X57606Y307329D01*
X58464Y307216D01*
X59323Y307329D01*
X60122Y307660D01*
X60809Y308187D01*
X61336Y308874D01*
X61524Y309327D01*
X62493D01*
X69129Y302692D01*
X69129Y302692D01*
X69520Y302431D01*
X69980Y302339D01*
X69981Y302339D01*
X76370D01*
X76557Y301885D01*
X77084Y301199D01*
X77771Y300672D01*
X78571Y300340D01*
X79429Y300227D01*
X80287Y300340D01*
X81087Y300672D01*
X81774Y301199D01*
X82301Y301885D01*
X82632Y302685D01*
X82745Y303543D01*
X82632Y304401D01*
X82301Y305201D01*
X81774Y305888D01*
X81087Y306415D01*
X80287Y306746D01*
X79429Y306859D01*
X78571Y306746D01*
X77771Y306415D01*
X77084Y305888D01*
X76557Y305201D01*
X76370Y304747D01*
X70479D01*
X63844Y311383D01*
X63453Y311644D01*
X62992Y311736D01*
X62992Y311736D01*
X61524D01*
X61336Y312189D01*
X60809Y312876D01*
X60122Y313403D01*
X59323Y313734D01*
X58464Y313847D01*
D02*
G37*
G36*
X179921Y311485D02*
X179063Y311372D01*
X178263Y311041D01*
X177577Y310514D01*
X177050Y309827D01*
X176718Y309028D01*
X176605Y308169D01*
X176718Y307311D01*
X177050Y306511D01*
X177577Y305825D01*
X178263Y305298D01*
X179063Y304966D01*
X179921Y304854D01*
X180779Y304966D01*
X181233Y305154D01*
X183597Y302790D01*
X183597Y302790D01*
X183988Y302529D01*
X184449Y302437D01*
X184449Y302437D01*
X199204D01*
X199392Y301984D01*
X199919Y301297D01*
X200606Y300770D01*
X201406Y300439D01*
X202264Y300326D01*
X203122Y300439D01*
X203922Y300770D01*
X204608Y301297D01*
X205135Y301984D01*
X205467Y302784D01*
X205579Y303642D01*
X205467Y304500D01*
X205135Y305300D01*
X204608Y305986D01*
X203922Y306513D01*
X203122Y306844D01*
X202264Y306958D01*
X201406Y306844D01*
X200606Y306513D01*
X199919Y305986D01*
X199392Y305300D01*
X199204Y304846D01*
X184948D01*
X182936Y306857D01*
X183124Y307311D01*
X183237Y308169D01*
X183124Y309028D01*
X182793Y309827D01*
X182266Y310514D01*
X181579Y311041D01*
X180779Y311372D01*
X179921Y311485D01*
D02*
G37*
G36*
X34777Y301772D02*
X33169D01*
Y300164D01*
X33583Y300335D01*
X34162Y300779D01*
X34606Y301358D01*
X34777Y301772D01*
D02*
G37*
G36*
X342062Y298622D02*
X339665D01*
Y296226D01*
X340446Y296549D01*
X341177Y297110D01*
X341738Y297841D01*
X342062Y298622D01*
D02*
G37*
G36*
X16437Y301772D02*
X14829D01*
X15000Y301358D01*
X15445Y300779D01*
X16024Y300335D01*
X16437Y300164D01*
Y301772D01*
D02*
G37*
G36*
X227756Y302987D02*
X226975Y302664D01*
X226244Y302103D01*
X225683Y301371D01*
X225359Y300591D01*
X227756D01*
Y302987D01*
D02*
G37*
G36*
X285728Y311583D02*
X284870Y311471D01*
X284070Y311139D01*
X283384Y310612D01*
X282857Y309926D01*
X282525Y309126D01*
X282413Y308268D01*
X282525Y307410D01*
X282857Y306610D01*
X283384Y305923D01*
X284070Y305396D01*
X284870Y305065D01*
X285728Y304952D01*
X286586Y305065D01*
X287040Y305253D01*
X289207Y303085D01*
X289208Y303085D01*
X289442Y302929D01*
X289598Y302824D01*
X290059Y302733D01*
X299992D01*
X300180Y302279D01*
X300707Y301592D01*
X301393Y301065D01*
X302193Y300734D01*
X303051Y300621D01*
X303909Y300734D01*
X304709Y301065D01*
X305396Y301592D01*
X305923Y302279D01*
X306254Y303079D01*
X306367Y303937D01*
X306254Y304795D01*
X305923Y305595D01*
X305396Y306282D01*
X304709Y306809D01*
X303909Y307140D01*
X303051Y307253D01*
X302193Y307140D01*
X301393Y306809D01*
X300707Y306282D01*
X300180Y305595D01*
X299992Y305141D01*
X290558D01*
X288743Y306956D01*
X288931Y307410D01*
X289044Y308268D01*
X288931Y309126D01*
X288600Y309926D01*
X288073Y310612D01*
X287386Y311139D01*
X286586Y311471D01*
X285728Y311583D01*
D02*
G37*
G36*
X16437Y305348D02*
X16024Y305177D01*
X15445Y304733D01*
X15000Y304154D01*
X14829Y303740D01*
X16437D01*
Y305348D01*
D02*
G37*
G36*
X339665Y302987D02*
Y300591D01*
X342062D01*
X341738Y301371D01*
X341177Y302103D01*
X340446Y302664D01*
X339665Y302987D01*
D02*
G37*
G36*
X229724D02*
Y300591D01*
X232121D01*
X231797Y301371D01*
X231236Y302103D01*
X230505Y302664D01*
X229724Y302987D01*
D02*
G37*
G36*
X337697D02*
X336916Y302664D01*
X336185Y302103D01*
X335624Y301371D01*
X335300Y300591D01*
X337697D01*
Y302987D01*
D02*
G37*
G36*
X360433Y336811D02*
X350619D01*
X350675Y336094D01*
X351074Y334434D01*
X351727Y332858D01*
X352618Y331402D01*
X353727Y330105D01*
X355025Y328996D01*
X356480Y328105D01*
X358056Y327451D01*
X359716Y327053D01*
X360433Y326997D01*
Y336811D01*
D02*
G37*
G36*
X164665Y338616D02*
X164252Y338445D01*
X163673Y338000D01*
X163365Y337600D01*
X162847Y337554D01*
X162755Y337586D01*
X162553Y337849D01*
X162019Y338259D01*
X161396Y338517D01*
X160728Y338605D01*
X160060Y338517D01*
X159438Y338259D01*
X158903Y337849D01*
X158552Y337391D01*
X158268Y337348D01*
X157983Y337391D01*
X157632Y337849D01*
X157098Y338259D01*
X156475Y338517D01*
X155807Y338605D01*
X155139Y338517D01*
X154516Y338259D01*
X153982Y337849D01*
X153780Y337586D01*
X153688Y337554D01*
X153170Y337600D01*
X152863Y338000D01*
X152284Y338445D01*
X151870Y338616D01*
Y336024D01*
Y333431D01*
X152284Y333603D01*
X152863Y334047D01*
X153170Y334448D01*
X153688Y334494D01*
X153780Y334462D01*
X153982Y334198D01*
X154516Y333788D01*
X155139Y333530D01*
X155807Y333442D01*
X156475Y333530D01*
X157098Y333788D01*
X157632Y334198D01*
X157983Y334656D01*
X158268Y334699D01*
X158552Y334656D01*
X158903Y334198D01*
X159438Y333788D01*
X160060Y333530D01*
X160728Y333442D01*
X161396Y333530D01*
X162019Y333788D01*
X162553Y334198D01*
X162755Y334462D01*
X162847Y334494D01*
X163365Y334448D01*
X163673Y334047D01*
X164252Y333603D01*
X164665Y333431D01*
Y336024D01*
Y338616D01*
D02*
G37*
G36*
X270255D02*
Y337008D01*
X271863D01*
X271691Y337421D01*
X271247Y338000D01*
X270668Y338445D01*
X270255Y338616D01*
D02*
G37*
G36*
X268286D02*
X267873Y338445D01*
X267294Y338000D01*
X266986Y337600D01*
X266468Y337554D01*
X266376Y337586D01*
X266174Y337849D01*
X265640Y338259D01*
X265017Y338517D01*
X264349Y338605D01*
X263681Y338517D01*
X263058Y338259D01*
X262524Y337849D01*
X262173Y337391D01*
X261889Y337348D01*
X261604Y337391D01*
X261253Y337849D01*
X260718Y338259D01*
X260096Y338517D01*
X259428Y338605D01*
X258760Y338517D01*
X258137Y338259D01*
X257603Y337849D01*
X257401Y337586D01*
X257309Y337554D01*
X256791Y337600D01*
X256483Y338000D01*
X255905Y338445D01*
X255491Y338616D01*
Y336024D01*
Y333431D01*
X255905Y333603D01*
X256483Y334047D01*
X256791Y334448D01*
X257309Y334494D01*
X257401Y334462D01*
X257603Y334198D01*
X258137Y333788D01*
X258760Y333530D01*
X259428Y333442D01*
X260096Y333530D01*
X260718Y333788D01*
X261253Y334198D01*
X261604Y334656D01*
X261889Y334699D01*
X262173Y334656D01*
X262524Y334198D01*
X263058Y333788D01*
X263681Y333530D01*
X264349Y333442D01*
X265017Y333530D01*
X265640Y333788D01*
X266174Y334198D01*
X266376Y334462D01*
X266468Y334494D01*
X266986Y334448D01*
X267294Y334047D01*
X267873Y333603D01*
X268286Y333431D01*
Y336024D01*
Y338616D01*
D02*
G37*
G36*
X331890Y350618D02*
X46063D01*
X45525Y350511D01*
X45070Y350206D01*
X34833Y339970D01*
X34529Y339514D01*
X34422Y338976D01*
X34529Y338439D01*
X34833Y337983D01*
X35289Y337678D01*
X35827Y337572D01*
X36364Y337678D01*
X36820Y337983D01*
X46645Y347808D01*
X331308D01*
X341132Y337983D01*
X341588Y337678D01*
X342126Y337571D01*
X342664Y337678D01*
X343119Y337983D01*
X343424Y338439D01*
X343531Y338976D01*
X343424Y339514D01*
X343119Y339970D01*
X332883Y350206D01*
X332427Y350511D01*
X331890Y350618D01*
D02*
G37*
G36*
X357059Y245426D02*
X356070Y245296D01*
X355149Y244915D01*
X354358Y244307D01*
X353751Y243516D01*
X353369Y242595D01*
X353239Y241606D01*
X353369Y240618D01*
X353751Y239696D01*
X354358Y238905D01*
X355149Y238298D01*
X356070Y237916D01*
X357059Y237786D01*
X358048Y237916D01*
X358969Y238298D01*
X359760Y238905D01*
X360367Y239696D01*
X360749Y240618D01*
X360879Y241606D01*
X360749Y242595D01*
X360367Y243516D01*
X359760Y244307D01*
X358969Y244915D01*
X358048Y245296D01*
X357059Y245426D01*
D02*
G37*
G36*
X347059Y255426D02*
X346070Y255296D01*
X345149Y254915D01*
X344358Y254308D01*
X343751Y253516D01*
X343369Y252595D01*
X343239Y251606D01*
X343369Y250618D01*
X343751Y249696D01*
X344358Y248905D01*
X345149Y248298D01*
X346070Y247916D01*
X347059Y247786D01*
X348048Y247916D01*
X348969Y248298D01*
X349760Y248905D01*
X350367Y249696D01*
X350749Y250618D01*
X350879Y251606D01*
X350749Y252595D01*
X350367Y253516D01*
X349760Y254308D01*
X348969Y254915D01*
X348048Y255296D01*
X347059Y255426D01*
D02*
G37*
G36*
X46885Y252362D02*
X44488D01*
Y249966D01*
X45269Y250289D01*
X46000Y250850D01*
X46561Y251581D01*
X46885Y252362D01*
D02*
G37*
G36*
X166634Y338616D02*
Y337008D01*
X168242D01*
X168071Y337421D01*
X167626Y338000D01*
X167047Y338445D01*
X166634Y338616D01*
D02*
G37*
G36*
X42520Y252362D02*
X40123D01*
X40447Y251581D01*
X41008Y250850D01*
X41739Y250289D01*
X42520Y249966D01*
Y252362D01*
D02*
G37*
G36*
X357059Y255426D02*
X356070Y255296D01*
X355149Y254915D01*
X354358Y254308D01*
X353751Y253516D01*
X353369Y252595D01*
X353239Y251606D01*
X353369Y250618D01*
X353751Y249696D01*
X354358Y248905D01*
X355149Y248298D01*
X356070Y247916D01*
X357059Y247786D01*
X358048Y247916D01*
X358969Y248298D01*
X359760Y248905D01*
X360367Y249696D01*
X360749Y250618D01*
X360879Y251606D01*
X360749Y252595D01*
X360367Y253516D01*
X359760Y254308D01*
X358969Y254915D01*
X358048Y255296D01*
X357059Y255426D01*
D02*
G37*
G36*
X253522Y338616D02*
X253109Y338445D01*
X252530Y338000D01*
X252086Y337421D01*
X251914Y337008D01*
X253522D01*
Y338616D01*
D02*
G37*
G36*
X113189Y223066D02*
Y220669D01*
X115585D01*
X115262Y221450D01*
X114701Y222181D01*
X113970Y222742D01*
X113189Y223066D01*
D02*
G37*
G36*
X362402Y348594D02*
Y338779D01*
X372216D01*
X372160Y339497D01*
X371761Y341156D01*
X371108Y342733D01*
X370216Y344188D01*
X369108Y345486D01*
X367810Y346594D01*
X366355Y347486D01*
X364778Y348139D01*
X363119Y348537D01*
X362402Y348594D01*
D02*
G37*
G36*
X111221Y223066D02*
X110440Y222742D01*
X109708Y222181D01*
X109148Y221450D01*
X108824Y220669D01*
X111221D01*
Y223066D01*
D02*
G37*
G36*
X47047Y342357D02*
Y339961D01*
X49444D01*
X49120Y340741D01*
X48559Y341473D01*
X47828Y342034D01*
X47047Y342357D01*
D02*
G37*
G36*
X45079D02*
X44298Y342034D01*
X43567Y341473D01*
X43006Y340741D01*
X42682Y339961D01*
X45079D01*
Y342357D01*
D02*
G37*
G36*
X360433Y348594D02*
X359716Y348537D01*
X358056Y348139D01*
X356480Y347486D01*
X355025Y346594D01*
X353727Y345486D01*
X352618Y344188D01*
X351727Y342733D01*
X351074Y341156D01*
X350675Y339497D01*
X350619Y338779D01*
X360433D01*
Y348594D01*
D02*
G37*
G36*
X347059Y245426D02*
X346070Y245296D01*
X345149Y244915D01*
X344358Y244307D01*
X343751Y243516D01*
X343369Y242595D01*
X343239Y241606D01*
X343369Y240618D01*
X343751Y239696D01*
X344358Y238905D01*
X345149Y238298D01*
X346070Y237916D01*
X347059Y237786D01*
X348048Y237916D01*
X348969Y238298D01*
X349760Y238905D01*
X350367Y239696D01*
X350749Y240618D01*
X350879Y241606D01*
X350749Y242595D01*
X350367Y243516D01*
X349760Y244307D01*
X348969Y244915D01*
X348048Y245296D01*
X347059Y245426D01*
D02*
G37*
G36*
X15551Y348594D02*
X14834Y348537D01*
X13174Y348139D01*
X11598Y347486D01*
X10143Y346594D01*
X8845Y345486D01*
X7737Y344188D01*
X6845Y342733D01*
X6192Y341156D01*
X5793Y339497D01*
X5737Y338779D01*
X15551D01*
Y348594D01*
D02*
G37*
G36*
X17520D02*
Y338779D01*
X27334D01*
X27278Y339497D01*
X26879Y341156D01*
X26226Y342733D01*
X25334Y344188D01*
X24226Y345486D01*
X22928Y346594D01*
X21473Y347486D01*
X19896Y348139D01*
X18237Y348537D01*
X17520Y348594D01*
D02*
G37*
G36*
X347059Y235426D02*
X346070Y235296D01*
X345149Y234915D01*
X344358Y234308D01*
X343751Y233516D01*
X343369Y232595D01*
X343239Y231606D01*
X343369Y230618D01*
X343751Y229696D01*
X344358Y228905D01*
X345149Y228298D01*
X346070Y227916D01*
X347059Y227786D01*
X348048Y227916D01*
X348969Y228298D01*
X349760Y228905D01*
X350367Y229696D01*
X350749Y230618D01*
X350879Y231606D01*
X350749Y232595D01*
X350367Y233516D01*
X349760Y234308D01*
X348969Y234915D01*
X348048Y235296D01*
X347059Y235426D01*
D02*
G37*
G36*
X357059D02*
X356070Y235296D01*
X355149Y234915D01*
X354358Y234308D01*
X353751Y233516D01*
X353369Y232595D01*
X353239Y231606D01*
X353369Y230618D01*
X353751Y229696D01*
X354358Y228905D01*
X355149Y228298D01*
X356070Y227916D01*
X357059Y227786D01*
X358048Y227916D01*
X358969Y228298D01*
X359760Y228905D01*
X360367Y229696D01*
X360749Y230618D01*
X360879Y231606D01*
X360749Y232595D01*
X360367Y233516D01*
X359760Y234308D01*
X358969Y234915D01*
X358048Y235296D01*
X357059Y235426D01*
D02*
G37*
G36*
X42520Y256727D02*
X41739Y256404D01*
X41008Y255843D01*
X40447Y255112D01*
X40123Y254331D01*
X42520D01*
Y256727D01*
D02*
G37*
G36*
X80075Y280622D02*
X77154D01*
X77162Y280562D01*
X77565Y279589D01*
X78206Y278753D01*
X79042Y278112D01*
X80015Y277709D01*
X80075Y277701D01*
Y280622D01*
D02*
G37*
G36*
X84964D02*
X82043D01*
Y277701D01*
X82103Y277709D01*
X83076Y278112D01*
X83912Y278753D01*
X84553Y279589D01*
X84956Y280562D01*
X84964Y280622D01*
D02*
G37*
G36*
X305161Y294708D02*
X305161Y294708D01*
X62957D01*
X62496Y294617D01*
X62339Y294512D01*
X62105Y294356D01*
X62105Y294355D01*
X52754Y285004D01*
X52048Y285296D01*
X51059Y285426D01*
X50070Y285296D01*
X49149Y284915D01*
X48358Y284308D01*
X47751Y283516D01*
X47369Y282595D01*
X47239Y281606D01*
X47369Y280618D01*
X47751Y279696D01*
X48358Y278905D01*
X49149Y278298D01*
X50070Y277916D01*
X51059Y277786D01*
X52048Y277916D01*
X52969Y278298D01*
X53760Y278905D01*
X54367Y279696D01*
X54749Y280618D01*
X54879Y281606D01*
X54749Y282595D01*
X54457Y283301D01*
X63455Y292300D01*
X304663D01*
X313662Y283301D01*
X313369Y282595D01*
X313239Y281606D01*
X313369Y280618D01*
X313751Y279696D01*
X314358Y278905D01*
X315149Y278298D01*
X316070Y277916D01*
X317059Y277786D01*
X318048Y277916D01*
X318550Y278124D01*
X319023Y277650D01*
X318832Y277188D01*
X313180D01*
X310457Y279912D01*
X310749Y280618D01*
X310879Y281606D01*
X310749Y282595D01*
X310367Y283516D01*
X309760Y284308D01*
X308969Y284915D01*
X308048Y285296D01*
X307059Y285426D01*
X306070Y285296D01*
X305365Y285004D01*
X299556Y290812D01*
X299166Y291073D01*
X298705Y291165D01*
X298705Y291165D01*
X69413D01*
X69413Y291165D01*
X68953Y291073D01*
X68562Y290812D01*
X68562Y290812D01*
X62754Y285004D01*
X62048Y285296D01*
X61059Y285426D01*
X60070Y285296D01*
X59149Y284915D01*
X58358Y284308D01*
X57751Y283516D01*
X57369Y282595D01*
X57239Y281606D01*
X57369Y280618D01*
X57751Y279696D01*
X58358Y278905D01*
X59149Y278298D01*
X60070Y277916D01*
X61059Y277786D01*
X62048Y277916D01*
X62969Y278298D01*
X63760Y278905D01*
X64367Y279696D01*
X64749Y280618D01*
X64879Y281606D01*
X64749Y282595D01*
X64457Y283301D01*
X69912Y288756D01*
X298206D01*
X303661Y283301D01*
X303369Y282595D01*
X303239Y281606D01*
X303369Y280618D01*
X303751Y279696D01*
X304358Y278905D01*
X305149Y278298D01*
X306070Y277916D01*
X307059Y277786D01*
X308048Y277916D01*
X308754Y278209D01*
X310887Y276076D01*
X310695Y275614D01*
X304755D01*
X300457Y279912D01*
X300749Y280618D01*
X300879Y281606D01*
X300749Y282595D01*
X300367Y283516D01*
X299760Y284308D01*
X298969Y284915D01*
X298048Y285296D01*
X297059Y285426D01*
X296070Y285296D01*
X295149Y284915D01*
X294358Y284308D01*
X293751Y283516D01*
X293369Y282595D01*
X293239Y281606D01*
X293369Y280618D01*
X293751Y279696D01*
X294358Y278905D01*
X295149Y278298D01*
X296070Y277916D01*
X297059Y277786D01*
X298048Y277916D01*
X298754Y278209D01*
X302462Y274501D01*
X302270Y274039D01*
X296329D01*
X290457Y279912D01*
X290749Y280618D01*
X290879Y281606D01*
X290749Y282595D01*
X290367Y283516D01*
X289760Y284308D01*
X288969Y284915D01*
X288048Y285296D01*
X287059Y285426D01*
X286070Y285296D01*
X285149Y284915D01*
X284358Y284308D01*
X283751Y283516D01*
X283369Y282595D01*
X283239Y281606D01*
X283369Y280618D01*
X283751Y279696D01*
X284358Y278905D01*
X285149Y278298D01*
X286070Y277916D01*
X287059Y277786D01*
X288048Y277916D01*
X288754Y278209D01*
X294036Y272926D01*
X293845Y272464D01*
X266641D01*
X259951Y279154D01*
X260367Y279696D01*
X260749Y280618D01*
X260879Y281606D01*
X260749Y282595D01*
X260367Y283516D01*
X259760Y284308D01*
X258969Y284915D01*
X258048Y285296D01*
X257059Y285426D01*
X256070Y285296D01*
X255149Y284915D01*
X254358Y284308D01*
X253751Y283516D01*
X253369Y282595D01*
X253239Y281606D01*
X253369Y280618D01*
X253751Y279696D01*
X254358Y278905D01*
X255149Y278298D01*
X256070Y277916D01*
X257059Y277786D01*
X257813Y277886D01*
X264347Y271351D01*
X264156Y270889D01*
X259479D01*
X250457Y279912D01*
X250749Y280618D01*
X250879Y281606D01*
X250749Y282595D01*
X250367Y283516D01*
X249760Y284308D01*
X248969Y284915D01*
X248048Y285296D01*
X247059Y285426D01*
X246070Y285296D01*
X245149Y284915D01*
X244358Y284308D01*
X243751Y283516D01*
X243369Y282595D01*
X243239Y281606D01*
X243369Y280618D01*
X243751Y279696D01*
X244358Y278905D01*
X245149Y278298D01*
X246070Y277916D01*
X247059Y277786D01*
X248048Y277916D01*
X248754Y278209D01*
X257481Y269481D01*
X257290Y269019D01*
X247135D01*
X247135Y269019D01*
X246674Y268928D01*
X246284Y268667D01*
X241382Y263765D01*
X240854Y263944D01*
X240801Y264342D01*
X240470Y265142D01*
X239943Y265829D01*
X239256Y266356D01*
X238457Y266687D01*
X237598Y266800D01*
X236740Y266687D01*
X236287Y266499D01*
X229749Y273037D01*
X229359Y273298D01*
X228898Y273389D01*
X228898Y273389D01*
X154381D01*
X153920Y273298D01*
X153529Y273037D01*
X145772Y265279D01*
X79437D01*
X79250Y265733D01*
X78723Y266419D01*
X78036Y266946D01*
X77236Y267278D01*
X76378Y267391D01*
X75520Y267278D01*
X74720Y266946D01*
X74033Y266419D01*
X73506Y265733D01*
X73175Y264933D01*
X73062Y264075D01*
X73175Y263217D01*
X73506Y262417D01*
X74033Y261730D01*
X74720Y261203D01*
X75520Y260872D01*
X76378Y260759D01*
X77236Y260872D01*
X78036Y261203D01*
X78723Y261730D01*
X79250Y262417D01*
X79437Y262871D01*
X146271D01*
X146271Y262871D01*
X146731Y262962D01*
X147122Y263223D01*
X151711Y267813D01*
X152262Y267656D01*
X152263Y267648D01*
X147574Y262958D01*
X147313Y262567D01*
X147221Y262106D01*
X147221Y262106D01*
Y240354D01*
X147221Y240354D01*
X147313Y239894D01*
X147574Y239503D01*
X158994Y228082D01*
X158787Y227582D01*
X143985D01*
X143525Y227490D01*
X143134Y227229D01*
X139610Y223706D01*
X139082Y223885D01*
X139030Y224283D01*
X138698Y225083D01*
X138171Y225770D01*
X137485Y226297D01*
X136685Y226628D01*
X135827Y226741D01*
X134969Y226628D01*
X134169Y226297D01*
X133482Y225770D01*
X132955Y225083D01*
X132767Y224629D01*
X123524D01*
X123524Y224629D01*
X123063Y224538D01*
X122672Y224277D01*
X104659Y206263D01*
X101133D01*
X101133Y206263D01*
X100672Y206172D01*
X100281Y205911D01*
X100281Y205911D01*
X98125Y203754D01*
X97864Y203364D01*
X97772Y202903D01*
X97772Y202903D01*
Y202133D01*
X92946Y197307D01*
X90798D01*
X90337Y197215D01*
X90181Y197110D01*
X89947Y196954D01*
X89947Y196954D01*
X88151Y195159D01*
X87977Y195293D01*
X87177Y195624D01*
X86319Y195737D01*
X85461Y195624D01*
X84661Y195293D01*
X83974Y194766D01*
X83447Y194079D01*
X83116Y193279D01*
X83003Y192421D01*
X83116Y191563D01*
X83447Y190763D01*
X83974Y190077D01*
X84661Y189550D01*
X85461Y189218D01*
X86319Y189105D01*
X87177Y189218D01*
X87977Y189550D01*
X88664Y190077D01*
X89020Y190541D01*
X89043Y190553D01*
X89598D01*
X89622Y190541D01*
X89978Y190077D01*
X90665Y189550D01*
X91465Y189218D01*
X92323Y189105D01*
X93181Y189218D01*
X93981Y189550D01*
X94667Y190077D01*
X95024Y190541D01*
X95047Y190553D01*
X95602D01*
X95626Y190541D01*
X95982Y190077D01*
X96669Y189550D01*
X96926Y189443D01*
Y185039D01*
X96926Y185039D01*
X97017Y184579D01*
X97278Y184188D01*
X100231Y181235D01*
X100231Y181235D01*
X100622Y180974D01*
X101083Y180882D01*
X130308D01*
X130495Y180432D01*
X131021Y179745D01*
X131708Y179218D01*
X132261Y178989D01*
X132404Y178425D01*
X132089Y178110D01*
X131697Y177524D01*
X131615Y177111D01*
X131021Y176656D01*
X130495Y175969D01*
X130163Y175169D01*
X130050Y174311D01*
X130163Y173453D01*
X130495Y172653D01*
X131021Y171966D01*
X131708Y171440D01*
X132508Y171108D01*
X133366Y170995D01*
X133430Y171004D01*
X150064Y154370D01*
Y152462D01*
X149525Y152049D01*
X148998Y151363D01*
X148667Y150563D01*
X148554Y149705D01*
X148667Y148846D01*
X148998Y148047D01*
X149525Y147360D01*
X150212Y146833D01*
X151012Y146502D01*
X151870Y146389D01*
X152728Y146502D01*
X153528Y146833D01*
X154215Y147360D01*
X154742Y148047D01*
X155073Y148846D01*
X155186Y149705D01*
X155073Y150563D01*
X154742Y151363D01*
X154215Y152049D01*
X153676Y152462D01*
Y155118D01*
X153539Y155809D01*
X153147Y156395D01*
X136429Y173114D01*
X136569Y173453D01*
X136682Y174311D01*
X136569Y175169D01*
X136238Y175969D01*
X136230Y175979D01*
X136311Y176473D01*
X136413Y176541D01*
X138915Y179043D01*
X139307Y179629D01*
X139444Y180321D01*
Y184902D01*
X139307Y185593D01*
X138915Y186179D01*
X136427Y188667D01*
X136569Y189010D01*
X136682Y189869D01*
X136593Y190541D01*
X139269Y193217D01*
X139661Y193803D01*
X139798Y194495D01*
Y203839D01*
X139661Y204530D01*
X139269Y205116D01*
X136218Y208167D01*
X135632Y208559D01*
X134941Y208696D01*
X134254D01*
X133841Y209234D01*
X133376Y209591D01*
X133364Y209614D01*
Y210169D01*
X133376Y210192D01*
X133841Y210549D01*
X134368Y211236D01*
X134389Y211288D01*
X149630D01*
X159615Y201303D01*
Y138720D01*
X159563Y138698D01*
X158876Y138171D01*
X158349Y137485D01*
X158327Y137432D01*
X152195D01*
X128217Y161411D01*
X127696Y161759D01*
X127594Y161779D01*
X127082Y161881D01*
X127082Y161881D01*
X123756D01*
X118830Y166807D01*
Y171161D01*
X118708Y171776D01*
X118360Y172297D01*
X118360Y172297D01*
X114718Y175938D01*
X114197Y176287D01*
X114095Y176307D01*
X113583Y176409D01*
X113583Y176409D01*
X109951D01*
Y176649D01*
X108007Y178593D01*
X104119D01*
X102175Y176649D01*
Y172761D01*
X104119Y170817D01*
X108007D01*
X109951Y172761D01*
Y173197D01*
X112918D01*
X115619Y170496D01*
Y166142D01*
X115619Y166142D01*
X115721Y165629D01*
X115741Y165527D01*
X116089Y165006D01*
X121955Y159140D01*
X121955Y159140D01*
X122403Y158841D01*
X122554Y158359D01*
X122566Y158293D01*
X122363Y158007D01*
X119390D01*
X118699Y157870D01*
X118113Y157478D01*
X102106Y141472D01*
X101279Y141581D01*
X100421Y141468D01*
X99622Y141137D01*
X98935Y140610D01*
X98408Y139923D01*
X98077Y139123D01*
X97964Y138265D01*
X98077Y137407D01*
X98408Y136607D01*
X98935Y135921D01*
X99622Y135394D01*
X100421Y135062D01*
X101279Y134949D01*
X102138Y135062D01*
X102937Y135394D01*
X103624Y135921D01*
X104151Y136607D01*
X104482Y137407D01*
X104595Y138265D01*
X104527Y138784D01*
X120138Y154394D01*
X122636D01*
X123049Y153856D01*
X123736Y153329D01*
X124536Y152998D01*
X125394Y152885D01*
X126252Y152998D01*
X127052Y153329D01*
X127738Y153856D01*
X128265Y154543D01*
X128596Y155343D01*
X128648Y155732D01*
X129176Y155911D01*
X150114Y134972D01*
X149907Y134472D01*
X146978D01*
X133354Y148096D01*
X132964Y148357D01*
X132503Y148448D01*
X132503Y148448D01*
X123491D01*
X123344Y148804D01*
X122817Y149490D01*
X122130Y150017D01*
X121331Y150348D01*
X120472Y150461D01*
X119614Y150348D01*
X118815Y150017D01*
X118128Y149490D01*
X117601Y148804D01*
X117270Y148004D01*
X117157Y147146D01*
X117270Y146288D01*
X117429Y145903D01*
X106038Y134513D01*
X105777Y134122D01*
X105685Y133661D01*
X105685Y133661D01*
Y127174D01*
X105232Y126986D01*
X104545Y126459D01*
X104018Y125772D01*
X103687Y124972D01*
X103574Y124114D01*
X103687Y123256D01*
X104018Y122456D01*
X104545Y121770D01*
X105232Y121243D01*
X106032Y120911D01*
X106890Y120798D01*
X107748Y120911D01*
X108548Y121243D01*
X109234Y121770D01*
X109761Y122456D01*
X110093Y123256D01*
X110205Y124114D01*
X110093Y124972D01*
X109761Y125772D01*
X109234Y126459D01*
X108548Y126986D01*
X108094Y127174D01*
Y133163D01*
X119091Y144160D01*
X119614Y143943D01*
X120472Y143830D01*
X121331Y143943D01*
X122130Y144274D01*
X122817Y144801D01*
X123344Y145488D01*
X123573Y146040D01*
X132004D01*
X142137Y135907D01*
X141957Y135379D01*
X141236Y135284D01*
X140314Y134903D01*
X139523Y134296D01*
X138916Y133504D01*
X138534Y132583D01*
X138404Y131595D01*
X138534Y130606D01*
X138916Y129684D01*
X139523Y128893D01*
X140314Y128286D01*
X141236Y127905D01*
X142224Y127774D01*
X143213Y127905D01*
X144134Y128286D01*
X144926Y128893D01*
X145533Y129684D01*
X145914Y130606D01*
X146045Y131595D01*
X146038Y131641D01*
X146479Y132063D01*
X146487Y132063D01*
X150781D01*
X165331Y117513D01*
Y105520D01*
X164877Y105332D01*
X164191Y104805D01*
X163664Y104119D01*
X163333Y103319D01*
X163220Y102461D01*
X163333Y101602D01*
X163664Y100803D01*
X164191Y100116D01*
X164877Y99589D01*
X165677Y99258D01*
X166535Y99145D01*
X167394Y99258D01*
X168193Y99589D01*
X168880Y100116D01*
X169407Y100803D01*
X169738Y101602D01*
X169851Y102461D01*
X169738Y103319D01*
X169407Y104119D01*
X168880Y104805D01*
X168193Y105332D01*
X167740Y105520D01*
Y118012D01*
X167648Y118473D01*
X167543Y118629D01*
X167387Y118863D01*
X167387Y118863D01*
X152529Y133721D01*
X152736Y134221D01*
X158327D01*
X158349Y134169D01*
X158876Y133482D01*
X159563Y132955D01*
X160362Y132624D01*
X161221Y132511D01*
X162079Y132624D01*
X162878Y132955D01*
X163565Y133482D01*
X164092Y134169D01*
X164423Y134969D01*
X164536Y135827D01*
X164423Y136685D01*
X164092Y137485D01*
X163565Y138171D01*
X162878Y138698D01*
X162826Y138720D01*
Y200363D01*
X176053D01*
X181133Y195282D01*
X181133Y195282D01*
X181654Y194934D01*
X182269Y194812D01*
X184770D01*
X184939Y194312D01*
X184762Y194175D01*
X184235Y193489D01*
X183904Y192689D01*
X183791Y191831D01*
X183904Y190972D01*
X184235Y190173D01*
X184762Y189486D01*
X185448Y188959D01*
X186248Y188628D01*
X187106Y188515D01*
X187964Y188628D01*
X188764Y188959D01*
X189451Y189486D01*
X189978Y190173D01*
X190166Y190627D01*
X246796D01*
X255205Y182217D01*
X255014Y181755D01*
X253298D01*
X253298Y181755D01*
X252837Y181664D01*
X252447Y181403D01*
X252447Y181403D01*
X250290Y179246D01*
X250029Y178856D01*
X249938Y178395D01*
X249938Y178395D01*
Y174268D01*
X248331Y172661D01*
X188493D01*
X188305Y173115D01*
X187778Y173801D01*
X187091Y174328D01*
X186291Y174660D01*
X185433Y174773D01*
X184575Y174660D01*
X183775Y174328D01*
X183089Y173801D01*
X182562Y173115D01*
X182230Y172315D01*
X182117Y171457D01*
X182230Y170598D01*
X182562Y169799D01*
X183089Y169112D01*
X183775Y168585D01*
X184229Y168397D01*
Y122146D01*
X184229Y122146D01*
X184320Y121685D01*
X184581Y121294D01*
X186749Y119127D01*
X186561Y118673D01*
X186448Y117815D01*
X186561Y116957D01*
X186892Y116157D01*
X187419Y115470D01*
X188106Y114943D01*
X188906Y114612D01*
X189764Y114499D01*
X190622Y114612D01*
X191422Y114943D01*
X192108Y115470D01*
X192635Y116157D01*
X192967Y116957D01*
X193079Y117815D01*
X192967Y118673D01*
X192635Y119473D01*
X192108Y120160D01*
X191422Y120686D01*
X190622Y121018D01*
X189764Y121131D01*
X188906Y121018D01*
X188452Y120830D01*
X186637Y122644D01*
Y168397D01*
X187091Y168585D01*
X187778Y169112D01*
X188305Y169799D01*
X188493Y170252D01*
X198157D01*
X198364Y169752D01*
X195013Y166401D01*
X194559Y166589D01*
X193701Y166702D01*
X192843Y166589D01*
X192043Y166257D01*
X191356Y165730D01*
X190829Y165044D01*
X190498Y164244D01*
X190385Y163386D01*
X190498Y162528D01*
X190829Y161728D01*
X191356Y161041D01*
X192043Y160514D01*
X192843Y160183D01*
X193701Y160070D01*
X194559Y160183D01*
X195359Y160514D01*
X196045Y161041D01*
X196572Y161728D01*
X196904Y162528D01*
X197017Y163386D01*
X196904Y164244D01*
X196716Y164698D01*
X200007Y167989D01*
X248819D01*
X248819Y167989D01*
X249280Y168080D01*
X249670Y168341D01*
X254892Y173564D01*
X255681Y173667D01*
X256481Y173998D01*
X257167Y174525D01*
X257694Y175212D01*
X258026Y176012D01*
X258139Y176870D01*
X258114Y177054D01*
X258555Y177536D01*
X263018D01*
X263018Y177536D01*
X263479Y177628D01*
X263870Y177889D01*
X266796Y180815D01*
X267057Y181206D01*
X267132Y181579D01*
X267603Y181774D01*
X267922Y182019D01*
X268422Y181772D01*
Y179534D01*
X265231Y176344D01*
X264970Y175953D01*
X264878Y175492D01*
X264878Y175492D01*
Y173936D01*
X264378Y173690D01*
X264059Y173934D01*
X263260Y174266D01*
X262402Y174379D01*
X261543Y174266D01*
X260744Y173934D01*
X260057Y173408D01*
X259530Y172721D01*
X259199Y171921D01*
X259086Y171063D01*
X259155Y170536D01*
X258763Y170036D01*
X253919D01*
X253919Y170036D01*
X253458Y169944D01*
X253068Y169683D01*
X253068Y169683D01*
X250691Y167307D01*
X249328D01*
X248867Y167215D01*
X248711Y167110D01*
X248477Y166954D01*
X248477Y166954D01*
X205463Y123941D01*
X198237D01*
X198049Y124394D01*
X197522Y125081D01*
X196835Y125608D01*
X196035Y125939D01*
X195177Y126052D01*
X194319Y125939D01*
X193519Y125608D01*
X192833Y125081D01*
X192306Y124394D01*
X191974Y123594D01*
X191861Y122736D01*
X191974Y121878D01*
X192306Y121078D01*
X192833Y120392D01*
X193519Y119865D01*
X194319Y119533D01*
X195177Y119421D01*
X196035Y119533D01*
X196835Y119865D01*
X197522Y120392D01*
X198049Y121078D01*
X198237Y121532D01*
X204628D01*
X204820Y121070D01*
X178754Y95004D01*
X178048Y95296D01*
X177059Y95426D01*
X176070Y95296D01*
X175149Y94915D01*
X174358Y94308D01*
X173751Y93516D01*
X173369Y92595D01*
X173239Y91606D01*
X173369Y90618D01*
X173751Y89696D01*
X174358Y88905D01*
X175149Y88298D01*
X176070Y87916D01*
X177059Y87786D01*
X178048Y87916D01*
X178969Y88298D01*
X179760Y88905D01*
X180367Y89696D01*
X180749Y90618D01*
X180879Y91606D01*
X180749Y92595D01*
X180457Y93301D01*
X183987Y96831D01*
X184449Y96640D01*
Y94377D01*
X184358Y94308D01*
X183751Y93516D01*
X183369Y92595D01*
X183239Y91606D01*
X183369Y90618D01*
X183751Y89696D01*
X184358Y88905D01*
X185149Y88298D01*
X186070Y87916D01*
X187059Y87786D01*
X188048Y87916D01*
X188969Y88298D01*
X189760Y88905D01*
X190367Y89696D01*
X190749Y90618D01*
X190879Y91606D01*
X190749Y92595D01*
X190367Y93516D01*
X189760Y94308D01*
X188969Y94915D01*
X188048Y95296D01*
X187059Y95426D01*
X186858Y95603D01*
Y96965D01*
X195393Y105501D01*
X195855Y105309D01*
Y95207D01*
X195149Y94915D01*
X194358Y94308D01*
X193751Y93516D01*
X193369Y92595D01*
X193239Y91606D01*
X193369Y90618D01*
X193751Y89696D01*
X194358Y88905D01*
X195149Y88298D01*
X196070Y87916D01*
X197059Y87786D01*
X198048Y87916D01*
X198969Y88298D01*
X199760Y88905D01*
X200367Y89696D01*
X200749Y90618D01*
X200879Y91606D01*
X200749Y92595D01*
X200367Y93516D01*
X199760Y94308D01*
X198969Y94915D01*
X198263Y95207D01*
Y105601D01*
X205355Y112692D01*
X205855Y112485D01*
Y95207D01*
X205149Y94915D01*
X204358Y94308D01*
X203751Y93516D01*
X203369Y92595D01*
X203239Y91606D01*
X203369Y90618D01*
X203751Y89696D01*
X204358Y88905D01*
X205149Y88298D01*
X206070Y87916D01*
X207059Y87786D01*
X208048Y87916D01*
X208969Y88298D01*
X209760Y88905D01*
X210367Y89696D01*
X210749Y90618D01*
X210879Y91606D01*
X210749Y92595D01*
X210367Y93516D01*
X209760Y94308D01*
X208969Y94915D01*
X208263Y95207D01*
Y112564D01*
X215393Y119694D01*
X215855Y119502D01*
Y95207D01*
X215149Y94915D01*
X214358Y94308D01*
X213751Y93516D01*
X213369Y92595D01*
X213239Y91606D01*
X213369Y90618D01*
X213751Y89696D01*
X214358Y88905D01*
X215149Y88298D01*
X216070Y87916D01*
X217059Y87786D01*
X218048Y87916D01*
X218969Y88298D01*
X219760Y88905D01*
X220367Y89696D01*
X220749Y90618D01*
X220879Y91606D01*
X220749Y92595D01*
X220367Y93516D01*
X219760Y94308D01*
X218969Y94915D01*
X218263Y95207D01*
Y120165D01*
X225393Y127295D01*
X225855Y127103D01*
Y95207D01*
X225149Y94915D01*
X224358Y94308D01*
X223751Y93516D01*
X223369Y92595D01*
X223239Y91606D01*
X223369Y90618D01*
X223751Y89696D01*
X224358Y88905D01*
X225149Y88298D01*
X226070Y87916D01*
X227059Y87786D01*
X228048Y87916D01*
X228969Y88298D01*
X229760Y88905D01*
X230367Y89696D01*
X230749Y90618D01*
X230879Y91606D01*
X230749Y92595D01*
X230367Y93516D01*
X229760Y94308D01*
X228969Y94915D01*
X228263Y95207D01*
Y127938D01*
X235376Y135051D01*
X235686Y134949D01*
X235855Y134823D01*
Y95207D01*
X235149Y94915D01*
X234358Y94308D01*
X233751Y93516D01*
X233369Y92595D01*
X233239Y91606D01*
X233369Y90618D01*
X233751Y89696D01*
X234358Y88905D01*
X235149Y88298D01*
X236070Y87916D01*
X237059Y87786D01*
X238048Y87916D01*
X238969Y88298D01*
X239760Y88905D01*
X240367Y89696D01*
X240749Y90618D01*
X240879Y91606D01*
X240749Y92595D01*
X240367Y93516D01*
X239760Y94308D01*
X238969Y94915D01*
X238263Y95207D01*
Y115670D01*
X238763Y115831D01*
X239191Y115273D01*
X239878Y114747D01*
X240677Y114415D01*
X241535Y114302D01*
X242394Y114415D01*
X243193Y114747D01*
X243880Y115273D01*
X244407Y115960D01*
X244595Y116414D01*
X248014D01*
X248206Y115952D01*
X246386Y114132D01*
X246146Y114232D01*
X245288Y114345D01*
X244429Y114232D01*
X243630Y113901D01*
X242943Y113374D01*
X242416Y112687D01*
X242085Y111887D01*
X241972Y111029D01*
X242085Y110171D01*
X242416Y109371D01*
X242943Y108684D01*
X243630Y108158D01*
X244429Y107826D01*
X245288Y107713D01*
X246146Y107826D01*
X246945Y108158D01*
X247632Y108684D01*
X248159Y109371D01*
X248490Y110171D01*
X248603Y111029D01*
X248490Y111887D01*
X248214Y112554D01*
X250499Y114839D01*
X257739D01*
X257739Y114839D01*
X258200Y114931D01*
X258591Y115192D01*
X277883Y134485D01*
X291594D01*
X291595Y134485D01*
X292055Y134576D01*
X292446Y134837D01*
X294356Y136747D01*
X294617Y137138D01*
X294708Y137598D01*
X294708Y137599D01*
Y140502D01*
X295260Y140731D01*
X295947Y141258D01*
X296474Y141945D01*
X296805Y142744D01*
X296918Y143602D01*
X296805Y144460D01*
X296474Y145260D01*
X295947Y145947D01*
X295260Y146474D01*
X294461Y146805D01*
X293602Y146918D01*
X292744Y146805D01*
X291945Y146474D01*
X291258Y145947D01*
X290731Y145260D01*
X290400Y144460D01*
X290287Y143602D01*
X290364Y143017D01*
X290309Y142913D01*
X289962Y142606D01*
X289938Y142598D01*
X289272Y142686D01*
X288414Y142573D01*
X287614Y142242D01*
X286927Y141715D01*
X286400Y141028D01*
X286212Y140574D01*
X278839D01*
X278378Y140483D01*
X277987Y140222D01*
X256588Y118822D01*
X244595D01*
X244407Y119276D01*
X243880Y119963D01*
X243193Y120490D01*
X242394Y120821D01*
X241535Y120934D01*
X240677Y120821D01*
X239878Y120490D01*
X239191Y119963D01*
X238763Y119406D01*
X238263Y119566D01*
Y134395D01*
X260472Y156604D01*
X267715D01*
X267715Y156604D01*
X268176Y156695D01*
X268566Y156956D01*
X269136Y157526D01*
X272835D01*
X272835Y157526D01*
X273295Y157618D01*
X273686Y157879D01*
X279926Y164119D01*
X279926Y164119D01*
X280187Y164510D01*
X280279Y164971D01*
X280279Y164971D01*
Y188751D01*
X280741Y188942D01*
X306276Y163407D01*
Y119200D01*
X287218Y100141D01*
X284023D01*
X283562Y100050D01*
X283405Y99945D01*
X283171Y99788D01*
X283171Y99788D01*
X281949Y98566D01*
X274675D01*
X274214Y98475D01*
X274058Y98370D01*
X273823Y98214D01*
X273823Y98214D01*
X272601Y96992D01*
X265327D01*
X265327Y96992D01*
X264866Y96900D01*
X264476Y96639D01*
X260647Y92810D01*
X250660D01*
X250367Y93516D01*
X249760Y94308D01*
X248969Y94915D01*
X248048Y95296D01*
X247059Y95426D01*
X246070Y95296D01*
X245149Y94915D01*
X244358Y94308D01*
X243751Y93516D01*
X243369Y92595D01*
X243239Y91606D01*
X243369Y90618D01*
X243751Y89696D01*
X244358Y88905D01*
X245149Y88298D01*
X246070Y87916D01*
X247059Y87786D01*
X248048Y87916D01*
X248969Y88298D01*
X249760Y88905D01*
X250367Y89696D01*
X250660Y90402D01*
X261146D01*
X261146Y90402D01*
X261607Y90494D01*
X261998Y90755D01*
X262748Y91505D01*
X263276Y91326D01*
X263369Y90618D01*
X263751Y89696D01*
X264358Y88905D01*
X265149Y88298D01*
X266070Y87916D01*
X267059Y87786D01*
X268048Y87916D01*
X268969Y88298D01*
X269760Y88905D01*
X270367Y89696D01*
X270660Y90402D01*
X271146D01*
X271146Y90402D01*
X271607Y90494D01*
X271998Y90755D01*
X272748Y91505D01*
X273276Y91326D01*
X273369Y90618D01*
X273751Y89696D01*
X274358Y88905D01*
X275149Y88298D01*
X276070Y87916D01*
X277059Y87786D01*
X278048Y87916D01*
X278969Y88298D01*
X279760Y88905D01*
X280367Y89696D01*
X280660Y90402D01*
X281146D01*
X281146Y90402D01*
X281607Y90494D01*
X281998Y90755D01*
X282748Y91505D01*
X283276Y91326D01*
X283369Y90618D01*
X283751Y89696D01*
X284358Y88905D01*
X285149Y88298D01*
X286070Y87916D01*
X287059Y87786D01*
X288048Y87916D01*
X288969Y88298D01*
X289760Y88905D01*
X290367Y89696D01*
X290749Y90618D01*
X290879Y91606D01*
X290749Y92595D01*
X290470Y93269D01*
X295393Y98192D01*
X295855Y98001D01*
Y95207D01*
X295149Y94915D01*
X294358Y94308D01*
X293751Y93516D01*
X293369Y92595D01*
X293239Y91606D01*
X293369Y90618D01*
X293751Y89696D01*
X294358Y88905D01*
X295149Y88298D01*
X296070Y87916D01*
X297059Y87786D01*
X298048Y87916D01*
X298969Y88298D01*
X299760Y88905D01*
X300367Y89696D01*
X300749Y90618D01*
X300879Y91606D01*
X300749Y92595D01*
X300367Y93516D01*
X299760Y94308D01*
X298969Y94915D01*
X298263Y95207D01*
Y98836D01*
X314218Y114790D01*
X314746Y114611D01*
X314779Y114372D01*
X306207Y105800D01*
X305946Y105410D01*
X305855Y104949D01*
X305855Y104949D01*
Y95207D01*
X305149Y94915D01*
X304358Y94308D01*
X303751Y93516D01*
X303369Y92595D01*
X303239Y91606D01*
X303369Y90618D01*
X303751Y89696D01*
X304358Y88905D01*
X305149Y88298D01*
X306070Y87916D01*
X307059Y87786D01*
X308048Y87916D01*
X308969Y88298D01*
X309760Y88905D01*
X310367Y89696D01*
X310749Y90618D01*
X310879Y91606D01*
X310749Y92595D01*
X310367Y93516D01*
X309760Y94308D01*
X308969Y94915D01*
X308263Y95207D01*
Y104450D01*
X316050Y112237D01*
X316512Y112046D01*
Y106440D01*
X316208Y106135D01*
X315947Y105744D01*
X315855Y105283D01*
X315855Y105283D01*
Y95207D01*
X315149Y94915D01*
X314358Y94308D01*
X313751Y93516D01*
X313369Y92595D01*
X313239Y91606D01*
X313369Y90618D01*
X313751Y89696D01*
X314358Y88905D01*
X315149Y88298D01*
X316070Y87916D01*
X317059Y87786D01*
X318048Y87916D01*
X318969Y88298D01*
X319760Y88905D01*
X320367Y89696D01*
X320749Y90618D01*
X320879Y91606D01*
X320749Y92595D01*
X320367Y93516D01*
X319760Y94308D01*
X318969Y94915D01*
X318263Y95207D01*
Y104785D01*
X318568Y105089D01*
X318568Y105089D01*
X318829Y105480D01*
X318921Y105941D01*
X318921Y105941D01*
Y109793D01*
X319421Y110000D01*
X325855Y103566D01*
Y95207D01*
X325149Y94915D01*
X324358Y94308D01*
X323751Y93516D01*
X323369Y92595D01*
X323239Y91606D01*
X323369Y90618D01*
X323751Y89696D01*
X324358Y88905D01*
X325149Y88298D01*
X326070Y87916D01*
X327059Y87786D01*
X328048Y87916D01*
X328969Y88298D01*
X329760Y88905D01*
X330367Y89696D01*
X330749Y90618D01*
X330879Y91606D01*
X330749Y92595D01*
X330367Y93516D01*
X329760Y94308D01*
X328969Y94915D01*
X328263Y95207D01*
Y104065D01*
X328172Y104526D01*
X327911Y104916D01*
X327911Y104916D01*
X320988Y111839D01*
Y114924D01*
X321619Y115555D01*
X321619Y115555D01*
X321880Y115946D01*
X321972Y116407D01*
X321972Y116407D01*
Y118782D01*
X322434Y118973D01*
X335855Y105552D01*
Y95207D01*
X335149Y94915D01*
X334358Y94308D01*
X333751Y93516D01*
X333369Y92595D01*
X333239Y91606D01*
X333369Y90618D01*
X333751Y89696D01*
X334358Y88905D01*
X335149Y88298D01*
X336070Y87916D01*
X337059Y87786D01*
X338048Y87916D01*
X338969Y88298D01*
X339760Y88905D01*
X340367Y89696D01*
X340749Y90618D01*
X340879Y91606D01*
X340749Y92595D01*
X340367Y93516D01*
X339760Y94308D01*
X338969Y94915D01*
X338263Y95207D01*
Y98046D01*
X338725Y98237D01*
X345855Y91107D01*
Y86337D01*
X343989Y84472D01*
X44495D01*
X42444Y86522D01*
Y88547D01*
X42898Y88735D01*
X43585Y89262D01*
X44112Y89948D01*
X44443Y90748D01*
X44556Y91606D01*
X44443Y92465D01*
X44255Y92918D01*
X73391Y122054D01*
X73652Y122445D01*
X73744Y122906D01*
X73744Y122906D01*
Y177159D01*
X79731Y183146D01*
X82177D01*
X82365Y182693D01*
X82892Y182006D01*
X83578Y181479D01*
X84378Y181148D01*
X85236Y181035D01*
X86094Y181148D01*
X86894Y181479D01*
X87581Y182006D01*
X88108Y182693D01*
X88439Y183492D01*
X88552Y184350D01*
X88439Y185209D01*
X88108Y186008D01*
X87581Y186695D01*
X86894Y187222D01*
X86094Y187553D01*
X85236Y187666D01*
X84378Y187553D01*
X83578Y187222D01*
X82892Y186695D01*
X82365Y186008D01*
X82177Y185555D01*
X79232D01*
X78771Y185463D01*
X78615Y185358D01*
X78381Y185202D01*
X78381Y185202D01*
X75332Y182153D01*
X74955Y182484D01*
X75116Y182693D01*
X75447Y183492D01*
X75560Y184350D01*
X75447Y185209D01*
X75116Y186008D01*
X74589Y186695D01*
X73902Y187222D01*
X73102Y187553D01*
X72244Y187666D01*
X71386Y187553D01*
X70586Y187222D01*
X69899Y186695D01*
X69373Y186008D01*
X69041Y185209D01*
X68928Y184350D01*
X69041Y183492D01*
X69373Y182693D01*
X69760Y182187D01*
Y129310D01*
X35072Y94621D01*
X34618Y94809D01*
X33760Y94922D01*
X32902Y94809D01*
X32102Y94478D01*
X31415Y93951D01*
X30888Y93264D01*
X30557Y92465D01*
X30444Y91606D01*
X30557Y90748D01*
X30888Y89948D01*
X31415Y89262D01*
X32102Y88735D01*
X32556Y88547D01*
Y84055D01*
X32556Y84055D01*
X32647Y83594D01*
X32908Y83204D01*
X35213Y80898D01*
X35022Y80436D01*
X31306D01*
X27484Y84259D01*
Y88547D01*
X27937Y88735D01*
X28624Y89262D01*
X29151Y89948D01*
X29482Y90748D01*
X29595Y91606D01*
X29482Y92465D01*
X29294Y92918D01*
X66206Y129830D01*
X66467Y130220D01*
X66559Y130681D01*
X66559Y130681D01*
Y159539D01*
X67012Y159727D01*
X67699Y160254D01*
X68226Y160941D01*
X68557Y161740D01*
X68670Y162598D01*
X68557Y163457D01*
X68226Y164256D01*
X67699Y164943D01*
X67012Y165470D01*
X66212Y165801D01*
X65354Y165914D01*
X64496Y165801D01*
X63696Y165470D01*
X63010Y164943D01*
X62483Y164256D01*
X62151Y163457D01*
X62039Y162598D01*
X62151Y161740D01*
X62483Y160941D01*
X63010Y160254D01*
X63696Y159727D01*
X64150Y159539D01*
Y131180D01*
X27591Y94621D01*
X27138Y94809D01*
X26280Y94922D01*
X25421Y94809D01*
X24622Y94478D01*
X23935Y93951D01*
X23408Y93264D01*
X23077Y92465D01*
X22964Y91606D01*
X23077Y90748D01*
X23408Y89948D01*
X23935Y89262D01*
X24622Y88735D01*
X25075Y88547D01*
Y83760D01*
X25075Y83760D01*
X25167Y83299D01*
X25428Y82908D01*
X29308Y79028D01*
X29117Y78566D01*
X24613D01*
X20004Y83176D01*
Y88547D01*
X20457Y88735D01*
X21144Y89262D01*
X21671Y89948D01*
X22002Y90748D01*
X22115Y91606D01*
X22002Y92465D01*
X21671Y93264D01*
X21144Y93951D01*
X20457Y94478D01*
X19657Y94809D01*
X18799Y94922D01*
X17941Y94809D01*
X17141Y94478D01*
X16455Y93951D01*
X15928Y93264D01*
X15597Y92465D01*
X15484Y91606D01*
X15597Y90748D01*
X15928Y89948D01*
X16455Y89262D01*
X17141Y88735D01*
X17595Y88547D01*
Y82677D01*
X17595Y82677D01*
X17687Y82216D01*
X17948Y81826D01*
X23263Y76511D01*
X23263Y76511D01*
X23653Y76250D01*
X24114Y76158D01*
X24114Y76158D01*
X345436D01*
X345436Y76158D01*
X345897Y76250D01*
X346287Y76511D01*
X364631Y94854D01*
X364892Y95245D01*
X364984Y95706D01*
X364984Y95706D01*
Y114764D01*
X364984Y114764D01*
X364892Y115225D01*
X364631Y115615D01*
X360421Y119825D01*
X360749Y120618D01*
X360879Y121606D01*
X360749Y122595D01*
X360367Y123516D01*
X359760Y124308D01*
X358969Y124915D01*
X358048Y125296D01*
X357059Y125426D01*
X356070Y125296D01*
X355149Y124915D01*
X354460Y124386D01*
X353960Y124542D01*
Y127651D01*
X354842Y128533D01*
X355149Y128298D01*
X356070Y127916D01*
X357059Y127786D01*
X358048Y127916D01*
X358969Y128298D01*
X359760Y128905D01*
X360367Y129696D01*
X360749Y130618D01*
X360879Y131606D01*
X360749Y132595D01*
X360367Y133516D01*
X359760Y134308D01*
X358969Y134915D01*
X358048Y135296D01*
X357059Y135426D01*
X356070Y135296D01*
X355149Y134915D01*
X354358Y134308D01*
X353751Y133516D01*
X353369Y132595D01*
X353239Y131606D01*
X353369Y130618D01*
X353414Y130510D01*
X351904Y129001D01*
X351643Y128610D01*
X351552Y128150D01*
X351552Y128150D01*
Y111957D01*
X351552Y111957D01*
Y111255D01*
X351552Y111255D01*
Y103682D01*
X351552Y103682D01*
X351643Y103221D01*
X351904Y102831D01*
X355855Y98880D01*
Y91711D01*
X354422Y90279D01*
X353960Y90470D01*
Y95909D01*
X353960Y95910D01*
X353869Y96370D01*
X353607Y96761D01*
X353607Y96761D01*
X343232Y107137D01*
Y109202D01*
X343732Y109372D01*
X344206Y108754D01*
X345042Y108112D01*
X346015Y107709D01*
X346075Y107701D01*
Y111606D01*
Y115511D01*
X346015Y115503D01*
X345042Y115100D01*
X344206Y114459D01*
X343732Y113841D01*
X343232Y114011D01*
Y116332D01*
X345184Y118284D01*
X346070Y117916D01*
X347059Y117786D01*
X348048Y117916D01*
X348969Y118298D01*
X349760Y118905D01*
X350367Y119696D01*
X350749Y120618D01*
X350879Y121606D01*
X350749Y122595D01*
X350367Y123516D01*
X349760Y124308D01*
X348969Y124915D01*
X348048Y125296D01*
X347059Y125426D01*
X346070Y125296D01*
X345149Y124915D01*
X344358Y124308D01*
X343751Y123516D01*
X343369Y122595D01*
X343239Y121606D01*
X343369Y120618D01*
X343586Y120093D01*
X341176Y117682D01*
X340915Y117292D01*
X340823Y116831D01*
X340823Y116831D01*
Y106638D01*
X340823Y106638D01*
X340915Y106177D01*
X341176Y105786D01*
X351552Y95411D01*
Y89635D01*
X348725Y86809D01*
X348263Y87000D01*
Y91606D01*
X348263Y91606D01*
X348172Y92067D01*
X347911Y92458D01*
X340279Y100089D01*
Y123123D01*
X345365Y128209D01*
X346070Y127916D01*
X347059Y127786D01*
X348048Y127916D01*
X348969Y128298D01*
X349760Y128905D01*
X350367Y129696D01*
X350749Y130618D01*
X350879Y131606D01*
X350749Y132595D01*
X350367Y133516D01*
X349760Y134308D01*
X348969Y134915D01*
X348048Y135296D01*
X347059Y135426D01*
X346070Y135296D01*
X345149Y134915D01*
X344358Y134308D01*
X343751Y133516D01*
X343369Y132595D01*
X343239Y131606D01*
X343369Y130618D01*
X343661Y129912D01*
X338223Y124474D01*
X337962Y124083D01*
X337871Y123622D01*
X337871Y123622D01*
Y107596D01*
X337409Y107405D01*
X323547Y121266D01*
Y127646D01*
X324047Y127816D01*
X324230Y127577D01*
X324917Y127050D01*
X325717Y126718D01*
X326575Y126605D01*
X327433Y126718D01*
X328233Y127050D01*
X328919Y127577D01*
X329446Y128263D01*
X329778Y129063D01*
X329891Y129921D01*
X329778Y130780D01*
X329647Y131094D01*
X340359Y141806D01*
X340620Y142197D01*
X340712Y142657D01*
Y258869D01*
X340712Y258869D01*
X340620Y259330D01*
X340359Y259721D01*
X340359Y259721D01*
X320372Y279708D01*
X320749Y280618D01*
X320879Y281606D01*
X320749Y282595D01*
X320367Y283516D01*
X319760Y284308D01*
X318969Y284915D01*
X318048Y285296D01*
X317059Y285426D01*
X316070Y285296D01*
X315365Y285004D01*
X306013Y294356D01*
X305622Y294617D01*
X305161Y294708D01*
D02*
G37*
G36*
X347059Y275426D02*
X346070Y275296D01*
X345149Y274915D01*
X344358Y274307D01*
X343751Y273516D01*
X343369Y272595D01*
X343239Y271606D01*
X343369Y270618D01*
X343751Y269696D01*
X344358Y268905D01*
X345149Y268298D01*
X346070Y267916D01*
X347059Y267786D01*
X348048Y267916D01*
X348969Y268298D01*
X349760Y268905D01*
X350367Y269696D01*
X350749Y270618D01*
X350879Y271606D01*
X350749Y272595D01*
X350367Y273516D01*
X349760Y274307D01*
X348969Y274915D01*
X348048Y275296D01*
X347059Y275426D01*
D02*
G37*
G36*
X357059D02*
X356070Y275296D01*
X355149Y274915D01*
X354358Y274307D01*
X353751Y273516D01*
X353369Y272595D01*
X353239Y271606D01*
X353369Y270618D01*
X353751Y269696D01*
X354358Y268905D01*
X355149Y268298D01*
X356070Y267916D01*
X357059Y267786D01*
X358048Y267916D01*
X358969Y268298D01*
X359760Y268905D01*
X360367Y269696D01*
X360749Y270618D01*
X360879Y271606D01*
X360749Y272595D01*
X360367Y273516D01*
X359760Y274307D01*
X358969Y274915D01*
X358048Y275296D01*
X357059Y275426D01*
D02*
G37*
G36*
X71059Y285426D02*
X70070Y285296D01*
X69149Y284915D01*
X68358Y284308D01*
X67751Y283516D01*
X67369Y282595D01*
X67239Y281606D01*
X67369Y280618D01*
X67751Y279696D01*
X68358Y278905D01*
X69149Y278298D01*
X70070Y277916D01*
X71059Y277786D01*
X72048Y277916D01*
X72969Y278298D01*
X73760Y278905D01*
X74367Y279696D01*
X74749Y280618D01*
X74879Y281606D01*
X74749Y282595D01*
X74367Y283516D01*
X73760Y284308D01*
X72969Y284915D01*
X72048Y285296D01*
X71059Y285426D01*
D02*
G37*
G36*
X121059D02*
X120070Y285296D01*
X119149Y284915D01*
X118358Y284308D01*
X117751Y283516D01*
X117369Y282595D01*
X117239Y281606D01*
X117369Y280618D01*
X117751Y279696D01*
X118358Y278905D01*
X119149Y278298D01*
X120070Y277916D01*
X121059Y277786D01*
X122048Y277916D01*
X122969Y278298D01*
X123760Y278905D01*
X124367Y279696D01*
X124749Y280618D01*
X124879Y281606D01*
X124749Y282595D01*
X124367Y283516D01*
X123760Y284308D01*
X122969Y284915D01*
X122048Y285296D01*
X121059Y285426D01*
D02*
G37*
G36*
X131059D02*
X130070Y285296D01*
X129149Y284915D01*
X128358Y284308D01*
X127751Y283516D01*
X127369Y282595D01*
X127239Y281606D01*
X127369Y280618D01*
X127751Y279696D01*
X128358Y278905D01*
X129149Y278298D01*
X130070Y277916D01*
X131059Y277786D01*
X132048Y277916D01*
X132969Y278298D01*
X133760Y278905D01*
X134367Y279696D01*
X134749Y280618D01*
X134879Y281606D01*
X134749Y282595D01*
X134367Y283516D01*
X133760Y284308D01*
X132969Y284915D01*
X132048Y285296D01*
X131059Y285426D01*
D02*
G37*
G36*
X111059D02*
X110070Y285296D01*
X109149Y284915D01*
X108358Y284308D01*
X107751Y283516D01*
X107369Y282595D01*
X107239Y281606D01*
X107369Y280618D01*
X107751Y279696D01*
X108358Y278905D01*
X109149Y278298D01*
X110070Y277916D01*
X111059Y277786D01*
X112048Y277916D01*
X112969Y278298D01*
X113760Y278905D01*
X114367Y279696D01*
X114749Y280618D01*
X114879Y281606D01*
X114749Y282595D01*
X114367Y283516D01*
X113760Y284308D01*
X112969Y284915D01*
X112048Y285296D01*
X111059Y285426D01*
D02*
G37*
G36*
X91059D02*
X90070Y285296D01*
X89149Y284915D01*
X88358Y284308D01*
X87751Y283516D01*
X87369Y282595D01*
X87239Y281606D01*
X87369Y280618D01*
X87751Y279696D01*
X88358Y278905D01*
X89149Y278298D01*
X90070Y277916D01*
X91059Y277786D01*
X92048Y277916D01*
X92969Y278298D01*
X93760Y278905D01*
X94367Y279696D01*
X94749Y280618D01*
X94879Y281606D01*
X94749Y282595D01*
X94367Y283516D01*
X93760Y284308D01*
X92969Y284915D01*
X92048Y285296D01*
X91059Y285426D01*
D02*
G37*
G36*
X101059D02*
X100070Y285296D01*
X99149Y284915D01*
X98358Y284308D01*
X97751Y283516D01*
X97369Y282595D01*
X97239Y281606D01*
X97369Y280618D01*
X97751Y279696D01*
X98358Y278905D01*
X99149Y278298D01*
X100070Y277916D01*
X101059Y277786D01*
X102048Y277916D01*
X102969Y278298D01*
X103760Y278905D01*
X104367Y279696D01*
X104749Y280618D01*
X104879Y281606D01*
X104749Y282595D01*
X104367Y283516D01*
X103760Y284308D01*
X102969Y284915D01*
X102048Y285296D01*
X101059Y285426D01*
D02*
G37*
G36*
X347059Y265426D02*
X346070Y265296D01*
X345149Y264915D01*
X344358Y264307D01*
X343751Y263516D01*
X343369Y262595D01*
X343239Y261606D01*
X343369Y260618D01*
X343751Y259696D01*
X344358Y258905D01*
X345149Y258298D01*
X346070Y257916D01*
X347059Y257786D01*
X348048Y257916D01*
X348969Y258298D01*
X349760Y258905D01*
X350367Y259696D01*
X350749Y260618D01*
X350879Y261606D01*
X350749Y262595D01*
X350367Y263516D01*
X349760Y264307D01*
X348969Y264915D01*
X348048Y265296D01*
X347059Y265426D01*
D02*
G37*
G36*
X357059D02*
X356070Y265296D01*
X355149Y264915D01*
X354358Y264307D01*
X353751Y263516D01*
X353369Y262595D01*
X353239Y261606D01*
X353369Y260618D01*
X353751Y259696D01*
X354358Y258905D01*
X355149Y258298D01*
X356070Y257916D01*
X357059Y257786D01*
X358048Y257916D01*
X358969Y258298D01*
X359760Y258905D01*
X360367Y259696D01*
X360749Y260618D01*
X360879Y261606D01*
X360749Y262595D01*
X360367Y263516D01*
X359760Y264307D01*
X358969Y264915D01*
X358048Y265296D01*
X357059Y265426D01*
D02*
G37*
G36*
X49444Y337992D02*
X47047D01*
Y335596D01*
X47828Y335919D01*
X48559Y336480D01*
X49120Y337211D01*
X49444Y337992D01*
D02*
G37*
G36*
X44488Y256727D02*
Y254331D01*
X46885D01*
X46561Y255112D01*
X46000Y255843D01*
X45269Y256404D01*
X44488Y256727D01*
D02*
G37*
G36*
X149901Y338616D02*
X149488Y338445D01*
X148909Y338000D01*
X148465Y337421D01*
X148293Y337008D01*
X149901D01*
Y338616D01*
D02*
G37*
G36*
X45079Y337992D02*
X42682D01*
X43006Y337211D01*
X43567Y336480D01*
X44298Y335919D01*
X45079Y335596D01*
Y337992D01*
D02*
G37*
G36*
X149901Y335039D02*
X148293D01*
X148465Y334626D01*
X148909Y334047D01*
X149488Y333603D01*
X149901Y333431D01*
Y335039D01*
D02*
G37*
G36*
X372216Y336811D02*
X362402D01*
Y326997D01*
X363119Y327053D01*
X364778Y327451D01*
X366355Y328105D01*
X367810Y328996D01*
X369108Y330105D01*
X370216Y331402D01*
X371108Y332858D01*
X371761Y334434D01*
X372160Y336094D01*
X372216Y336811D01*
D02*
G37*
G36*
X168242Y335039D02*
X166634D01*
Y333431D01*
X167047Y333603D01*
X167626Y334047D01*
X168071Y334626D01*
X168242Y335039D01*
D02*
G37*
G36*
X271863D02*
X270255D01*
Y333431D01*
X270668Y333603D01*
X271247Y334047D01*
X271691Y334626D01*
X271863Y335039D01*
D02*
G37*
G36*
X253522D02*
X251914D01*
X252086Y334626D01*
X252530Y334047D01*
X253109Y333603D01*
X253522Y333431D01*
Y335039D01*
D02*
G37*
%LPD*%
G36*
X222325Y232791D02*
X222852Y232104D01*
X223539Y231577D01*
X223656Y231529D01*
Y231274D01*
X223616Y231004D01*
X222951Y230494D01*
X222424Y229807D01*
X222113Y229059D01*
X196957D01*
X196769Y229512D01*
X196242Y230199D01*
X195555Y230726D01*
X194906Y230995D01*
X194833Y231252D01*
X194825Y231426D01*
X194846Y231539D01*
X195455Y232006D01*
X195982Y232693D01*
X196211Y233245D01*
X222137D01*
X222325Y232791D01*
D02*
G37*
G36*
X257362Y201754D02*
X257327Y201486D01*
X257440Y200628D01*
X257771Y199828D01*
X257901Y199660D01*
X256264Y198023D01*
X186836D01*
X186589Y198523D01*
X186828Y198834D01*
X187016Y199288D01*
X253248D01*
X253248Y199288D01*
X253709Y199380D01*
X254100Y199641D01*
X256497Y202038D01*
X256902Y202092D01*
X257362Y201754D01*
D02*
G37*
G36*
X128869Y214871D02*
X128624Y214552D01*
X128293Y213752D01*
X128180Y212894D01*
X128293Y212035D01*
X128624Y211236D01*
X129151Y210549D01*
X129616Y210192D01*
X129628Y210169D01*
Y209614D01*
X129616Y209591D01*
X129151Y209234D01*
X128624Y208548D01*
X128293Y207748D01*
X128180Y206890D01*
X128293Y206032D01*
X128624Y205232D01*
X129151Y204545D01*
X129838Y204018D01*
X130638Y203687D01*
X131496Y203574D01*
X132354Y203687D01*
X133154Y204018D01*
X133841Y204545D01*
X133996Y204748D01*
X134495Y204781D01*
X136186Y203090D01*
Y200151D01*
X135858Y200039D01*
X135686Y200011D01*
X135024Y200519D01*
X134224Y200850D01*
X133366Y200963D01*
X132508Y200850D01*
X131708Y200519D01*
X131021Y199992D01*
X130495Y199305D01*
X130163Y198506D01*
X130156Y198448D01*
X105061D01*
X104891Y198948D01*
X105002Y199033D01*
X105529Y199720D01*
X105860Y200520D01*
X105959Y201274D01*
X119426Y214740D01*
X119954Y214561D01*
X120026Y214015D01*
X120357Y213215D01*
X120884Y212528D01*
X121571Y212001D01*
X122370Y211670D01*
X123228Y211557D01*
X124086Y211670D01*
X124886Y212001D01*
X125573Y212528D01*
X126100Y213215D01*
X126413Y213971D01*
X127813Y215371D01*
X128623D01*
X128869Y214871D01*
D02*
G37*
G36*
X263804Y266149D02*
X252160Y254505D01*
X251899Y254114D01*
X251808Y253653D01*
X251808Y253653D01*
Y251159D01*
X229079Y228430D01*
X228551Y228609D01*
X228498Y229008D01*
X228167Y229807D01*
X227640Y230494D01*
X226953Y231021D01*
X226836Y231070D01*
Y231324D01*
X226877Y231594D01*
X227541Y232104D01*
X228068Y232791D01*
X228400Y233591D01*
X228513Y234449D01*
X228400Y235307D01*
X228068Y236107D01*
X227541Y236793D01*
X226855Y237320D01*
X226480Y237475D01*
Y238017D01*
X226855Y238172D01*
X227541Y238699D01*
X228068Y239385D01*
X228400Y240185D01*
X228513Y241043D01*
X228400Y241901D01*
X228068Y242701D01*
X227541Y243388D01*
X226855Y243915D01*
X226055Y244246D01*
X225856Y244272D01*
Y244777D01*
X226252Y244829D01*
X227052Y245160D01*
X227738Y245687D01*
X228265Y246374D01*
X228596Y247173D01*
X228710Y248031D01*
X228596Y248890D01*
X228265Y249689D01*
X227738Y250376D01*
X227052Y250903D01*
X226252Y251234D01*
X225394Y251347D01*
X224535Y251234D01*
X223736Y250903D01*
X223049Y250376D01*
X222522Y249689D01*
X222334Y249236D01*
X197055D01*
X196868Y249689D01*
X196341Y250376D01*
X195654Y250903D01*
X194854Y251234D01*
X194456Y251287D01*
X194276Y251815D01*
X207695Y265233D01*
X231920D01*
X232713Y264439D01*
Y261960D01*
X232713Y261960D01*
X232805Y261499D01*
X233066Y261108D01*
X235222Y258952D01*
X235222Y258952D01*
X235613Y258691D01*
X236074Y258599D01*
X236074Y258599D01*
X239123D01*
X239123Y258599D01*
X239584Y258691D01*
X239975Y258952D01*
X247634Y266611D01*
X263613D01*
X263804Y266149D01*
D02*
G37*
G36*
X322752Y251923D02*
Y251423D01*
X314798Y243470D01*
X314537Y243079D01*
X314445Y242618D01*
X314445Y242618D01*
Y205494D01*
X313992Y205306D01*
X313305Y204779D01*
X312778Y204093D01*
X312447Y203293D01*
X312334Y202435D01*
X312447Y201576D01*
X312778Y200777D01*
X313305Y200090D01*
X313992Y199563D01*
X314791Y199232D01*
X315650Y199119D01*
X316508Y199232D01*
X317307Y199563D01*
X317994Y200090D01*
X318521Y200777D01*
X318852Y201576D01*
X318965Y202435D01*
X318852Y203293D01*
X318521Y204093D01*
X317994Y204779D01*
X317307Y205306D01*
X316854Y205494D01*
Y242119D01*
X325556Y250822D01*
X325817Y251212D01*
X325832Y251286D01*
X326374Y251450D01*
X327182Y250643D01*
Y214810D01*
X323359Y210987D01*
X322905Y211175D01*
X322047Y211288D01*
X321189Y211175D01*
X320389Y210844D01*
X319703Y210317D01*
X319176Y209630D01*
X318845Y208831D01*
X318731Y207972D01*
X318845Y207114D01*
X319176Y206315D01*
X319703Y205628D01*
X320389Y205101D01*
X321189Y204770D01*
X322047Y204657D01*
X322905Y204770D01*
X323705Y205101D01*
X324392Y205628D01*
X324620Y205925D01*
X324691Y205955D01*
X325240Y205911D01*
X325608Y205431D01*
X326238Y204947D01*
X326290Y204427D01*
X326098Y204348D01*
X325411Y203821D01*
X324884Y203134D01*
X324553Y202335D01*
X324440Y201476D01*
X324553Y200618D01*
X324884Y199819D01*
X325411Y199132D01*
X325826Y198813D01*
X325686Y198291D01*
X325618Y198282D01*
X324818Y197950D01*
X324132Y197423D01*
X323605Y196737D01*
X323274Y195937D01*
X323161Y195079D01*
X323274Y194221D01*
X323605Y193421D01*
X324132Y192734D01*
X324818Y192207D01*
X325618Y191876D01*
X326476Y191763D01*
X327335Y191876D01*
X328134Y192207D01*
X328821Y192734D01*
X329348Y193421D01*
X329679Y194221D01*
X329792Y195079D01*
X329679Y195937D01*
X329520Y196321D01*
X333117Y199918D01*
X333579Y199727D01*
Y159790D01*
X327887Y154098D01*
X327433Y154286D01*
X326575Y154399D01*
X325717Y154286D01*
X324917Y153954D01*
X324230Y153427D01*
X324047Y153188D01*
X323547Y153358D01*
Y186125D01*
X323547Y186126D01*
X323455Y186586D01*
X323194Y186977D01*
X323194Y186977D01*
X300667Y209504D01*
Y217308D01*
X300667Y217308D01*
X300575Y217769D01*
X300314Y218160D01*
X300314Y218160D01*
X295551Y222922D01*
Y231322D01*
X296324Y232094D01*
X296324Y232094D01*
X296585Y232485D01*
X296677Y232945D01*
X296677Y232946D01*
Y243571D01*
X297544Y244438D01*
X300814D01*
X300814Y244438D01*
X301275Y244530D01*
X301665Y244791D01*
X310071Y253197D01*
X310267Y253046D01*
X311067Y252715D01*
X311925Y252602D01*
X312783Y252715D01*
X313583Y253046D01*
X314269Y253573D01*
X314796Y254260D01*
X315127Y255060D01*
X315240Y255918D01*
X315127Y256776D01*
X314796Y257576D01*
X314269Y258263D01*
X313583Y258789D01*
X312783Y259121D01*
X312063Y259216D01*
X311801Y259532D01*
X311727Y259712D01*
X311879Y260080D01*
X311992Y260938D01*
X311879Y261796D01*
X311672Y262295D01*
X312096Y262579D01*
X322752Y251923D01*
D02*
G37*
G36*
X262182Y198115D02*
Y192411D01*
X262182Y192411D01*
X262273Y191950D01*
X262534Y191559D01*
X265665Y188429D01*
X265485Y187901D01*
X265087Y187848D01*
X264287Y187517D01*
X263600Y186990D01*
X263073Y186304D01*
X262742Y185504D01*
X262715Y185296D01*
X262181Y185075D01*
X261808Y185361D01*
X261009Y185692D01*
X260151Y185805D01*
X259292Y185692D01*
X258493Y185361D01*
X257806Y184834D01*
X257327Y184209D01*
X257074Y184100D01*
X256786Y184043D01*
X248147Y192682D01*
X247756Y192943D01*
X247295Y193035D01*
X247295Y193035D01*
X190166D01*
X189978Y193489D01*
X189451Y194175D01*
X189273Y194312D01*
X189443Y194812D01*
X256929D01*
X256929Y194812D01*
X257442Y194914D01*
X257544Y194934D01*
X258065Y195282D01*
X261000Y198217D01*
X261501Y198283D01*
X261766Y198393D01*
X262182Y198115D01*
D02*
G37*
G36*
X255989Y249081D02*
X256610Y248605D01*
X257064Y248417D01*
Y242015D01*
X257023Y241974D01*
X256762Y241583D01*
X256670Y241122D01*
X256709Y240924D01*
Y240275D01*
X256209Y240028D01*
X255890Y240273D01*
X255090Y240604D01*
X254232Y240717D01*
X253374Y240604D01*
X252574Y240273D01*
X251888Y239746D01*
X251361Y239059D01*
X251029Y238260D01*
X250917Y237402D01*
X251029Y236543D01*
X251217Y236090D01*
X248558Y233430D01*
X248297Y233040D01*
X248205Y232579D01*
X248205Y232579D01*
Y223910D01*
X248205Y223910D01*
X248297Y223449D01*
X248558Y223059D01*
X261959Y209658D01*
Y205103D01*
X261959Y205103D01*
X261972Y205035D01*
X261534Y204675D01*
X261501Y204689D01*
X260643Y204802D01*
X259941Y204710D01*
X259481Y205047D01*
X259517Y205315D01*
X259404Y206173D01*
X259072Y206973D01*
X258545Y207660D01*
X257859Y208187D01*
X257059Y208518D01*
X256201Y208631D01*
X255343Y208518D01*
X254543Y208187D01*
X253856Y207660D01*
X253329Y206973D01*
X252998Y206173D01*
X252885Y205315D01*
X252998Y204457D01*
X253329Y203657D01*
X253856Y202970D01*
X253867Y202814D01*
X252749Y201696D01*
X187016D01*
X186828Y202150D01*
X186301Y202837D01*
X185615Y203364D01*
X184815Y203695D01*
X183957Y203808D01*
X183098Y203695D01*
X182299Y203364D01*
X181612Y202837D01*
X181085Y202150D01*
X180754Y201350D01*
X180703Y200961D01*
X180175Y200782D01*
X177853Y203104D01*
X177332Y203452D01*
X177230Y203472D01*
X176718Y203574D01*
X176718Y203574D01*
X161885D01*
X151431Y214029D01*
X150910Y214377D01*
X150808Y214397D01*
X150295Y214499D01*
X150295Y214499D01*
X134400D01*
X134372Y214541D01*
X134368Y214552D01*
X134346Y214580D01*
X134134Y214894D01*
X134369Y215371D01*
X155897D01*
X156085Y214917D01*
X156612Y214230D01*
X157299Y213703D01*
X158098Y213372D01*
X158957Y213259D01*
X159815Y213372D01*
X160615Y213703D01*
X161301Y214230D01*
X161828Y214917D01*
X162160Y215717D01*
X162273Y216575D01*
X162160Y217433D01*
X161828Y218233D01*
X161301Y218919D01*
X160615Y219446D01*
X159815Y219778D01*
X158957Y219891D01*
X158098Y219778D01*
X157299Y219446D01*
X156612Y218919D01*
X156085Y218233D01*
X155897Y217779D01*
X127314D01*
X127314Y217779D01*
X126853Y217687D01*
X126462Y217426D01*
X126137Y217101D01*
X125638Y217133D01*
X125573Y217217D01*
X124886Y217744D01*
X124086Y218076D01*
X123540Y218148D01*
X123361Y218675D01*
X125332Y220646D01*
X131697D01*
X133450Y218893D01*
X133450Y218893D01*
X133841Y218632D01*
X134302Y218540D01*
X134302Y218540D01*
X137352D01*
X137352Y218540D01*
X137812Y218632D01*
X138203Y218893D01*
X144484Y225174D01*
X168606D01*
X169868Y223912D01*
X170258Y223651D01*
X170719Y223559D01*
X173769D01*
X173769Y223559D01*
X174230Y223651D01*
X174620Y223912D01*
X176079Y225371D01*
X189472D01*
X190578Y224265D01*
X190387Y223803D01*
X187953D01*
X187953Y223803D01*
X187492Y223711D01*
X187101Y223450D01*
X179658Y216007D01*
X179205Y216195D01*
X178347Y216308D01*
X177488Y216195D01*
X176689Y215864D01*
X176002Y215337D01*
X175475Y214650D01*
X175144Y213850D01*
X175031Y212992D01*
X175144Y212134D01*
X175475Y211334D01*
X176002Y210648D01*
X176689Y210121D01*
X177488Y209789D01*
X178347Y209676D01*
X179205Y209789D01*
X180004Y210121D01*
X180691Y210648D01*
X181218Y211334D01*
X181549Y212134D01*
X181662Y212992D01*
X181549Y213850D01*
X181361Y214304D01*
X188452Y221394D01*
X196075D01*
X196075Y221394D01*
X196536Y221486D01*
X196926Y221747D01*
X198680Y223500D01*
X220808D01*
X222267Y222042D01*
X222657Y221781D01*
X223118Y221690D01*
X223118Y221690D01*
X227472D01*
X227472Y221690D01*
X227933Y221781D01*
X228324Y222042D01*
X255345Y249063D01*
X255808Y249118D01*
X255989Y249081D01*
D02*
G37*
G36*
X290829Y204801D02*
X296925Y198705D01*
X296691Y198231D01*
X296063Y198314D01*
X295149Y198193D01*
X294298Y197841D01*
X293567Y197280D01*
X293006Y196549D01*
X292682Y195768D01*
X296063D01*
Y194783D01*
X297047D01*
Y191403D01*
X297828Y191726D01*
X298559Y192287D01*
X299120Y193018D01*
X299473Y193870D01*
X299593Y194783D01*
X299511Y195412D01*
X299984Y195645D01*
X313264Y182365D01*
Y164929D01*
X312764Y164778D01*
X312761Y164782D01*
X312761Y164782D01*
X284314Y193229D01*
Y198994D01*
X290167Y204846D01*
X290511Y204874D01*
X290829Y204801D01*
D02*
G37*
G36*
X130495Y195990D02*
X131021Y195303D01*
X131708Y194776D01*
X132508Y194445D01*
X133366Y194332D01*
X134224Y194445D01*
X135024Y194776D01*
X135320Y194377D01*
X134154Y193211D01*
X134057Y193275D01*
X133366Y193413D01*
X132675Y193275D01*
X132144Y192921D01*
X131708Y192740D01*
X131021Y192213D01*
X130495Y191526D01*
X130163Y190727D01*
X130050Y189869D01*
X130163Y189010D01*
X130495Y188211D01*
X131021Y187524D01*
X131708Y186997D01*
X132508Y186666D01*
X133366Y186553D01*
X133424Y186560D01*
X134182Y185802D01*
X133949Y185329D01*
X133366Y185406D01*
X132508Y185293D01*
X131708Y184961D01*
X131021Y184434D01*
X130495Y183748D01*
X130473Y183695D01*
X130424Y183694D01*
X130171Y184186D01*
X130234Y184267D01*
X130565Y185067D01*
X130678Y185925D01*
X130565Y186783D01*
X130234Y187583D01*
X129707Y188270D01*
X129020Y188797D01*
X128220Y189128D01*
X127362Y189241D01*
X126504Y189128D01*
X125704Y188797D01*
X125018Y188270D01*
X124491Y187583D01*
X124159Y186783D01*
X124154Y186741D01*
X105846D01*
X105534Y187494D01*
X105007Y188180D01*
X104320Y188707D01*
X103521Y189039D01*
X102663Y189152D01*
X101804Y189039D01*
X101005Y188707D01*
X100318Y188180D01*
X99834Y187550D01*
X99638Y187559D01*
X99334Y187690D01*
Y189280D01*
X99985Y189550D01*
X100671Y190077D01*
X101198Y190763D01*
X101530Y191563D01*
X101643Y192421D01*
X101530Y193279D01*
X101198Y194079D01*
X100671Y194766D01*
X99985Y195293D01*
X99388Y195540D01*
X99488Y196040D01*
X130474D01*
X130495Y195990D01*
D02*
G37*
G36*
X264878Y244494D02*
Y236966D01*
X258597Y230685D01*
X258336Y230294D01*
X258245Y229834D01*
X258245Y229834D01*
Y223693D01*
X257745Y223486D01*
X257208Y224022D01*
Y231096D01*
X263364Y237252D01*
X263364Y237252D01*
X263625Y237643D01*
X263717Y238103D01*
Y244394D01*
X264171Y244582D01*
X264378Y244741D01*
X264878Y244494D01*
D02*
G37*
G36*
X84380Y220048D02*
X84270Y219963D01*
X83743Y219276D01*
X83514Y218724D01*
X69595D01*
X69407Y219178D01*
X68880Y219864D01*
X68641Y220048D01*
X68811Y220548D01*
X84211D01*
X84380Y220048D01*
D02*
G37*
G36*
X271630Y231577D02*
Y219407D01*
X271168Y219216D01*
X265870Y224515D01*
Y226470D01*
X271168Y231769D01*
X271630Y231577D01*
D02*
G37*
G36*
X71335Y126825D02*
Y123404D01*
X42552Y94621D01*
X42098Y94809D01*
X41240Y94922D01*
X40382Y94809D01*
X39582Y94478D01*
X38896Y93951D01*
X38369Y93264D01*
X38037Y92465D01*
X37924Y91606D01*
X38037Y90748D01*
X38369Y89948D01*
X38896Y89262D01*
X39582Y88735D01*
X40036Y88547D01*
Y86024D01*
X40036Y86024D01*
X40128Y85563D01*
X40389Y85172D01*
X42656Y82905D01*
X42449Y82405D01*
X37113D01*
X34964Y84554D01*
Y88547D01*
X35418Y88735D01*
X36105Y89262D01*
X36631Y89948D01*
X36963Y90748D01*
X37076Y91606D01*
X36963Y92465D01*
X36775Y92918D01*
X70873Y127017D01*
X71335Y126825D01*
D02*
G37*
G36*
X355149Y118298D02*
X356070Y117916D01*
X357059Y117786D01*
X358048Y117916D01*
X358667Y118173D01*
X362575Y114265D01*
Y96205D01*
X358725Y92355D01*
X358263Y92546D01*
Y99379D01*
X358172Y99840D01*
X357911Y100231D01*
X357911Y100231D01*
X353960Y104181D01*
Y108312D01*
X354460Y108559D01*
X355042Y108112D01*
X356015Y107709D01*
X356075Y107701D01*
Y111606D01*
Y115511D01*
X356015Y115503D01*
X355042Y115100D01*
X354460Y114654D01*
X353960Y114901D01*
Y118670D01*
X354460Y118827D01*
X355149Y118298D01*
D02*
G37*
G36*
X338304Y146184D02*
Y143156D01*
X329338Y134191D01*
X328961Y134521D01*
X329446Y135153D01*
X329778Y135953D01*
X329891Y136811D01*
X329778Y137669D01*
X329590Y138123D01*
X337842Y146375D01*
X338304Y146184D01*
D02*
G37*
G36*
X231276Y268103D02*
X231085Y267641D01*
X207196D01*
X207196Y267641D01*
X206735Y267550D01*
X206344Y267288D01*
X206344Y267288D01*
X185831Y246775D01*
X159555D01*
X159368Y247229D01*
X158841Y247916D01*
X158154Y248442D01*
X157354Y248774D01*
X156496Y248887D01*
X155638Y248774D01*
X154838Y248442D01*
X154151Y247916D01*
X153624Y247229D01*
X153293Y246429D01*
X153180Y245571D01*
X153293Y244713D01*
X153624Y243913D01*
X154151Y243226D01*
X154838Y242699D01*
X155638Y242368D01*
X156496Y242255D01*
X157354Y242368D01*
X158154Y242699D01*
X158841Y243226D01*
X159368Y243913D01*
X159555Y244367D01*
X186329D01*
X186330Y244367D01*
X186790Y244458D01*
X187181Y244719D01*
X190213Y247751D01*
X190741Y247572D01*
X190793Y247173D01*
X191124Y246374D01*
X191651Y245687D01*
X192338Y245160D01*
X193138Y244829D01*
X193996Y244716D01*
X194854Y244829D01*
X195654Y245160D01*
X196341Y245687D01*
X196868Y246374D01*
X197055Y246827D01*
X222334D01*
X222522Y246374D01*
X223049Y245687D01*
X223736Y245160D01*
X224535Y244829D01*
X224734Y244802D01*
Y244298D01*
X224339Y244246D01*
X223539Y243915D01*
X222852Y243388D01*
X222325Y242701D01*
X222015Y241952D01*
X200952D01*
X200805Y242307D01*
X200278Y242994D01*
X199591Y243521D01*
X198791Y243852D01*
X197933Y243965D01*
X197075Y243852D01*
X196275Y243521D01*
X195589Y242994D01*
X195062Y242307D01*
X194730Y241508D01*
X194617Y240650D01*
X194730Y239791D01*
X195062Y238992D01*
X195589Y238305D01*
X196275Y237778D01*
X197075Y237447D01*
X197933Y237334D01*
X198791Y237447D01*
X199591Y237778D01*
X200278Y238305D01*
X200805Y238992D01*
X201033Y239544D01*
X222260D01*
X222325Y239385D01*
X222852Y238699D01*
X223539Y238172D01*
X223913Y238017D01*
Y237475D01*
X223539Y237320D01*
X222852Y236793D01*
X222325Y236107D01*
X222137Y235653D01*
X196129D01*
X195982Y236008D01*
X195455Y236695D01*
X194768Y237222D01*
X193968Y237553D01*
X193110Y237666D01*
X192252Y237553D01*
X191452Y237222D01*
X190766Y236695D01*
X190239Y236008D01*
X189907Y235209D01*
X189795Y234350D01*
X189907Y233492D01*
X190239Y232693D01*
X190766Y232006D01*
X191452Y231479D01*
X192102Y231210D01*
X192175Y230953D01*
X192183Y230779D01*
X192162Y230666D01*
X191553Y230199D01*
X191026Y229512D01*
X190695Y228713D01*
X190617Y228122D01*
X190616Y228119D01*
X190162Y227770D01*
X190091Y227755D01*
X189971Y227779D01*
X189971Y227779D01*
X175977D01*
X175536Y228261D01*
X175560Y228445D01*
X175447Y229303D01*
X175116Y230103D01*
X174589Y230789D01*
X173902Y231316D01*
X173102Y231648D01*
X172244Y231761D01*
X171386Y231648D01*
X170586Y231316D01*
X169899Y230789D01*
X169373Y230103D01*
X169185Y229649D01*
X160834D01*
X149629Y240853D01*
Y261608D01*
X153912Y265890D01*
X154248Y265632D01*
X155047Y265301D01*
X155905Y265188D01*
X156764Y265301D01*
X157563Y265632D01*
X158250Y266159D01*
X158777Y266846D01*
X159108Y267646D01*
X159221Y268504D01*
X159108Y269362D01*
X158777Y270162D01*
X158532Y270481D01*
X158779Y270981D01*
X228399D01*
X231276Y268103D01*
D02*
G37*
G36*
X282420Y262961D02*
X282299Y262911D01*
X281612Y262384D01*
X281085Y261697D01*
X280948Y261365D01*
X280837Y261303D01*
X280353Y261236D01*
X279821Y261644D01*
X279021Y261975D01*
X278163Y262088D01*
X277305Y261975D01*
X276505Y261644D01*
X275819Y261117D01*
X275292Y260430D01*
X274960Y259631D01*
X274899Y259164D01*
X274366Y258943D01*
X274197Y259072D01*
X273398Y259404D01*
X272539Y259517D01*
X271681Y259404D01*
X270882Y259072D01*
X270195Y258545D01*
X269668Y257859D01*
X269582Y257652D01*
X269041D01*
X268915Y257957D01*
X268388Y258644D01*
X267701Y259171D01*
X266901Y259502D01*
X266043Y259615D01*
X265185Y259502D01*
X264385Y259171D01*
X263699Y258644D01*
X263172Y257957D01*
X262841Y257157D01*
X262727Y256299D01*
X262841Y255441D01*
X263172Y254641D01*
X263699Y253955D01*
X264385Y253428D01*
X264990Y253177D01*
Y250326D01*
X264490Y250080D01*
X264171Y250325D01*
X263371Y250656D01*
X262513Y250769D01*
X261985Y250699D01*
X261537Y251121D01*
X261583Y251476D01*
X261471Y252335D01*
X261139Y253134D01*
X260612Y253821D01*
X259926Y254348D01*
X259126Y254679D01*
X258727Y254732D01*
X258548Y255260D01*
X266750Y263461D01*
X282320D01*
X282420Y262961D01*
D02*
G37*
G36*
X335154Y157306D02*
Y153688D01*
X327788Y146322D01*
X327335Y146510D01*
X326476Y146623D01*
X325618Y146510D01*
X324818Y146179D01*
X324132Y145652D01*
X324047Y145541D01*
X323547Y145711D01*
Y148807D01*
X324047Y148977D01*
X324230Y148738D01*
X324917Y148211D01*
X325717Y147880D01*
X326575Y147767D01*
X327433Y147880D01*
X328233Y148211D01*
X328919Y148738D01*
X329446Y149425D01*
X329778Y150224D01*
X329891Y151083D01*
X329778Y151941D01*
X329590Y152394D01*
X334692Y157497D01*
X335154Y157306D01*
D02*
G37*
G36*
X273146Y174943D02*
Y167426D01*
X270379Y164659D01*
X268014D01*
X267823Y165121D01*
X270084Y167382D01*
X270084Y167382D01*
X270345Y167773D01*
X270437Y168234D01*
X270437Y168234D01*
Y172887D01*
X272684Y175135D01*
X273146Y174943D01*
D02*
G37*
%LPC*%
G36*
X252264Y262829D02*
Y260433D01*
X254660D01*
X254337Y261214D01*
X253776Y261945D01*
X253045Y262506D01*
X252264Y262829D01*
D02*
G37*
G36*
X358043Y115511D02*
Y112591D01*
X360964D01*
X360956Y112651D01*
X360553Y113624D01*
X359912Y114459D01*
X359076Y115100D01*
X358103Y115503D01*
X358043Y115511D01*
D02*
G37*
G36*
X360964Y110622D02*
X358043D01*
Y107701D01*
X358103Y107709D01*
X359076Y108112D01*
X359912Y108754D01*
X360553Y109589D01*
X360956Y110562D01*
X360964Y110622D01*
D02*
G37*
G36*
X250295Y262829D02*
X249514Y262506D01*
X248783Y261945D01*
X248222Y261214D01*
X247899Y260433D01*
X250295D01*
Y262829D01*
D02*
G37*
G36*
X295079Y193799D02*
X292682D01*
X293006Y193018D01*
X293567Y192287D01*
X294298Y191726D01*
X295079Y191403D01*
Y193799D01*
D02*
G37*
G36*
X250295Y258465D02*
X247899D01*
X248222Y257684D01*
X248783Y256953D01*
X249514Y256392D01*
X250295Y256068D01*
Y258465D01*
D02*
G37*
G36*
X254660D02*
X252264D01*
Y256068D01*
X253045Y256392D01*
X253776Y256953D01*
X254337Y257684D01*
X254660Y258465D01*
D02*
G37*
%LPD*%
D44*
X43406Y60532D02*
X97441D01*
X60630Y188484D02*
Y203900D01*
X54488Y210042D02*
X60630Y203900D01*
X101279Y138091D02*
Y138265D01*
X119390Y156201D02*
X125394D01*
X101279Y138091D02*
X119390Y156201D01*
X151870Y149705D02*
Y155118D01*
X133366Y176833D02*
X134351Y177818D01*
X135135D01*
X137638Y180321D01*
Y184902D01*
X133366Y189869D02*
Y191606D01*
X131496Y206183D02*
Y206890D01*
X133366Y189869D02*
X137992Y194495D01*
Y203839D01*
X134941Y206890D02*
X137992Y203839D01*
X131496Y206890D02*
X134941D01*
X132972Y189567D02*
X137638Y184902D01*
X133366Y174311D02*
Y176833D01*
X132677Y174311D02*
X151870Y155118D01*
X47835Y223917D02*
Y229331D01*
Y223917D02*
X54488Y217264D01*
Y210042D02*
Y217264D01*
D45*
X320768Y116407D02*
Y185473D01*
X319783Y115422D02*
X320768Y116407D01*
X297888Y208353D02*
X320768Y185473D01*
X322342Y120768D02*
X337059Y106051D01*
X322342Y120768D02*
Y186126D01*
X299463Y209005D02*
X322342Y186126D01*
X326476Y143307D02*
X336358Y153189D01*
X337933Y148169D02*
Y258217D01*
X339508Y142657D02*
Y258869D01*
X326575Y136811D02*
X337933Y148169D01*
X320166Y275984D02*
X337933Y258217D01*
X317059Y281318D02*
X339508Y258869D01*
X336358Y153189D02*
Y257564D01*
X326575Y151083D02*
X334784Y159291D01*
Y256912D01*
X319193Y117059D02*
Y184821D01*
X317618Y117711D02*
Y184169D01*
X316043Y118363D02*
Y183516D01*
X314469Y119016D02*
Y182864D01*
X292224Y143602D02*
X293504D01*
Y137598D02*
Y143602D01*
X291595Y135689D02*
X293504Y137598D01*
X277385Y135689D02*
X291595D01*
X326673Y129823D02*
X339508Y142657D01*
X258159Y178740D02*
X263018D01*
X266083Y175492D02*
X269626Y179035D01*
X266083Y169538D02*
Y175492D01*
X269626Y179035D02*
Y186170D01*
X267657Y174730D02*
X271201Y178274D01*
X269232Y173386D02*
X272776Y176929D01*
X271201Y178274D02*
Y186823D01*
X269232Y168234D02*
Y173386D01*
X272776Y176929D02*
Y187475D01*
X263018Y178740D02*
X265945Y181667D01*
X267657Y168886D02*
Y174730D01*
X264961Y193063D02*
X271201Y186823D01*
X263386Y192411D02*
X269626Y186170D01*
X266535Y193715D02*
X272776Y187475D01*
X251378Y62106D02*
X271161D01*
X285728Y308268D02*
X290059Y303937D01*
X303051D01*
X179921Y308169D02*
X184449Y303642D01*
X202264D01*
X62992Y310531D02*
X69980Y303543D01*
X79429D01*
X58464Y310531D02*
X62992D01*
X58464D02*
Y312106D01*
X41240Y86024D02*
Y91606D01*
Y86024D02*
X43996Y83268D01*
X33760Y84055D02*
X36614Y81201D01*
X33760Y84055D02*
Y91606D01*
X26280Y83760D02*
X30807Y79232D01*
X26280Y83760D02*
Y91606D01*
X18799Y82677D02*
Y91606D01*
Y82677D02*
X24114Y77362D01*
X106890Y124114D02*
Y133661D01*
X166535Y102461D02*
Y118012D01*
X58760Y211811D02*
Y219783D01*
X60728Y221752D01*
X92224D01*
X41240Y91606D02*
X72539Y122906D01*
X66535Y217520D02*
X86614D01*
X33760Y91606D02*
X70965Y128811D01*
Y183268D01*
X26280Y91606D02*
X65354Y130681D01*
Y162598D01*
X106890Y133661D02*
X120472Y147244D01*
X92323Y192421D02*
X92924D01*
X133166Y197835D02*
X133268D01*
X132979Y197647D02*
X133166Y197835D01*
X70965Y183268D02*
X72244Y184547D01*
Y184646D01*
X72539Y122906D02*
Y177657D01*
X79232Y184350D01*
X85236D01*
X120472Y147244D02*
X132503D01*
X146479Y133268D01*
X151279D01*
X166535Y118012D01*
X102663Y185537D02*
Y185836D01*
X127466Y185537D02*
X127854Y185925D01*
X102663Y185537D02*
X127466D01*
X127362Y185925D02*
X127854D01*
X101083Y182087D02*
X132579D01*
X98130Y185039D02*
X101083Y182087D01*
X98130Y185039D02*
Y192421D01*
X92924D02*
X97747Y197244D01*
X132677D01*
X132579Y182087D02*
X132763Y182422D01*
X133661Y184055D01*
X132677Y197244D02*
X133268Y197835D01*
X127314Y216575D02*
X158957D01*
X90798Y196102D02*
X93445D01*
X98976Y201634D01*
Y202903D01*
X101133Y205059D01*
X86319Y192618D02*
X87314D01*
X90798Y196102D01*
X124420Y213681D02*
X127314Y216575D01*
X123228Y214873D02*
X124420Y213681D01*
X102657Y201378D02*
X104360D01*
X101133Y205059D02*
X105157D01*
X123524Y223425D01*
X135827D01*
X197933Y240748D02*
X224902D01*
X104360Y201378D02*
X124833Y221850D01*
X132196D01*
X134302Y219744D01*
X137352D01*
X148425Y240354D02*
Y262106D01*
X156496Y245571D02*
X186330D01*
X185433Y171457D02*
X248830D01*
X148425Y262106D02*
X154823Y268504D01*
X155905D01*
X146271Y264075D02*
X154381Y272185D01*
X30807Y79232D02*
X345079D01*
X43996Y83268D02*
X344488D01*
X347059Y85839D01*
Y91606D01*
X36614Y81201D02*
X344820D01*
X352756Y89136D01*
Y95910D01*
X345436Y77362D02*
X363779Y95706D01*
X24114Y77362D02*
X345436D01*
X193996Y248031D02*
X225394D01*
X160335Y228445D02*
X172244D01*
X148425Y240354D02*
X160335Y228445D01*
X137352Y219744D02*
X143985Y226378D01*
X169105D01*
X170719Y224764D01*
X173769D01*
X224902Y240748D02*
X225197Y241043D01*
X193110Y234350D02*
X193209Y234449D01*
X225197D01*
X193898Y227854D02*
X225000D01*
X225295Y228150D01*
X192373Y224173D02*
X195422D01*
X197529Y226279D01*
X221959D01*
X223770Y224468D01*
X226820D01*
X196075Y222598D02*
X198181Y224705D01*
X221307D01*
X223118Y222894D01*
X227472D01*
X178347Y212992D02*
X187953Y222598D01*
X196075D01*
X175580Y226575D02*
X189971D01*
X192373Y224173D01*
X173769Y224764D02*
X175580Y226575D01*
X76378Y264075D02*
X146271D01*
X271161Y62106D02*
X272638Y63583D01*
X272342Y63878D02*
X272638Y63583D01*
X272342Y63878D02*
Y65354D01*
X342028Y106638D02*
X352756Y95910D01*
X342028Y106638D02*
Y116831D01*
X346803Y121606D01*
X347059D01*
X339075Y99591D02*
X347059Y91606D01*
X339075Y99591D02*
Y123622D01*
X347059Y131606D01*
X363779Y95706D02*
Y114764D01*
X357059Y121484D02*
X363779Y114764D01*
X357059Y121484D02*
Y121606D01*
X352756Y128150D02*
X356213Y131606D01*
X357059D01*
X352756Y103682D02*
X357059Y99379D01*
X352756Y103682D02*
Y128150D01*
X345079Y79232D02*
X357059Y91213D01*
Y99379D01*
X253248Y200492D02*
X256201Y203445D01*
X183957Y200492D02*
X253248D01*
X252165Y230129D02*
X257913Y235877D01*
X262205Y223031D02*
Y229232D01*
X259449Y229834D02*
X266083Y236467D01*
X257059Y280343D02*
Y281606D01*
X154381Y272185D02*
X228898D01*
X237598Y263484D01*
X186330Y245571D02*
X207196Y266437D01*
X232419D01*
X233917Y264938D01*
Y261960D02*
Y264938D01*
Y261960D02*
X236074Y259803D01*
X239123D01*
X227472Y222894D02*
X254587Y250008D01*
Y253001D01*
X226820Y224468D02*
X253012Y250660D01*
Y253653D01*
X257913Y235877D02*
Y241083D01*
X257874Y241122D02*
X257913Y241083D01*
X257874Y241122D02*
X258268Y241516D01*
X249410Y232579D02*
X254232Y237402D01*
X258268Y241516D02*
Y251476D01*
X256004Y231594D02*
X262513Y238103D01*
X266043Y256299D02*
X266194Y256149D01*
X262205Y229232D02*
X269980Y237008D01*
X264665Y226969D02*
X273622Y235925D01*
X278163Y255057D02*
Y258772D01*
X273661Y250836D02*
X274370D01*
X275739Y252205D01*
X278788D01*
X277264Y248524D02*
X277303Y248484D01*
X272539Y251958D02*
X273661Y250836D01*
X272539Y251958D02*
Y256201D01*
X269941Y249272D02*
X269980Y249311D01*
X262513Y238103D02*
Y247453D01*
X266083Y236467D02*
Y245817D01*
X266194Y245928D01*
Y256149D01*
X269980Y237008D02*
Y241841D01*
X269941Y241881D02*
X269980Y241841D01*
X266535Y197719D02*
X267473Y198657D01*
X268110Y197067D02*
X269048Y198004D01*
X269685Y196414D02*
X270623Y197352D01*
X249410Y223910D02*
Y232579D01*
X252165Y224213D02*
Y230129D01*
X256004Y223524D02*
Y231594D01*
X259449Y223130D02*
Y229834D01*
Y223130D02*
X268110Y214469D01*
X262205Y223031D02*
X269685Y215551D01*
X256201Y203445D02*
Y205315D01*
X264961Y198371D02*
X265898Y199309D01*
X264324Y199961D02*
Y203011D01*
X263386Y199024D02*
X264324Y199961D01*
X263386Y203949D02*
X264324Y203011D01*
X265898Y199309D02*
Y203663D01*
X264961Y204601D02*
X265898Y203663D01*
X267473Y198657D02*
Y204316D01*
X266535Y205254D02*
X267473Y204316D01*
X269048Y198004D02*
Y204968D01*
X268110Y205906D02*
X269048Y204968D01*
X270623Y197352D02*
Y205620D01*
X269685Y206558D02*
X270623Y205620D01*
X271260Y207210D02*
X272198Y206273D01*
X272835Y207863D02*
X273773Y206925D01*
X279049Y206005D02*
X281077Y208033D01*
X264665Y224016D02*
Y226969D01*
Y224016D02*
X271260Y217421D01*
X278031Y211614D02*
X279502Y210143D01*
X275368Y206009D02*
X279502Y210143D01*
X275368Y202717D02*
Y206009D01*
Y202717D02*
X279961Y198125D01*
X277756Y216565D02*
Y233046D01*
Y216565D02*
X284758Y209558D01*
X276018Y216070D02*
Y233535D01*
X281077Y208033D02*
Y211011D01*
X276018Y216070D02*
X281077Y211011D01*
X276959Y210542D02*
X278031Y211614D01*
X276293Y210542D02*
X276959D01*
X279049Y206005D02*
X279738Y205316D01*
Y203553D02*
Y205316D01*
X272835Y207863D02*
Y208794D01*
X272612Y209017D02*
X272835Y208794D01*
X272612Y209017D02*
Y212067D01*
X272835Y212289D01*
Y232579D01*
X271260Y207210D02*
Y208142D01*
X271037Y208365D02*
X271260Y208142D01*
X271037Y208365D02*
Y212719D01*
X271260Y212942D01*
Y217421D01*
X269685Y206558D02*
Y207490D01*
X269462Y207712D02*
X269685Y207490D01*
X269462Y207712D02*
Y213371D01*
X269685Y213594D01*
Y215551D01*
X268110Y205906D02*
Y206837D01*
X267887Y207060D02*
X268110Y206837D01*
X267887Y207060D02*
Y214023D01*
X268110Y214246D01*
Y214469D01*
X266535Y205254D02*
Y206185D01*
X266313Y206408D02*
X266535Y206185D01*
X266313Y206408D02*
Y213215D01*
X256004Y223524D02*
X266313Y213215D01*
X264961Y204601D02*
Y205533D01*
X264738Y205755D02*
X264961Y205533D01*
X264738Y205755D02*
Y211640D01*
X252165Y224213D02*
X264738Y211640D01*
X263386Y203949D02*
Y204880D01*
X263163Y205103D02*
X263386Y204880D01*
X263163Y205103D02*
Y210157D01*
X249410Y223910D02*
X263163Y210157D01*
X281535Y200145D02*
X283419Y202028D01*
Y203013D01*
X288439Y208033D01*
Y212742D01*
X287894Y213287D02*
X288439Y212742D01*
X283465Y213287D02*
X287894D01*
X279331Y217421D02*
X283465Y213287D01*
X279331Y217421D02*
Y232394D01*
X283661Y260335D02*
X283957Y260039D01*
X284095Y259902D01*
X269941Y241881D02*
Y249272D01*
X273622Y235925D02*
Y243406D01*
X278878Y244932D02*
X280945Y246999D01*
Y250048D01*
X280453Y244280D02*
X282520Y246347D01*
Y250701D01*
X282028Y243627D02*
X284095Y245694D01*
X278788Y252205D02*
X280945Y250048D01*
X278163Y255057D02*
X282520Y250701D01*
X285669Y252226D02*
X288326Y254883D01*
X282028Y236345D02*
Y243627D01*
X284095Y245694D02*
Y259902D01*
X283110Y199492D02*
X290014Y206396D01*
Y213394D01*
X287539Y215869D02*
X290014Y213394D01*
X283110Y215869D02*
X287539D01*
X280906Y218074D02*
X283110Y215869D01*
X280906Y218074D02*
Y231741D01*
X285669Y236505D01*
Y252226D01*
X287857Y217778D02*
X291589Y214047D01*
X283428Y217778D02*
X287857D01*
X283428D02*
Y232036D01*
X287244Y235853D01*
Y238622D01*
X287303Y238681D01*
Y249213D01*
X289292Y251202D01*
X289850D01*
X293406Y254757D01*
Y260335D01*
X279331Y232394D02*
X280453Y233516D01*
Y234770D01*
X282028Y236345D01*
X277756Y233046D02*
X278878Y234168D01*
Y235422D01*
X280453Y236997D01*
Y244280D01*
X277303Y234820D02*
Y236075D01*
X278878Y237649D01*
Y244932D01*
X275728Y235472D02*
Y236727D01*
X277303Y238302D01*
X276018Y233535D02*
X277303Y234820D01*
X272835Y232579D02*
X275728Y235472D01*
X277303Y238302D02*
Y248484D01*
X288509Y219353D02*
X293163Y214699D01*
X285531Y219353D02*
X288509D01*
X285003Y219882D02*
X285531Y219353D01*
X285003Y219882D02*
Y231384D01*
X288878Y235259D01*
Y245276D01*
X289173Y245571D01*
Y248031D01*
X295571Y254429D01*
X295952Y254048D01*
X297160D01*
X299127Y260446D02*
X299227D01*
X299127Y257287D02*
X300841Y255573D01*
Y252523D02*
Y255573D01*
X298685Y250367D02*
X300841Y252523D01*
X293969Y250367D02*
X298685D01*
X290748Y247146D02*
X293969Y250367D01*
X290748Y234902D02*
Y247146D01*
X287618Y231772D02*
X290748Y234902D01*
X287618Y222472D02*
Y231772D01*
Y222472D02*
X294738Y215351D01*
X299127Y257287D02*
Y260446D01*
X307059Y91606D02*
Y104949D01*
X317059Y91606D02*
Y105283D01*
X291198Y221119D02*
X296313Y216003D01*
X291198Y221119D02*
Y233125D01*
X292323Y234250D01*
Y245374D01*
X295741Y248792D01*
X299337D01*
X302416Y251871D01*
Y255073D01*
X304146Y256804D01*
X304542D01*
X308465Y261150D02*
X308677Y260938D01*
X308465Y261150D02*
Y261910D01*
X308224Y261668D02*
X308465Y261910D01*
X302149Y249204D02*
X308224Y255279D01*
X301977Y249204D02*
X302149D01*
X299990Y247217D02*
X301977Y249204D01*
X296393Y247217D02*
X299990D01*
X293898Y244722D02*
X296393Y247217D01*
X293898Y233598D02*
Y244722D01*
X292773Y232473D02*
X293898Y233598D01*
X292773Y221771D02*
Y232473D01*
Y221771D02*
X297888Y216656D01*
X327059Y91606D02*
Y104065D01*
X308224Y255279D02*
Y261668D01*
X337059Y91606D02*
Y106051D01*
X294347Y222424D02*
X299463Y217308D01*
X294347Y222424D02*
Y231820D01*
X295472Y232945D01*
Y244069D01*
X297045Y245642D01*
X300814D01*
X311089Y255918D01*
X311925D01*
X266535Y193715D02*
Y197719D01*
X264961Y193063D02*
Y198371D01*
X263386Y192411D02*
Y199024D01*
X269685Y195020D02*
Y196414D01*
X268110Y194368D02*
Y197067D01*
X272835Y158730D02*
X279075Y164971D01*
X272198Y196700D02*
Y206273D01*
X283110Y192730D02*
Y199492D01*
X281535Y192078D02*
Y200145D01*
X279961Y191426D02*
Y198125D01*
X279075Y164971D02*
Y190084D01*
X273773Y195387D02*
X279075Y190084D01*
X273773Y195387D02*
Y206925D01*
X277500Y165623D02*
Y189432D01*
X271260Y195672D02*
X277500Y189432D01*
X271260Y195672D02*
Y195762D01*
X272198Y196700D01*
X275925Y166275D02*
Y188780D01*
X269685Y195020D02*
X275925Y188780D01*
X274350Y166927D02*
Y188127D01*
X268110Y194368D02*
X274350Y188127D01*
X260151Y182489D02*
X260768Y181872D01*
X251142Y173769D02*
Y178395D01*
X253298Y180551D01*
X256348D01*
X257254Y181872D02*
X260768D01*
X247295Y191831D02*
X257254Y181872D01*
X187106Y191831D02*
X247295D01*
X256348Y180551D02*
X258159Y178740D01*
X248830Y171457D02*
X251142Y173769D01*
X193701Y163386D02*
X199508Y169193D01*
X248819D01*
X254823Y175197D01*
Y176870D01*
X185433Y122146D02*
Y171457D01*
Y122146D02*
X189764Y117815D01*
X195177Y122736D02*
X205962D01*
X249328Y166102D01*
X177059Y91606D02*
X249980Y164528D01*
X265945Y181667D02*
Y184646D01*
X207059Y91606D02*
Y113063D01*
X249328Y166102D02*
X251190D01*
X227059Y91606D02*
Y128437D01*
X260170Y168831D02*
X262402Y171063D01*
X253919Y168831D02*
X260170D01*
X217059Y91606D02*
Y120664D01*
X251190Y166102D02*
X253919Y168831D01*
X197059Y91606D02*
Y106100D01*
X185653Y90201D02*
Y97464D01*
X249980Y164528D02*
X251842D01*
X254571Y167257D01*
X185653Y97464D02*
X251142Y162953D01*
X252495D01*
X255224Y165682D01*
X197059Y106100D02*
X252337Y161378D01*
X253147D01*
X255876Y164107D01*
X207059Y113063D02*
X256528Y162532D01*
X217059Y120664D02*
X257352Y160957D01*
X227059Y128437D02*
X258005Y159383D01*
X237059Y91606D02*
Y134894D01*
X272182Y160305D02*
X277500Y165623D01*
X271530Y161880D02*
X275925Y166275D01*
X270878Y163455D02*
X274350Y166927D01*
X266681Y163455D02*
X270878D01*
X267333Y161880D02*
X271530D01*
X267985Y160305D02*
X272182D01*
X237059Y134894D02*
X259973Y157808D01*
X268637Y158730D02*
X272835D01*
X259973Y157808D02*
X267715D01*
X268637Y158730D01*
X258005Y159383D02*
X267063D01*
X267985Y160305D01*
X257352Y160957D02*
X266410D01*
X267333Y161880D01*
X256528Y162532D02*
X265758D01*
X266681Y163455D01*
X255876Y164107D02*
X265106D01*
X269232Y168234D01*
X255224Y165682D02*
X264453D01*
X267657Y168886D01*
X254571Y167257D02*
X263801D01*
X266083Y169538D01*
X319783Y111340D02*
X327059Y104065D01*
X317059Y105283D02*
X317717Y105941D01*
X307059Y104949D02*
X316119Y114008D01*
Y116212D02*
X317618Y117711D01*
X316119Y114008D02*
Y116212D01*
X317717Y115583D02*
X319193Y117059D01*
X317717Y105941D02*
Y115583D01*
X319783Y111340D02*
Y115422D01*
X277059Y91606D02*
X281146D01*
X285327Y95787D01*
X283100D02*
X284675Y97362D01*
X267059Y91606D02*
X271146D01*
X275327Y95787D01*
X283100D01*
X283110Y192730D02*
X311910Y163931D01*
Y118684D02*
Y163931D01*
X281535Y192078D02*
X309558Y164056D01*
X279961Y191426D02*
X307480Y163906D01*
X274675Y97362D02*
X282448D01*
X284023Y98937D01*
X273100Y95787D02*
X274675Y97362D01*
X247059Y91606D02*
X261146D01*
X265327Y95787D01*
X273100D01*
X284675Y97362D02*
X288405D01*
X309558Y118514D01*
Y164056D01*
X289058Y95787D02*
X311132Y117862D01*
Y117907D01*
X311910Y118684D01*
X312707Y117210D02*
Y117254D01*
X297059Y91606D02*
Y99335D01*
X314282Y116557D01*
Y116602D01*
X316043Y118363D01*
X312707Y117254D02*
X314469Y119016D01*
X287059Y91606D02*
X287104D01*
X312707Y117210D01*
X285327Y95787D02*
X289058D01*
X284023Y98937D02*
X287717D01*
X307480Y118701D01*
Y163906D01*
X241535Y117618D02*
X257087D01*
X245177Y111139D02*
X245288Y111029D01*
X245177Y111139D02*
Y111221D01*
X250000Y116043D01*
X305161Y293504D02*
X317059Y281606D01*
X62957Y293504D02*
X305161D01*
X51059Y281606D02*
X62957Y293504D01*
X61059Y281606D02*
X69413Y289961D01*
X298705D01*
X307059Y281606D01*
X250000Y116043D02*
X257739D01*
X257087Y117618D02*
X278839Y139370D01*
X289272D01*
X257739Y116043D02*
X277385Y135689D01*
X254587Y253001D02*
X266251Y264665D01*
X311713D01*
X239123Y259803D02*
X247135Y267815D01*
X315256D01*
X253012Y253653D02*
X265599Y266240D01*
X313287D01*
X257059Y280343D02*
X266142Y271260D01*
X318209D01*
X258980Y269685D02*
X317421D01*
X247059Y281606D02*
X258980Y269685D01*
X287059Y281606D02*
X295831Y272835D01*
X318861D01*
X297059Y281606D02*
X304256Y274409D01*
X319513D01*
X307059Y281606D02*
X312681Y275984D01*
X320166D01*
X317059Y281318D02*
Y281606D01*
X315256Y267815D02*
X329961Y253110D01*
X313287Y266240D02*
X328386Y251142D01*
X311713Y264665D02*
X324705Y251673D01*
X315650Y242618D02*
X324705Y251673D01*
X315650Y202435D02*
Y242618D01*
X328386Y214311D02*
Y251142D01*
X329961Y209313D02*
Y253110D01*
X322047Y207972D02*
X328386Y214311D01*
X317421Y269685D02*
X331634Y255472D01*
X318209Y271260D02*
X333209Y256260D01*
X318861Y272835D02*
X334784Y256912D01*
X319513Y274409D02*
X336358Y257564D01*
X327953Y207305D02*
X329961Y209313D01*
X331634Y205354D02*
Y255472D01*
X327756Y201476D02*
X331634Y205354D01*
X333209Y201713D02*
Y256260D01*
X291589Y205744D02*
Y214047D01*
X293163Y206396D02*
Y214699D01*
X294738Y207048D02*
Y215351D01*
X296313Y207701D02*
Y216003D01*
X297888Y208353D02*
Y216656D01*
X299463Y209005D02*
Y217308D01*
X291589Y205744D02*
X314469Y182864D01*
X293163Y206396D02*
X316043Y183516D01*
X294738Y207048D02*
X317618Y184169D01*
X296313Y207701D02*
X319193Y184821D01*
X326575Y195079D02*
X333209Y201713D01*
D46*
X117224Y166142D02*
Y171161D01*
X127082Y160276D02*
X151530Y135827D01*
X117224Y166142D02*
X123091Y160276D01*
X127082D01*
X151530Y135827D02*
X161221D01*
Y201969D01*
X131004Y212894D02*
X150295D01*
X161221Y201969D01*
X139075Y71949D02*
X217913D01*
X96752Y71752D02*
X136319D01*
X161221Y201969D02*
X176718D01*
X182269Y196417D01*
X113583Y174803D02*
X117224Y171161D01*
X106161Y174803D02*
X113583D01*
X106063Y174705D02*
X106161Y174803D01*
X182269Y196417D02*
X256929D01*
X260643Y200131D01*
Y201486D01*
D48*
X28642Y206496D02*
D03*
Y201575D02*
D03*
Y196653D02*
D03*
Y191732D02*
D03*
X186122Y36220D02*
D03*
Y31299D02*
D03*
Y26378D02*
D03*
Y21457D02*
D03*
X150886Y336024D02*
D03*
X155807D02*
D03*
X160728D02*
D03*
X165649D02*
D03*
X254507D02*
D03*
X259428D02*
D03*
X264349D02*
D03*
X269270D02*
D03*
X32185Y302756D02*
D03*
X27264D02*
D03*
X22343D02*
D03*
X17421D02*
D03*
D49*
X106063Y154705D02*
D03*
Y164705D02*
D03*
Y174705D02*
D03*
X96063Y154705D02*
D03*
Y164705D02*
D03*
Y174705D02*
D03*
D50*
X16535Y16535D02*
D03*
X361417D02*
D03*
X16535Y337795D02*
D03*
X361417D02*
D03*
D51*
X227059Y281606D02*
D03*
X217059D02*
D03*
X207059D02*
D03*
X197059D02*
D03*
X187059D02*
D03*
X177059D02*
D03*
X167059D02*
D03*
X157059D02*
D03*
X247059D02*
D03*
X257059D02*
D03*
X267059D02*
D03*
X277059D02*
D03*
X287059D02*
D03*
X297059D02*
D03*
X307059D02*
D03*
X317059D02*
D03*
X357059Y111606D02*
D03*
X347059D02*
D03*
X357059Y121606D02*
D03*
X347059D02*
D03*
X357059Y131606D02*
D03*
X347059D02*
D03*
X357059Y141606D02*
D03*
X347059D02*
D03*
X357059Y151606D02*
D03*
X347059D02*
D03*
X357059Y161606D02*
D03*
X347059D02*
D03*
X357059Y171606D02*
D03*
X347059D02*
D03*
X357059Y181606D02*
D03*
X347059D02*
D03*
X357059Y191606D02*
D03*
X347059D02*
D03*
X357059Y201606D02*
D03*
X347059D02*
D03*
X357059Y211606D02*
D03*
X347059D02*
D03*
X357059Y221606D02*
D03*
X347059D02*
D03*
X357059Y231606D02*
D03*
X347059D02*
D03*
X357059Y241606D02*
D03*
X347059D02*
D03*
X357059Y251606D02*
D03*
X347059D02*
D03*
X357059Y261606D02*
D03*
X347059D02*
D03*
X357059Y271606D02*
D03*
X347059D02*
D03*
X357059Y281606D02*
D03*
X347059D02*
D03*
X267059Y91606D02*
D03*
X277059D02*
D03*
X287059D02*
D03*
X297059D02*
D03*
X307059D02*
D03*
X317059D02*
D03*
X327059D02*
D03*
X337059D02*
D03*
X157059D02*
D03*
X147059D02*
D03*
X137059D02*
D03*
X127059D02*
D03*
X117059D02*
D03*
X107059D02*
D03*
X97059D02*
D03*
X87059D02*
D03*
X177059D02*
D03*
X187059D02*
D03*
X197059D02*
D03*
X207059D02*
D03*
X217059D02*
D03*
X227059D02*
D03*
X237059D02*
D03*
X247059D02*
D03*
X141059Y281606D02*
D03*
X131059D02*
D03*
X121059D02*
D03*
X111059D02*
D03*
X101059D02*
D03*
X91059D02*
D03*
X81059D02*
D03*
X71059D02*
D03*
X61059D02*
D03*
X51059D02*
D03*
X142224Y131595D02*
D03*
X132382D02*
D03*
D52*
X182579Y60532D02*
D03*
X72835Y92913D02*
D03*
X123524Y322638D02*
D03*
X43504Y253346D02*
D03*
X326575Y151083D02*
D03*
X326476Y143307D02*
D03*
X326575Y136811D02*
D03*
X326575Y129921D02*
D03*
X296063Y194783D02*
D03*
X251378Y62106D02*
D03*
X97441Y60532D02*
D03*
X43406D02*
D03*
X303051Y303937D02*
D03*
X338681Y299606D02*
D03*
X285728Y308268D02*
D03*
X228740Y299606D02*
D03*
X46063Y338976D02*
D03*
X179921Y308169D02*
D03*
X202264Y303642D02*
D03*
X58464Y310531D02*
D03*
X79429Y303543D02*
D03*
X18799Y91606D02*
D03*
X26280D02*
D03*
X33760D02*
D03*
X41240D02*
D03*
X106890Y124114D02*
D03*
X166535Y102461D02*
D03*
X58760Y211811D02*
D03*
X66535Y217520D02*
D03*
X92224Y221752D02*
D03*
X161221Y135827D02*
D03*
X60630Y188484D02*
D03*
X86614Y217618D02*
D03*
X102657Y201378D02*
D03*
X65354Y162598D02*
D03*
X120472Y147146D02*
D03*
X101279Y138265D02*
D03*
X125394Y156201D02*
D03*
X98327Y192421D02*
D03*
X92323D02*
D03*
X133366Y197647D02*
D03*
X85236Y184350D02*
D03*
X86319Y192421D02*
D03*
X151870Y149705D02*
D03*
X72244Y184350D02*
D03*
X102663Y185836D02*
D03*
X127362Y185925D02*
D03*
X133366Y189869D02*
D03*
X135827Y223425D02*
D03*
X131496Y206890D02*
D03*
X133366Y174311D02*
D03*
Y182090D02*
D03*
X131496Y212894D02*
D03*
X217913Y71480D02*
D03*
X137795D02*
D03*
X112205Y219685D02*
D03*
X123228Y214873D02*
D03*
X47835Y229331D02*
D03*
X182185Y315748D02*
D03*
X126083Y52658D02*
D03*
X135728Y26280D02*
D03*
X226476Y49311D02*
D03*
X306890Y15059D02*
D03*
X98032Y71480D02*
D03*
X193996Y248031D02*
D03*
X158957Y216575D02*
D03*
X193701Y163386D02*
D03*
X156496Y245571D02*
D03*
X185433Y171457D02*
D03*
X178347Y212992D02*
D03*
X183957Y200492D02*
D03*
X187106Y191831D02*
D03*
X237598Y263484D02*
D03*
X76378Y264075D02*
D03*
X225394Y248031D02*
D03*
X172244Y228445D02*
D03*
X225197Y241043D02*
D03*
X197933Y240650D02*
D03*
X193110Y234350D02*
D03*
X225197Y234449D02*
D03*
X193898Y227854D02*
D03*
X225295Y228150D02*
D03*
X155905Y268504D02*
D03*
X272342Y65354D02*
D03*
X155512Y170965D02*
D03*
X155315Y192028D02*
D03*
X316339Y319587D02*
D03*
X251279Y259449D02*
D03*
X283957Y260039D02*
D03*
X288326Y254883D02*
D03*
X293406Y260335D02*
D03*
X258268Y251476D02*
D03*
X254232Y237402D02*
D03*
X266043Y256299D02*
D03*
X272539Y256201D02*
D03*
X278163Y258772D02*
D03*
X277264Y248524D02*
D03*
X269980Y249311D02*
D03*
X262513Y247453D02*
D03*
X256201Y205315D02*
D03*
X260643Y201486D02*
D03*
X284758Y209558D02*
D03*
X276293Y210542D02*
D03*
X279738Y203553D02*
D03*
X273622Y243406D02*
D03*
X297160Y254048D02*
D03*
X299227Y260446D02*
D03*
X304542Y256804D02*
D03*
X308677Y260938D02*
D03*
X311925Y255918D02*
D03*
X265945Y184646D02*
D03*
X260151Y182489D02*
D03*
X254823Y176870D02*
D03*
X262402Y171063D02*
D03*
X195177Y122736D02*
D03*
X189764Y117815D02*
D03*
X241535Y117618D02*
D03*
X245288Y111029D02*
D03*
X293602Y143602D02*
D03*
X289272Y139370D02*
D03*
X315650Y202435D02*
D03*
X322047Y207972D02*
D03*
X327953Y207776D02*
D03*
X327756Y201476D02*
D03*
X326476Y195079D02*
D03*
M02*
