%FSAX25Y25*%
%MOIN*%
G70*
G01*
G75*
G04 Layer_Color=2752767*
%ADD10R,0.05118X0.03937*%
G04:AMPARAMS|DCode=11|XSize=23.62mil|YSize=35.43mil|CornerRadius=5.91mil|HoleSize=0mil|Usage=FLASHONLY|Rotation=270.000|XOffset=0mil|YOffset=0mil|HoleType=Round|Shape=RoundedRectangle|*
%AMROUNDEDRECTD11*
21,1,0.02362,0.02362,0,0,270.0*
21,1,0.01181,0.03543,0,0,270.0*
1,1,0.01181,-0.01181,-0.00591*
1,1,0.01181,-0.01181,0.00591*
1,1,0.01181,0.01181,0.00591*
1,1,0.01181,0.01181,-0.00591*
%
%ADD11ROUNDEDRECTD11*%
%ADD12R,0.09055X0.09055*%
%ADD13R,0.00984X0.02756*%
%ADD14R,0.17087X0.09606*%
G04:AMPARAMS|DCode=15|XSize=23.62mil|YSize=35.43mil|CornerRadius=5.91mil|HoleSize=0mil|Usage=FLASHONLY|Rotation=0.000|XOffset=0mil|YOffset=0mil|HoleType=Round|Shape=RoundedRectangle|*
%AMROUNDEDRECTD15*
21,1,0.02362,0.02362,0,0,0.0*
21,1,0.01181,0.03543,0,0,0.0*
1,1,0.01181,0.00591,-0.01181*
1,1,0.01181,-0.00591,-0.01181*
1,1,0.01181,-0.00591,0.01181*
1,1,0.01181,0.00591,0.01181*
%
%ADD15ROUNDEDRECTD15*%
%ADD16O,0.02165X0.05709*%
%ADD17O,0.02165X0.05709*%
%ADD18O,0.01181X0.03500*%
%ADD19R,0.11201X0.06500*%
%ADD20R,0.04331X0.06693*%
%ADD21R,0.06693X0.04331*%
%ADD22O,0.01378X0.05315*%
%ADD23R,0.12205X0.11811*%
G04:AMPARAMS|DCode=24|XSize=31.5mil|YSize=86.61mil|CornerRadius=7.87mil|HoleSize=0mil|Usage=FLASHONLY|Rotation=180.000|XOffset=0mil|YOffset=0mil|HoleType=Round|Shape=RoundedRectangle|*
%AMROUNDEDRECTD24*
21,1,0.03150,0.07087,0,0,180.0*
21,1,0.01575,0.08661,0,0,180.0*
1,1,0.01575,-0.00787,0.03543*
1,1,0.01575,0.00787,0.03543*
1,1,0.01575,0.00787,-0.03543*
1,1,0.01575,-0.00787,-0.03543*
%
%ADD24ROUNDEDRECTD24*%
%ADD25R,0.08661X0.24803*%
%ADD26R,0.03543X0.03150*%
%ADD27C,0.01181*%
%ADD28C,0.01260*%
%ADD29C,0.02756*%
%ADD30C,0.01024*%
%ADD31C,0.03150*%
%ADD32C,0.01969*%
%ADD33C,0.03937*%
%ADD34C,0.01102*%
%ADD35C,0.00984*%
%ADD36C,0.00906*%
%ADD37C,0.02362*%
%ADD38C,0.01000*%
%ADD39C,0.01575*%
%ADD40C,0.00866*%
%ADD41C,0.03543*%
%ADD42C,0.01299*%
%ADD43C,0.01063*%
%ADD44C,0.06000*%
%ADD45R,0.05906X0.05906*%
%ADD46C,0.05906*%
%ADD47C,0.23622*%
%ADD48C,0.38976*%
%ADD49C,0.01969*%
%ADD50C,0.01575*%
%ADD51C,0.00394*%
%ADD52C,0.00787*%
%ADD53C,0.00600*%
%ADD54C,0.00669*%
%ADD55R,0.05918X0.04737*%
G04:AMPARAMS|DCode=56|XSize=31.62mil|YSize=43.43mil|CornerRadius=9.91mil|HoleSize=0mil|Usage=FLASHONLY|Rotation=270.000|XOffset=0mil|YOffset=0mil|HoleType=Round|Shape=RoundedRectangle|*
%AMROUNDEDRECTD56*
21,1,0.03162,0.02362,0,0,270.0*
21,1,0.01181,0.04343,0,0,270.0*
1,1,0.01981,-0.01181,-0.00591*
1,1,0.01981,-0.01181,0.00591*
1,1,0.01981,0.01181,0.00591*
1,1,0.01981,0.01181,-0.00591*
%
%ADD56ROUNDEDRECTD56*%
%ADD57R,0.09855X0.09855*%
%ADD58R,0.01784X0.03556*%
%ADD59R,0.17887X0.10406*%
G04:AMPARAMS|DCode=60|XSize=31.62mil|YSize=43.43mil|CornerRadius=9.91mil|HoleSize=0mil|Usage=FLASHONLY|Rotation=0.000|XOffset=0mil|YOffset=0mil|HoleType=Round|Shape=RoundedRectangle|*
%AMROUNDEDRECTD60*
21,1,0.03162,0.02362,0,0,0.0*
21,1,0.01181,0.04343,0,0,0.0*
1,1,0.01981,0.00591,-0.01181*
1,1,0.01981,-0.00591,-0.01181*
1,1,0.01981,-0.00591,0.01181*
1,1,0.01981,0.00591,0.01181*
%
%ADD60ROUNDEDRECTD60*%
%ADD61O,0.02965X0.06509*%
%ADD62O,0.02965X0.06509*%
%ADD63O,0.01981X0.04300*%
%ADD64R,0.12001X0.07300*%
%ADD65R,0.05131X0.07493*%
%ADD66R,0.07493X0.05131*%
%ADD67O,0.02178X0.06115*%
%ADD68R,0.13005X0.12611*%
G04:AMPARAMS|DCode=69|XSize=39.5mil|YSize=94.61mil|CornerRadius=11.87mil|HoleSize=0mil|Usage=FLASHONLY|Rotation=180.000|XOffset=0mil|YOffset=0mil|HoleType=Round|Shape=RoundedRectangle|*
%AMROUNDEDRECTD69*
21,1,0.03950,0.07087,0,0,180.0*
21,1,0.01575,0.09461,0,0,180.0*
1,1,0.02375,-0.00787,0.03543*
1,1,0.02375,0.00787,0.03543*
1,1,0.02375,0.00787,-0.03543*
1,1,0.02375,-0.00787,-0.03543*
%
%ADD69ROUNDEDRECTD69*%
%ADD70R,0.09461X0.25603*%
%ADD71R,0.04343X0.03950*%
%ADD72C,0.06800*%
%ADD73R,0.06706X0.06706*%
%ADD74C,0.06706*%
%ADD75C,0.24422*%
%ADD76C,0.39776*%
%ADD77C,0.02769*%
%ADD78C,0.02375*%
%ADD79C,0.05512*%
%ADD80C,0.00197*%
%ADD81C,0.00500*%
%ADD82C,0.00667*%
D81*
X0132500Y0205000D02*
Y0209000D01*
X0136500D01*
Y0205000D01*
X0132500D01*
X0150400Y0361600D02*
Y0365600D01*
X0154400D01*
Y0361600D01*
X0150400D01*
X0185400Y0376100D02*
Y0380100D01*
X0189400D01*
Y0376100D01*
X0185400D01*
X0254400Y0358100D02*
Y0362100D01*
X0258400D01*
Y0358100D01*
X0254400D01*
X0288400Y0374600D02*
Y0378600D01*
X0292400D01*
Y0374600D01*
X0288400D01*
X0365400Y0354600D02*
Y0358600D01*
X0369400D01*
Y0354600D01*
X0365400D01*
X0399900Y0376100D02*
Y0380100D01*
X0403900D01*
Y0376100D01*
X0399900D01*
X0112205Y0486189D02*
X0110205Y0490189D01*
X0114205D01*
X0112205Y0486189D01*
X0437008D02*
X0438008Y0487189D01*
X0439008D01*
X0438008Y0488189D01*
X0439008Y0489189D01*
X0438008D01*
X0437008Y0490189D01*
X0436008Y0489189D01*
X0435008D01*
X0436008Y0488189D01*
X0435008Y0487189D01*
X0436008D01*
X0437008Y0486189D01*
X0112205Y0123984D02*
X0113205Y0124984D01*
X0114205D01*
X0113205Y0125984D01*
X0114205Y0126984D01*
X0113205D01*
X0112205Y0127984D01*
X0111205Y0126984D01*
X0110205D01*
X0111205Y0125984D01*
X0110205Y0124984D01*
X0111205D01*
X0112205Y0123984D01*
X0437008D02*
X0438008Y0124984D01*
X0439008D01*
X0438008Y0125984D01*
X0439008Y0126984D01*
X0438008D01*
X0437008Y0127984D01*
X0436008Y0126984D01*
X0435008D01*
X0436008Y0125984D01*
X0435008Y0124984D01*
X0436008D01*
X0437008Y0123984D01*
X0164000Y0273500D02*
Y0277500D01*
X0168000D01*
Y0273500D01*
X0164000D01*
X0151400Y0385100D02*
Y0389100D01*
X0155400D01*
Y0385100D01*
X0151400D01*
X0255400Y0386600D02*
Y0390600D01*
X0259400D01*
Y0386600D01*
X0255400D01*
X0370900Y0387100D02*
Y0391100D01*
X0374900D01*
Y0387100D01*
X0370900D01*
X0138000Y0461800D02*
X0139000Y0463800D01*
X0138000Y0465800D01*
X0140000Y0464800D01*
X0142000Y0465800D01*
X0141000Y0463800D01*
X0142000Y0461800D01*
X0140000Y0462800D01*
X0138000Y0461800D01*
X0185600Y0461200D02*
X0186600Y0463200D01*
X0185600Y0465200D01*
X0187600Y0464200D01*
X0189600Y0465200D01*
X0188600Y0463200D01*
X0189600Y0461200D01*
X0187600Y0462200D01*
X0185600Y0461200D01*
X0235500Y0463000D02*
X0236500Y0465000D01*
X0235500Y0467000D01*
X0237500Y0466000D01*
X0239500Y0467000D01*
X0238500Y0465000D01*
X0239500Y0463000D01*
X0237500Y0464000D01*
X0235500Y0463000D01*
X0284600Y0471700D02*
X0285600Y0473700D01*
X0284600Y0475700D01*
X0286600Y0474700D01*
X0288600Y0475700D01*
X0287600Y0473700D01*
X0288600Y0471700D01*
X0286600Y0472700D01*
X0284600Y0471700D01*
X0340500Y0463000D02*
X0341500Y0465000D01*
X0340500Y0467000D01*
X0342500Y0466000D01*
X0344500Y0467000D01*
X0343500Y0465000D01*
X0344500Y0463000D01*
X0342500Y0464000D01*
X0340500Y0463000D01*
X0390500D02*
X0391500Y0465000D01*
X0390500Y0467000D01*
X0392500Y0466000D01*
X0394500Y0467000D01*
X0393500Y0465000D01*
X0394500Y0463000D01*
X0392500Y0464000D01*
X0390500Y0463000D01*
X0415000Y0204000D02*
X0416000Y0206000D01*
X0415000Y0208000D01*
X0417000Y0207000D01*
X0419000Y0208000D01*
X0418000Y0206000D01*
X0419000Y0204000D01*
X0417000Y0205000D01*
X0415000Y0204000D01*
X0368000Y0148000D02*
X0369000Y0150000D01*
X0368000Y0152000D01*
X0370000Y0151000D01*
X0372000Y0152000D01*
X0371000Y0150000D01*
X0372000Y0148000D01*
X0370000Y0149000D01*
X0368000Y0148000D01*
X0225500D02*
X0226500Y0150000D01*
X0225500Y0152000D01*
X0227500Y0151000D01*
X0229500Y0152000D01*
X0228500Y0150000D01*
X0229500Y0148000D01*
X0227500Y0149000D01*
X0225500Y0148000D01*
X0166000Y0142800D02*
X0167000Y0144800D01*
X0166000Y0146800D01*
X0168000Y0145800D01*
X0170000Y0146800D01*
X0169000Y0144800D01*
X0170000Y0142800D01*
X0168000Y0143800D01*
X0166000Y0142800D01*
X0135500Y0315500D02*
X0136500Y0317500D01*
X0135500Y0319500D01*
X0137500Y0318500D01*
X0139500Y0319500D01*
X0138500Y0317500D01*
X0139500Y0315500D01*
X0137500Y0316500D01*
X0135500Y0315500D01*
X0285500Y0148000D02*
X0286500Y0150000D01*
X0285500Y0152000D01*
X0287500Y0151000D01*
X0289500Y0152000D01*
X0288500Y0150000D01*
X0289500Y0148000D01*
X0287500Y0149000D01*
X0285500Y0148000D01*
X0190094Y0253032D02*
Y0252032D01*
X0192094D01*
Y0253032D01*
X0193094D01*
Y0255032D01*
X0192094D01*
Y0256032D01*
X0190094D01*
Y0255032D01*
X0189094D01*
Y0253032D01*
X0190094D01*
Y0256969D02*
Y0255969D01*
X0192094D01*
Y0256969D01*
X0193094D01*
Y0258969D01*
X0192094D01*
Y0259969D01*
X0190094D01*
Y0258969D01*
X0189094D01*
Y0256969D01*
X0190094D01*
X0194032Y0253032D02*
Y0252032D01*
X0196032D01*
Y0253032D01*
X0197032D01*
Y0255032D01*
X0196032D01*
Y0256032D01*
X0194032D01*
Y0255032D01*
X0193032D01*
Y0253032D01*
X0194032D01*
Y0256969D02*
Y0255969D01*
X0196032D01*
Y0256969D01*
X0197032D01*
Y0258969D01*
X0196032D01*
Y0259969D01*
X0194032D01*
Y0258969D01*
X0193032D01*
Y0256969D01*
X0194032D01*
X0197969Y0253032D02*
Y0252032D01*
X0199969D01*
Y0253032D01*
X0200969D01*
Y0255032D01*
X0199969D01*
Y0256032D01*
X0197969D01*
Y0255032D01*
X0196969D01*
Y0253032D01*
X0197969D01*
Y0256969D02*
Y0255969D01*
X0199969D01*
Y0256969D01*
X0200969D01*
Y0258969D01*
X0199969D01*
Y0259969D01*
X0197969D01*
Y0258969D01*
X0196969D01*
Y0256969D01*
X0197969D01*
X0201906Y0253032D02*
Y0252032D01*
X0203906D01*
Y0253032D01*
X0204906D01*
Y0255032D01*
X0203906D01*
Y0256032D01*
X0201906D01*
Y0255032D01*
X0200906D01*
Y0253032D01*
X0201906D01*
Y0256969D02*
Y0255969D01*
X0203906D01*
Y0256969D01*
X0204906D01*
Y0258969D01*
X0203906D01*
Y0259969D01*
X0201906D01*
Y0258969D01*
X0200906D01*
Y0256969D01*
X0201906D01*
X0323937Y0242126D02*
Y0241126D01*
X0325937D01*
Y0242126D01*
X0326937D01*
Y0244126D01*
X0325937D01*
Y0245126D01*
X0323937D01*
Y0244126D01*
X0322937D01*
Y0242126D01*
X0323937D01*
X0316063D02*
Y0241126D01*
X0318063D01*
Y0242126D01*
X0319063D01*
Y0244126D01*
X0318063D01*
Y0245126D01*
X0316063D01*
Y0244126D01*
X0315063D01*
Y0242126D01*
X0316063D01*
X0320000D02*
Y0241126D01*
X0322000D01*
Y0242126D01*
X0323000D01*
Y0244126D01*
X0322000D01*
Y0245126D01*
X0320000D01*
Y0244126D01*
X0319000D01*
Y0242126D01*
X0320000D01*
X0323937Y0250000D02*
Y0249000D01*
X0325937D01*
Y0250000D01*
X0326937D01*
Y0252000D01*
X0325937D01*
Y0253000D01*
X0323937D01*
Y0252000D01*
X0322937D01*
Y0250000D01*
X0323937D01*
Y0246063D02*
Y0245063D01*
X0325937D01*
Y0246063D01*
X0326937D01*
Y0248063D01*
X0325937D01*
Y0249063D01*
X0323937D01*
Y0248063D01*
X0322937D01*
Y0246063D01*
X0323937D01*
X0316063D02*
Y0245063D01*
X0318063D01*
Y0246063D01*
X0319063D01*
Y0248063D01*
X0318063D01*
Y0249063D01*
X0316063D01*
Y0248063D01*
X0315063D01*
Y0246063D01*
X0316063D01*
Y0250000D02*
Y0249000D01*
X0318063D01*
Y0250000D01*
X0319063D01*
Y0252000D01*
X0318063D01*
Y0253000D01*
X0316063D01*
Y0252000D01*
X0315063D01*
Y0250000D01*
X0316063D01*
X0320000Y0246063D02*
Y0245063D01*
X0322000D01*
Y0246063D01*
X0323000D01*
Y0248063D01*
X0322000D01*
Y0249063D01*
X0320000D01*
Y0248063D01*
X0319000D01*
Y0246063D01*
X0320000D01*
Y0250000D02*
Y0249000D01*
X0322000D01*
Y0250000D01*
X0323000D01*
Y0252000D01*
X0322000D01*
Y0253000D01*
X0320000D01*
Y0252000D01*
X0319000D01*
Y0250000D01*
X0320000D01*
D82*
X0350500Y0265000D02*
G03*
X0350500Y0265000I-0002000J0000000D01*
G01*
Y0255000D02*
G03*
X0350500Y0255000I-0002000J0000000D01*
G01*
X0155000Y0208000D02*
G03*
X0155000Y0208000I-0002000J0000000D01*
G01*
Y0218000D02*
G03*
X0155000Y0218000I-0002000J0000000D01*
G01*
X0355400Y0383600D02*
G03*
X0355400Y0383600I-0002000J0000000D01*
G01*
Y0393600D02*
G03*
X0355400Y0393600I-0002000J0000000D01*
G01*
X0243932Y0384100D02*
G03*
X0243932Y0384100I-0002000J0000000D01*
G01*
Y0394100D02*
G03*
X0243932Y0394100I-0002000J0000000D01*
G01*
X0136900Y0385100D02*
G03*
X0136900Y0385100I-0002000J0000000D01*
G01*
Y0395100D02*
G03*
X0136900Y0395100I-0002000J0000000D01*
G01*
X0136969Y0227000D02*
G03*
X0136969Y0227000I-0002000J0000000D01*
G01*
Y0237000D02*
G03*
X0136969Y0237000I-0002000J0000000D01*
G01*
M02*
