%FSAX25Y25*%
%MOIN*%
G70*
G01*
G75*
%ADD10R,0.05118X0.03937*%
G04:AMPARAMS|DCode=11|XSize=23.62mil|YSize=35.43mil|CornerRadius=5.91mil|HoleSize=0mil|Usage=FLASHONLY|Rotation=270.000|XOffset=0mil|YOffset=0mil|HoleType=Round|Shape=RoundedRectangle|*
%AMROUNDEDRECTD11*
21,1,0.02362,0.02362,0,0,270.0*
21,1,0.01181,0.03543,0,0,270.0*
1,1,0.01181,-0.01181,-0.00591*
1,1,0.01181,-0.01181,0.00591*
1,1,0.01181,0.01181,0.00591*
1,1,0.01181,0.01181,-0.00591*
%
%ADD11ROUNDEDRECTD11*%
%ADD12R,0.09055X0.09055*%
%ADD13R,0.00984X0.02756*%
%ADD14R,0.17087X0.09606*%
G04:AMPARAMS|DCode=15|XSize=23.62mil|YSize=35.43mil|CornerRadius=5.91mil|HoleSize=0mil|Usage=FLASHONLY|Rotation=0.000|XOffset=0mil|YOffset=0mil|HoleType=Round|Shape=RoundedRectangle|*
%AMROUNDEDRECTD15*
21,1,0.02362,0.02362,0,0,0.0*
21,1,0.01181,0.03543,0,0,0.0*
1,1,0.01181,0.00591,-0.01181*
1,1,0.01181,-0.00591,-0.01181*
1,1,0.01181,-0.00591,0.01181*
1,1,0.01181,0.00591,0.01181*
%
%ADD15ROUNDEDRECTD15*%
%ADD16O,0.02165X0.05709*%
%ADD17O,0.02165X0.05709*%
%ADD18O,0.01181X0.03500*%
%ADD19R,0.11201X0.06500*%
%ADD20R,0.04331X0.06693*%
%ADD21R,0.06693X0.04331*%
%ADD22O,0.01378X0.05315*%
%ADD23R,0.12205X0.11811*%
G04:AMPARAMS|DCode=24|XSize=31.5mil|YSize=86.61mil|CornerRadius=7.87mil|HoleSize=0mil|Usage=FLASHONLY|Rotation=180.000|XOffset=0mil|YOffset=0mil|HoleType=Round|Shape=RoundedRectangle|*
%AMROUNDEDRECTD24*
21,1,0.03150,0.07087,0,0,180.0*
21,1,0.01575,0.08661,0,0,180.0*
1,1,0.01575,-0.00787,0.03543*
1,1,0.01575,0.00787,0.03543*
1,1,0.01575,0.00787,-0.03543*
1,1,0.01575,-0.00787,-0.03543*
%
%ADD24ROUNDEDRECTD24*%
%ADD25R,0.08661X0.24803*%
%ADD26R,0.03543X0.03150*%
%ADD27C,0.01181*%
%ADD28C,0.01260*%
%ADD29C,0.02756*%
%ADD30C,0.01024*%
%ADD31C,0.03150*%
%ADD32C,0.01969*%
%ADD33C,0.03937*%
%ADD34C,0.01102*%
%ADD35C,0.00984*%
%ADD36C,0.00906*%
%ADD37C,0.02362*%
%ADD38C,0.01000*%
%ADD39C,0.01575*%
%ADD40C,0.00866*%
%ADD41C,0.03543*%
%ADD42C,0.01299*%
%ADD43C,0.01063*%
%ADD44C,0.06000*%
%ADD45R,0.05906X0.05906*%
%ADD46C,0.05906*%
%ADD47C,0.23622*%
%ADD48C,0.38976*%
%ADD49C,0.01969*%
%ADD50C,0.01575*%
%ADD51C,0.00394*%
%ADD52C,0.00787*%
%ADD53C,0.00600*%
%ADD54C,0.00669*%
%ADD55R,0.05918X0.04737*%
G04:AMPARAMS|DCode=56|XSize=31.62mil|YSize=43.43mil|CornerRadius=9.91mil|HoleSize=0mil|Usage=FLASHONLY|Rotation=270.000|XOffset=0mil|YOffset=0mil|HoleType=Round|Shape=RoundedRectangle|*
%AMROUNDEDRECTD56*
21,1,0.03162,0.02362,0,0,270.0*
21,1,0.01181,0.04343,0,0,270.0*
1,1,0.01981,-0.01181,-0.00591*
1,1,0.01981,-0.01181,0.00591*
1,1,0.01981,0.01181,0.00591*
1,1,0.01981,0.01181,-0.00591*
%
%ADD56ROUNDEDRECTD56*%
%ADD57R,0.09855X0.09855*%
%ADD58R,0.01784X0.03556*%
%ADD59R,0.17887X0.10406*%
G04:AMPARAMS|DCode=60|XSize=31.62mil|YSize=43.43mil|CornerRadius=9.91mil|HoleSize=0mil|Usage=FLASHONLY|Rotation=0.000|XOffset=0mil|YOffset=0mil|HoleType=Round|Shape=RoundedRectangle|*
%AMROUNDEDRECTD60*
21,1,0.03162,0.02362,0,0,0.0*
21,1,0.01181,0.04343,0,0,0.0*
1,1,0.01981,0.00591,-0.01181*
1,1,0.01981,-0.00591,-0.01181*
1,1,0.01981,-0.00591,0.01181*
1,1,0.01981,0.00591,0.01181*
%
%ADD60ROUNDEDRECTD60*%
%ADD61O,0.02965X0.06509*%
%ADD62O,0.02965X0.06509*%
%ADD63O,0.01981X0.04300*%
%ADD64R,0.12001X0.07300*%
%ADD65R,0.05131X0.07493*%
%ADD66R,0.07493X0.05131*%
%ADD67O,0.02178X0.06115*%
%ADD68R,0.13005X0.12611*%
G04:AMPARAMS|DCode=69|XSize=39.5mil|YSize=94.61mil|CornerRadius=11.87mil|HoleSize=0mil|Usage=FLASHONLY|Rotation=180.000|XOffset=0mil|YOffset=0mil|HoleType=Round|Shape=RoundedRectangle|*
%AMROUNDEDRECTD69*
21,1,0.03950,0.07087,0,0,180.0*
21,1,0.01575,0.09461,0,0,180.0*
1,1,0.02375,-0.00787,0.03543*
1,1,0.02375,0.00787,0.03543*
1,1,0.02375,0.00787,-0.03543*
1,1,0.02375,-0.00787,-0.03543*
%
%ADD69ROUNDEDRECTD69*%
%ADD70R,0.09461X0.25603*%
%ADD71R,0.04343X0.03950*%
%ADD72C,0.06800*%
%ADD73R,0.06706X0.06706*%
%ADD74C,0.06706*%
%ADD75C,0.24422*%
%ADD76C,0.39776*%
%ADD77C,0.02769*%
%ADD78C,0.02375*%
%ADD79C,0.05512*%
%ADD80C,0.00197*%
%ADD81C,0.00500*%
%ADD82C,0.00667*%
D81*
X0133000Y0207000D02*
X0136000D01*
X0134500Y0205500D02*
Y0208500D01*
X0150900Y0363600D02*
X0153900D01*
X0152400Y0362100D02*
Y0365100D01*
X0185900Y0378100D02*
X0188900D01*
X0187400Y0376600D02*
Y0379600D01*
X0254900Y0360100D02*
X0257900D01*
X0256400Y0358600D02*
Y0361600D01*
X0288900Y0376600D02*
X0291900D01*
X0290400Y0375100D02*
Y0378100D01*
X0365900Y0356600D02*
X0368900D01*
X0367400Y0355100D02*
Y0358100D01*
X0400400Y0378100D02*
X0403400D01*
X0401900Y0376600D02*
Y0379600D01*
X0346728Y0265000D02*
X0350272D01*
X0348500Y0263228D02*
Y0266772D01*
X0346728Y0255000D02*
X0350272D01*
X0348500Y0253228D02*
Y0256772D01*
X0151228Y0208000D02*
X0154772D01*
X0153000Y0206228D02*
Y0209772D01*
X0151228Y0218000D02*
X0154772D01*
X0153000Y0216228D02*
Y0219772D01*
X0351628Y0383600D02*
X0355172D01*
X0353400Y0381828D02*
Y0385372D01*
X0351628Y0393600D02*
X0355172D01*
X0353400Y0391828D02*
Y0395372D01*
X0240160Y0384100D02*
X0243703D01*
X0241932Y0382328D02*
Y0385872D01*
X0240160Y0394100D02*
X0243703D01*
X0241932Y0392328D02*
Y0395872D01*
X0133128Y0385100D02*
X0136672D01*
X0134900Y0383328D02*
Y0386872D01*
X0133128Y0395100D02*
X0136672D01*
X0134900Y0393328D02*
Y0396872D01*
X0133197Y0227000D02*
X0136740D01*
X0134969Y0225228D02*
Y0228772D01*
X0133197Y0237000D02*
X0136740D01*
X0134969Y0235228D02*
Y0238772D01*
X0105315Y0488189D02*
X0119095D01*
X0112205Y0481299D02*
Y0495079D01*
X0430512Y0488189D02*
X0443504D01*
X0437008Y0481693D02*
Y0494685D01*
X0105709Y0125984D02*
X0118701D01*
X0112205Y0119488D02*
Y0132480D01*
X0430512Y0125984D02*
X0443504D01*
X0437008Y0119488D02*
Y0132480D01*
X0164500Y0275500D02*
X0167500D01*
X0166000Y0274000D02*
Y0277000D01*
X0151900Y0387100D02*
X0154900D01*
X0153400Y0385600D02*
Y0388600D01*
X0255900D02*
X0258900D01*
X0257400Y0387100D02*
Y0390100D01*
X0371400Y0389100D02*
X0374400D01*
X0372900Y0387600D02*
Y0390600D01*
X0127008Y0463800D02*
X0152992D01*
X0140000Y0450808D02*
Y0476792D01*
X0174608Y0463200D02*
X0200592D01*
X0187600Y0450208D02*
Y0476192D01*
X0224508Y0465000D02*
X0250492D01*
X0237500Y0452008D02*
Y0477992D01*
X0273608Y0473700D02*
X0299592D01*
X0286600Y0460708D02*
Y0486692D01*
X0329508Y0465000D02*
X0355492D01*
X0342500Y0452008D02*
Y0477992D01*
X0379508Y0465000D02*
X0405492D01*
X0392500Y0452008D02*
Y0477992D01*
X0404008Y0206000D02*
X0429992D01*
X0417000Y0193008D02*
Y0218992D01*
X0357008Y0150000D02*
X0382992D01*
X0370000Y0137008D02*
Y0162992D01*
X0214508Y0150000D02*
X0240492D01*
X0227500Y0137008D02*
Y0162992D01*
X0155008Y0144800D02*
X0180992D01*
X0168000Y0131808D02*
Y0157792D01*
X0124508Y0317500D02*
X0150492D01*
X0137500Y0304508D02*
Y0330492D01*
X0274508Y0150000D02*
X0300492D01*
X0287500Y0137008D02*
Y0162992D01*
X0190701Y0254032D02*
X0191488D01*
X0191094Y0253638D02*
Y0254425D01*
X0190701Y0257969D02*
X0191488D01*
X0191094Y0257575D02*
Y0258362D01*
X0194638Y0254032D02*
X0195425D01*
X0195032Y0253638D02*
Y0254425D01*
X0194638Y0257969D02*
X0195425D01*
X0195032Y0257575D02*
Y0258362D01*
X0198575Y0254032D02*
X0199362D01*
X0198969Y0253638D02*
Y0254425D01*
X0198575Y0257969D02*
X0199362D01*
X0198969Y0257575D02*
Y0258362D01*
X0202512Y0254032D02*
X0203299D01*
X0202906Y0253638D02*
Y0254425D01*
X0202512Y0257969D02*
X0203299D01*
X0202906Y0257575D02*
Y0258362D01*
X0324543Y0243126D02*
X0325331D01*
X0324937Y0242732D02*
Y0243520D01*
X0316669Y0243126D02*
X0317457D01*
X0317063Y0242732D02*
Y0243520D01*
X0320606Y0243126D02*
X0321394D01*
X0321000Y0242732D02*
Y0243520D01*
X0324543Y0251000D02*
X0325331D01*
X0324937Y0250606D02*
Y0251394D01*
X0324543Y0247063D02*
X0325331D01*
X0324937Y0246669D02*
Y0247457D01*
X0316669Y0247063D02*
X0317457D01*
X0317063Y0246669D02*
Y0247457D01*
X0316669Y0251000D02*
X0317457D01*
X0317063Y0250606D02*
Y0251394D01*
X0320606Y0247063D02*
X0321394D01*
X0321000Y0246669D02*
Y0247457D01*
X0320606Y0251000D02*
X0321394D01*
X0321000Y0250606D02*
Y0251394D01*
M02*
