%FSAX25Y25*%
%MOIN*%
G70*
G01*
G75*
%ADD10R,0.06693X0.03937*%
%ADD11R,0.03543X0.02756*%
G04:AMPARAMS|DCode=12|XSize=23.62mil|YSize=35.43mil|CornerRadius=5.91mil|HoleSize=0mil|Usage=FLASHONLY|Rotation=270.000|XOffset=0mil|YOffset=0mil|HoleType=Round|Shape=RoundedRectangle|*
%AMROUNDEDRECTD12*
21,1,0.02362,0.02362,0,0,270.0*
21,1,0.01181,0.03543,0,0,270.0*
1,1,0.01181,-0.01181,-0.00591*
1,1,0.01181,-0.01181,0.00591*
1,1,0.01181,0.01181,0.00591*
1,1,0.01181,0.01181,-0.00591*
%
%ADD12ROUNDEDRECTD12*%
%ADD13R,0.02756X0.05118*%
%ADD14R,0.02756X0.03543*%
G04:AMPARAMS|DCode=15|XSize=23.62mil|YSize=43.31mil|CornerRadius=5.91mil|HoleSize=0mil|Usage=FLASHONLY|Rotation=90.000|XOffset=0mil|YOffset=0mil|HoleType=Round|Shape=RoundedRectangle|*
%AMROUNDEDRECTD15*
21,1,0.02362,0.03150,0,0,90.0*
21,1,0.01181,0.04331,0,0,90.0*
1,1,0.01181,0.01575,0.00591*
1,1,0.01181,0.01575,-0.00591*
1,1,0.01181,-0.01575,-0.00591*
1,1,0.01181,-0.01575,0.00591*
%
%ADD15ROUNDEDRECTD15*%
%ADD16R,0.03150X0.03543*%
%ADD17R,0.04134X0.01772*%
%ADD18O,0.04134X0.01772*%
%ADD19R,0.05118X0.02756*%
G04:AMPARAMS|DCode=20|XSize=23.62mil|YSize=35.43mil|CornerRadius=5.91mil|HoleSize=0mil|Usage=FLASHONLY|Rotation=180.000|XOffset=0mil|YOffset=0mil|HoleType=Round|Shape=RoundedRectangle|*
%AMROUNDEDRECTD20*
21,1,0.02362,0.02362,0,0,180.0*
21,1,0.01181,0.03543,0,0,180.0*
1,1,0.01181,-0.00591,0.01181*
1,1,0.01181,0.00591,0.01181*
1,1,0.01181,0.00591,-0.01181*
1,1,0.01181,-0.00591,-0.01181*
%
%ADD20ROUNDEDRECTD20*%
G04:AMPARAMS|DCode=21|XSize=78.74mil|YSize=137.8mil|CornerRadius=19.69mil|HoleSize=0mil|Usage=FLASHONLY|Rotation=0.000|XOffset=0mil|YOffset=0mil|HoleType=Round|Shape=RoundedRectangle|*
%AMROUNDEDRECTD21*
21,1,0.07874,0.09843,0,0,0.0*
21,1,0.03937,0.13780,0,0,0.0*
1,1,0.03937,0.01969,-0.04921*
1,1,0.03937,-0.01969,-0.04921*
1,1,0.03937,-0.01969,0.04921*
1,1,0.03937,0.01969,0.04921*
%
%ADD21ROUNDEDRECTD21*%
%ADD22R,0.03543X0.03150*%
%ADD23C,0.01969*%
%ADD24C,0.01000*%
%ADD25C,0.05906*%
%ADD26C,0.01181*%
%ADD27C,0.01575*%
%ADD28C,0.02953*%
%ADD29C,0.19685*%
%ADD30C,0.39370*%
G04:AMPARAMS|DCode=31|XSize=59.06mil|YSize=59.06mil|CornerRadius=14.76mil|HoleSize=0mil|Usage=FLASHONLY|Rotation=270.000|XOffset=0mil|YOffset=0mil|HoleType=Round|Shape=RoundedRectangle|*
%AMROUNDEDRECTD31*
21,1,0.05906,0.02953,0,0,270.0*
21,1,0.02953,0.05906,0,0,270.0*
1,1,0.02953,-0.01476,-0.01476*
1,1,0.02953,-0.01476,0.01476*
1,1,0.02953,0.01476,0.01476*
1,1,0.02953,0.01476,-0.01476*
%
%ADD31ROUNDEDRECTD31*%
G04:AMPARAMS|DCode=32|XSize=59.06mil|YSize=59.06mil|CornerRadius=0mil|HoleSize=0mil|Usage=FLASHONLY|Rotation=270.000|XOffset=0mil|YOffset=0mil|HoleType=Round|Shape=Octagon|*
%AMOCTAGOND32*
4,1,8,-0.01476,-0.02953,0.01476,-0.02953,0.02953,-0.01476,0.02953,0.01476,0.01476,0.02953,-0.01476,0.02953,-0.02953,0.01476,-0.02953,-0.01476,-0.01476,-0.02953,0.0*
%
%ADD32OCTAGOND32*%

%ADD33C,0.05906*%
%ADD34C,0.03583*%
%ADD35C,0.00984*%
%ADD36C,0.00500*%
%ADD37C,0.00394*%
%ADD38C,0.00600*%
%ADD39C,0.00787*%
G04:AMPARAMS|DCode=40|XSize=127.95mil|YSize=107.87mil|CornerRadius=26.97mil|HoleSize=0mil|Usage=FLASHONLY|Rotation=90.000|XOffset=0mil|YOffset=0mil|HoleType=Round|Shape=RoundedRectangle|*
%AMROUNDEDRECTD40*
21,1,0.12795,0.05394,0,0,90.0*
21,1,0.07402,0.10787,0,0,90.0*
1,1,0.05394,0.02697,0.03701*
1,1,0.05394,0.02697,-0.03701*
1,1,0.05394,-0.02697,-0.03701*
1,1,0.05394,-0.02697,0.03701*
%
%ADD40ROUNDEDRECTD40*%
%ADD41R,0.07493X0.04737*%
%ADD42R,0.04343X0.03556*%
G04:AMPARAMS|DCode=43|XSize=31.62mil|YSize=43.43mil|CornerRadius=9.91mil|HoleSize=0mil|Usage=FLASHONLY|Rotation=270.000|XOffset=0mil|YOffset=0mil|HoleType=Round|Shape=RoundedRectangle|*
%AMROUNDEDRECTD43*
21,1,0.03162,0.02362,0,0,270.0*
21,1,0.01181,0.04343,0,0,270.0*
1,1,0.01981,-0.01181,-0.00591*
1,1,0.01981,-0.01181,0.00591*
1,1,0.01981,0.01181,0.00591*
1,1,0.01981,0.01181,-0.00591*
%
%ADD43ROUNDEDRECTD43*%
%ADD44R,0.03556X0.05918*%
%ADD45R,0.03556X0.04343*%
G04:AMPARAMS|DCode=46|XSize=31.62mil|YSize=51.31mil|CornerRadius=9.91mil|HoleSize=0mil|Usage=FLASHONLY|Rotation=90.000|XOffset=0mil|YOffset=0mil|HoleType=Round|Shape=RoundedRectangle|*
%AMROUNDEDRECTD46*
21,1,0.03162,0.03150,0,0,90.0*
21,1,0.01181,0.05131,0,0,90.0*
1,1,0.01981,0.01575,0.00591*
1,1,0.01981,0.01575,-0.00591*
1,1,0.01981,-0.01575,-0.00591*
1,1,0.01981,-0.01575,0.00591*
%
%ADD46ROUNDEDRECTD46*%
%ADD47R,0.03950X0.04343*%
%ADD48R,0.04934X0.02572*%
%ADD49O,0.04934X0.02572*%
%ADD50R,0.05918X0.03556*%
G04:AMPARAMS|DCode=51|XSize=31.62mil|YSize=43.43mil|CornerRadius=9.91mil|HoleSize=0mil|Usage=FLASHONLY|Rotation=180.000|XOffset=0mil|YOffset=0mil|HoleType=Round|Shape=RoundedRectangle|*
%AMROUNDEDRECTD51*
21,1,0.03162,0.02362,0,0,180.0*
21,1,0.01181,0.04343,0,0,180.0*
1,1,0.01981,-0.00591,0.01181*
1,1,0.01981,0.00591,0.01181*
1,1,0.01981,0.00591,-0.01181*
1,1,0.01981,-0.00591,-0.01181*
%
%ADD51ROUNDEDRECTD51*%
G04:AMPARAMS|DCode=52|XSize=86.74mil|YSize=145.79mil|CornerRadius=23.69mil|HoleSize=0mil|Usage=FLASHONLY|Rotation=0.000|XOffset=0mil|YOffset=0mil|HoleType=Round|Shape=RoundedRectangle|*
%AMROUNDEDRECTD52*
21,1,0.08674,0.09843,0,0,0.0*
21,1,0.03937,0.14579,0,0,0.0*
1,1,0.04737,0.01969,-0.04921*
1,1,0.04737,-0.01969,-0.04921*
1,1,0.04737,-0.01969,0.04921*
1,1,0.04737,0.01969,0.04921*
%
%ADD52ROUNDEDRECTD52*%
%ADD53R,0.04343X0.03950*%
%ADD54C,0.20485*%
%ADD55C,0.40170*%
G04:AMPARAMS|DCode=56|XSize=67.06mil|YSize=67.06mil|CornerRadius=18.76mil|HoleSize=0mil|Usage=FLASHONLY|Rotation=270.000|XOffset=0mil|YOffset=0mil|HoleType=Round|Shape=RoundedRectangle|*
%AMROUNDEDRECTD56*
21,1,0.06706,0.02953,0,0,270.0*
21,1,0.02953,0.06706,0,0,270.0*
1,1,0.03753,-0.01476,-0.01476*
1,1,0.03753,-0.01476,0.01476*
1,1,0.03753,0.01476,0.01476*
1,1,0.03753,0.01476,-0.01476*
%
%ADD56ROUNDEDRECTD56*%
G04:AMPARAMS|DCode=57|XSize=67.06mil|YSize=67.06mil|CornerRadius=0mil|HoleSize=0mil|Usage=FLASHONLY|Rotation=270.000|XOffset=0mil|YOffset=0mil|HoleType=Round|Shape=Octagon|*
%AMOCTAGOND57*
4,1,8,-0.01676,-0.03353,0.01676,-0.03353,0.03353,-0.01676,0.03353,0.01676,0.01676,0.03353,-0.01676,0.03353,-0.03353,0.01676,-0.03353,-0.01676,-0.01676,-0.03353,0.0*
%
%ADD57OCTAGOND57*%

%ADD58C,0.06706*%
%ADD59C,0.04383*%
%ADD60C,0.07874*%
%ADD61C,0.00667*%
D36*
X0283110Y0122500D02*
X0296890D01*
X0290000Y0115610D02*
Y0129390D01*
X0304205Y0278000D02*
X0329795D01*
X0317000Y0265205D02*
Y0290795D01*
X0304205Y0220500D02*
X0329795D01*
X0317000Y0207705D02*
Y0233295D01*
X0304205Y0163000D02*
X0329795D01*
X0317000Y0150205D02*
Y0175795D01*
X0619705Y0137500D02*
X0645295D01*
X0632500Y0124705D02*
Y0150295D01*
X0619705Y0195000D02*
X0645295D01*
X0632500Y0182205D02*
Y0207795D01*
X0619705Y0252500D02*
X0645295D01*
X0632500Y0239705D02*
Y0265295D01*
X0619705Y0310000D02*
X0645295D01*
X0632500Y0297205D02*
Y0322795D01*
X0619705Y0367500D02*
X0645295D01*
X0632500Y0354705D02*
Y0380295D01*
X0619705Y0425000D02*
X0645295D01*
X0632500Y0412205D02*
Y0437795D01*
X0619705Y0482500D02*
X0645295D01*
X0632500Y0469705D02*
Y0495295D01*
X0619705Y0540000D02*
X0645295D01*
X0632500Y0527205D02*
Y0552795D01*
X0283110Y0552500D02*
X0296890D01*
X0290000Y0545610D02*
Y0559390D01*
X0413228Y0505000D02*
X0416772D01*
X0415000Y0503228D02*
Y0506772D01*
X0413228Y0465000D02*
X0416772D01*
X0415000Y0463228D02*
Y0466772D01*
X0413228Y0392500D02*
X0416772D01*
X0415000Y0390728D02*
Y0394272D01*
X0413228Y0352500D02*
X0416772D01*
X0415000Y0350728D02*
Y0354272D01*
X0413228Y0275000D02*
X0416772D01*
X0415000Y0273228D02*
Y0276772D01*
X0413228Y0235000D02*
X0416772D01*
X0415000Y0233228D02*
Y0236772D01*
X0413228Y0162500D02*
X0416772D01*
X0415000Y0160728D02*
Y0164272D01*
X0413228Y0122500D02*
X0416772D01*
X0415000Y0120728D02*
Y0124272D01*
X0593228Y0540000D02*
X0596772D01*
X0595000Y0538228D02*
Y0541772D01*
X0593228Y0482500D02*
X0596772D01*
X0595000Y0480728D02*
Y0484272D01*
X0593228Y0425000D02*
X0596772D01*
X0595000Y0423228D02*
Y0426772D01*
X0593228Y0367500D02*
X0596772D01*
X0595000Y0365728D02*
Y0369272D01*
X0593228Y0310000D02*
X0596772D01*
X0595000Y0308228D02*
Y0311772D01*
X0593228Y0252500D02*
X0596772D01*
X0595000Y0250728D02*
Y0254272D01*
X0593228Y0195000D02*
X0596772D01*
X0595000Y0193228D02*
Y0196772D01*
X0593228Y0137500D02*
X0596772D01*
X0595000Y0135728D02*
Y0139272D01*
X0405728Y0480000D02*
X0409272D01*
X0407500Y0478228D02*
Y0481772D01*
X0395728Y0480000D02*
X0399272D01*
X0397500Y0478228D02*
Y0481772D01*
X0405728Y0490000D02*
X0409272D01*
X0407500Y0488228D02*
Y0491772D01*
X0395728Y0490000D02*
X0399272D01*
X0397500Y0488228D02*
Y0491772D01*
X0405728Y0367500D02*
X0409272D01*
X0407500Y0365728D02*
Y0369272D01*
X0395728Y0367500D02*
X0399272D01*
X0397500Y0365728D02*
Y0369272D01*
X0405728Y0377500D02*
X0409272D01*
X0407500Y0375728D02*
Y0379272D01*
X0395728Y0377500D02*
X0399272D01*
X0397500Y0375728D02*
Y0379272D01*
X0405728Y0250000D02*
X0409272D01*
X0407500Y0248228D02*
Y0251772D01*
X0395728Y0250000D02*
X0399272D01*
X0397500Y0248228D02*
Y0251772D01*
X0405728Y0260000D02*
X0409272D01*
X0407500Y0258228D02*
Y0261772D01*
X0395728Y0260000D02*
X0399272D01*
X0397500Y0258228D02*
Y0261772D01*
X0405728Y0137500D02*
X0409272D01*
X0407500Y0135728D02*
Y0139272D01*
X0395728Y0137500D02*
X0399272D01*
X0397500Y0135728D02*
Y0139272D01*
X0405728Y0147500D02*
X0409272D01*
X0407500Y0145728D02*
Y0149272D01*
X0395728Y0147500D02*
X0399272D01*
X0397500Y0145728D02*
Y0149272D01*
X0431512Y0172799D02*
X0435055D01*
X0433284Y0171028D02*
Y0174571D01*
X0441539Y0172646D02*
X0445083D01*
X0443311Y0170874D02*
Y0174417D01*
X0451496Y0172626D02*
X0455039D01*
X0453268Y0170854D02*
Y0174398D01*
X0569728Y0379000D02*
X0573272D01*
X0571500Y0377228D02*
Y0380772D01*
X0549728Y0379000D02*
X0553272D01*
X0551500Y0377228D02*
Y0380772D01*
X0559728Y0359000D02*
X0563272D01*
X0561500Y0357228D02*
Y0360772D01*
X0431512Y0402799D02*
X0435055D01*
X0433284Y0401028D02*
Y0404571D01*
X0441539Y0402646D02*
X0445083D01*
X0443311Y0400874D02*
Y0404417D01*
X0451496Y0402626D02*
X0455039D01*
X0453268Y0400854D02*
Y0404398D01*
X0569728Y0261500D02*
X0573272D01*
X0571500Y0259728D02*
Y0263272D01*
X0549728Y0261500D02*
X0553272D01*
X0551500Y0259728D02*
Y0263272D01*
X0559728Y0241500D02*
X0563272D01*
X0561500Y0239728D02*
Y0243272D01*
X0549012Y0517799D02*
X0552555D01*
X0550783Y0516028D02*
Y0519571D01*
X0559039Y0517646D02*
X0562583D01*
X0560811Y0515874D02*
Y0519417D01*
X0568996Y0517626D02*
X0572539D01*
X0570768Y0515854D02*
Y0519398D01*
X0569228Y0492000D02*
X0572772D01*
X0571000Y0490228D02*
Y0493772D01*
X0549228Y0492000D02*
X0552772D01*
X0551000Y0490228D02*
Y0493772D01*
X0559228Y0472000D02*
X0562772D01*
X0561000Y0470228D02*
Y0473772D01*
X0431512Y0285299D02*
X0435055D01*
X0433284Y0283528D02*
Y0287071D01*
X0441539Y0285146D02*
X0445083D01*
X0443311Y0283374D02*
Y0286917D01*
X0451496Y0285126D02*
X0455039D01*
X0453268Y0283354D02*
Y0286898D01*
X0431512Y0515299D02*
X0435055D01*
X0433284Y0513528D02*
Y0517071D01*
X0441539Y0515146D02*
X0445083D01*
X0443311Y0513374D02*
Y0516917D01*
X0451496Y0515126D02*
X0455039D01*
X0453268Y0513354D02*
Y0516898D01*
X0549012Y0405299D02*
X0552555D01*
X0550783Y0403528D02*
Y0407071D01*
X0559039Y0405146D02*
X0562583D01*
X0560811Y0403374D02*
Y0406917D01*
X0568996Y0405126D02*
X0572539D01*
X0570768Y0403354D02*
Y0406898D01*
X0688228Y0140433D02*
X0691772D01*
X0690000Y0138661D02*
Y0142205D01*
X0678228Y0140433D02*
X0681772D01*
X0680000Y0138661D02*
Y0142205D01*
X0688228Y0150433D02*
X0691772D01*
X0690000Y0148661D02*
Y0152205D01*
X0678228Y0150433D02*
X0681772D01*
X0680000Y0148661D02*
Y0152205D01*
X0688228Y0160433D02*
X0691772D01*
X0690000Y0158661D02*
Y0162205D01*
X0678228Y0160433D02*
X0681772D01*
X0680000Y0158661D02*
Y0162205D01*
X0688228Y0170433D02*
X0691772D01*
X0690000Y0168661D02*
Y0172205D01*
X0678228Y0170433D02*
X0681772D01*
X0680000Y0168661D02*
Y0172205D01*
X0688228Y0180433D02*
X0691772D01*
X0690000Y0178661D02*
Y0182205D01*
X0678228Y0180433D02*
X0681772D01*
X0680000Y0178661D02*
Y0182205D01*
X0688228Y0190433D02*
X0691772D01*
X0690000Y0188661D02*
Y0192205D01*
X0678228Y0190433D02*
X0681772D01*
X0680000Y0188661D02*
Y0192205D01*
X0688228Y0200433D02*
X0691772D01*
X0690000Y0198661D02*
Y0202205D01*
X0678228Y0200433D02*
X0681772D01*
X0680000Y0198661D02*
Y0202205D01*
X0688228Y0210433D02*
X0691772D01*
X0690000Y0208661D02*
Y0212205D01*
X0678228Y0210433D02*
X0681772D01*
X0680000Y0208661D02*
Y0212205D01*
X0688228Y0220433D02*
X0691772D01*
X0690000Y0218661D02*
Y0222205D01*
X0678228Y0220433D02*
X0681772D01*
X0680000Y0218661D02*
Y0222205D01*
X0688228Y0230433D02*
X0691772D01*
X0690000Y0228661D02*
Y0232205D01*
X0678228Y0230433D02*
X0681772D01*
X0680000Y0228661D02*
Y0232205D01*
X0688228Y0240433D02*
X0691772D01*
X0690000Y0238661D02*
Y0242205D01*
X0678228Y0240433D02*
X0681772D01*
X0680000Y0238661D02*
Y0242205D01*
X0688228Y0250433D02*
X0691772D01*
X0690000Y0248661D02*
Y0252205D01*
X0678228Y0250433D02*
X0681772D01*
X0680000Y0248661D02*
Y0252205D01*
X0688228Y0260433D02*
X0691772D01*
X0690000Y0258661D02*
Y0262205D01*
X0678228Y0260433D02*
X0681772D01*
X0680000Y0258661D02*
Y0262205D01*
X0688228Y0270433D02*
X0691772D01*
X0690000Y0268661D02*
Y0272205D01*
X0678228Y0270433D02*
X0681772D01*
X0680000Y0268661D02*
Y0272205D01*
X0688228Y0280433D02*
X0691772D01*
X0690000Y0278661D02*
Y0282205D01*
X0678228Y0280433D02*
X0681772D01*
X0680000Y0278661D02*
Y0282205D01*
X0688228Y0290433D02*
X0691772D01*
X0690000Y0288661D02*
Y0292205D01*
X0678228Y0290433D02*
X0681772D01*
X0680000Y0288661D02*
Y0292205D01*
X0688228Y0300433D02*
X0691772D01*
X0690000Y0298661D02*
Y0302205D01*
X0678228Y0300433D02*
X0681772D01*
X0680000Y0298661D02*
Y0302205D01*
X0688228Y0310433D02*
X0691772D01*
X0690000Y0308661D02*
Y0312205D01*
X0678228Y0310433D02*
X0681772D01*
X0680000Y0308661D02*
Y0312205D01*
X0688228Y0320433D02*
X0691772D01*
X0690000Y0318661D02*
Y0322205D01*
X0678228Y0320433D02*
X0681772D01*
X0680000Y0318661D02*
Y0322205D01*
X0688228Y0330433D02*
X0691772D01*
X0690000Y0328661D02*
Y0332205D01*
X0678228Y0330433D02*
X0681772D01*
X0680000Y0328661D02*
Y0332205D01*
X0688228Y0342500D02*
X0691772D01*
X0690000Y0340728D02*
Y0344272D01*
X0678228Y0342500D02*
X0681772D01*
X0680000Y0340728D02*
Y0344272D01*
X0688228Y0352500D02*
X0691772D01*
X0690000Y0350728D02*
Y0354272D01*
X0678228Y0352500D02*
X0681772D01*
X0680000Y0350728D02*
Y0354272D01*
X0688228Y0362500D02*
X0691772D01*
X0690000Y0360728D02*
Y0364272D01*
X0678228Y0362500D02*
X0681772D01*
X0680000Y0360728D02*
Y0364272D01*
X0688228Y0372500D02*
X0691772D01*
X0690000Y0370728D02*
Y0374272D01*
X0678228Y0372500D02*
X0681772D01*
X0680000Y0370728D02*
Y0374272D01*
X0688228Y0382500D02*
X0691772D01*
X0690000Y0380728D02*
Y0384272D01*
X0678228Y0382500D02*
X0681772D01*
X0680000Y0380728D02*
Y0384272D01*
X0688228Y0392500D02*
X0691772D01*
X0690000Y0390728D02*
Y0394272D01*
X0678228Y0392500D02*
X0681772D01*
X0680000Y0390728D02*
Y0394272D01*
X0688228Y0402500D02*
X0691772D01*
X0690000Y0400728D02*
Y0404272D01*
X0678228Y0402500D02*
X0681772D01*
X0680000Y0400728D02*
Y0404272D01*
X0688228Y0412500D02*
X0691772D01*
X0690000Y0410728D02*
Y0414272D01*
X0678228Y0412500D02*
X0681772D01*
X0680000Y0410728D02*
Y0414272D01*
X0688228Y0422500D02*
X0691772D01*
X0690000Y0420728D02*
Y0424272D01*
X0678228Y0422500D02*
X0681772D01*
X0680000Y0420728D02*
Y0424272D01*
X0688228Y0432500D02*
X0691772D01*
X0690000Y0430728D02*
Y0434272D01*
X0678228Y0432500D02*
X0681772D01*
X0680000Y0430728D02*
Y0434272D01*
X0688228Y0442500D02*
X0691772D01*
X0690000Y0440728D02*
Y0444272D01*
X0678228Y0442500D02*
X0681772D01*
X0680000Y0440728D02*
Y0444272D01*
X0688228Y0452500D02*
X0691772D01*
X0690000Y0450728D02*
Y0454272D01*
X0678228Y0452500D02*
X0681772D01*
X0680000Y0450728D02*
Y0454272D01*
X0688228Y0462500D02*
X0691772D01*
X0690000Y0460728D02*
Y0464272D01*
X0678228Y0462500D02*
X0681772D01*
X0680000Y0460728D02*
Y0464272D01*
X0688228Y0472500D02*
X0691772D01*
X0690000Y0470728D02*
Y0474272D01*
X0678228Y0472500D02*
X0681772D01*
X0680000Y0470728D02*
Y0474272D01*
X0688228Y0482500D02*
X0691772D01*
X0690000Y0480728D02*
Y0484272D01*
X0678228Y0482500D02*
X0681772D01*
X0680000Y0480728D02*
Y0484272D01*
X0688228Y0492500D02*
X0691772D01*
X0690000Y0490728D02*
Y0494272D01*
X0678228Y0492500D02*
X0681772D01*
X0680000Y0490728D02*
Y0494272D01*
X0688228Y0502500D02*
X0691772D01*
X0690000Y0500728D02*
Y0504272D01*
X0678228Y0502500D02*
X0681772D01*
X0680000Y0500728D02*
Y0504272D01*
X0688228Y0512500D02*
X0691772D01*
X0690000Y0510728D02*
Y0514272D01*
X0678228Y0512500D02*
X0681772D01*
X0680000Y0510728D02*
Y0514272D01*
X0688228Y0522500D02*
X0691772D01*
X0690000Y0520728D02*
Y0524272D01*
X0678228Y0522500D02*
X0681772D01*
X0680000Y0520728D02*
Y0524272D01*
X0688228Y0532500D02*
X0691772D01*
X0690000Y0530728D02*
Y0534272D01*
X0678228Y0532500D02*
X0681772D01*
X0680000Y0530728D02*
Y0534272D01*
X0673110Y0122500D02*
X0686890D01*
X0680000Y0115610D02*
Y0129390D01*
X0673110Y0552500D02*
X0686890D01*
X0680000Y0545610D02*
Y0559390D01*
X0549012Y0175299D02*
X0552555D01*
X0550783Y0173528D02*
Y0177071D01*
X0559039Y0175146D02*
X0562583D01*
X0560811Y0173374D02*
Y0176917D01*
X0568996Y0175126D02*
X0572539D01*
X0570768Y0173354D02*
Y0176898D01*
X0549012Y0287799D02*
X0552555D01*
X0550783Y0286028D02*
Y0289571D01*
X0559039Y0287646D02*
X0562583D01*
X0560811Y0285874D02*
Y0289417D01*
X0568996Y0287626D02*
X0572539D01*
X0570768Y0285854D02*
Y0289398D01*
X0569728Y0149000D02*
X0573272D01*
X0571500Y0147228D02*
Y0150772D01*
X0549728Y0149000D02*
X0553272D01*
X0551500Y0147228D02*
Y0150772D01*
X0559728Y0129000D02*
X0563272D01*
X0561500Y0127228D02*
Y0130772D01*
X0365728Y0545000D02*
X0369272D01*
X0367500Y0543228D02*
Y0546772D01*
X0365728Y0535000D02*
X0369272D01*
X0367500Y0533228D02*
Y0536772D01*
X0365728Y0525000D02*
X0369272D01*
X0367500Y0523228D02*
Y0526772D01*
X0365728Y0515000D02*
X0369272D01*
X0367500Y0513228D02*
Y0516772D01*
X0395728Y0545000D02*
X0399272D01*
X0397500Y0543228D02*
Y0546772D01*
X0395728Y0535000D02*
X0399272D01*
X0397500Y0533228D02*
Y0536772D01*
X0395728Y0525000D02*
X0399272D01*
X0397500Y0523228D02*
Y0526772D01*
X0395728Y0515000D02*
X0399272D01*
X0397500Y0513228D02*
Y0516772D01*
X0365728Y0432500D02*
X0369272D01*
X0367500Y0430728D02*
Y0434272D01*
X0365728Y0422500D02*
X0369272D01*
X0367500Y0420728D02*
Y0424272D01*
X0365728Y0412500D02*
X0369272D01*
X0367500Y0410728D02*
Y0414272D01*
X0365728Y0402500D02*
X0369272D01*
X0367500Y0400728D02*
Y0404272D01*
X0395728Y0432500D02*
X0399272D01*
X0397500Y0430728D02*
Y0434272D01*
X0395728Y0422500D02*
X0399272D01*
X0397500Y0420728D02*
Y0424272D01*
X0395728Y0412500D02*
X0399272D01*
X0397500Y0410728D02*
Y0414272D01*
X0395728Y0402500D02*
X0399272D01*
X0397500Y0400728D02*
Y0404272D01*
X0365728Y0315000D02*
X0369272D01*
X0367500Y0313228D02*
Y0316772D01*
X0365728Y0305000D02*
X0369272D01*
X0367500Y0303228D02*
Y0306772D01*
X0365728Y0295000D02*
X0369272D01*
X0367500Y0293228D02*
Y0296772D01*
X0365728Y0285000D02*
X0369272D01*
X0367500Y0283228D02*
Y0286772D01*
X0395728Y0315000D02*
X0399272D01*
X0397500Y0313228D02*
Y0316772D01*
X0395728Y0305000D02*
X0399272D01*
X0397500Y0303228D02*
Y0306772D01*
X0395728Y0295000D02*
X0399272D01*
X0397500Y0293228D02*
Y0296772D01*
X0395728Y0285000D02*
X0399272D01*
X0397500Y0283228D02*
Y0286772D01*
X0365728Y0202500D02*
X0369272D01*
X0367500Y0200728D02*
Y0204272D01*
X0365728Y0192500D02*
X0369272D01*
X0367500Y0190728D02*
Y0194272D01*
X0365728Y0182500D02*
X0369272D01*
X0367500Y0180728D02*
Y0184272D01*
X0365728Y0172500D02*
X0369272D01*
X0367500Y0170728D02*
Y0174272D01*
X0395728Y0202500D02*
X0399272D01*
X0397500Y0200728D02*
Y0204272D01*
X0395728Y0192500D02*
X0399272D01*
X0397500Y0190728D02*
Y0194272D01*
X0395728Y0182500D02*
X0399272D01*
X0397500Y0180728D02*
Y0184272D01*
X0395728Y0172500D02*
X0399272D01*
X0397500Y0170728D02*
Y0174272D01*
X0524173Y0420945D02*
X0525748D01*
X0524961Y0420157D02*
Y0421732D01*
X0524173Y0192205D02*
X0525748D01*
X0524961Y0191417D02*
Y0192992D01*
X0436713Y0197500D02*
X0438287D01*
X0437500Y0196713D02*
Y0198287D01*
X0436713Y0540000D02*
X0438287D01*
X0437500Y0539213D02*
Y0540787D01*
X0436713Y0427500D02*
X0438287D01*
X0437500Y0426713D02*
Y0428287D01*
X0436713Y0310000D02*
X0438287D01*
X0437500Y0309213D02*
Y0310787D01*
X0519213Y0120000D02*
X0520787D01*
X0520000Y0119213D02*
Y0120787D01*
X0421713Y0252500D02*
X0423287D01*
X0422500Y0251713D02*
Y0253287D01*
X0491713Y0162500D02*
X0493287D01*
X0492500Y0161713D02*
Y0163287D01*
X0491713Y0392500D02*
X0493287D01*
X0492500Y0391713D02*
Y0393287D01*
X0525039Y0304173D02*
X0526614D01*
X0525827Y0303386D02*
Y0304961D01*
X0524173Y0533228D02*
X0525748D01*
X0524961Y0532441D02*
Y0534016D01*
X0521713Y0484500D02*
X0523287D01*
X0522500Y0483713D02*
Y0485287D01*
X0491713Y0505000D02*
X0493287D01*
X0492500Y0504213D02*
Y0505787D01*
X0491713Y0275000D02*
X0493287D01*
X0492500Y0274213D02*
Y0275787D01*
X0454213Y0137500D02*
X0455787D01*
X0455000Y0136713D02*
Y0138287D01*
X0454213Y0250000D02*
X0455787D01*
X0455000Y0249213D02*
Y0250787D01*
X0454213Y0367500D02*
X0455787D01*
X0455000Y0366713D02*
Y0368287D01*
X0454213Y0480000D02*
X0455787D01*
X0455000Y0479213D02*
Y0480787D01*
X0409213Y0517500D02*
X0410787D01*
X0410000Y0516713D02*
Y0518287D01*
X0409213Y0405000D02*
X0410787D01*
X0410000Y0404213D02*
Y0405787D01*
X0409213Y0287500D02*
X0410787D01*
X0410000Y0286713D02*
Y0288287D01*
X0409213Y0175000D02*
X0410787D01*
X0410000Y0174213D02*
Y0175787D01*
X0421713Y0140000D02*
X0423287D01*
X0422500Y0139213D02*
Y0140787D01*
X0421713Y0370000D02*
X0423287D01*
X0422500Y0369213D02*
Y0370787D01*
X0416713Y0215000D02*
X0418287D01*
X0417500Y0214213D02*
Y0215787D01*
X0579213Y0225000D02*
X0580787D01*
X0580000Y0224213D02*
Y0225787D01*
X0666713Y0402500D02*
X0668287D01*
X0667500Y0401713D02*
Y0403287D01*
X0536102Y0439646D02*
X0537677D01*
X0536890Y0438858D02*
Y0440433D01*
X0421713Y0482500D02*
X0423287D01*
X0422500Y0481713D02*
Y0483287D01*
X0416713Y0445000D02*
X0418287D01*
X0417500Y0444213D02*
Y0445787D01*
X0579213Y0455000D02*
X0580787D01*
X0580000Y0454213D02*
Y0455787D01*
X0579213Y0340000D02*
X0580787D01*
X0580000Y0339213D02*
Y0340787D01*
X0351713Y0452500D02*
X0353287D01*
X0352500Y0451713D02*
Y0453287D01*
X0386713Y0465000D02*
X0388287D01*
X0387500Y0464213D02*
Y0465787D01*
X0386713Y0443500D02*
X0388287D01*
X0387500Y0442713D02*
Y0444287D01*
X0446713Y0340000D02*
X0448287D01*
X0447500Y0339213D02*
Y0340787D01*
X0459213Y0441000D02*
X0460787D01*
X0460000Y0440213D02*
Y0441787D01*
X0459213Y0210000D02*
X0460787D01*
X0460000Y0209213D02*
Y0210787D01*
X0459213Y0322500D02*
X0460787D01*
X0460000Y0321713D02*
Y0323287D01*
X0459213Y0552500D02*
X0460787D01*
X0460000Y0551713D02*
Y0553287D01*
X0464213Y0557500D02*
X0465787D01*
X0465000Y0556713D02*
Y0558287D01*
X0464213Y0527500D02*
X0465787D01*
X0465000Y0526713D02*
Y0528287D01*
X0464213Y0327500D02*
X0465787D01*
X0465000Y0326713D02*
Y0328287D01*
X0464213Y0297500D02*
X0465787D01*
X0465000Y0296713D02*
Y0298287D01*
X0464213Y0445000D02*
X0465787D01*
X0465000Y0444213D02*
Y0445787D01*
X0464213Y0415000D02*
X0465787D01*
X0465000Y0414213D02*
Y0415787D01*
X0464213Y0185500D02*
X0465787D01*
X0465000Y0184713D02*
Y0186287D01*
X0464213Y0215000D02*
X0465787D01*
X0465000Y0214213D02*
Y0215787D01*
X0541713Y0500000D02*
X0543287D01*
X0542500Y0499213D02*
Y0500787D01*
X0541713Y0270000D02*
X0543287D01*
X0542500Y0269213D02*
Y0270787D01*
X0541713Y0387500D02*
X0543287D01*
X0542500Y0386713D02*
Y0388287D01*
X0541713Y0157500D02*
X0543287D01*
X0542500Y0156713D02*
Y0158287D01*
M02*
