M48
;Layer_Color=9474304
;FILE_FORMAT=2:5
INCH
;TYPE=PLATED
T1F00S00C0.01575
T2F00S00C0.03543
T3F00S00C0.13780
T4F00S00C0.25591
%
T01
X0422500Y0140000
X0455000Y0137500
X0520000Y0120000
X0542500Y0157500
X0524961Y0192205
X0492500Y0162500
Y0275000
X0542500Y0270000
X0525827Y0304173
X0580000Y0225000
X0465000Y0215000
X0460000Y0210000
X0465000Y0185500
X0437500Y0197500
X0417500Y0215000
X0422500Y0252500
X0455000Y0250000
X0465000Y0297500
X0437500Y0310000
X0410000Y0287500
Y0175000
X0460000Y0322500
X0465000Y0327500
X0447500Y0340000
X0455000Y0367500
X0422500Y0370000
X0410000Y0405000
X0417500Y0445000
X0387500Y0443500
Y0465000
X0352500Y0452500
X0437500Y0427500
X0460000Y0441000
X0465000Y0445000
Y0415000
X0492500Y0392500
X0542500Y0387500
X0524961Y0420945
X0536890Y0439646
X0580000Y0455000
Y0340000
X0667500Y0402500
X0542500Y0500000
X0522500Y0484500
X0492500Y0505000
X0524961Y0533228
X0465000Y0527500
X0460000Y0552500
X0465000Y0557500
X0437500Y0540000
X0410000Y0517500
X0422500Y0482500
X0455000Y0480000
T02
X0397500Y0137500
X0407500
Y0147500
X0397500
X0415000Y0122500
X0561500Y0129000
X0571500Y0149000
X0551500
X0595000Y0137500
X0680000Y0140433
X0690000
Y0150433
X0680000
Y0160433
X0690000
Y0170433
X0680000
Y0180433
X0690000
Y0190433
X0680000
Y0200433
X0690000
Y0210433
X0680000
Y0220433
X0690000
Y0230433
X0680000
Y0240433
X0690000
Y0250433
X0680000
Y0260433
X0690000
Y0270433
X0680000
Y0280433
X0690000
Y0290433
X0680000
Y0300433
X0690000
Y0310433
X0680000
X0595000Y0310000
X0570768Y0287626
X0560811Y0287646
X0550783Y0287799
X0551500Y0261500
X0571500
X0561500Y0241500
X0595000Y0252500
Y0195000
X0570768Y0175126
X0560811Y0175146
X0550783Y0175299
X0453268Y0172626
X0443311Y0172646
X0433284Y0172799
X0415000Y0162500
X0397500Y0172500
Y0182500
Y0192500
Y0202500
X0367500
Y0192500
Y0182500
Y0172500
X0397500Y0250000
X0407500
Y0260000
X0397500
Y0285000
Y0295000
Y0305000
X0367500
Y0295000
Y0285000
X0415000Y0275000
X0433284Y0285299
X0443311Y0285146
X0453268Y0285126
X0415000Y0235000
X0397500Y0315000
X0367500
X0397500Y0367500
X0407500
Y0377500
X0397500
Y0402500
Y0412500
Y0422500
Y0432500
X0367500
Y0422500
Y0412500
Y0402500
X0415000Y0392500
X0433284Y0402799
X0443311Y0402646
X0453268Y0402626
X0415000Y0352500
Y0465000
X0550783Y0405299
X0560811Y0405146
X0570768Y0405126
X0571500Y0379000
X0551500
X0561500Y0359000
X0595000Y0367500
Y0425000
X0680000Y0422500
Y0412500
Y0402500
Y0392500
Y0382500
Y0372500
Y0362500
Y0352500
Y0342500
X0690000
Y0352500
Y0362500
Y0372500
Y0382500
Y0392500
Y0402500
Y0412500
Y0422500
Y0432500
X0680000
Y0442500
X0690000
Y0452500
X0680000
Y0462500
X0690000
Y0330433
Y0320433
X0680000
Y0330433
Y0472500
X0690000
Y0482500
X0680000
Y0492500
X0690000
Y0502500
X0680000
Y0512500
X0690000
Y0522500
X0680000
Y0532500
X0690000
X0595000Y0540000
X0570768Y0517626
X0560811Y0517646
X0550783Y0517799
X0551000Y0492000
X0571000
X0561000Y0472000
X0595000Y0482500
X0453268Y0515126
X0443311Y0515146
X0433284Y0515299
X0415000Y0505000
X0407500Y0490000
Y0480000
X0397500
Y0490000
Y0515000
Y0525000
Y0535000
Y0545000
X0367500
Y0535000
Y0525000
Y0515000
T03
X0290000Y0122500
X0680000
Y0552500
X0290000
T04
X0632500Y0137500
Y0195000
Y0252500
Y0310000
X0317000Y0278000
Y0220500
Y0163000
X0632500Y0367500
Y0425000
Y0482500
Y0540000
M30
