%FSLAX25Y25*%
%MOIN*%
G70*
G01*
G75*
G04 Layer_Color=16777215*
%ADD10C,0.11794*%
%ADD11O,0.00984X0.03150*%
%ADD12O,0.03150X0.00984*%
%ADD13R,0.12205X0.12205*%
%ADD14R,0.07874X0.07874*%
%ADD15O,0.00591X0.03189*%
%ADD16O,0.03189X0.00591*%
%ADD17R,0.07874X0.07874*%
G04:AMPARAMS|DCode=18|XSize=23.62mil|YSize=35.43mil|CornerRadius=5.91mil|HoleSize=0mil|Usage=FLASHONLY|Rotation=0.000|XOffset=0mil|YOffset=0mil|HoleType=Round|Shape=RoundedRectangle|*
%AMROUNDEDRECTD18*
21,1,0.02362,0.02362,0,0,0.0*
21,1,0.01181,0.03543,0,0,0.0*
1,1,0.01181,0.00591,-0.01181*
1,1,0.01181,-0.00591,-0.01181*
1,1,0.01181,-0.00591,0.01181*
1,1,0.01181,0.00591,0.01181*
%
%ADD18ROUNDEDRECTD18*%
G04:AMPARAMS|DCode=19|XSize=23.62mil|YSize=35.43mil|CornerRadius=5.91mil|HoleSize=0mil|Usage=FLASHONLY|Rotation=90.000|XOffset=0mil|YOffset=0mil|HoleType=Round|Shape=RoundedRectangle|*
%AMROUNDEDRECTD19*
21,1,0.02362,0.02362,0,0,90.0*
21,1,0.01181,0.03543,0,0,90.0*
1,1,0.01181,0.01181,0.00591*
1,1,0.01181,0.01181,-0.00591*
1,1,0.01181,-0.01181,-0.00591*
1,1,0.01181,-0.01181,0.00591*
%
%ADD19ROUNDEDRECTD19*%
%ADD20R,0.04016X0.02520*%
%ADD21R,0.06496X0.10000*%
%ADD22O,0.02362X0.09055*%
%ADD23R,0.02520X0.04016*%
%ADD24R,0.02362X0.02953*%
%ADD25C,0.00787*%
%ADD26C,0.01969*%
%ADD27C,0.11798*%
%ADD28C,0.00984*%
%ADD29C,0.06693*%
%ADD30C,0.05906*%
%ADD31C,0.39370*%
%ADD32C,0.11024*%
%ADD33C,0.07874*%
%ADD34C,0.03543*%
G04:AMPARAMS|DCode=35|XSize=62.01mil|YSize=62.01mil|CornerRadius=0mil|HoleSize=0mil|Usage=FLASHONLY|Rotation=0.000|XOffset=0mil|YOffset=0mil|HoleType=Round|Shape=Octagon|*
%AMOCTAGOND35*
4,1,8,0.03100,-0.01550,0.03100,0.01550,0.01550,0.03100,-0.01550,0.03100,-0.03100,0.01550,-0.03100,-0.01550,-0.01550,-0.03100,0.01550,-0.03100,0.03100,-0.01550,0.0*
%
%ADD35OCTAGOND35*%

%ADD36C,0.19685*%
%ADD37C,0.05000*%
%ADD38C,0.02362*%
%ADD39C,0.01000*%
%ADD40C,0.00492*%
%ADD41C,0.01008*%
D25*
X277559Y194095D02*
X280118D01*
X277559D02*
Y196653D01*
Y212598D02*
Y215158D01*
X280118D01*
X296063D02*
X298622D01*
Y212598D02*
Y215158D01*
X296063Y194095D02*
X298622D01*
Y196653D01*
X126772Y181791D02*
X128002D01*
X129232Y179331D02*
Y180561D01*
X128002Y181791D02*
X129232Y180561D01*
X126772Y165256D02*
X129232D01*
Y167717D01*
X112697Y181791D02*
X115157D01*
X112697Y179331D02*
Y181791D01*
Y165256D02*
X115157D01*
X112697D02*
Y167717D01*
X295768Y98081D02*
Y99311D01*
X293307Y96850D02*
X294537D01*
X295768Y98081D01*
X279232Y96850D02*
Y99311D01*
Y96850D02*
X281693D01*
X295768Y110925D02*
Y113386D01*
X293307D02*
X295768D01*
X279232Y110925D02*
Y113386D01*
X281693D01*
X25492Y55059D02*
Y60886D01*
X49114Y55059D02*
Y60886D01*
X34390Y69784D02*
X40216D01*
X34390Y46161D02*
X40216D01*
X11713Y49114D02*
Y66831D01*
X20216D01*
X11713Y49114D02*
X20216D01*
X322382Y42815D02*
X328209D01*
X322382Y66437D02*
X328209D01*
X313484Y51713D02*
Y57539D01*
X337106Y51713D02*
Y57539D01*
X316437Y29035D02*
X334154D01*
X316437D02*
Y37539D01*
X334154Y29035D02*
Y37539D01*
X34587Y281398D02*
X40413D01*
X34587Y257776D02*
X40413D01*
X49311Y266673D02*
Y272500D01*
X25689Y266673D02*
Y272500D01*
X28642Y295177D02*
X46358D01*
Y286673D02*
Y295177D01*
X28642Y286673D02*
Y295177D01*
X118051Y327953D02*
X123878D01*
X118051Y304331D02*
X123878D01*
X132776Y313228D02*
Y319055D01*
X109153Y313228D02*
Y319055D01*
X112106Y341732D02*
X129823D01*
Y333228D02*
Y341732D01*
X112106Y333228D02*
Y341732D01*
X31890Y157598D02*
X62992D01*
X31890Y169016D02*
X62992D01*
X31890Y157598D02*
Y169016D01*
X62992Y157598D02*
Y169016D01*
X233071Y297835D02*
X295669D01*
X233071Y274213D02*
X295669D01*
Y297835D01*
X233071Y274213D02*
Y297835D01*
D26*
X5118Y305610D02*
X16019Y316511D01*
X5118Y47244D02*
Y305610D01*
Y47244D02*
X15650Y36713D01*
X36713Y15650D02*
X47244Y5118D01*
X331890D01*
X342126Y15354D01*
X362598Y35827D02*
X372835Y46063D01*
Y306791D01*
X362229Y317397D02*
X372835Y306791D01*
X330413Y349213D02*
X341019Y338607D01*
X48720Y349213D02*
X330413D01*
X37820Y338312D02*
X48720Y349213D01*
D28*
X278642Y191535D02*
G03*
X278642Y191535I-492J0D01*
G01*
X130957Y183024D02*
G03*
X130957Y183024I-492J0D01*
G01*
X297492Y95618D02*
G03*
X297492Y95618I-492J0D01*
G01*
X63346Y173346D02*
G03*
X63346Y173346I-492J0D01*
G01*
X295709Y303937D02*
G03*
X295709Y303937I-492J0D01*
G01*
D38*
X292913Y293898D02*
G03*
X292913Y293898I-1181J0D01*
G01*
D39*
X249311Y319094D02*
X250886D01*
X249311Y323031D02*
X250886D01*
X270669Y218012D02*
X272244D01*
X270669Y214075D02*
X272244D01*
X265428Y198049D02*
X267003D01*
X265428Y201986D02*
X267003D01*
X309941Y205512D02*
X311516D01*
X309941Y209449D02*
X311516D01*
X249606Y187205D02*
Y188779D01*
X253543Y187205D02*
Y188779D01*
X282579Y319094D02*
X284154D01*
X282579Y323031D02*
X284154D01*
X237894Y319094D02*
X239469D01*
X237894Y323031D02*
X239469D01*
X263025Y249410D02*
X264600D01*
X263025Y253346D02*
X264600D01*
X253740Y250689D02*
Y252264D01*
X249803Y250689D02*
Y252264D01*
X239272Y249410D02*
X240846D01*
X239272Y253346D02*
X240846D01*
X359492Y226327D02*
Y255327D01*
X344992Y226327D02*
X359492D01*
X344992D02*
Y255327D01*
X359492D01*
X344445Y189260D02*
Y218260D01*
X358945D01*
Y189260D02*
Y218260D01*
X344445Y189260D02*
X358945D01*
X274606Y185138D02*
X276181D01*
X274606Y189075D02*
X276181D01*
X304134Y190945D02*
Y192520D01*
X308071Y190945D02*
Y192520D01*
X282179Y167618D02*
X283753D01*
X282179Y171555D02*
X283753D01*
X294101Y146949D02*
X295676D01*
X294101Y150886D02*
X295676D01*
X282179D02*
X283753D01*
X282179Y146949D02*
X283753D01*
X294101Y141142D02*
X295676D01*
X294101Y137205D02*
X295676D01*
X306995Y150886D02*
X308569D01*
X306995Y146949D02*
X308569D01*
X294101Y167618D02*
X295676D01*
X294101Y171555D02*
X295676D01*
X266634Y146949D02*
X268209D01*
X266634Y150886D02*
X268209D01*
X266634Y137205D02*
X268209D01*
X266634Y141142D02*
X268209D01*
X312106Y168799D02*
Y170374D01*
X308169Y168799D02*
Y170374D01*
X265158Y168799D02*
Y170374D01*
X269094Y168799D02*
Y170374D01*
X249114Y329232D02*
X250689D01*
X249114Y325295D02*
X250689D01*
X265428Y207579D02*
X267003D01*
X265428Y203642D02*
X267003D01*
X345827Y147795D02*
X360827D01*
X345827Y157795D02*
X360827D01*
X343327Y165295D02*
X345827Y167795D01*
X343327Y160295D02*
Y165295D01*
Y160295D02*
X345827Y157795D01*
X343327Y155295D02*
X345827Y157795D01*
X343327Y150295D02*
Y155295D01*
Y150295D02*
X345827Y147795D01*
X343327Y145295D02*
X345827Y147795D01*
X343327Y140295D02*
Y145295D01*
Y140295D02*
X345827Y137795D01*
X360827D01*
X363327Y140295D01*
Y145295D01*
X360827Y147795D02*
X363327Y145295D01*
X360827Y147795D02*
X363327Y150295D01*
Y155295D01*
X360827Y157795D02*
X363327Y155295D01*
X360827Y157795D02*
X363327Y160295D01*
Y165295D01*
X360827Y167795D02*
X363327Y165295D01*
X345827Y167795D02*
X360827D01*
X255709Y193799D02*
X267028D01*
Y183465D02*
Y193799D01*
X255709Y183465D02*
X267028D01*
X255709D02*
Y193799D01*
X276900Y225854D02*
X278899D01*
X277900D01*
Y219856D01*
X276900D01*
X278899D01*
X285897Y224854D02*
X284897Y225854D01*
X282898D01*
X281898Y224854D01*
Y220856D01*
X282898Y219856D01*
X284897D01*
X285897Y220856D01*
X287896Y219856D02*
X289896D01*
X288896D01*
Y225854D01*
X287896Y224854D01*
D40*
X248425Y313386D02*
Y315354D01*
X249409D01*
X249737Y315026D01*
Y314370D01*
X249409Y314042D01*
X248425D01*
X249081D02*
X249737Y313386D01*
X250393Y315026D02*
X250721Y315354D01*
X251377D01*
X251705Y315026D01*
Y314698D01*
X251377Y314370D01*
X251049D01*
X251377D01*
X251705Y314042D01*
Y313714D01*
X251377Y313386D01*
X250721D01*
X250393Y313714D01*
X259580Y139927D02*
X259252Y140255D01*
X258596D01*
X258268Y139927D01*
Y138615D01*
X258596Y138287D01*
X259252D01*
X259580Y138615D01*
X260236Y138287D02*
X260892D01*
X260564D01*
Y140255D01*
X260236Y139927D01*
X274829Y170439D02*
X274501Y170767D01*
X273845D01*
X273517Y170439D01*
Y169127D01*
X273845Y168799D01*
X274501D01*
X274829Y169127D01*
X276797Y168799D02*
X275485D01*
X276797Y170111D01*
Y170439D01*
X276469Y170767D01*
X275813D01*
X275485Y170439D01*
X258792Y149179D02*
X258464Y149507D01*
X257808D01*
X257480Y149179D01*
Y147867D01*
X257808Y147539D01*
X258464D01*
X258792Y147867D01*
X259448Y149179D02*
X259776Y149507D01*
X260432D01*
X260760Y149179D01*
Y148851D01*
X260432Y148523D01*
X260104D01*
X260432D01*
X260760Y148195D01*
Y147867D01*
X260432Y147539D01*
X259776D01*
X259448Y147867D01*
X275125Y149770D02*
X274797Y150098D01*
X274141D01*
X273813Y149770D01*
Y148458D01*
X274141Y148130D01*
X274797D01*
X275125Y148458D01*
X276764Y148130D02*
Y150098D01*
X275781Y149114D01*
X277092D01*
X294232Y144652D02*
X293904Y144980D01*
X293248D01*
X292920Y144652D01*
Y143340D01*
X293248Y143012D01*
X293904D01*
X294232Y143340D01*
X296199Y144980D02*
X294888D01*
Y143996D01*
X295544Y144324D01*
X295871D01*
X296199Y143996D01*
Y143340D01*
X295871Y143012D01*
X295216D01*
X294888Y143340D01*
X301017Y153116D02*
X300689Y153444D01*
X300033D01*
X299705Y153116D01*
Y151804D01*
X300033Y151476D01*
X300689D01*
X301017Y151804D01*
X302984Y153444D02*
X302328Y153116D01*
X301673Y152460D01*
Y151804D01*
X302001Y151476D01*
X302657D01*
X302984Y151804D01*
Y152132D01*
X302657Y152460D01*
X301673D01*
X310669Y154002D02*
X310341Y154330D01*
X309685D01*
X309357Y154002D01*
Y152690D01*
X309685Y152362D01*
X310341D01*
X310669Y152690D01*
X311325Y154330D02*
X312636D01*
Y154002D01*
X311325Y152690D01*
Y152362D01*
X303182Y170636D02*
X302854Y170964D01*
X302198D01*
X301870Y170636D01*
Y169324D01*
X302198Y168996D01*
X302854D01*
X303182Y169324D01*
X303838Y170636D02*
X304166Y170964D01*
X304822D01*
X305150Y170636D01*
Y170308D01*
X304822Y169980D01*
X305150Y169652D01*
Y169324D01*
X304822Y168996D01*
X304166D01*
X303838Y169324D01*
Y169652D01*
X304166Y169980D01*
X303838Y170308D01*
Y170636D01*
X304166Y169980D02*
X304822D01*
X268765Y222667D02*
X268438Y222995D01*
X267781D01*
X267454Y222667D01*
Y221355D01*
X267781Y221027D01*
X268438D01*
X268765Y221355D01*
X269421D02*
X269749Y221027D01*
X270405D01*
X270733Y221355D01*
Y222667D01*
X270405Y222995D01*
X269749D01*
X269421Y222667D01*
Y222339D01*
X269749Y222011D01*
X270733D01*
X258989Y170439D02*
X258661Y170767D01*
X258005D01*
X257677Y170439D01*
Y169127D01*
X258005Y168799D01*
X258661D01*
X258989Y169127D01*
X259645Y168799D02*
X260301D01*
X259973D01*
Y170767D01*
X259645Y170439D01*
X261285D02*
X261613Y170767D01*
X262269D01*
X262597Y170439D01*
Y169127D01*
X262269Y168799D01*
X261613D01*
X261285Y169127D01*
Y170439D01*
X315190Y170636D02*
X314862Y170964D01*
X314206D01*
X313878Y170636D01*
Y169324D01*
X314206Y168996D01*
X314862D01*
X315190Y169324D01*
X315846Y168996D02*
X316502D01*
X316174D01*
Y170964D01*
X315846Y170636D01*
X317486Y168996D02*
X318142D01*
X317814D01*
Y170964D01*
X317486Y170636D01*
X311647Y192486D02*
X311319Y192814D01*
X310663D01*
X310335Y192486D01*
Y191174D01*
X310663Y190847D01*
X311319D01*
X311647Y191174D01*
X312302Y190847D02*
X312959D01*
X312631D01*
Y192814D01*
X312302Y192486D01*
X315254Y190847D02*
X313942D01*
X315254Y192158D01*
Y192486D01*
X314926Y192814D01*
X314270D01*
X313942Y192486D01*
X271194Y192979D02*
X270866Y193306D01*
X270210D01*
X269882Y192979D01*
Y191667D01*
X270210Y191339D01*
X270866D01*
X271194Y191667D01*
X271850Y191339D02*
X272506D01*
X272178D01*
Y193306D01*
X271850Y192979D01*
X273490D02*
X273818Y193306D01*
X274474D01*
X274802Y192979D01*
Y192650D01*
X274474Y192323D01*
X274146D01*
X274474D01*
X274802Y191995D01*
Y191667D01*
X274474Y191339D01*
X273818D01*
X273490Y191667D01*
X257513Y201049D02*
X257185Y201377D01*
X256529D01*
X256201Y201049D01*
Y199737D01*
X256529Y199409D01*
X257185D01*
X257513Y199737D01*
X258169Y199409D02*
X258825D01*
X258497D01*
Y201377D01*
X258169Y201049D01*
X261120Y201377D02*
X259808D01*
Y200393D01*
X260465Y200721D01*
X260792D01*
X261120Y200393D01*
Y199737D01*
X260792Y199409D01*
X260137D01*
X259808Y199737D01*
X307985Y214083D02*
X307657Y214411D01*
X307001D01*
X306673Y214083D01*
Y212771D01*
X307001Y212443D01*
X307657D01*
X307985Y212771D01*
X308641Y212443D02*
X309297D01*
X308969D01*
Y214411D01*
X308641Y214083D01*
X311593Y214411D02*
X310937Y214083D01*
X310281Y213427D01*
Y212771D01*
X310609Y212443D01*
X311265D01*
X311593Y212771D01*
Y213099D01*
X311265Y213427D01*
X310281D01*
X257710Y206266D02*
X257382Y206594D01*
X256726D01*
X256398Y206266D01*
Y204954D01*
X256726Y204626D01*
X257382D01*
X257710Y204954D01*
X258366Y204626D02*
X259021D01*
X258694D01*
Y206594D01*
X258366Y206266D01*
X260005Y206594D02*
X261317D01*
Y206266D01*
X260005Y204954D01*
Y204626D01*
X250936Y196646D02*
X250607Y196974D01*
X249952D01*
X249624Y196646D01*
Y195334D01*
X249952Y195006D01*
X250607D01*
X250936Y195334D01*
X251591Y195006D02*
X252247D01*
X251920D01*
Y196974D01*
X251591Y196646D01*
X253231D02*
X253559Y196974D01*
X254215D01*
X254543Y196646D01*
Y196318D01*
X254215Y195990D01*
X254543Y195662D01*
Y195334D01*
X254215Y195006D01*
X253559D01*
X253231Y195334D01*
Y195662D01*
X253559Y195990D01*
X253231Y196318D01*
Y196646D01*
X253559Y195990D02*
X254215D01*
X280672Y327623D02*
X280344Y327951D01*
X279688D01*
X279360Y327623D01*
Y326311D01*
X279688Y325984D01*
X280344D01*
X280672Y326311D01*
X281328Y325984D02*
X281984D01*
X281656D01*
Y327951D01*
X281328Y327623D01*
X282968Y326311D02*
X283296Y325984D01*
X283951D01*
X284279Y326311D01*
Y327623D01*
X283951Y327951D01*
X283296D01*
X282968Y327623D01*
Y327295D01*
X283296Y326967D01*
X284279D01*
X248950Y332939D02*
X248622Y333267D01*
X247966D01*
X247638Y332939D01*
Y331627D01*
X247966Y331299D01*
X248622D01*
X248950Y331627D01*
X250918Y331299D02*
X249606D01*
X250918Y332611D01*
Y332939D01*
X250590Y333267D01*
X249934D01*
X249606Y332939D01*
X251573D02*
X251902Y333267D01*
X252557D01*
X252885Y332939D01*
Y331627D01*
X252557Y331299D01*
X251902D01*
X251573Y331627D01*
Y332939D01*
X235972Y327623D02*
X235644Y327951D01*
X234988D01*
X234660Y327623D01*
Y326311D01*
X234988Y325984D01*
X235644D01*
X235972Y326311D01*
X237940Y325984D02*
X236628D01*
X237940Y327295D01*
Y327623D01*
X237612Y327951D01*
X236956D01*
X236628Y327623D01*
X238596Y325984D02*
X239251D01*
X238924D01*
Y327951D01*
X238596Y327623D01*
X11776Y76351D02*
Y77663D01*
X12432Y78319D01*
X13088Y77663D01*
Y76351D01*
Y77335D01*
X11776D01*
X13744Y76351D02*
X14400D01*
X14072D01*
Y78319D01*
X13744Y77991D01*
X277867Y120671D02*
X277539Y120999D01*
X276883D01*
X276555Y120671D01*
Y120343D01*
X276883Y120015D01*
X277539D01*
X277867Y119687D01*
Y119360D01*
X277539Y119032D01*
X276883D01*
X276555Y119360D01*
X278523Y120999D02*
Y119032D01*
X279179Y119687D01*
X279835Y119032D01*
Y120999D01*
X280491Y119032D02*
X281147D01*
X280819D01*
Y120999D01*
X280491Y120671D01*
X309827Y73034D02*
Y74345D01*
X310483Y75001D01*
X311139Y74345D01*
Y73034D01*
Y74018D01*
X309827D01*
X313107Y73034D02*
X311795D01*
X313107Y74345D01*
Y74673D01*
X312779Y75001D01*
X312123D01*
X311795Y74673D01*
X111401Y189103D02*
X111073Y189431D01*
X110417D01*
X110089Y189103D01*
Y188775D01*
X110417Y188447D01*
X111073D01*
X111401Y188119D01*
Y187791D01*
X111073Y187463D01*
X110417D01*
X110089Y187791D01*
X112057Y189431D02*
Y187463D01*
X112713Y188119D01*
X113369Y187463D01*
Y189431D01*
X115337Y187463D02*
X114025D01*
X115337Y188775D01*
Y189103D01*
X115009Y189431D01*
X114353D01*
X114025Y189103D01*
X22076Y298051D02*
Y299363D01*
X22732Y300019D01*
X23388Y299363D01*
Y298051D01*
Y299035D01*
X22076D01*
X24044Y299691D02*
X24372Y300019D01*
X25028D01*
X25356Y299691D01*
Y299363D01*
X25028Y299035D01*
X24700D01*
X25028D01*
X25356Y298707D01*
Y298379D01*
X25028Y298051D01*
X24372D01*
X24044Y298379D01*
X105503Y344605D02*
Y345917D01*
X106159Y346573D01*
X106815Y345917D01*
Y344605D01*
Y345589D01*
X105503D01*
X108455Y344605D02*
Y346573D01*
X107471Y345589D01*
X108783D01*
X270374Y178247D02*
Y176279D01*
X271686D01*
X272342D02*
X272998D01*
X272670D01*
Y178247D01*
X272342Y177919D01*
X276476Y161220D02*
Y159252D01*
X277788D01*
X279756D02*
X278444D01*
X279756Y160564D01*
Y160892D01*
X279428Y161220D01*
X278772D01*
X278444Y160892D01*
X277165Y145570D02*
Y143602D01*
X278477D01*
X279133Y145242D02*
X279461Y145570D01*
X280117D01*
X280445Y145242D01*
Y144914D01*
X280117Y144586D01*
X279789D01*
X280117D01*
X280445Y144258D01*
Y143930D01*
X280117Y143602D01*
X279461D01*
X279133Y143930D01*
X298721Y160629D02*
Y158661D01*
X300032D01*
X301672D02*
Y160629D01*
X300688Y159645D01*
X302000D01*
X318209Y140157D02*
Y138189D01*
X319521D01*
X321488Y140157D02*
X320177D01*
Y139173D01*
X320832Y139501D01*
X321161D01*
X321488Y139173D01*
Y138517D01*
X321161Y138189D01*
X320504D01*
X320177Y138517D01*
X301060Y297451D02*
Y295483D01*
X302372D01*
X304340Y297451D02*
X303684Y297123D01*
X303028Y296467D01*
Y295812D01*
X303356Y295483D01*
X304012D01*
X304340Y295812D01*
Y296139D01*
X304012Y296467D01*
X303028D01*
X305610Y178247D02*
Y176279D01*
X306922D01*
X307578Y178247D02*
X308890Y176279D01*
Y178247D02*
X307578Y176279D01*
X310858D02*
X309546D01*
X310858Y177591D01*
Y177919D01*
X310530Y178247D01*
X309874D01*
X309546Y177919D01*
X259760Y256383D02*
Y258351D01*
X260744D01*
X261072Y258023D01*
Y257367D01*
X260744Y257039D01*
X259760D01*
X260416D02*
X261072Y256383D01*
X261728D02*
X262384D01*
X262056D01*
Y258351D01*
X261728Y258023D01*
X249760Y258484D02*
Y260451D01*
X250744D01*
X251072Y260123D01*
Y259467D01*
X250744Y259139D01*
X249760D01*
X250416D02*
X251072Y258484D01*
X253040D02*
X251728D01*
X253040Y259795D01*
Y260123D01*
X252712Y260451D01*
X252056D01*
X251728Y260123D01*
X236060Y256383D02*
Y258351D01*
X237044D01*
X237372Y258023D01*
Y257367D01*
X237044Y257039D01*
X236060D01*
X236716D02*
X237372Y256383D01*
X239012D02*
Y258351D01*
X238028Y257367D01*
X239340D01*
X32988Y182891D02*
X32660Y183219D01*
X32004D01*
X31676Y182891D01*
Y182563D01*
X32004Y182235D01*
X32660D01*
X32988Y181907D01*
Y181579D01*
X32660Y181251D01*
X32004D01*
X31676Y181579D01*
X33644Y181251D02*
Y183219D01*
X34628D01*
X34956Y182891D01*
Y182235D01*
X34628Y181907D01*
X33644D01*
X35612Y183219D02*
X36924D01*
X36268D01*
Y181251D01*
X37580D02*
X38236D01*
X37908D01*
Y183219D01*
X37580Y182891D01*
X233160Y313351D02*
Y311384D01*
X234144D01*
X234472Y311712D01*
Y313023D01*
X234144Y313351D01*
X233160D01*
X236440Y313023D02*
X236112Y313351D01*
X235456D01*
X235128Y313023D01*
Y311712D01*
X235456Y311384D01*
X236112D01*
X236440Y311712D01*
X237096Y312367D02*
X238407D01*
X239063Y313351D02*
Y311384D01*
X240047D01*
X240375Y311712D01*
Y313023D01*
X240047Y313351D01*
X239063D01*
X242343Y313023D02*
X242015Y313351D01*
X241359D01*
X241031Y313023D01*
Y311712D01*
X241359Y311384D01*
X242015D01*
X242343Y311712D01*
X346307Y260573D02*
X344995D01*
Y258606D01*
X346307D01*
X344995Y259589D02*
X345651D01*
X346963Y260573D02*
X348275Y258606D01*
Y260573D02*
X346963Y258606D01*
X348931Y260573D02*
X350243D01*
X349587D01*
Y258606D01*
X350899Y258278D02*
X352211D01*
X352867Y258606D02*
X353523D01*
X353195D01*
Y260573D01*
X352867Y260245D01*
X345712Y223576D02*
X344400D01*
Y221609D01*
X345712D01*
X344400Y222593D02*
X345056D01*
X346368Y223576D02*
X347680Y221609D01*
Y223576D02*
X346368Y221609D01*
X348336Y223576D02*
X349648D01*
X348992D01*
Y221609D01*
X350304Y221281D02*
X351616D01*
X353583Y221609D02*
X352272D01*
X353583Y222921D01*
Y223249D01*
X353255Y223576D01*
X352599D01*
X352272Y223249D01*
X255512Y197539D02*
X256824D01*
X256168D01*
Y195571D01*
X258792Y197211D02*
X258464Y197539D01*
X257808D01*
X257480Y197211D01*
Y195899D01*
X257808Y195571D01*
X258464D01*
X258792Y195899D01*
X259448Y197539D02*
X260759Y195571D01*
Y197539D02*
X259448Y195571D01*
X262399Y197539D02*
X261743D01*
X261415Y197211D01*
Y195899D01*
X261743Y195571D01*
X262399D01*
X262727Y195899D01*
Y197211D01*
X262399Y197539D01*
X340453Y164764D02*
Y165092D01*
X340781D01*
Y164764D01*
X340453D01*
X256299Y181102D02*
Y181430D01*
X256627D01*
Y181102D01*
X256299D01*
D41*
X221850Y344089D02*
Y339090D01*
X222850Y338090D01*
X224849D01*
X225849Y339090D01*
Y344089D01*
X227849Y338090D02*
Y344089D01*
X230848D01*
X231847Y343089D01*
Y341090D01*
X230848Y340090D01*
X227849D01*
X237845Y343089D02*
X236845Y344089D01*
X234846D01*
X233846Y343089D01*
Y339090D01*
X234846Y338090D01*
X236845D01*
X237845Y339090D01*
X239845Y338090D02*
Y344089D01*
X243843Y338090D01*
Y344089D01*
X249841Y343089D02*
X248842Y344089D01*
X246842D01*
X245843Y343089D01*
Y342089D01*
X246842Y341090D01*
X248842D01*
X249841Y340090D01*
Y339090D01*
X248842Y338090D01*
X246842D01*
X245843Y339090D01*
X251841Y344089D02*
Y338090D01*
X255839D01*
X257839Y341090D02*
X261838D01*
X263837Y338090D02*
Y342089D01*
X265836Y344089D01*
X267835Y342089D01*
Y338090D01*
Y341090D01*
X263837D01*
X269835Y344089D02*
Y338090D01*
X272834D01*
X273834Y339090D01*
Y340090D01*
X272834Y341090D01*
X269835D01*
X272834D01*
X273834Y342089D01*
Y343089D01*
X272834Y344089D01*
X269835D01*
X279832Y343089D02*
X278832Y344089D01*
X276833D01*
X275833Y343089D01*
Y342089D01*
X276833Y341090D01*
X278832D01*
X279832Y340090D01*
Y339090D01*
X278832Y338090D01*
X276833D01*
X275833Y339090D01*
X281831Y341090D02*
X285830D01*
X291828Y344089D02*
X287829D01*
Y341090D01*
X289828D01*
X287829D01*
Y338090D01*
X293827Y344089D02*
Y338090D01*
X297826D01*
X303824Y343089D02*
X302824Y344089D01*
X300825D01*
X299825Y343089D01*
Y342089D01*
X300825Y341090D01*
X302824D01*
X303824Y340090D01*
Y339090D01*
X302824Y338090D01*
X300825D01*
X299825Y339090D01*
X305823Y341090D02*
X309822D01*
X311821Y338090D02*
Y344089D01*
X314820D01*
X315820Y343089D01*
Y341090D01*
X314820Y340090D01*
X311821D01*
X313821D02*
X315820Y338090D01*
X321818Y344089D02*
X317819D01*
Y341090D01*
X319819D01*
X317819D01*
Y338090D01*
X327816Y343089D02*
X326816Y344089D01*
X324817D01*
X323817Y343089D01*
Y342089D01*
X324817Y341090D01*
X326816D01*
X327816Y340090D01*
Y339090D01*
X326816Y338090D01*
X324817D01*
X323817Y339090D01*
M02*
