M48
;Layer_Color=9474304
;FILE_FORMAT=2:5
INCH,LZ
;TYPE=PLATED
T1F00S00C0.01968
T2F00S00C0.02800
T3F00S00C0.03799
T4F00S00C0.04724
T5F00S00C0.06693
T6F00S00C0.13780
T7F00S00C0.25591
%
T01
X0353445Y019626
Y0201181
Y0206102
Y0211024
X0350492Y0233563
Y0238484
Y0243406
Y0248327
T02
X004439Y0030217
X0075689Y003248
X0070472Y0048622
X0066634Y0070177
X0057579Y0088878
X0065453Y0106791
X0061516Y0127559
X0085039Y0124114
X0090256Y0111909
X0100689Y0097835
X0080512Y0095866
X0085827Y0079134
X0087205Y0060925
X0101378Y004252
X0092421Y0022933
X0069882Y0016142
X010561Y0080216
X0102067Y0127559
X0096161Y0142421
X0080807Y0146752
X0107776Y0153839
X0017717Y0147441
X0018012Y0126673
X0018898Y0108169
Y00875
X0127559Y0078839
X0122835Y010561
X0117028Y011939
X0144882Y0141339
X0149508Y0160827
X0163091Y0147736
X0165551Y0128937
X0186614Y0129232
X0209744Y0129528
X0230413Y0124902
X0247835Y0136811
X0258957Y0123622
X0255512Y0088287
X0218996Y0084744
X023189Y0069291
X0241634Y0052756
X0240354Y0035138
X0254724Y0038484
X0247736Y0020276
X0182677Y0024114
X0185039Y0049213
X0175689Y0068504
X0150591Y0067126
X0158858Y0080315
X0152756Y0094587
X0186713Y00875
X0201476Y0067716
X0196161Y0148917
X0218799Y0151772
X0234252Y0156102
X0250394Y016063
X0209055Y0166732
X017874Y0161713
X0113484Y0053839
X0120571Y0036024
X0113484Y0020965
X026939Y0026181
Y0052854
X0294882Y005187
X0298622Y0073622
X0304528Y0086122
X0271654Y0078543
X030187Y0124213
X0319783Y0125098
X0331791Y0138681
X0333957Y0160039
X0319587Y015748
X0270177Y0157776
X0341634Y011939
X0351378Y0103543
X0341437Y0090453
X0350984Y0079921
X035Y0054035
X0301279Y0032087
X0318701Y0177362
X0331398Y0182776
X0345571Y0180413
X0325492Y0201279
X0318209Y0195177
X032126Y0215945
X0314469Y0216595
X0326575Y0222146
X0335138
X0331988Y0248622
X0316831Y0261811
X031437Y027687
X0312992Y0309646
X0298819Y0219783
X0293012Y0223524
X0274606Y0233268
X0274915Y0241055
X0260138Y0245472
X0256398Y0234744
X0262205Y022441
X0258071Y0214469
X0249213Y0222539
X0251279Y0202362
X0242421Y0205315
X0227362Y019813
X0228051Y0182776
X021191Y0183071
X0223622Y0169685
X0259842Y0178051
X0231988Y0228445
X0211614Y0232776
X0215551Y0212008
X0185827Y0217717
X0177559Y0232874
X0160925Y0238976
X0158169Y0222638
X0144783Y021565
X0141142Y0233268
X0147539Y0248917
X0148327Y0274213
X0164173Y0266732
X0163091Y028435
X0153839Y0303543
X0149705Y0319685
X0164173Y0320472
X0139567Y0290256
X0141732Y0195965
X0166634Y0201378
X0162008Y0183661
X0191437Y019626
X0210531Y0258661
X0224902Y0318602
X0264567Y0318602
X026565Y0284646
X0094587Y0288287
X0082284Y0282972
X006191Y0287008
X0067323Y0302461
X005187Y0308957
X0043209Y0322638
X0029429Y0317323
X0014469Y0287402
X0014862Y0244685
X0015354Y0213878
X0016339Y0177953
X0066831Y0189173
X0062402Y0207087
X0080807Y02
X0097244Y0205906
X0098524Y0234547
X0093504Y0249016
X0091437Y0266634
X0069095Y0271555
X0073721Y0249606
X0070177Y0224803
X0082284Y0223327
X0058465Y0234154
X0085827Y0309842
X0093504Y0322342
X0084941Y0335433
X0068799Y0325492
X0049705Y0336319
X0143012Y0334941
X0158858Y0337303
X019124Y0328051
X0313779Y0329134
T03
X0348327Y0142795
X0358327
Y0152795
Y0162795
X0348327
Y0152795
T04
X0037303Y0057973
X0325295Y0054626
X0120965Y0316142
X00375Y0269587
T05
X0027303Y0047972
Y0067972
X0047303
Y0047972
X0315295Y0044626
X0335295
Y0064626
X0315295
X0130965Y0306142
X0110965
X00475Y0279587
X00275
Y0259587
X00475
X0110965Y0326142
X0130965
T06
X0016535Y0016535
X0361417
X0016535Y0337795
X0361417
T07
X0156447Y0036122
X0211516
X0339272Y0294587
X0199705
M30
