%FSLAX25Y25*%
%MOIN*%
G70*
G01*
G75*
G04 Layer_Physical_Order=1*
G04 Layer_Color=9048648*
%ADD10C,0.11794*%
%ADD11O,0.00984X0.03150*%
%ADD12O,0.03150X0.00984*%
%ADD13R,0.12205X0.12205*%
%ADD14R,0.07874X0.07874*%
%ADD15O,0.00591X0.03189*%
%ADD16O,0.03189X0.00591*%
%ADD17R,0.07874X0.07874*%
G04:AMPARAMS|DCode=18|XSize=23.62mil|YSize=35.43mil|CornerRadius=5.91mil|HoleSize=0mil|Usage=FLASHONLY|Rotation=0.000|XOffset=0mil|YOffset=0mil|HoleType=Round|Shape=RoundedRectangle|*
%AMROUNDEDRECTD18*
21,1,0.02362,0.02362,0,0,0.0*
21,1,0.01181,0.03543,0,0,0.0*
1,1,0.01181,0.00591,-0.01181*
1,1,0.01181,-0.00591,-0.01181*
1,1,0.01181,-0.00591,0.01181*
1,1,0.01181,0.00591,0.01181*
%
%ADD18ROUNDEDRECTD18*%
G04:AMPARAMS|DCode=19|XSize=23.62mil|YSize=35.43mil|CornerRadius=5.91mil|HoleSize=0mil|Usage=FLASHONLY|Rotation=90.000|XOffset=0mil|YOffset=0mil|HoleType=Round|Shape=RoundedRectangle|*
%AMROUNDEDRECTD19*
21,1,0.02362,0.02362,0,0,90.0*
21,1,0.01181,0.03543,0,0,90.0*
1,1,0.01181,0.01181,0.00591*
1,1,0.01181,0.01181,-0.00591*
1,1,0.01181,-0.01181,-0.00591*
1,1,0.01181,-0.01181,0.00591*
%
%ADD19ROUNDEDRECTD19*%
%ADD20R,0.04016X0.02520*%
%ADD21R,0.06496X0.10000*%
%ADD22O,0.02362X0.09055*%
%ADD23R,0.02520X0.04016*%
%ADD24R,0.02362X0.02953*%
%ADD25C,0.00787*%
%ADD26C,0.01969*%
%ADD27C,0.11798*%
%ADD28C,0.00984*%
%ADD29C,0.06693*%
%ADD30C,0.05906*%
%ADD31C,0.39370*%
%ADD32C,0.11024*%
%ADD33C,0.07874*%
%ADD34C,0.03543*%
G04:AMPARAMS|DCode=35|XSize=62.01mil|YSize=62.01mil|CornerRadius=0mil|HoleSize=0mil|Usage=FLASHONLY|Rotation=0.000|XOffset=0mil|YOffset=0mil|HoleType=Round|Shape=Octagon|*
%AMOCTAGOND35*
4,1,8,0.03100,-0.01550,0.03100,0.01550,0.01550,0.03100,-0.01550,0.03100,-0.03100,0.01550,-0.03100,-0.01550,-0.01550,-0.03100,0.01550,-0.03100,0.03100,-0.01550,0.0*
%
%ADD35OCTAGOND35*%

%ADD36C,0.19685*%
%ADD37C,0.05000*%
G36*
X377953Y0D02*
X0D01*
Y354331D01*
X377953D01*
Y0D01*
D02*
G37*
%LPC*%
G36*
X88190Y123130D02*
X86024D01*
Y120964D01*
X86697Y121243D01*
X87384Y121770D01*
X87911Y122456D01*
X88190Y123130D01*
D02*
G37*
G36*
X17028Y125689D02*
X14861D01*
X15140Y125015D01*
X15667Y124329D01*
X16354Y123802D01*
X17028Y123523D01*
Y125689D01*
D02*
G37*
G36*
X118012Y122540D02*
Y120374D01*
X120178D01*
X119899Y121048D01*
X119372Y121734D01*
X118685Y122261D01*
X118012Y122540D01*
D02*
G37*
G36*
X84055Y123130D02*
X81889D01*
X82168Y122456D01*
X82695Y121770D01*
X83381Y121243D01*
X84055Y120964D01*
Y123130D01*
D02*
G37*
G36*
X64666Y126575D02*
X62500D01*
Y124408D01*
X63174Y124688D01*
X63860Y125215D01*
X64387Y125901D01*
X64666Y126575D01*
D02*
G37*
G36*
X101083D02*
X98916D01*
X99195Y125901D01*
X99722Y125215D01*
X100409Y124688D01*
X101083Y124408D01*
Y126575D01*
D02*
G37*
G36*
X21162Y125689D02*
X18996D01*
Y123523D01*
X19670Y123802D01*
X20356Y124329D01*
X20883Y125015D01*
X21162Y125689D01*
D02*
G37*
G36*
X60532Y126575D02*
X58365D01*
X58644Y125901D01*
X59171Y125215D01*
X59858Y124688D01*
X60532Y124408D01*
Y126575D01*
D02*
G37*
G36*
X116043Y122540D02*
X115370Y122261D01*
X114683Y121734D01*
X114156Y121048D01*
X113877Y120374D01*
X116043D01*
Y122540D01*
D02*
G37*
G36*
X17913Y111320D02*
X17240Y111041D01*
X16553Y110514D01*
X16026Y109827D01*
X15747Y109153D01*
X17913D01*
Y111320D01*
D02*
G37*
G36*
X19882D02*
Y109153D01*
X22048D01*
X21769Y109827D01*
X21242Y110514D01*
X20556Y111041D01*
X19882Y111320D01*
D02*
G37*
G36*
X89272Y110925D02*
X87105D01*
X87384Y110252D01*
X87911Y109565D01*
X88598Y109038D01*
X89272Y108759D01*
Y110925D01*
D02*
G37*
G36*
X93406D02*
X91240D01*
Y108759D01*
X91914Y109038D01*
X92601Y109565D01*
X93127Y110252D01*
X93406Y110925D01*
D02*
G37*
G36*
X116043Y118405D02*
X113877D01*
X114156Y117732D01*
X114683Y117045D01*
X115370Y116518D01*
X116043Y116239D01*
Y118405D01*
D02*
G37*
G36*
X120178D02*
X118012D01*
Y116239D01*
X118685Y116518D01*
X119372Y117045D01*
X119899Y117732D01*
X120178Y118405D01*
D02*
G37*
G36*
X89272Y115060D02*
X88598Y114781D01*
X87911Y114254D01*
X87384Y113567D01*
X87105Y112894D01*
X89272D01*
Y115060D01*
D02*
G37*
G36*
X91240D02*
Y112894D01*
X93406D01*
X93127Y113567D01*
X92601Y114254D01*
X91914Y114781D01*
X91240Y115060D01*
D02*
G37*
G36*
X105218Y126575D02*
X103051D01*
Y124408D01*
X103725Y124688D01*
X104411Y125215D01*
X104938Y125901D01*
X105218Y126575D01*
D02*
G37*
G36*
X97146Y145572D02*
Y143405D01*
X99312D01*
X99033Y144079D01*
X98506Y144766D01*
X97819Y145293D01*
X97146Y145572D01*
D02*
G37*
G36*
X79823Y145768D02*
X77657D01*
X77936Y145094D01*
X78462Y144407D01*
X79149Y143880D01*
X79823Y143601D01*
Y145768D01*
D02*
G37*
G36*
X99312Y141437D02*
X97146D01*
Y139271D01*
X97819Y139550D01*
X98506Y140077D01*
X99033Y140763D01*
X99312Y141437D01*
D02*
G37*
G36*
X95177Y145572D02*
X94503Y145293D01*
X93817Y144766D01*
X93290Y144079D01*
X93011Y143405D01*
X95177D01*
Y145572D01*
D02*
G37*
G36*
X20867Y146457D02*
X18701D01*
Y144290D01*
X19374Y144569D01*
X20061Y145096D01*
X20588Y145783D01*
X20867Y146457D01*
D02*
G37*
G36*
X46457Y152284D02*
X43406D01*
Y147480D01*
X46457D01*
Y152284D01*
D02*
G37*
G36*
X83958Y145768D02*
X81791D01*
Y143601D01*
X82465Y143880D01*
X83152Y144407D01*
X83679Y145094D01*
X83958Y145768D01*
D02*
G37*
G36*
X16732Y146457D02*
X14566D01*
X14845Y145783D01*
X15372Y145096D01*
X16059Y144569D01*
X16732Y144290D01*
Y146457D01*
D02*
G37*
G36*
X95177Y141437D02*
X93011D01*
X93290Y140763D01*
X93817Y140077D01*
X94503Y139550D01*
X95177Y139271D01*
Y141437D01*
D02*
G37*
G36*
X17028Y129824D02*
X16354Y129545D01*
X15667Y129018D01*
X15140Y128331D01*
X14861Y127657D01*
X17028D01*
Y129824D01*
D02*
G37*
G36*
X18996D02*
Y127657D01*
X21162D01*
X20883Y128331D01*
X20356Y129018D01*
X19670Y129545D01*
X18996Y129824D01*
D02*
G37*
G36*
X84055Y127265D02*
X83381Y126986D01*
X82695Y126459D01*
X82168Y125772D01*
X81889Y125098D01*
X84055D01*
Y127265D01*
D02*
G37*
G36*
X86024D02*
Y125098D01*
X88190D01*
X87911Y125772D01*
X87384Y126459D01*
X86697Y126986D01*
X86024Y127265D01*
D02*
G37*
G36*
X101083Y130710D02*
X100409Y130431D01*
X99722Y129904D01*
X99195Y129217D01*
X98916Y128543D01*
X101083D01*
Y130710D01*
D02*
G37*
G36*
X103051D02*
Y128543D01*
X105218D01*
X104938Y129217D01*
X104411Y129904D01*
X103725Y130431D01*
X103051Y130710D01*
D02*
G37*
G36*
X60532D02*
X59858Y130431D01*
X59171Y129904D01*
X58644Y129217D01*
X58365Y128543D01*
X60532D01*
Y130710D01*
D02*
G37*
G36*
X62500D02*
Y128543D01*
X64666D01*
X64387Y129217D01*
X63860Y129904D01*
X63174Y130431D01*
X62500Y130710D01*
D02*
G37*
G36*
X66437Y109942D02*
Y107776D01*
X68603D01*
X68324Y108449D01*
X67797Y109136D01*
X67111Y109663D01*
X66437Y109942D01*
D02*
G37*
G36*
X56595Y92028D02*
X55921Y91750D01*
X55234Y91223D01*
X54707Y90536D01*
X54428Y89862D01*
X56595D01*
Y92028D01*
D02*
G37*
G36*
X58563D02*
Y89862D01*
X60729D01*
X60450Y90536D01*
X59923Y91223D01*
X59237Y91750D01*
X58563Y92028D01*
D02*
G37*
G36*
X254528Y91438D02*
X253854Y91159D01*
X253167Y90632D01*
X252640Y89945D01*
X252361Y89272D01*
X254528D01*
Y91438D01*
D02*
G37*
G36*
X256496D02*
Y89272D01*
X258662D01*
X258383Y89945D01*
X257856Y90632D01*
X257170Y91159D01*
X256496Y91438D01*
D02*
G37*
G36*
X79528Y94882D02*
X77361D01*
X77640Y94208D01*
X78167Y93521D01*
X78854Y92995D01*
X79528Y92716D01*
Y94882D01*
D02*
G37*
G36*
X83662D02*
X81496D01*
Y92716D01*
X82170Y92995D01*
X82856Y93521D01*
X83383Y94208D01*
X83662Y94882D01*
D02*
G37*
G36*
X151772Y93602D02*
X149605D01*
X149884Y92929D01*
X150411Y92242D01*
X151098Y91715D01*
X151772Y91436D01*
Y93602D01*
D02*
G37*
G36*
X155906D02*
X153740D01*
Y91436D01*
X154414Y91715D01*
X155101Y92242D01*
X155627Y92929D01*
X155906Y93602D01*
D02*
G37*
G36*
X187697Y90651D02*
Y88484D01*
X189863D01*
X189584Y89158D01*
X189057Y89845D01*
X188371Y90372D01*
X187697Y90651D01*
D02*
G37*
G36*
X60729Y87894D02*
X58563D01*
Y85727D01*
X59237Y86006D01*
X59923Y86533D01*
X60450Y87220D01*
X60729Y87894D01*
D02*
G37*
G36*
X218012Y87895D02*
X217338Y87616D01*
X216652Y87089D01*
X216125Y86402D01*
X215845Y85728D01*
X218012D01*
Y87895D01*
D02*
G37*
G36*
X258662Y87303D02*
X256496D01*
Y85137D01*
X257170Y85416D01*
X257856Y85943D01*
X258383Y86629D01*
X258662Y87303D01*
D02*
G37*
G36*
X56595Y87894D02*
X54428D01*
X54707Y87220D01*
X55234Y86533D01*
X55921Y86006D01*
X56595Y85727D01*
Y87894D01*
D02*
G37*
G36*
X19882Y90651D02*
Y88484D01*
X22048D01*
X21769Y89158D01*
X21242Y89845D01*
X20556Y90372D01*
X19882Y90651D01*
D02*
G37*
G36*
X185728D02*
X185055Y90372D01*
X184368Y89845D01*
X183841Y89158D01*
X183562Y88484D01*
X185728D01*
Y90651D01*
D02*
G37*
G36*
X219980Y87895D02*
Y85728D01*
X222147D01*
X221868Y86402D01*
X221341Y87089D01*
X220654Y87616D01*
X219980Y87895D01*
D02*
G37*
G36*
X17913Y90651D02*
X17240Y90372D01*
X16553Y89845D01*
X16026Y89158D01*
X15747Y88484D01*
X17913D01*
Y90651D01*
D02*
G37*
G36*
X99705Y96850D02*
X97538D01*
X97817Y96177D01*
X98344Y95490D01*
X99031Y94963D01*
X99705Y94684D01*
Y96850D01*
D02*
G37*
G36*
X68603Y105807D02*
X66437D01*
Y103641D01*
X67111Y103920D01*
X67797Y104447D01*
X68324Y105133D01*
X68603Y105807D01*
D02*
G37*
G36*
X17913Y107185D02*
X15747D01*
X16026Y106511D01*
X16553Y105825D01*
X17240Y105298D01*
X17913Y105019D01*
Y107185D01*
D02*
G37*
G36*
X125985Y104626D02*
X123819D01*
Y102460D01*
X124493Y102739D01*
X125179Y103266D01*
X125706Y103952D01*
X125985Y104626D01*
D02*
G37*
G36*
X64468Y105807D02*
X62302D01*
X62581Y105133D01*
X63108Y104447D01*
X63795Y103920D01*
X64468Y103641D01*
Y105807D01*
D02*
G37*
G36*
X123819Y108761D02*
Y106595D01*
X125985D01*
X125706Y107268D01*
X125179Y107955D01*
X124493Y108482D01*
X123819Y108761D01*
D02*
G37*
G36*
X64468Y109942D02*
X63795Y109663D01*
X63108Y109136D01*
X62581Y108449D01*
X62302Y107776D01*
X64468D01*
Y109942D01*
D02*
G37*
G36*
X22048Y107185D02*
X19882D01*
Y105019D01*
X20556Y105298D01*
X21242Y105825D01*
X21769Y106511D01*
X22048Y107185D01*
D02*
G37*
G36*
X121850Y108761D02*
X121177Y108482D01*
X120490Y107955D01*
X119963Y107268D01*
X119684Y106595D01*
X121850D01*
Y108761D01*
D02*
G37*
G36*
Y104626D02*
X119684D01*
X119963Y103952D01*
X120490Y103266D01*
X121177Y102739D01*
X121850Y102460D01*
Y104626D01*
D02*
G37*
G36*
X153740Y97737D02*
Y95571D01*
X155906D01*
X155627Y96245D01*
X155101Y96931D01*
X154414Y97458D01*
X153740Y97737D01*
D02*
G37*
G36*
X79528Y99017D02*
X78854Y98738D01*
X78167Y98211D01*
X77640Y97524D01*
X77361Y96850D01*
X79528D01*
Y99017D01*
D02*
G37*
G36*
X103840Y96850D02*
X101673D01*
Y94684D01*
X102347Y94963D01*
X103034Y95490D01*
X103560Y96177D01*
X103840Y96850D01*
D02*
G37*
G36*
X151772Y97737D02*
X151098Y97458D01*
X150411Y96931D01*
X149884Y96245D01*
X149605Y95571D01*
X151772D01*
Y97737D01*
D02*
G37*
G36*
X101673Y100985D02*
Y98819D01*
X103840D01*
X103560Y99493D01*
X103034Y100179D01*
X102347Y100706D01*
X101673Y100985D01*
D02*
G37*
G36*
X279035Y100197D02*
X278245D01*
X278298Y100161D01*
X278720Y100077D01*
X279035D01*
Y100197D01*
D02*
G37*
G36*
X81496Y99017D02*
Y96850D01*
X83662D01*
X83383Y97524D01*
X82856Y98211D01*
X82170Y98738D01*
X81496Y99017D01*
D02*
G37*
G36*
X99705Y100985D02*
X99031Y100706D01*
X98344Y100179D01*
X97817Y99493D01*
X97538Y98819D01*
X99705D01*
Y100985D01*
D02*
G37*
G36*
X51476Y152284D02*
X48425D01*
Y147480D01*
X51476D01*
Y152284D01*
D02*
G37*
G36*
X96260Y204921D02*
X94094D01*
X94373Y204248D01*
X94899Y203561D01*
X95586Y203034D01*
X96260Y202755D01*
Y204921D01*
D02*
G37*
G36*
X100395D02*
X98228D01*
Y202755D01*
X98902Y203034D01*
X99589Y203561D01*
X100116Y204248D01*
X100395Y204921D01*
D02*
G37*
G36*
X165650Y204528D02*
X164976Y204250D01*
X164289Y203723D01*
X163762Y203036D01*
X163483Y202362D01*
X165650D01*
Y204528D01*
D02*
G37*
G36*
X167618D02*
Y202362D01*
X169784D01*
X169505Y203036D01*
X168979Y203723D01*
X168292Y204250D01*
X167618Y204528D01*
D02*
G37*
G36*
X96260Y209056D02*
X95586Y208777D01*
X94899Y208250D01*
X94373Y207563D01*
X94094Y206890D01*
X96260D01*
Y209056D01*
D02*
G37*
G36*
X98228D02*
Y206890D01*
X100395D01*
X100116Y207563D01*
X99589Y208250D01*
X98902Y208777D01*
X98228Y209056D01*
D02*
G37*
G36*
X61417Y206102D02*
X59251D01*
X59530Y205429D01*
X60057Y204742D01*
X60744Y204215D01*
X61417Y203936D01*
Y206102D01*
D02*
G37*
G36*
X65552D02*
X63386D01*
Y203936D01*
X64060Y204215D01*
X64746Y204742D01*
X65273Y205429D01*
X65552Y206102D01*
D02*
G37*
G36*
X81791Y203151D02*
Y200984D01*
X83958D01*
X83679Y201658D01*
X83152Y202345D01*
X82465Y202871D01*
X81791Y203151D01*
D02*
G37*
G36*
X83958Y199016D02*
X81791D01*
Y196849D01*
X82465Y197128D01*
X83152Y197655D01*
X83679Y198342D01*
X83958Y199016D01*
D02*
G37*
G36*
X190453Y199410D02*
X189779Y199131D01*
X189092Y198604D01*
X188566Y197918D01*
X188286Y197244D01*
X190453D01*
Y199410D01*
D02*
G37*
G36*
X194588Y195276D02*
X192421D01*
Y193109D01*
X193095Y193388D01*
X193782Y193915D01*
X194308Y194602D01*
X194588Y195276D01*
D02*
G37*
G36*
X79823Y199016D02*
X77657D01*
X77936Y198342D01*
X78462Y197655D01*
X79149Y197128D01*
X79823Y196849D01*
Y199016D01*
D02*
G37*
G36*
X169784Y200394D02*
X167618D01*
Y198227D01*
X168292Y198506D01*
X168979Y199033D01*
X169505Y199720D01*
X169784Y200394D01*
D02*
G37*
G36*
X79823Y203151D02*
X79149Y202871D01*
X78462Y202345D01*
X77936Y201658D01*
X77657Y200984D01*
X79823D01*
Y203151D01*
D02*
G37*
G36*
X192421Y199410D02*
Y197244D01*
X194588D01*
X194308Y197918D01*
X193782Y198604D01*
X193095Y199131D01*
X192421Y199410D01*
D02*
G37*
G36*
X165650Y200394D02*
X163483D01*
X163762Y199720D01*
X164289Y199033D01*
X164976Y198506D01*
X165650Y198227D01*
Y200394D01*
D02*
G37*
G36*
X61417Y210237D02*
X60744Y209958D01*
X60057Y209431D01*
X59530Y208745D01*
X59251Y208071D01*
X61417D01*
Y210237D01*
D02*
G37*
G36*
X14370Y217028D02*
X13696Y216750D01*
X13010Y216223D01*
X12483Y215536D01*
X12204Y214862D01*
X14370D01*
Y217028D01*
D02*
G37*
G36*
X16339D02*
Y214862D01*
X18505D01*
X18226Y215536D01*
X17699Y216223D01*
X17012Y216750D01*
X16339Y217028D01*
D02*
G37*
G36*
X184843Y216732D02*
X182676D01*
X182955Y216059D01*
X183482Y215372D01*
X184169Y214845D01*
X184843Y214566D01*
Y216732D01*
D02*
G37*
G36*
X188977D02*
X186811D01*
Y214566D01*
X187485Y214845D01*
X188171Y215372D01*
X188698Y216059D01*
X188977Y216732D01*
D02*
G37*
G36*
X184843Y220867D02*
X184169Y220588D01*
X183482Y220061D01*
X182955Y219374D01*
X182676Y218701D01*
X184843D01*
Y220867D01*
D02*
G37*
G36*
X186811D02*
Y218701D01*
X188977D01*
X188698Y219374D01*
X188171Y220061D01*
X187485Y220588D01*
X186811Y220867D01*
D02*
G37*
G36*
X143799Y218800D02*
X143126Y218521D01*
X142439Y217994D01*
X141912Y217307D01*
X141633Y216634D01*
X143799D01*
Y218800D01*
D02*
G37*
G36*
X145768D02*
Y216634D01*
X147934D01*
X147655Y217307D01*
X147128Y217994D01*
X146441Y218521D01*
X145768Y218800D01*
D02*
G37*
G36*
X216535Y215158D02*
Y212992D01*
X218702D01*
X218423Y213666D01*
X217896Y214352D01*
X217209Y214879D01*
X216535Y215158D01*
D02*
G37*
G36*
X218702Y211024D02*
X216535D01*
Y208857D01*
X217209Y209136D01*
X217896Y209663D01*
X218423Y210350D01*
X218702Y211024D01*
D02*
G37*
G36*
X14370Y212894D02*
X12204D01*
X12483Y212220D01*
X13010Y211533D01*
X13696Y211006D01*
X14370Y210727D01*
Y212894D01*
D02*
G37*
G36*
X63386Y210237D02*
Y208071D01*
X65552D01*
X65273Y208745D01*
X64746Y209431D01*
X64060Y209958D01*
X63386Y210237D01*
D02*
G37*
G36*
X214567Y211024D02*
X212401D01*
X212680Y210350D01*
X213207Y209663D01*
X213893Y209136D01*
X214567Y208857D01*
Y211024D01*
D02*
G37*
G36*
X147934Y214665D02*
X145768D01*
Y212499D01*
X146441Y212778D01*
X147128Y213305D01*
X147655Y213992D01*
X147934Y214665D01*
D02*
G37*
G36*
X214567Y215158D02*
X213893Y214879D01*
X213207Y214352D01*
X212680Y213666D01*
X212401Y212992D01*
X214567D01*
Y215158D01*
D02*
G37*
G36*
X18505Y212894D02*
X16339D01*
Y210727D01*
X17012Y211006D01*
X17699Y211533D01*
X18226Y212220D01*
X18505Y212894D01*
D02*
G37*
G36*
X143799Y214665D02*
X141633D01*
X141912Y213992D01*
X142439Y213305D01*
X143126Y212778D01*
X143799Y212499D01*
Y214665D01*
D02*
G37*
G36*
X190453Y195276D02*
X188286D01*
X188566Y194602D01*
X189092Y193915D01*
X189779Y193388D01*
X190453Y193109D01*
Y195276D01*
D02*
G37*
G36*
X61476Y159055D02*
X58425D01*
Y154252D01*
X61476D01*
Y159055D01*
D02*
G37*
G36*
X106791Y156989D02*
X106118Y156710D01*
X105431Y156183D01*
X104904Y155497D01*
X104625Y154823D01*
X106791D01*
Y156989D01*
D02*
G37*
G36*
X51476Y159055D02*
X48425D01*
Y154252D01*
X51476D01*
Y159055D01*
D02*
G37*
G36*
X56457D02*
X53405D01*
Y154252D01*
X56457D01*
Y159055D01*
D02*
G37*
G36*
X46457Y172362D02*
X43406D01*
Y167559D01*
X46457D01*
Y172362D01*
D02*
G37*
G36*
X51476D02*
X48425D01*
Y167559D01*
X51476D01*
Y172362D01*
D02*
G37*
G36*
X108760Y156989D02*
Y154823D01*
X110926D01*
X110647Y155497D01*
X110120Y156183D01*
X109433Y156710D01*
X108760Y156989D01*
D02*
G37*
G36*
X116043Y165059D02*
X115924D01*
Y164744D01*
X116008Y164322D01*
X116043Y164268D01*
Y165059D01*
D02*
G37*
G36*
X46457Y159055D02*
X43406D01*
Y154252D01*
X46457D01*
Y159055D01*
D02*
G37*
G36*
X79823Y149902D02*
X79149Y149624D01*
X78462Y149097D01*
X77936Y148410D01*
X77657Y147736D01*
X79823D01*
Y149902D01*
D02*
G37*
G36*
X81791D02*
Y147736D01*
X83958D01*
X83679Y148410D01*
X83152Y149097D01*
X82465Y149624D01*
X81791Y149902D01*
D02*
G37*
G36*
X56457Y152284D02*
X53405D01*
Y147480D01*
X56457D01*
Y152284D01*
D02*
G37*
G36*
X61476D02*
X58425D01*
Y147480D01*
X61476D01*
Y152284D01*
D02*
G37*
G36*
X106791Y152854D02*
X104625D01*
X104904Y152181D01*
X105431Y151494D01*
X106118Y150967D01*
X106791Y150688D01*
Y152854D01*
D02*
G37*
G36*
X110926D02*
X108760D01*
Y150688D01*
X109433Y150967D01*
X110120Y151494D01*
X110647Y152181D01*
X110926Y152854D01*
D02*
G37*
G36*
X16732Y150592D02*
X16059Y150312D01*
X15372Y149785D01*
X14845Y149099D01*
X14566Y148425D01*
X16732D01*
Y150592D01*
D02*
G37*
G36*
X18701D02*
Y148425D01*
X20867D01*
X20588Y149099D01*
X20061Y149785D01*
X19374Y150312D01*
X18701Y150592D01*
D02*
G37*
G36*
X112500Y168602D02*
X111709D01*
X111763Y168567D01*
X112185Y168483D01*
X112500D01*
Y168602D01*
D02*
G37*
G36*
X161024Y186812D02*
X160350Y186533D01*
X159663Y186006D01*
X159136Y185319D01*
X158857Y184646D01*
X161024D01*
Y186812D01*
D02*
G37*
G36*
X162992D02*
Y184646D01*
X165158D01*
X164879Y185319D01*
X164353Y186006D01*
X163666Y186533D01*
X162992Y186812D01*
D02*
G37*
G36*
X116043Y182779D02*
X116008Y182726D01*
X115924Y182303D01*
Y181988D01*
X116043D01*
Y182779D01*
D02*
G37*
G36*
X125886D02*
Y181988D01*
X126005D01*
Y182303D01*
X125921Y182726D01*
X125886Y182779D01*
D02*
G37*
G36*
X65847Y192324D02*
X65173Y192045D01*
X64486Y191518D01*
X63959Y190831D01*
X63680Y190157D01*
X65847D01*
Y192324D01*
D02*
G37*
G36*
X67815D02*
Y190157D01*
X69981D01*
X69702Y190831D01*
X69175Y191518D01*
X68489Y192045D01*
X67815Y192324D01*
D02*
G37*
G36*
X65847Y188189D02*
X63680D01*
X63959Y187515D01*
X64486Y186829D01*
X65173Y186302D01*
X65847Y186023D01*
Y188189D01*
D02*
G37*
G36*
X69981D02*
X67815D01*
Y186023D01*
X68489Y186302D01*
X69175Y186829D01*
X69702Y187515D01*
X69981Y188189D01*
D02*
G37*
G36*
X165158Y182677D02*
X162992D01*
Y180511D01*
X163666Y180790D01*
X164353Y181317D01*
X164879Y182003D01*
X165158Y182677D01*
D02*
G37*
G36*
X15354Y176969D02*
X13188D01*
X13467Y176295D01*
X13994Y175608D01*
X14681Y175081D01*
X15354Y174802D01*
Y176969D01*
D02*
G37*
G36*
X19489D02*
X17323D01*
Y174802D01*
X17997Y175081D01*
X18683Y175608D01*
X19210Y176295D01*
X19489Y176969D01*
D02*
G37*
G36*
X46457Y179134D02*
X43406D01*
Y174331D01*
X46457D01*
Y179134D01*
D02*
G37*
G36*
X51476D02*
X48425D01*
Y174331D01*
X51476D01*
Y179134D01*
D02*
G37*
G36*
X17323Y181103D02*
Y178937D01*
X19489D01*
X19210Y179611D01*
X18683Y180297D01*
X17997Y180824D01*
X17323Y181103D01*
D02*
G37*
G36*
X161024Y182677D02*
X158857D01*
X159136Y182003D01*
X159663Y181317D01*
X160350Y180790D01*
X161024Y180511D01*
Y182677D01*
D02*
G37*
G36*
X112500Y178565D02*
X112185D01*
X111763Y178481D01*
X111709Y178445D01*
X112500D01*
Y178565D01*
D02*
G37*
G36*
X15354Y181103D02*
X14681Y180824D01*
X13994Y180297D01*
X13467Y179611D01*
X13188Y178937D01*
X15354D01*
Y181103D01*
D02*
G37*
G36*
X254528Y87303D02*
X252361D01*
X252640Y86629D01*
X253167Y85943D01*
X253854Y85416D01*
X254528Y85137D01*
Y87303D01*
D02*
G37*
G36*
X362229Y318802D02*
X361692Y318695D01*
X361236Y318390D01*
X360931Y317934D01*
X360824Y317397D01*
X360931Y316859D01*
X361236Y316403D01*
X371430Y306209D01*
Y46645D01*
X361605Y36820D01*
X361300Y36364D01*
X361193Y35827D01*
X361300Y35289D01*
X361605Y34833D01*
X362061Y34529D01*
X362598Y34422D01*
X363136Y34529D01*
X363592Y34833D01*
X373828Y45070D01*
X374133Y45525D01*
X374240Y46063D01*
Y306791D01*
X374133Y307329D01*
X373828Y307785D01*
X363223Y318390D01*
X362767Y318695D01*
X362229Y318802D01*
D02*
G37*
G36*
X16019Y317916D02*
X15481Y317809D01*
X15025Y317504D01*
X4125Y306604D01*
X3820Y306148D01*
X3713Y305610D01*
Y47244D01*
X3820Y46707D01*
X4125Y46251D01*
X14656Y35719D01*
X15112Y35415D01*
X15650Y35308D01*
X16187Y35415D01*
X16643Y35719D01*
X16948Y36175D01*
X17055Y36713D01*
X16948Y37250D01*
X16643Y37706D01*
X6523Y47826D01*
Y305028D01*
X17012Y315517D01*
X17317Y315973D01*
X17424Y316511D01*
X17317Y317049D01*
X17012Y317504D01*
X16556Y317809D01*
X16019Y317916D01*
D02*
G37*
G36*
X74705Y35631D02*
X74031Y35352D01*
X73344Y34825D01*
X72817Y34138D01*
X72538Y33465D01*
X74705D01*
Y35631D01*
D02*
G37*
G36*
X76673D02*
Y33465D01*
X78839D01*
X78561Y34138D01*
X78034Y34825D01*
X77347Y35352D01*
X76673Y35631D01*
D02*
G37*
G36*
X239370Y38288D02*
X238696Y38009D01*
X238010Y37482D01*
X237483Y36796D01*
X237204Y36122D01*
X239370D01*
Y38288D01*
D02*
G37*
G36*
X241339D02*
Y36122D01*
X243505D01*
X243226Y36796D01*
X242699Y37482D01*
X242012Y38009D01*
X241339Y38288D01*
D02*
G37*
G36*
X253740Y37500D02*
X251574D01*
X251853Y36826D01*
X252380Y36140D01*
X253066Y35613D01*
X253740Y35334D01*
Y37500D01*
D02*
G37*
G36*
X257875D02*
X255709D01*
Y35334D01*
X256382Y35613D01*
X257069Y36140D01*
X257596Y36826D01*
X257875Y37500D01*
D02*
G37*
G36*
X123721Y35039D02*
X121555D01*
Y32873D01*
X122229Y33152D01*
X122915Y33679D01*
X123442Y34366D01*
X123721Y35039D01*
D02*
G37*
G36*
X78839Y31496D02*
X76673D01*
Y29330D01*
X77347Y29609D01*
X78034Y30136D01*
X78561Y30822D01*
X78839Y31496D01*
D02*
G37*
G36*
X43406Y33367D02*
X42732Y33088D01*
X42045Y32561D01*
X41518Y31874D01*
X41239Y31201D01*
X43406D01*
Y33367D01*
D02*
G37*
G36*
X270374Y29332D02*
Y27165D01*
X272540D01*
X272261Y27839D01*
X271734Y28526D01*
X271048Y29053D01*
X270374Y29332D01*
D02*
G37*
G36*
X74705Y31496D02*
X72538D01*
X72817Y30822D01*
X73344Y30136D01*
X74031Y29609D01*
X74705Y29330D01*
Y31496D01*
D02*
G37*
G36*
X243505Y34154D02*
X241339D01*
Y31987D01*
X242012Y32266D01*
X242699Y32793D01*
X243226Y33480D01*
X243505Y34154D01*
D02*
G37*
G36*
X119587Y35039D02*
X117420D01*
X117699Y34366D01*
X118226Y33679D01*
X118913Y33152D01*
X119587Y32873D01*
Y35039D01*
D02*
G37*
G36*
X45374Y33367D02*
Y31201D01*
X47540D01*
X47261Y31874D01*
X46734Y32561D01*
X46048Y33088D01*
X45374Y33367D01*
D02*
G37*
G36*
X239370Y34154D02*
X237204D01*
X237483Y33480D01*
X238010Y32793D01*
X238696Y32266D01*
X239370Y31987D01*
Y34154D01*
D02*
G37*
G36*
X119587Y39174D02*
X118913Y38895D01*
X118226Y38368D01*
X117699Y37681D01*
X117420Y37008D01*
X119587D01*
Y39174D01*
D02*
G37*
G36*
X100394Y45670D02*
X99720Y45391D01*
X99033Y44864D01*
X98506Y44178D01*
X98227Y43504D01*
X100394D01*
Y45670D01*
D02*
G37*
G36*
X102362D02*
Y43504D01*
X104528D01*
X104250Y44178D01*
X103723Y44864D01*
X103036Y45391D01*
X102362Y45670D01*
D02*
G37*
G36*
X46319Y46988D02*
X41070D01*
X41095Y46738D01*
X41455Y45550D01*
X42040Y44456D01*
X42827Y43497D01*
X43786Y42709D01*
X44881Y42125D01*
X46068Y41764D01*
X46319Y41740D01*
Y46988D01*
D02*
G37*
G36*
X53536D02*
X48287D01*
Y41740D01*
X48538Y41764D01*
X49725Y42125D01*
X50820Y42709D01*
X51779Y43497D01*
X52566Y44456D01*
X53151Y45550D01*
X53511Y46738D01*
X53536Y46988D01*
D02*
G37*
G36*
X184055Y48228D02*
X181889D01*
X182168Y47555D01*
X182695Y46868D01*
X183381Y46341D01*
X184055Y46062D01*
Y48228D01*
D02*
G37*
G36*
X188190D02*
X186024D01*
Y46062D01*
X186697Y46341D01*
X187384Y46868D01*
X187911Y47555D01*
X188190Y48228D01*
D02*
G37*
G36*
X69488Y47638D02*
X67322D01*
X67601Y46964D01*
X68128Y46277D01*
X68815Y45750D01*
X69488Y45472D01*
Y47638D01*
D02*
G37*
G36*
X73623D02*
X71457D01*
Y45472D01*
X72130Y45750D01*
X72817Y46277D01*
X73344Y46964D01*
X73623Y47638D01*
D02*
G37*
G36*
X33536Y46988D02*
X28287D01*
Y41740D01*
X28538Y41764D01*
X29725Y42125D01*
X30820Y42709D01*
X31779Y43497D01*
X32566Y44456D01*
X33151Y45550D01*
X33511Y46738D01*
X33536Y46988D01*
D02*
G37*
G36*
X157431Y56574D02*
Y37106D01*
X176899D01*
X176788Y38800D01*
X176264Y41432D01*
X175401Y43973D01*
X174215Y46380D01*
X172724Y48612D01*
X170954Y50629D01*
X168936Y52399D01*
X166705Y53890D01*
X164298Y55077D01*
X161757Y55939D01*
X159125Y56463D01*
X157431Y56574D01*
D02*
G37*
G36*
X100394Y41535D02*
X98227D01*
X98506Y40862D01*
X99033Y40175D01*
X99720Y39648D01*
X100394Y39369D01*
Y41535D01*
D02*
G37*
G36*
X121555Y39174D02*
Y37008D01*
X123721D01*
X123442Y37681D01*
X122915Y38368D01*
X122229Y38895D01*
X121555Y39174D01*
D02*
G37*
G36*
X155463Y56574D02*
X153769Y56463D01*
X151137Y55939D01*
X148596Y55077D01*
X146189Y53890D01*
X143957Y52399D01*
X141940Y50629D01*
X140170Y48612D01*
X138679Y46380D01*
X137492Y43973D01*
X136630Y41432D01*
X136106Y38800D01*
X135995Y37106D01*
X155463D01*
Y56574D01*
D02*
G37*
G36*
X255709Y41635D02*
Y39469D01*
X257875D01*
X257596Y40142D01*
X257069Y40829D01*
X256382Y41356D01*
X255709Y41635D01*
D02*
G37*
G36*
X26319Y46988D02*
X21070D01*
X21095Y46738D01*
X21455Y45550D01*
X22040Y44456D01*
X22827Y43497D01*
X23787Y42709D01*
X24881Y42125D01*
X26068Y41764D01*
X26319Y41740D01*
Y46988D01*
D02*
G37*
G36*
X104528Y41535D02*
X102362D01*
Y39369D01*
X103036Y39648D01*
X103723Y40175D01*
X104250Y40862D01*
X104528Y41535D01*
D02*
G37*
G36*
X253740Y41635D02*
X253066Y41356D01*
X252380Y40829D01*
X251853Y40142D01*
X251574Y39469D01*
X253740D01*
Y41635D01*
D02*
G37*
G36*
X268406Y29332D02*
X267732Y29053D01*
X267045Y28526D01*
X266518Y27839D01*
X266239Y27165D01*
X268406D01*
Y29332D01*
D02*
G37*
G36*
X68898Y19292D02*
X68224Y19013D01*
X67537Y18486D01*
X67010Y17800D01*
X66731Y17126D01*
X68898D01*
Y19292D01*
D02*
G37*
G36*
X70866D02*
Y17126D01*
X73032D01*
X72753Y17800D01*
X72227Y18486D01*
X71540Y19013D01*
X70866Y19292D01*
D02*
G37*
G36*
X246752Y19291D02*
X244586D01*
X244865Y18618D01*
X245392Y17931D01*
X246078Y17404D01*
X246752Y17125D01*
Y19291D01*
D02*
G37*
G36*
X250887D02*
X248721D01*
Y17125D01*
X249394Y17404D01*
X250081Y17931D01*
X250608Y18618D01*
X250887Y19291D01*
D02*
G37*
G36*
X360433Y27121D02*
X359749Y27067D01*
X358122Y26676D01*
X356576Y26036D01*
X355150Y25162D01*
X353878Y24075D01*
X352791Y22803D01*
X351917Y21376D01*
X351276Y19830D01*
X350886Y18203D01*
X350832Y17520D01*
X360433D01*
Y27121D01*
D02*
G37*
G36*
X362402D02*
Y17520D01*
X372003D01*
X371949Y18203D01*
X371558Y19830D01*
X370918Y21376D01*
X370044Y22803D01*
X368957Y24075D01*
X367685Y25162D01*
X366258Y26036D01*
X364712Y26676D01*
X363085Y27067D01*
X362402Y27121D01*
D02*
G37*
G36*
X15551D02*
X14867Y27067D01*
X13240Y26676D01*
X11695Y26036D01*
X10268Y25162D01*
X8996Y24075D01*
X7909Y22803D01*
X7035Y21376D01*
X6395Y19830D01*
X6004Y18203D01*
X5950Y17520D01*
X15551D01*
Y27121D01*
D02*
G37*
G36*
X17520D02*
Y17520D01*
X27121D01*
X27067Y18203D01*
X26676Y19830D01*
X26036Y21376D01*
X25162Y22803D01*
X24075Y24075D01*
X22803Y25162D01*
X21376Y26036D01*
X19830Y26676D01*
X18203Y27067D01*
X17520Y27121D01*
D02*
G37*
G36*
X176899Y35138D02*
X157431D01*
Y15670D01*
X159125Y15781D01*
X161757Y16305D01*
X164298Y17167D01*
X166705Y18354D01*
X168936Y19845D01*
X170954Y21615D01*
X172724Y23632D01*
X174215Y25864D01*
X175401Y28271D01*
X176264Y30812D01*
X176788Y33444D01*
X176899Y35138D01*
D02*
G37*
G36*
X27121Y15551D02*
X17520D01*
Y5950D01*
X18203Y6004D01*
X19830Y6395D01*
X21376Y7035D01*
X22803Y7909D01*
X24075Y8996D01*
X25162Y10268D01*
X26036Y11695D01*
X26676Y13240D01*
X27067Y14867D01*
X27121Y15551D01*
D02*
G37*
G36*
X360433D02*
X350832D01*
X350886Y14867D01*
X351276Y13240D01*
X351917Y11695D01*
X352791Y10268D01*
X353878Y8996D01*
X355150Y7909D01*
X356576Y7035D01*
X358122Y6395D01*
X359749Y6004D01*
X360433Y5950D01*
Y15551D01*
D02*
G37*
G36*
X36713Y17055D02*
X36175Y16948D01*
X35719Y16643D01*
X35415Y16187D01*
X35308Y15650D01*
X35415Y15112D01*
X35719Y14656D01*
X46251Y4125D01*
X46707Y3820D01*
X47244Y3713D01*
X331890D01*
X332427Y3820D01*
X332883Y4125D01*
X343119Y14361D01*
X343424Y14817D01*
X343531Y15354D01*
X343424Y15892D01*
X343119Y16348D01*
X342664Y16652D01*
X342126Y16759D01*
X341588Y16652D01*
X341132Y16348D01*
X331308Y6523D01*
X47826D01*
X37706Y16643D01*
X37250Y16948D01*
X36713Y17055D01*
D02*
G37*
G36*
X15551Y15551D02*
X5950D01*
X6004Y14867D01*
X6395Y13240D01*
X7035Y11695D01*
X7909Y10268D01*
X8996Y8996D01*
X10268Y7909D01*
X11695Y7035D01*
X13240Y6395D01*
X14867Y6004D01*
X15551Y5950D01*
Y15551D01*
D02*
G37*
G36*
X73032Y15157D02*
X70866D01*
Y12991D01*
X71540Y13270D01*
X72227Y13797D01*
X72753Y14484D01*
X73032Y15157D01*
D02*
G37*
G36*
X155463Y35138D02*
X135995D01*
X136106Y33444D01*
X136630Y30812D01*
X137492Y28271D01*
X138679Y25864D01*
X140170Y23632D01*
X141940Y21615D01*
X143957Y19845D01*
X146189Y18354D01*
X148596Y17167D01*
X151137Y16305D01*
X153769Y15781D01*
X155463Y15670D01*
Y35138D01*
D02*
G37*
G36*
X372003Y15551D02*
X362402D01*
Y5950D01*
X363085Y6004D01*
X364712Y6395D01*
X366258Y7035D01*
X367685Y7909D01*
X368957Y8996D01*
X370044Y10268D01*
X370918Y11695D01*
X371558Y13240D01*
X371949Y14867D01*
X372003Y15551D01*
D02*
G37*
G36*
X68898Y15157D02*
X66731D01*
X67010Y14484D01*
X67537Y13797D01*
X68224Y13270D01*
X68898Y12991D01*
Y15157D01*
D02*
G37*
G36*
X112500Y19980D02*
X110334D01*
X110613Y19307D01*
X111140Y18620D01*
X111826Y18093D01*
X112500Y17814D01*
Y19980D01*
D02*
G37*
G36*
X91437Y26084D02*
X90763Y25805D01*
X90077Y25278D01*
X89550Y24591D01*
X89271Y23917D01*
X91437D01*
Y26084D01*
D02*
G37*
G36*
X93405D02*
Y23917D01*
X95572D01*
X95293Y24591D01*
X94766Y25278D01*
X94079Y25805D01*
X93405Y26084D01*
D02*
G37*
G36*
X268406Y25197D02*
X266239D01*
X266518Y24523D01*
X267045Y23836D01*
X267732Y23310D01*
X268406Y23031D01*
Y25197D01*
D02*
G37*
G36*
X272540D02*
X270374D01*
Y23031D01*
X271048Y23310D01*
X271734Y23836D01*
X272261Y24523D01*
X272540Y25197D01*
D02*
G37*
G36*
X43406Y29232D02*
X41239D01*
X41518Y28559D01*
X42045Y27872D01*
X42732Y27345D01*
X43406Y27066D01*
Y29232D01*
D02*
G37*
G36*
X47540D02*
X45374D01*
Y27066D01*
X46048Y27345D01*
X46734Y27872D01*
X47261Y28559D01*
X47540Y29232D01*
D02*
G37*
G36*
X181693Y27265D02*
X181019Y26986D01*
X180333Y26459D01*
X179806Y25772D01*
X179527Y25098D01*
X181693D01*
Y27265D01*
D02*
G37*
G36*
X183661D02*
Y25098D01*
X185828D01*
X185549Y25772D01*
X185022Y26459D01*
X184335Y26986D01*
X183661Y27265D01*
D02*
G37*
G36*
X114469Y24115D02*
Y21949D01*
X116635D01*
X116356Y22623D01*
X115829Y23309D01*
X115142Y23836D01*
X114469Y24115D01*
D02*
G37*
G36*
X95572Y21949D02*
X93405D01*
Y19782D01*
X94079Y20062D01*
X94766Y20588D01*
X95293Y21275D01*
X95572Y21949D01*
D02*
G37*
G36*
X181693Y23130D02*
X179527D01*
X179806Y22456D01*
X180333Y21770D01*
X181019Y21243D01*
X181693Y20964D01*
Y23130D01*
D02*
G37*
G36*
X116635Y19980D02*
X114469D01*
Y17814D01*
X115142Y18093D01*
X115829Y18620D01*
X116356Y19307D01*
X116635Y19980D01*
D02*
G37*
G36*
X91437Y21949D02*
X89271D01*
X89550Y21275D01*
X90077Y20588D01*
X90763Y20062D01*
X91437Y19782D01*
Y21949D01*
D02*
G37*
G36*
X248721Y23426D02*
Y21260D01*
X250887D01*
X250608Y21934D01*
X250081Y22620D01*
X249394Y23147D01*
X248721Y23426D01*
D02*
G37*
G36*
X112500Y24115D02*
X111826Y23836D01*
X111140Y23309D01*
X110613Y22623D01*
X110334Y21949D01*
X112500D01*
Y24115D01*
D02*
G37*
G36*
X185828Y23130D02*
X183661D01*
Y20964D01*
X184335Y21243D01*
X185022Y21770D01*
X185549Y22456D01*
X185828Y23130D01*
D02*
G37*
G36*
X246752Y23426D02*
X246078Y23147D01*
X245392Y22620D01*
X244865Y21934D01*
X244586Y21260D01*
X246752D01*
Y23426D01*
D02*
G37*
G36*
X26319Y54205D02*
X26068Y54181D01*
X24881Y53820D01*
X23787Y53235D01*
X22827Y52448D01*
X22040Y51489D01*
X21455Y50395D01*
X21095Y49207D01*
X21070Y48957D01*
X26319D01*
Y54205D01*
D02*
G37*
G36*
X67618Y73328D02*
Y71161D01*
X69784D01*
X69505Y71835D01*
X68979Y72522D01*
X68292Y73049D01*
X67618Y73328D01*
D02*
G37*
G36*
X271654Y81859D02*
X270795Y81746D01*
X269996Y81415D01*
X269309Y80888D01*
X268782Y80201D01*
X268721Y80054D01*
X255217D01*
X254525Y79917D01*
X253939Y79525D01*
X225501Y51087D01*
X224005Y52399D01*
X221774Y53890D01*
X219367Y55077D01*
X216826Y55939D01*
X214194Y56463D01*
X211516Y56638D01*
X208838Y56463D01*
X206206Y55939D01*
X203664Y55077D01*
X201258Y53890D01*
X199026Y52399D01*
X197009Y50629D01*
X195239Y48612D01*
X193748Y46380D01*
X192561Y43973D01*
X191699Y41432D01*
X191175Y38800D01*
X190999Y36122D01*
X191175Y33444D01*
X191699Y30812D01*
X192561Y28271D01*
X193748Y25864D01*
X195239Y23632D01*
X197009Y21615D01*
X199026Y19845D01*
X201258Y18354D01*
X203664Y17167D01*
X206206Y16305D01*
X208838Y15781D01*
X211516Y15606D01*
X214194Y15781D01*
X216826Y16305D01*
X219367Y17167D01*
X221774Y18354D01*
X224005Y19845D01*
X226023Y21615D01*
X227793Y23632D01*
X229283Y25864D01*
X230470Y28271D01*
X231333Y30812D01*
X231857Y33444D01*
X232032Y36122D01*
X231857Y38800D01*
X231333Y41432D01*
X230470Y43973D01*
X229283Y46380D01*
X227930Y48406D01*
X255965Y76442D01*
X269123D01*
X269309Y76199D01*
X269996Y75672D01*
X270795Y75340D01*
X271654Y75227D01*
X272512Y75340D01*
X273311Y75672D01*
X273998Y76199D01*
X274525Y76885D01*
X274856Y77685D01*
X274969Y78543D01*
X274856Y79401D01*
X274525Y80201D01*
X273998Y80888D01*
X273311Y81415D01*
X272512Y81746D01*
X271654Y81859D01*
D02*
G37*
G36*
X41476Y159055D02*
X33406D01*
Y154523D01*
X33276Y154209D01*
X33134Y153130D01*
X33271Y152083D01*
Y136297D01*
X33246Y136059D01*
X33189Y135746D01*
X33110Y135433D01*
X33007Y135121D01*
X32881Y134810D01*
X32730Y134498D01*
X32554Y134186D01*
X32353Y133873D01*
X32113Y133543D01*
X32095Y133504D01*
X31855Y133211D01*
X31234Y132049D01*
X30852Y130789D01*
X30722Y129478D01*
Y81900D01*
X30852Y80589D01*
X31234Y79329D01*
X31855Y78167D01*
X32095Y77874D01*
X32113Y77835D01*
X32353Y77504D01*
X32554Y77192D01*
X32730Y76880D01*
X32881Y76568D01*
X33007Y76257D01*
X33110Y75945D01*
X33189Y75632D01*
X33246Y75318D01*
X33271Y75081D01*
Y71230D01*
X32771Y71105D01*
X32566Y71489D01*
X31779Y72448D01*
X30820Y73235D01*
X29725Y73820D01*
X28538Y74181D01*
X28287Y74205D01*
Y67972D01*
Y61740D01*
X28538Y61764D01*
X29725Y62125D01*
X30820Y62709D01*
X31779Y63497D01*
X32566Y64456D01*
X32771Y64840D01*
X33271Y64715D01*
Y60479D01*
X33176Y60355D01*
X32700Y59206D01*
X32538Y57973D01*
X32700Y56739D01*
X33176Y55590D01*
X33934Y54603D01*
X34920Y53846D01*
X36070Y53370D01*
X37303Y53207D01*
X38537Y53370D01*
X39686Y53846D01*
X40673Y54603D01*
X41430Y55590D01*
X41906Y56739D01*
X42068Y57973D01*
X41906Y59206D01*
X41611Y59919D01*
Y64281D01*
X42110Y64370D01*
X42827Y63497D01*
X43786Y62709D01*
X44881Y62125D01*
X46068Y61764D01*
X46319Y61740D01*
Y67972D01*
Y74205D01*
X46068Y74181D01*
X44881Y73820D01*
X43786Y73235D01*
X42827Y72448D01*
X42110Y71575D01*
X41611Y71664D01*
Y75081D01*
X41636Y75318D01*
X41692Y75632D01*
X41772Y75945D01*
X41874Y76257D01*
X42001Y76568D01*
X42152Y76880D01*
X42327Y77192D01*
X42529Y77504D01*
X42768Y77835D01*
X42787Y77874D01*
X43027Y78167D01*
X43648Y79329D01*
X44030Y80589D01*
X44159Y81900D01*
Y129478D01*
X44030Y130789D01*
X43648Y132049D01*
X43027Y133211D01*
X42787Y133504D01*
X42768Y133543D01*
X42529Y133873D01*
X42327Y134186D01*
X42152Y134498D01*
X42001Y134810D01*
X41874Y135121D01*
X41772Y135433D01*
X41692Y135746D01*
X41636Y136059D01*
X41611Y136297D01*
Y153268D01*
X41611Y153268D01*
X41476Y154286D01*
Y159055D01*
D02*
G37*
G36*
X65650Y73328D02*
X64976Y73049D01*
X64289Y72522D01*
X63762Y71835D01*
X63483Y71161D01*
X65650D01*
Y73328D01*
D02*
G37*
G36*
X84842Y78150D02*
X82676D01*
X82955Y77476D01*
X83482Y76789D01*
X84169Y76262D01*
X84842Y75983D01*
Y78150D01*
D02*
G37*
G36*
X88977D02*
X86811D01*
Y75983D01*
X87485Y76262D01*
X88171Y76789D01*
X88698Y77476D01*
X88977Y78150D01*
D02*
G37*
G36*
X126575Y77854D02*
X124408D01*
X124688Y77181D01*
X125215Y76494D01*
X125901Y75967D01*
X126575Y75688D01*
Y77854D01*
D02*
G37*
G36*
X130710D02*
X128543D01*
Y75688D01*
X129217Y75967D01*
X129904Y76494D01*
X130431Y77181D01*
X130710Y77854D01*
D02*
G37*
G36*
X232874Y72442D02*
Y70276D01*
X235040D01*
X234761Y70949D01*
X234234Y71636D01*
X233548Y72163D01*
X232874Y72442D01*
D02*
G37*
G36*
X202461Y70867D02*
Y68701D01*
X204627D01*
X204348Y69374D01*
X203821Y70061D01*
X203134Y70588D01*
X202461Y70867D01*
D02*
G37*
G36*
X26319Y74205D02*
X26068Y74181D01*
X24881Y73820D01*
X23787Y73235D01*
X22827Y72448D01*
X22040Y71489D01*
X21455Y70395D01*
X21095Y69207D01*
X21070Y68957D01*
X26319D01*
Y74205D01*
D02*
G37*
G36*
X151575Y70276D02*
Y68110D01*
X153741D01*
X153462Y68784D01*
X152935Y69471D01*
X152248Y69998D01*
X151575Y70276D01*
D02*
G37*
G36*
X200492Y70867D02*
X199819Y70588D01*
X199132Y70061D01*
X198605Y69374D01*
X198326Y68701D01*
X200492D01*
Y70867D01*
D02*
G37*
G36*
X176673Y71654D02*
Y69488D01*
X178840D01*
X178560Y70162D01*
X178034Y70849D01*
X177347Y71376D01*
X176673Y71654D01*
D02*
G37*
G36*
X230906Y72442D02*
X230232Y72163D01*
X229545Y71636D01*
X229018Y70949D01*
X228739Y70276D01*
X230906D01*
Y72442D01*
D02*
G37*
G36*
X48287Y74205D02*
Y68957D01*
X53536D01*
X53511Y69207D01*
X53151Y70395D01*
X52566Y71489D01*
X51779Y72448D01*
X50820Y73235D01*
X49725Y73820D01*
X48538Y74181D01*
X48287Y74205D01*
D02*
G37*
G36*
X174705Y71654D02*
X174031Y71376D01*
X173344Y70849D01*
X172817Y70162D01*
X172538Y69488D01*
X174705D01*
Y71654D01*
D02*
G37*
G36*
X104626Y79232D02*
X102460D01*
X102739Y78559D01*
X103266Y77872D01*
X103952Y77345D01*
X104626Y77066D01*
Y79232D01*
D02*
G37*
G36*
X218012Y83760D02*
X215845D01*
X216125Y83086D01*
X216652Y82399D01*
X217338Y81873D01*
X218012Y81594D01*
Y83760D01*
D02*
G37*
G36*
X222147D02*
X219980D01*
Y81594D01*
X220654Y81873D01*
X221341Y82399D01*
X221868Y83086D01*
X222147Y83760D01*
D02*
G37*
G36*
X157874Y83465D02*
X157200Y83187D01*
X156514Y82660D01*
X155987Y81973D01*
X155708Y81299D01*
X157874D01*
Y83465D01*
D02*
G37*
G36*
X159843D02*
Y81299D01*
X162009D01*
X161730Y81973D01*
X161203Y82660D01*
X160516Y83187D01*
X159843Y83465D01*
D02*
G37*
G36*
X185728Y86516D02*
X183562D01*
X183841Y85842D01*
X184368Y85155D01*
X185055Y84628D01*
X185728Y84349D01*
Y86516D01*
D02*
G37*
G36*
X189863D02*
X187697D01*
Y84349D01*
X188371Y84628D01*
X189057Y85155D01*
X189584Y85842D01*
X189863Y86516D01*
D02*
G37*
G36*
X17913D02*
X15747D01*
X16026Y85842D01*
X16553Y85155D01*
X17240Y84628D01*
X17913Y84349D01*
Y86516D01*
D02*
G37*
G36*
X22048D02*
X19882D01*
Y84349D01*
X20556Y84628D01*
X21242Y85155D01*
X21769Y85842D01*
X22048Y86516D01*
D02*
G37*
G36*
X106595Y83367D02*
Y81201D01*
X108761D01*
X108482Y81874D01*
X107955Y82561D01*
X107268Y83088D01*
X106595Y83367D01*
D02*
G37*
G36*
X162009Y79331D02*
X159843D01*
Y77164D01*
X160516Y77443D01*
X161203Y77970D01*
X161730Y78657D01*
X162009Y79331D01*
D02*
G37*
G36*
X126575Y81989D02*
X125901Y81710D01*
X125215Y81183D01*
X124688Y80497D01*
X124408Y79823D01*
X126575D01*
Y81989D01*
D02*
G37*
G36*
X108761Y79232D02*
X106595D01*
Y77066D01*
X107268Y77345D01*
X107955Y77872D01*
X108482Y78559D01*
X108761Y79232D01*
D02*
G37*
G36*
X157874Y79331D02*
X155708D01*
X155987Y78657D01*
X156514Y77970D01*
X157200Y77443D01*
X157874Y77164D01*
Y79331D01*
D02*
G37*
G36*
X86811Y82284D02*
Y80118D01*
X88977D01*
X88698Y80792D01*
X88171Y81479D01*
X87485Y82005D01*
X86811Y82284D01*
D02*
G37*
G36*
X104626Y83367D02*
X103952Y83088D01*
X103266Y82561D01*
X102739Y81874D01*
X102460Y81201D01*
X104626D01*
Y83367D01*
D02*
G37*
G36*
X128543Y81989D02*
Y79823D01*
X130710D01*
X130431Y80497D01*
X129904Y81183D01*
X129217Y81710D01*
X128543Y81989D01*
D02*
G37*
G36*
X84842Y82284D02*
X84169Y82005D01*
X83482Y81479D01*
X82955Y80792D01*
X82676Y80118D01*
X84842D01*
Y82284D01*
D02*
G37*
G36*
X149606Y70276D02*
X148933Y69998D01*
X148246Y69471D01*
X147719Y68784D01*
X147440Y68110D01*
X149606D01*
Y70276D01*
D02*
G37*
G36*
X112500Y52854D02*
X110334D01*
X110613Y52181D01*
X111140Y51494D01*
X111826Y50967D01*
X112500Y50688D01*
Y52854D01*
D02*
G37*
G36*
X116635D02*
X114469D01*
Y50688D01*
X115142Y50967D01*
X115829Y51494D01*
X116356Y52181D01*
X116635Y52854D01*
D02*
G37*
G36*
X184055Y52363D02*
X183381Y52084D01*
X182695Y51557D01*
X182168Y50871D01*
X181889Y50197D01*
X184055D01*
Y52363D01*
D02*
G37*
G36*
X186024D02*
Y50197D01*
X188190D01*
X187911Y50871D01*
X187384Y51557D01*
X186697Y52084D01*
X186024Y52363D01*
D02*
G37*
G36*
X268406Y56005D02*
X267732Y55726D01*
X267045Y55199D01*
X266518Y54512D01*
X266239Y53839D01*
X268406D01*
Y56005D01*
D02*
G37*
G36*
X270374D02*
Y53839D01*
X272540D01*
X272261Y54512D01*
X271734Y55199D01*
X271048Y55726D01*
X270374Y56005D01*
D02*
G37*
G36*
X240650Y55906D02*
X239976Y55627D01*
X239289Y55101D01*
X238762Y54414D01*
X238483Y53740D01*
X240650D01*
Y55906D01*
D02*
G37*
G36*
X242618D02*
Y53740D01*
X244784D01*
X244505Y54414D01*
X243979Y55101D01*
X243292Y55627D01*
X242618Y55906D01*
D02*
G37*
G36*
X272540Y51870D02*
X270374D01*
Y49704D01*
X271048Y49983D01*
X271734Y50510D01*
X272261Y51196D01*
X272540Y51870D01*
D02*
G37*
G36*
X48287Y54205D02*
Y48957D01*
X53536D01*
X53511Y49207D01*
X53151Y50395D01*
X52566Y51489D01*
X51779Y52448D01*
X50820Y53235D01*
X49725Y53820D01*
X48538Y54181D01*
X48287Y54205D01*
D02*
G37*
G36*
X240650Y51772D02*
X238483D01*
X238762Y51098D01*
X239289Y50411D01*
X239976Y49884D01*
X240650Y49605D01*
Y51772D01*
D02*
G37*
G36*
X28287Y54205D02*
Y48957D01*
X33536D01*
X33511Y49207D01*
X33151Y50395D01*
X32566Y51489D01*
X31779Y52448D01*
X30820Y53235D01*
X29725Y53820D01*
X28538Y54181D01*
X28287Y54205D01*
D02*
G37*
G36*
X46319D02*
X46068Y54181D01*
X44881Y53820D01*
X43786Y53235D01*
X42827Y52448D01*
X42040Y51489D01*
X41455Y50395D01*
X41095Y49207D01*
X41070Y48957D01*
X46319D01*
Y54205D01*
D02*
G37*
G36*
X71457Y51773D02*
Y49606D01*
X73623D01*
X73344Y50280D01*
X72817Y50967D01*
X72130Y51494D01*
X71457Y51773D01*
D02*
G37*
G36*
X268406Y51870D02*
X266239D01*
X266518Y51196D01*
X267045Y50510D01*
X267732Y49983D01*
X268406Y49704D01*
Y51870D01*
D02*
G37*
G36*
X244784Y51772D02*
X242618D01*
Y49605D01*
X243292Y49884D01*
X243979Y50411D01*
X244505Y51098D01*
X244784Y51772D01*
D02*
G37*
G36*
X69488Y51773D02*
X68815Y51494D01*
X68128Y50967D01*
X67601Y50280D01*
X67322Y49606D01*
X69488D01*
Y51773D01*
D02*
G37*
G36*
X112500Y56989D02*
X111826Y56710D01*
X111140Y56183D01*
X110613Y55497D01*
X110334Y54823D01*
X112500D01*
Y56989D01*
D02*
G37*
G36*
X174705Y67520D02*
X172538D01*
X172817Y66846D01*
X173344Y66159D01*
X174031Y65632D01*
X174705Y65353D01*
Y67520D01*
D02*
G37*
G36*
X178840D02*
X176673D01*
Y65353D01*
X177347Y65632D01*
X178034Y66159D01*
X178560Y66846D01*
X178840Y67520D01*
D02*
G37*
G36*
X200492Y66732D02*
X198326D01*
X198605Y66059D01*
X199132Y65372D01*
X199819Y64845D01*
X200492Y64566D01*
Y66732D01*
D02*
G37*
G36*
X204627D02*
X202461D01*
Y64566D01*
X203134Y64845D01*
X203821Y65372D01*
X204348Y66059D01*
X204627Y66732D01*
D02*
G37*
G36*
X65650Y69193D02*
X63483D01*
X63762Y68519D01*
X64289Y67833D01*
X64976Y67306D01*
X65650Y67027D01*
Y69193D01*
D02*
G37*
G36*
X69784D02*
X67618D01*
Y67027D01*
X68292Y67306D01*
X68979Y67833D01*
X69505Y68519D01*
X69784Y69193D01*
D02*
G37*
G36*
X230906Y68307D02*
X228739D01*
X229018Y67633D01*
X229545Y66947D01*
X230232Y66420D01*
X230906Y66141D01*
Y68307D01*
D02*
G37*
G36*
X235040D02*
X232874D01*
Y66141D01*
X233548Y66420D01*
X234234Y66947D01*
X234761Y67633D01*
X235040Y68307D01*
D02*
G37*
G36*
X153741Y66142D02*
X151575D01*
Y63975D01*
X152248Y64254D01*
X152935Y64781D01*
X153462Y65468D01*
X153741Y66142D01*
D02*
G37*
G36*
X90355Y59941D02*
X88189D01*
Y57775D01*
X88863Y58054D01*
X89549Y58581D01*
X90076Y59267D01*
X90355Y59941D01*
D02*
G37*
G36*
X26319Y66988D02*
X21070D01*
X21095Y66738D01*
X21455Y65550D01*
X22040Y64456D01*
X22827Y63497D01*
X23787Y62709D01*
X24881Y62125D01*
X26068Y61764D01*
X26319Y61740D01*
Y66988D01*
D02*
G37*
G36*
X114469Y56989D02*
Y54823D01*
X116635D01*
X116356Y55497D01*
X115829Y56183D01*
X115142Y56710D01*
X114469Y56989D01*
D02*
G37*
G36*
X86221Y59941D02*
X84054D01*
X84333Y59267D01*
X84860Y58581D01*
X85547Y58054D01*
X86221Y57775D01*
Y59941D01*
D02*
G37*
G36*
X88189Y64076D02*
Y61910D01*
X90355D01*
X90076Y62583D01*
X89549Y63270D01*
X88863Y63797D01*
X88189Y64076D01*
D02*
G37*
G36*
X149606Y66142D02*
X147440D01*
X147719Y65468D01*
X148246Y64781D01*
X148933Y64254D01*
X149606Y63975D01*
Y66142D01*
D02*
G37*
G36*
X53536Y66988D02*
X48287D01*
Y61740D01*
X48538Y61764D01*
X49725Y62125D01*
X50820Y62709D01*
X51779Y63497D01*
X52566Y64456D01*
X53151Y65550D01*
X53511Y66738D01*
X53536Y66988D01*
D02*
G37*
G36*
X86221Y64076D02*
X85547Y63797D01*
X84860Y63270D01*
X84333Y62583D01*
X84054Y61910D01*
X86221D01*
Y64076D01*
D02*
G37*
G36*
X282854Y308993D02*
Y304921D01*
X283877D01*
Y307283D01*
X283724Y308051D01*
X283289Y308703D01*
X282854Y308993D01*
D02*
G37*
G36*
X280886D02*
X280451Y308703D01*
X280016Y308051D01*
X279863Y307283D01*
Y304921D01*
X280886D01*
Y308993D01*
D02*
G37*
G36*
X287854D02*
Y304921D01*
X288877D01*
Y307283D01*
X288724Y308051D01*
X288289Y308703D01*
X287854Y308993D01*
D02*
G37*
G36*
X285886D02*
X285451Y308703D01*
X285016Y308051D01*
X284863Y307283D01*
Y304921D01*
X285886D01*
Y308993D01*
D02*
G37*
G36*
X236122Y250394D02*
X235111D01*
Y250197D01*
X235218Y249659D01*
X235522Y249204D01*
X235978Y248899D01*
X236122Y248870D01*
Y250394D01*
D02*
G37*
G36*
X351476Y250689D02*
Y249311D01*
X352854D01*
X352727Y249617D01*
X352317Y250152D01*
X351783Y250562D01*
X351476Y250689D01*
D02*
G37*
G36*
X250787Y250519D02*
X250590D01*
X250053Y250412D01*
X249597Y250108D01*
X249292Y249652D01*
X249264Y249508D01*
X250787D01*
Y250519D01*
D02*
G37*
G36*
X239102Y250394D02*
X238090D01*
Y248870D01*
X238234Y248899D01*
X238690Y249204D01*
X238995Y249659D01*
X239102Y250197D01*
Y250394D01*
D02*
G37*
G36*
X349508Y250689D02*
X349202Y250562D01*
X348667Y250152D01*
X348257Y249617D01*
X348130Y249311D01*
X349508D01*
Y250689D01*
D02*
G37*
G36*
X68110Y270571D02*
X65944D01*
X66223Y269897D01*
X66750Y269211D01*
X67437Y268684D01*
X68110Y268405D01*
Y270571D01*
D02*
G37*
G36*
X88977Y308858D02*
X86811D01*
Y306692D01*
X87485Y306971D01*
X88171Y307498D01*
X88698Y308185D01*
X88977Y308858D01*
D02*
G37*
G36*
X109980Y312374D02*
X109730Y312350D01*
X108542Y311990D01*
X107448Y311405D01*
X106489Y310617D01*
X105702Y309658D01*
X105117Y308564D01*
X104756Y307377D01*
X104732Y307126D01*
X109980D01*
Y312374D01*
D02*
G37*
G36*
X72245Y270571D02*
X70079D01*
Y268405D01*
X70752Y268684D01*
X71439Y269211D01*
X71966Y269897D01*
X72245Y270571D01*
D02*
G37*
G36*
X84842Y308858D02*
X82676D01*
X82955Y308185D01*
X83482Y307498D01*
X84169Y306971D01*
X84842Y306692D01*
Y308858D01*
D02*
G37*
G36*
X55021Y307972D02*
X52854D01*
Y305806D01*
X53528Y306085D01*
X54215Y306612D01*
X54742Y307299D01*
X55021Y307972D01*
D02*
G37*
G36*
X50886D02*
X48719D01*
X48998Y307299D01*
X49525Y306612D01*
X50212Y306085D01*
X50886Y305806D01*
Y307972D01*
D02*
G37*
G36*
X316143Y308661D02*
X313976D01*
Y306495D01*
X314650Y306774D01*
X315337Y307301D01*
X315864Y307988D01*
X316143Y308661D01*
D02*
G37*
G36*
X312008D02*
X309842D01*
X310121Y307988D01*
X310648Y307301D01*
X311334Y306774D01*
X312008Y306495D01*
Y308661D01*
D02*
G37*
G36*
X252952Y250519D02*
X252756D01*
Y249508D01*
X254279D01*
X254250Y249652D01*
X253946Y250108D01*
X253490Y250412D01*
X252952Y250519D01*
D02*
G37*
G36*
X146555Y252068D02*
X145881Y251789D01*
X145195Y251262D01*
X144668Y250575D01*
X144389Y249902D01*
X146555D01*
Y252068D01*
D02*
G37*
G36*
X152854Y302559D02*
X150688D01*
X150967Y301885D01*
X151494Y301199D01*
X152181Y300672D01*
X152854Y300393D01*
Y302559D01*
D02*
G37*
G36*
X156989D02*
X154823D01*
Y300393D01*
X155497Y300672D01*
X156183Y301199D01*
X156710Y301885D01*
X156989Y302559D01*
D02*
G37*
G36*
X332972Y251773D02*
Y249606D01*
X335139D01*
X334860Y250280D01*
X334333Y250967D01*
X333646Y251494D01*
X332972Y251773D01*
D02*
G37*
G36*
X137197Y305157D02*
X131949D01*
Y299909D01*
X132199Y299934D01*
X133387Y300294D01*
X134481Y300879D01*
X135440Y301666D01*
X136228Y302625D01*
X136812Y303719D01*
X137173Y304907D01*
X137197Y305157D01*
D02*
G37*
G36*
X94488Y252166D02*
Y250000D01*
X96654D01*
X96376Y250674D01*
X95849Y251360D01*
X95162Y251887D01*
X94488Y252166D01*
D02*
G37*
G36*
X72736Y252757D02*
X72063Y252478D01*
X71376Y251951D01*
X70849Y251264D01*
X70570Y250590D01*
X72736D01*
Y252757D01*
D02*
G37*
G36*
X148524Y252068D02*
Y249902D01*
X150690D01*
X150411Y250575D01*
X149884Y251262D01*
X149197Y251789D01*
X148524Y252068D01*
D02*
G37*
G36*
X92520Y252166D02*
X91846Y251887D01*
X91159Y251360D01*
X90632Y250674D01*
X90353Y250000D01*
X92520D01*
Y252166D01*
D02*
G37*
G36*
X163189Y269883D02*
X162515Y269604D01*
X161829Y269077D01*
X161302Y268390D01*
X161023Y267717D01*
X163189D01*
Y269883D01*
D02*
G37*
G36*
X237854Y308993D02*
Y304921D01*
X238877D01*
Y307283D01*
X238724Y308051D01*
X238289Y308703D01*
X237854Y308993D01*
D02*
G37*
G36*
X331004Y251773D02*
X330330Y251494D01*
X329644Y250967D01*
X329117Y250280D01*
X328838Y249606D01*
X331004D01*
Y251773D01*
D02*
G37*
G36*
X165157Y269883D02*
Y267717D01*
X167324D01*
X167045Y268390D01*
X166518Y269077D01*
X165831Y269604D01*
X165157Y269883D01*
D02*
G37*
G36*
X235886Y308993D02*
X235451Y308703D01*
X235016Y308051D01*
X234863Y307283D01*
Y304921D01*
X235886D01*
Y308993D01*
D02*
G37*
G36*
X68307Y305611D02*
Y303445D01*
X70473D01*
X70194Y304118D01*
X69667Y304805D01*
X68981Y305332D01*
X68307Y305611D01*
D02*
G37*
G36*
X66339D02*
X65665Y305332D01*
X64978Y304805D01*
X64451Y304118D01*
X64172Y303445D01*
X66339D01*
Y305611D01*
D02*
G37*
G36*
X154823Y306694D02*
Y304528D01*
X156989D01*
X156710Y305201D01*
X156183Y305888D01*
X155497Y306415D01*
X154823Y306694D01*
D02*
G37*
G36*
X152854D02*
X152181Y306415D01*
X151494Y305888D01*
X150967Y305201D01*
X150688Y304528D01*
X152854D01*
Y306694D01*
D02*
G37*
G36*
X131949Y312374D02*
Y307126D01*
X137197D01*
X137173Y307377D01*
X136812Y308564D01*
X136228Y309658D01*
X135440Y310617D01*
X134481Y311405D01*
X133387Y311990D01*
X132199Y312350D01*
X131949Y312374D01*
D02*
G37*
G36*
X152855Y318701D02*
X150689D01*
Y316534D01*
X151363Y316813D01*
X152049Y317340D01*
X152576Y318027D01*
X152855Y318701D01*
D02*
G37*
G36*
X148721D02*
X146554D01*
X146833Y318027D01*
X147360Y317340D01*
X148047Y316813D01*
X148721Y316534D01*
Y318701D01*
D02*
G37*
G36*
X167324Y319488D02*
X165157D01*
Y317322D01*
X165831Y317601D01*
X166518Y318128D01*
X167045Y318815D01*
X167324Y319488D01*
D02*
G37*
G36*
X163189D02*
X161023D01*
X161302Y318815D01*
X161829Y318128D01*
X162515Y317601D01*
X163189Y317322D01*
Y319488D01*
D02*
G37*
G36*
X242224Y323649D02*
X241043D01*
X240506Y323542D01*
X240050Y323237D01*
X239745Y322781D01*
X239638Y322244D01*
Y319882D01*
X239745Y319344D01*
X239827Y319221D01*
Y316783D01*
X239328Y316402D01*
X238976Y316472D01*
X229587D01*
X228129Y317930D01*
X228217Y318602D01*
X228104Y319461D01*
X227773Y320260D01*
X227246Y320947D01*
X226559Y321474D01*
X225760Y321805D01*
X224902Y321918D01*
X224043Y321805D01*
X223244Y321474D01*
X222557Y320947D01*
X222030Y320260D01*
X221699Y319461D01*
X221586Y318602D01*
X221699Y317744D01*
X222030Y316945D01*
X222557Y316258D01*
X223095Y315845D01*
Y292913D01*
X223233Y292222D01*
X223624Y291636D01*
X239827Y275433D01*
Y268347D01*
X239863Y268168D01*
Y264764D01*
X240016Y263996D01*
X240451Y263345D01*
X241102Y262910D01*
X241870Y262757D01*
X242638Y262910D01*
X243289Y263345D01*
X243724Y263996D01*
X243877Y264764D01*
Y271457D01*
X243724Y272225D01*
X243440Y272650D01*
Y276181D01*
X243303Y276872D01*
X242911Y277458D01*
X226708Y293662D01*
Y313588D01*
X227170Y313779D01*
X227561Y313388D01*
X228147Y312997D01*
X228839Y312859D01*
X238228D01*
X239827Y311260D01*
Y304173D01*
X239863Y303995D01*
Y300591D01*
X240016Y299822D01*
X240451Y299171D01*
X241102Y298736D01*
X241870Y298584D01*
X242638Y298736D01*
X243289Y299171D01*
X243724Y299822D01*
X243877Y300591D01*
Y307283D01*
X243724Y308051D01*
X243440Y308477D01*
Y312008D01*
Y319221D01*
X243522Y319344D01*
X243629Y319882D01*
Y322244D01*
X243522Y322781D01*
X243218Y323237D01*
X242762Y323542D01*
X242224Y323649D01*
D02*
G37*
G36*
X329626Y336746D02*
X175000D01*
X174498Y336646D01*
X174072Y336361D01*
X170528Y332818D01*
X170244Y332392D01*
X170144Y331890D01*
Y252854D01*
X170244Y252352D01*
X170528Y251926D01*
X182340Y240115D01*
X182765Y239831D01*
X183268Y239731D01*
X261614D01*
X262117Y239831D01*
X262542Y240115D01*
X262827Y240541D01*
X262927Y241043D01*
X262827Y241546D01*
X262542Y241971D01*
X262117Y242256D01*
X262032Y242782D01*
X262482Y243128D01*
X263009Y243815D01*
X263288Y244488D01*
X256987D01*
X257266Y243815D01*
X257793Y243128D01*
X258148Y242856D01*
X257978Y242356D01*
X183811D01*
X172769Y253398D01*
Y331346D01*
X175544Y334120D01*
X329082D01*
X351691Y311511D01*
X351373Y311123D01*
X349530Y312354D01*
X347123Y313541D01*
X344582Y314404D01*
X341950Y314928D01*
X339272Y315103D01*
X336594Y314928D01*
X333962Y314404D01*
X331420Y313541D01*
X329013Y312354D01*
X326782Y310863D01*
X324764Y309094D01*
X322995Y307076D01*
X321504Y304845D01*
X320317Y302438D01*
X319454Y299897D01*
X318931Y297265D01*
X318755Y294587D01*
X318931Y291909D01*
X319454Y289277D01*
X320317Y286735D01*
X321504Y284328D01*
X322995Y282097D01*
X324764Y280079D01*
X326782Y278310D01*
X329013Y276819D01*
X331420Y275632D01*
X333962Y274769D01*
X336594Y274246D01*
X339272Y274070D01*
X341950Y274246D01*
X344582Y274769D01*
X347123Y275632D01*
X349530Y276819D01*
X351761Y278310D01*
X353779Y280079D01*
X355548Y282097D01*
X357039Y284328D01*
X358226Y286735D01*
X359089Y289277D01*
X359612Y291909D01*
X359788Y294587D01*
X359612Y297265D01*
X359089Y299897D01*
X358226Y302438D01*
X357039Y304845D01*
X355808Y306688D01*
X356196Y307006D01*
X363550Y299653D01*
Y266587D01*
X361070Y264108D01*
X333071D01*
X332569Y264008D01*
X332143Y263723D01*
X310983Y242563D01*
X310686Y242365D01*
X310677Y242356D01*
X278740D01*
X278238Y242256D01*
X277938Y242347D01*
X277786Y242713D01*
X277260Y243400D01*
X276573Y243927D01*
X275773Y244258D01*
X274915Y244371D01*
X274242Y244282D01*
X268689Y249836D01*
X268761Y250197D01*
Y250819D01*
X278147Y260206D01*
X278539Y260792D01*
X278676Y261483D01*
Y263924D01*
X278724Y263996D01*
X278877Y264764D01*
Y271457D01*
X278724Y272225D01*
X278289Y272876D01*
X277638Y273311D01*
X276870Y273464D01*
X276102Y273311D01*
X275451Y272876D01*
X275016Y272225D01*
X274863Y271457D01*
Y264764D01*
X275016Y263996D01*
X275064Y263924D01*
Y262231D01*
X274151Y261319D01*
X273806Y261448D01*
X273676Y261551D01*
Y263924D01*
X273724Y263996D01*
X273877Y264764D01*
Y271457D01*
X273724Y272225D01*
X273289Y272876D01*
X272638Y273311D01*
X271870Y273464D01*
X271102Y273311D01*
X270451Y272876D01*
X270016Y272225D01*
X269863Y271457D01*
Y264764D01*
X270016Y263996D01*
X270064Y263924D01*
Y262244D01*
X269138Y261319D01*
X268676Y261510D01*
Y263924D01*
X268724Y263996D01*
X268877Y264764D01*
Y271457D01*
X268724Y272225D01*
X268289Y272876D01*
X267638Y273311D01*
X266870Y273464D01*
X266102Y273311D01*
X265451Y272876D01*
X265016Y272225D01*
X264863Y271457D01*
Y264764D01*
X265016Y263996D01*
X265064Y263924D01*
Y256496D01*
Y253377D01*
X264877Y253097D01*
X264770Y252559D01*
Y250197D01*
X264877Y249659D01*
X264959Y249536D01*
Y249205D01*
X265096Y248514D01*
X265488Y247928D01*
X271688Y241728D01*
X271599Y241055D01*
X271712Y240197D01*
X272043Y239397D01*
X272570Y238710D01*
X273257Y238183D01*
X274057Y237852D01*
X274915Y237739D01*
X275773Y237852D01*
X276573Y238183D01*
X277260Y238710D01*
X277786Y239397D01*
X277927Y239736D01*
X278238Y239831D01*
X278740Y239731D01*
X311221D01*
X311723Y239831D01*
X312149Y240115D01*
X312344Y240311D01*
X312641Y240509D01*
X333615Y261483D01*
X361614D01*
X362117Y261583D01*
X362542Y261867D01*
X365790Y265115D01*
X366075Y265541D01*
X366175Y266043D01*
Y300197D01*
X366075Y300699D01*
X365790Y301125D01*
X365692Y301223D01*
X365692Y301223D01*
X330554Y336361D01*
X330128Y336646D01*
X329626Y336746D01*
D02*
G37*
G36*
X86811Y312993D02*
Y310827D01*
X88977D01*
X88698Y311500D01*
X88171Y312187D01*
X87485Y312714D01*
X86811Y312993D01*
D02*
G37*
G36*
X32580Y316339D02*
X30413D01*
Y314172D01*
X31087Y314451D01*
X31774Y314978D01*
X32301Y315665D01*
X32580Y316339D01*
D02*
G37*
G36*
X28445D02*
X26279D01*
X26558Y315665D01*
X27084Y314978D01*
X27771Y314451D01*
X28445Y314172D01*
Y316339D01*
D02*
G37*
G36*
X70079Y274706D02*
Y272539D01*
X72245D01*
X71966Y273213D01*
X71439Y273900D01*
X70752Y274427D01*
X70079Y274706D01*
D02*
G37*
G36*
X68110D02*
X67437Y274427D01*
X66750Y273900D01*
X66223Y273213D01*
X65944Y272539D01*
X68110D01*
Y274706D01*
D02*
G37*
G36*
X288314Y320078D02*
X287303D01*
Y318555D01*
X287447Y318584D01*
X287903Y318888D01*
X288208Y319344D01*
X288314Y319882D01*
Y320078D01*
D02*
G37*
G36*
X285335D02*
X284323D01*
Y319882D01*
X284430Y319344D01*
X284735Y318888D01*
X285191Y318584D01*
X285335Y318555D01*
Y320078D01*
D02*
G37*
G36*
X237724D02*
X236713D01*
Y318555D01*
X236857Y318584D01*
X237312Y318888D01*
X237617Y319344D01*
X237724Y319882D01*
Y320078D01*
D02*
G37*
G36*
X28445Y320473D02*
X27771Y320194D01*
X27084Y319667D01*
X26558Y318981D01*
X26279Y318307D01*
X28445D01*
Y320473D01*
D02*
G37*
G36*
X281004Y323649D02*
X279823D01*
X279285Y323542D01*
X278829Y323237D01*
X278583Y322869D01*
X274015D01*
X273324Y322731D01*
X272738Y322340D01*
X270593Y320195D01*
X268294Y317896D01*
X267820Y318129D01*
X267883Y318602D01*
X267770Y319461D01*
X267439Y320260D01*
X266912Y320947D01*
X266225Y321474D01*
X265425Y321805D01*
X264567Y321918D01*
X263709Y321805D01*
X262909Y321474D01*
X262222Y320947D01*
X261695Y320260D01*
X261364Y319461D01*
X261251Y318602D01*
X261340Y317930D01*
X260593Y317183D01*
X260201Y316597D01*
X260064Y315905D01*
Y308123D01*
X260016Y308051D01*
X259863Y307283D01*
Y300591D01*
X260016Y299822D01*
X260451Y299171D01*
X261102Y298736D01*
X261870Y298584D01*
X262638Y298736D01*
X263289Y299171D01*
X263724Y299822D01*
X263877Y300591D01*
Y307283D01*
X263724Y308051D01*
X263676Y308123D01*
Y314967D01*
X264097Y315348D01*
X264567Y315287D01*
X265100Y315357D01*
X265390Y314891D01*
X265201Y314609D01*
X265064Y313917D01*
Y308123D01*
X265016Y308051D01*
X264863Y307283D01*
Y300591D01*
X265016Y299822D01*
X265451Y299171D01*
X266102Y298736D01*
X266870Y298584D01*
X267638Y298736D01*
X268289Y299171D01*
X268724Y299822D01*
X268877Y300591D01*
Y307283D01*
X268724Y308051D01*
X268676Y308123D01*
Y313169D01*
X269602Y314094D01*
X270064Y313903D01*
Y308123D01*
X270016Y308051D01*
X269863Y307283D01*
Y300591D01*
X270016Y299822D01*
X270451Y299171D01*
X271102Y298736D01*
X271870Y298584D01*
X272638Y298736D01*
X273289Y299171D01*
X273724Y299822D01*
X273877Y300591D01*
Y307283D01*
X273724Y308051D01*
X273676Y308123D01*
Y318169D01*
X274764Y319256D01*
X278583D01*
X278829Y318888D01*
X279285Y318584D01*
X279823Y318477D01*
X281004D01*
X281542Y318584D01*
X281997Y318888D01*
X282302Y319344D01*
X282409Y319882D01*
Y322244D01*
X282302Y322781D01*
X281997Y323237D01*
X281542Y323542D01*
X281004Y323649D01*
D02*
G37*
G36*
X234744Y320078D02*
X233733D01*
Y319882D01*
X233840Y319344D01*
X234144Y318888D01*
X234600Y318584D01*
X234744Y318555D01*
Y320078D01*
D02*
G37*
G36*
X30413Y320473D02*
Y318307D01*
X32580D01*
X32301Y318981D01*
X31774Y319667D01*
X31087Y320194D01*
X30413Y320473D01*
D02*
G37*
G36*
X151477Y273228D02*
X149311D01*
Y271062D01*
X149985Y271341D01*
X150671Y271868D01*
X151198Y272555D01*
X151477Y273228D01*
D02*
G37*
G36*
X250787Y247539D02*
X249264D01*
X249292Y247395D01*
X249597Y246940D01*
X250053Y246635D01*
X250590Y246528D01*
X250787D01*
Y247539D01*
D02*
G37*
G36*
X50886Y312107D02*
X50212Y311828D01*
X49525Y311301D01*
X48998Y310615D01*
X48719Y309941D01*
X50886D01*
Y312107D01*
D02*
G37*
G36*
X76871Y248622D02*
X74705D01*
Y246456D01*
X75378Y246735D01*
X76065Y247262D01*
X76592Y247948D01*
X76871Y248622D01*
D02*
G37*
G36*
X251870Y273464D02*
X251102Y273311D01*
X250451Y272876D01*
X250016Y272225D01*
X249863Y271457D01*
Y264764D01*
X249965Y264251D01*
Y256259D01*
X249597Y256013D01*
X249292Y255557D01*
X249185Y255020D01*
Y253839D01*
X249292Y253301D01*
X249597Y252845D01*
X250053Y252541D01*
X250590Y252434D01*
X252952D01*
X253490Y252541D01*
X253613Y252623D01*
X257061D01*
X258864Y250819D01*
Y250197D01*
X258971Y249659D01*
X259276Y249204D01*
X259307Y249183D01*
X259291Y248887D01*
X259210Y248646D01*
X258480Y248344D01*
X257793Y247817D01*
X257266Y247130D01*
X256987Y246457D01*
X263288D01*
X263009Y247130D01*
X262482Y247817D01*
X261796Y248344D01*
X261784Y248349D01*
X261835Y248869D01*
X261988Y248899D01*
X262444Y249204D01*
X262748Y249659D01*
X262855Y250197D01*
Y252559D01*
X262748Y253097D01*
X262444Y253553D01*
X261988Y253857D01*
X261450Y253964D01*
X260828D01*
X259086Y255706D01*
X258500Y256098D01*
X257809Y256236D01*
X253613D01*
X253578Y256259D01*
Y263776D01*
X253724Y263996D01*
X253877Y264764D01*
Y271457D01*
X253724Y272225D01*
X253289Y272876D01*
X252638Y273311D01*
X251870Y273464D01*
D02*
G37*
G36*
X120965Y320907D02*
X119731Y320744D01*
X118582Y320269D01*
X117595Y319511D01*
X116838Y318524D01*
X116362Y317375D01*
X116199Y316142D01*
X116362Y314908D01*
X116795Y313862D01*
Y309625D01*
X116310Y309504D01*
X116227Y309658D01*
X115440Y310617D01*
X114481Y311405D01*
X113387Y311990D01*
X112199Y312350D01*
X111949Y312374D01*
Y306142D01*
Y299909D01*
X112199Y299934D01*
X113387Y300294D01*
X114481Y300879D01*
X115440Y301666D01*
X116227Y302625D01*
X116310Y302780D01*
X116795Y302658D01*
Y288692D01*
X116214Y288215D01*
X115378Y287197D01*
X114758Y286036D01*
X114375Y284775D01*
X114246Y283465D01*
Y195374D01*
X114375Y194063D01*
X114758Y192803D01*
X115378Y191641D01*
X115631Y191334D01*
X115657Y191283D01*
X117842Y188521D01*
X117855Y188510D01*
X117864Y188495D01*
X118892Y187304D01*
X118910Y187291D01*
X118922Y187272D01*
X119307Y186872D01*
X119331Y186855D01*
X119348Y186832D01*
X119648Y186562D01*
X119702Y186530D01*
X119746Y186487D01*
X119760Y186477D01*
Y183650D01*
X119260Y183354D01*
X118996Y183407D01*
X118574Y183323D01*
X118350Y183173D01*
X118012Y183117D01*
Y181004D01*
X117028D01*
Y180020D01*
X115823D01*
Y178665D01*
X114469D01*
Y177461D01*
X113484D01*
Y176476D01*
X111371D01*
D01*
X111315Y176139D01*
X111165Y175915D01*
X111098Y175575D01*
X110834Y175416D01*
X110601Y175344D01*
X107531Y177995D01*
X107512Y178006D01*
X107498Y178022D01*
X106447Y178836D01*
X106399Y178860D01*
X106095Y179110D01*
X104933Y179731D01*
X104640Y179820D01*
X103673Y180113D01*
X102362Y180242D01*
X60807D01*
X59496Y180113D01*
X58236Y179731D01*
X57695Y179442D01*
X57119Y179134D01*
X53405D01*
Y167559D01*
X57274D01*
X58059Y167139D01*
X59319Y166757D01*
X60630Y166628D01*
X61941Y166757D01*
X62099Y166805D01*
X102362D01*
X102362Y166805D01*
X103673Y166934D01*
X104933Y167316D01*
X106095Y167937D01*
X106402Y168190D01*
X106454Y168216D01*
X109215Y170401D01*
X109226Y170414D01*
X109241Y170423D01*
X110432Y171451D01*
X110446Y171469D01*
X110464Y171481D01*
X110599Y171610D01*
X110709Y171598D01*
X111110Y171409D01*
X111165Y171133D01*
X111315Y170909D01*
X111371Y170571D01*
X113484D01*
Y169587D01*
X114469D01*
Y168382D01*
X115823D01*
Y167028D01*
X117028D01*
Y166043D01*
X118012D01*
Y163930D01*
D01*
X118350Y163874D01*
X118574Y163724D01*
X118996Y163640D01*
X119260Y163693D01*
X119760Y163397D01*
Y161945D01*
X119746Y161936D01*
X119666Y161858D01*
X119578Y161789D01*
X116494Y158218D01*
X116483Y158199D01*
X116467Y158185D01*
X115653Y157135D01*
X115634Y157097D01*
X115361Y156764D01*
X114741Y155603D01*
X114358Y154343D01*
X114229Y153033D01*
Y146129D01*
X114358Y144818D01*
X114741Y143559D01*
X115028Y143020D01*
X115028Y143017D01*
X115028Y143017D01*
X116584Y140106D01*
X119468Y135468D01*
X122650Y131028D01*
X126114Y126806D01*
X129848Y122820D01*
X133834Y119087D01*
X138056Y115622D01*
X142495Y112441D01*
X147133Y109556D01*
X151950Y106982D01*
X156925Y104728D01*
X162036Y102804D01*
X167263Y101218D01*
X172582Y99978D01*
X177970Y99089D01*
X182306Y98662D01*
X182744Y98529D01*
X184055Y98400D01*
X188100D01*
X188864Y98375D01*
X189628Y98400D01*
X268799D01*
X270109Y98529D01*
X271370Y98911D01*
X272531Y99532D01*
X272838Y99783D01*
X272890Y99810D01*
X275652Y101995D01*
X275663Y102009D01*
X275678Y102017D01*
X276869Y103045D01*
X276882Y103063D01*
X276901Y103075D01*
X277137Y103303D01*
X277406Y103217D01*
X277630Y103083D01*
X277700Y102727D01*
X277850Y102503D01*
X277906Y102165D01*
X280020D01*
Y101181D01*
X281004D01*
Y99977D01*
X282354D01*
X282622Y99477D01*
X282543Y99360D01*
X282459Y98937D01*
Y98112D01*
X282450Y98099D01*
X282359Y97638D01*
Y31398D01*
X282359Y31398D01*
X282450Y30937D01*
X282711Y30546D01*
X300920Y12337D01*
X300920Y12337D01*
X301311Y12076D01*
X301772Y11985D01*
X301772Y11985D01*
X334055D01*
X334055Y11985D01*
X334516Y12076D01*
X334907Y12337D01*
X366698Y44129D01*
X366698Y44129D01*
X366855Y44363D01*
X366959Y44519D01*
X367051Y44980D01*
Y200689D01*
X367051Y200689D01*
X366959Y201150D01*
X366698Y201540D01*
X362720Y205519D01*
Y207579D01*
X362720Y207579D01*
X362628Y208040D01*
X362367Y208430D01*
X362367Y208430D01*
X336678Y234119D01*
X336288Y234380D01*
X335827Y234472D01*
X335827Y234472D01*
X277666D01*
X277478Y234926D01*
X276951Y235612D01*
X276264Y236139D01*
X275465Y236471D01*
X274606Y236583D01*
X273748Y236471D01*
X272948Y236139D01*
X272262Y235612D01*
X271735Y234926D01*
X271404Y234126D01*
X271290Y233268D01*
X271404Y232410D01*
X271735Y231610D01*
X272100Y231133D01*
X271854Y230633D01*
X242064D01*
X241603Y230542D01*
X241213Y230281D01*
X183593Y172661D01*
X131071D01*
X130813Y173031D01*
X130776Y173161D01*
X130848Y173524D01*
X130764Y173946D01*
X130614Y174170D01*
X130558Y174508D01*
X128445D01*
Y176256D01*
X128906Y176348D01*
X128919Y176356D01*
X129744D01*
X130167Y176441D01*
X130220Y176476D01*
X130558D01*
D01*
X130614Y176814D01*
X130764Y177038D01*
X130848Y177461D01*
X130764Y177883D01*
X130686Y177999D01*
X131109Y178422D01*
X140453D01*
X140453Y178422D01*
X140914Y178513D01*
X141304Y178774D01*
X142584Y180054D01*
X142845Y180445D01*
X142937Y180905D01*
X142937Y180906D01*
Y192905D01*
X143390Y193093D01*
X144077Y193620D01*
X144604Y194307D01*
X144935Y195106D01*
X145048Y195965D01*
X144935Y196823D01*
X144604Y197623D01*
X144077Y198309D01*
X143390Y198836D01*
X142590Y199167D01*
X141732Y199280D01*
X140874Y199167D01*
X140074Y198836D01*
X139388Y198309D01*
X138861Y197623D01*
X138530Y196823D01*
X138417Y195965D01*
X138530Y195106D01*
X138861Y194307D01*
X139388Y193620D01*
X140074Y193093D01*
X140528Y192905D01*
Y181404D01*
X139954Y180830D01*
X130610D01*
X130149Y180739D01*
X129759Y180477D01*
X127846Y178565D01*
X127146D01*
X126723Y178481D01*
X126606Y178402D01*
X126106Y178669D01*
Y180020D01*
X124902D01*
Y181004D01*
X123917D01*
Y183117D01*
D01*
X123580Y183173D01*
X123355Y183323D01*
X122933Y183407D01*
X122669Y183354D01*
X122169Y183650D01*
Y186477D01*
X122183Y186487D01*
X122263Y186565D01*
X122351Y186634D01*
X125436Y190206D01*
X125447Y190224D01*
X125463Y190238D01*
X126277Y191289D01*
X126301Y191338D01*
X126551Y191641D01*
X127172Y192803D01*
X127554Y194063D01*
X127683Y195374D01*
Y283465D01*
X127554Y284775D01*
X127172Y286036D01*
X126551Y287197D01*
X125715Y288215D01*
X125134Y288692D01*
Y302658D01*
X125619Y302780D01*
X125702Y302625D01*
X126489Y301666D01*
X127448Y300879D01*
X128542Y300294D01*
X129730Y299934D01*
X129980Y299909D01*
Y306142D01*
Y312374D01*
X129730Y312350D01*
X128542Y311990D01*
X127448Y311405D01*
X126489Y310617D01*
X125702Y309658D01*
X125619Y309504D01*
X125134Y309625D01*
Y313862D01*
X125567Y314908D01*
X125730Y316142D01*
X125567Y317375D01*
X125091Y318524D01*
X124334Y319511D01*
X123347Y320269D01*
X122198Y320744D01*
X120965Y320907D01*
D02*
G37*
G36*
X254279Y247539D02*
X252756D01*
Y246528D01*
X252952D01*
X253490Y246635D01*
X253946Y246940D01*
X254250Y247395D01*
X254279Y247539D01*
D02*
G37*
G36*
X246870Y273464D02*
X246102Y273311D01*
X245451Y272876D01*
X245016Y272225D01*
X244863Y271457D01*
Y264764D01*
X245016Y263996D01*
X245064Y263924D01*
Y255985D01*
X243043Y253964D01*
X242421D01*
X241884Y253857D01*
X241428Y253553D01*
X241123Y253097D01*
X241016Y252559D01*
Y250197D01*
X241123Y249659D01*
X241428Y249204D01*
X241884Y248899D01*
X242421Y248792D01*
X243602D01*
X244140Y248899D01*
X244596Y249204D01*
X244900Y249659D01*
X245007Y250197D01*
Y250819D01*
X248147Y253959D01*
X248539Y254545D01*
X248676Y255237D01*
Y263924D01*
X248724Y263996D01*
X248877Y264764D01*
Y271457D01*
X248724Y272225D01*
X248289Y272876D01*
X247638Y273311D01*
X246870Y273464D01*
D02*
G37*
G36*
X262854Y273167D02*
Y269094D01*
X263877D01*
Y271457D01*
X263724Y272225D01*
X263289Y272876D01*
X262854Y273167D01*
D02*
G37*
G36*
X260886D02*
X260451Y272876D01*
X260016Y272225D01*
X259863Y271457D01*
Y269094D01*
X260886D01*
Y273167D01*
D02*
G37*
G36*
X92520Y248031D02*
X90353D01*
X90632Y247358D01*
X91159Y246671D01*
X91846Y246144D01*
X92520Y245865D01*
Y248031D01*
D02*
G37*
G36*
X96654D02*
X94488D01*
Y245865D01*
X95162Y246144D01*
X95849Y246671D01*
X96376Y247358D01*
X96654Y248031D01*
D02*
G37*
G36*
X147343Y273228D02*
X145176D01*
X145455Y272555D01*
X145982Y271868D01*
X146669Y271341D01*
X147343Y271062D01*
Y273228D01*
D02*
G37*
G36*
X313386Y280021D02*
X312712Y279742D01*
X312025Y279215D01*
X311498Y278528D01*
X311220Y277854D01*
X313386D01*
Y280021D01*
D02*
G37*
G36*
X84842Y312993D02*
X84169Y312714D01*
X83482Y312187D01*
X82955Y311500D01*
X82676Y310827D01*
X84842D01*
Y312993D01*
D02*
G37*
G36*
X52854Y312107D02*
Y309941D01*
X55021D01*
X54742Y310615D01*
X54215Y311301D01*
X53528Y311828D01*
X52854Y312107D01*
D02*
G37*
G36*
X72736Y248622D02*
X70570D01*
X70849Y247948D01*
X71376Y247262D01*
X72063Y246735D01*
X72736Y246456D01*
Y248622D01*
D02*
G37*
G36*
X313976Y312796D02*
Y310630D01*
X316143D01*
X315864Y311304D01*
X315337Y311990D01*
X314650Y312517D01*
X313976Y312796D01*
D02*
G37*
G36*
X312008D02*
X311334Y312517D01*
X310648Y311990D01*
X310121Y311304D01*
X309842Y310630D01*
X312008D01*
Y312796D01*
D02*
G37*
G36*
X65060Y286024D02*
X62894D01*
Y283857D01*
X63567Y284136D01*
X64254Y284663D01*
X64781Y285350D01*
X65060Y286024D01*
D02*
G37*
G36*
X60925D02*
X58759D01*
X59038Y285350D01*
X59565Y284663D01*
X60252Y284136D01*
X60925Y283857D01*
Y286024D01*
D02*
G37*
G36*
X315846Y260827D02*
X313680D01*
X313959Y260153D01*
X314486Y259466D01*
X315173Y258940D01*
X315846Y258660D01*
Y260827D01*
D02*
G37*
G36*
X319981D02*
X317815D01*
Y258660D01*
X318489Y258940D01*
X319175Y259466D01*
X319702Y260153D01*
X319981Y260827D01*
D02*
G37*
G36*
X209547Y261812D02*
X208874Y261533D01*
X208187Y261006D01*
X207660Y260319D01*
X207381Y259646D01*
X209547D01*
Y261812D01*
D02*
G37*
G36*
X48484Y265819D02*
Y260571D01*
X53733D01*
X53708Y260822D01*
X53348Y262009D01*
X52763Y263103D01*
X51976Y264062D01*
X51017Y264850D01*
X49922Y265435D01*
X48735Y265795D01*
X48484Y265819D01*
D02*
G37*
G36*
X236870Y273464D02*
X236102Y273311D01*
X235451Y272876D01*
X235016Y272225D01*
X234863Y271457D01*
Y264764D01*
X235016Y263996D01*
X235451Y263345D01*
X236102Y262910D01*
X236870Y262757D01*
X237638Y262910D01*
X238289Y263345D01*
X238724Y263996D01*
X238877Y264764D01*
Y271457D01*
X238724Y272225D01*
X238289Y272876D01*
X237638Y273311D01*
X236870Y273464D01*
D02*
G37*
G36*
X211516Y261812D02*
Y259646D01*
X213682D01*
X213403Y260319D01*
X212876Y261006D01*
X212189Y261533D01*
X211516Y261812D01*
D02*
G37*
G36*
X26516Y265819D02*
X26265Y265795D01*
X25078Y265435D01*
X23983Y264850D01*
X23024Y264062D01*
X22237Y263103D01*
X21652Y262009D01*
X21292Y260822D01*
X21267Y260571D01*
X26516D01*
Y265819D01*
D02*
G37*
G36*
X162106Y287501D02*
X161433Y287222D01*
X160746Y286695D01*
X160219Y286008D01*
X159940Y285335D01*
X162106D01*
Y287501D01*
D02*
G37*
G36*
X97737Y287303D02*
X95571D01*
Y285137D01*
X96245Y285416D01*
X96931Y285943D01*
X97458Y286630D01*
X97737Y287303D01*
D02*
G37*
G36*
X164075Y287501D02*
Y285335D01*
X166241D01*
X165962Y286008D01*
X165435Y286695D01*
X164748Y287222D01*
X164075Y287501D01*
D02*
G37*
G36*
X315354Y280021D02*
Y277854D01*
X317521D01*
X317242Y278528D01*
X316715Y279215D01*
X316028Y279742D01*
X315354Y280021D01*
D02*
G37*
G36*
X93602Y287303D02*
X91436D01*
X91715Y286630D01*
X92242Y285943D01*
X92929Y285416D01*
X93602Y285137D01*
Y287303D01*
D02*
G37*
G36*
X83268Y286123D02*
Y283957D01*
X85434D01*
X85155Y284630D01*
X84628Y285317D01*
X83941Y285844D01*
X83268Y286123D01*
D02*
G37*
G36*
X81299D02*
X80626Y285844D01*
X79939Y285317D01*
X79412Y284630D01*
X79133Y283957D01*
X81299D01*
Y286123D01*
D02*
G37*
G36*
X17619Y286417D02*
X15453D01*
Y284251D01*
X16126Y284530D01*
X16813Y285057D01*
X17340Y285744D01*
X17619Y286417D01*
D02*
G37*
G36*
X13484D02*
X11318D01*
X11597Y285744D01*
X12124Y285057D01*
X12811Y284530D01*
X13484Y284251D01*
Y286417D01*
D02*
G37*
G36*
X256870Y273464D02*
X256102Y273311D01*
X255451Y272876D01*
X255016Y272225D01*
X254863Y271457D01*
Y264764D01*
X255016Y263996D01*
X255451Y263345D01*
X256102Y262910D01*
X256870Y262757D01*
X257638Y262910D01*
X258289Y263345D01*
X258724Y263996D01*
X258877Y264764D01*
Y271457D01*
X258724Y272225D01*
X258289Y272876D01*
X257638Y273311D01*
X256870Y273464D01*
D02*
G37*
G36*
X46516Y285819D02*
X46265Y285795D01*
X45078Y285435D01*
X43983Y284850D01*
X43024Y284062D01*
X42237Y283103D01*
X41652Y282009D01*
X41292Y280821D01*
X41267Y280571D01*
X46516D01*
Y285819D01*
D02*
G37*
G36*
X317815Y264962D02*
Y262795D01*
X319981D01*
X319702Y263469D01*
X319175Y264156D01*
X318489Y264683D01*
X317815Y264962D01*
D02*
G37*
G36*
X162106Y283366D02*
X159940D01*
X160219Y282693D01*
X160746Y282006D01*
X161433Y281479D01*
X162106Y281200D01*
Y283366D01*
D02*
G37*
G36*
X48484Y285819D02*
Y280571D01*
X53733D01*
X53708Y280821D01*
X53348Y282009D01*
X52763Y283103D01*
X51976Y284062D01*
X51017Y284850D01*
X49922Y285435D01*
X48735Y285795D01*
X48484Y285819D01*
D02*
G37*
G36*
X37500Y274352D02*
X36267Y274189D01*
X35117Y273713D01*
X34130Y272956D01*
X33373Y271969D01*
X32897Y270820D01*
X32735Y269587D01*
X32897Y268353D01*
X33331Y267307D01*
Y263070D01*
X32846Y262949D01*
X32763Y263103D01*
X31976Y264062D01*
X31017Y264850D01*
X29922Y265435D01*
X28735Y265795D01*
X28484Y265819D01*
Y259587D01*
Y253354D01*
X28735Y253379D01*
X29922Y253739D01*
X31017Y254324D01*
X31976Y255111D01*
X32763Y256070D01*
X32846Y256224D01*
X33331Y256103D01*
Y252360D01*
X33305Y252122D01*
X33249Y251809D01*
X33169Y251496D01*
X33067Y251184D01*
X32940Y250873D01*
X32789Y250561D01*
X32614Y250249D01*
X32412Y249936D01*
X32172Y249606D01*
X32154Y249567D01*
X31914Y249274D01*
X31293Y248112D01*
X30911Y246852D01*
X30781Y245541D01*
Y197451D01*
X30911Y196140D01*
X31293Y194880D01*
X31914Y193718D01*
X32154Y193425D01*
X32172Y193386D01*
X32412Y193056D01*
X32614Y192743D01*
X32789Y192431D01*
X32940Y192119D01*
X33067Y191808D01*
X33169Y191496D01*
X33249Y191184D01*
X33305Y190870D01*
X33331Y190632D01*
Y173795D01*
X33271Y173346D01*
X33406Y172328D01*
Y167559D01*
X41476D01*
Y172203D01*
X41527Y172326D01*
X41669Y173406D01*
Y190632D01*
X41695Y190870D01*
X41751Y191184D01*
X41831Y191496D01*
X41933Y191808D01*
X42060Y192119D01*
X42211Y192431D01*
X42386Y192743D01*
X42588Y193056D01*
X42828Y193386D01*
X42846Y193425D01*
X43086Y193718D01*
X43707Y194880D01*
X44089Y196140D01*
X44219Y197451D01*
Y245541D01*
X44089Y246852D01*
X43707Y248112D01*
X43086Y249274D01*
X42846Y249567D01*
X42828Y249606D01*
X42588Y249937D01*
X42386Y250249D01*
X42211Y250561D01*
X42060Y250873D01*
X41933Y251184D01*
X41831Y251496D01*
X41751Y251809D01*
X41695Y252122D01*
X41669Y252360D01*
Y256103D01*
X42154Y256224D01*
X42237Y256070D01*
X43024Y255111D01*
X43983Y254324D01*
X45078Y253739D01*
X46265Y253379D01*
X46516Y253354D01*
Y259587D01*
Y265819D01*
X46265Y265795D01*
X45078Y265435D01*
X43983Y264850D01*
X43024Y264062D01*
X42237Y263103D01*
X42154Y262949D01*
X41669Y263070D01*
Y267307D01*
X42103Y268353D01*
X42265Y269587D01*
X42103Y270820D01*
X41627Y271969D01*
X40870Y272956D01*
X39883Y273713D01*
X38733Y274189D01*
X37500Y274352D01*
D02*
G37*
G36*
X260886Y267126D02*
X259863D01*
Y264764D01*
X260016Y263996D01*
X260451Y263345D01*
X260886Y263054D01*
Y267126D01*
D02*
G37*
G36*
X263877D02*
X262854D01*
Y263054D01*
X263289Y263345D01*
X263724Y263996D01*
X263877Y264764D01*
Y267126D01*
D02*
G37*
G36*
X28484Y285819D02*
Y280571D01*
X33733D01*
X33708Y280821D01*
X33348Y282009D01*
X32763Y283103D01*
X31976Y284062D01*
X31017Y284850D01*
X29922Y285435D01*
X28735Y285795D01*
X28484Y285819D01*
D02*
G37*
G36*
X26516D02*
X26265Y285795D01*
X25078Y285435D01*
X23983Y284850D01*
X23024Y284062D01*
X22237Y283103D01*
X21652Y282009D01*
X21292Y280821D01*
X21267Y280571D01*
X26516D01*
Y285819D01*
D02*
G37*
G36*
X90453Y265650D02*
X88286D01*
X88565Y264976D01*
X89092Y264289D01*
X89779Y263762D01*
X90453Y263483D01*
Y265650D01*
D02*
G37*
G36*
X81299Y281988D02*
X79133D01*
X79412Y281315D01*
X79939Y280628D01*
X80626Y280101D01*
X81299Y279822D01*
Y281988D01*
D02*
G37*
G36*
X268800Y283661D02*
X266634D01*
Y281495D01*
X267307Y281774D01*
X267994Y282301D01*
X268521Y282988D01*
X268800Y283661D01*
D02*
G37*
G36*
X94588Y265650D02*
X92421D01*
Y263483D01*
X93095Y263762D01*
X93782Y264289D01*
X94309Y264976D01*
X94588Y265650D01*
D02*
G37*
G36*
X85434Y281988D02*
X83268D01*
Y279822D01*
X83941Y280101D01*
X84628Y280628D01*
X85155Y281315D01*
X85434Y281988D01*
D02*
G37*
G36*
X315846Y264962D02*
X315173Y264683D01*
X314486Y264156D01*
X313959Y263469D01*
X313680Y262795D01*
X315846D01*
Y264962D01*
D02*
G37*
G36*
X166241Y283366D02*
X164075D01*
Y281200D01*
X164748Y281479D01*
X165435Y282006D01*
X165962Y282693D01*
X166241Y283366D01*
D02*
G37*
G36*
X264665Y283661D02*
X262499D01*
X262778Y282988D01*
X263305Y282301D01*
X263992Y281774D01*
X264665Y281495D01*
Y283661D01*
D02*
G37*
G36*
X281870Y273464D02*
X281102Y273311D01*
X280451Y272876D01*
X280016Y272225D01*
X279863Y271457D01*
Y264764D01*
X280016Y263996D01*
X280451Y263345D01*
X281102Y262910D01*
X281870Y262757D01*
X282638Y262910D01*
X283289Y263345D01*
X283724Y263996D01*
X283877Y264764D01*
Y271457D01*
X283724Y272225D01*
X283289Y272876D01*
X282638Y273311D01*
X281870Y273464D01*
D02*
G37*
G36*
X264665Y287796D02*
X263992Y287517D01*
X263305Y286990D01*
X262778Y286304D01*
X262499Y285630D01*
X264665D01*
Y287796D01*
D02*
G37*
G36*
X251870Y309291D02*
X251102Y309138D01*
X250451Y308703D01*
X250016Y308051D01*
X249863Y307283D01*
Y300591D01*
X250016Y299822D01*
X250451Y299171D01*
X251102Y298736D01*
X251870Y298584D01*
X252638Y298736D01*
X253289Y299171D01*
X253724Y299822D01*
X253877Y300591D01*
Y307283D01*
X253724Y308051D01*
X253289Y308703D01*
X252638Y309138D01*
X251870Y309291D01*
D02*
G37*
G36*
X246870D02*
X246102Y309138D01*
X245451Y308703D01*
X245016Y308051D01*
X244863Y307283D01*
Y300591D01*
X245016Y299822D01*
X245451Y299171D01*
X246102Y298736D01*
X246870Y298584D01*
X247638Y298736D01*
X248289Y299171D01*
X248724Y299822D01*
X248877Y300591D01*
Y307283D01*
X248724Y308051D01*
X248289Y308703D01*
X247638Y309138D01*
X246870Y309291D01*
D02*
G37*
G36*
X236122Y253886D02*
X235978Y253857D01*
X235522Y253553D01*
X235218Y253097D01*
X235111Y252559D01*
Y252362D01*
X236122D01*
Y253886D01*
D02*
G37*
G36*
X235886Y302953D02*
X234863D01*
Y300591D01*
X235016Y299822D01*
X235451Y299171D01*
X235886Y298881D01*
Y302953D01*
D02*
G37*
G36*
X200689Y315038D02*
Y295571D01*
X220156D01*
X220045Y297265D01*
X219522Y299897D01*
X218659Y302438D01*
X217472Y304845D01*
X215981Y307076D01*
X214212Y309094D01*
X212194Y310863D01*
X209963Y312354D01*
X207556Y313541D01*
X205014Y314404D01*
X202382Y314928D01*
X200689Y315038D01*
D02*
G37*
G36*
X90453Y269784D02*
X89779Y269505D01*
X89092Y268979D01*
X88565Y268292D01*
X88286Y267618D01*
X90453D01*
Y269784D01*
D02*
G37*
G36*
X140551Y293407D02*
Y291240D01*
X142718D01*
X142438Y291914D01*
X141911Y292600D01*
X141225Y293127D01*
X140551Y293407D01*
D02*
G37*
G36*
X198720Y315038D02*
X197027Y314928D01*
X194395Y314404D01*
X191853Y313541D01*
X189446Y312354D01*
X187215Y310863D01*
X185197Y309094D01*
X183428Y307076D01*
X181937Y304845D01*
X180750Y302438D01*
X179887Y299897D01*
X179364Y297265D01*
X179253Y295571D01*
X198720D01*
Y315038D01*
D02*
G37*
G36*
X92421Y269784D02*
Y267618D01*
X94588D01*
X94309Y268292D01*
X93782Y268979D01*
X93095Y269505D01*
X92421Y269784D01*
D02*
G37*
G36*
X66339Y301476D02*
X64172D01*
X64451Y300803D01*
X64978Y300116D01*
X65665Y299589D01*
X66339Y299310D01*
Y301476D01*
D02*
G37*
G36*
X288877Y302953D02*
X287854D01*
Y298881D01*
X288289Y299171D01*
X288724Y299822D01*
X288877Y300591D01*
Y302953D01*
D02*
G37*
G36*
X109980Y305157D02*
X104732D01*
X104756Y304907D01*
X105117Y303719D01*
X105702Y302625D01*
X106489Y301666D01*
X107448Y300879D01*
X108542Y300294D01*
X109730Y299934D01*
X109980Y299909D01*
Y305157D01*
D02*
G37*
G36*
X70473Y301476D02*
X68307D01*
Y299310D01*
X68981Y299589D01*
X69667Y300116D01*
X70194Y300803D01*
X70473Y301476D01*
D02*
G37*
G36*
X285886Y302953D02*
X284863D01*
Y300591D01*
X285016Y299822D01*
X285451Y299171D01*
X285886Y298881D01*
Y302953D01*
D02*
G37*
G36*
X238877D02*
X237854D01*
Y298881D01*
X238289Y299171D01*
X238724Y299822D01*
X238877Y300591D01*
Y302953D01*
D02*
G37*
G36*
X74705Y252757D02*
Y250590D01*
X76871D01*
X76592Y251264D01*
X76065Y251951D01*
X75378Y252478D01*
X74705Y252757D01*
D02*
G37*
G36*
X283877Y302953D02*
X282854D01*
Y298881D01*
X283289Y299171D01*
X283724Y299822D01*
X283877Y300591D01*
Y302953D01*
D02*
G37*
G36*
X280886D02*
X279863D01*
Y300591D01*
X280016Y299822D01*
X280451Y299171D01*
X280886Y298881D01*
Y302953D01*
D02*
G37*
G36*
X138583Y293407D02*
X137909Y293127D01*
X137222Y292600D01*
X136695Y291914D01*
X136416Y291240D01*
X138583D01*
Y293407D01*
D02*
G37*
G36*
X238090Y253886D02*
Y252362D01*
X239102D01*
Y252559D01*
X238995Y253097D01*
X238690Y253553D01*
X238234Y253857D01*
X238090Y253886D01*
D02*
G37*
G36*
X26516Y258602D02*
X21267D01*
X21292Y258352D01*
X21652Y257164D01*
X22237Y256070D01*
X23024Y255111D01*
X23983Y254324D01*
X25078Y253739D01*
X26265Y253379D01*
X26516Y253354D01*
Y258602D01*
D02*
G37*
G36*
X142718Y289272D02*
X140551D01*
Y287105D01*
X141225Y287384D01*
X141911Y287911D01*
X142438Y288598D01*
X142718Y289272D01*
D02*
G37*
G36*
X138583D02*
X136416D01*
X136695Y288598D01*
X137222Y287911D01*
X137909Y287384D01*
X138583Y287105D01*
Y289272D01*
D02*
G37*
G36*
X53733Y258602D02*
X48484D01*
Y253354D01*
X48735Y253379D01*
X49922Y253739D01*
X51017Y254324D01*
X51976Y255111D01*
X52763Y256070D01*
X53348Y257164D01*
X53708Y258352D01*
X53733Y258602D01*
D02*
G37*
G36*
X213682Y257677D02*
X211516D01*
Y255511D01*
X212189Y255790D01*
X212876Y256317D01*
X213403Y257003D01*
X213682Y257677D01*
D02*
G37*
G36*
X266634Y287796D02*
Y285630D01*
X268800D01*
X268521Y286304D01*
X267994Y286990D01*
X267307Y287517D01*
X266634Y287796D01*
D02*
G37*
G36*
X306831Y284823D02*
X301240D01*
Y280728D01*
X302229D01*
Y258819D01*
X297283Y253873D01*
X295925D01*
X293676Y256122D01*
Y263924D01*
X293724Y263996D01*
X293877Y264764D01*
Y271457D01*
X293724Y272225D01*
X293289Y272876D01*
X292638Y273311D01*
X291870Y273464D01*
X291102Y273311D01*
X290451Y272876D01*
X290016Y272225D01*
X289863Y271457D01*
Y264764D01*
X290016Y263996D01*
X290064Y263924D01*
Y255374D01*
X290076Y255311D01*
X289615Y255065D01*
X288676Y256004D01*
Y263924D01*
X288724Y263996D01*
X288877Y264764D01*
Y271457D01*
X288724Y272225D01*
X288289Y272876D01*
X287638Y273311D01*
X286870Y273464D01*
X286102Y273311D01*
X285451Y272876D01*
X285016Y272225D01*
X284863Y271457D01*
Y264764D01*
X285016Y263996D01*
X285064Y263924D01*
Y255256D01*
X285201Y254565D01*
X285593Y253979D01*
X288782Y250790D01*
X289368Y250398D01*
X290059Y250261D01*
X298031D01*
X298723Y250398D01*
X299309Y250790D01*
X305313Y256794D01*
X305704Y257380D01*
X305842Y258071D01*
Y280728D01*
X306831D01*
Y284823D01*
D02*
G37*
G36*
X209547Y257677D02*
X207381D01*
X207660Y257003D01*
X208187Y256317D01*
X208874Y255790D01*
X209547Y255511D01*
Y257677D01*
D02*
G37*
G36*
X15453Y290552D02*
Y288386D01*
X17619D01*
X17340Y289059D01*
X16813Y289746D01*
X16126Y290273D01*
X15453Y290552D01*
D02*
G37*
G36*
X13484D02*
X12811Y290273D01*
X12124Y289746D01*
X11597Y289059D01*
X11318Y288386D01*
X13484D01*
Y290552D01*
D02*
G37*
G36*
X95571Y291438D02*
Y289272D01*
X97737D01*
X97458Y289945D01*
X96931Y290632D01*
X96245Y291159D01*
X95571Y291438D01*
D02*
G37*
G36*
X93602D02*
X92929Y291159D01*
X92242Y290632D01*
X91715Y289945D01*
X91436Y289272D01*
X93602D01*
Y291438D01*
D02*
G37*
G36*
X62894Y290158D02*
Y287992D01*
X65060D01*
X64781Y288666D01*
X64254Y289352D01*
X63567Y289879D01*
X62894Y290158D01*
D02*
G37*
G36*
X163189Y265748D02*
X161023D01*
X161302Y265074D01*
X161829Y264388D01*
X162515Y263861D01*
X163189Y263582D01*
Y265748D01*
D02*
G37*
G36*
X296358Y316570D02*
X280413D01*
X279722Y316433D01*
X279136Y316041D01*
X275593Y312498D01*
X275201Y311912D01*
X275064Y311220D01*
Y308123D01*
X275016Y308051D01*
X274863Y307283D01*
Y300591D01*
X275016Y299822D01*
X275451Y299171D01*
X276102Y298736D01*
X276870Y298584D01*
X277638Y298736D01*
X278289Y299171D01*
X278724Y299822D01*
X278877Y300591D01*
Y307283D01*
X278724Y308051D01*
X278676Y308123D01*
Y310472D01*
X281162Y312957D01*
X291344D01*
X291535Y312495D01*
X290593Y311553D01*
X290201Y310967D01*
X290064Y310276D01*
Y308123D01*
X290016Y308051D01*
X289863Y307283D01*
Y300591D01*
X290016Y299822D01*
X290451Y299171D01*
X291102Y298736D01*
X291870Y298584D01*
X292638Y298736D01*
X293289Y299171D01*
X293724Y299822D01*
X293877Y300591D01*
Y307283D01*
X293724Y308051D01*
X293676Y308123D01*
Y309527D01*
X296358Y312209D01*
X302229Y306338D01*
Y291516D01*
X301240D01*
Y287421D01*
X306831D01*
Y291516D01*
X305842D01*
Y307087D01*
X305704Y307778D01*
X305313Y308364D01*
X297636Y316041D01*
X297049Y316433D01*
X296358Y316570D01*
D02*
G37*
G36*
X60925Y290158D02*
X60252Y289879D01*
X59565Y289352D01*
X59038Y288666D01*
X58759Y287992D01*
X60925D01*
Y290158D01*
D02*
G37*
G36*
X167324Y265748D02*
X165157D01*
Y263582D01*
X165831Y263861D01*
X166518Y264388D01*
X167045Y265074D01*
X167324Y265748D01*
D02*
G37*
G36*
X149311Y277363D02*
Y275197D01*
X151477D01*
X151198Y275870D01*
X150671Y276557D01*
X149985Y277084D01*
X149311Y277363D01*
D02*
G37*
G36*
X178543Y236025D02*
Y233858D01*
X180710D01*
X180431Y234532D01*
X179904Y235219D01*
X179217Y235746D01*
X178543Y236025D01*
D02*
G37*
G36*
X159843Y340454D02*
Y338287D01*
X162009D01*
X161730Y338961D01*
X161203Y339648D01*
X160516Y340175D01*
X159843Y340454D01*
D02*
G37*
G36*
X192224Y331202D02*
Y329035D01*
X194391D01*
X194112Y329709D01*
X193585Y330396D01*
X192898Y330923D01*
X192224Y331202D01*
D02*
G37*
G36*
X176575Y236025D02*
X175901Y235746D01*
X175215Y235219D01*
X174688Y234532D01*
X174408Y233858D01*
X176575D01*
Y236025D01*
D02*
G37*
G36*
X245965Y329772D02*
X245821Y329743D01*
X245365Y329439D01*
X245060Y328983D01*
X244953Y328445D01*
Y328248D01*
X245965D01*
Y329772D01*
D02*
G37*
G36*
X372003Y336811D02*
X362402D01*
Y327210D01*
X363085Y327264D01*
X364712Y327654D01*
X366258Y328295D01*
X367685Y329169D01*
X368957Y330256D01*
X370044Y331528D01*
X370918Y332955D01*
X371558Y334500D01*
X371949Y336127D01*
X372003Y336811D01*
D02*
G37*
G36*
X190256Y331202D02*
X189582Y330923D01*
X188896Y330396D01*
X188369Y329709D01*
X188090Y329035D01*
X190256D01*
Y331202D01*
D02*
G37*
G36*
X247933Y329772D02*
Y328248D01*
X248944D01*
Y328445D01*
X248837Y328983D01*
X248533Y329439D01*
X248077Y329743D01*
X247933Y329772D01*
D02*
G37*
G36*
X312795Y332284D02*
X312122Y332005D01*
X311435Y331479D01*
X310908Y330792D01*
X310629Y330118D01*
X312795D01*
Y332284D01*
D02*
G37*
G36*
X212598Y235926D02*
Y233760D01*
X214765D01*
X214486Y234434D01*
X213959Y235120D01*
X213272Y235647D01*
X212598Y235926D01*
D02*
G37*
G36*
X88091Y334449D02*
X85925D01*
Y332282D01*
X86599Y332561D01*
X87286Y333088D01*
X87813Y333775D01*
X88091Y334449D01*
D02*
G37*
G36*
X259548Y233760D02*
X257382D01*
Y231593D01*
X258055Y231873D01*
X258742Y232400D01*
X259269Y233086D01*
X259548Y233760D01*
D02*
G37*
G36*
X210630Y235926D02*
X209956Y235647D01*
X209270Y235120D01*
X208743Y234434D01*
X208464Y233760D01*
X210630D01*
Y235926D01*
D02*
G37*
G36*
X142028Y333957D02*
X139861D01*
X140140Y333283D01*
X140667Y332596D01*
X141354Y332069D01*
X142028Y331790D01*
Y333957D01*
D02*
G37*
G36*
X314764Y332284D02*
Y330118D01*
X316930D01*
X316651Y330792D01*
X316124Y331479D01*
X315437Y332005D01*
X314764Y332284D01*
D02*
G37*
G36*
X83957Y334449D02*
X81790D01*
X82069Y333775D01*
X82596Y333088D01*
X83283Y332561D01*
X83957Y332282D01*
Y334449D01*
D02*
G37*
G36*
X146162Y333957D02*
X143996D01*
Y331790D01*
X144670Y332069D01*
X145356Y332596D01*
X145883Y333283D01*
X146162Y333957D01*
D02*
G37*
G36*
X131949Y332375D02*
Y327126D01*
X137197D01*
X137173Y327377D01*
X136812Y328564D01*
X136228Y329658D01*
X135440Y330617D01*
X134481Y331405D01*
X133387Y331990D01*
X132199Y332350D01*
X131949Y332375D01*
D02*
G37*
G36*
X352854Y247342D02*
X348130D01*
X348257Y247036D01*
X348667Y246502D01*
X349125Y246150D01*
X349168Y245866D01*
X349125Y245582D01*
X348667Y245231D01*
X348257Y244696D01*
X347999Y244074D01*
X347911Y243406D01*
X347999Y242738D01*
X348257Y242115D01*
X348667Y241580D01*
X349125Y241229D01*
X349168Y240945D01*
X349125Y240661D01*
X348667Y240310D01*
X348257Y239775D01*
X347999Y239152D01*
X347911Y238484D01*
X347999Y237816D01*
X348257Y237194D01*
X348667Y236659D01*
X349125Y236308D01*
X349168Y236024D01*
X349125Y235739D01*
X348667Y235388D01*
X348257Y234854D01*
X348130Y234547D01*
X352854D01*
X352727Y234854D01*
X352317Y235388D01*
X351859Y235739D01*
X351817Y236024D01*
X351859Y236308D01*
X352317Y236659D01*
X352727Y237194D01*
X352985Y237816D01*
X353073Y238484D01*
X352985Y239152D01*
X352727Y239775D01*
X352317Y240310D01*
X351859Y240661D01*
X351817Y240945D01*
X351859Y241229D01*
X352317Y241580D01*
X352727Y242115D01*
X352985Y242738D01*
X353073Y243406D01*
X352985Y244074D01*
X352727Y244696D01*
X352317Y245231D01*
X351859Y245582D01*
X351817Y245866D01*
X351859Y246150D01*
X352317Y246502D01*
X352727Y247036D01*
X352854Y247342D01*
D02*
G37*
G36*
X17520Y348381D02*
Y338779D01*
X27121D01*
X27067Y339463D01*
X26676Y341090D01*
X26036Y342636D01*
X25162Y344063D01*
X24075Y345335D01*
X22803Y346422D01*
X21376Y347296D01*
X19830Y347936D01*
X18203Y348327D01*
X17520Y348381D01*
D02*
G37*
G36*
X15551Y336811D02*
X5950D01*
X6004Y336127D01*
X6395Y334500D01*
X7035Y332955D01*
X7909Y331528D01*
X8996Y330256D01*
X10268Y329169D01*
X11695Y328295D01*
X13240Y327654D01*
X14867Y327264D01*
X15551Y327210D01*
Y336811D01*
D02*
G37*
G36*
X97539Y237698D02*
X96866Y237419D01*
X96179Y236892D01*
X95652Y236205D01*
X95373Y235531D01*
X97539D01*
Y237698D01*
D02*
G37*
G36*
X129980Y332375D02*
X129730Y332350D01*
X128542Y331990D01*
X127448Y331405D01*
X126489Y330617D01*
X125702Y329658D01*
X125117Y328564D01*
X124757Y327377D01*
X124732Y327126D01*
X129980D01*
Y332375D01*
D02*
G37*
G36*
X57480Y237304D02*
X56807Y237025D01*
X56120Y236498D01*
X55593Y235811D01*
X55314Y235138D01*
X57480D01*
Y237304D01*
D02*
G37*
G36*
X59449D02*
Y235138D01*
X61615D01*
X61336Y235811D01*
X60809Y236498D01*
X60123Y237025D01*
X59449Y237304D01*
D02*
G37*
G36*
X81299Y222342D02*
X79133D01*
X79412Y221669D01*
X79939Y220982D01*
X80626Y220455D01*
X81299Y220176D01*
Y222342D01*
D02*
G37*
G36*
X142126Y236418D02*
Y234252D01*
X144292D01*
X144013Y234926D01*
X143486Y235612D01*
X142800Y236139D01*
X142126Y236418D01*
D02*
G37*
G36*
X73328Y223819D02*
X71161D01*
Y221653D01*
X71835Y221932D01*
X72522Y222459D01*
X73049Y223145D01*
X73328Y223819D01*
D02*
G37*
G36*
X15551Y348381D02*
X14867Y348327D01*
X13240Y347936D01*
X11695Y347296D01*
X10268Y346422D01*
X8996Y345335D01*
X7909Y344063D01*
X7035Y342636D01*
X6395Y341090D01*
X6004Y339463D01*
X5950Y338779D01*
X15551D01*
Y348381D01*
D02*
G37*
G36*
X140157Y236418D02*
X139484Y236139D01*
X138797Y235612D01*
X138270Y234926D01*
X137991Y234252D01*
X140157D01*
Y236418D01*
D02*
G37*
G36*
X27121Y336811D02*
X17520D01*
Y327210D01*
X18203Y327264D01*
X19830Y327654D01*
X21376Y328295D01*
X22803Y329169D01*
X24075Y330256D01*
X25162Y331528D01*
X26036Y332955D01*
X26676Y334500D01*
X27067Y336127D01*
X27121Y336811D01*
D02*
G37*
G36*
X85434Y222342D02*
X83268D01*
Y220176D01*
X83941Y220455D01*
X84628Y220982D01*
X85155Y221669D01*
X85434Y222342D01*
D02*
G37*
G36*
X69193Y223819D02*
X67027D01*
X67306Y223145D01*
X67833Y222459D01*
X68519Y221932D01*
X69193Y221653D01*
Y223819D01*
D02*
G37*
G36*
X360433Y336811D02*
X350832D01*
X350886Y336127D01*
X351276Y334500D01*
X351917Y332955D01*
X352791Y331528D01*
X353878Y330256D01*
X355150Y329169D01*
X356576Y328295D01*
X358122Y327654D01*
X359749Y327264D01*
X360433Y327210D01*
Y336811D01*
D02*
G37*
G36*
X255413Y233760D02*
X253247D01*
X253526Y233086D01*
X254053Y232400D01*
X254740Y231873D01*
X255413Y231593D01*
Y233760D01*
D02*
G37*
G36*
X330413Y350618D02*
X48720D01*
X48183Y350511D01*
X47727Y350206D01*
X36826Y339305D01*
X36522Y338850D01*
X36415Y338312D01*
X36522Y337774D01*
X36826Y337319D01*
X37282Y337014D01*
X37820Y336907D01*
X38357Y337014D01*
X38813Y337319D01*
X49302Y347808D01*
X329831D01*
X340025Y337614D01*
X340481Y337309D01*
X341019Y337202D01*
X341556Y337309D01*
X342012Y337614D01*
X342317Y338070D01*
X342424Y338607D01*
X342317Y339145D01*
X342012Y339601D01*
X331407Y350206D01*
X330951Y350511D01*
X330413Y350618D01*
D02*
G37*
G36*
X85925Y338584D02*
Y336417D01*
X88091D01*
X87813Y337091D01*
X87286Y337778D01*
X86599Y338305D01*
X85925Y338584D01*
D02*
G37*
G36*
X50689Y339470D02*
Y337303D01*
X52855D01*
X52576Y337977D01*
X52049Y338664D01*
X51363Y339190D01*
X50689Y339470D01*
D02*
G37*
G36*
X48720D02*
X48047Y339190D01*
X47360Y338664D01*
X46833Y337977D01*
X46554Y337303D01*
X48720D01*
Y339470D01*
D02*
G37*
G36*
X180710Y231890D02*
X178543D01*
Y229724D01*
X179217Y230002D01*
X179904Y230529D01*
X180431Y231216D01*
X180710Y231890D01*
D02*
G37*
G36*
X83268Y226477D02*
Y224311D01*
X85434D01*
X85155Y224985D01*
X84628Y225671D01*
X83941Y226198D01*
X83268Y226477D01*
D02*
G37*
G36*
X83957Y338584D02*
X83283Y338305D01*
X82596Y337778D01*
X82069Y337091D01*
X81790Y336417D01*
X83957D01*
Y338584D01*
D02*
G37*
G36*
X176575Y231890D02*
X174408D01*
X174688Y231216D01*
X175215Y230529D01*
X175901Y230002D01*
X176575Y229724D01*
Y231890D01*
D02*
G37*
G36*
X157874Y340454D02*
X157200Y340175D01*
X156514Y339648D01*
X155987Y338961D01*
X155708Y338287D01*
X157874D01*
Y340454D01*
D02*
G37*
G36*
X71161Y227954D02*
Y225787D01*
X73328D01*
X73049Y226461D01*
X72522Y227148D01*
X71835Y227675D01*
X71161Y227954D01*
D02*
G37*
G36*
X231004Y231595D02*
X230330Y231316D01*
X229644Y230789D01*
X229117Y230103D01*
X228838Y229429D01*
X231004D01*
Y231595D01*
D02*
G37*
G36*
X235139Y227461D02*
X232972D01*
Y225294D01*
X233646Y225573D01*
X234333Y226100D01*
X234860Y226787D01*
X235139Y227461D01*
D02*
G37*
G36*
X69193Y227954D02*
X68519Y227675D01*
X67833Y227148D01*
X67306Y226461D01*
X67027Y225787D01*
X69193D01*
Y227954D01*
D02*
G37*
G36*
X214765Y231791D02*
X212598D01*
Y229625D01*
X213272Y229904D01*
X213959Y230431D01*
X214486Y231118D01*
X214765Y231791D01*
D02*
G37*
G36*
X231004Y227461D02*
X228838D01*
X229117Y226787D01*
X229644Y226100D01*
X230330Y225573D01*
X231004Y225294D01*
Y227461D01*
D02*
G37*
G36*
X232972Y231595D02*
Y229429D01*
X235139D01*
X234860Y230103D01*
X234333Y230789D01*
X233646Y231316D01*
X232972Y231595D01*
D02*
G37*
G36*
X210630Y231791D02*
X208464D01*
X208743Y231118D01*
X209270Y230431D01*
X209956Y229904D01*
X210630Y229625D01*
Y231791D01*
D02*
G37*
G36*
X52855Y335335D02*
X50689D01*
Y333168D01*
X51363Y333447D01*
X52049Y333974D01*
X52576Y334661D01*
X52855Y335335D01*
D02*
G37*
G36*
X97539Y233563D02*
X95373D01*
X95652Y232889D01*
X96179Y232203D01*
X96866Y231676D01*
X97539Y231397D01*
Y233563D01*
D02*
G37*
G36*
X81299Y226477D02*
X80626Y226198D01*
X79939Y225671D01*
X79412Y224985D01*
X79133Y224311D01*
X81299D01*
Y226477D01*
D02*
G37*
G36*
X157874Y336319D02*
X155708D01*
X155987Y335645D01*
X156514Y334959D01*
X157200Y334432D01*
X157874Y334153D01*
Y336319D01*
D02*
G37*
G36*
X159153Y225788D02*
Y223622D01*
X161320D01*
X161041Y224296D01*
X160514Y224982D01*
X159827Y225509D01*
X159153Y225788D01*
D02*
G37*
G36*
X157185D02*
X156511Y225509D01*
X155825Y224982D01*
X155298Y224296D01*
X155019Y223622D01*
X157185D01*
Y225788D01*
D02*
G37*
G36*
X101674Y233563D02*
X99508D01*
Y231397D01*
X100181Y231676D01*
X100868Y232203D01*
X101395Y232889D01*
X101674Y233563D01*
D02*
G37*
G36*
X48720Y335335D02*
X46554D01*
X46833Y334661D01*
X47360Y333974D01*
X48047Y333447D01*
X48720Y333168D01*
Y335335D01*
D02*
G37*
G36*
X352854Y232579D02*
X351476D01*
Y231201D01*
X351783Y231328D01*
X352317Y231738D01*
X352727Y232272D01*
X352854Y232579D01*
D02*
G37*
G36*
X57480Y233169D02*
X55314D01*
X55593Y232496D01*
X56120Y231809D01*
X56807Y231282D01*
X57480Y231003D01*
Y233169D01*
D02*
G37*
G36*
X61615D02*
X59449D01*
Y231003D01*
X60123Y231282D01*
X60809Y231809D01*
X61336Y232496D01*
X61615Y233169D01*
D02*
G37*
G36*
X140157Y232283D02*
X137991D01*
X138270Y231610D01*
X138797Y230923D01*
X139484Y230396D01*
X140157Y230117D01*
Y232283D01*
D02*
G37*
G36*
X144292D02*
X142126D01*
Y230117D01*
X142800Y230396D01*
X143486Y230923D01*
X144013Y231610D01*
X144292Y232283D01*
D02*
G37*
G36*
X162009Y336319D02*
X159843D01*
Y334153D01*
X160516Y334432D01*
X161203Y334959D01*
X161730Y335645D01*
X162009Y336319D01*
D02*
G37*
G36*
X349508Y232579D02*
X348130D01*
X348257Y232272D01*
X348667Y231738D01*
X349202Y231328D01*
X349508Y231201D01*
Y232579D01*
D02*
G37*
G36*
X143996Y338091D02*
Y335925D01*
X146162D01*
X145883Y336599D01*
X145356Y337285D01*
X144670Y337812D01*
X143996Y338091D01*
D02*
G37*
G36*
X142028D02*
X141354Y337812D01*
X140667Y337285D01*
X140140Y336599D01*
X139861Y335925D01*
X142028D01*
Y338091D01*
D02*
G37*
G36*
X111949Y332375D02*
Y327126D01*
X117197D01*
X117173Y327377D01*
X116812Y328564D01*
X116227Y329658D01*
X115440Y330617D01*
X114481Y331405D01*
X113387Y331990D01*
X112199Y332350D01*
X111949Y332375D01*
D02*
G37*
G36*
X13878Y247836D02*
X13204Y247557D01*
X12518Y247030D01*
X11991Y246343D01*
X11712Y245669D01*
X13878D01*
Y247836D01*
D02*
G37*
G36*
X46516Y278602D02*
X41267D01*
X41292Y278352D01*
X41652Y277164D01*
X42237Y276070D01*
X43024Y275111D01*
X43983Y274324D01*
X45078Y273739D01*
X46265Y273379D01*
X46516Y273354D01*
Y278602D01*
D02*
G37*
G36*
X165157Y323623D02*
Y321457D01*
X167324D01*
X167045Y322130D01*
X166518Y322817D01*
X165831Y323344D01*
X165157Y323623D01*
D02*
G37*
G36*
X163189D02*
X162515Y323344D01*
X161829Y322817D01*
X161302Y322130D01*
X161023Y321457D01*
X163189D01*
Y323623D01*
D02*
G37*
G36*
X220156Y293602D02*
X200689D01*
Y274135D01*
X202382Y274246D01*
X205014Y274769D01*
X207556Y275632D01*
X209963Y276819D01*
X212194Y278310D01*
X214212Y280079D01*
X215981Y282097D01*
X217472Y284328D01*
X218659Y286735D01*
X219522Y289277D01*
X220045Y291909D01*
X220156Y293602D01*
D02*
G37*
G36*
X150689Y322836D02*
Y320669D01*
X152855D01*
X152576Y321343D01*
X152049Y322030D01*
X151363Y322557D01*
X150689Y322836D01*
D02*
G37*
G36*
X33733Y278602D02*
X28484D01*
Y273354D01*
X28735Y273379D01*
X29922Y273739D01*
X31017Y274324D01*
X31976Y275111D01*
X32763Y276070D01*
X33348Y277164D01*
X33708Y278352D01*
X33733Y278602D01*
D02*
G37*
G36*
X26516D02*
X21267D01*
X21292Y278352D01*
X21652Y277164D01*
X22237Y276070D01*
X23024Y275111D01*
X23983Y274324D01*
X25078Y273739D01*
X26265Y273379D01*
X26516Y273354D01*
Y278602D01*
D02*
G37*
G36*
X13878Y243701D02*
X11712D01*
X11991Y243027D01*
X12518Y242340D01*
X13204Y241813D01*
X13878Y241534D01*
Y243701D01*
D02*
G37*
G36*
X18013D02*
X15846D01*
Y241534D01*
X16520Y241813D01*
X17207Y242340D01*
X17734Y243027D01*
X18013Y243701D01*
D02*
G37*
G36*
X287303Y323570D02*
Y322047D01*
X288314D01*
Y322244D01*
X288208Y322781D01*
X287903Y323237D01*
X287447Y323542D01*
X287303Y323570D01*
D02*
G37*
G36*
X285335D02*
X285191Y323542D01*
X284735Y323237D01*
X284430Y322781D01*
X284323Y322244D01*
Y322047D01*
X285335D01*
Y323570D01*
D02*
G37*
G36*
X236713D02*
Y322047D01*
X237724D01*
Y322244D01*
X237617Y322781D01*
X237312Y323237D01*
X236857Y323542D01*
X236713Y323570D01*
D02*
G37*
G36*
X234744D02*
X234600Y323542D01*
X234144Y323237D01*
X233840Y322781D01*
X233733Y322244D01*
Y322047D01*
X234744D01*
Y323570D01*
D02*
G37*
G36*
X331004Y247638D02*
X328838D01*
X329117Y246964D01*
X329644Y246277D01*
X330330Y245750D01*
X331004Y245472D01*
Y247638D01*
D02*
G37*
G36*
X335139D02*
X332972D01*
Y245472D01*
X333646Y245750D01*
X334333Y246277D01*
X334860Y246964D01*
X335139Y247638D01*
D02*
G37*
G36*
X148721Y322836D02*
X148047Y322557D01*
X147360Y322030D01*
X146833Y321343D01*
X146554Y320669D01*
X148721D01*
Y322836D01*
D02*
G37*
G36*
X92520Y321358D02*
X90353D01*
X90632Y320685D01*
X91159Y319998D01*
X91846Y319471D01*
X92520Y319192D01*
Y321358D01*
D02*
G37*
G36*
X249141Y320079D02*
X248130D01*
Y318556D01*
X248274Y318584D01*
X248730Y318889D01*
X249034Y319345D01*
X249141Y319882D01*
Y320079D01*
D02*
G37*
G36*
X96654Y321358D02*
X94488D01*
Y319192D01*
X95162Y319471D01*
X95849Y319998D01*
X96376Y320685D01*
X96654Y321358D01*
D02*
G37*
G36*
X150690Y247933D02*
X148524D01*
Y245767D01*
X149197Y246046D01*
X149884Y246573D01*
X150411Y247259D01*
X150690Y247933D01*
D02*
G37*
G36*
X360433Y348381D02*
X359749Y348327D01*
X358122Y347936D01*
X356576Y347296D01*
X355150Y346422D01*
X353878Y345335D01*
X352791Y344063D01*
X351917Y342636D01*
X351276Y341090D01*
X350886Y339463D01*
X350832Y338779D01*
X360433D01*
Y348381D01*
D02*
G37*
G36*
X362402D02*
Y338779D01*
X372003D01*
X371949Y339463D01*
X371558Y341090D01*
X370918Y342636D01*
X370044Y344063D01*
X368957Y345335D01*
X367685Y346422D01*
X366258Y347296D01*
X364712Y347936D01*
X363085Y348327D01*
X362402Y348381D01*
D02*
G37*
G36*
X246161Y320079D02*
X245150D01*
Y319882D01*
X245257Y319345D01*
X245562Y318889D01*
X246018Y318584D01*
X246161Y318556D01*
Y320079D01*
D02*
G37*
G36*
X147343Y277363D02*
X146669Y277084D01*
X145982Y276557D01*
X145455Y275870D01*
X145176Y275197D01*
X147343D01*
Y277363D01*
D02*
G37*
G36*
X137197Y325157D02*
X131949D01*
Y319909D01*
X132199Y319934D01*
X133387Y320294D01*
X134481Y320879D01*
X135440Y321666D01*
X136228Y322625D01*
X136812Y323720D01*
X137173Y324907D01*
X137197Y325157D01*
D02*
G37*
G36*
X129980D02*
X124732D01*
X124757Y324907D01*
X125117Y323720D01*
X125702Y322625D01*
X126489Y321666D01*
X127448Y320879D01*
X128542Y320294D01*
X129730Y319934D01*
X129980Y319909D01*
Y325157D01*
D02*
G37*
G36*
X15846Y247836D02*
Y245669D01*
X18013D01*
X17734Y246343D01*
X17207Y247030D01*
X16520Y247557D01*
X15846Y247836D01*
D02*
G37*
G36*
X146555Y247933D02*
X144389D01*
X144668Y247259D01*
X145195Y246573D01*
X145881Y246046D01*
X146555Y245767D01*
Y247933D01*
D02*
G37*
G36*
X46359Y321654D02*
X44193D01*
Y319487D01*
X44866Y319766D01*
X45553Y320293D01*
X46080Y320980D01*
X46359Y321654D01*
D02*
G37*
G36*
X42224D02*
X40058D01*
X40337Y320980D01*
X40864Y320293D01*
X41551Y319766D01*
X42224Y319487D01*
Y321654D01*
D02*
G37*
G36*
X117197Y325157D02*
X111949D01*
Y319909D01*
X112199Y319934D01*
X113387Y320294D01*
X114481Y320879D01*
X115440Y321666D01*
X116227Y322625D01*
X116812Y323720D01*
X117173Y324907D01*
X117197Y325157D01*
D02*
G37*
G36*
X109980D02*
X104732D01*
X104756Y324907D01*
X105117Y323720D01*
X105702Y322625D01*
X106489Y321666D01*
X107448Y320879D01*
X108542Y320294D01*
X109730Y319934D01*
X109980Y319909D01*
Y325157D01*
D02*
G37*
G36*
X157185Y221654D02*
X155019D01*
X155298Y220980D01*
X155825Y220293D01*
X156511Y219766D01*
X157185Y219487D01*
Y221654D01*
D02*
G37*
G36*
X99508Y237698D02*
Y235531D01*
X101674D01*
X101395Y236205D01*
X100868Y236892D01*
X100181Y237419D01*
X99508Y237698D01*
D02*
G37*
G36*
X190256Y327067D02*
X188090D01*
X188369Y326393D01*
X188896Y325707D01*
X189582Y325180D01*
X190256Y324901D01*
Y327067D01*
D02*
G37*
G36*
X248944Y326280D02*
X247933D01*
Y324756D01*
X248077Y324785D01*
X248533Y325090D01*
X248837Y325545D01*
X248944Y326083D01*
Y326280D01*
D02*
G37*
G36*
X44193Y325788D02*
Y323622D01*
X46359D01*
X46080Y324296D01*
X45553Y324982D01*
X44866Y325509D01*
X44193Y325788D01*
D02*
G37*
G36*
X257382Y237895D02*
Y235728D01*
X259548D01*
X259269Y236402D01*
X258742Y237089D01*
X258055Y237616D01*
X257382Y237895D01*
D02*
G37*
G36*
X255413D02*
X254740Y237616D01*
X254053Y237089D01*
X253526Y236402D01*
X253247Y235728D01*
X255413D01*
Y237895D01*
D02*
G37*
G36*
X245965Y326280D02*
X244953D01*
Y326083D01*
X245060Y325545D01*
X245365Y325090D01*
X245821Y324785D01*
X245965Y324756D01*
Y326280D01*
D02*
G37*
G36*
X194391Y327067D02*
X192224D01*
Y324901D01*
X192898Y325180D01*
X193585Y325707D01*
X194112Y326393D01*
X194391Y327067D01*
D02*
G37*
G36*
X69784Y328643D02*
Y326476D01*
X71950D01*
X71671Y327150D01*
X71144Y327837D01*
X70457Y328364D01*
X69784Y328643D01*
D02*
G37*
G36*
X67815D02*
X67141Y328364D01*
X66455Y327837D01*
X65928Y327150D01*
X65649Y326476D01*
X67815D01*
Y328643D01*
D02*
G37*
G36*
X109980Y332375D02*
X109730Y332350D01*
X108542Y331990D01*
X107448Y331405D01*
X106489Y330617D01*
X105702Y329658D01*
X105117Y328564D01*
X104756Y327377D01*
X104732Y327126D01*
X109980D01*
Y332375D01*
D02*
G37*
G36*
X161320Y221654D02*
X159153D01*
Y219487D01*
X159827Y219766D01*
X160514Y220293D01*
X161041Y220980D01*
X161320Y221654D01*
D02*
G37*
G36*
X317521Y275886D02*
X315354D01*
Y273720D01*
X316028Y273998D01*
X316715Y274525D01*
X317242Y275212D01*
X317521Y275886D01*
D02*
G37*
G36*
X312795Y328150D02*
X310629D01*
X310908Y327476D01*
X311435Y326789D01*
X312122Y326262D01*
X312795Y325983D01*
Y328150D01*
D02*
G37*
G36*
X316930D02*
X314764D01*
Y325983D01*
X315437Y326262D01*
X316124Y326789D01*
X316651Y327476D01*
X316930Y328150D01*
D02*
G37*
G36*
X198720Y293602D02*
X179253D01*
X179364Y291909D01*
X179887Y289277D01*
X180750Y286735D01*
X181937Y284328D01*
X183428Y282097D01*
X185197Y280079D01*
X187215Y278310D01*
X189446Y276819D01*
X191853Y275632D01*
X194395Y274769D01*
X197027Y274246D01*
X198720Y274135D01*
Y293602D01*
D02*
G37*
G36*
X159941Y237992D02*
X157775D01*
X158054Y237318D01*
X158581Y236632D01*
X159267Y236105D01*
X159941Y235826D01*
Y237992D01*
D02*
G37*
G36*
X161909Y242127D02*
Y239961D01*
X164076D01*
X163797Y240634D01*
X163270Y241321D01*
X162583Y241848D01*
X161909Y242127D01*
D02*
G37*
G36*
X159941D02*
X159267Y241848D01*
X158581Y241321D01*
X158054Y240634D01*
X157775Y239961D01*
X159941D01*
Y242127D01*
D02*
G37*
G36*
X164076Y237992D02*
X161909D01*
Y235826D01*
X162583Y236105D01*
X163270Y236632D01*
X163797Y237318D01*
X164076Y237992D01*
D02*
G37*
G36*
X71950Y324508D02*
X69784D01*
Y322342D01*
X70457Y322621D01*
X71144Y323148D01*
X71671Y323834D01*
X71950Y324508D01*
D02*
G37*
G36*
X246161Y323571D02*
X246018Y323542D01*
X245562Y323238D01*
X245257Y322782D01*
X245150Y322244D01*
Y322048D01*
X246161D01*
Y323571D01*
D02*
G37*
G36*
X248130D02*
Y322048D01*
X249141D01*
Y322244D01*
X249034Y322782D01*
X248730Y323238D01*
X248274Y323542D01*
X248130Y323571D01*
D02*
G37*
G36*
X67815Y324508D02*
X65649D01*
X65928Y323834D01*
X66455Y323148D01*
X67141Y322621D01*
X67815Y322342D01*
Y324508D01*
D02*
G37*
G36*
X92520Y325493D02*
X91846Y325214D01*
X91159Y324687D01*
X90632Y324000D01*
X90353Y323327D01*
X92520D01*
Y325493D01*
D02*
G37*
G36*
X53733Y278602D02*
X48484D01*
Y273354D01*
X48735Y273379D01*
X49922Y273739D01*
X51017Y274324D01*
X51976Y275111D01*
X52763Y276070D01*
X53348Y277164D01*
X53708Y278352D01*
X53733Y278602D01*
D02*
G37*
G36*
X253445Y329850D02*
X252264D01*
X251726Y329743D01*
X251270Y329439D01*
X250966Y328983D01*
X250859Y328445D01*
Y326083D01*
X250966Y325545D01*
X251270Y325090D01*
X251726Y324785D01*
X252264Y324678D01*
X253445D01*
X253982Y324785D01*
X254087Y324855D01*
X254989Y323952D01*
X254955Y323531D01*
X254491Y323334D01*
X254179Y323542D01*
X253642Y323649D01*
X252461D01*
X251923Y323542D01*
X251467Y323238D01*
X251163Y322782D01*
X251056Y322244D01*
Y319882D01*
X251163Y319345D01*
X251467Y318889D01*
X251923Y318584D01*
X252461Y318477D01*
X253083D01*
X255064Y316496D01*
Y308123D01*
X255016Y308051D01*
X254863Y307283D01*
Y300591D01*
X255016Y299822D01*
X255451Y299171D01*
X256102Y298736D01*
X256870Y298584D01*
X257638Y298736D01*
X258289Y299171D01*
X258724Y299822D01*
X258877Y300591D01*
Y307283D01*
X258724Y308051D01*
X258676Y308123D01*
Y317244D01*
Y324626D01*
X258539Y325317D01*
X258147Y325903D01*
X255509Y328541D01*
X254923Y328933D01*
X254746Y328968D01*
X254743Y328983D01*
X254438Y329439D01*
X253982Y329743D01*
X253445Y329850D01*
D02*
G37*
G36*
X313386Y275886D02*
X311220D01*
X311498Y275212D01*
X312025Y274525D01*
X312712Y273998D01*
X313386Y273720D01*
Y275886D01*
D02*
G37*
G36*
X42224Y325788D02*
X41551Y325509D01*
X40864Y324982D01*
X40337Y324296D01*
X40058Y323622D01*
X42224D01*
Y325788D01*
D02*
G37*
G36*
X94488Y325493D02*
Y323327D01*
X96654D01*
X96376Y324000D01*
X95849Y324687D01*
X95162Y325214D01*
X94488Y325493D01*
D02*
G37*
%LPD*%
G36*
X341316Y221942D02*
Y217027D01*
X341315Y217027D01*
X341407Y216567D01*
X341668Y216176D01*
X350988Y206857D01*
X350952Y206770D01*
X350864Y206102D01*
X350952Y205434D01*
X350988Y205348D01*
X348853Y203214D01*
X348592Y202823D01*
X348500Y202362D01*
X348500Y202362D01*
Y189862D01*
X348500Y189862D01*
X348592Y189401D01*
X348853Y189011D01*
X363067Y174796D01*
Y46131D01*
X332904Y15968D01*
X302923D01*
X286736Y32155D01*
Y94992D01*
X287236Y95287D01*
X287500Y95235D01*
X287922Y95319D01*
X288146Y95468D01*
X288484Y95524D01*
X288822Y95468D01*
X289046Y95319D01*
X289468Y95235D01*
X289733Y95287D01*
X290233Y94991D01*
Y80807D01*
X290233Y80807D01*
X290324Y80346D01*
X290585Y79956D01*
X295607Y74934D01*
X295419Y74480D01*
X295306Y73622D01*
X295419Y72764D01*
X295750Y71964D01*
X296277Y71277D01*
X296964Y70750D01*
X297764Y70419D01*
X298622Y70306D01*
X299480Y70419D01*
X300280Y70750D01*
X300967Y71277D01*
X301494Y71964D01*
X301825Y72764D01*
X301938Y73622D01*
X301825Y74480D01*
X301494Y75280D01*
X300967Y75967D01*
X300280Y76494D01*
X299480Y76825D01*
X298622Y76938D01*
X297764Y76825D01*
X297310Y76637D01*
X292641Y81306D01*
Y97638D01*
X292549Y98099D01*
X292541Y98112D01*
Y98937D01*
X292457Y99360D01*
X292378Y99477D01*
X292646Y99977D01*
X293996D01*
Y101181D01*
X294980D01*
Y102165D01*
X297094D01*
D01*
X297150Y102503D01*
X297299Y102727D01*
X297383Y103150D01*
X297331Y103414D01*
X297626Y103914D01*
X298291D01*
X298300Y103900D01*
X298379Y103820D01*
X298447Y103731D01*
X302018Y100648D01*
X302037Y100637D01*
X302051Y100621D01*
X303101Y99807D01*
X303131Y99792D01*
X303367Y99592D01*
X304518Y98954D01*
X305772Y98552D01*
X307080Y98402D01*
X312318Y98320D01*
X313441Y98210D01*
Y98210D01*
D01*
X313490Y98205D01*
X313929Y98211D01*
X313930D01*
X313941Y98211D01*
X313941D01*
X314421Y98220D01*
X315328Y98101D01*
X316370Y97669D01*
X317264Y96983D01*
X317950Y96088D01*
X318382Y95047D01*
X318517Y94020D01*
X318521Y94020D01*
X318577Y93456D01*
Y74016D01*
X318706Y72705D01*
X319088Y71445D01*
X319709Y70283D01*
X319950Y69990D01*
X319968Y69951D01*
X320207Y69621D01*
X320409Y69308D01*
X320585Y68996D01*
X320700Y68759D01*
X320275Y68487D01*
X319771Y69102D01*
X318812Y69889D01*
X317718Y70474D01*
X316530Y70834D01*
X316280Y70859D01*
Y64626D01*
Y58393D01*
X316530Y58418D01*
X317718Y58778D01*
X318812Y59363D01*
X319771Y60150D01*
X320558Y61109D01*
X320641Y61264D01*
X321126Y61142D01*
Y56905D01*
X320692Y55859D01*
X320530Y54626D01*
X320692Y53393D01*
X321168Y52243D01*
X321926Y51257D01*
X322913Y50499D01*
X324062Y50023D01*
X325295Y49861D01*
X326529Y50023D01*
X327678Y50499D01*
X328665Y51257D01*
X329422Y52243D01*
X329898Y53393D01*
X330060Y54626D01*
X329898Y55859D01*
X329465Y56905D01*
Y61142D01*
X329950Y61264D01*
X330032Y61109D01*
X330820Y60150D01*
X331779Y59363D01*
X332873Y58778D01*
X334060Y58418D01*
X334311Y58393D01*
Y64626D01*
Y70859D01*
X334060Y70834D01*
X332873Y70474D01*
X331779Y69889D01*
X330820Y69102D01*
X330315Y68487D01*
X329891Y68759D01*
X330006Y68996D01*
X330182Y69308D01*
X330383Y69621D01*
X330623Y69951D01*
X330641Y69990D01*
X330882Y70283D01*
X331502Y71445D01*
X331885Y72705D01*
X332014Y74016D01*
Y93929D01*
X331885Y95240D01*
X331857Y95332D01*
X331797Y96244D01*
X331344Y98520D01*
X330598Y100717D01*
X329572Y102798D01*
X328283Y104728D01*
X326753Y106472D01*
X325009Y108002D01*
X323079Y109291D01*
X320999Y110317D01*
X318801Y111063D01*
X316526Y111516D01*
X314210Y111668D01*
X314194Y111667D01*
X313589Y111736D01*
X307290Y111834D01*
X305978Y111725D01*
X304712Y111363D01*
X303541Y110760D01*
X303161Y110458D01*
X303095Y110424D01*
X300334Y108240D01*
X300323Y108227D01*
X300308Y108218D01*
X299117Y107190D01*
X299104Y107173D01*
X299085Y107161D01*
X298685Y106775D01*
X298669Y106752D01*
X298646Y106734D01*
X298376Y106435D01*
X298344Y106381D01*
X298300Y106336D01*
X298291Y106322D01*
X297626D01*
X297331Y106822D01*
X297383Y107087D01*
X297299Y107509D01*
X297150Y107733D01*
X297094Y108071D01*
X294980D01*
Y109055D01*
X293996D01*
Y110259D01*
X292641D01*
Y111614D01*
X291437D01*
Y112598D01*
X290453D01*
Y114712D01*
D01*
X290115Y114768D01*
X289891Y114918D01*
X289468Y115001D01*
X289162Y114941D01*
X288795Y115144D01*
X288663Y115263D01*
X288673Y118388D01*
X288688Y118397D01*
X288768Y118475D01*
X288857Y118544D01*
X291249Y121296D01*
X291257Y121300D01*
X292272Y122140D01*
X293103Y123162D01*
X293718Y124326D01*
X294095Y125589D01*
X294218Y126900D01*
X294184Y134577D01*
X294050Y135887D01*
X293662Y137146D01*
X293642Y137182D01*
X293824Y137455D01*
X293931Y137992D01*
Y140355D01*
X293824Y140892D01*
X293519Y141348D01*
X293064Y141653D01*
X292526Y141760D01*
X291345D01*
X290807Y141653D01*
X290351Y141348D01*
X290047Y140892D01*
X289540Y140906D01*
X288748Y141142D01*
X287436Y141266D01*
X286504Y141170D01*
X286004Y141590D01*
Y141969D01*
X281909D01*
Y138312D01*
X281863Y138255D01*
X281248Y137091D01*
X280871Y135829D01*
X280748Y134518D01*
X280782Y126840D01*
X280917Y125530D01*
X281304Y124272D01*
X281930Y123113D01*
X282770Y122098D01*
X283557Y121458D01*
X284353Y120446D01*
X284366Y120434D01*
X284375Y120419D01*
X285399Y119225D01*
X285417Y119211D01*
X285429Y119193D01*
X285813Y118791D01*
X285837Y118775D01*
X285854Y118752D01*
X286153Y118481D01*
X286206Y118449D01*
X286251Y118405D01*
X286265Y118396D01*
X286255Y115272D01*
X285754Y114957D01*
X285531Y115001D01*
X285109Y114918D01*
X284885Y114768D01*
X284547Y114712D01*
Y112598D01*
X283563D01*
Y111614D01*
X282359D01*
Y110259D01*
X281004D01*
Y109055D01*
X280020D01*
Y108071D01*
X277906D01*
D01*
X277850Y107733D01*
X277700Y107509D01*
X277617Y107087D01*
X277157Y106835D01*
X273967Y109590D01*
X273949Y109600D01*
X273934Y109617D01*
X272884Y110431D01*
X272835Y110455D01*
X272531Y110704D01*
X271370Y111325D01*
X270109Y111707D01*
X268799Y111837D01*
X190224D01*
X190223Y111842D01*
X190075Y111837D01*
X187654D01*
X183868Y111972D01*
X178896Y112506D01*
X173976Y113394D01*
X169131Y114631D01*
X164387Y116210D01*
X159767Y118123D01*
X155296Y120361D01*
X150996Y122913D01*
X146889Y125764D01*
X142996Y128902D01*
X139336Y132309D01*
X135929Y135968D01*
X132792Y139861D01*
X129940Y143968D01*
X127663Y147807D01*
Y152862D01*
X127681Y153051D01*
X127552Y154361D01*
X127170Y155622D01*
X126549Y156783D01*
X126297Y157090D01*
X126271Y157141D01*
X124086Y159902D01*
X124073Y159913D01*
X124065Y159929D01*
X123037Y161119D01*
X123019Y161132D01*
X123007Y161151D01*
X122622Y161551D01*
X122598Y161567D01*
X122581Y161591D01*
X122281Y161861D01*
X122228Y161892D01*
X122183Y161936D01*
X122169Y161945D01*
Y163397D01*
X122669Y163693D01*
X122933Y163640D01*
X123355Y163724D01*
X123580Y163874D01*
X123917Y163930D01*
Y166043D01*
X124902D01*
Y167028D01*
X126106D01*
Y168378D01*
X126606Y168645D01*
X126723Y168567D01*
X127146Y168483D01*
X127971D01*
X127984Y168474D01*
X128445Y168382D01*
X184449D01*
X184449Y168382D01*
X184910Y168474D01*
X185300Y168735D01*
X229830Y213264D01*
X255011D01*
X255199Y212811D01*
X255726Y212124D01*
X256413Y211597D01*
X257213Y211266D01*
X258071Y211153D01*
X258929Y211266D01*
X259729Y211597D01*
X260416Y212124D01*
X260942Y212811D01*
X261130Y213264D01*
X264462D01*
X265684Y212042D01*
X265684Y212042D01*
X265918Y211886D01*
X266075Y211781D01*
X266535Y211689D01*
X276488D01*
X276581Y211516D01*
X278937D01*
Y209936D01*
X278596Y209868D01*
X277854D01*
X277355Y209769D01*
X277333Y209754D01*
X276802D01*
X276303Y209654D01*
X276302Y209654D01*
X276301Y209653D01*
X276162Y209560D01*
X275879Y209371D01*
X275096Y208588D01*
X270842D01*
X270342Y208489D01*
X269919Y208206D01*
X269885Y208172D01*
X269759Y208197D01*
X268578D01*
X268040Y208090D01*
X267585Y207785D01*
X267280Y207329D01*
X267173Y206792D01*
Y204430D01*
X267280Y203892D01*
X267585Y203436D01*
X267864Y203249D01*
Y202379D01*
X267585Y202192D01*
X267280Y201736D01*
X267173Y201198D01*
Y200416D01*
X265759Y199001D01*
X265682Y199033D01*
X261268D01*
Y198836D01*
X261375Y198299D01*
X261679Y197843D01*
X262135Y197538D01*
X262673Y197431D01*
X263481D01*
X263689Y196931D01*
X259887Y193130D01*
X256201D01*
Y192070D01*
X254054D01*
X254054Y192073D01*
X253749Y192529D01*
X253293Y192833D01*
X252756Y192940D01*
X250393D01*
X250121Y192886D01*
X247673Y195335D01*
Y196201D01*
X250607Y199135D01*
X251279Y199046D01*
X252138Y199159D01*
X252937Y199491D01*
X253624Y200018D01*
X254151Y200704D01*
X254482Y201504D01*
X254595Y202362D01*
X254482Y203220D01*
X254151Y204020D01*
X253624Y204707D01*
X252937Y205234D01*
X252138Y205565D01*
X251279Y205678D01*
X250421Y205565D01*
X249622Y205234D01*
X248935Y204707D01*
X248408Y204020D01*
X248077Y203220D01*
X247964Y202362D01*
X248052Y201690D01*
X244589Y198226D01*
X244197Y197640D01*
X244060Y196949D01*
Y194587D01*
Y180413D01*
X244197Y179722D01*
X244589Y179136D01*
X252463Y171262D01*
X253049Y170870D01*
X253740Y170733D01*
X265284D01*
X265407Y170651D01*
X265945Y170544D01*
X268307D01*
X268844Y170651D01*
X268967Y170733D01*
X272638D01*
X273329Y170870D01*
X273915Y171262D01*
X275497Y172844D01*
X275959Y172653D01*
Y172336D01*
X276042Y171920D01*
X276059Y171837D01*
X276341Y171413D01*
X278018Y169737D01*
Y168405D01*
X278125Y167868D01*
X278429Y167412D01*
X278885Y167107D01*
X279423Y167000D01*
X280604D01*
X281142Y167107D01*
X281597Y167412D01*
X281902Y167868D01*
X282009Y168405D01*
Y170767D01*
X281902Y171305D01*
X281597Y171761D01*
X281142Y172065D01*
X280604Y172172D01*
X279423D01*
X279297Y172147D01*
X278568Y172876D01*
Y174370D01*
X279311D01*
Y179961D01*
X278568D01*
Y184520D01*
X278937D01*
X279475Y184627D01*
X279930Y184931D01*
X280235Y185387D01*
X280342Y185925D01*
Y188287D01*
X280235Y188825D01*
X279930Y189280D01*
X279902Y189573D01*
X281332Y191003D01*
X282994D01*
X283410Y191085D01*
X283493Y191102D01*
X283916Y191385D01*
X284954Y192422D01*
X285237Y192846D01*
X285237Y192846D01*
X285336Y193345D01*
X285336Y193345D01*
Y193856D01*
X285359Y193890D01*
X285458Y194390D01*
Y195179D01*
X285517Y195472D01*
X286786D01*
Y194390D01*
X286885Y193890D01*
X287106Y193559D01*
Y192969D01*
X287158Y192942D01*
Y188582D01*
X283480Y185068D01*
X283457Y185064D01*
X283034Y184781D01*
X282751Y184358D01*
X282652Y183858D01*
Y179961D01*
X281909D01*
Y174370D01*
X282652D01*
Y171548D01*
X282735Y171132D01*
X282751Y171049D01*
X283034Y170626D01*
X283923Y169737D01*
Y168405D01*
X284030Y167868D01*
X284335Y167412D01*
X284614Y167225D01*
Y164806D01*
X284257Y164449D01*
X281260D01*
Y160354D01*
X286850D01*
Y163356D01*
X287124Y163766D01*
X287224Y164265D01*
Y167225D01*
X287503Y167412D01*
X287807Y167868D01*
X287914Y168405D01*
Y170767D01*
X287807Y171305D01*
X287503Y171761D01*
X287047Y172065D01*
X286509Y172172D01*
X285328D01*
X285261Y172227D01*
Y174370D01*
X286004D01*
Y179961D01*
X285261D01*
Y183439D01*
X289145Y187150D01*
X289476Y186928D01*
X289560Y186912D01*
X292593Y183879D01*
Y179961D01*
X291850D01*
Y174370D01*
X292593D01*
Y172227D01*
X292526Y172172D01*
X291345D01*
X290807Y172065D01*
X290351Y171761D01*
X290047Y171305D01*
X289940Y170767D01*
Y168405D01*
X290047Y167868D01*
X290351Y167412D01*
X290631Y167225D01*
Y164265D01*
X290714Y163849D01*
X290730Y163766D01*
X291004Y163356D01*
Y160354D01*
X296595D01*
Y164449D01*
X293597D01*
X293240Y164806D01*
Y167225D01*
X293519Y167412D01*
X293824Y167868D01*
X293931Y168405D01*
Y169737D01*
X294820Y170626D01*
X295103Y171049D01*
X295119Y171132D01*
X295202Y171548D01*
Y174370D01*
X295945D01*
Y179961D01*
X295202D01*
Y184277D01*
X295103Y184776D01*
X294820Y185200D01*
X294397Y185482D01*
X294395Y185483D01*
X291141Y188736D01*
Y192887D01*
X291641Y193162D01*
X292028Y193085D01*
X292527Y193184D01*
X293048Y192932D01*
X293057Y192890D01*
X293318Y192499D01*
X299542Y186275D01*
Y179961D01*
X298543D01*
Y174370D01*
X299286D01*
Y172876D01*
X298557Y172147D01*
X298431Y172172D01*
X297250D01*
X296713Y172065D01*
X296257Y171761D01*
X295952Y171305D01*
X295846Y170767D01*
Y168405D01*
X295952Y167868D01*
X296257Y167412D01*
X296713Y167107D01*
X297250Y167000D01*
X298431D01*
X298969Y167107D01*
X299425Y167412D01*
X299729Y167868D01*
X299836Y168405D01*
Y169737D01*
X301513Y171413D01*
X301796Y171837D01*
X301895Y172336D01*
Y173363D01*
X302357Y173554D01*
X304294Y171617D01*
X304717Y171334D01*
X304800Y171318D01*
X305217Y171235D01*
X307777D01*
X307964Y170955D01*
X308419Y170651D01*
X308957Y170544D01*
X311319D01*
X311857Y170651D01*
X312313Y170955D01*
X312617Y171411D01*
X312724Y171949D01*
Y173130D01*
X312617Y173668D01*
X312313Y174123D01*
X311857Y174428D01*
X311319Y174535D01*
X308957D01*
X308419Y174428D01*
X307964Y174123D01*
X307777Y173844D01*
X305757D01*
X302638Y176963D01*
Y179961D01*
X302151D01*
Y186133D01*
X303307Y187289D01*
X303897Y187242D01*
X303927Y187196D01*
X304383Y186891D01*
X304921Y186784D01*
X307283D01*
X307821Y186891D01*
X307944Y186973D01*
X323327D01*
X324018Y187111D01*
X324604Y187502D01*
X326769Y189668D01*
X327161Y190254D01*
X327298Y190945D01*
Y198522D01*
X327837Y198935D01*
X328364Y199622D01*
X328695Y200421D01*
X328808Y201279D01*
X328695Y202138D01*
X328364Y202937D01*
X327837Y203624D01*
X327150Y204151D01*
X326350Y204482D01*
X325492Y204595D01*
X324634Y204482D01*
X323834Y204151D01*
X323439Y203848D01*
X310565D01*
X309582Y204831D01*
Y205638D01*
X309664Y205761D01*
X309771Y206299D01*
Y208661D01*
X309664Y209199D01*
X309386Y209615D01*
X309432Y209813D01*
X309571Y210115D01*
X311886D01*
X312024Y209813D01*
X312070Y209615D01*
X311793Y209199D01*
X311686Y208661D01*
Y208464D01*
X315677D01*
Y208661D01*
X315570Y209199D01*
X315292Y209615D01*
X315338Y209813D01*
X315476Y210115D01*
X324311D01*
X324311Y210115D01*
X324772Y210206D01*
X325163Y210467D01*
X333826Y219131D01*
X334280Y218943D01*
X335138Y218830D01*
X335996Y218943D01*
X336796Y219274D01*
X337482Y219801D01*
X338009Y220488D01*
X338341Y221287D01*
X338454Y222146D01*
X338341Y223004D01*
X338009Y223804D01*
X337482Y224490D01*
X336796Y225017D01*
X335996Y225348D01*
X335138Y225461D01*
X334280Y225348D01*
X333480Y225017D01*
X332793Y224490D01*
X332266Y223804D01*
X331935Y223004D01*
X331822Y222146D01*
X331935Y221287D01*
X332123Y220834D01*
X323812Y212523D01*
X322896D01*
X322797Y213023D01*
X322918Y213073D01*
X323604Y213600D01*
X324131Y214287D01*
X324463Y215087D01*
X324576Y215945D01*
X324463Y216803D01*
X324131Y217603D01*
X323604Y218289D01*
X322918Y218816D01*
X322118Y219148D01*
X321260Y219261D01*
X320402Y219148D01*
X319602Y218816D01*
X318915Y218289D01*
X318388Y217603D01*
X318212Y217177D01*
X317699Y217245D01*
X317671Y217453D01*
X317340Y218252D01*
X316813Y218939D01*
X316126Y219466D01*
X315327Y219797D01*
X314469Y219910D01*
X313610Y219797D01*
X312811Y219466D01*
X312124Y218939D01*
X311597Y218252D01*
X311266Y217453D01*
X311153Y216595D01*
X311208Y216173D01*
X310770Y215673D01*
X294993D01*
X294919Y215785D01*
X294495Y216068D01*
X293996Y216167D01*
X293807Y216129D01*
X293307Y216496D01*
Y216997D01*
X294889Y218579D01*
X295760D01*
X295947Y218126D01*
X296474Y217439D01*
X297161Y216912D01*
X297961Y216581D01*
X298819Y216468D01*
X299677Y216581D01*
X300477Y216912D01*
X301164Y217439D01*
X301690Y218126D01*
X302022Y218925D01*
X302135Y219783D01*
X302022Y220642D01*
X301690Y221441D01*
X301164Y222128D01*
X300477Y222655D01*
X299677Y222986D01*
X298819Y223099D01*
X297961Y222986D01*
X297161Y222655D01*
X296561Y222194D01*
X296196Y222400D01*
X296131Y222463D01*
X296215Y222665D01*
X296328Y223524D01*
X296215Y224382D01*
X295883Y225182D01*
X295356Y225868D01*
X294989Y226150D01*
X295159Y226650D01*
X320564D01*
X323618Y223597D01*
X323372Y223004D01*
X323259Y222146D01*
X323372Y221287D01*
X323703Y220488D01*
X324230Y219801D01*
X324917Y219274D01*
X325717Y218943D01*
X326575Y218830D01*
X327433Y218943D01*
X328233Y219274D01*
X328919Y219801D01*
X329446Y220488D01*
X329778Y221287D01*
X329891Y222146D01*
X329778Y223004D01*
X329446Y223804D01*
X328919Y224490D01*
X328233Y225017D01*
X327433Y225348D01*
X326575Y225461D01*
X325717Y225348D01*
X325402Y225218D01*
X322857Y227763D01*
X323049Y228225D01*
X335033D01*
X341316Y221942D01*
D02*
G37*
G36*
X282978Y220017D02*
X283013Y219852D01*
X283034Y219777D01*
X283058Y219708D01*
X283085Y219645D01*
X283114Y219587D01*
X283146Y219535D01*
X283180Y219488D01*
X283217Y219447D01*
X282521Y218751D01*
X282480Y218788D01*
X282434Y218823D01*
X282381Y218854D01*
X282324Y218884D01*
X282260Y218910D01*
X282191Y218934D01*
X282117Y218956D01*
X281951Y218991D01*
X281860Y219004D01*
X282964Y220108D01*
X282978Y220017D01*
D02*
G37*
G36*
X292164Y123680D02*
X291347Y122632D01*
X288251Y119070D01*
X288036Y118931D01*
X287907Y118922D01*
X287865Y119042D01*
X287077Y119044D01*
X287034Y118924D01*
X286906Y118935D01*
X286692Y119076D01*
X286393Y119347D01*
X286009Y119748D01*
X284984Y120942D01*
X282808Y123710D01*
X292164Y123680D01*
D02*
G37*
G36*
X281389Y219200D02*
X281315Y219254D01*
X281173Y219347D01*
X281105Y219384D01*
X281039Y219416D01*
X280976Y219442D01*
X280914Y219462D01*
X280855Y219477D01*
X280797Y219485D01*
X280742Y219488D01*
Y220472D01*
X280797Y220475D01*
X280855Y220484D01*
X280914Y220498D01*
X280976Y220519D01*
X281039Y220545D01*
X281105Y220576D01*
X281173Y220614D01*
X281315Y220706D01*
X281389Y220761D01*
Y219200D01*
D02*
G37*
G36*
X286690Y227763D02*
X285345Y226418D01*
X285084Y226028D01*
X284993Y225567D01*
X284993Y225567D01*
Y219474D01*
X284531Y219283D01*
X283803Y220010D01*
X283800Y220021D01*
X283792Y220046D01*
X283768Y220160D01*
X283758Y220227D01*
X283730Y220306D01*
X283657Y220672D01*
X283265Y221258D01*
X278836Y225687D01*
X278250Y226078D01*
X277559Y226216D01*
X264962D01*
X264549Y226754D01*
X263863Y227281D01*
X263063Y227612D01*
X262205Y227725D01*
X261347Y227612D01*
X260547Y227281D01*
X259860Y226754D01*
X259333Y226067D01*
X259002Y225268D01*
X258889Y224410D01*
X259002Y223551D01*
X259333Y222752D01*
X259860Y222065D01*
X260547Y221538D01*
X261347Y221207D01*
X262205Y221094D01*
X263063Y221207D01*
X263863Y221538D01*
X264549Y222065D01*
X264962Y222603D01*
X276811D01*
X277743Y221671D01*
X277761Y221586D01*
X277652Y221055D01*
X277424Y220903D01*
X275126Y218605D01*
X275000Y218630D01*
X273819D01*
X273281Y218523D01*
X272826Y218218D01*
X272521Y217762D01*
X272414Y217225D01*
Y214862D01*
X272467Y214598D01*
X272117Y214098D01*
X270796D01*
X270447Y214598D01*
X270499Y214862D01*
Y215059D01*
X268504D01*
Y216044D01*
X267520D01*
Y218551D01*
X267376Y218523D01*
X266920Y218218D01*
X266615Y217762D01*
X266508Y217225D01*
Y215331D01*
X266008Y215124D01*
X265812Y215320D01*
X265422Y215581D01*
X264961Y215673D01*
X264961Y215673D01*
X261130D01*
X260942Y216126D01*
X260416Y216813D01*
X259729Y217340D01*
X258929Y217671D01*
X258071Y217784D01*
X257213Y217671D01*
X256413Y217340D01*
X255726Y216813D01*
X255199Y216126D01*
X255011Y215673D01*
X230664D01*
X230473Y216135D01*
X242563Y228225D01*
X286498D01*
X286690Y227763D01*
D02*
G37*
G36*
X40860Y252382D02*
X40900Y252009D01*
X40966Y251638D01*
X41059Y251271D01*
X41179Y250907D01*
X41326Y250547D01*
X41499Y250189D01*
X41699Y249834D01*
X41925Y249483D01*
X42178Y249134D01*
X32822D01*
X33075Y249483D01*
X33301Y249834D01*
X33501Y250189D01*
X33674Y250547D01*
X33821Y250907D01*
X33941Y251271D01*
X34034Y251638D01*
X34100Y252009D01*
X34140Y252382D01*
X34154Y252759D01*
X40846D01*
X40860Y252382D01*
D02*
G37*
G36*
X277759Y178356D02*
X277767Y178299D01*
X277782Y178239D01*
X277802Y178178D01*
X277828Y178114D01*
X277860Y178049D01*
X277897Y177981D01*
X277990Y177839D01*
X278044Y177765D01*
X276483D01*
X276538Y177839D01*
X276630Y177981D01*
X276668Y178049D01*
X276699Y178114D01*
X276726Y178178D01*
X276746Y178239D01*
X276760Y178299D01*
X276769Y178356D01*
X276772Y178411D01*
X277756D01*
X277759Y178356D01*
D02*
G37*
G36*
X329720Y70074D02*
X329494Y69723D01*
X329294Y69368D01*
X329121Y69011D01*
X328975Y68650D01*
X328855Y68286D01*
X328762Y67919D01*
X328695Y67549D01*
X328655Y67175D01*
X328642Y66799D01*
X321949D01*
X321936Y67175D01*
X321896Y67549D01*
X321829Y67919D01*
X321736Y68286D01*
X321616Y68650D01*
X321469Y69011D01*
X321296Y69368D01*
X321097Y69723D01*
X320870Y70074D01*
X320617Y70423D01*
X329973D01*
X329720Y70074D01*
D02*
G37*
G36*
X276643Y198250D02*
X276649Y198221D01*
X276932Y197798D01*
X277355Y197515D01*
X277854Y197416D01*
X280020D01*
X280481Y197508D01*
X280538Y197503D01*
X280682Y197412D01*
X280980Y197054D01*
X280880Y196555D01*
Y196457D01*
X282185D01*
Y194488D01*
X280880D01*
Y194390D01*
X280896Y194313D01*
X280531Y193730D01*
X280505Y193725D01*
X280082Y193442D01*
X277424Y190785D01*
X277141Y190361D01*
X277125Y190279D01*
X277042Y189862D01*
Y189467D01*
X276763Y189280D01*
X276458Y188825D01*
X276351Y188287D01*
Y186955D01*
X276341Y186946D01*
X276059Y186522D01*
X276042Y186440D01*
X275959Y186023D01*
Y179961D01*
X275217D01*
Y177673D01*
X271890Y174346D01*
X268967D01*
X268844Y174428D01*
X268307Y174535D01*
X265945D01*
X265407Y174428D01*
X265284Y174346D01*
X260713D01*
X260713Y174346D01*
X258972D01*
X258972Y174346D01*
X254488D01*
X247673Y181162D01*
Y189572D01*
X248134Y189764D01*
X248231Y189668D01*
X248817Y189276D01*
X249508Y189138D01*
X249733D01*
X249856Y189056D01*
X250393Y188949D01*
X252756D01*
X253293Y189056D01*
X253749Y189361D01*
X253950Y189662D01*
X256201D01*
Y188602D01*
Y187402D01*
X260138D01*
Y188602D01*
Y189709D01*
X260194Y189747D01*
X262235Y191788D01*
X262697Y191596D01*
Y188602D01*
Y187402D01*
X266634D01*
Y188602D01*
Y189389D01*
X266927Y189447D01*
X267010Y189464D01*
X267433Y189747D01*
X276101Y198415D01*
X276643Y198250D01*
D02*
G37*
G36*
X124829Y190730D02*
X121744Y187159D01*
X121530Y187019D01*
X121401Y187009D01*
X121358Y187129D01*
X120571D01*
X120528Y187009D01*
X120399Y187019D01*
X120185Y187159D01*
X119885Y187429D01*
X119500Y187829D01*
X118472Y189019D01*
X116287Y191781D01*
X125643D01*
X124829Y190730D01*
D02*
G37*
G36*
X303593Y100442D02*
X302543Y101255D01*
X298972Y104339D01*
X298832Y104553D01*
X298822Y104682D01*
X298942Y104724D01*
Y105512D01*
X298822Y105555D01*
X298832Y105683D01*
X298972Y105897D01*
X299242Y106197D01*
X299642Y106582D01*
X300833Y107610D01*
X303593Y109795D01*
Y100442D01*
D02*
G37*
G36*
X273443Y108982D02*
X277014Y105897D01*
X277154Y105683D01*
X277164Y105554D01*
X277044Y105512D01*
Y104724D01*
X277164Y104681D01*
X277154Y104553D01*
X277014Y104339D01*
X276744Y104039D01*
X276344Y103653D01*
X275153Y102625D01*
X272392Y100440D01*
Y109796D01*
X273443Y108982D01*
D02*
G37*
G36*
X121530Y161404D02*
X121744Y161264D01*
X122044Y160994D01*
X122429Y160594D01*
X123457Y159404D01*
X125641Y156643D01*
X116288D01*
X117102Y157694D01*
X120185Y161264D01*
X120399Y161404D01*
X120528Y161414D01*
X120571Y161294D01*
X121358D01*
X121401Y161414D01*
X121530Y161404D01*
D02*
G37*
G36*
X277990Y176492D02*
X277897Y176350D01*
X277860Y176282D01*
X277828Y176216D01*
X277802Y176153D01*
X277782Y176091D01*
X277767Y176032D01*
X277759Y175975D01*
X277756Y175919D01*
X276772D01*
X276769Y175975D01*
X276760Y176032D01*
X276746Y176091D01*
X276726Y176153D01*
X276699Y176216D01*
X276668Y176282D01*
X276630Y176350D01*
X276538Y176492D01*
X276483Y176566D01*
X278044D01*
X277990Y176492D01*
D02*
G37*
G36*
X107006Y177388D02*
X110577Y174303D01*
X110717Y174089D01*
X110727Y173960D01*
X110607Y173917D01*
Y173130D01*
X110727Y173087D01*
X110717Y172959D01*
X110577Y172744D01*
X110308Y172444D01*
X109907Y172059D01*
X108717Y171031D01*
X105955Y168845D01*
Y178202D01*
X107006Y177388D01*
D02*
G37*
G36*
X40801Y136319D02*
X40841Y135946D01*
X40907Y135575D01*
X41001Y135208D01*
X41120Y134844D01*
X41267Y134484D01*
X41440Y134126D01*
X41640Y133771D01*
X41866Y133420D01*
X42119Y133071D01*
X32763D01*
X33016Y133420D01*
X33242Y133771D01*
X33442Y134126D01*
X33615Y134484D01*
X33762Y134844D01*
X33881Y135208D01*
X33975Y135575D01*
X34041Y135946D01*
X34081Y136319D01*
X34095Y136696D01*
X40787D01*
X40801Y136319D01*
D02*
G37*
G36*
X305887Y205761D02*
X305969Y205638D01*
Y204083D01*
X306107Y203392D01*
X306498Y202806D01*
X308540Y200764D01*
X309126Y200373D01*
X309817Y200235D01*
X322366D01*
X322621Y199622D01*
X323148Y198935D01*
X323686Y198522D01*
Y191693D01*
X322579Y190586D01*
X307944D01*
X307821Y190668D01*
X307283Y190775D01*
X304921D01*
X304383Y190668D01*
X303927Y190364D01*
X303741Y190084D01*
X302953D01*
X302453Y189985D01*
X302030Y189702D01*
X301026Y188697D01*
X300525D01*
X295374Y193849D01*
Y195555D01*
X295301Y195922D01*
Y196555D01*
X295209Y197016D01*
X295213Y197073D01*
X295305Y197217D01*
X295662Y197515D01*
X296161Y197416D01*
X296260D01*
Y198721D01*
X297244D01*
Y199384D01*
X298327D01*
X298826Y199484D01*
X299157Y199705D01*
X299249D01*
Y199767D01*
X299532Y200190D01*
X299631Y200689D01*
X299532Y201188D01*
X299249Y201611D01*
Y201673D01*
X299157D01*
X298826Y201894D01*
X298327Y201994D01*
X297244D01*
Y203642D01*
Y205290D01*
X298327D01*
X298826Y205389D01*
X298951Y205473D01*
X299652D01*
X299872Y205516D01*
X299872Y205517D01*
X300113Y205565D01*
X300504Y205826D01*
X300954Y206276D01*
X305785D01*
X305887Y205761D01*
D02*
G37*
G36*
X307176Y206699D02*
X307078Y206773D01*
X306750Y206990D01*
X306684Y207024D01*
X306623Y207051D01*
X306569Y207071D01*
X306521Y207082D01*
X306480Y207086D01*
Y207874D01*
X306521Y207878D01*
X306569Y207889D01*
X306623Y207909D01*
X306684Y207936D01*
X306750Y207970D01*
X306902Y208063D01*
X307078Y208187D01*
X307176Y208261D01*
Y206699D01*
D02*
G37*
G36*
X364642Y200190D02*
Y177281D01*
X364180Y177090D01*
X350909Y190361D01*
Y194540D01*
X351409Y194709D01*
X351620Y194435D01*
X352154Y194025D01*
X352461Y193898D01*
Y196260D01*
X353445D01*
Y197244D01*
X355807D01*
X355680Y197550D01*
X355270Y198085D01*
X354812Y198436D01*
X354769Y198721D01*
X354812Y199005D01*
X355270Y199356D01*
X355680Y199890D01*
X355716Y199977D01*
X357677D01*
X357677Y199977D01*
X358138Y200068D01*
X358529Y200329D01*
X361266Y203067D01*
X361766D01*
X364642Y200190D01*
D02*
G37*
G36*
X41866Y77958D02*
X41640Y77607D01*
X41440Y77252D01*
X41267Y76894D01*
X41120Y76534D01*
X41001Y76170D01*
X40907Y75803D01*
X40841Y75432D01*
X40801Y75059D01*
X40787Y74682D01*
X34095D01*
X34081Y75059D01*
X34041Y75432D01*
X33975Y75803D01*
X33881Y76170D01*
X33762Y76534D01*
X33615Y76894D01*
X33442Y77252D01*
X33242Y77607D01*
X33016Y77958D01*
X32763Y78306D01*
X42119D01*
X41866Y77958D01*
D02*
G37*
G36*
X305503Y187999D02*
X305428Y188054D01*
X305287Y188146D01*
X305219Y188183D01*
X305153Y188215D01*
X305089Y188241D01*
X305028Y188261D01*
X304969Y188276D01*
X304911Y188285D01*
X304856Y188287D01*
Y189272D01*
X304911Y189275D01*
X304969Y189283D01*
X305028Y189298D01*
X305089Y189318D01*
X305153Y189344D01*
X305219Y189375D01*
X305287Y189413D01*
X305428Y189505D01*
X305503Y189560D01*
Y187999D01*
D02*
G37*
G36*
X258866Y191370D02*
X259027Y191254D01*
X259075Y191226D01*
X259120Y191203D01*
X259162Y191185D01*
X259201Y191172D01*
X259238Y191164D01*
X259272Y191161D01*
Y190177D01*
X259238Y190175D01*
X259201Y190167D01*
X259162Y190154D01*
X259120Y190136D01*
X259075Y190113D01*
X259027Y190085D01*
X258923Y190012D01*
X258866Y189969D01*
X258807Y189920D01*
Y191419D01*
X258866Y191370D01*
D02*
G37*
G36*
X41925Y193509D02*
X41699Y193158D01*
X41499Y192803D01*
X41326Y192446D01*
X41179Y192085D01*
X41059Y191721D01*
X40966Y191354D01*
X40900Y190983D01*
X40860Y190610D01*
X40846Y190234D01*
X34154D01*
X34140Y190610D01*
X34100Y190983D01*
X34034Y191354D01*
X33941Y191721D01*
X33821Y192085D01*
X33674Y192446D01*
X33501Y192803D01*
X33301Y193158D01*
X33075Y193509D01*
X32822Y193858D01*
X42178D01*
X41925Y193509D01*
D02*
G37*
G36*
X257373Y190086D02*
X257275Y190159D01*
X256947Y190376D01*
X256880Y190410D01*
X256820Y190438D01*
X256766Y190457D01*
X256718Y190469D01*
X256677Y190472D01*
Y191260D01*
X256718Y191264D01*
X256766Y191275D01*
X256820Y191295D01*
X256880Y191322D01*
X256947Y191357D01*
X257099Y191449D01*
X257275Y191573D01*
X257373Y191647D01*
Y190086D01*
D02*
G37*
%LPC*%
G36*
X340453Y93603D02*
X339779Y93324D01*
X339092Y92797D01*
X338565Y92111D01*
X338286Y91437D01*
X340453D01*
Y93603D01*
D02*
G37*
G36*
X342421D02*
Y91437D01*
X344588D01*
X344309Y92111D01*
X343782Y92797D01*
X343095Y93324D01*
X342421Y93603D01*
D02*
G37*
G36*
X336280Y50859D02*
Y45610D01*
X341528D01*
X341503Y45861D01*
X341143Y47048D01*
X340558Y48143D01*
X339771Y49102D01*
X338812Y49889D01*
X337718Y50474D01*
X336530Y50834D01*
X336280Y50859D01*
D02*
G37*
G36*
X293898Y50886D02*
X291731D01*
X292010Y50212D01*
X292537Y49525D01*
X293224Y48998D01*
X293898Y48719D01*
Y50886D01*
D02*
G37*
G36*
X316280Y50859D02*
Y45610D01*
X321528D01*
X321503Y45861D01*
X321143Y47048D01*
X320558Y48143D01*
X319771Y49102D01*
X318812Y49889D01*
X317718Y50474D01*
X316530Y50834D01*
X316280Y50859D01*
D02*
G37*
G36*
X334311D02*
X334060Y50834D01*
X332873Y50474D01*
X331779Y49889D01*
X330820Y49102D01*
X330032Y48143D01*
X329447Y47048D01*
X329087Y45861D01*
X329063Y45610D01*
X334311D01*
Y50859D01*
D02*
G37*
G36*
X353151Y53051D02*
X350984D01*
Y50885D01*
X351658Y51164D01*
X352345Y51691D01*
X352871Y52377D01*
X353151Y53051D01*
D02*
G37*
G36*
X293898Y55021D02*
X293224Y54742D01*
X292537Y54215D01*
X292010Y53528D01*
X291731Y52854D01*
X293898D01*
Y55021D01*
D02*
G37*
G36*
X298032Y50886D02*
X295866D01*
Y48719D01*
X296540Y48998D01*
X297227Y49525D01*
X297753Y50212D01*
X298032Y50886D01*
D02*
G37*
G36*
X349016Y53051D02*
X346849D01*
X347129Y52377D01*
X347655Y51691D01*
X348342Y51164D01*
X349016Y50885D01*
Y53051D01*
D02*
G37*
G36*
X314311Y50859D02*
X314060Y50834D01*
X312873Y50474D01*
X311779Y49889D01*
X310820Y49102D01*
X310032Y48143D01*
X309447Y47048D01*
X309087Y45861D01*
X309063Y45610D01*
X314311D01*
Y50859D01*
D02*
G37*
G36*
X300295Y35237D02*
X299622Y34958D01*
X298935Y34431D01*
X298408Y33744D01*
X298129Y33071D01*
X300295D01*
Y35237D01*
D02*
G37*
G36*
X302264D02*
Y33071D01*
X304430D01*
X304151Y33744D01*
X303624Y34431D01*
X302937Y34958D01*
X302264Y35237D01*
D02*
G37*
G36*
X300295Y31102D02*
X298129D01*
X298408Y30429D01*
X298935Y29742D01*
X299622Y29215D01*
X300295Y28936D01*
Y31102D01*
D02*
G37*
G36*
X304430D02*
X302264D01*
Y28936D01*
X302937Y29215D01*
X303624Y29742D01*
X304151Y30429D01*
X304430Y31102D01*
D02*
G37*
G36*
X334311Y43642D02*
X329063D01*
X329087Y43391D01*
X329447Y42204D01*
X330032Y41109D01*
X330820Y40150D01*
X331779Y39363D01*
X332873Y38778D01*
X334060Y38418D01*
X334311Y38393D01*
Y43642D01*
D02*
G37*
G36*
X341528D02*
X336280D01*
Y38393D01*
X336530Y38418D01*
X337718Y38778D01*
X338812Y39363D01*
X339771Y40150D01*
X340558Y41109D01*
X341143Y42204D01*
X341503Y43391D01*
X341528Y43642D01*
D02*
G37*
G36*
X314311D02*
X309063D01*
X309087Y43391D01*
X309447Y42204D01*
X310032Y41109D01*
X310820Y40150D01*
X311779Y39363D01*
X312873Y38778D01*
X314060Y38418D01*
X314311Y38393D01*
Y43642D01*
D02*
G37*
G36*
X321528D02*
X316280D01*
Y38393D01*
X316530Y38418D01*
X317718Y38778D01*
X318812Y39363D01*
X319771Y40150D01*
X320558Y41109D01*
X321143Y42204D01*
X321503Y43391D01*
X321528Y43642D01*
D02*
G37*
G36*
X303543Y85138D02*
X301377D01*
X301656Y84464D01*
X302183Y83777D01*
X302870Y83250D01*
X303543Y82972D01*
Y85138D01*
D02*
G37*
G36*
X307678D02*
X305512D01*
Y82972D01*
X306185Y83250D01*
X306872Y83777D01*
X307399Y84464D01*
X307678Y85138D01*
D02*
G37*
G36*
X350000Y83072D02*
X349326Y82793D01*
X348640Y82266D01*
X348113Y81579D01*
X347834Y80905D01*
X350000D01*
Y83072D01*
D02*
G37*
G36*
X351969D02*
Y80905D01*
X354135D01*
X353856Y81579D01*
X353329Y82266D01*
X352642Y82793D01*
X351969Y83072D01*
D02*
G37*
G36*
X340453Y89468D02*
X338286D01*
X338565Y88795D01*
X339092Y88108D01*
X339779Y87581D01*
X340453Y87302D01*
Y89468D01*
D02*
G37*
G36*
X344588D02*
X342421D01*
Y87302D01*
X343095Y87581D01*
X343782Y88108D01*
X344309Y88795D01*
X344588Y89468D01*
D02*
G37*
G36*
X303543Y89273D02*
X302870Y88994D01*
X302183Y88467D01*
X301656Y87780D01*
X301377Y87106D01*
X303543D01*
Y89273D01*
D02*
G37*
G36*
X305512D02*
Y87106D01*
X307678D01*
X307399Y87780D01*
X306872Y88467D01*
X306185Y88994D01*
X305512Y89273D01*
D02*
G37*
G36*
X354135Y78937D02*
X351969D01*
Y76771D01*
X352642Y77050D01*
X353329Y77577D01*
X353856Y78263D01*
X354135Y78937D01*
D02*
G37*
G36*
X350984Y57186D02*
Y55020D01*
X353151D01*
X352871Y55693D01*
X352345Y56380D01*
X351658Y56907D01*
X350984Y57186D01*
D02*
G37*
G36*
X314311Y63642D02*
X309063D01*
X309087Y63391D01*
X309447Y62204D01*
X310032Y61109D01*
X310820Y60150D01*
X311779Y59363D01*
X312873Y58778D01*
X314060Y58418D01*
X314311Y58393D01*
Y63642D01*
D02*
G37*
G36*
X295866Y55021D02*
Y52854D01*
X298032D01*
X297753Y53528D01*
X297227Y54215D01*
X296540Y54742D01*
X295866Y55021D01*
D02*
G37*
G36*
X349016Y57186D02*
X348342Y56907D01*
X347655Y56380D01*
X347129Y55693D01*
X346849Y55020D01*
X349016D01*
Y57186D01*
D02*
G37*
G36*
X336280Y70859D02*
Y65610D01*
X341528D01*
X341503Y65861D01*
X341143Y67048D01*
X340558Y68143D01*
X339771Y69102D01*
X338812Y69889D01*
X337718Y70474D01*
X336530Y70834D01*
X336280Y70859D01*
D02*
G37*
G36*
X350000Y78937D02*
X347834D01*
X348113Y78263D01*
X348640Y77577D01*
X349326Y77050D01*
X350000Y76771D01*
Y78937D01*
D02*
G37*
G36*
X341528Y63642D02*
X336280D01*
Y58393D01*
X336530Y58418D01*
X337718Y58778D01*
X338812Y59363D01*
X339771Y60150D01*
X340558Y61109D01*
X341143Y62204D01*
X341503Y63391D01*
X341528Y63642D01*
D02*
G37*
G36*
X314311Y70859D02*
X314060Y70834D01*
X312873Y70474D01*
X311779Y69889D01*
X310820Y69102D01*
X310032Y68143D01*
X309447Y67048D01*
X309087Y65861D01*
X309063Y65610D01*
X314311D01*
Y70859D01*
D02*
G37*
G36*
X266141Y168629D02*
X265945D01*
X265407Y168522D01*
X264951Y168218D01*
X264647Y167762D01*
X264618Y167618D01*
X266141D01*
Y168629D01*
D02*
G37*
G36*
X226773Y168701D02*
X224606D01*
Y166534D01*
X225280Y166814D01*
X225967Y167340D01*
X226494Y168027D01*
X226773Y168701D01*
D02*
G37*
G36*
X222638D02*
X220472D01*
X220750Y168027D01*
X221277Y167340D01*
X221964Y166814D01*
X222638Y166534D01*
Y168701D01*
D02*
G37*
G36*
X311319Y168629D02*
X311122D01*
Y167618D01*
X312646D01*
X312617Y167762D01*
X312313Y168218D01*
X311857Y168522D01*
X311319Y168629D01*
D02*
G37*
G36*
X309154D02*
X308957D01*
X308419Y168522D01*
X307964Y168218D01*
X307659Y167762D01*
X307630Y167618D01*
X309154D01*
Y168629D01*
D02*
G37*
G36*
X268307D02*
X268110D01*
Y167618D01*
X269633D01*
X269605Y167762D01*
X269300Y168218D01*
X268844Y168522D01*
X268307Y168629D01*
D02*
G37*
G36*
X266141Y165650D02*
X264618D01*
X264647Y165506D01*
X264951Y165050D01*
X265407Y164745D01*
X265945Y164638D01*
X266141D01*
Y165650D01*
D02*
G37*
G36*
X126005Y165059D02*
X125886D01*
Y164268D01*
X125921Y164322D01*
X126005Y164744D01*
Y165059D01*
D02*
G37*
G36*
X360271Y166683D02*
X359311D01*
Y163779D01*
X362215D01*
Y164739D01*
X360271Y166683D01*
D02*
G37*
G36*
X312646Y165650D02*
X311122D01*
Y164638D01*
X311319D01*
X311857Y164745D01*
X312313Y165050D01*
X312617Y165506D01*
X312646Y165650D01*
D02*
G37*
G36*
X309154D02*
X307630D01*
X307659Y165506D01*
X307964Y165050D01*
X308419Y164745D01*
X308957Y164638D01*
X309154D01*
Y165650D01*
D02*
G37*
G36*
X269633D02*
X268110D01*
Y164638D01*
X268307D01*
X268844Y164745D01*
X269300Y165050D01*
X269605Y165506D01*
X269633Y165650D01*
D02*
G37*
G36*
X208071Y169883D02*
X207397Y169604D01*
X206711Y169077D01*
X206184Y168390D01*
X205905Y167717D01*
X208071D01*
Y169883D01*
D02*
G37*
G36*
X348721Y179429D02*
X346555D01*
Y177263D01*
X347229Y177542D01*
X347916Y178069D01*
X348442Y178755D01*
X348721Y179429D01*
D02*
G37*
G36*
X344587D02*
X342420D01*
X342699Y178755D01*
X343226Y178069D01*
X343913Y177542D01*
X344587Y177263D01*
Y179429D01*
D02*
G37*
G36*
X262993Y177067D02*
X260827D01*
Y174901D01*
X261500Y175180D01*
X262187Y175707D01*
X262714Y176393D01*
X262993Y177067D01*
D02*
G37*
G36*
X258858Y181202D02*
X258185Y180923D01*
X257498Y180396D01*
X256971Y179709D01*
X256692Y179035D01*
X258858D01*
Y181202D01*
D02*
G37*
G36*
X319685Y180513D02*
Y178347D01*
X321851D01*
X321572Y179020D01*
X321045Y179707D01*
X320359Y180234D01*
X319685Y180513D01*
D02*
G37*
G36*
X317717D02*
X317043Y180234D01*
X316356Y179707D01*
X315829Y179020D01*
X315550Y178347D01*
X317717D01*
Y180513D01*
D02*
G37*
G36*
X224606Y172836D02*
Y170669D01*
X226773D01*
X226494Y171343D01*
X225967Y172030D01*
X225280Y172557D01*
X224606Y172836D01*
D02*
G37*
G36*
X222638D02*
X221964Y172557D01*
X221277Y172030D01*
X220750Y171343D01*
X220472Y170669D01*
X222638D01*
Y172836D01*
D02*
G37*
G36*
X210039Y169883D02*
Y167717D01*
X212206D01*
X211927Y168390D01*
X211400Y169077D01*
X210713Y169604D01*
X210039Y169883D01*
D02*
G37*
G36*
X258858Y177067D02*
X256692D01*
X256971Y176393D01*
X257498Y175707D01*
X258185Y175180D01*
X258858Y174901D01*
Y177067D01*
D02*
G37*
G36*
X321851Y176378D02*
X319685D01*
Y174212D01*
X320359Y174491D01*
X321045Y175018D01*
X321572Y175704D01*
X321851Y176378D01*
D02*
G37*
G36*
X317717D02*
X315550D01*
X315829Y175704D01*
X316356Y175018D01*
X317043Y174491D01*
X317717Y174212D01*
Y176378D01*
D02*
G37*
G36*
X181891Y160728D02*
X179724D01*
Y158562D01*
X180398Y158841D01*
X181085Y159368D01*
X181612Y160055D01*
X181891Y160728D01*
D02*
G37*
G36*
X177756D02*
X175590D01*
X175869Y160055D01*
X176396Y159368D01*
X177082Y158841D01*
X177756Y158562D01*
Y160728D01*
D02*
G37*
G36*
X320571Y160631D02*
Y158465D01*
X322737D01*
X322458Y159138D01*
X321931Y159825D01*
X321245Y160352D01*
X320571Y160631D01*
D02*
G37*
G36*
X331398Y186091D02*
X330539Y185978D01*
X329740Y185647D01*
X329053Y185120D01*
X328526Y184433D01*
X328195Y183634D01*
X328082Y182776D01*
X328195Y181917D01*
X328526Y181118D01*
X329053Y180431D01*
X329740Y179904D01*
X330539Y179573D01*
X331398Y179460D01*
X332256Y179573D01*
X332710Y179761D01*
X346085Y166385D01*
X344439Y164739D01*
Y160851D01*
X346383Y158907D01*
X350271D01*
X352215Y160851D01*
Y164739D01*
X350271Y166683D01*
X349188D01*
X349178Y166698D01*
X349178Y166698D01*
X334413Y181464D01*
X334600Y181917D01*
X334713Y182776D01*
X334600Y183634D01*
X334269Y184433D01*
X333742Y185120D01*
X333055Y185647D01*
X332256Y185978D01*
X331398Y186091D01*
D02*
G37*
G36*
X271161Y160926D02*
Y158760D01*
X273328D01*
X273049Y159433D01*
X272522Y160120D01*
X271835Y160647D01*
X271161Y160926D01*
D02*
G37*
G36*
X269193D02*
X268519Y160647D01*
X267833Y160120D01*
X267306Y159433D01*
X267027Y158760D01*
X269193D01*
Y160926D01*
D02*
G37*
G36*
X253544Y159646D02*
X251378D01*
Y157479D01*
X252052Y157758D01*
X252738Y158285D01*
X253265Y158972D01*
X253544Y159646D01*
D02*
G37*
G36*
X249410D02*
X247243D01*
X247522Y158972D01*
X248049Y158285D01*
X248736Y157758D01*
X249410Y157479D01*
Y159646D01*
D02*
G37*
G36*
X235236Y159253D02*
Y157087D01*
X237403D01*
X237123Y157760D01*
X236597Y158447D01*
X235910Y158974D01*
X235236Y159253D01*
D02*
G37*
G36*
X318602Y160631D02*
X317929Y160352D01*
X317242Y159825D01*
X316715Y159138D01*
X316436Y158465D01*
X318602D01*
Y160631D01*
D02*
G37*
G36*
X152658Y159843D02*
X150492D01*
Y157676D01*
X151166Y157955D01*
X151853Y158482D01*
X152379Y159169D01*
X152658Y159843D01*
D02*
G37*
G36*
X148524D02*
X146357D01*
X146636Y159169D01*
X147163Y158482D01*
X147850Y157955D01*
X148524Y157676D01*
Y159843D01*
D02*
G37*
G36*
X357343Y161811D02*
X354439D01*
Y160851D01*
X356383Y158907D01*
X357343D01*
Y161811D01*
D02*
G37*
G36*
X179724Y164863D02*
Y162697D01*
X181891D01*
X181612Y163371D01*
X181085Y164057D01*
X180398Y164584D01*
X179724Y164863D01*
D02*
G37*
G36*
X177756D02*
X177082Y164584D01*
X176396Y164057D01*
X175869Y163371D01*
X175590Y162697D01*
X177756D01*
Y164863D01*
D02*
G37*
G36*
X150492Y163977D02*
Y161811D01*
X152658D01*
X152379Y162485D01*
X151853Y163171D01*
X151166Y163698D01*
X150492Y163977D01*
D02*
G37*
G36*
X357343Y166683D02*
X356383D01*
X354439Y164739D01*
Y163779D01*
X357343D01*
Y166683D01*
D02*
G37*
G36*
X212206Y165748D02*
X210039D01*
Y163582D01*
X210713Y163861D01*
X211400Y164388D01*
X211927Y165074D01*
X212206Y165748D01*
D02*
G37*
G36*
X208071D02*
X205905D01*
X206184Y165074D01*
X206711Y164388D01*
X207397Y163861D01*
X208071Y163582D01*
Y165748D01*
D02*
G37*
G36*
X334941Y163190D02*
Y161024D01*
X337107D01*
X336828Y161697D01*
X336301Y162384D01*
X335615Y162911D01*
X334941Y163190D01*
D02*
G37*
G36*
X332972D02*
X332299Y162911D01*
X331612Y162384D01*
X331085Y161697D01*
X330806Y161024D01*
X332972D01*
Y163190D01*
D02*
G37*
G36*
X362215Y161811D02*
X359311D01*
Y158907D01*
X360271D01*
X362215Y160851D01*
Y161811D01*
D02*
G37*
G36*
X148524Y163977D02*
X147850Y163698D01*
X147163Y163171D01*
X146636Y162485D01*
X146357Y161811D01*
X148524D01*
Y163977D01*
D02*
G37*
G36*
X251378Y163780D02*
Y161614D01*
X253544D01*
X253265Y162288D01*
X252738Y162975D01*
X252052Y163502D01*
X251378Y163780D01*
D02*
G37*
G36*
X249410D02*
X248736Y163502D01*
X248049Y162975D01*
X247522Y162288D01*
X247243Y161614D01*
X249410D01*
Y163780D01*
D02*
G37*
G36*
X260827Y181202D02*
Y179035D01*
X262993D01*
X262714Y179709D01*
X262187Y180396D01*
X261500Y180923D01*
X260827Y181202D01*
D02*
G37*
G36*
X299157Y197736D02*
X298228D01*
Y197416D01*
X298327D01*
X298826Y197515D01*
X299157Y197736D01*
D02*
G37*
G36*
X319193Y198328D02*
Y196161D01*
X321359D01*
X321080Y196835D01*
X320553Y197522D01*
X319866Y198049D01*
X319193Y198328D01*
D02*
G37*
G36*
X317224D02*
X316551Y198049D01*
X315864Y197522D01*
X315337Y196835D01*
X315058Y196161D01*
X317224D01*
Y198328D01*
D02*
G37*
G36*
X265259Y204626D02*
X261268D01*
Y204430D01*
X261375Y203892D01*
X261679Y203436D01*
X262135Y203132D01*
X262450Y203069D01*
Y202559D01*
X262135Y202496D01*
X261679Y202192D01*
X261375Y201736D01*
X261268Y201198D01*
Y201002D01*
X265259D01*
Y201198D01*
X265152Y201736D01*
X264847Y202192D01*
X264391Y202496D01*
X264076Y202559D01*
Y203069D01*
X264391Y203132D01*
X264847Y203436D01*
X265152Y203892D01*
X265259Y204430D01*
Y204626D01*
D02*
G37*
G36*
X228346Y201280D02*
Y199114D01*
X230513D01*
X230234Y199788D01*
X229707Y200475D01*
X229020Y201002D01*
X228346Y201280D01*
D02*
G37*
G36*
X226378D02*
X225704Y201002D01*
X225018Y200475D01*
X224491Y199788D01*
X224212Y199114D01*
X226378D01*
Y201280D01*
D02*
G37*
G36*
Y197146D02*
X224212D01*
X224491Y196472D01*
X225018Y195785D01*
X225704Y195258D01*
X226378Y194979D01*
Y197146D01*
D02*
G37*
G36*
X355807Y195276D02*
X354429D01*
Y193898D01*
X354735Y194025D01*
X355270Y194435D01*
X355680Y194969D01*
X355807Y195276D01*
D02*
G37*
G36*
X308610Y193701D02*
X307086D01*
Y192690D01*
X307283D01*
X307821Y192797D01*
X308277Y193101D01*
X308581Y193557D01*
X308610Y193701D01*
D02*
G37*
G36*
X307283Y196680D02*
X307086D01*
Y195669D01*
X308610D01*
X308581Y195813D01*
X308277Y196269D01*
X307821Y196574D01*
X307283Y196680D01*
D02*
G37*
G36*
X305118D02*
X304921D01*
X304383Y196574D01*
X303927Y196269D01*
X303623Y195813D01*
X303594Y195669D01*
X305118D01*
Y196680D01*
D02*
G37*
G36*
X230513Y197146D02*
X228346D01*
Y194979D01*
X229020Y195258D01*
X229707Y195785D01*
X230234Y196472D01*
X230513Y197146D01*
D02*
G37*
G36*
X241437Y204331D02*
X239271D01*
X239550Y203657D01*
X240077Y202970D01*
X240763Y202443D01*
X241437Y202164D01*
Y204331D01*
D02*
G37*
G36*
X248228Y225690D02*
X247555Y225411D01*
X246868Y224884D01*
X246341Y224197D01*
X246062Y223524D01*
X248228D01*
Y225690D01*
D02*
G37*
G36*
X250197D02*
Y223524D01*
X252363D01*
X252084Y224197D01*
X251557Y224884D01*
X250870Y225411D01*
X250197Y225690D01*
D02*
G37*
G36*
X264247Y208118D02*
Y206595D01*
X265259D01*
Y206792D01*
X265152Y207329D01*
X264847Y207785D01*
X264391Y208090D01*
X264247Y208118D01*
D02*
G37*
G36*
X252363Y221555D02*
X250197D01*
Y219389D01*
X250870Y219668D01*
X251557Y220195D01*
X252084Y220882D01*
X252363Y221555D01*
D02*
G37*
G36*
X248228D02*
X246062D01*
X246341Y220882D01*
X246868Y220195D01*
X247555Y219668D01*
X248228Y219389D01*
Y221555D01*
D02*
G37*
G36*
X269488Y218551D02*
Y217028D01*
X270499D01*
Y217225D01*
X270392Y217762D01*
X270088Y218218D01*
X269632Y218523D01*
X269488Y218551D01*
D02*
G37*
G36*
X315677Y206496D02*
X314665D01*
Y204972D01*
X314809Y205001D01*
X315265Y205305D01*
X315570Y205761D01*
X315677Y206299D01*
Y206496D01*
D02*
G37*
G36*
X312697D02*
X311686D01*
Y206299D01*
X311793Y205761D01*
X312097Y205305D01*
X312553Y205001D01*
X312697Y204972D01*
Y206496D01*
D02*
G37*
G36*
X245572Y204331D02*
X243406D01*
Y202164D01*
X244079Y202443D01*
X244766Y202970D01*
X245293Y203657D01*
X245572Y204331D01*
D02*
G37*
G36*
X262279Y208118D02*
X262135Y208090D01*
X261679Y207785D01*
X261375Y207329D01*
X261268Y206792D01*
Y206595D01*
X262279D01*
Y208118D01*
D02*
G37*
G36*
X243406Y208466D02*
Y206299D01*
X245572D01*
X245293Y206973D01*
X244766Y207660D01*
X244079Y208187D01*
X243406Y208466D01*
D02*
G37*
G36*
X241437D02*
X240763Y208187D01*
X240077Y207660D01*
X239550Y206973D01*
X239271Y206299D01*
X241437D01*
Y208466D01*
D02*
G37*
G36*
X227067Y185926D02*
X226393Y185647D01*
X225707Y185120D01*
X225180Y184433D01*
X224901Y183760D01*
X227067D01*
Y185926D01*
D02*
G37*
G36*
X254082Y184055D02*
X252559D01*
Y183044D01*
X252756D01*
X253293Y183151D01*
X253749Y183455D01*
X254054Y183911D01*
X254082Y184055D01*
D02*
G37*
G36*
X250590D02*
X249067D01*
X249095Y183911D01*
X249400Y183455D01*
X249856Y183151D01*
X250393Y183044D01*
X250590D01*
Y184055D01*
D02*
G37*
G36*
X212894Y186221D02*
Y184055D01*
X215060D01*
X214781Y184729D01*
X214254Y185415D01*
X213567Y185942D01*
X212894Y186221D01*
D02*
G37*
G36*
X210925D02*
X210252Y185942D01*
X209565Y185415D01*
X209038Y184729D01*
X208759Y184055D01*
X210925D01*
Y186221D01*
D02*
G37*
G36*
X229035Y185926D02*
Y183760D01*
X231202D01*
X230923Y184433D01*
X230396Y185120D01*
X229709Y185647D01*
X229035Y185926D01*
D02*
G37*
G36*
X210925Y182087D02*
X208759D01*
X209038Y181413D01*
X209565Y180726D01*
X210252Y180199D01*
X210925Y179920D01*
Y182087D01*
D02*
G37*
G36*
X231202Y181791D02*
X229035D01*
Y179625D01*
X229709Y179904D01*
X230396Y180431D01*
X230923Y181118D01*
X231202Y181791D01*
D02*
G37*
G36*
X227067D02*
X224901D01*
X225180Y181118D01*
X225707Y180431D01*
X226393Y179904D01*
X227067Y179625D01*
Y181791D01*
D02*
G37*
G36*
X346555Y183564D02*
Y181398D01*
X348721D01*
X348442Y182071D01*
X347916Y182758D01*
X347229Y183285D01*
X346555Y183564D01*
D02*
G37*
G36*
X344587D02*
X343913Y183285D01*
X343226Y182758D01*
X342699Y182071D01*
X342420Y181398D01*
X344587D01*
Y183564D01*
D02*
G37*
G36*
X215060Y182087D02*
X212894D01*
Y179920D01*
X213567Y180199D01*
X214254Y180726D01*
X214781Y181413D01*
X215060Y182087D01*
D02*
G37*
G36*
X257185Y185433D02*
X256201D01*
Y184153D01*
X257185D01*
Y185433D01*
D02*
G37*
G36*
X273425Y189614D02*
Y188090D01*
X274436D01*
Y188287D01*
X274329Y188825D01*
X274025Y189280D01*
X273569Y189585D01*
X273425Y189614D01*
D02*
G37*
G36*
X271457D02*
X271313Y189585D01*
X270857Y189280D01*
X270552Y188825D01*
X270445Y188287D01*
Y188090D01*
X271457D01*
Y189614D01*
D02*
G37*
G36*
X252756Y187035D02*
X252559D01*
Y186024D01*
X254082D01*
X254054Y186168D01*
X253749Y186623D01*
X253293Y186928D01*
X252756Y187035D01*
D02*
G37*
G36*
X305118Y193701D02*
X303594D01*
X303623Y193557D01*
X303927Y193101D01*
X304383Y192797D01*
X304921Y192690D01*
X305118D01*
Y193701D01*
D02*
G37*
G36*
X321359Y194193D02*
X319193D01*
Y192027D01*
X319866Y192306D01*
X320553Y192833D01*
X321080Y193519D01*
X321359Y194193D01*
D02*
G37*
G36*
X317224D02*
X315058D01*
X315337Y193519D01*
X315864Y192833D01*
X316551Y192306D01*
X317224Y192027D01*
Y194193D01*
D02*
G37*
G36*
X266634Y185433D02*
X265650D01*
Y184153D01*
X266634D01*
Y185433D01*
D02*
G37*
G36*
X263681D02*
X262697D01*
Y184153D01*
X263681D01*
Y185433D01*
D02*
G37*
G36*
X260138D02*
X259154D01*
Y184153D01*
X260138D01*
Y185433D01*
D02*
G37*
G36*
X250590Y187035D02*
X250393D01*
X249856Y186928D01*
X249400Y186623D01*
X249095Y186168D01*
X249067Y186024D01*
X250590D01*
Y187035D01*
D02*
G37*
G36*
X274436Y186122D02*
X273425D01*
Y184598D01*
X273569Y184627D01*
X274025Y184931D01*
X274329Y185387D01*
X274436Y185925D01*
Y186122D01*
D02*
G37*
G36*
X271457D02*
X270445D01*
Y185925D01*
X270552Y185387D01*
X270857Y184931D01*
X271313Y184627D01*
X271457Y184598D01*
Y186122D01*
D02*
G37*
G36*
X208760Y128543D02*
X206593D01*
X206873Y127870D01*
X207400Y127183D01*
X208086Y126656D01*
X208760Y126377D01*
Y128543D01*
D02*
G37*
G36*
X320768Y128249D02*
Y126083D01*
X322934D01*
X322655Y126756D01*
X322128Y127443D01*
X321441Y127970D01*
X320768Y128249D01*
D02*
G37*
G36*
X318799D02*
X318126Y127970D01*
X317439Y127443D01*
X316912Y126756D01*
X316633Y126083D01*
X318799D01*
Y128249D01*
D02*
G37*
G36*
X166535Y132088D02*
Y129921D01*
X168702D01*
X168423Y130595D01*
X167896Y131282D01*
X167209Y131808D01*
X166535Y132088D01*
D02*
G37*
G36*
X164567D02*
X163893Y131808D01*
X163207Y131282D01*
X162680Y130595D01*
X162401Y129921D01*
X164567D01*
Y132088D01*
D02*
G37*
G36*
X212895Y128543D02*
X210728D01*
Y126377D01*
X211402Y126656D01*
X212089Y127183D01*
X212616Y127870D01*
X212895Y128543D01*
D02*
G37*
G36*
X229429Y128052D02*
X228755Y127773D01*
X228069Y127246D01*
X227542Y126559D01*
X227263Y125886D01*
X229429D01*
Y128052D01*
D02*
G37*
G36*
X168702Y127953D02*
X166535D01*
Y125786D01*
X167209Y126066D01*
X167896Y126592D01*
X168423Y127279D01*
X168702Y127953D01*
D02*
G37*
G36*
X164567D02*
X162401D01*
X162680Y127279D01*
X163207Y126592D01*
X163893Y126066D01*
X164567Y125786D01*
Y127953D01*
D02*
G37*
G36*
X189765Y128248D02*
X187598D01*
Y126082D01*
X188272Y126361D01*
X188959Y126888D01*
X189486Y127574D01*
X189765Y128248D01*
D02*
G37*
G36*
X185630D02*
X183464D01*
X183743Y127574D01*
X184270Y126888D01*
X184956Y126361D01*
X185630Y126082D01*
Y128248D01*
D02*
G37*
G36*
X231398Y128052D02*
Y125886D01*
X233564D01*
X233285Y126559D01*
X232758Y127246D01*
X232071Y127773D01*
X231398Y128052D01*
D02*
G37*
G36*
X185630Y132383D02*
X184956Y132104D01*
X184270Y131577D01*
X183743Y130890D01*
X183464Y130217D01*
X185630D01*
Y132383D01*
D02*
G37*
G36*
X315531Y138189D02*
X314469D01*
Y136378D01*
X315531D01*
Y138189D01*
D02*
G37*
G36*
X312500D02*
X311437D01*
Y136378D01*
X312500D01*
Y138189D01*
D02*
G37*
G36*
X334942Y137697D02*
X332776D01*
Y135530D01*
X333449Y135810D01*
X334136Y136337D01*
X334663Y137023D01*
X334942Y137697D01*
D02*
G37*
G36*
X246850Y139962D02*
X246177Y139683D01*
X245490Y139156D01*
X244963Y138469D01*
X244684Y137795D01*
X246850D01*
Y139962D01*
D02*
G37*
G36*
X266464Y138189D02*
X265453D01*
Y136665D01*
X265597Y136694D01*
X266053Y136998D01*
X266357Y137454D01*
X266464Y137992D01*
Y138189D01*
D02*
G37*
G36*
X263484D02*
X262473D01*
Y137992D01*
X262580Y137454D01*
X262884Y136998D01*
X263340Y136694D01*
X263484Y136665D01*
Y138189D01*
D02*
G37*
G36*
X210728Y132678D02*
Y130512D01*
X212895D01*
X212616Y131185D01*
X212089Y131872D01*
X211402Y132399D01*
X210728Y132678D01*
D02*
G37*
G36*
X208760D02*
X208086Y132399D01*
X207400Y131872D01*
X206873Y131185D01*
X206593Y130512D01*
X208760D01*
Y132678D01*
D02*
G37*
G36*
X187598Y132383D02*
Y130217D01*
X189765D01*
X189486Y130890D01*
X188959Y131577D01*
X188272Y132104D01*
X187598Y132383D01*
D02*
G37*
G36*
X330807Y137697D02*
X328641D01*
X328920Y137023D01*
X329447Y136337D01*
X330134Y135810D01*
X330807Y135530D01*
Y137697D01*
D02*
G37*
G36*
X250985Y135827D02*
X248819D01*
Y133660D01*
X249493Y133940D01*
X250179Y134466D01*
X250706Y135153D01*
X250985Y135827D01*
D02*
G37*
G36*
X246850D02*
X244684D01*
X244963Y135153D01*
X245490Y134466D01*
X246177Y133940D01*
X246850Y133660D01*
Y135827D01*
D02*
G37*
G36*
X292421Y114373D02*
Y113583D01*
X292541D01*
Y113898D01*
X292457Y114320D01*
X292421Y114373D01*
D02*
G37*
G36*
X282579D02*
X282543Y114320D01*
X282459Y113898D01*
Y113583D01*
X282579D01*
Y114373D01*
D02*
G37*
G36*
X296279Y110159D02*
X295964D01*
Y110039D01*
X296755D01*
X296702Y110075D01*
X296279Y110159D01*
D02*
G37*
G36*
X340650Y122540D02*
X339976Y122261D01*
X339289Y121734D01*
X338762Y121048D01*
X338483Y120374D01*
X340650D01*
Y122540D01*
D02*
G37*
G36*
X344784Y118405D02*
X342618D01*
Y116239D01*
X343292Y116518D01*
X343979Y117045D01*
X344505Y117732D01*
X344784Y118405D01*
D02*
G37*
G36*
X340650D02*
X338483D01*
X338762Y117732D01*
X339289Y117045D01*
X339976Y116518D01*
X340650Y116239D01*
Y118405D01*
D02*
G37*
G36*
X354528Y102559D02*
X352362D01*
Y100393D01*
X353036Y100672D01*
X353723Y101199D01*
X354250Y101885D01*
X354528Y102559D01*
D02*
G37*
G36*
X350394D02*
X348227D01*
X348506Y101885D01*
X349033Y101199D01*
X349720Y100672D01*
X350394Y100393D01*
Y102559D01*
D02*
G37*
G36*
X296755Y100197D02*
X295964D01*
Y100077D01*
X296279D01*
X296702Y100161D01*
X296755Y100197D01*
D02*
G37*
G36*
X279035Y110159D02*
X278720D01*
X278298Y110075D01*
X278245Y110039D01*
X279035D01*
Y110159D01*
D02*
G37*
G36*
X352362Y106694D02*
Y104528D01*
X354528D01*
X354250Y105201D01*
X353723Y105888D01*
X353036Y106415D01*
X352362Y106694D01*
D02*
G37*
G36*
X350394D02*
X349720Y106415D01*
X349033Y105888D01*
X348506Y105201D01*
X348227Y104528D01*
X350394D01*
Y106694D01*
D02*
G37*
G36*
X342618Y122540D02*
Y120374D01*
X344784D01*
X344505Y121048D01*
X343979Y121734D01*
X343292Y122261D01*
X342618Y122540D01*
D02*
G37*
G36*
X257972Y126773D02*
X257299Y126494D01*
X256612Y125967D01*
X256085Y125280D01*
X255806Y124606D01*
X257972D01*
Y126773D01*
D02*
G37*
G36*
X322934Y124114D02*
X320768D01*
Y121948D01*
X321441Y122227D01*
X322128Y122754D01*
X322655Y123441D01*
X322934Y124114D01*
D02*
G37*
G36*
X318799D02*
X316633D01*
X316912Y123441D01*
X317439Y122754D01*
X318126Y122227D01*
X318799Y121948D01*
Y124114D01*
D02*
G37*
G36*
X302854Y127363D02*
Y125197D01*
X305021D01*
X304742Y125871D01*
X304215Y126557D01*
X303528Y127084D01*
X302854Y127363D01*
D02*
G37*
G36*
X300886D02*
X300212Y127084D01*
X299525Y126557D01*
X298998Y125871D01*
X298720Y125197D01*
X300886D01*
Y127363D01*
D02*
G37*
G36*
X259941Y126773D02*
Y124606D01*
X262107D01*
X261828Y125280D01*
X261301Y125967D01*
X260615Y126494D01*
X259941Y126773D01*
D02*
G37*
G36*
X300886Y123228D02*
X298720D01*
X298998Y122555D01*
X299525Y121868D01*
X300212Y121341D01*
X300886Y121062D01*
Y123228D01*
D02*
G37*
G36*
X262107Y122638D02*
X259941D01*
Y120472D01*
X260615Y120750D01*
X261301Y121277D01*
X261828Y121964D01*
X262107Y122638D01*
D02*
G37*
G36*
X257972D02*
X255806D01*
X256085Y121964D01*
X256612Y121277D01*
X257299Y120750D01*
X257972Y120472D01*
Y122638D01*
D02*
G37*
G36*
X233564Y123917D02*
X231398D01*
Y121751D01*
X232071Y122030D01*
X232758Y122557D01*
X233285Y123244D01*
X233564Y123917D01*
D02*
G37*
G36*
X229429D02*
X227263D01*
X227542Y123244D01*
X228069Y122557D01*
X228755Y122030D01*
X229429Y121751D01*
Y123917D01*
D02*
G37*
G36*
X305021Y123228D02*
X302854D01*
Y121062D01*
X303528Y121341D01*
X304215Y121868D01*
X304742Y122555D01*
X305021Y123228D01*
D02*
G37*
G36*
X248819Y139962D02*
Y137795D01*
X250985D01*
X250706Y138469D01*
X250179Y139156D01*
X249493Y139683D01*
X248819Y139962D01*
D02*
G37*
G36*
X195177Y152068D02*
X194503Y151789D01*
X193817Y151262D01*
X193290Y150575D01*
X193011Y149902D01*
X195177D01*
Y152068D01*
D02*
G37*
G36*
X265453Y151425D02*
Y149901D01*
X266464D01*
Y150098D01*
X266357Y150636D01*
X266053Y151092D01*
X265597Y151396D01*
X265453Y151425D01*
D02*
G37*
G36*
X263484D02*
X263340Y151396D01*
X262884Y151092D01*
X262580Y150636D01*
X262473Y150098D01*
Y149901D01*
X263484D01*
Y151425D01*
D02*
G37*
G36*
X311719Y151425D02*
Y149902D01*
X312730D01*
Y150099D01*
X312623Y150636D01*
X312319Y151092D01*
X311863Y151397D01*
X311719Y151425D01*
D02*
G37*
G36*
X309750D02*
X309607Y151397D01*
X309151Y151092D01*
X308846Y150636D01*
X308739Y150099D01*
Y149902D01*
X309750D01*
Y151425D01*
D02*
G37*
G36*
X197146Y152068D02*
Y149902D01*
X199312D01*
X199033Y150575D01*
X198506Y151262D01*
X197819Y151789D01*
X197146Y152068D01*
D02*
G37*
G36*
X162106Y150887D02*
X161433Y150608D01*
X160746Y150081D01*
X160219Y149394D01*
X159940Y148721D01*
X162106D01*
Y150887D01*
D02*
G37*
G36*
X221950Y150787D02*
X219783D01*
Y148621D01*
X220457Y148900D01*
X221144Y149427D01*
X221671Y150114D01*
X221950Y150787D01*
D02*
G37*
G36*
X217815D02*
X215649D01*
X215928Y150114D01*
X216455Y149427D01*
X217141Y148900D01*
X217815Y148621D01*
Y150787D01*
D02*
G37*
G36*
X360271Y156683D02*
X356383D01*
X354439Y154739D01*
Y150851D01*
X356383Y148907D01*
X360271D01*
X362215Y150851D01*
Y154739D01*
X360271Y156683D01*
D02*
G37*
G36*
X350271D02*
X346383D01*
X344439Y154739D01*
Y150851D01*
X346383Y148907D01*
X350271D01*
X352215Y150851D01*
Y154739D01*
X350271Y156683D01*
D02*
G37*
G36*
X164075Y150887D02*
Y148721D01*
X166241D01*
X165962Y149394D01*
X165435Y150081D01*
X164748Y150608D01*
X164075Y150887D01*
D02*
G37*
G36*
X305420Y151504D02*
X304239D01*
X303701Y151397D01*
X303245Y151092D01*
X302941Y150636D01*
X302858Y150222D01*
X299812D01*
X299729Y150636D01*
X299425Y151092D01*
X298969Y151396D01*
X298431Y151503D01*
X297250D01*
X296713Y151396D01*
X296257Y151092D01*
X295952Y150636D01*
X295846Y150098D01*
Y147736D01*
X295952Y147198D01*
X296257Y146742D01*
X296536Y146556D01*
Y141535D01*
X296257Y141348D01*
X295952Y140892D01*
X295846Y140355D01*
Y137992D01*
X295952Y137455D01*
X296257Y136999D01*
X296713Y136694D01*
X297250Y136588D01*
X298431D01*
X298969Y136694D01*
X299425Y136999D01*
X299729Y137455D01*
X299836Y137992D01*
Y140355D01*
X299729Y140892D01*
X299425Y141348D01*
X299146Y141535D01*
Y146556D01*
X299425Y146742D01*
X299672Y147112D01*
X300078Y147065D01*
X300172Y147029D01*
Y144488D01*
X300255Y144072D01*
X300271Y143989D01*
X300554Y143566D01*
X304744Y139375D01*
Y136378D01*
X308839D01*
Y141969D01*
X305841D01*
X302781Y145029D01*
Y146538D01*
X303097Y146678D01*
X303281Y146719D01*
X303701Y146439D01*
X304239Y146332D01*
X305420D01*
X305957Y146439D01*
X306413Y146743D01*
X306718Y147199D01*
X306825Y147737D01*
Y150099D01*
X306718Y150636D01*
X306413Y151092D01*
X305957Y151397D01*
X305420Y151504D01*
D02*
G37*
G36*
X273328Y156791D02*
X271161D01*
Y154625D01*
X271835Y154904D01*
X272522Y155431D01*
X273049Y156118D01*
X273328Y156791D01*
D02*
G37*
G36*
X269193D02*
X267027D01*
X267306Y156118D01*
X267833Y155431D01*
X268519Y154904D01*
X269193Y154625D01*
Y156791D01*
D02*
G37*
G36*
X322737Y156496D02*
X320571D01*
Y154330D01*
X321245Y154609D01*
X321931Y155136D01*
X322458Y155822D01*
X322737Y156496D01*
D02*
G37*
G36*
X233268Y159253D02*
X232594Y158974D01*
X231907Y158447D01*
X231380Y157760D01*
X231101Y157087D01*
X233268D01*
Y159253D01*
D02*
G37*
G36*
X337107Y159055D02*
X334941D01*
Y156889D01*
X335615Y157168D01*
X336301Y157695D01*
X336828Y158381D01*
X337107Y159055D01*
D02*
G37*
G36*
X332972D02*
X330806D01*
X331085Y158381D01*
X331612Y157695D01*
X332299Y157168D01*
X332972Y156889D01*
Y159055D01*
D02*
G37*
G36*
X219783Y154922D02*
Y152756D01*
X221950D01*
X221671Y153429D01*
X221144Y154116D01*
X220457Y154643D01*
X219783Y154922D01*
D02*
G37*
G36*
X217815D02*
X217141Y154643D01*
X216455Y154116D01*
X215928Y153429D01*
X215649Y152756D01*
X217815D01*
Y154922D01*
D02*
G37*
G36*
X280604Y151504D02*
X279423D01*
X278885Y151397D01*
X278429Y151092D01*
X278125Y150636D01*
X278042Y150222D01*
X272345D01*
X272263Y150636D01*
X271958Y151092D01*
X271502Y151396D01*
X270965Y151503D01*
X269783D01*
X269246Y151396D01*
X268790Y151092D01*
X268485Y150636D01*
X268378Y150098D01*
Y147736D01*
X268485Y147198D01*
X268790Y146742D01*
X269246Y146438D01*
X269783Y146331D01*
X270965D01*
X271502Y146438D01*
X271958Y146742D01*
X272113Y146974D01*
X272613Y146822D01*
Y143257D01*
X271090Y141734D01*
X270965Y141759D01*
X269783D01*
X269246Y141652D01*
X268790Y141348D01*
X268485Y140892D01*
X268378Y140354D01*
Y137992D01*
X268485Y137454D01*
X268790Y136998D01*
X269246Y136694D01*
X269783Y136587D01*
X270965D01*
X271502Y136694D01*
X271958Y136998D01*
X272263Y137454D01*
X272370Y137992D01*
Y139323D01*
X274716Y141670D01*
X275203Y141501D01*
X275217Y141490D01*
Y136378D01*
X279311D01*
Y139375D01*
X280936Y141000D01*
X281219Y141424D01*
X281235Y141506D01*
X281318Y141923D01*
Y146556D01*
X281597Y146743D01*
X281902Y147199D01*
X282009Y147737D01*
Y150099D01*
X281902Y150636D01*
X281597Y151092D01*
X281142Y151397D01*
X280604Y151504D01*
D02*
G37*
G36*
X318602Y156496D02*
X316436D01*
X316715Y155822D01*
X317242Y155136D01*
X317929Y154609D01*
X318602Y154330D01*
Y156496D01*
D02*
G37*
G36*
X237403Y155118D02*
X235236D01*
Y152952D01*
X235910Y153231D01*
X236597Y153758D01*
X237123Y154445D01*
X237403Y155118D01*
D02*
G37*
G36*
X233268D02*
X231101D01*
X231380Y154445D01*
X231907Y153758D01*
X232594Y153231D01*
X233268Y152952D01*
Y155118D01*
D02*
G37*
G36*
X265453Y141681D02*
Y140157D01*
X266464D01*
Y140354D01*
X266357Y140892D01*
X266053Y141348D01*
X265597Y141652D01*
X265453Y141681D01*
D02*
G37*
G36*
X263484D02*
X263340Y141652D01*
X262884Y141348D01*
X262580Y140892D01*
X262473Y140354D01*
Y140157D01*
X263484D01*
Y141681D01*
D02*
G37*
G36*
X332776Y141832D02*
Y139665D01*
X334942D01*
X334663Y140339D01*
X334136Y141026D01*
X333449Y141553D01*
X332776Y141832D01*
D02*
G37*
G36*
X143898Y144489D02*
X143224Y144210D01*
X142537Y143683D01*
X142010Y142997D01*
X141731Y142323D01*
X143898D01*
Y144489D01*
D02*
G37*
G36*
X315531Y141969D02*
X314469D01*
Y140157D01*
X315531D01*
Y141969D01*
D02*
G37*
G36*
X312500D02*
X311437D01*
Y140157D01*
X312500D01*
Y141969D01*
D02*
G37*
G36*
X350271Y146683D02*
X346383D01*
X344439Y144739D01*
Y140851D01*
X346383Y138908D01*
X350271D01*
X352215Y140851D01*
Y144739D01*
X350271Y146683D01*
D02*
G37*
G36*
X148032Y140354D02*
X145866D01*
Y138188D01*
X146540Y138467D01*
X147227Y138994D01*
X147753Y139681D01*
X148032Y140354D01*
D02*
G37*
G36*
X143898D02*
X141731D01*
X142010Y139681D01*
X142537Y138994D01*
X143224Y138467D01*
X143898Y138188D01*
Y140354D01*
D02*
G37*
G36*
X330807Y141832D02*
X330134Y141553D01*
X329447Y141026D01*
X328920Y140339D01*
X328641Y139665D01*
X330807D01*
Y141832D01*
D02*
G37*
G36*
X362215Y141811D02*
X359311D01*
Y138908D01*
X360271D01*
X362215Y140851D01*
Y141811D01*
D02*
G37*
G36*
X357343D02*
X354439D01*
Y140851D01*
X356383Y138908D01*
X357343D01*
Y141811D01*
D02*
G37*
G36*
X145866Y144489D02*
Y142323D01*
X148032D01*
X147753Y142997D01*
X147227Y143683D01*
X146540Y144210D01*
X145866Y144489D01*
D02*
G37*
G36*
X263484Y147933D02*
X262473D01*
Y147736D01*
X262580Y147198D01*
X262884Y146742D01*
X263340Y146438D01*
X263484Y146409D01*
Y147933D01*
D02*
G37*
G36*
X286850Y157756D02*
X281260D01*
Y153661D01*
X282751D01*
Y150781D01*
X282833Y150365D01*
X282850Y150282D01*
X283133Y149859D01*
X283923Y149068D01*
Y147737D01*
X284030Y147199D01*
X284335Y146743D01*
X284791Y146439D01*
X285328Y146332D01*
X286509D01*
X287047Y146439D01*
X287503Y146743D01*
X287807Y147199D01*
X287914Y147737D01*
Y150099D01*
X287807Y150636D01*
X287503Y151092D01*
X287047Y151397D01*
X286509Y151504D01*
X285360D01*
Y153661D01*
X286850D01*
Y157756D01*
D02*
G37*
G36*
X296595Y157756D02*
X291004D01*
Y153661D01*
X292495D01*
Y151503D01*
X291345D01*
X290807Y151396D01*
X290351Y151092D01*
X290047Y150636D01*
X289940Y150098D01*
Y147736D01*
X290047Y147198D01*
X290351Y146742D01*
X290807Y146438D01*
X291345Y146331D01*
X292526D01*
X293064Y146438D01*
X293519Y146742D01*
X293824Y147198D01*
X293931Y147736D01*
Y149067D01*
X294722Y149858D01*
X295005Y150282D01*
X295104Y150781D01*
Y153661D01*
X296595D01*
Y157756D01*
D02*
G37*
G36*
X312730Y147933D02*
X311719D01*
Y146410D01*
X311863Y146439D01*
X312319Y146743D01*
X312623Y147199D01*
X312730Y147737D01*
Y147933D01*
D02*
G37*
G36*
X309750D02*
X308739D01*
Y147737D01*
X308846Y147199D01*
X309151Y146743D01*
X309607Y146439D01*
X309750Y146410D01*
Y147933D01*
D02*
G37*
G36*
X266464Y147933D02*
X265453D01*
Y146409D01*
X265597Y146438D01*
X266053Y146742D01*
X266357Y147198D01*
X266464Y147736D01*
Y147933D01*
D02*
G37*
G36*
X162106Y146752D02*
X159940D01*
X160219Y146078D01*
X160746Y145392D01*
X161433Y144865D01*
X162106Y144586D01*
Y146752D01*
D02*
G37*
G36*
X360271Y146683D02*
X359311D01*
Y143780D01*
X362215D01*
Y144739D01*
X360271Y146683D01*
D02*
G37*
G36*
X357343D02*
X356383D01*
X354439Y144739D01*
Y143780D01*
X357343D01*
Y146683D01*
D02*
G37*
G36*
X199312Y147933D02*
X197146D01*
Y145767D01*
X197819Y146046D01*
X198506Y146573D01*
X199033Y147259D01*
X199312Y147933D01*
D02*
G37*
G36*
X195177D02*
X193011D01*
X193290Y147259D01*
X193817Y146573D01*
X194503Y146046D01*
X195177Y145767D01*
Y147933D01*
D02*
G37*
G36*
X166241Y146752D02*
X164075D01*
Y144586D01*
X164748Y144865D01*
X165435Y145392D01*
X165962Y146078D01*
X166241Y146752D01*
D02*
G37*
%LPD*%
D10*
X325224Y94161D02*
G03*
X313490Y104922I-11014J-232D01*
G01*
X120946Y146129D02*
G03*
X190354Y105118I67918J35708D01*
G01*
X307185D02*
X313484Y105020D01*
X120946Y146129D02*
Y153033D01*
X120965Y153051D01*
D11*
X282185Y195472D02*
D03*
X284154D02*
D03*
X286122D02*
D03*
X288090D02*
D03*
X290059D02*
D03*
X292028D02*
D03*
X293996D02*
D03*
Y213779D02*
D03*
X292028D02*
D03*
X290059D02*
D03*
X288090D02*
D03*
X286122D02*
D03*
X284154D02*
D03*
X282185D02*
D03*
D12*
X297244Y198721D02*
D03*
Y200689D02*
D03*
Y202658D02*
D03*
Y204626D02*
D03*
Y206594D02*
D03*
Y208563D02*
D03*
Y210531D02*
D03*
X278937D02*
D03*
Y208563D02*
D03*
Y206594D02*
D03*
Y204626D02*
D03*
Y202658D02*
D03*
Y200689D02*
D03*
Y198721D02*
D03*
D13*
X288090Y204626D02*
D03*
D14*
X120965Y173524D02*
D03*
D15*
X124902Y181004D02*
D03*
X122933D02*
D03*
X120965D02*
D03*
X118996D02*
D03*
X117028D02*
D03*
Y166043D02*
D03*
X118996D02*
D03*
X120965D02*
D03*
X122933D02*
D03*
X124902D02*
D03*
X291437Y112598D02*
D03*
X289468D02*
D03*
X287500D02*
D03*
X285531D02*
D03*
X283563D02*
D03*
Y97638D02*
D03*
X285531D02*
D03*
X287500D02*
D03*
X289468D02*
D03*
X291437D02*
D03*
D16*
X113484Y177461D02*
D03*
Y175492D02*
D03*
Y173524D02*
D03*
Y171555D02*
D03*
Y169587D02*
D03*
X128445D02*
D03*
Y171555D02*
D03*
Y173524D02*
D03*
Y175492D02*
D03*
Y177461D02*
D03*
X294980Y101181D02*
D03*
Y103150D02*
D03*
Y105118D02*
D03*
Y107087D02*
D03*
Y109055D02*
D03*
X280020D02*
D03*
Y107087D02*
D03*
Y105118D02*
D03*
Y103150D02*
D03*
Y101181D02*
D03*
D17*
X287500Y105118D02*
D03*
D18*
X253051Y321063D02*
D03*
X247146D02*
D03*
X268504Y216044D02*
D03*
X274410D02*
D03*
X269169Y200017D02*
D03*
X263263D02*
D03*
X313681Y207480D02*
D03*
X307776D02*
D03*
X286319Y321063D02*
D03*
X280413D02*
D03*
X241634D02*
D03*
X235728D02*
D03*
X266765Y251378D02*
D03*
X260860D02*
D03*
X243012D02*
D03*
X237106D02*
D03*
X278346Y187106D02*
D03*
X272441D02*
D03*
X285919Y169586D02*
D03*
X280013D02*
D03*
X297841Y148917D02*
D03*
X291935D02*
D03*
X280013Y148918D02*
D03*
X285919D02*
D03*
X291935Y139173D02*
D03*
X297841D02*
D03*
X304829Y148918D02*
D03*
X310735D02*
D03*
X297841Y169586D02*
D03*
X291935D02*
D03*
X270374Y148917D02*
D03*
X264469D02*
D03*
X270374Y139173D02*
D03*
X264469D02*
D03*
X246949Y327264D02*
D03*
X252854D02*
D03*
X263263Y205611D02*
D03*
X269169D02*
D03*
D19*
X251574Y185039D02*
D03*
Y190945D02*
D03*
X251771Y254429D02*
D03*
Y248524D02*
D03*
X306102Y188779D02*
D03*
Y194685D02*
D03*
X310138Y172539D02*
D03*
Y166634D02*
D03*
X267126D02*
D03*
Y172539D02*
D03*
D20*
X304035Y282776D02*
D03*
Y289469D02*
D03*
X284055Y155709D02*
D03*
Y162402D02*
D03*
X293799Y162402D02*
D03*
Y155709D02*
D03*
D21*
X57441Y153268D02*
D03*
X47441D02*
D03*
X37441D02*
D03*
Y173346D02*
D03*
X47441D02*
D03*
X57441D02*
D03*
D22*
X291870Y303937D02*
D03*
X286870D02*
D03*
X281870D02*
D03*
X276870D02*
D03*
X271870D02*
D03*
X266870D02*
D03*
X261870D02*
D03*
X256870D02*
D03*
X251870D02*
D03*
X246870D02*
D03*
X241870D02*
D03*
X236870D02*
D03*
X291870Y268110D02*
D03*
X286870D02*
D03*
X281870D02*
D03*
X276870D02*
D03*
X271870D02*
D03*
X266870D02*
D03*
X261870D02*
D03*
X256870D02*
D03*
X251870D02*
D03*
X246870D02*
D03*
X241870D02*
D03*
X236870D02*
D03*
D23*
X300590Y177165D02*
D03*
X293898D02*
D03*
X283957D02*
D03*
X277264D02*
D03*
X283957Y139173D02*
D03*
X277264D02*
D03*
X306791Y139173D02*
D03*
X313484D02*
D03*
D24*
X258169Y190866D02*
D03*
X264665D02*
D03*
Y186417D02*
D03*
X258169D02*
D03*
D25*
X285531Y107087D02*
X287500Y105118D01*
X285531Y107087D02*
Y112598D01*
X283563Y109055D02*
X285531Y107087D01*
X283563Y109055D02*
Y112598D01*
X280020Y109055D02*
X283563D01*
X280020Y107087D02*
X285531D01*
X285531Y103150D02*
X287500Y105118D01*
X283563Y101181D02*
X285531Y103150D01*
X280020D02*
X285531D01*
X280020Y101181D02*
X283563D01*
X287500Y97638D02*
Y105118D01*
X289468Y103150D01*
Y97638D02*
Y103150D01*
X291437Y101181D01*
X294980D01*
X289468Y103150D02*
X294980D01*
X289468Y107087D02*
X289468Y107087D01*
X287500Y105118D02*
X289468Y107087D01*
X289468Y107087D02*
X291437Y109055D01*
X289468Y107087D02*
X294980D01*
X291437Y109055D02*
X294980D01*
X291437Y109055D02*
Y112598D01*
X289468Y107087D02*
Y112598D01*
X286122Y202658D02*
X288090Y204626D01*
X282185Y198721D02*
X286122Y202658D01*
X282185Y195472D02*
Y198721D01*
X292028Y200689D02*
X293996Y198721D01*
X290059Y202658D02*
X292028Y200689D01*
X288090Y204626D02*
X290059Y202658D01*
X293996Y198721D02*
X297244D01*
X290059Y202658D02*
X297244D01*
X288090Y204626D02*
X297244D01*
X292028Y195472D02*
Y200689D01*
X286122Y195472D02*
Y202658D01*
X278937Y204626D02*
X288090D01*
X282185Y210531D02*
X286122Y206594D01*
X288090Y204626D01*
X278937Y206594D02*
X286122D01*
X278937Y210531D02*
X282185D01*
X184092Y171457D02*
X242064Y229429D01*
X127756Y171457D02*
X184092D01*
X184449Y169587D02*
X229331Y214469D01*
X128445Y169587D02*
X184449D01*
X122933Y175492D02*
X124902Y177461D01*
X120965Y173524D02*
X122933Y175492D01*
X124902Y177461D02*
Y181004D01*
X120965Y173524D02*
X128445D01*
X118996Y175492D02*
X120965Y173524D01*
X122933Y171555D01*
Y175492D02*
Y181004D01*
X118996Y175492D02*
X118996Y175492D01*
X117028Y177461D02*
X118996Y175492D01*
Y181004D01*
Y171555D02*
X120965Y173524D01*
X117028Y177461D02*
X117028Y177461D01*
X117028Y177461D02*
Y181004D01*
X113484Y177461D02*
X117028D01*
X113484Y175492D02*
X118996D01*
X113484Y171555D02*
X118996D01*
X117028Y169587D02*
X118996Y171555D01*
X113484Y169587D02*
X117028D01*
Y166043D02*
Y169587D01*
X118996Y166043D02*
Y171555D01*
X122933Y171555D02*
X124902Y169587D01*
Y166043D02*
Y169587D01*
X122933Y166043D02*
Y171555D01*
Y175492D02*
X128445D01*
X140453Y179626D02*
X141732Y180905D01*
X130610Y179626D02*
X140453D01*
X128445Y177461D02*
X130610Y179626D01*
X294980Y105118D02*
X307185D01*
X141732Y180905D02*
Y195965D01*
X291437Y80807D02*
Y97638D01*
Y80807D02*
X298622Y73622D01*
X285531Y31656D02*
Y97638D01*
X283563Y31398D02*
Y97638D01*
Y31398D02*
X301772Y13189D01*
X120965Y153051D02*
Y166043D01*
Y181004D02*
Y195374D01*
X242064Y229429D02*
X290059D01*
X229331Y214469D02*
X258071D01*
X335827Y233268D02*
X361516Y207579D01*
X275098Y233268D02*
X335827D01*
X287450Y112599D02*
X287500Y127854D01*
X361516Y205020D02*
Y207579D01*
X285531Y31656D02*
X302424Y14764D01*
X333403D01*
X364272Y45633D01*
X349705Y189862D02*
X364272Y175295D01*
Y45633D02*
Y175295D01*
X361516Y205020D02*
X365846Y200689D01*
Y44980D02*
Y200689D01*
X349705Y189862D02*
Y202362D01*
X353445Y206102D01*
X301772Y13189D02*
X334055D01*
X365846Y44980D01*
X348327Y162795D02*
Y165847D01*
X331398Y182776D02*
X348327Y165847D01*
X281291Y212894D02*
X282260Y213862D01*
X266535Y212894D02*
X281291D01*
X264961Y214469D02*
X266535Y212894D01*
X258071Y214469D02*
X264961D01*
X357677Y201181D02*
X361516Y205020D01*
X353445Y201181D02*
X357677D01*
X290059Y229429D02*
X335531D01*
X286197Y225567D02*
X290059Y229429D01*
X286197Y215158D02*
Y225567D01*
X291339Y227854D02*
X321063D01*
X288165Y224681D02*
X291339Y227854D01*
X288165Y213862D02*
Y224681D01*
X335531Y229429D02*
X342520Y222441D01*
Y217027D02*
Y222441D01*
Y217027D02*
X353445Y206102D01*
X272342Y105118D02*
X272342Y105118D01*
X268799D02*
X280378D01*
X102362Y173524D02*
X112795D01*
X251574Y190866D02*
X257972D01*
X258169D01*
X321063Y215945D02*
X321260D01*
X314429Y216634D02*
X314469Y216595D01*
X314173Y216634D02*
X314429D01*
X321063Y227854D02*
X326575Y222342D01*
X312008Y214469D02*
X314173Y216634D01*
X318012Y212894D02*
X321063Y215945D01*
X324311Y211319D02*
X335138Y222146D01*
X294390Y219783D02*
X298819D01*
X292102Y217496D02*
X294390Y219783D01*
X292102Y213862D02*
Y217496D01*
X290134Y220646D02*
X293012Y223524D01*
X290134Y213862D02*
Y220646D01*
X294071Y213862D02*
X294677Y214469D01*
X312008D01*
X301378Y212894D02*
X318012D01*
X297319Y210614D02*
X299098D01*
X301378Y212894D01*
X297319Y208646D02*
X299394D01*
X302067Y211319D01*
X324311D01*
X300455Y207480D02*
X307776D01*
X299652Y206677D02*
X300455Y207480D01*
X297319Y206677D02*
X299652D01*
X294169Y193350D02*
X300847Y186673D01*
X294169Y193350D02*
Y195555D01*
X289937Y188041D02*
Y195555D01*
X290134Y188041D02*
X293898Y184277D01*
X288362Y188067D02*
Y195555D01*
X283957Y183858D02*
X288362Y188067D01*
D26*
X255217Y78248D02*
X271358D01*
X271654Y78543D01*
X266765Y249205D02*
X274915Y241055D01*
X266765Y249205D02*
Y251378D01*
X266870Y256496D02*
Y268110D01*
Y251483D02*
Y256496D01*
X271870Y261496D01*
Y268110D01*
X266870Y251483D02*
X276870Y261483D01*
X266765Y251378D02*
X266870Y251483D01*
X276870Y261483D02*
Y268110D01*
X306102Y188779D02*
X323327D01*
X325492Y190945D01*
X309817Y202042D02*
X324730D01*
X325492Y190945D02*
Y201279D01*
X324730Y202042D02*
X325492Y201279D01*
X245866Y194587D02*
Y196949D01*
Y180413D02*
Y194587D01*
X249508Y190945D01*
X251574D01*
X253740Y172539D02*
X267126D01*
X245866Y180413D02*
X253740Y172539D01*
X245866Y196949D02*
X251279Y202362D01*
X307776Y204083D02*
X309817Y202042D01*
X257972Y190866D02*
X258169Y190669D01*
X277559Y224410D02*
X281988Y219980D01*
X262205Y224410D02*
X277559D01*
X261870Y315905D02*
X264567Y318602D01*
X261870Y303937D02*
Y315905D01*
X274015Y321063D02*
X280413D01*
X271870Y318917D02*
X274015Y321063D01*
X271870Y303937D02*
Y318917D01*
X266870Y303937D02*
Y313917D01*
X271870Y318917D01*
X276870Y303937D02*
Y311220D01*
X280413Y314764D01*
X296358D01*
X304035Y307087D01*
Y289469D02*
Y307087D01*
X291870Y303937D02*
Y310276D01*
X296358Y314764D01*
X253051Y321063D02*
X256870Y317244D01*
Y303937D02*
Y317244D01*
X252854Y327264D02*
X254232D01*
X256870Y324626D01*
Y317244D02*
Y324626D01*
X241634Y304173D02*
X241870Y303937D01*
X224902Y318602D02*
X228839Y314665D01*
X238976D01*
X241634Y312008D01*
Y321063D01*
Y304173D02*
Y312008D01*
X286870Y255256D02*
Y268110D01*
Y255256D02*
X290059Y252067D01*
X304035Y258071D02*
Y282776D01*
X298031Y252067D02*
X304035Y258071D01*
X291870Y255374D02*
Y268110D01*
Y255374D02*
X295177Y252067D01*
X298031D01*
X290059D02*
X295177D01*
X257809Y254429D02*
X260860Y251378D01*
X251771Y254429D02*
X257809D01*
X251771D02*
Y268011D01*
X251870Y268110D01*
X243012Y251378D02*
X246870Y255237D01*
Y268110D01*
X224902Y292913D02*
Y318602D01*
Y292913D02*
X241634Y276181D01*
Y268347D02*
Y276181D01*
Y268347D02*
X241870Y268110D01*
X267126Y172539D02*
X272638D01*
X277264Y177165D01*
X211516Y36122D02*
X213090D01*
X255217Y78248D01*
X307776Y204083D02*
Y207480D01*
D27*
X325295Y74016D02*
Y93929D01*
X287466Y134547D02*
X287500Y126870D01*
X184055Y105118D02*
X268799D01*
X120965Y195374D02*
Y283465D01*
X102362Y173524D02*
X102362Y173524D01*
X60807Y173524D02*
X102362D01*
X60630Y173346D02*
X60807Y173524D01*
X37441Y81900D02*
Y129478D01*
X37500Y197451D02*
Y245541D01*
D28*
X275636Y207283D02*
X276802Y208449D01*
X270842Y207283D02*
X275636D01*
X278815Y208449D02*
X279012Y208646D01*
X276802Y208449D02*
X278815D01*
X269169Y205611D02*
X270842Y207283D01*
X269169Y200566D02*
X271311Y202708D01*
X259272Y190669D02*
X269169Y200566D01*
Y205611D01*
Y200017D02*
Y200566D01*
X284032Y195358D02*
X284228Y195555D01*
X281988Y219980D02*
X284228Y217740D01*
Y213862D02*
Y217740D01*
X264665Y190669D02*
X266510D01*
X276613Y200772D01*
X279012D01*
X300590Y177165D02*
X300847Y177421D01*
X300590Y177165D02*
X305217Y172539D01*
X310138D01*
X300590Y172336D02*
Y177165D01*
X297841Y169586D02*
X300590Y172336D01*
X277264Y172336D02*
Y177165D01*
Y172336D02*
X280013Y169586D01*
X277264Y177165D02*
Y186023D01*
X278346Y187106D01*
X293898Y177165D02*
Y184277D01*
X283957Y171548D02*
Y177165D01*
Y171548D02*
X285919Y169586D01*
Y164265D02*
Y169586D01*
X284055Y162402D02*
X285919Y164265D01*
X293898Y171548D02*
Y177165D01*
X291935Y169586D02*
X293898Y171548D01*
X291935Y164265D02*
Y169586D01*
Y164265D02*
X293799Y162402D01*
X284055Y150781D02*
Y155709D01*
Y150781D02*
X285919Y148918D01*
X293799Y150781D02*
Y155709D01*
X291935Y148917D02*
X293799Y150781D01*
X270374Y148917D02*
X270375Y148918D01*
X270374Y139173D02*
X273917Y142716D01*
Y148918D01*
X270375D02*
X273917D01*
X280013D01*
X304829Y148917D02*
X304829Y148918D01*
X297841Y139173D02*
Y148917D01*
X301476Y144488D02*
X306791Y139173D01*
X301476Y144488D02*
Y148917D01*
X297841D02*
X301476D01*
X304829D01*
X277264Y139173D02*
X280013Y141923D01*
Y148918D01*
X278980Y202708D02*
X279012Y202740D01*
X278346Y219980D02*
X281988D01*
X274410Y216044D02*
X278346Y219980D01*
X278346Y187106D02*
Y189862D01*
X281004Y192520D01*
X281217Y192307D01*
X282994D01*
X284032Y193345D01*
Y195358D01*
X302953Y188779D02*
X306102D01*
X300847Y186673D02*
X302953Y188779D01*
X300847Y177421D02*
Y186673D01*
X283957Y177165D02*
Y183858D01*
X258169Y190669D02*
X259272D01*
X271311Y202708D02*
X278980D01*
D29*
X325295Y54626D02*
Y74016D01*
X120965Y287992D02*
Y316142D01*
X37303Y153130D02*
X37441Y153268D01*
X37303Y57973D02*
X37441Y58110D01*
Y173346D02*
X37500Y173406D01*
X37441Y58110D02*
Y81900D01*
Y129478D02*
Y153268D01*
X37500Y173406D02*
Y197451D01*
Y245541D02*
Y269587D01*
D30*
X57441Y173346D02*
X60630D01*
D31*
X199705Y294587D02*
D03*
X339272D02*
D03*
X211516Y36122D02*
D03*
X156447D02*
D03*
D32*
X27303Y47972D02*
D03*
Y67972D02*
D03*
X47303D02*
D03*
Y47972D02*
D03*
X335295Y44626D02*
D03*
X315295D02*
D03*
Y64626D02*
D03*
X335295D02*
D03*
X27500Y279587D02*
D03*
X47500D02*
D03*
Y259587D02*
D03*
X27500D02*
D03*
X110965Y326142D02*
D03*
X130965D02*
D03*
Y306142D02*
D03*
X110965D02*
D03*
D33*
X37303Y57973D02*
D03*
X325295Y54626D02*
D03*
X37500Y269587D02*
D03*
X120965Y316142D02*
D03*
D34*
X350492Y248327D02*
D03*
Y243406D02*
D03*
Y238484D02*
D03*
Y233563D02*
D03*
X353445Y196260D02*
D03*
Y201181D02*
D03*
Y206102D02*
D03*
Y211024D02*
D03*
D35*
X358327Y142795D02*
D03*
Y152795D02*
D03*
Y162795D02*
D03*
X348327Y142795D02*
D03*
Y152795D02*
D03*
Y162795D02*
D03*
D36*
X16535Y337795D02*
D03*
X361417D02*
D03*
Y16535D02*
D03*
X16535D02*
D03*
D37*
X312992Y309646D02*
D03*
X316831Y261811D02*
D03*
X331791Y138681D02*
D03*
X333957Y160039D02*
D03*
X250394Y160630D02*
D03*
X211910Y183071D02*
D03*
X223622Y169685D02*
D03*
X301870Y124213D02*
D03*
X304528Y86122D02*
D03*
X254724Y38484D02*
D03*
X158858Y80315D02*
D03*
X117028Y119390D02*
D03*
X144882Y141339D02*
D03*
X57579Y88878D02*
D03*
X92421Y22933D02*
D03*
X70472Y48622D02*
D03*
X185039Y49213D02*
D03*
X247736Y20276D02*
D03*
X301279Y32087D02*
D03*
X350000Y54035D02*
D03*
X294882Y51870D02*
D03*
X341437Y90453D02*
D03*
X258957Y123622D02*
D03*
X158858Y337303D02*
D03*
X139567Y290256D02*
D03*
X93504Y322342D02*
D03*
X61910Y287008D02*
D03*
X93504Y249016D02*
D03*
X162008Y183661D02*
D03*
X177559Y232874D02*
D03*
X227362Y198130D02*
D03*
X209744Y129528D02*
D03*
X96161Y142421D02*
D03*
X90256Y111909D02*
D03*
X141732Y195965D02*
D03*
X298622Y73622D02*
D03*
X271654Y78543D02*
D03*
X274606Y233268D02*
D03*
X256398Y234744D02*
D03*
X210531Y258661D02*
D03*
X331988Y248622D02*
D03*
X319783Y125098D02*
D03*
X351378Y103543D02*
D03*
X350984Y79921D02*
D03*
X341634Y119390D02*
D03*
X255512Y88287D02*
D03*
X231890Y69291D02*
D03*
X269390Y26181D02*
D03*
X165551Y128937D02*
D03*
X201476Y67716D02*
D03*
X218996Y84744D02*
D03*
X175689Y68504D02*
D03*
X186713Y87500D02*
D03*
X150591Y67126D02*
D03*
X152756Y94587D02*
D03*
X127559Y78839D02*
D03*
X122835Y105610D02*
D03*
X234252Y156102D02*
D03*
X230413Y124902D02*
D03*
X196161Y148917D02*
D03*
X186614Y129232D02*
D03*
X163091Y147736D02*
D03*
X149508Y160827D02*
D03*
X249213Y222539D02*
D03*
X274915Y241055D02*
D03*
X331398Y182776D02*
D03*
X269390Y52854D02*
D03*
X182677Y24114D02*
D03*
X241634Y52756D02*
D03*
X345571Y180413D02*
D03*
X66831Y189173D02*
D03*
X231988Y228445D02*
D03*
X218799Y151772D02*
D03*
X97244Y205906D02*
D03*
X98524Y234547D02*
D03*
X58465Y234154D02*
D03*
X14469Y287402D02*
D03*
X29429Y317323D02*
D03*
X94587Y288287D02*
D03*
X69095Y271555D02*
D03*
X85827Y309842D02*
D03*
X51870Y308957D02*
D03*
X49705Y336319D02*
D03*
X84941Y335433D02*
D03*
X143012Y334941D02*
D03*
X164173Y320472D02*
D03*
Y266732D02*
D03*
X191437Y196260D02*
D03*
X144783Y215650D02*
D03*
X102067Y127559D02*
D03*
X85827Y79134D02*
D03*
X120571Y36024D02*
D03*
X69882Y16142D02*
D03*
X44390Y30217D02*
D03*
X18898Y87500D02*
D03*
X18012Y126673D02*
D03*
X15354Y213878D02*
D03*
X61516Y127559D02*
D03*
X18898Y108169D02*
D03*
X80512Y95866D02*
D03*
X87205Y60925D02*
D03*
X160925Y238976D02*
D03*
X163091Y284350D02*
D03*
X153839Y303543D02*
D03*
X62402Y207087D02*
D03*
X91437Y266634D02*
D03*
X178740Y161713D02*
D03*
X318701Y177362D02*
D03*
X319587Y157480D02*
D03*
X247835Y136811D02*
D03*
X240354Y35138D02*
D03*
X113484Y20965D02*
D03*
X209055Y166732D02*
D03*
X149705Y319685D02*
D03*
X313779Y329134D02*
D03*
X260138Y245472D02*
D03*
X65453Y106791D02*
D03*
X211614Y232776D02*
D03*
X228051Y182776D02*
D03*
X215551Y212008D02*
D03*
X166634Y201378D02*
D03*
X141142Y233268D02*
D03*
X185827Y217717D02*
D03*
X158169Y222638D02*
D03*
X147539Y248917D02*
D03*
X14862Y244685D02*
D03*
X17717Y147441D02*
D03*
X16339Y177953D02*
D03*
X80807Y146752D02*
D03*
X66634Y70177D02*
D03*
X113484Y53839D02*
D03*
X101378Y42520D02*
D03*
X100689Y97835D02*
D03*
X107776Y153839D02*
D03*
X85039Y124114D02*
D03*
X80807Y200000D02*
D03*
X82284Y223327D02*
D03*
X70177Y224803D02*
D03*
X73721Y249606D02*
D03*
X82284Y282972D02*
D03*
X68799Y325492D02*
D03*
X43209Y322638D02*
D03*
X75689Y32480D02*
D03*
X67323Y302461D02*
D03*
X148327Y274213D02*
D03*
X314370Y276870D02*
D03*
X191240Y328051D02*
D03*
X105610Y80216D02*
D03*
X318209Y195177D02*
D03*
X325492Y201279D02*
D03*
X251279Y202362D02*
D03*
X262205Y224410D02*
D03*
X264567Y318602D02*
D03*
X224902Y318602D02*
D03*
X335138Y222146D02*
D03*
X326575D02*
D03*
X258071Y214469D02*
D03*
X321260Y215945D02*
D03*
X314469Y216595D02*
D03*
X293012Y223524D02*
D03*
X298819Y219783D02*
D03*
X265650Y284646D02*
D03*
X270177Y157776D02*
D03*
X242421Y205315D02*
D03*
X259842Y178051D02*
D03*
M02*
