%FSLAX25Y25*%
%MOIN*%
G70*
G01*
G75*
G04 Layer_Color=16711935*
%ADD10C,0.11794*%
%ADD11O,0.00984X0.03150*%
%ADD12O,0.03150X0.00984*%
%ADD13R,0.12205X0.12205*%
%ADD14R,0.07874X0.07874*%
%ADD15O,0.00591X0.03189*%
%ADD16O,0.03189X0.00591*%
%ADD17R,0.07874X0.07874*%
G04:AMPARAMS|DCode=18|XSize=23.62mil|YSize=35.43mil|CornerRadius=5.91mil|HoleSize=0mil|Usage=FLASHONLY|Rotation=0.000|XOffset=0mil|YOffset=0mil|HoleType=Round|Shape=RoundedRectangle|*
%AMROUNDEDRECTD18*
21,1,0.02362,0.02362,0,0,0.0*
21,1,0.01181,0.03543,0,0,0.0*
1,1,0.01181,0.00591,-0.01181*
1,1,0.01181,-0.00591,-0.01181*
1,1,0.01181,-0.00591,0.01181*
1,1,0.01181,0.00591,0.01181*
%
%ADD18ROUNDEDRECTD18*%
G04:AMPARAMS|DCode=19|XSize=23.62mil|YSize=35.43mil|CornerRadius=5.91mil|HoleSize=0mil|Usage=FLASHONLY|Rotation=90.000|XOffset=0mil|YOffset=0mil|HoleType=Round|Shape=RoundedRectangle|*
%AMROUNDEDRECTD19*
21,1,0.02362,0.02362,0,0,90.0*
21,1,0.01181,0.03543,0,0,90.0*
1,1,0.01181,0.01181,0.00591*
1,1,0.01181,0.01181,-0.00591*
1,1,0.01181,-0.01181,-0.00591*
1,1,0.01181,-0.01181,0.00591*
%
%ADD19ROUNDEDRECTD19*%
%ADD20R,0.04016X0.02520*%
%ADD21R,0.06496X0.10000*%
%ADD22O,0.02362X0.09055*%
%ADD23R,0.02520X0.04016*%
%ADD24R,0.02362X0.02953*%
%ADD25C,0.00787*%
%ADD26C,0.01969*%
%ADD27C,0.11798*%
%ADD28C,0.00984*%
%ADD29C,0.06693*%
%ADD30C,0.05906*%
%ADD31C,0.39370*%
%ADD32C,0.11024*%
%ADD33C,0.07874*%
%ADD34C,0.03543*%
G04:AMPARAMS|DCode=35|XSize=62.01mil|YSize=62.01mil|CornerRadius=0mil|HoleSize=0mil|Usage=FLASHONLY|Rotation=0.000|XOffset=0mil|YOffset=0mil|HoleType=Round|Shape=Octagon|*
%AMOCTAGOND35*
4,1,8,0.03100,-0.01550,0.03100,0.01550,0.01550,0.03100,-0.01550,0.03100,-0.03100,0.01550,-0.03100,-0.01550,-0.01550,-0.03100,0.01550,-0.03100,0.03100,-0.01550,0.0*
%
%ADD35OCTAGOND35*%

%ADD36C,0.19685*%
%ADD37C,0.05000*%
%ADD38C,0.02362*%
%ADD39C,0.01000*%
%ADD40C,0.00492*%
%ADD41C,0.01008*%
%ADD42O,0.01784X0.03950*%
%ADD43O,0.03950X0.01784*%
%ADD44R,0.13005X0.13005*%
%ADD45R,0.08674X0.08674*%
%ADD46O,0.01391X0.03989*%
%ADD47O,0.03989X0.01391*%
%ADD48R,0.08674X0.08674*%
G04:AMPARAMS|DCode=49|XSize=31.62mil|YSize=43.43mil|CornerRadius=9.91mil|HoleSize=0mil|Usage=FLASHONLY|Rotation=0.000|XOffset=0mil|YOffset=0mil|HoleType=Round|Shape=RoundedRectangle|*
%AMROUNDEDRECTD49*
21,1,0.03162,0.02362,0,0,0.0*
21,1,0.01181,0.04343,0,0,0.0*
1,1,0.01981,0.00591,-0.01181*
1,1,0.01981,-0.00591,-0.01181*
1,1,0.01981,-0.00591,0.01181*
1,1,0.01981,0.00591,0.01181*
%
%ADD49ROUNDEDRECTD49*%
G04:AMPARAMS|DCode=50|XSize=31.62mil|YSize=43.43mil|CornerRadius=9.91mil|HoleSize=0mil|Usage=FLASHONLY|Rotation=90.000|XOffset=0mil|YOffset=0mil|HoleType=Round|Shape=RoundedRectangle|*
%AMROUNDEDRECTD50*
21,1,0.03162,0.02362,0,0,90.0*
21,1,0.01181,0.04343,0,0,90.0*
1,1,0.01981,0.01181,0.00591*
1,1,0.01981,0.01181,-0.00591*
1,1,0.01981,-0.01181,-0.00591*
1,1,0.01981,-0.01181,0.00591*
%
%ADD50ROUNDEDRECTD50*%
%ADD51R,0.04816X0.03320*%
%ADD52R,0.07296X0.10800*%
%ADD53O,0.03162X0.09855*%
%ADD54R,0.03320X0.04816*%
%ADD55R,0.03162X0.03753*%
%ADD56C,0.40170*%
%ADD57C,0.11824*%
%ADD58C,0.08674*%
%ADD59C,0.04343*%
G04:AMPARAMS|DCode=60|XSize=70.01mil|YSize=70.01mil|CornerRadius=0mil|HoleSize=0mil|Usage=FLASHONLY|Rotation=0.000|XOffset=0mil|YOffset=0mil|HoleType=Round|Shape=Octagon|*
%AMOCTAGOND60*
4,1,8,0.03500,-0.01750,0.03500,0.01750,0.01750,0.03500,-0.01750,0.03500,-0.03500,0.01750,-0.03500,-0.01750,-0.01750,-0.03500,0.01750,-0.03500,0.03500,-0.01750,0.0*
%
%ADD60OCTAGOND60*%

%ADD61C,0.20485*%
%ADD62C,0.05800*%
D56*
X199705Y294587D02*
D03*
X339272D02*
D03*
X211516Y36122D02*
D03*
X156447D02*
D03*
D57*
X27303Y47972D02*
D03*
Y67972D02*
D03*
X47303D02*
D03*
Y47972D02*
D03*
X335295Y44626D02*
D03*
X315295D02*
D03*
Y64626D02*
D03*
X335295D02*
D03*
X27500Y279587D02*
D03*
X47500D02*
D03*
Y259587D02*
D03*
X27500D02*
D03*
X110965Y326142D02*
D03*
X130965D02*
D03*
Y306142D02*
D03*
X110965D02*
D03*
D58*
X37303Y57973D02*
D03*
X325295Y54626D02*
D03*
X37500Y269587D02*
D03*
X120965Y316142D02*
D03*
D59*
X350492Y248327D02*
D03*
Y243406D02*
D03*
Y238484D02*
D03*
Y233563D02*
D03*
X353445Y196260D02*
D03*
Y201181D02*
D03*
Y206102D02*
D03*
Y211024D02*
D03*
D60*
X358327Y142795D02*
D03*
Y152795D02*
D03*
Y162795D02*
D03*
X348327Y142795D02*
D03*
Y152795D02*
D03*
Y162795D02*
D03*
D61*
X16535Y337795D02*
D03*
X361417D02*
D03*
Y16535D02*
D03*
X16535D02*
D03*
D62*
X312992Y309646D02*
D03*
X316831Y261811D02*
D03*
X331791Y138681D02*
D03*
X333957Y160039D02*
D03*
X250394Y160630D02*
D03*
X211910Y183071D02*
D03*
X223622Y169685D02*
D03*
X301870Y124213D02*
D03*
X304528Y86122D02*
D03*
X254724Y38484D02*
D03*
X158858Y80315D02*
D03*
X117028Y119390D02*
D03*
X144882Y141339D02*
D03*
X57579Y88878D02*
D03*
X92421Y22933D02*
D03*
X70472Y48622D02*
D03*
X185039Y49213D02*
D03*
X247736Y20276D02*
D03*
X301279Y32087D02*
D03*
X350000Y54035D02*
D03*
X294882Y51870D02*
D03*
X341437Y90453D02*
D03*
X258957Y123622D02*
D03*
X158858Y337303D02*
D03*
X139567Y290256D02*
D03*
X93504Y322342D02*
D03*
X61910Y287008D02*
D03*
X93504Y249016D02*
D03*
X162008Y183661D02*
D03*
X177559Y232874D02*
D03*
X227362Y198130D02*
D03*
X209744Y129528D02*
D03*
X96161Y142421D02*
D03*
X90256Y111909D02*
D03*
X141732Y195965D02*
D03*
X298622Y73622D02*
D03*
X271654Y78543D02*
D03*
X274606Y233268D02*
D03*
X256398Y234744D02*
D03*
X210531Y258661D02*
D03*
X331988Y248622D02*
D03*
X319783Y125098D02*
D03*
X351378Y103543D02*
D03*
X350984Y79921D02*
D03*
X341634Y119390D02*
D03*
X255512Y88287D02*
D03*
X231890Y69291D02*
D03*
X269390Y26181D02*
D03*
X165551Y128937D02*
D03*
X201476Y67716D02*
D03*
X218996Y84744D02*
D03*
X175689Y68504D02*
D03*
X186713Y87500D02*
D03*
X150591Y67126D02*
D03*
X152756Y94587D02*
D03*
X127559Y78839D02*
D03*
X122835Y105610D02*
D03*
X234252Y156102D02*
D03*
X230413Y124902D02*
D03*
X196161Y148917D02*
D03*
X186614Y129232D02*
D03*
X163091Y147736D02*
D03*
X149508Y160827D02*
D03*
X249213Y222539D02*
D03*
X274915Y241055D02*
D03*
X331398Y182776D02*
D03*
X269390Y52854D02*
D03*
X182677Y24114D02*
D03*
X241634Y52756D02*
D03*
X345571Y180413D02*
D03*
X66831Y189173D02*
D03*
X231988Y228445D02*
D03*
X218799Y151772D02*
D03*
X97244Y205906D02*
D03*
X98524Y234547D02*
D03*
X58465Y234154D02*
D03*
X14469Y287402D02*
D03*
X29429Y317323D02*
D03*
X94587Y288287D02*
D03*
X69095Y271555D02*
D03*
X85827Y309842D02*
D03*
X51870Y308957D02*
D03*
X49705Y336319D02*
D03*
X84941Y335433D02*
D03*
X143012Y334941D02*
D03*
X164173Y320472D02*
D03*
Y266732D02*
D03*
X191437Y196260D02*
D03*
X144783Y215650D02*
D03*
X102067Y127559D02*
D03*
X85827Y79134D02*
D03*
X120571Y36024D02*
D03*
X69882Y16142D02*
D03*
X44390Y30217D02*
D03*
X18898Y87500D02*
D03*
X18012Y126673D02*
D03*
X15354Y213878D02*
D03*
X61516Y127559D02*
D03*
X18898Y108169D02*
D03*
X80512Y95866D02*
D03*
X87205Y60925D02*
D03*
X160925Y238976D02*
D03*
X163091Y284350D02*
D03*
X153839Y303543D02*
D03*
X62402Y207087D02*
D03*
X91437Y266634D02*
D03*
X178740Y161713D02*
D03*
X318701Y177362D02*
D03*
X319587Y157480D02*
D03*
X247835Y136811D02*
D03*
X240354Y35138D02*
D03*
X113484Y20965D02*
D03*
X209055Y166732D02*
D03*
X149705Y319685D02*
D03*
X313779Y329134D02*
D03*
X260138Y245472D02*
D03*
X65453Y106791D02*
D03*
X211614Y232776D02*
D03*
X228051Y182776D02*
D03*
X215551Y212008D02*
D03*
X166634Y201378D02*
D03*
X141142Y233268D02*
D03*
X185827Y217717D02*
D03*
X158169Y222638D02*
D03*
X147539Y248917D02*
D03*
X14862Y244685D02*
D03*
X17717Y147441D02*
D03*
X16339Y177953D02*
D03*
X80807Y146752D02*
D03*
X66634Y70177D02*
D03*
X113484Y53839D02*
D03*
X101378Y42520D02*
D03*
X100689Y97835D02*
D03*
X107776Y153839D02*
D03*
X85039Y124114D02*
D03*
X80807Y200000D02*
D03*
X82284Y223327D02*
D03*
X70177Y224803D02*
D03*
X73721Y249606D02*
D03*
X82284Y282972D02*
D03*
X68799Y325492D02*
D03*
X43209Y322638D02*
D03*
X75689Y32480D02*
D03*
X67323Y302461D02*
D03*
X148327Y274213D02*
D03*
X314370Y276870D02*
D03*
X191240Y328051D02*
D03*
X105610Y80216D02*
D03*
X318209Y195177D02*
D03*
X325492Y201279D02*
D03*
X251279Y202362D02*
D03*
X262205Y224410D02*
D03*
X264567Y318602D02*
D03*
X224902Y318602D02*
D03*
X335138Y222146D02*
D03*
X326575D02*
D03*
X258071Y214469D02*
D03*
X321260Y215945D02*
D03*
X314469Y216595D02*
D03*
X293012Y223524D02*
D03*
X298819Y219783D02*
D03*
X265650Y284646D02*
D03*
X270177Y157776D02*
D03*
X242421Y205315D02*
D03*
X259842Y178051D02*
D03*
M02*
